<svg width="17" height="20" viewBox="0 0 17 20" fill="none" xmlns="http://www.w3.org/2000/svg">
<path d="M8.49999 9.78129C10.985 9.78129 12.9997 7.5917 12.9997 4.89067C12.9997 2.18959 12.3383 0 8.49999 0C4.66171 0 4.00012 2.18959 4.00012 4.89067C4.00012 7.5917 6.01483 9.78129 8.49999 9.78129Z" fill="#4F7C68"/>
<path d="M0.000782366 17.2487C0.000104817 17.084 -0.000572731 17.2023 0.000782366 17.2487V17.2487Z" fill="#4F7C68"/>
<path d="M16.9987 17.3773C17.0008 17.3322 16.9994 17.0645 16.9987 17.3773V17.3773Z" fill="#4F7C68"/>
<path d="M16.9891 17.0513C16.9058 12.346 16.219 11.0053 10.9639 10.1566C10.9639 10.1566 10.2241 11.0001 8.49991 11.0001C6.77571 11.0001 6.03583 10.1566 6.03583 10.1566C0.83799 10.996 0.109482 12.3169 0.013693 16.8984C0.00583833 17.2725 0.00219836 17.2922 0.000793457 17.2488C0.00111275 17.3301 0.00149577 17.4807 0.00149577 17.7431C0.00149577 17.7431 1.25263 20 8.49991 20C15.7471 20 16.9983 17.7431 16.9983 17.7431C16.9983 17.5745 16.9985 17.4572 16.9986 17.3775C16.9972 17.4043 16.9944 17.3523 16.9891 17.0513Z" fill="#4F7C68"/>
</svg>
