<svg width="25" height="24" viewBox="0 0 25 24" fill="none" xmlns="http://www.w3.org/2000/svg">
<path d="M19.2569 23.6111C19.0234 23.6105 18.7906 23.5849 18.5625 23.5347C14.2199 22.6364 10.2191 20.5301 7.0208 17.4583C3.89071 14.3798 1.71983 10.4601 0.770806 6.17362C0.658904 5.63939 0.686369 5.08536 0.850559 4.56482C1.01475 4.04427 1.31014 3.57474 1.70831 3.2014L4.48608 0.527791C4.62796 0.393615 4.79654 0.290867 4.98082 0.22625C5.16509 0.161634 5.36092 0.136603 5.55553 0.152791C5.75731 0.173841 5.95203 0.238841 6.12599 0.34322C6.29996 0.447599 6.44894 0.588822 6.56247 0.756957L10.0347 5.8889C10.1649 6.08803 10.2278 6.32369 10.214 6.56122C10.2003 6.79874 10.1106 7.02558 9.9583 7.20835L8.21525 9.29168C8.90945 10.8281 9.89257 12.2167 11.1111 13.382C12.3217 14.5895 13.7526 15.5536 15.3264 16.2222L17.4861 14.507C17.6675 14.3636 17.8882 14.2788 18.1189 14.264C18.3496 14.2491 18.5794 14.3048 18.7778 14.4236L24.0208 17.8125C24.2007 17.9199 24.354 18.0667 24.4692 18.2418C24.5843 18.4169 24.6584 18.6157 24.6858 18.8235C24.7132 19.0312 24.6932 19.2425 24.6273 19.4414C24.5615 19.6404 24.4515 19.8218 24.3055 19.9722L21.5972 22.6528C21.2895 22.9589 20.9244 23.2012 20.5228 23.3657C20.1211 23.5301 19.6909 23.6136 19.2569 23.6111ZM5.44442 1.52779L2.66664 4.2014C2.44265 4.41012 2.27684 4.67354 2.18552 4.96576C2.0942 5.25799 2.08051 5.56895 2.14581 5.86807C3.02825 9.89039 5.05672 13.5711 7.98608 16.4653C10.9959 19.3553 14.7608 21.3364 18.8472 22.1806C19.1565 22.2452 19.477 22.2321 19.78 22.1424C20.083 22.0528 20.359 21.8893 20.5833 21.6667L23.2916 18.9861L18.2291 15.7153L15.9097 17.5625C15.8209 17.6328 15.7163 17.6803 15.6049 17.7009C15.4936 17.7214 15.3789 17.7145 15.2708 17.6806C13.3449 16.971 11.5996 15.8446 10.1597 14.382C8.67036 12.9911 7.51429 11.282 6.77775 9.38196C6.74659 9.26693 6.74555 9.14582 6.77474 9.03028C6.80393 8.91474 6.86236 8.80866 6.94442 8.72223L8.81942 6.47918L5.44442 1.52779Z" fill="black"/>
</svg>