<svg id="Слой_1" data-name="Слой 1" xmlns="http://www.w3.org/2000/svg" viewBox="0 0 357.05 91.54"><defs><style>.cls-1{opacity:0.3;}.cls-2{fill:#fff;}.cls-3{fill:#c20d19;}</style></defs><title>logo-white</title><g class="cls-1"><path class="cls-2" d="M217.22,434.88h6.35A2.41,2.41,0,0,1,226,437.3v23.62h20.23a2.19,2.19,0,0,1,2.19,2.19v5.09H217.22Z" transform="translate(-106.85 -427.51)"/><path class="cls-2" d="M268.91,461.82c4.23,0,6.14-2.19,6.14-6.76v-18a2.19,2.19,0,0,1,2.19-2.19h6.56V455c0,8.42-4.95,13.37-14.65,13.37H265c-9.71,0-14.66-4.95-14.66-13.37V434.88h6.57a2.19,2.19,0,0,1,2.19,2.19v18c0,4.57,1.9,6.76,6.14,6.76Z" transform="translate(-106.85 -427.51)"/><path class="cls-2" d="M305.32,434.69h5.18c6.48,0,13.38,3.48,13.38,10.24v2.57h-5.83a2.41,2.41,0,0,1-2.28-1.69c-.09-.26-.21-.55-.36-.88a5.91,5.91,0,0,0-5.71-3.67h-4.15c-6.85,0-8.7,2.52-8.7,10.28s1.85,10.28,8.7,10.28h4.62a5.9,5.9,0,0,0,5.71-3.66c.17-.37.3-.69.4-1a2.39,2.39,0,0,1,2.26-1.6h5.81v2.57c0,6.75-6.9,10.23-13.37,10.23h-5.66c-11.38,0-17.23-5.28-17.23-16.85S293.94,434.69,305.32,434.69Z" transform="translate(-106.85 -427.51)"/><path class="cls-2" d="M328.88,468.2V434.88s1,0,2.18,0h4.38a2.22,2.22,0,0,1,2.19,2.23v11.14h5c2.71,0,4.66-1.38,6.52-4.71l3.62-6.43a3.92,3.92,0,0,1,3.33-2.23h5.38c1.19,0,1.88,0,1.88,0l-6.21,11.33c-1.19,2.14-2.77,4.38-6,5.14,2.28.48,4.66,3.38,6,5.43l7.1,11.42h-7.44a4.79,4.79,0,0,1-3.57-2.19l-4.09-6.47c-1.76-2.81-3.52-4.76-6.52-4.76h-5v11a2.45,2.45,0,0,1-2.45,2.45Z" transform="translate(-106.85 -427.51)"/><path class="cls-2" d="M376.66,456.3l-13.72-21.42h6.53a4.69,4.69,0,0,1,4,2.19L381,448.69l7.52-11.62a4.68,4.68,0,0,1,4-2.19h6.65L385.42,456.3v9.48A2.42,2.42,0,0,1,383,468.2h-6.34Z" transform="translate(-106.85 -427.51)"/></g><polygon class="cls-3" points="25.26 6.19 25.26 25.26 6.19 25.26 6.19 90.82 90.82 90.82 90.82 6.19 25.26 6.19"/><rect class="cls-3" x="108.04" y="428.7" width="19.07" height="19.07" transform="translate(-164.35 -407.87) rotate(-7.68)"/><path class="cls-2" d="M237.12,485c8.85,0,14,4,14,12.95s-5.19,12.94-14,12.94H226v5.24a2.18,2.18,0,0,1-2.19,2.19h-6.57V485h19.9ZM226,491.58v12.76h8.47c4.57,0,8-.95,8-6.38s-3.38-6.38-8-6.38Z" transform="translate(-106.85 -427.51)"/><path class="cls-2" d="M264.2,506.15v10a2.18,2.18,0,0,1-2.19,2.19h-6.57V485h21.32c6.95,0,12.14,4,12.14,10.57,0,5.14-3.95,7.52-8.76,8.47,1.95.72,3.38,2.38,5.29,5.38l5.82,8.9h-8a4.81,4.81,0,0,1-3.57-2.19L275.76,510c-1.19-1.85-2.9-3.8-5.9-3.8Zm0-14.57v8h9.9c2.66,0,6-.95,6-4s-3.38-4-6-4Z" transform="translate(-106.85 -427.51)"/><path class="cls-2" d="M310.7,484.3c11.9,0,18.7,5,18.7,17.37S322.6,519,310.7,519s-18.71-5-18.71-17.37S298.8,484.3,310.7,484.3Zm-9.95,17.37c0,7.14,2.81,11.09,9.95,11.09s9.94-3.95,9.94-11.09-2.8-11.09-9.94-11.09S300.75,494.53,300.75,501.67Z" transform="translate(-106.85 -427.51)"/><path class="cls-2" d="M329.88,518.33v-4.81c0-1.24,1-1.87,2.25-1.87,0,0,3.22.11,4.6.11h1.67c4.28,0,6.14-1.57,6.14-5.8V487.2a2.19,2.19,0,0,1,2.19-2.19h6.56v20.9c0,8.09-5.85,12.42-14.65,12.42Z" transform="translate(-106.85 -427.51)"/><path class="cls-2" d="M390.65,487.2v2.19a2.18,2.18,0,0,1-2.19,2.19H368.24v6.76h17.42a2.22,2.22,0,0,1,2.19,2.19v2.19a2.22,2.22,0,0,1-2.19,2.19H368.24v6.85h20.18a2.13,2.13,0,0,1,2.14,2.14v2.24l0,2.19H361.67a2.19,2.19,0,0,1-2.19-2.24V487.16a2.18,2.18,0,0,1,2.19-2.15h29Z" transform="translate(-106.85 -427.51)"/><path class="cls-2" d="M463.9,485v4.38a2.15,2.15,0,0,1-2.19,2.19H451.33v24.61a2.16,2.16,0,0,1-2.18,2.14h-6.57V491.58H430V487.2A2.16,2.16,0,0,1,432.2,485Z" transform="translate(-106.85 -427.51)"/><path class="cls-2" d="M410.26,484.82h5.19c6.47,0,13.37,3.48,13.37,10.24v2.57H423a2.44,2.44,0,0,1-2.29-1.68,7.92,7.92,0,0,0-.36-.89,5.89,5.89,0,0,0-5.71-3.67H410.5c-6.85,0-8.71,2.52-8.71,10.28S403.65,512,410.5,512h4.62a5.91,5.91,0,0,0,5.71-3.66c.17-.37.3-.69.4-1a2.39,2.39,0,0,1,2.26-1.6h5.81v2.57c0,6.76-6.9,10.23-13.37,10.23h-5.67c-11.37,0-17.23-5.28-17.23-16.85S398.89,484.82,410.26,484.82Z" transform="translate(-106.85 -427.51)"/></svg>