<?xml version="1.0" encoding="utf-8"?>
<!-- Generator: Adobe Illustrator 23.0.0, SVG Export Plug-In . SVG Version: 6.00 Build 0)  -->
<svg version="1.1" id="Layer_1" xmlns="http://www.w3.org/2000/svg" xmlns:xlink="http://www.w3.org/1999/xlink" x="0px" y="0px"
	 viewBox="0 0 1260.12 416" style="enable-background:new 0 0 1260.12 416;" xml:space="preserve">
<style type="text/css">
	.st0{fill:#245659;}
	.st1{fill:#D7193D;}
</style>
<g>
	<g>
		<path d="M438.65,201.47c13.26,0,24.28,4.73,33.04,14.19c8.88,9.58,13.32,21.05,13.32,34.43c0,13.49-4.44,25.03-13.32,34.6
			c-8.76,9.35-19.84,14.02-33.21,14.02c-13.49,0-24.46-5.25-32.87-15.74v51.73H389V203.72h16.6v14.01
			C414.26,206.9,425.26,201.47,438.65,201.47z M468.41,249.91c0-9.34-2.94-17.18-8.82-23.53c-5.89-6.46-13.55-9.69-23.01-9.69
			s-17.12,3.23-23.01,9.69c-5.77,6.46-8.64,14.3-8.64,23.53c0,9.46,2.87,17.42,8.64,23.88c5.89,6.46,13.55,9.69,23.01,9.69
			s17.12-3.23,23.01-9.69C465.46,267.45,468.41,259.49,468.41,249.91z"/>
		<path d="M547.98,298.7c-14.18,0-25.88-4.67-35.12-14.02c-9.11-9.45-13.66-21.05-13.66-34.77c0-13.72,4.55-25.2,13.66-34.42
			c9.11-9.46,20.82-14.19,35.12-14.19c14.07,0,25.67,4.73,34.78,14.19c9.22,9.57,13.84,21.05,13.84,34.42
			c0,13.61-4.62,25.2-13.84,34.77C573.53,294.03,561.94,298.7,547.98,298.7z M579.98,249.91c0-9.11-3.11-16.89-9.34-23.35
			c-6.23-6.58-13.78-9.87-22.66-9.87c-8.88,0-16.44,3.29-22.66,9.87c-6.23,6.46-9.34,14.24-9.34,23.35c0,9.23,3.11,17.13,9.34,23.7
			c6.23,6.58,13.78,9.87,22.66,9.87c8.88,0,16.44-3.29,22.66-9.87C576.87,267.04,579.98,259.14,579.98,249.91z"/>
		<path d="M689.66,217.21v-51.73h16.6v130.96h-16.6v-12.97c-8.07,10.15-18.8,15.22-32.17,15.22c-13.49,0-24.69-4.67-33.56-14.02
			c-8.77-9.45-13.15-21.05-13.15-34.77c0-13.61,4.38-25.02,13.15-34.25c8.76-9.45,19.83-14.19,33.21-14.19
			C670.4,201.47,681.24,206.72,689.66,217.21z M690.88,249.91c0-9.34-2.94-17.18-8.83-23.53c-5.77-6.46-13.37-9.69-22.83-9.69
			c-9.46,0-17.12,3.23-23.01,9.69c-5.77,6.46-8.64,14.3-8.64,23.53c0,9.46,2.87,17.42,8.64,23.88c5.89,6.46,13.55,9.69,23.01,9.69
			c9.46,0,17.06-3.23,22.83-9.69C687.94,267.45,690.88,259.49,690.88,249.91z"/>
		<path d="M818.03,248.36c0,1.15-0.17,3.98-0.52,8.48h-73.87c1.5,8.19,4.96,14.65,10.38,19.37c5.42,4.73,12.8,7.1,22.14,7.1
			c5.54,0,11.25-0.95,17.12-2.85c5.89-1.91,10.96-4.41,15.23-7.52l7.1,12.63c-4.85,3.69-10.85,6.78-17.99,9.26
			c-7.16,2.47-14.42,3.72-21.81,3.72c-8.41,0-15.88-1.38-22.4-4.15c-6.52-2.77-11.68-6.52-15.48-11.25
			c-3.81-4.72-6.7-9.91-8.65-15.57c-1.97-5.65-2.94-11.59-2.94-17.82c0-13.84,4.33-25.37,12.98-34.6
			c8.76-9.11,20.07-13.67,33.9-13.67c13.15,0,23.88,4.21,32.18,12.63C813.81,222.52,818.03,233.94,818.03,248.36z M743.64,242.47
			h57.26c-0.46-7.96-3.26-14.33-8.39-19.11c-5.13-4.78-11.56-7.18-19.3-7.18c-7.49,0-13.95,2.46-19.37,7.36
			C748.42,228.43,745.03,234.75,743.64,242.47z"/>
		<path d="M854.18,165.49v130.96h-16.6V165.49H854.18z"/>
		<path d="M918.55,298.7c-12.12,0-21.78-3.58-28.99-10.73c-7.2-7.15-10.81-16.78-10.81-28.89v-55.36h16.62v54.84
			c0,7.61,2.04,13.64,6.13,18.08c4.1,4.44,9.77,6.66,17.05,6.66c7.26,0,12.97-2.22,17.12-6.66c4.15-4.44,6.23-10.47,6.23-18.08
			v-54.84h16.44v55.36c0,12.34-3.55,22.03-10.64,29.06C940.59,295.18,930.88,298.7,918.55,298.7z"/>
		<path d="M976.31,287.97c0-3,1.06-5.53,3.2-7.61c2.14-2.08,4.77-3.12,7.88-3.12s5.73,1.04,7.87,3.12c2.14,2.08,3.2,4.61,3.2,7.61
			c0,3.23-1.06,5.91-3.2,8.04c-2.14,2.14-4.75,3.2-7.87,3.2s-5.74-1.07-7.88-3.2C977.38,293.89,976.31,291.2,976.31,287.97z"/>
		<path d="M1036.87,296.45h-16.6v-92.73H1036v13.67c5.42-10.73,14.3-16.09,26.65-16.09c3.34,0,6.97,0.46,10.9,1.39l-1.56,16.09
			c-3.34-1.04-6.58-1.56-9.69-1.56c-7.61,0-13.74,2.59-18.43,7.78c-4.67,5.2-7,12.63-7,22.32V296.45z"/>
		<path d="M1126.14,298.7c-12.12,0-21.78-3.58-28.99-10.73c-7.2-7.15-10.81-16.78-10.81-28.89v-55.36h16.62v54.84
			c0,7.61,2.04,13.64,6.13,18.08c4.1,4.44,9.77,6.66,17.05,6.66c7.26,0,12.97-2.22,17.12-6.66c4.15-4.44,6.23-10.47,6.23-18.08
			v-54.84h16.44v55.36c0,12.34-3.55,22.03-10.64,29.06C1148.19,295.18,1138.48,298.7,1126.14,298.7z"/>
	</g>
	<g>
		<path class="st0" d="M131.84,148.77c0-0.04,0.04-0.08,0.08-0.08h45.73c0.04,0,0.08,0.04,0.08,0.08l0,82.62
			c0,0.27,0.35,0.36,0.48,0.13c28.5-48.5,60.23-94.85,97.62-137.36c0.1-0.12,0.07-0.3-0.07-0.37
			c-16.61-7.99-35.22-12.47-54.88-12.47c-18.24,0-35.57,3.86-51.24,10.78c-0.16,0.07-0.18,0.28-0.05,0.39
			c5,4.19,8.15,10.5,8.15,17.52c0,6.33-2.55,12.04-6.71,16.2c-4.13,4.16-9.85,6.71-16.18,6.71h-0.11c-10.11,0-18.7-6.57-21.75-15.68
			c-0.05-0.16-0.26-0.22-0.38-0.1c-23.7,23.04-38.41,55.22-38.41,90.86c0,35.04,14.24,66.75,37.24,89.69
			c0.15,0.15,0.41,0.04,0.41-0.17L131.84,148.77z"/>
		<path class="st0" d="M180.9,327.92c-0.06,0.13,0,0.29,0.14,0.34c12.53,4.15,25.92,6.43,39.84,6.43c34.99,0,66.67-14.18,89.59-37.1
			c22.92-22.95,37.1-54.6,37.1-89.59c0-33.02-12.64-63.07-33.33-85.63c-0.1-0.11-0.27-0.1-0.37,0.01
			C261.29,187.53,216.63,255.92,180.9,327.92z"/>
	</g>
</g>
</svg>
