<?xml version="1.0" encoding="utf-8"?>
<!-- Generator: Adobe Illustrator 23.0.6, SVG Export Plug-In . SVG Version: 6.00 Build 0)  -->
<svg version="1.1" id="Layer_1" xmlns="http://www.w3.org/2000/svg" xmlns:xlink="http://www.w3.org/1999/xlink" x="0px" y="0px"
	 viewBox="0 0 1260.1 416" style="enable-background:new 0 0 1260.1 416;" xml:space="preserve">
<style type="text/css">
	.st0{fill:#FFFFFF;}
</style>
<g>
	<g>
		<path class="st0" d="M438.6,201.5c13.3,0,24.3,4.7,33,14.2c8.9,9.6,13.3,21.1,13.3,34.4c0,13.5-4.4,25-13.3,34.6
			c-8.8,9.4-19.8,14-33.2,14c-13.5,0-24.5-5.3-32.9-15.7v51.7H389v-131h16.6v14C414.3,206.9,425.3,201.5,438.6,201.5z M468.4,249.9
			c0-9.3-2.9-17.2-8.8-23.5c-5.9-6.5-13.5-9.7-23-9.7s-17.1,3.2-23,9.7c-5.8,6.5-8.6,14.3-8.6,23.5c0,9.5,2.9,17.4,8.6,23.9
			c5.9,6.5,13.5,9.7,23,9.7s17.1-3.2,23-9.7C465.5,267.5,468.4,259.5,468.4,249.9z"/>
		<path class="st0" d="M548,298.7c-14.2,0-25.9-4.7-35.1-14c-9.1-9.5-13.7-21-13.7-34.8c0-13.7,4.5-25.2,13.7-34.4
			c9.1-9.5,20.8-14.2,35.1-14.2c14.1,0,25.7,4.7,34.8,14.2c9.2,9.6,13.8,21.1,13.8,34.4c0,13.6-4.6,25.2-13.8,34.8
			C573.5,294,561.9,298.7,548,298.7z M580,249.9c0-9.1-3.1-16.9-9.3-23.4c-6.2-6.6-13.8-9.9-22.7-9.9c-8.9,0-16.4,3.3-22.7,9.9
			c-6.2,6.5-9.3,14.2-9.3,23.4c0,9.2,3.1,17.1,9.3,23.7c6.2,6.6,13.8,9.9,22.7,9.9c8.9,0,16.4-3.3,22.7-9.9
			C576.9,267,580,259.1,580,249.9z"/>
		<path class="st0" d="M689.7,217.2v-51.7h16.6v131h-16.6v-13c-8.1,10.1-18.8,15.2-32.2,15.2c-13.5,0-24.7-4.7-33.6-14
			c-8.8-9.5-13.2-21-13.2-34.8c0-13.6,4.4-25,13.2-34.3c8.8-9.4,19.8-14.2,33.2-14.2C670.4,201.5,681.2,206.7,689.7,217.2z
			 M690.9,249.9c0-9.3-2.9-17.2-8.8-23.5c-5.8-6.5-13.4-9.7-22.8-9.7s-17.1,3.2-23,9.7c-5.8,6.5-8.6,14.3-8.6,23.5
			c0,9.5,2.9,17.4,8.6,23.9c5.9,6.5,13.5,9.7,23,9.7s17.1-3.2,22.8-9.7C687.9,267.5,690.9,259.5,690.9,249.9z"/>
		<path class="st0" d="M818,248.4c0,1.1-0.2,4-0.5,8.5h-73.9c1.5,8.2,5,14.6,10.4,19.4c5.4,4.7,12.8,7.1,22.1,7.1
			c5.5,0,11.3-1,17.1-2.9c5.9-1.9,11-4.4,15.2-7.5l7.1,12.6c-4.8,3.7-10.8,6.8-18,9.3c-7.2,2.5-14.4,3.7-21.8,3.7
			c-8.4,0-15.9-1.4-22.4-4.1s-11.7-6.5-15.5-11.3c-3.8-4.7-6.7-9.9-8.7-15.6c-2-5.6-2.9-11.6-2.9-17.8c0-13.8,4.3-25.4,13-34.6
			c8.8-9.1,20.1-13.7,33.9-13.7c13.2,0,23.9,4.2,32.2,12.6C813.8,222.5,818,233.9,818,248.4z M743.6,242.5h57.3
			c-0.5-8-3.3-14.3-8.4-19.1s-11.6-7.2-19.3-7.2c-7.5,0-14,2.5-19.4,7.4C748.4,228.4,745,234.8,743.6,242.5z"/>
		<path class="st0" d="M854.2,165.5v131h-16.6v-131H854.2z"/>
		<path class="st0" d="M918.5,298.7c-12.1,0-21.8-3.6-29-10.7c-7.2-7.1-10.8-16.8-10.8-28.9v-55.4h16.6v54.8c0,7.6,2,13.6,6.1,18.1
			c4.1,4.4,9.8,6.7,17,6.7c7.3,0,13-2.2,17.1-6.7s6.2-10.5,6.2-18.1v-54.8h16.4v55.4c0,12.3-3.5,22-10.6,29.1
			C940.6,295.2,930.9,298.7,918.5,298.7z"/>
		<path class="st0" d="M976.3,288c0-3,1.1-5.5,3.2-7.6s4.8-3.1,7.9-3.1s5.7,1,7.9,3.1s3.2,4.6,3.2,7.6c0,3.2-1.1,5.9-3.2,8
			c-2.1,2.1-4.8,3.2-7.9,3.2s-5.7-1.1-7.9-3.2C977.4,293.9,976.3,291.2,976.3,288z"/>
		<path class="st0" d="M1036.9,296.5h-16.6v-92.7h15.7v13.7c5.4-10.7,14.3-16.1,26.7-16.1c3.3,0,7,0.5,10.9,1.4l-1.6,16.1
			c-3.3-1-6.6-1.6-9.7-1.6c-7.6,0-13.7,2.6-18.4,7.8c-4.7,5.2-7,12.6-7,22.3V296.5z"/>
		<path class="st0" d="M1126.1,298.7c-12.1,0-21.8-3.6-29-10.7c-7.2-7.1-10.8-16.8-10.8-28.9v-55.4h16.6v54.8c0,7.6,2,13.6,6.1,18.1
			c4.1,4.4,9.8,6.7,17.1,6.7c7.3,0,13-2.2,17.1-6.7s6.2-10.5,6.2-18.1v-54.8h16.4v55.4c0,12.3-3.6,22-10.6,29.1
			C1148.2,295.2,1138.5,298.7,1126.1,298.7z"/>
	</g>
	<g>
		<path class="st0" d="M131.8,148.8C131.8,148.7,131.9,148.7,131.8,148.8l45.8-0.1c0,0,0.1,0,0.1,0.1v82.6c0,0.3,0.4,0.4,0.5,0.1
			c28.5-48.5,60.2-94.9,97.6-137.4c0.1-0.1,0.1-0.3-0.1-0.4c-16.6-8-35.2-12.5-54.9-12.5c-18.2,0-35.6,3.9-51.2,10.8
			c-0.2,0.1-0.2,0.3-0.1,0.4c5,4.2,8.1,10.5,8.1,17.5c0,6.3-2.6,12-6.7,16.2c-4.1,4.2-9.9,6.7-16.2,6.7h-0.1
			c-10.1,0-18.7-6.6-21.8-15.7c-0.1-0.2-0.3-0.2-0.4-0.1c-23.7,23-38.4,55.2-38.4,90.9c0,35,14.2,66.7,37.2,89.7
			c0.1,0.1,0.4,0,0.4-0.2L131.8,148.8z"/>
		<path class="st0" d="M180.9,327.9c-0.1,0.1,0,0.3,0.1,0.3c12.5,4.1,25.9,6.4,39.8,6.4c35,0,66.7-14.2,89.6-37.1
			c22.9-23,37.1-54.6,37.1-89.6c0-33-12.6-63.1-33.3-85.6c-0.1-0.1-0.3-0.1-0.4,0C261.3,187.5,216.6,255.9,180.9,327.9z"/>
	</g>
</g>
</svg>
