<?xml version="1.0" standalone="no"?>
<!DOCTYPE svg PUBLIC "-//W3C//DTD SVG 1.1//EN" "http://www.w3.org/Graphics/SVG/1.1/DTD/svg11.dtd" >
<svg xmlns="http://www.w3.org/2000/svg" xmlns:xlink="http://www.w3.org/1999/xlink" version="1.1">
<metadata>
Created by FontForge 20190801 at Thu Sep 24 17:29:28 2009
 By Jimmy Wärting
The type family in four basic styles was designed in ParaType (ParaGraph) in 1992 by Tagir Safayev. Based on Frutiger, of Mergenthaler Linotype, 1976 by Adrian Frutiger. Frutiger font was originally designed for use on signs at the new Charles de Gaulle Airport at Roissy. The straightforward sans serif shapes are suited well for both text and display setting. Six additional styles were added in 1998-2000. Multilingual versions of 6 styles (Light, Demi and Extrabold) include Armenian alphabet designed by Manvel Shmavonyan in 1997. Two condensed Cyrillic styles (Demi Condensed and Bold Condensed) designed by Manvel Shmavonyan in 2005.
</metadata>
<defs>
<font id="FreeSet-DemiBold" horiz-adv-x="614" >
  <font-face 
    font-family="FreeSet Demi Bold"
    font-weight="600"
    font-stretch="normal"
    units-per-em="1000"
    panose-1="2 11 7 3 5 5 4 2 2 4"
    ascent="800"
    descent="-200"
    x-height="518"
    cap-height="700"
    bbox="-388 -291 1395 1073"
    underline-thickness="50"
    underline-position="-100"
    stemh="98"
    stemv="136"
    unicode-range="U+0020-FB17"
  />
<missing-glyph horiz-adv-x="233" 
 />
    <glyph glyph-name="IJ" unicode="IJ" horiz-adv-x="661" 
d="M70 0v700h142v-700h-142zM449 700h142v-497c0 -94 -17 -211 -181 -211c-33 0 -72 5 -108 13v114c22 -5 50 -9 68 -9c63 0 79 40 79 103v487z" />
    <glyph glyph-name="ij" unicode="ij" horiz-adv-x="530" 
d="M67 518h136v-518h-136v518zM205 736v-140h-140v140h140zM468 518v-559c0 -82 -9 -181 -158 -181c-20 0 -37 1 -60 7v96c11 -3 24 -4 35 -4c43 0 47 34 47 77v564h136zM330 736h140v-140h-140v140z" />
    <glyph glyph-name="afii10017.var.accented" unicode="&#x410;`" horiz-adv-x="749" 
d="M294 700h162l278 -700h-160l-59 158h-289l-59 -158h-152zM271 273h202l-103 286h-2zM270 740l82 140h160l-132 -140h-110z" />
    <glyph glyph-name="afii10022.var.accented" unicode="&#x415;`" horiz-adv-x="538" 
d="M70 700h418v-124h-276v-158h251v-115h-251v-179h276v-124h-418v700zM165 740l82 140h160l-132 -140h-110z" />
    <glyph glyph-name="afii10026.var.accented" unicode="&#x418;`" horiz-adv-x="747" 
d="M70 700h142v-360l-3 -170h3l50 102l245 428h170v-700h-142v361l3 169h-3l-48 -106l-247 -424h-170v700zM269 740l82 140h160l-132 -140h-110z" />
    <glyph glyph-name="afii10032.var.accented" unicode="&#x41e;`" horiz-adv-x="776" 
d="M388 708c173 0 343 -104 343 -358s-170 -358 -343 -358s-343 104 -343 358s170 358 343 358zM388 608c-53 0 -193 -21 -193 -258s140 -258 193 -258s193 21 193 258s-140 258 -193 258zM284 740l82 140h160l-132 -140h-110z" />
    <glyph glyph-name="afii10037.var.accented" unicode="&#x423;`" horiz-adv-x="644" 
d="M10 700h159l139 -298l30 -74h3l30 75l133 297h140l-280 -596c-39 -83 -92 -112 -166 -112c-33 0 -69 6 -106 22l16 106c20 -10 37 -15 60 -15c27 0 59 1 79 47l20 47zM218 740l82 140h160l-132 -140h-110z" />
    <glyph glyph-name="afii10045.var.accented" unicode="&#x42b;`" horiz-adv-x="880" 
d="M212 700v-262h98c241 0 258 -168 258 -212c0 -108 -61 -226 -262 -226h-236v700h142zM212 328v-218h94c67 0 117 41 117 109c0 45 -22 109 -128 109h-83zM668 700h142v-700h-142v700zM336 740l82 140h160l-132 -140h-110z" />
    <glyph glyph-name="afii10047.var.accented" unicode="&#x42d;`" horiz-adv-x="640" 
d="M151 303v115h294c-11 68 -57 175 -233 175c-50 0 -102 -9 -151 -27l-11 112c54 18 118 30 193 30c210 0 352 -130 352 -347c0 -223 -135 -369 -373 -369c-61 0 -122 10 -187 33l17 118c74 -32 138 -36 175 -36c144 0 216 88 218 196h-294zM216 740l82 140h160l-132 -140
h-110z" />
    <glyph glyph-name="afii10048.var.accented" unicode="&#x42e;`" horiz-adv-x="1045" 
d="M212 414h104c16 180 162 294 341 294c173 0 343 -104 343 -358s-170 -358 -343 -358c-201 0 -331 135 -341 307h-104v-299h-142v700h142v-286zM657 608c-53 0 -193 -21 -193 -258s140 -258 193 -258s193 21 193 258s-140 258 -193 258zM418 740l82 140h160l-132 -140
h-110z" />
    <glyph glyph-name="afii10049.var.accented" unicode="&#x42f;`" horiz-adv-x="638" 
d="M568 700v-700h-142v260h-85l-136 -260h-170l167 288c-55 17 -138 66 -138 196c0 219 228 216 277 216h227zM426 370v220h-81c-116 0 -131 -72 -131 -110c0 -109 114 -110 132 -110h80zM295 740l82 140h160l-132 -140h-110z" />
    <glyph glyph-name="afii10023.var.accented" unicode="&#x401;`" horiz-adv-x="538" 
d="M70 700h418v-124h-276v-158h251v-115h-251v-179h276v-124h-418v700zM101 913h115v-115h-115v115zM342 913h115v-115h-115v115zM461 1073l-145 -160h-83l88 160h140z" />
    <glyph glyph-name="afii10065.var.accented" unicode="&#x430;`" horiz-adv-x="581" 
d="M97 385v107c62 25 120 34 190 34c210 0 229 -121 229 -199v-327h-133v76h-2c-11 -22 -49 -84 -162 -84c-131 0 -184 77 -184 158c0 71 37 171 257 171c25 0 51 -1 76 -1h12v22c0 57 -55 89 -117 89c-45 0 -97 -7 -166 -46zM380 235h-23c-75 0 -184 -1 -184 -84
c0 -37 23 -67 83 -67c56 0 124 26 124 138v13zM414 750l-145 -160h-83l88 160h140z" />
    <glyph glyph-name="afii10070.var.accented" unicode="&#x435;`" horiz-adv-x="565" 
d="M530 218h-353c4 -66 52 -128 154 -128c60 0 113 14 162 36v-102c-53 -20 -117 -32 -179 -32c-155 0 -279 84 -279 267c0 167 117 267 256 267c235 0 239 -231 239 -277v-31zM177 311h213c2 87 -57 121 -107 121c-60 0 -105 -53 -106 -121zM406 750l-145 -160h-83l88 160
h140z" />
    <glyph glyph-name="afii10074.var.accented" unicode="&#x438;`" horiz-adv-x="639" 
d="M65 518h136v-272l-4 -93h2l223 365h152v-518h-136v268l4 97h-3l-229 -365h-145v518zM443 750l-145 -160h-83l88 160h140z" />
    <glyph glyph-name="afii10080.var.accented" unicode="&#x43e;`" horiz-adv-x="604" 
d="M35 259c0 173 113 267 267 267s267 -94 267 -267s-113 -267 -267 -267s-267 94 -267 267zM177 259c0 -120 65 -169 125 -169s125 49 125 169s-65 169 -125 169s-125 -49 -125 -169zM426 750l-145 -160h-83l88 160h140z" />
    <glyph glyph-name="afii10085.var.accented" unicode="&#x443;`" horiz-adv-x="551" 
d="M3 518h150l97 -286l29 -99h5l32 103l94 282h138l-219 -581c-30 -78 -67 -159 -212 -159c-25 0 -55 7 -79 15l10 101c16 -6 33 -11 53 -11c46 0 76 13 94 58l12 30zM399 750l-145 -160h-83l88 160h140z" />
    <glyph glyph-name="afii10093.var.accented" unicode="&#x44b;`" horiz-adv-x="805" 
d="M604 518h136v-518h-136v518zM65 518h136v-184h105c190 0 218 -108 218 -167c0 -91 -65 -167 -208 -167h-251v518zM201 244v-154h85c64 0 96 37 96 77c0 30 -20 77 -96 77h-85zM526 750l-145 -160h-83l88 160h140z" />
    <glyph glyph-name="afii10095.var.accented" unicode="&#x44d;`" horiz-adv-x="488" 
d="M111 222v94h200c-20 96 -116 110 -171 110c-29 0 -61 -7 -95 -22l-8 98c38 14 79 24 116 24c136 0 300 -63 300 -262c0 -133 -81 -272 -283 -272c-59 0 -106 13 -145 29l10 100c32 -15 74 -29 113 -29c76 0 155 33 163 130h-200zM368 750l-145 -160h-83l88 160h140z" />
    <glyph glyph-name="afii10096.var.accented" unicode="&#x44e;`" horiz-adv-x="848" 
d="M201 310h80c15 140 131 216 265 216c154 0 267 -96 267 -267s-113 -267 -267 -267c-148 0 -255 91 -265 224h-80v-216h-136v518h136v-208zM420 259c0 -120 65 -169 126 -169c75 0 125 67 125 169s-50 169 -125 169c-61 0 -126 -49 -126 -169zM548 750l-145 -160h-83
l88 160h140z" />
    <glyph glyph-name="afii10097.var.accented" unicode="&#x44f;`" horiz-adv-x="561" 
d="M496 518v-518h-136v195h-61l-102 -195h-162l130 211c-88 22 -119 90 -119 151c0 105 96 156 182 156h268zM360 428h-90c-54 0 -82 -35 -82 -73c0 -44 39 -73 82 -73h90v146zM404 750l-145 -160h-83l88 160h140z" />
    <glyph glyph-name="afii10071.var.accented" unicode="&#x451;`" horiz-adv-x="565" 
d="M530 218h-353c4 -66 52 -128 154 -128c60 0 113 14 162 36v-102c-53 -20 -117 -32 -179 -32c-155 0 -279 84 -279 267c0 167 117 267 256 267c235 0 239 -231 239 -277v-31zM177 311h213c2 87 -57 121 -107 121c-60 0 -105 -53 -106 -121zM97 715h121v-116h-121v116z
M338 715h121v-116h-121v116zM463 875l-145 -160h-83l88 160h140z" />
    <glyph glyph-name="fi" unicode="fi" horiz-adv-x="675" 
d="M20 518h100v37c0 77 4 203 168 203c31 0 66 -5 97 -12l-4 -95c-5 1 -28 7 -52 7c-65 0 -73 -36 -73 -110v-30h122v-100h-122v-418h-136v418h-100v100zM472 518h136v-518h-136v518zM610 735v-140h-140v140h140z" />
    <glyph glyph-name="fl" unicode="fl" horiz-adv-x="671" 
d="M20 518h100v37c0 77 4 203 168 203c31 0 66 -5 97 -12l-4 -95c-5 1 -28 7 -52 7c-65 0 -73 -36 -73 -110v-30h122v-100h-122v-418h-136v418h-100v100zM470 750h136v-750h-136v750z" />
    <glyph glyph-name=".notdef" horiz-adv-x="233" 
 />
    <glyph glyph-name="space" unicode=" " horiz-adv-x="233" 
 />
    <glyph glyph-name="exclam" unicode="!" horiz-adv-x="283" 
d="M71 134h142v-134h-142v134zM70 700h143l-16 -491h-111z" />
    <glyph glyph-name="quotedbl" unicode="&#x22;" horiz-adv-x="474" 
d="M60 700h137l-24 -259h-89zM277 700h137l-24 -259h-89z" />
    <glyph glyph-name="numbersign" unicode="#" 
d="M416 42h-80l26 154h-163l-26 -154h-80l26 154h-113l12 72h113l30 178h-113l12 72h113l26 154h80l-26 -154h163l26 154h80l-26 -154h113l-12 -72h-113l-30 -178h113l-12 -72h-113zM374 268l30 178h-163l-30 -178h163z" />
    <glyph glyph-name="dollar" unicode="$" 
d="M73 27l15 122c59 -26 119 -38 178 -39v195l-23 11c-55 26 -177 72 -177 195c0 101 76 189 200 193v70h80v-66c56 -1 111 -10 164 -28l-15 -112c-48 21 -98 31 -149 31v-178l29 -12c82 -34 174 -85 174 -201c0 -134 -106 -197 -203 -210v-70h-80v64c-64 1 -128 12 -193 35
zM341 268v-145c39 13 63 41 63 68c0 16 -3 52 -63 77zM271 451v140c-36 -8 -63 -34 -63 -65c0 -41 37 -66 63 -75z" />
    <glyph glyph-name="percent" unicode="%" horiz-adv-x="884" 
d="M226 708c117 0 166 -93 166 -195s-49 -195 -166 -195s-166 93 -166 195s49 195 166 195zM226 643c-54 0 -52 -79 -52 -130s-2 -130 52 -130s52 79 52 130s2 130 -52 130zM623 727l76 -47l-435 -700l-76 47zM658 382c117 0 166 -93 166 -195s-49 -195 -166 -195
s-166 93 -166 195s49 195 166 195zM658 317c-54 0 -52 -79 -52 -130s-2 -130 52 -130s52 79 52 130s2 130 -52 130z" />
    <glyph glyph-name="ampersand" unicode="&#x26;" horiz-adv-x="742" 
d="M538 0l-42 46c-64 -47 -127 -61 -206 -61c-166 0 -245 104 -245 220c0 85 61 156 148 185c-52 55 -86 99 -86 160c0 62 40 164 200 164c152 0 211 -82 211 -159c0 -107 -96 -164 -140 -183l133 -149c39 56 44 117 43 156h123c-2 -71 -20 -170 -90 -248l115 -131h-164z
M424 133l-159 176c-33 -14 -83 -48 -83 -110c0 -59 46 -111 116 -111c50 0 95 19 126 45zM287 474l22 -23c41 17 84 53 84 101c0 36 -34 65 -76 65c-36 0 -74 -20 -74 -60c0 -20 5 -42 44 -83z" />
    <glyph glyph-name="quotesingle" unicode="'" horiz-adv-x="257" 
d="M60 700h137l-24 -259h-89z" />
    <glyph glyph-name="parenleft" unicode="(" horiz-adv-x="377" 
d="M209 700h128c-89 -143 -153 -281 -153 -457s64 -314 153 -457h-128c-137 213 -169 327 -169 457s32 244 169 457z" />
    <glyph glyph-name="parenright" unicode=")" horiz-adv-x="377" 
d="M40 700h128c137 -213 169 -327 169 -457s-32 -244 -169 -457h-128c89 143 153 281 153 457s-64 314 -153 457z" />
    <glyph glyph-name="asterisk" unicode="*" horiz-adv-x="482" 
d="M286 306h-90l10 136l-111 -77l-45 77l123 60l-123 60l45 77l111 -77l-10 136h90l-10 -136l111 77l45 -77l-123 -60l123 -60l-45 -77l-111 77z" />
    <glyph glyph-name="plus" unicode="+" horiz-adv-x="638" 
d="M60 304v90h214v214h90v-214h214v-90h-214v-214h-90v214h-214z" />
    <glyph glyph-name="comma" unicode="," horiz-adv-x="287" 
d="M97 135h140l-69 -250h-118z" />
    <glyph glyph-name="hyphen" unicode="-" horiz-adv-x="440" 
d="M80 344h280v-120h-280v120z" />
    <glyph glyph-name="period" unicode="." horiz-adv-x="260" 
d="M200 142v-142h-140v142h140z" />
    <glyph glyph-name="slash" unicode="/" horiz-adv-x="624" 
d="M30 -258l488 1050l76 -33l-488 -1050z" />
    <glyph glyph-name="zero" unicode="0" 
d="M307 708c109 0 252 -44 252 -358s-143 -358 -252 -358s-252 44 -252 358s143 358 252 358zM307 598c-97 0 -107 -136 -107 -248s10 -248 107 -248s107 136 107 248s-10 248 -107 248z" />
    <glyph glyph-name="one" unicode="1" 
d="M301 700h128v-700h-142v547l-120 -105l-67 83z" />
    <glyph glyph-name="two" unicode="2" 
d="M93 543l-12 114c93 43 164 51 212 51c49 0 114 -6 163 -45c44 -35 68 -89 68 -139c0 -32 -5 -107 -87 -210c-36 -45 -115 -127 -148 -155l-55 -46l1 -3l68 5h240v-115h-472v116l50 46c26 24 121 113 185 191c34 42 68 92 68 149c0 34 -13 56 -36 73c-21 16 -42 21 -71 21
c-54 0 -120 -21 -174 -53z" />
    <glyph glyph-name="three" unicode="3" 
d="M159 308v110h65c78 0 110 19 120 26c26 18 35 48 35 75c0 35 -24 52 -38 61c-7 4 -32 18 -85 18c-50 0 -110 -12 -160 -31l-8 114c55 15 125 27 190 27c22 0 109 -2 169 -37c37 -22 82 -64 82 -142c0 -84 -51 -147 -130 -158v-3c41 -8 74 -29 96 -54
c28 -32 39 -72 39 -111c0 -57 -28 -113 -72 -150c-61 -52 -143 -61 -198 -61c-56 0 -121 7 -191 29l7 118c48 -21 110 -37 165 -37c54 0 86 15 104 30c21 17 35 44 35 75c0 35 -18 62 -40 77c-31 21 -84 24 -113 24h-72z" />
    <glyph glyph-name="four" unicode="4" 
d="M304 700h183v-451h89v-110h-89v-139h-142v139h-305v120zM345 249v233l2 77h-2l-145 -261l-30 -48l1 -2l50 1h124z" />
    <glyph glyph-name="five" unicode="5" 
d="M100 700h412v-110h-270v-139c16 2 32 3 48 3c109 0 164 -41 190 -69c29 -31 54 -83 54 -154c0 -87 -38 -141 -69 -170c-61 -57 -143 -69 -207 -69c-70 0 -124 10 -170 26l3 123c64 -27 109 -35 140 -35c56 0 98 14 121 37c18 18 32 50 32 83c0 30 -13 63 -37 83
c-25 22 -68 35 -106 35c-33 0 -88 -3 -141 -20v376z" />
    <glyph glyph-name="six" unicode="6" 
d="M510 685l-16 -113c-38 16 -85 26 -125 26c-75 0 -117 -38 -137 -69c-25 -38 -33 -97 -33 -130h3c29 41 69 69 136 69c66 0 121 -23 157 -63c16 -18 59 -69 59 -166c0 -83 -26 -144 -62 -181c-33 -34 -89 -66 -180 -66c-99 0 -163 39 -202 97c-46 67 -50 159 -50 223
c0 99 11 248 108 334c60 53 129 62 189 62c61 0 104 -6 153 -23zM308 358c-52 0 -96 -33 -96 -128s44 -128 96 -128s96 33 96 128s-44 128 -96 128z" />
    <glyph glyph-name="seven" unicode="7" 
d="M535 595l-256 -595h-159l270 590h-311v110h456v-105z" />
    <glyph glyph-name="eight" unicode="8" 
d="M182 367c-67 29 -104 86 -104 154c0 60 22 102 66 137c47 37 101 50 163 50s127 -17 170 -52c31 -25 59 -64 59 -122c0 -68 -37 -131 -109 -157c78 -27 129 -90 129 -177c0 -69 -28 -124 -86 -163c-44 -30 -103 -45 -163 -45c-58 0 -126 17 -169 46
c-45 31 -80 85 -80 160c0 81 48 144 124 169zM317 422c15 5 41 18 63 46c15 19 21 37 21 51c0 21 -8 47 -33 64c-16 11 -38 18 -61 18c-22 0 -46 -6 -64 -20c-24 -18 -30 -41 -30 -59c0 -27 16 -49 34 -63c15 -12 50 -29 70 -37zM294 309c-24 -11 -49 -28 -65 -46
c-19 -21 -26 -42 -26 -68c0 -30 11 -50 24 -63c19 -19 52 -30 83 -30c41 0 66 17 79 31c15 16 22 39 22 62c0 34 -19 55 -38 70c-21 17 -52 34 -79 44z" />
    <glyph glyph-name="nine" unicode="9" 
d="M104 15l16 113c38 -16 85 -26 125 -26c75 0 117 38 137 69c25 38 33 97 33 130h-3c-28 -40 -67 -69 -138 -69c-75 0 -125 31 -155 63c-32 36 -59 92 -59 166c0 83 26 144 62 181c33 34 89 66 180 66c113 0 172 -52 203 -97c39 -58 49 -140 49 -228
c0 -92 -11 -244 -107 -329c-60 -53 -131 -62 -190 -62c-60 0 -105 6 -153 23zM306 342c52 0 96 33 96 128s-44 128 -96 128s-96 -33 -96 -128s44 -128 96 -128z" />
    <glyph glyph-name="colon" unicode=":" horiz-adv-x="260" 
d="M200 518v-142h-140v142h140zM200 142v-142h-140v142h140z" />
    <glyph glyph-name="semicolon" unicode=";" horiz-adv-x="287" 
d="M228 518v-142h-140v142h140zM97 135h140l-69 -250h-118z" />
    <glyph glyph-name="less" unicode="&#x3c;" horiz-adv-x="638" 
d="M245 356l341 -189v-106l-534 295l534 295v-106z" />
    <glyph glyph-name="equal" unicode="=" horiz-adv-x="638" 
d="M60 209v90h518v-90h-518zM60 489h518v-90h-518v90z" />
    <glyph glyph-name="greater" unicode="&#x3e;" horiz-adv-x="638" 
d="M52 167l341 189l-341 189v106l534 -295l-534 -295v106z" />
    <glyph glyph-name="question" unicode="?" horiz-adv-x="528" 
d="M180 199v20c0 68 18 104 91 189c21 24 57 62 57 108s-25 84 -98 84c-51 0 -114 -9 -170 -37l-10 114c63 21 126 32 195 32c175 0 233 -93 233 -169c0 -89 -52 -148 -98 -195c-37 -37 -70 -69 -70 -126v-20h-130zM175 124h140v-124h-140v124z" />
    <glyph glyph-name="at" unicode="@" horiz-adv-x="790" 
d="M584 517l-31 -218c-5 -32 17 -44 30 -44c30 0 89 40 89 137c0 146 -114 243 -269 243c-152 0 -285 -121 -285 -285c0 -123 93 -285 295 -285c80 0 141 23 175 40l30 -67c-64 -33 -131 -46 -208 -46c-249 0 -365 197 -365 358c0 203 160 358 358 358
c191 0 342 -117 342 -316c0 -150 -98 -218 -174 -218c-46 0 -87 30 -86 84h-3c-34 -64 -90 -73 -126 -73c-63 0 -131 46 -131 139c0 137 88 209 169 209c57 0 86 -31 101 -64h3l7 48h79zM473 358c1 11 1 22 1 33c0 52 -35 71 -63 71c-51 0 -88 -59 -88 -136
c0 -55 38 -71 63 -71c35 0 78 32 87 103z" />
    <glyph glyph-name="A" unicode="A" horiz-adv-x="749" 
d="M294 700h162l278 -700h-160l-59 158h-289l-59 -158h-152zM271 273h202l-103 286h-2z" />
    <glyph glyph-name="B" unicode="B" horiz-adv-x="613" 
d="M70 700h230c136 0 233 -55 233 -173c0 -105 -64 -146 -114 -161v-2c90 -14 147 -79 147 -167c0 -87 -51 -197 -275 -197h-221v700zM212 590v-174h69c92 0 109 56 109 87c0 20 -5 87 -115 87h-63zM212 306v-196h79c89 0 125 48 125 98s-27 98 -125 98h-79z" />
    <glyph glyph-name="C" unicode="C" horiz-adv-x="630" 
d="M581 141l9 -119c-62 -21 -125 -30 -181 -30c-174 0 -364 99 -364 354c0 241 170 362 390 362c55 0 102 -7 155 -24l-6 -120c-41 16 -86 26 -139 26c-157 0 -250 -99 -250 -242c0 -169 114 -238 240 -238c62 0 111 15 146 31z" />
    <glyph glyph-name="D" unicode="D" horiz-adv-x="717" 
d="M70 700h221c124 0 381 -27 381 -350c0 -153 -59 -350 -381 -350h-221v700zM212 582v-464h81c43 0 229 8 229 232s-186 232 -229 232h-81z" />
    <glyph glyph-name="E" unicode="E" horiz-adv-x="538" 
d="M70 700h418v-124h-276v-158h251v-115h-251v-179h276v-124h-418v700z" />
    <glyph glyph-name="F" unicode="F" horiz-adv-x="492" 
d="M70 700h392v-118h-250v-170h238v-115h-238v-297h-142v700z" />
    <glyph glyph-name="G" unicode="G" horiz-adv-x="729" 
d="M637 678l-8 -125c-72 33 -143 41 -200 41c-142 0 -234 -92 -234 -244c0 -149 90 -240 228 -240c35 0 62 2 94 14v167h-143v110h285v-371c-33 -9 -138 -38 -245 -38c-221 0 -369 130 -369 358c0 231 153 358 387 358c73 0 133 -6 205 -30z" />
    <glyph glyph-name="H" unicode="H" horiz-adv-x="708" 
d="M70 700h142v-282h284v282h142v-700h-142v303h-284v-303h-142v700z" />
    <glyph glyph-name="I" unicode="I" horiz-adv-x="282" 
d="M70 0v700h142v-700h-142z" />
    <glyph glyph-name="J" unicode="J" horiz-adv-x="379" 
d="M167 700h142v-497c0 -94 -17 -211 -181 -211c-33 0 -72 5 -108 13v114c22 -5 50 -9 68 -9c63 0 79 40 79 103v487z" />
    <glyph glyph-name="K" unicode="K" horiz-adv-x="662" 
d="M70 700h142v-299h3l253 299h169l-292 -317l310 -383h-180l-260 348h-3v-348h-142v700z" />
    <glyph glyph-name="L" unicode="L" horiz-adv-x="510" 
d="M70 700h142v-582h278v-118h-420v700z" />
    <glyph glyph-name="M" unicode="M" horiz-adv-x="965" 
d="M550 0h-135l-170 500l-32 100h-3l2 -108v-492h-142v700h240l140 -407l31 -124h3l31 124l140 407h240v-700h-142v492l2 108h-3l-32 -100z" />
    <glyph glyph-name="N" unicode="N" horiz-adv-x="745" 
d="M70 700h184l242 -441l37 -95h3l-3 124v412h142v-700h-184l-244 458l-35 78h-3l3 -124v-412h-142v700z" />
    <glyph glyph-name="O" unicode="O" horiz-adv-x="776" 
d="M388 708c173 0 343 -104 343 -358s-170 -358 -343 -358s-343 104 -343 358s170 358 343 358zM388 608c-53 0 -193 -21 -193 -258s140 -258 193 -258s193 21 193 258s-140 258 -193 258z" />
    <glyph glyph-name="P" unicode="P" horiz-adv-x="586" 
d="M70 700h207c254 0 269 -175 269 -219c0 -92 -64 -218 -243 -218h-91v-263h-142v700zM212 373h65c86 0 119 59 119 112c0 58 -37 105 -119 105h-65v-217z" />
    <glyph glyph-name="Q" unicode="Q" horiz-adv-x="776" 
d="M527 -132l-129 124h-10c-215 2 -343 142 -343 358c0 254 170 358 343 358s343 -104 343 -358c0 -96 -23 -258 -199 -331l163 -151h-168zM388 608c-53 0 -193 -21 -193 -258s140 -258 193 -258s193 21 193 258s-140 258 -193 258z" />
    <glyph glyph-name="R" unicode="R" horiz-adv-x="630" 
d="M70 700h248c187 0 235 -96 235 -190c0 -115 -86 -151 -135 -163v-2c34 -8 56 -34 73 -74l114 -271h-159l-90 222c-17 42 -43 66 -90 66h-54v-288h-142v700zM212 590v-192h76c90 0 119 56 119 97c0 23 -7 95 -119 95h-76z" />
    <glyph glyph-name="S" unicode="S" horiz-adv-x="552" 
d="M53 27l15 122c56 -26 126 -42 173 -42c76 0 112 45 112 84c0 73 -77 93 -141 125c-105 52 -162 96 -162 195c0 70 38 197 220 197c66 0 136 -7 200 -30l-15 -112c-41 17 -101 34 -153 34c-87 0 -105 -45 -105 -74c0 -56 49 -81 93 -100c117 -50 212 -90 212 -230
c0 -111 -86 -204 -267 -204c-68 0 -129 15 -182 35z" />
    <glyph glyph-name="T" unicode="T" horiz-adv-x="576" 
d="M15 700h546v-124h-202v-576h-142v576h-202v124z" />
    <glyph glyph-name="U" unicode="U" horiz-adv-x="724" 
d="M654 700v-434c0 -100 -28 -274 -290 -274c-89 0 -294 15 -294 274v434h142v-434c0 -50 9 -164 150 -164s150 114 150 164v434h142z" />
    <glyph glyph-name="V" unicode="V" horiz-adv-x="671" 
d="M5 700h152l151 -455l31 -108h2l30 108l153 455h142l-242 -700h-175z" />
    <glyph glyph-name="W" unicode="W" horiz-adv-x="1043" 
d="M880 700h143l-189 -700h-180l-107 455l-24 134h-2l-22 -134l-103 -455h-183l-193 700h149l104 -418l30 -158h2l28 158l94 418h192l99 -418l29 -158h2l29 158z" />
    <glyph glyph-name="X" unicode="X" horiz-adv-x="669" 
d="M26 700h168l112 -195l32 -59h3l32 59l115 195h155l-213 -334l234 -366h-168l-134 222l-30 54h-3l-30 -54l-139 -222h-155l234 366z" />
    <glyph glyph-name="Y" unicode="Y" horiz-adv-x="642" 
d="M-5 700h164l144 -246l22 -48h3l24 48l145 246h150l-252 -416v-284h-142v286z" />
    <glyph glyph-name="Z" unicode="Z" horiz-adv-x="591" 
d="M530 578l-323 -454h334v-124h-491v119l326 459l-81 -2h-236v124h471v-122z" />
    <glyph glyph-name="bracketleft" unicode="[" horiz-adv-x="361" 
d="M311 752v-99h-116v-772h116v-99h-251v970h251z" />
    <glyph glyph-name="backslash" unicode="\" horiz-adv-x="633" 
d="M480 -254l-400 946l73 35l400 -946z" />
    <glyph glyph-name="bracketright" unicode="]" horiz-adv-x="361" 
d="M50 752h251v-970h-251v99h116v772h-116v99z" />
    <glyph glyph-name="asciicircum" unicode="^" horiz-adv-x="582" 
d="M291 525l-119 -191h-116l235 376l235 -376h-116z" />
    <glyph glyph-name="underscore" unicode="_" horiz-adv-x="490" 
d="M0 -118h490v-90h-490v90z" />
    <glyph glyph-name="grave" unicode="`" horiz-adv-x="343" 
d="M54 750h140l88 -160h-83z" />
    <glyph glyph-name="a" unicode="a" horiz-adv-x="581" 
d="M97 385v107c62 25 120 34 190 34c210 0 229 -121 229 -199v-327h-133v76h-2c-11 -22 -49 -84 -162 -84c-131 0 -184 77 -184 158c0 71 37 171 257 171c25 0 51 -1 76 -1h12v22c0 57 -55 89 -117 89c-45 0 -97 -7 -166 -46zM380 235h-23c-75 0 -184 -1 -184 -84
c0 -37 23 -67 83 -67c56 0 124 26 124 138v13z" />
    <glyph glyph-name="b" unicode="b" horiz-adv-x="608" 
d="M65 750h136v-217l-3 -85h2c27 46 76 78 149 78c144 0 224 -112 224 -267c0 -178 -106 -267 -218 -267c-50 0 -130 16 -169 98h-2v-90h-119v750zM201 259c0 -110 60 -159 115 -159s115 49 115 159s-60 159 -115 159s-115 -49 -115 -159z" />
    <glyph glyph-name="c" unicode="c" horiz-adv-x="463" 
d="M430 512l-8 -98c-25 10 -52 14 -84 14c-91 0 -161 -67 -161 -171c0 -94 57 -167 152 -167c31 0 69 6 104 21l5 -99c-25 -8 -74 -20 -133 -20c-185 0 -270 135 -270 272c0 138 96 262 280 262c34 0 76 -4 115 -14z" />
    <glyph glyph-name="d" unicode="d" horiz-adv-x="605" 
d="M407 750h136v-750h-119v90h-2c-23 -43 -70 -98 -169 -98c-132 0 -218 103 -218 267c0 189 119 267 224 267c75 0 122 -36 149 -78h2l-3 85v217zM407 259c0 110 -60 159 -115 159s-115 -49 -115 -159s60 -159 115 -159s115 49 115 159z" />
    <glyph glyph-name="e" unicode="e" horiz-adv-x="565" 
d="M530 218h-353c4 -66 52 -128 154 -128c60 0 113 14 162 36v-102c-53 -20 -117 -32 -179 -32c-155 0 -279 84 -279 267c0 167 117 267 256 267c235 0 239 -231 239 -277v-31zM177 311h213c2 87 -57 121 -107 121c-60 0 -105 -53 -106 -121z" />
    <glyph glyph-name="f" unicode="f" horiz-adv-x="405" 
d="M20 518h100v37c0 77 4 203 168 203c31 0 66 -5 97 -12l-4 -95c-5 1 -28 7 -52 7c-65 0 -73 -36 -73 -110v-30h122v-100h-122v-418h-136v418h-100v100z" />
    <glyph glyph-name="g" unicode="g" horiz-adv-x="612" 
d="M90 -186l11 114c45 -23 104 -43 160 -43c97 0 150 53 150 139v68h-3c-11 -25 -49 -94 -158 -94c-158 0 -215 139 -215 259c0 163 89 269 213 269c21 0 123 2 168 -95h3v87h128v-477c0 -60 -3 -263 -264 -263c-49 0 -117 6 -193 36zM287 411c-76 0 -110 -73 -110 -151
c0 -130 74 -154 120 -154c58 0 114 53 114 164c0 87 -48 141 -124 141z" />
    <glyph glyph-name="h" unicode="h" horiz-adv-x="612" 
d="M65 0v750h136v-233l-5 -80h3c15 22 62 89 165 89c181 0 183 -162 183 -183v-343h-136v298c0 41 -1 117 -88 117c-56 0 -122 -45 -122 -157v-258h-136z" />
    <glyph glyph-name="i" unicode="i" horiz-adv-x="270" 
d="M67 518h136v-518h-136v518zM205 736v-140h-140v140h140z" />
    <glyph glyph-name="j" unicode="j" horiz-adv-x="260" 
d="M198 518v-559c0 -82 -9 -181 -158 -181c-20 0 -37 1 -60 7v96c11 -3 24 -4 35 -4c43 0 47 34 47 77v564h136zM60 736h140v-140h-140v140z" />
    <glyph glyph-name="k" unicode="k" horiz-adv-x="552" 
d="M65 750h136v-447h5l162 215h156l-190 -235l208 -283h-166l-170 263h-5v-263h-136v750z" />
    <glyph glyph-name="l" unicode="l" horiz-adv-x="266" 
d="M65 750h136v-750h-136v750z" />
    <glyph glyph-name="m" unicode="m" horiz-adv-x="902" 
d="M201 0h-136v518h129v-88h3c30 66 93 96 159 96c93 0 129 -52 142 -97h3c37 69 104 97 170 97c46 0 166 -11 166 -181v-345h-136v291c0 48 1 124 -77 124c-52 0 -105 -42 -105 -129v-286h-136v291c0 62 -7 124 -75 124c-49 0 -107 -36 -107 -129v-286z" />
    <glyph glyph-name="n" unicode="n" horiz-adv-x="612" 
d="M201 0h-136v518h131v-81h3c50 76 124 89 164 89c107 0 184 -59 184 -163v-363h-136v313c0 50 -24 102 -88 102c-84 0 -122 -80 -122 -136v-279z" />
    <glyph glyph-name="o" unicode="o" horiz-adv-x="604" 
d="M35 259c0 173 113 267 267 267s267 -94 267 -267s-113 -267 -267 -267s-267 94 -267 267zM177 259c0 -120 65 -169 125 -169s125 49 125 169s-65 169 -125 169s-125 -49 -125 -169z" />
    <glyph glyph-name="p" unicode="p" horiz-adv-x="608" 
d="M201 -214h-136v732h119v-90h2c53 94 147 98 169 98c118 0 218 -75 218 -267c0 -191 -111 -267 -224 -267c-75 0 -121 35 -149 78h-2l3 -85v-199zM201 259c0 -110 60 -159 115 -159s115 49 115 159s-60 159 -115 159s-115 -49 -115 -159z" />
    <glyph glyph-name="q" unicode="q" horiz-adv-x="608" 
d="M407 -214v200l3 85h-2c-35 -53 -83 -79 -149 -79c-114 0 -224 78 -224 268c0 180 101 266 218 266c84 0 140 -41 169 -97h2v89h119v-732h-136zM407 259c0 110 -60 159 -115 159s-115 -49 -115 -159s60 -159 115 -159s115 49 115 159z" />
    <glyph glyph-name="r" unicode="r" horiz-adv-x="396" 
d="M65 518h124v-112h3c12 63 59 120 139 120c13 0 31 -3 45 -6l-5 -99c-10 1 -30 3 -44 3c-49 0 -126 -30 -126 -175v-249h-136v518z" />
    <glyph glyph-name="s" unicode="s" horiz-adv-x="454" 
d="M404 504l-12 -98c-19 7 -63 25 -118 25c-86 0 -91 -41 -91 -54c0 -45 50 -54 92 -68c59 -19 139 -55 139 -157c0 -82 -63 -160 -202 -160c-52 0 -120 12 -172 30l6 106c7 -3 76 -35 146 -35s86 35 86 56c0 43 -41 55 -90 73c-82 30 -139 63 -139 151c0 59 36 153 189 153
c30 0 92 1 166 -22z" />
    <glyph glyph-name="t" unicode="t" horiz-adv-x="396" 
d="M112 418h-102v100h102v103l136 43v-146h120v-100h-120v-235c0 -45 0 -91 67 -91c18 0 37 4 53 9v-96c-8 -2 -57 -13 -105 -13c-150 0 -151 126 -151 160v266z" />
    <glyph glyph-name="u" unicode="u" horiz-adv-x="612" 
d="M411 518h136v-518h-131v81h-3c-50 -76 -124 -89 -164 -89c-62 0 -184 13 -184 191v335h136v-313c0 -34 4 -102 88 -102c79 0 122 71 122 141v274z" />
    <glyph glyph-name="v" unicode="v" horiz-adv-x="565" 
d="M10 518h149l109 -320l21 -76h3l19 76l105 320h139l-191 -518h-160z" />
    <glyph glyph-name="w" unicode="w" horiz-adv-x="909" 
d="M10 518h145l86 -287l26 -106h2l24 109l85 284h161l88 -287l26 -107h2l25 108l82 286h137l-170 -518h-161l-95 322l-20 86h-3l-18 -85l-90 -323h-161z" />
    <glyph glyph-name="x" unicode="x" horiz-adv-x="567" 
d="M25 518h162l72 -121l30 -59h3l31 61l68 119h151l-159 -251l174 -267h-162l-86 138l-31 58h-3l-32 -60l-82 -136h-151l174 267z" />
    <glyph glyph-name="y" unicode="y" horiz-adv-x="551" 
d="M3 518h150l97 -286l29 -99h5l32 103l94 282h138l-219 -581c-30 -78 -67 -159 -212 -159c-25 0 -55 7 -79 15l10 101c16 -6 33 -11 53 -11c46 0 76 13 94 58l12 30z" />
    <glyph glyph-name="z" unicode="z" horiz-adv-x="537" 
d="M63 518h414v-100l-221 -265l-46 -50v-3h277v-100h-437v103l230 264l45 48v3h-262v100z" />
    <glyph glyph-name="braceleft" unicode="{" horiz-adv-x="444" 
d="M30 217v99h22c81 0 86 73 86 107v137c0 90 17 191 220 191h22l4 -99h-11c-51 0 -105 -3 -105 -113v-97c0 -54 0 -138 -86 -167l-18 -6v-5l18 -6c86 -29 86 -113 86 -167v-97c0 -110 54 -113 105 -113h11l-4 -99h-22c-203 0 -220 101 -220 191v137c0 34 -5 107 -86 107
h-22z" />
    <glyph glyph-name="bar" unicode="|" horiz-adv-x="210" 
d="M60 -280v1053h90v-1053h-90z" />
    <glyph glyph-name="braceright" unicode="}" horiz-adv-x="444" 
d="M414 316v-99h-22c-81 0 -86 -73 -86 -107v-137c0 -90 -17 -191 -220 -191h-22l-4 99h11c51 0 105 3 105 113v97c0 54 0 138 86 167l18 6v5l-18 6c-86 29 -86 113 -86 167v97c0 110 -54 113 -105 113h-11l4 99h22c203 0 220 -101 220 -191v-137c0 -34 5 -107 86 -107h22z
" />
    <glyph glyph-name="asciitilde" unicode="~" horiz-adv-x="638" 
d="M500 353l60 -45c-41 -61 -78 -101 -147 -101c-47 0 -84 17 -119 33c-21 10 -44 20 -67 20s-62 -10 -89 -50l-60 45c39 60 80 101 147 101c23 0 46 -4 67 -11c18 -6 35 -14 52 -22c21 -10 44 -20 67 -20s62 10 89 50z" />
    <glyph glyph-name="uni00A0" unicode="&#xa0;" horiz-adv-x="233" 
 />
    <glyph glyph-name="exclamdown" unicode="&#xa1;" horiz-adv-x="302" 
d="M80 384v134h142v-134h-142zM70 -214l25 523h112l25 -523h-162z" />
    <glyph glyph-name="cent" unicode="&#xa2;" 
d="M308 628h130v-106c19 -3 39 -8 59 -14l-6 -96c-28 10 -61 15 -85 15c-80 0 -158 -51 -158 -174c0 -109 82 -161 155 -161c29 0 68 9 97 21l7 -100c-21 -9 -44 -15 -69 -16v-107h-130v108c-158 30 -202 161 -202 269c0 129 77 232 202 254v107z" />
    <glyph glyph-name="sterling" unicode="&#xa3;" 
d="M271 118h278v-118h-483v118h63v218h-63v90h64v34c0 48 8 107 54 161c74 86 186 87 248 87c42 0 82 -5 126 -14v-104c-47 13 -88 18 -119 18c-34 0 -88 -2 -127 -38c-35 -33 -40 -75 -40 -114v-30h171v-90h-172v-218z" />
    <glyph glyph-name="currency" unicode="&#xa4;" 
d="M592 320c0 -85 -33 -137 -48 -158l83 -83l-80 -80l-83 83c-47 -30 -103 -47 -157 -47s-110 17 -157 47l-83 -83l-80 80l83 83c-15 21 -48 73 -48 158s33 137 48 158l-83 83l80 80l83 -83c47 30 103 47 157 47s110 -17 157 -47l83 83l80 -80l-83 -83
c15 -21 48 -73 48 -158zM137 320c0 -93 77 -170 170 -170s170 77 170 170s-77 170 -170 170s-170 -77 -170 -170z" />
    <glyph glyph-name="yen" unicode="&#xa5;" 
d="M-18 700h154l171 -294l171 294h154l-172 -281h107v-90h-162l-27 -45v-29h188v-90h-188v-165h-142v165h-188v90h188v31l-26 43h-161v90h105z" />
    <glyph glyph-name="brokenbar" unicode="&#xa6;" horiz-adv-x="210" 
d="M60 363v410h90v-410h-90zM60 130h90v-410h-90v410z" />
    <glyph glyph-name="section" unicode="&#xa7;" horiz-adv-x="624" 
d="M502 678l-12 -100c-56 18 -102 35 -156 35c-44 0 -86 -18 -86 -52c0 -56 72 -85 125 -109c101 -47 191 -86 191 -207c0 -31 -8 -111 -106 -185c45 -45 45 -89 45 -109c0 -146 -133 -167 -218 -167c-35 0 -101 6 -164 35l13 100c53 -21 89 -35 146 -35c77 0 97 39 97 62
c0 53 -63 77 -130 112c-112 60 -187 111 -187 216c0 84 54 142 110 173c-15 13 -43 46 -43 114c0 80 73 153 205 153c37 0 97 -5 170 -36zM259 382c-29 -23 -58 -61 -58 -98c0 -69 47 -90 166 -158c35 30 56 76 56 116c0 65 -65 89 -164 140z" />
    <glyph glyph-name="dieresis" unicode="&#xa8;" horiz-adv-x="390" 
d="M40 726h120v-116h-120v116zM230 726h120v-116h-120v116z" />
    <glyph glyph-name="copyright" unicode="&#xa9;" horiz-adv-x="836" 
d="M520 524l-4 -67c-19 7 -45 10 -68 10c-33 0 -97 -21 -97 -108c0 -79 44 -122 98 -122c24 0 51 6 72 15l4 -69c-26 -10 -54 -16 -87 -16c-154 0 -184 120 -184 192c0 73 40 177 184 177c29 0 53 -2 82 -12zM60 350c0 198 160 358 358 358s358 -160 358 -358
s-160 -358 -358 -358s-358 160 -358 358zM142 350c0 -152 124 -276 276 -276s276 124 276 276s-124 276 -276 276s-276 -124 -276 -276z" />
    <glyph glyph-name="ordfeminine" unicode="&#xaa;" horiz-adv-x="447" 
d="M107 623v64c31 14 80 21 114 21c113 0 138 -58 138 -120v-196h-80v46h-1c-3 -6 -27 -51 -97 -51c-103 0 -111 74 -111 95c0 49 30 103 154 103c15 0 31 -1 46 -1h7v13c0 35 -36 54 -70 54c-38 0 -65 -10 -100 -28zM277 533h-14c-49 0 -110 -2 -110 -50
c0 -16 8 -41 50 -41c23 0 74 7 74 83v8z" />
    <glyph glyph-name="guillemotleft" unicode="&#xab;" horiz-adv-x="588" 
d="M181 315l121 -211h-141l-121 211l121 203h141zM427 315l121 -211h-141l-121 211l121 203h141z" />
    <glyph glyph-name="logicalnot" unicode="&#xac;" horiz-adv-x="638" 
d="M60 320v90h518v-270h-90v180h-428z" />
    <glyph glyph-name="uni00AD" unicode="&#xad;" horiz-adv-x="440" 
d="M80 344h280v-120h-280v120z" />
    <glyph glyph-name="registered" unicode="&#xae;" horiz-adv-x="836" 
d="M283 531h159c81 0 123 -43 123 -99c0 -51 -37 -78 -71 -85v-1c22 -6 36 -32 38 -38l59 -142h-97l-47 116c-2 5 -14 29 -47 29h-28v-145h-89v365zM372 462v-82h39c57 0 62 29 62 44c0 39 -54 38 -62 38h-39zM60 350c0 198 160 358 358 358s358 -160 358 -358
s-160 -358 -358 -358s-358 160 -358 358zM142 350c0 -152 124 -276 276 -276s276 124 276 276s-124 276 -276 276s-276 -124 -276 -276z" />
    <glyph glyph-name="macron" unicode="&#xaf;" horiz-adv-x="381" 
d="M60 685h261v-74h-261v74z" />
    <glyph glyph-name="degree" unicode="&#xb0;" horiz-adv-x="280" 
d="M30 676c0 60 50 110 110 110s110 -50 110 -110s-50 -110 -110 -110s-110 50 -110 110zM90 676c0 -27 23 -50 50 -50s50 23 50 50s-23 50 -50 50s-50 -23 -50 -50z" />
    <glyph glyph-name="plusminus" unicode="&#xb1;" horiz-adv-x="638" 
d="M60 304v90h214v214h90v-214h214v-90h-214v-164h-90v164h-214zM60 0v90h518v-90h-518z" />
    <glyph glyph-name="twosuperior" unicode="&#xb2;" horiz-adv-x="434" 
d="M360 369v-86h-283v80c134 118 168 171 168 205c0 26 -19 54 -64 54c-33 0 -77 -17 -101 -30l-7 88c44 17 91 28 137 28c128 0 151 -80 151 -126c0 -75 -68 -133 -138 -188l-32 -25h169z" />
    <glyph glyph-name="threesuperior" unicode="&#xb3;" horiz-adv-x="434" 
d="M142 463v76h36c28 0 72 5 72 45c0 6 -2 38 -62 38c-42 0 -75 -9 -98 -17l-14 83c43 13 90 20 134 20c113 0 156 -48 156 -104c0 -48 -27 -89 -78 -98v-2c50 -10 81 -51 81 -99c0 -66 -51 -127 -167 -127c-63 0 -114 13 -137 20l15 86c33 -12 67 -20 102 -20
c65 0 71 35 71 50c0 21 -13 49 -72 49h-39z" />
    <glyph glyph-name="acute" unicode="&#xb4;" horiz-adv-x="328" 
d="M288 750l-145 -160h-83l88 160h140z" />
    <glyph glyph-name="mu" unicode="&#xb5;" horiz-adv-x="577" 
d="M60 518h136v-313c0 -85 48 -102 88 -102c63 0 122 50 122 141v274h136v-518h-131v81h-3c-20 -41 -63 -89 -134 -89c-50 0 -77 22 -91 64h-4l17 -270h-136v732z" />
    <glyph glyph-name="paragraph" unicode="&#xb6;" horiz-adv-x="572" 
d="M223 -219v619c-121 -9 -178 78 -178 150c0 70 51 150 172 150h101v-919h-95zM407 700h95v-919h-95v919z" />
    <glyph glyph-name="periodcentered" unicode="&#xb7;" horiz-adv-x="260" 
d="M200 401v-142h-140v142h140z" />
    <glyph glyph-name="cedilla" unicode="&#xb8;" horiz-adv-x="183" 
d="M53 2l60 -9l-5 -25c52 -1 75 -48 75 -88c0 -44 -34 -89 -110 -89c-34 0 -58 14 -73 25l25 51c11 -8 30 -17 45 -17s39 5 39 30c0 27 -19 38 -44 38c-10 0 -20 0 -30 -3z" />
    <glyph glyph-name="onesuperior" unicode="&#xb9;" horiz-adv-x="434" 
d="M223 700h108v-420h-116v318l-72 -63l-40 60z" />
    <glyph glyph-name="ordmasculine" unicode="&#xba;" horiz-adv-x="460" 
d="M70 547c0 104 67 161 160 161s160 -57 160 -161c0 -102 -67 -160 -160 -160s-160 58 -160 160zM155 547c0 -72 38 -101 75 -101s75 29 75 101c0 73 -38 102 -75 102s-75 -29 -75 -102z" />
    <glyph glyph-name="guillemotright" unicode="&#xbb;" horiz-adv-x="588" 
d="M161 315l-121 203h141l121 -203l-121 -211h-141zM407 315l-121 203h141l121 -203l-121 -211h-141z" />
    <glyph glyph-name="onequarter" unicode="&#xbc;" horiz-adv-x="960" 
d="M159 700h108v-420h-116v318l-72 -63l-40 60zM241 -2l343 736l76 -32l-343 -736zM721 420h129v-251h54v-86h-54v-83h-116v83h-191v72zM744 158v140h-4l-94 -140h98z" />
    <glyph glyph-name="onehalf" unicode="&#xbd;" horiz-adv-x="960" 
d="M159 700h108v-420h-116v318l-72 -63l-40 60zM890 86v-86h-283v80c134 118 168 171 168 205c0 26 -19 54 -64 54c-33 0 -77 -17 -101 -30l-7 88c44 17 91 28 137 28c128 0 151 -80 151 -126c0 -75 -68 -133 -138 -188l-32 -25h169zM241 -2l343 736l76 -32l-343 -736z" />
    <glyph glyph-name="threequarters" unicode="&#xbe;" horiz-adv-x="960" 
d="M116 463v76h36c28 0 72 5 72 45c0 6 -2 38 -62 38c-42 0 -75 -9 -98 -17l-14 83c43 13 90 20 134 20c113 0 156 -48 156 -104c0 -48 -27 -89 -78 -98v-2c50 -10 81 -51 81 -99c0 -66 -51 -127 -167 -127c-63 0 -114 13 -137 20l15 86c33 -12 67 -20 102 -20
c65 0 71 35 71 50c0 21 -13 49 -72 49h-39zM256 -2l343 736l76 -32l-343 -736zM721 420h129v-251h54v-86h-54v-83h-116v83h-191v72zM744 158v140h-4l-94 -140h98z" />
    <glyph glyph-name="questiondown" unicode="&#xbf;" horiz-adv-x="508" 
d="M343 518v-124h-140v124h140zM458 -77l10 -114c-64 -22 -124 -32 -195 -32c-176 0 -233 92 -233 169c0 98 54 165 98 214c37 42 70 77 70 139v20h130v-20c0 -85 -28 -127 -91 -209c-28 -37 -57 -75 -57 -120c0 -55 36 -84 98 -84c51 0 114 9 170 37z" />
    <glyph glyph-name="Agrave" unicode="&#xc0;" horiz-adv-x="749" 
d="M294 700h162l278 -700h-160l-59 158h-289l-59 -158h-152zM271 273h202l-103 286h-2zM478 740h-110l-132 140h160z" />
    <glyph glyph-name="Aacute" unicode="&#xc1;" horiz-adv-x="749" 
d="M294 700h162l278 -700h-160l-59 158h-289l-59 -158h-152zM271 273h202l-103 286h-2zM270 740l82 140h160l-132 -140h-110z" />
    <glyph glyph-name="Acircumflex" unicode="&#xc2;" horiz-adv-x="749" 
d="M294 700h162l278 -700h-160l-59 158h-289l-59 -158h-152zM271 273h202l-103 286h-2zM374 804l-55 -64h-114l113 140h112l113 -140h-114z" />
    <glyph glyph-name="Atilde" unicode="&#xc3;" horiz-adv-x="749" 
d="M294 700h162l278 -700h-160l-59 158h-289l-59 -158h-152zM271 273h202l-103 286h-2zM249 732h-55c4 35 25 128 116 128c12 0 35 -2 73 -16c25 -9 42 -18 70 -18c37 0 45 31 46 47h55c-12 -99 -71 -129 -117 -129c-23 0 -46 9 -72 18c-37 13 -54 18 -69 18
c-39 0 -46 -34 -47 -48z" />
    <glyph glyph-name="Adieresis" unicode="&#xc4;" horiz-adv-x="749" 
d="M294 700h162l278 -700h-160l-59 158h-289l-59 -158h-152zM271 273h202l-103 286h-2zM202 867h115v-115h-115v115zM431 867h115v-115h-115v115z" />
    <glyph glyph-name="Aring" unicode="&#xc5;" horiz-adv-x="749" 
d="M294 700h162l278 -700h-160l-59 158h-289l-59 -158h-152zM271 273h202l-103 286h-2zM268 830c0 59 47 106 106 106s106 -47 106 -106s-47 -106 -106 -106s-106 47 -106 106zM318 830c0 -30 26 -56 56 -56s56 26 56 56s-26 56 -56 56s-56 -26 -56 -56z" />
    <glyph glyph-name="AE" unicode="&#xc6;" horiz-adv-x="946" 
d="M403 700h506v-121h-270l14 -160h235v-123h-222l15 -175h235v-121h-376l-13 159h-267l-88 -159h-165zM518 277l-26 316h-4l-60 -117l-110 -199h200z" />
    <glyph glyph-name="Ccedilla" unicode="&#xc7;" horiz-adv-x="630" 
d="M581 141l9 -119c-53 -18 -107 -28 -161 -30l-11 -67c55 -1 105 -33 105 -102c0 -60 -43 -102 -138 -102c-37 0 -64 7 -94 25l25 57c12 -8 29 -15 51 -15c39 0 54 14 54 36c0 31 -22 50 -57 50c-10 0 -21 -1 -31 -5l24 127c-139 13 -312 108 -312 350
c0 241 170 362 390 362c55 0 102 -7 155 -24l-6 -120c-41 16 -86 26 -139 26c-157 0 -250 -99 -250 -242c0 -169 114 -238 240 -238c62 0 111 15 146 31z" />
    <glyph glyph-name="Egrave" unicode="&#xc8;" horiz-adv-x="538" 
d="M70 700h418v-124h-276v-158h251v-115h-251v-179h276v-124h-418v700zM372 740h-110l-132 140h160z" />
    <glyph glyph-name="Eacute" unicode="&#xc9;" horiz-adv-x="538" 
d="M70 700h418v-124h-276v-158h251v-115h-251v-179h276v-124h-418v700zM165 740l82 140h160l-132 -140h-110z" />
    <glyph glyph-name="Ecircumflex" unicode="&#xca;" horiz-adv-x="538" 
d="M70 700h418v-124h-276v-158h251v-115h-251v-179h276v-124h-418v700zM269 804l-55 -64h-114l113 140h112l113 -140h-114z" />
    <glyph glyph-name="Edieresis" unicode="&#xcb;" horiz-adv-x="538" 
d="M70 700h418v-124h-276v-158h251v-115h-251v-179h276v-124h-418v700zM97 867h115v-115h-115v115zM326 867h115v-115h-115v115z" />
    <glyph glyph-name="Igrave" unicode="&#xcc;" horiz-adv-x="282" 
d="M70 0v700h142v-700h-142zM245 740h-110l-132 140h160z" />
    <glyph glyph-name="Iacute" unicode="&#xcd;" horiz-adv-x="282" 
d="M70 0v700h142v-700h-142zM37 740l82 140h160l-132 -140h-110z" />
    <glyph glyph-name="Icircumflex" unicode="&#xce;" horiz-adv-x="282" 
d="M70 0v700h142v-700h-142zM141 804l-55 -64h-114l113 140h112l113 -140h-114z" />
    <glyph glyph-name="Idieresis" unicode="&#xcf;" horiz-adv-x="282" 
d="M70 0v700h142v-700h-142zM-31 867h115v-115h-115v115zM198 867h115v-115h-115v115z" />
    <glyph glyph-name="Eth" unicode="&#xd0;" horiz-adv-x="748" 
d="M101 700h221c124 0 381 -27 381 -350c0 -153 -59 -350 -381 -350h-221v302h-91v90h91v308zM243 582v-190h181v-90h-181v-184h81c43 0 229 8 229 232s-186 232 -229 232h-81z" />
    <glyph glyph-name="Ntilde" unicode="&#xd1;" horiz-adv-x="745" 
d="M70 700h184l242 -441l37 -95h3l-3 124v412h142v-700h-184l-244 458l-35 78h-3l3 -124v-412h-142v700zM247 732h-55c4 35 25 128 116 128c12 0 35 -2 73 -16c25 -9 42 -18 70 -18c37 0 45 31 46 47h55c-12 -99 -71 -129 -117 -129c-23 0 -46 9 -72 18
c-37 13 -54 18 -69 18c-39 0 -46 -34 -47 -48z" />
    <glyph glyph-name="Ograve" unicode="&#xd2;" horiz-adv-x="776" 
d="M388 708c173 0 343 -104 343 -358s-170 -358 -343 -358s-343 104 -343 358s170 358 343 358zM388 608c-53 0 -193 -21 -193 -258s140 -258 193 -258s193 21 193 258s-140 258 -193 258zM491 740h-110l-132 140h160z" />
    <glyph glyph-name="Oacute" unicode="&#xd3;" horiz-adv-x="776" 
d="M388 708c173 0 343 -104 343 -358s-170 -358 -343 -358s-343 104 -343 358s170 358 343 358zM388 608c-53 0 -193 -21 -193 -258s140 -258 193 -258s193 21 193 258s-140 258 -193 258zM284 740l82 140h160l-132 -140h-110z" />
    <glyph glyph-name="Ocircumflex" unicode="&#xd4;" horiz-adv-x="776" 
d="M388 708c173 0 343 -104 343 -358s-170 -358 -343 -358s-343 104 -343 358s170 358 343 358zM388 608c-53 0 -193 -21 -193 -258s140 -258 193 -258s193 21 193 258s-140 258 -193 258zM388 804l-55 -64h-114l113 140h112l113 -140h-114z" />
    <glyph glyph-name="Otilde" unicode="&#xd5;" horiz-adv-x="776" 
d="M388 708c173 0 343 -104 343 -358s-170 -358 -343 -358s-343 104 -343 358s170 358 343 358zM388 608c-53 0 -193 -21 -193 -258s140 -258 193 -258s193 21 193 258s-140 258 -193 258zM263 732h-55c4 35 25 128 116 128c12 0 35 -2 73 -16c25 -9 42 -18 70 -18
c37 0 45 31 46 47h55c-12 -99 -71 -129 -117 -129c-23 0 -46 9 -72 18c-37 13 -54 18 -69 18c-39 0 -46 -34 -47 -48z" />
    <glyph glyph-name="Odieresis" unicode="&#xd6;" horiz-adv-x="776" 
d="M388 708c173 0 343 -104 343 -358s-170 -358 -343 -358s-343 104 -343 358s170 358 343 358zM388 608c-53 0 -193 -21 -193 -258s140 -258 193 -258s193 21 193 258s-140 258 -193 258zM216 867h115v-115h-115v115zM445 867h115v-115h-115v115z" />
    <glyph glyph-name="multiply" unicode="&#xd7;" horiz-adv-x="638" 
d="M319 285l-151 -151l-64 64l151 151l-151 151l64 64l151 -151l151 151l64 -64l-151 -151l151 -151l-64 -64z" />
    <glyph glyph-name="Oslash" unicode="&#xd8;" horiz-adv-x="776" 
d="M64 0l74 89c-80 79 -93 181 -93 261c0 254 170 358 343 358c92 0 157 -26 210 -63l63 76l51 -42l-65 -78c67 -80 84 -154 84 -251c0 -254 -170 -358 -343 -358c-89 0 -151 24 -201 57l-73 -87zM225 194l296 358c-43 44 -92 56 -133 56c-55 0 -193 -21 -193 -258
c0 -60 8 -106 30 -156zM557 493l-294 -352c19 -19 59 -49 125 -49c54 0 193 21 193 258c0 58 -8 101 -24 143z" />
    <glyph glyph-name="Ugrave" unicode="&#xd9;" horiz-adv-x="724" 
d="M654 700v-434c0 -100 -28 -274 -290 -274c-89 0 -294 15 -294 274v434h142v-434c0 -50 9 -164 150 -164s150 114 150 164v434h142zM465 740h-110l-132 140h160z" />
    <glyph glyph-name="Uacute" unicode="&#xda;" horiz-adv-x="724" 
d="M654 700v-434c0 -100 -28 -274 -290 -274c-89 0 -294 15 -294 274v434h142v-434c0 -50 9 -164 150 -164s150 114 150 164v434h142zM258 740l82 140h160l-132 -140h-110z" />
    <glyph glyph-name="Ucircumflex" unicode="&#xdb;" horiz-adv-x="724" 
d="M654 700v-434c0 -100 -28 -274 -290 -274c-89 0 -294 15 -294 274v434h142v-434c0 -50 9 -164 150 -164s150 114 150 164v434h142zM362 804l-55 -64h-114l113 140h112l113 -140h-114z" />
    <glyph glyph-name="Udieresis" unicode="&#xdc;" horiz-adv-x="724" 
d="M654 700v-434c0 -100 -28 -274 -290 -274c-89 0 -294 15 -294 274v434h142v-434c0 -50 9 -164 150 -164s150 114 150 164v434h142zM190 867h115v-115h-115v115zM419 867h115v-115h-115v115z" />
    <glyph glyph-name="Yacute" unicode="&#xdd;" horiz-adv-x="642" 
d="M-5 700h164l144 -246l22 -48h3l24 48l145 246h150l-252 -416v-284h-142v286zM231 740l82 140h160l-132 -140h-110z" />
    <glyph glyph-name="Thorn" unicode="&#xde;" horiz-adv-x="586" 
d="M70 700h142v-131h65c254 0 269 -175 269 -219c0 -92 -64 -218 -243 -218h-91v-132h-142v700zM212 242h65c86 0 119 59 119 112c0 58 -37 105 -119 105h-65v-217z" />
    <glyph glyph-name="germandbls" unicode="&#xdf;" horiz-adv-x="609" 
d="M60 0v510c0 164 99 258 249 258c168 0 240 -93 240 -197c0 -72 -36 -153 -133 -165v-3c97 -7 158 -82 158 -182c0 -119 -61 -233 -226 -233c-16 0 -51 2 -93 12v111c26 -10 55 -14 79 -14c74 0 102 60 102 126c0 75 -42 128 -117 128h-36v102h36c42 0 90 28 90 112
c0 79 -53 108 -101 108c-49 0 -112 -28 -112 -163v-510h-136z" />
    <glyph glyph-name="agrave" unicode="&#xe0;" horiz-adv-x="581" 
d="M97 385v107c62 25 120 34 190 34c210 0 229 -121 229 -199v-327h-133v76h-2c-11 -22 -49 -84 -162 -84c-131 0 -184 77 -184 158c0 71 37 171 257 171c25 0 51 -1 76 -1h12v22c0 57 -55 89 -117 89c-45 0 -97 -7 -166 -46zM380 235h-23c-75 0 -184 -1 -184 -84
c0 -37 23 -67 83 -67c56 0 124 26 124 138v13zM173 750h140l88 -160h-83z" />
    <glyph glyph-name="aacute" unicode="&#xe1;" horiz-adv-x="581" 
d="M97 385v107c62 25 120 34 190 34c210 0 229 -121 229 -199v-327h-133v76h-2c-11 -22 -49 -84 -162 -84c-131 0 -184 77 -184 158c0 71 37 171 257 171c25 0 51 -1 76 -1h12v22c0 57 -55 89 -117 89c-45 0 -97 -7 -166 -46zM380 235h-23c-75 0 -184 -1 -184 -84
c0 -37 23 -67 83 -67c56 0 124 26 124 138v13zM438 750l-145 -160h-83l88 160h140z" />
    <glyph glyph-name="acircumflex" unicode="&#xe2;" horiz-adv-x="581" 
d="M97 385v107c62 25 120 34 190 34c210 0 229 -121 229 -199v-327h-133v76h-2c-11 -22 -49 -84 -162 -84c-131 0 -184 77 -184 158c0 71 37 171 257 171c25 0 51 -1 76 -1h12v22c0 57 -55 89 -117 89c-45 0 -97 -7 -166 -46zM380 235h-23c-75 0 -184 -1 -184 -84
c0 -37 23 -67 83 -67c56 0 124 26 124 138v13zM290 683l-66 -93h-100l116 160h100l116 -160h-100z" />
    <glyph glyph-name="atilde" unicode="&#xe3;" horiz-adv-x="581" 
d="M97 385v107c62 25 120 34 190 34c210 0 229 -121 229 -199v-327h-133v76h-2c-11 -22 -49 -84 -162 -84c-131 0 -184 77 -184 158c0 71 37 171 257 171c25 0 51 -1 76 -1h12v22c0 57 -55 89 -117 89c-45 0 -97 -7 -166 -46zM380 235h-23c-75 0 -184 -1 -184 -84
c0 -37 23 -67 83 -67c56 0 124 26 124 138v13zM165 596h-55c4 34 24 128 117 128c19 0 42 -5 72 -16c26 -10 49 -19 71 -19c39 0 44 38 45 48h55c-12 -99 -72 -129 -116 -129c-21 0 -51 9 -73 17c-21 7 -46 19 -69 19c-39 0 -46 -34 -47 -48z" />
    <glyph glyph-name="adieresis" unicode="&#xe4;" horiz-adv-x="581" 
d="M97 385v107c62 25 120 34 190 34c210 0 229 -121 229 -199v-327h-133v76h-2c-11 -22 -49 -84 -162 -84c-131 0 -184 77 -184 158c0 71 37 171 257 171c25 0 51 -1 76 -1h12v22c0 57 -55 89 -117 89c-45 0 -97 -7 -166 -46zM380 235h-23c-75 0 -184 -1 -184 -84
c0 -37 23 -67 83 -67c56 0 124 26 124 138v13zM134 726h120v-116h-120v116zM324 726h120v-116h-120v116z" />
    <glyph glyph-name="aring" unicode="&#xe5;" horiz-adv-x="581" 
d="M97 385v107c62 25 120 34 190 34c210 0 229 -121 229 -199v-327h-133v76h-2c-11 -22 -49 -84 -162 -84c-131 0 -184 77 -184 158c0 71 37 171 257 171c25 0 51 -1 76 -1h12v22c0 57 -55 89 -117 89c-45 0 -97 -7 -166 -46zM380 235h-23c-75 0 -184 -1 -184 -84
c0 -37 23 -67 83 -67c56 0 124 26 124 138v13zM184 676c0 59 47 106 106 106s106 -47 106 -106s-47 -106 -106 -106s-106 47 -106 106zM234 676c0 -30 26 -56 56 -56s56 26 56 56s-26 56 -56 56s-56 -26 -56 -56z" />
    <glyph glyph-name="ae" unicode="&#xe6;" horiz-adv-x="898" 
d="M97 385v107c69 27 126 34 179 34c76 0 123 -10 177 -59c42 35 94 59 171 59c235 0 239 -220 239 -277v-31h-358c0 -87 72 -133 159 -133c76 0 129 26 162 47v-102c-52 -23 -110 -38 -179 -38c-92 0 -177 26 -226 87c-49 -57 -115 -87 -202 -87c-90 0 -184 41 -184 158
c0 174 194 170 322 170h23v8c0 28 -6 103 -117 103c-61 0 -110 -12 -166 -46zM380 235h-43c-62 0 -164 -4 -164 -84c0 -47 43 -66 83 -66c70 0 124 51 124 137v13zM505 311h228c-3 84 -62 121 -114 121c-66 0 -111 -54 -114 -121z" />
    <glyph glyph-name="ccedilla" unicode="&#xe7;" horiz-adv-x="463" 
d="M430 512l-8 -98c-25 10 -52 14 -84 14c-91 0 -161 -67 -161 -171c0 -94 57 -167 152 -167c31 0 69 6 104 21l5 -99c-40 -13 -77 -18 -113 -19l-4 -25c52 -1 75 -48 75 -88c0 -44 -34 -89 -110 -89c-34 0 -58 14 -73 25l25 51c11 -8 30 -17 45 -17s39 5 39 30
c0 27 -19 38 -44 38c-10 0 -20 0 -30 -3l16 80c-145 17 -229 131 -229 269s96 262 280 262c34 0 76 -4 115 -14z" />
    <glyph glyph-name="egrave" unicode="&#xe8;" horiz-adv-x="565" 
d="M530 218h-353c4 -66 52 -128 154 -128c60 0 113 14 162 36v-102c-53 -20 -117 -32 -179 -32c-155 0 -279 84 -279 267c0 167 117 267 256 267c235 0 239 -231 239 -277v-31zM177 311h213c2 87 -57 121 -107 121c-60 0 -105 -53 -106 -121zM154 750h140l88 -160h-83z" />
    <glyph glyph-name="eacute" unicode="&#xe9;" horiz-adv-x="565" 
d="M530 218h-353c4 -66 52 -128 154 -128c60 0 113 14 162 36v-102c-53 -20 -117 -32 -179 -32c-155 0 -279 84 -279 267c0 167 117 267 256 267c235 0 239 -231 239 -277v-31zM177 311h213c2 87 -57 121 -107 121c-60 0 -105 -53 -106 -121zM438 750l-145 -160h-83l88 160
h140z" />
    <glyph glyph-name="ecircumflex" unicode="&#xea;" horiz-adv-x="565" 
d="M530 218h-353c4 -66 52 -128 154 -128c60 0 113 14 162 36v-102c-53 -20 -117 -32 -179 -32c-155 0 -279 84 -279 267c0 167 117 267 256 267c235 0 239 -231 239 -277v-31zM177 311h213c2 87 -57 121 -107 121c-60 0 -105 -53 -106 -121zM282 683l-66 -93h-100l116 160
h100l116 -160h-100z" />
    <glyph glyph-name="edieresis" unicode="&#xeb;" horiz-adv-x="565" 
d="M530 218h-353c4 -66 52 -128 154 -128c60 0 113 14 162 36v-102c-53 -20 -117 -32 -179 -32c-155 0 -279 84 -279 267c0 167 117 267 256 267c235 0 239 -231 239 -277v-31zM177 311h213c2 87 -57 121 -107 121c-60 0 -105 -53 -106 -121zM126 726h120v-116h-120v116z
M316 726h120v-116h-120v116z" />
    <glyph glyph-name="igrave" unicode="&#xec;" horiz-adv-x="256" 
d="M60 518h136v-518h-136v518zM6 750h140l88 -160h-83z" />
    <glyph glyph-name="iacute" unicode="&#xed;" horiz-adv-x="256" 
d="M60 518h136v-518h-136v518zM270 750l-145 -160h-83l88 160h140z" />
    <glyph glyph-name="icircumflex" unicode="&#xee;" horiz-adv-x="256" 
d="M60 518h136v-518h-136v518zM128 683l-66 -93h-100l116 160h100l116 -160h-100z" />
    <glyph glyph-name="idieresis" unicode="&#xef;" horiz-adv-x="278" 
d="M71 518h136v-518h-136v518zM104 735v-140h-135v140h135zM174 735h135v-140h-135v140z" />
    <glyph glyph-name="eth" unicode="&#xf0;" horiz-adv-x="584" 
d="M35 243c0 202 154 258 242 258c35 0 71 -14 103 -35c-35 70 -103 105 -135 118l-67 -66l-52 52l40 40c-33 8 -64 13 -94 15l41 99c48 -6 94 -16 138 -30l60 60l52 -52l-38 -38c150 -84 224 -197 224 -376c0 -154 -82 -296 -254 -296c-150 0 -260 104 -260 251zM407 259
c0 110 -60 159 -115 159s-115 -49 -115 -159s60 -159 115 -159s115 49 115 159z" />
    <glyph glyph-name="ntilde" unicode="&#xf1;" horiz-adv-x="612" 
d="M201 0h-136v518h131v-81h3c50 76 124 89 164 89c107 0 184 -59 184 -163v-363h-136v313c0 50 -24 102 -88 102c-84 0 -122 -80 -122 -136v-279zM181 596h-55c4 34 24 128 117 128c19 0 42 -5 72 -16c26 -10 49 -19 71 -19c39 0 44 38 45 48h55
c-12 -99 -72 -129 -116 -129c-21 0 -51 9 -73 17c-21 7 -46 19 -69 19c-39 0 -46 -34 -47 -48z" />
    <glyph glyph-name="ograve" unicode="&#xf2;" horiz-adv-x="604" 
d="M35 259c0 173 113 267 267 267s267 -94 267 -267s-113 -267 -267 -267s-267 94 -267 267zM177 259c0 -120 65 -169 125 -169s125 49 125 169s-65 169 -125 169s-125 -49 -125 -169zM149 750h140l88 -160h-83z" />
    <glyph glyph-name="oacute" unicode="&#xf3;" horiz-adv-x="604" 
d="M35 259c0 173 113 267 267 267s267 -94 267 -267s-113 -267 -267 -267s-267 94 -267 267zM177 259c0 -120 65 -169 125 -169s125 49 125 169s-65 169 -125 169s-125 -49 -125 -169zM453 750l-145 -160h-83l88 160h140z" />
    <glyph glyph-name="ocircumflex" unicode="&#xf4;" horiz-adv-x="604" 
d="M35 259c0 173 113 267 267 267s267 -94 267 -267s-113 -267 -267 -267s-267 94 -267 267zM177 259c0 -120 65 -169 125 -169s125 49 125 169s-65 169 -125 169s-125 -49 -125 -169zM302 683l-66 -93h-100l116 160h100l116 -160h-100z" />
    <glyph glyph-name="otilde" unicode="&#xf5;" horiz-adv-x="604" 
d="M35 259c0 173 113 267 267 267s267 -94 267 -267s-113 -267 -267 -267s-267 94 -267 267zM177 259c0 -120 65 -169 125 -169s125 49 125 169s-65 169 -125 169s-125 -49 -125 -169zM177 596h-55c4 34 24 128 117 128c19 0 42 -5 72 -16c26 -10 49 -19 71 -19
c39 0 44 38 45 48h55c-12 -99 -72 -129 -116 -129c-21 0 -51 9 -73 17c-21 7 -46 19 -69 19c-39 0 -46 -34 -47 -48z" />
    <glyph glyph-name="odieresis" unicode="&#xf6;" horiz-adv-x="604" 
d="M35 259c0 173 113 267 267 267s267 -94 267 -267s-113 -267 -267 -267s-267 94 -267 267zM177 259c0 -120 65 -169 125 -169s125 49 125 169s-65 169 -125 169s-125 -49 -125 -169zM146 726h120v-116h-120v116zM336 726h120v-116h-120v116z" />
    <glyph glyph-name="divide" unicode="&#xf7;" horiz-adv-x="638" 
d="M249 523c0 39 31 70 70 70s70 -31 70 -70s-31 -70 -70 -70s-70 31 -70 70zM249 179c0 39 31 70 70 70s70 -31 70 -70s-31 -70 -70 -70s-70 31 -70 70zM60 306v90h518v-90h-518z" />
    <glyph glyph-name="oslash" unicode="&#xf8;" horiz-adv-x="609" 
d="M14 0l77 86c-33 43 -54 91 -54 173c0 173 113 267 268 267c63 0 103 -9 149 -36l75 84l66 -57l-76 -85c32 -42 53 -92 53 -173c0 -173 -113 -267 -267 -267c-59 0 -100 8 -146 33l-77 -87zM187 193l188 210c-12 10 -34 25 -70 25c-63 0 -126 -49 -126 -169
c0 -35 4 -53 8 -66zM423 323l-186 -210c9 -8 30 -23 68 -23c75 0 125 67 125 169c0 25 -4 47 -7 64z" />
    <glyph glyph-name="ugrave" unicode="&#xf9;" horiz-adv-x="612" 
d="M411 518h136v-518h-131v81h-3c-50 -76 -124 -89 -164 -89c-62 0 -184 13 -184 191v335h136v-313c0 -34 4 -102 88 -102c79 0 122 71 122 141v274zM174 750h140l88 -160h-83z" />
    <glyph glyph-name="uacute" unicode="&#xfa;" horiz-adv-x="612" 
d="M411 518h136v-518h-131v81h-3c-50 -76 -124 -89 -164 -89c-62 0 -184 13 -184 191v335h136v-313c0 -34 4 -102 88 -102c79 0 122 71 122 141v274zM430 750l-145 -160h-83l88 160h140z" />
    <glyph glyph-name="ucircumflex" unicode="&#xfb;" horiz-adv-x="612" 
d="M411 518h136v-518h-131v81h-3c-50 -76 -124 -89 -164 -89c-62 0 -184 13 -184 191v335h136v-313c0 -34 4 -102 88 -102c79 0 122 71 122 141v274zM306 683l-66 -93h-100l116 160h100l116 -160h-100z" />
    <glyph glyph-name="udieresis" unicode="&#xfc;" horiz-adv-x="612" 
d="M411 518h136v-518h-131v81h-3c-50 -76 -124 -89 -164 -89c-62 0 -184 13 -184 191v335h136v-313c0 -34 4 -102 88 -102c79 0 122 71 122 141v274zM150 726h120v-116h-120v116zM340 726h120v-116h-120v116z" />
    <glyph glyph-name="yacute" unicode="&#xfd;" horiz-adv-x="551" 
d="M3 518h150l97 -286l29 -99h5l32 103l94 282h138l-219 -581c-30 -78 -67 -159 -212 -159c-25 0 -55 7 -79 15l10 101c16 -6 33 -11 53 -11c46 0 76 13 94 58l12 30zM413 750l-145 -160h-83l88 160h140z" />
    <glyph glyph-name="thorn" unicode="&#xfe;" horiz-adv-x="608" 
d="M201 -214h-136v914h136v-180l-3 -92h2c25 65 86 98 155 98c144 0 218 -105 218 -267c0 -191 -111 -267 -224 -267c-75 0 -121 35 -149 78h-2l3 -85v-199zM201 259c0 -110 60 -159 115 -159s115 49 115 159s-60 159 -115 159s-115 -49 -115 -159z" />
    <glyph glyph-name="ydieresis" unicode="&#xff;" horiz-adv-x="551" 
d="M3 518h150l97 -286l29 -99h5l32 103l94 282h138l-219 -581c-30 -78 -67 -159 -212 -159c-25 0 -55 7 -79 15l10 101c16 -6 33 -11 53 -11c46 0 76 13 94 58l12 30zM119 726h120v-116h-120v116zM309 726h120v-116h-120v116z" />
    <glyph glyph-name="Amacron" unicode="&#x100;" horiz-adv-x="749" 
d="M294 700h162l278 -700h-160l-59 158h-289l-59 -158h-152zM271 273h202l-103 286h-2zM239 745v79h271v-79h-271z" />
    <glyph glyph-name="amacron" unicode="&#x101;" horiz-adv-x="581" 
d="M97 385v107c62 25 120 34 190 34c210 0 229 -121 229 -199v-327h-133v76h-2c-11 -22 -49 -84 -162 -84c-131 0 -184 77 -184 158c0 71 37 171 257 171c25 0 51 -1 76 -1h12v22c0 57 -55 89 -117 89c-45 0 -97 -7 -166 -46zM380 235h-23c-75 0 -184 -1 -184 -84
c0 -37 23 -67 83 -67c56 0 124 26 124 138v13zM160 685h261v-74h-261v74z" />
    <glyph glyph-name="Abreve" unicode="&#x102;" horiz-adv-x="749" 
d="M294 700h162l278 -700h-160l-59 158h-289l-59 -158h-152zM271 273h202l-103 286h-2zM475 880h64c-4 -137 -128 -140 -163 -140s-159 3 -163 140h64c1 -18 9 -60 99 -60s98 42 99 60z" />
    <glyph glyph-name="abreve" unicode="&#x103;" horiz-adv-x="581" 
d="M97 385v107c62 25 120 34 190 34c210 0 229 -121 229 -199v-327h-133v76h-2c-11 -22 -49 -84 -162 -84c-131 0 -184 77 -184 158c0 71 37 171 257 171c25 0 51 -1 76 -1h12v22c0 57 -55 89 -117 89c-45 0 -97 -7 -166 -46zM380 235h-23c-75 0 -184 -1 -184 -84
c0 -37 23 -67 83 -67c56 0 124 26 124 138v13zM389 740h54c-1 -137 -124 -140 -153 -140s-152 3 -153 140h54c1 -18 9 -60 99 -60s98 42 99 60z" />
    <glyph glyph-name="Aogonek" unicode="&#x104;" horiz-adv-x="749" 
d="M294 700h162l278 -700c-111 -60 -113 -128 -113 -159c0 -19 8 -51 54 -51c22 0 60 9 87 23l17 -50c-39 -23 -77 -36 -132 -36c-27 0 -140 0 -140 99c0 75 51 143 138 174h-71l-59 158h-289l-59 -158h-152zM271 273h202l-103 286h-2z" />
    <glyph glyph-name="aogonek" unicode="&#x105;" horiz-adv-x="581" 
d="M97 385v107c62 25 120 34 190 34c210 0 229 -121 229 -199v-327c-107 -60 -107 -128 -107 -155c0 -34 24 -55 56 -55c25 0 60 9 86 22l16 -46c-37 -22 -76 -35 -130 -35c-129 0 -138 77 -138 97c0 60 36 136 136 172h-52v76h-2c-11 -22 -49 -84 -162 -84
c-131 0 -184 77 -184 158c0 180 211 170 333 170h12v22c0 36 -27 89 -117 89c-54 0 -105 -12 -166 -46zM380 235h-23c-75 0 -184 -1 -184 -84c0 -37 23 -67 83 -67c56 0 124 26 124 138v13z" />
    <glyph glyph-name="Cacute" unicode="&#x106;" horiz-adv-x="630" 
d="M581 141l9 -119c-62 -21 -125 -30 -181 -30c-174 0 -364 99 -364 354c0 241 170 362 390 362c55 0 102 -7 155 -24l-6 -120c-41 16 -86 26 -139 26c-157 0 -250 -99 -250 -242c0 -169 114 -238 240 -238c62 0 111 15 146 31zM327 740l82 140h160l-132 -140h-110z" />
    <glyph glyph-name="cacute" unicode="&#x107;" horiz-adv-x="463" 
d="M430 512l-8 -98c-25 10 -52 14 -84 14c-91 0 -161 -67 -161 -171c0 -94 57 -167 152 -167c31 0 69 6 104 21l5 -99c-25 -8 -74 -20 -133 -20c-185 0 -270 135 -270 272c0 138 96 262 280 262c34 0 76 -4 115 -14zM416 750l-145 -160h-83l88 160h140z" />
    <glyph glyph-name="Ccircumflex" unicode="&#x108;" horiz-adv-x="630" 
d="M581 141l9 -119c-62 -21 -125 -30 -181 -30c-174 0 -364 99 -364 354c0 241 170 362 390 362c55 0 102 -7 155 -24l-6 -120c-41 16 -86 26 -139 26c-157 0 -250 -99 -250 -242c0 -169 114 -238 240 -238c62 0 111 15 146 31zM398 804l-55 -64h-114l113 140h112l113 -140
h-114z" />
    <glyph glyph-name="ccircumflex" unicode="&#x109;" horiz-adv-x="463" 
d="M430 512l-8 -98c-25 10 -52 14 -84 14c-91 0 -161 -67 -161 -171c0 -94 57 -167 152 -167c31 0 69 6 104 21l5 -99c-25 -8 -74 -20 -133 -20c-185 0 -270 135 -270 272c0 138 96 262 280 262c34 0 76 -4 115 -14zM292 683l-66 -93h-100l116 160h100l116 -160h-100z" />
    <glyph glyph-name="Cdotaccent" unicode="&#x10a;" horiz-adv-x="630" 
d="M581 141l9 -119c-62 -21 -125 -30 -181 -30c-174 0 -364 99 -364 354c0 241 170 362 390 362c55 0 102 -7 155 -24l-6 -120c-41 16 -86 26 -139 26c-157 0 -250 -99 -250 -242c0 -169 114 -238 240 -238c62 0 111 15 146 31zM327 876h142v-126h-142v126z" />
    <glyph glyph-name="cdotaccent" unicode="&#x10b;" horiz-adv-x="463" 
d="M430 512l-8 -98c-25 10 -52 14 -84 14c-91 0 -161 -67 -161 -171c0 -94 57 -167 152 -167c31 0 69 6 104 21l5 -99c-25 -8 -74 -20 -133 -20c-185 0 -270 135 -270 272c0 138 96 262 280 262c34 0 76 -4 115 -14zM220 736h140v-140h-140v140z" />
    <glyph glyph-name="Ccaron" unicode="&#x10c;" horiz-adv-x="630" 
d="M581 141l9 -119c-62 -21 -125 -30 -181 -30c-174 0 -364 99 -364 354c0 241 170 362 390 362c55 0 102 -7 155 -24l-6 -120c-41 16 -86 26 -139 26c-157 0 -250 -99 -250 -242c0 -169 114 -238 240 -238c62 0 111 15 146 31zM384 816l55 64h114l-113 -140h-112l-113 140
h114z" />
    <glyph glyph-name="ccaron" unicode="&#x10d;" horiz-adv-x="463" 
d="M430 512l-8 -98c-25 10 -52 14 -84 14c-91 0 -161 -67 -161 -171c0 -94 57 -167 152 -167c31 0 69 6 104 21l5 -99c-25 -8 -74 -20 -133 -20c-185 0 -270 135 -270 272c0 138 96 262 280 262c34 0 76 -4 115 -14zM288 657l66 93h100l-116 -160h-100l-116 160h100z" />
    <glyph glyph-name="Dcaron" unicode="&#x10e;" horiz-adv-x="717" 
d="M70 700h221c124 0 381 -27 381 -350c0 -153 -59 -350 -381 -350h-221v700zM212 582v-464h81c43 0 229 8 229 232s-186 232 -229 232h-81zM255 816l55 64h114l-113 -140h-112l-113 140h114z" />
    <glyph glyph-name="dcaron" unicode="&#x10f;" horiz-adv-x="747" 
d="M407 750h136v-750h-119v90h-2c-23 -43 -70 -98 -169 -98c-132 0 -218 103 -218 267c0 189 119 267 224 267c75 0 122 -36 149 -78h2l-3 85v217zM407 259c0 110 -60 159 -115 159s-115 -49 -115 -159s60 -159 115 -159s115 49 115 159zM627 750h140l-66 -190h-110z" />
    <glyph glyph-name="Dcroat" unicode="&#x110;" horiz-adv-x="748" 
d="M101 700h221c124 0 381 -27 381 -350c0 -153 -59 -350 -381 -350h-221v302h-91v90h91v308zM243 582v-190h181v-90h-181v-184h81c43 0 229 8 229 232s-186 232 -229 232h-81z" />
    <glyph glyph-name="dcroat" unicode="&#x111;" horiz-adv-x="605" 
d="M407 750h136v-75h61v-90h-61v-585h-119v90h-2c-23 -43 -70 -98 -169 -98c-132 0 -218 103 -218 267c0 189 119 267 224 267c75 0 122 -36 149 -78h2l-3 85v52h-231v90h231v75zM407 259c0 110 -60 159 -115 159s-115 -49 -115 -159s60 -159 115 -159s115 49 115 159z" />
    <glyph glyph-name="Emacron" unicode="&#x112;" horiz-adv-x="538" 
d="M70 700h418v-124h-276v-158h251v-115h-251v-179h276v-124h-418v700zM133 745v79h271v-79h-271z" />
    <glyph glyph-name="emacron" unicode="&#x113;" horiz-adv-x="565" 
d="M530 218h-353c4 -66 52 -128 154 -128c60 0 113 14 162 36v-102c-53 -20 -117 -32 -179 -32c-155 0 -279 84 -279 267c0 167 117 267 256 267c235 0 239 -231 239 -277v-31zM177 311h213c2 87 -57 121 -107 121c-60 0 -105 -53 -106 -121zM152 685h261v-74h-261v74z" />
    <glyph glyph-name="Edotaccent" unicode="&#x116;" horiz-adv-x="538" 
d="M70 700h418v-124h-276v-158h251v-115h-251v-179h276v-124h-418v700zM198 876h142v-126h-142v126z" />
    <glyph glyph-name="edotaccent" unicode="&#x117;" horiz-adv-x="565" 
d="M530 218h-353c4 -66 52 -128 154 -128c60 0 113 14 162 36v-102c-53 -20 -117 -32 -179 -32c-155 0 -279 84 -279 267c0 167 117 267 256 267c235 0 239 -231 239 -277v-31zM177 311h213c2 87 -57 121 -107 121c-60 0 -105 -53 -106 -121zM212 736h140v-140h-140v140z
" />
    <glyph glyph-name="Eogonek" unicode="&#x118;" horiz-adv-x="538" 
d="M70 700h418v-124h-276v-158h251v-115h-251v-179h276v-124h-45c-111 -60 -113 -128 -113 -159c0 -19 8 -51 54 -51c22 0 60 9 87 23l17 -50c-39 -23 -77 -36 -132 -36c-27 0 -140 0 -140 99c0 75 51 143 138 174h-284v700z" />
    <glyph glyph-name="eogonek" unicode="&#x119;" horiz-adv-x="565" 
d="M530 218h-353c4 -66 52 -128 154 -128c60 0 113 14 162 36v-102c-59 -19 -172 -69 -172 -179c0 -34 24 -55 56 -55c25 0 60 9 86 22l16 -46c-37 -22 -76 -35 -130 -35c-129 0 -138 77 -138 97c0 50 25 122 117 164h-14c-155 3 -279 83 -279 267c0 167 117 267 256 267
c235 0 239 -231 239 -277v-31zM177 311h213c2 87 -57 121 -107 121c-60 0 -105 -53 -106 -121z" />
    <glyph glyph-name="Ecaron" unicode="&#x11a;" horiz-adv-x="538" 
d="M70 700h418v-124h-276v-158h251v-115h-251v-179h276v-124h-418v700zM269 816l55 64h114l-113 -140h-112l-113 140h114z" />
    <glyph glyph-name="ecaron" unicode="&#x11b;" horiz-adv-x="565" 
d="M530 218h-353c4 -66 52 -128 154 -128c60 0 113 14 162 36v-102c-53 -20 -117 -32 -179 -32c-155 0 -279 84 -279 267c0 167 117 267 256 267c235 0 239 -231 239 -277v-31zM177 311h213c2 87 -57 121 -107 121c-60 0 -105 -53 -106 -121zM282 657l66 93h100l-116 -160
h-100l-116 160h100z" />
    <glyph glyph-name="Gcircumflex" unicode="&#x11c;" horiz-adv-x="729" 
d="M637 678l-8 -125c-72 33 -143 41 -200 41c-142 0 -234 -92 -234 -244c0 -149 90 -240 228 -240c35 0 62 2 94 14v167h-143v110h285v-371c-33 -9 -138 -38 -245 -38c-221 0 -369 130 -369 358c0 231 153 358 387 358c73 0 133 -6 205 -30zM434 804l-55 -64h-114l113 140
h112l113 -140h-114z" />
    <glyph glyph-name="gcircumflex" unicode="&#x11d;" horiz-adv-x="612" 
d="M90 -186l11 114c45 -23 104 -43 160 -43c97 0 150 53 150 139v68h-3c-11 -25 -49 -94 -158 -94c-158 0 -215 139 -215 259c0 163 89 269 213 269c21 0 123 2 168 -95h3v87h128v-477c0 -60 -3 -263 -264 -263c-49 0 -117 6 -193 36zM287 411c-76 0 -110 -73 -110 -151
c0 -130 74 -154 120 -154c58 0 114 53 114 164c0 87 -48 141 -124 141zM266 683l-66 -93h-100l116 160h100l116 -160h-100z" />
    <glyph glyph-name="Gbreve" unicode="&#x11e;" horiz-adv-x="729" 
d="M637 678l-8 -125c-72 33 -143 41 -200 41c-142 0 -234 -92 -234 -244c0 -149 90 -240 228 -240c35 0 62 2 94 14v167h-143v110h285v-371c-33 -9 -138 -38 -245 -38c-221 0 -369 130 -369 358c0 231 153 358 387 358c73 0 133 -6 205 -30zM522 880h64
c-4 -137 -128 -140 -163 -140s-159 3 -163 140h64c1 -18 9 -60 99 -60s98 42 99 60z" />
    <glyph glyph-name="gbreve" unicode="&#x11f;" horiz-adv-x="612" 
d="M90 -186l11 114c45 -23 104 -43 160 -43c97 0 150 53 150 139v68h-3c-11 -25 -49 -94 -158 -94c-158 0 -215 139 -215 259c0 163 89 269 213 269c21 0 123 2 168 -95h3v87h128v-477c0 -60 -3 -263 -264 -263c-49 0 -117 6 -193 36zM287 411c-76 0 -110 -73 -110 -151
c0 -130 74 -154 120 -154c58 0 114 53 114 164c0 87 -48 141 -124 141zM362 740h54c-1 -137 -124 -140 -153 -140s-152 3 -153 140h54c1 -18 9 -60 99 -60s98 42 99 60z" />
    <glyph glyph-name="Gdotaccent" unicode="&#x120;" horiz-adv-x="729" 
d="M637 678l-8 -125c-72 33 -143 41 -200 41c-142 0 -234 -92 -234 -244c0 -149 90 -240 228 -240c35 0 62 2 94 14v167h-143v110h285v-371c-33 -9 -138 -38 -245 -38c-221 0 -369 130 -369 358c0 231 153 358 387 358c73 0 133 -6 205 -30zM350 876h142v-126h-142v126z" />
    <glyph glyph-name="gdotaccent" unicode="&#x121;" horiz-adv-x="612" 
d="M90 -186l11 114c45 -23 104 -43 160 -43c97 0 150 53 150 139v68h-3c-11 -25 -49 -94 -158 -94c-158 0 -215 139 -215 259c0 163 89 269 213 269c21 0 123 2 168 -95h3v87h128v-477c0 -60 -3 -263 -264 -263c-49 0 -117 6 -193 36zM287 411c-76 0 -110 -73 -110 -151
c0 -130 74 -154 120 -154c58 0 114 53 114 164c0 87 -48 141 -124 141zM190 736h140v-140h-140v140z" />
    <glyph glyph-name="Gcommaaccent" unicode="&#x122;" horiz-adv-x="729" 
d="M637 678l-8 -125c-72 33 -143 41 -200 41c-142 0 -234 -92 -234 -244c0 -149 90 -240 228 -240c35 0 62 2 94 14v167h-143v110h285v-371c-33 -9 -138 -38 -245 -38c-221 0 -369 130 -369 358c0 231 153 358 387 358c73 0 133 -6 205 -30zM346 -50h140l-56 -190h-120z" />
    <glyph glyph-name="gcommaaccent" unicode="&#x123;" horiz-adv-x="612" 
d="M90 -186l11 114c45 -23 104 -43 160 -43c97 0 150 53 150 139v68h-3c-11 -25 -49 -94 -158 -94c-158 0 -215 139 -215 259c0 163 89 269 213 269c21 0 123 2 168 -95h3v87h128v-477c0 -60 -3 -263 -264 -263c-49 0 -117 6 -193 36zM287 411c-76 0 -110 -73 -110 -151
c0 -130 74 -154 120 -154c58 0 114 53 114 164c0 87 -48 141 -124 141zM338 590h-140l66 190h110z" />
    <glyph glyph-name="Hcircumflex" unicode="&#x124;" horiz-adv-x="708" 
d="M70 700h142v-282h284v282h142v-700h-142v303h-284v-303h-142v700zM354 804l-55 -64h-114l113 140h112l113 -140h-114z" />
    <glyph glyph-name="hcircumflex" unicode="&#x125;" horiz-adv-x="612" 
d="M65 0v750h136v-233l-5 -80h3c15 22 62 89 165 89c181 0 183 -162 183 -183v-343h-136v298c0 41 -1 117 -88 117c-56 0 -122 -45 -122 -157v-258h-136zM136 883l-66 -93h-100l116 160h100l116 -160h-100z" />
    <glyph glyph-name="Hbar" unicode="&#x126;" horiz-adv-x="716" 
d="M74 700h142v-99h284v99h142v-99h66v-90h-66v-511h-142v303h-284v-303h-142v511h-66v90h66v99zM216 418h284v93h-284v-93z" />
    <glyph glyph-name="hbar" unicode="&#x127;" horiz-adv-x="660" 
d="M113 0v592h-83v85h83v73h136v-73h218v-85h-218v-75l-5 -80h3c50 76 124 89 164 89c107 0 184 -59 184 -163v-363h-136v313c0 72 -43 102 -94 102c-56 0 -116 -46 -116 -136v-279h-136z" />
    <glyph glyph-name="Imacron" unicode="&#x12a;" horiz-adv-x="282" 
d="M70 0v700h142v-700h-142zM6 745v79h271v-79h-271z" />
    <glyph glyph-name="imacron" unicode="&#x12b;" horiz-adv-x="256" 
d="M60 518h136v-518h-136v518zM-2 685h261v-74h-261v74z" />
    <glyph glyph-name="Iogonek" unicode="&#x12e;" horiz-adv-x="276" 
d="M72 0v700h142v-700c-111 -60 -113 -128 -113 -159c0 -19 8 -51 54 -51c22 0 60 9 87 23l17 -50c-39 -23 -77 -36 -132 -36c-27 0 -140 0 -140 99c0 75 51 143 138 174h-53z" />
    <glyph glyph-name="iogonek" unicode="&#x12f;" horiz-adv-x="270" 
d="M67 518h136v-518c-107 -60 -107 -128 -107 -155c0 -34 24 -55 56 -55c25 0 60 9 86 22l16 -46c-37 -22 -76 -35 -130 -35c-129 0 -138 77 -138 97c0 60 36 136 136 172h-55v518zM65 736h140v-140h-140v140z" />
    <glyph glyph-name="Idotaccent" unicode="&#x130;" horiz-adv-x="282" 
d="M70 0v700h142v-700h-142zM70 876h142v-126h-142v126z" />
    <glyph glyph-name="dotlessi" unicode="&#x131;" horiz-adv-x="256" 
d="M60 518h136v-518h-136v518z" />
    <glyph glyph-name="Jcircumflex" unicode="&#x134;" horiz-adv-x="379" 
d="M167 700h142v-497c0 -94 -17 -211 -181 -211c-33 0 -72 5 -108 13v114c22 -5 50 -9 68 -9c63 0 79 40 79 103v487zM233 804l-55 -64h-114l113 140h112l113 -140h-114z" />
    <glyph glyph-name="jcircumflex" unicode="&#x135;" horiz-adv-x="260" 
d="M198 518v-559c0 -82 -9 -181 -158 -181c-20 0 -37 1 -60 7v96c11 -3 24 -4 35 -4c43 0 47 34 47 77v564h136zM130 683l-66 -93h-100l116 160h100l116 -160h-100z" />
    <glyph glyph-name="Kcommaaccent" unicode="&#x136;" horiz-adv-x="662" 
d="M70 700h142v-299h3l253 299h169l-292 -317l310 -383h-180l-260 348h-3v-348h-142v700zM273 -50h140l-56 -190h-120z" />
    <glyph glyph-name="kcommaaccent" unicode="&#x137;" horiz-adv-x="552" 
d="M65 750h136v-447h5l162 215h156l-190 -235l208 -283h-166l-170 263h-5v-263h-136v750zM218 -50h140l-66 -190h-110z" />
    <glyph glyph-name="Lacute" unicode="&#x139;" horiz-adv-x="510" 
d="M70 700h142v-582h278v-118h-420v700zM95 740l82 140h160l-132 -140h-110z" />
    <glyph glyph-name="lacute" unicode="&#x13a;" horiz-adv-x="266" 
d="M65 750h136v-750h-136v750zM271 950l-145 -160h-83l88 160h140z" />
    <glyph glyph-name="Lcommaaccent" unicode="&#x13b;" horiz-adv-x="510" 
d="M70 700h142v-582h278v-118h-420v700zM226 -50h140l-56 -190h-120z" />
    <glyph glyph-name="lcommaaccent" unicode="&#x13c;" horiz-adv-x="266" 
d="M65 750h136v-750h-136v750zM76 -50h140l-66 -190h-110z" />
    <glyph glyph-name="Lcaron" unicode="&#x13d;" horiz-adv-x="510" 
d="M70 700h142v-582h278v-118h-420v700zM346 700h140l-66 -190h-110z" />
    <glyph glyph-name="lcaron" unicode="&#x13e;" horiz-adv-x="392" 
d="M65 750h136v-750h-136v750zM272 750h140l-66 -190h-110z" />
    <glyph glyph-name="Ldot" unicode="&#x13f;" horiz-adv-x="510" 
d="M70 700h142v-582h278v-118h-420v700zM462 440v-142h-140v142h140z" />
    <glyph glyph-name="ldot" unicode="&#x140;" horiz-adv-x="406" 
d="M65 750h136v-750h-136v750zM406 440v-142h-140v142h140z" />
    <glyph glyph-name="Lslash" unicode="&#x141;" horiz-adv-x="535" 
d="M95 700h142v-274l112 112l48 -48l-160 -160v-212h278v-118h-420v187l-51 -51l-48 48l99 99v417z" />
    <glyph glyph-name="lslash" unicode="&#x142;" horiz-adv-x="306" 
d="M85 750h136v-258l73 72l47 -47l-120 -120v-397h-136v260l-73 -72l-47 47l120 120v395z" />
    <glyph glyph-name="Nacute" unicode="&#x143;" horiz-adv-x="745" 
d="M70 700h184l242 -441l37 -95h3l-3 124v412h142v-700h-184l-244 458l-35 78h-3l3 -124v-412h-142v700zM268 740l82 140h160l-132 -140h-110z" />
    <glyph glyph-name="nacute" unicode="&#x144;" horiz-adv-x="612" 
d="M201 0h-136v518h131v-81h3c50 76 124 89 164 89c107 0 184 -59 184 -163v-363h-136v313c0 50 -24 102 -88 102c-84 0 -122 -80 -122 -136v-279zM441 750l-145 -160h-83l88 160h140z" />
    <glyph glyph-name="Ncommaaccent" unicode="&#x145;" horiz-adv-x="745" 
d="M70 700h184l242 -441l37 -95h3l-3 124v412h142v-700h-184l-244 458l-35 78h-3l3 -124v-412h-142v700zM315 -50h140l-56 -190h-120z" />
    <glyph glyph-name="ncommaaccent" unicode="&#x146;" horiz-adv-x="612" 
d="M201 0h-136v518h131v-81h3c50 76 124 89 164 89c107 0 184 -59 184 -163v-363h-136v313c0 50 -24 102 -88 102c-84 0 -122 -80 -122 -136v-279zM248 -50h140l-66 -190h-110z" />
    <glyph glyph-name="Ncaron" unicode="&#x147;" horiz-adv-x="745" 
d="M70 700h184l242 -441l37 -95h3l-3 124v412h142v-700h-184l-244 458l-35 78h-3l3 -124v-412h-142v700zM372 816l55 64h114l-113 -140h-112l-113 140h114z" />
    <glyph glyph-name="ncaron" unicode="&#x148;" horiz-adv-x="612" 
d="M201 0h-136v518h131v-81h3c50 76 124 89 164 89c107 0 184 -59 184 -163v-363h-136v313c0 50 -24 102 -88 102c-84 0 -122 -80 -122 -136v-279zM306 657l66 93h100l-116 -160h-100l-116 160h100z" />
    <glyph glyph-name="Omacron" unicode="&#x14c;" horiz-adv-x="776" 
d="M388 708c173 0 343 -104 343 -358s-170 -358 -343 -358s-343 104 -343 358s170 358 343 358zM388 608c-53 0 -193 -21 -193 -258s140 -258 193 -258s193 21 193 258s-140 258 -193 258zM252 745v79h271v-79h-271z" />
    <glyph glyph-name="omacron" unicode="&#x14d;" horiz-adv-x="604" 
d="M35 259c0 173 113 267 267 267s267 -94 267 -267s-113 -267 -267 -267s-267 94 -267 267zM177 259c0 -120 65 -169 125 -169s125 49 125 169s-65 169 -125 169s-125 -49 -125 -169zM171 685h261v-74h-261v74z" />
    <glyph glyph-name="Obreve" unicode="&#x14e;" horiz-adv-x="776" 
d="M388 708c173 0 343 -104 343 -358s-170 -358 -343 -358s-343 104 -343 358s170 358 343 358zM388 608c-53 0 -193 -21 -193 -258s140 -258 193 -258s193 21 193 258s-140 258 -193 258zM489 880h64c-4 -137 -128 -140 -163 -140s-159 3 -163 140h64c1 -18 9 -60 99 -60
s98 42 99 60z" />
    <glyph glyph-name="obreve" unicode="&#x14f;" horiz-adv-x="604" 
d="M35 259c0 173 113 267 267 267s267 -94 267 -267s-113 -267 -267 -267s-267 94 -267 267zM177 259c0 -120 65 -169 125 -169s125 49 125 169s-65 169 -125 169s-125 -49 -125 -169zM401 740h54c-1 -137 -124 -140 -153 -140s-152 3 -153 140h54c1 -18 9 -60 99 -60
s98 42 99 60z" />
    <glyph glyph-name="Ohungarumlaut" unicode="&#x150;" horiz-adv-x="776" 
d="M388 708c173 0 343 -104 343 -358s-170 -358 -343 -358s-343 104 -343 358s170 358 343 358zM388 608c-53 0 -193 -21 -193 -258s140 -258 193 -258s193 21 193 258s-140 258 -193 258zM220 740l82 140h150l-132 -140h-100zM439 740l82 140h150l-132 -140h-100z" />
    <glyph glyph-name="ohungarumlaut" unicode="&#x151;" horiz-adv-x="604" 
d="M35 259c0 173 113 267 267 267s267 -94 267 -267s-113 -267 -267 -267s-267 94 -267 267zM177 259c0 -120 65 -169 125 -169s125 49 125 169s-65 169 -125 169s-125 -49 -125 -169zM388 750l-148 -160h-80l94 160h134zM598 750l-148 -160h-80l94 160h134z" />
    <glyph glyph-name="OE" unicode="&#x152;" horiz-adv-x="1059" 
d="M723 418h251v-115h-251v-179h276v-124h-418v48c-45 -32 -100 -56 -193 -56c-215 0 -343 143 -343 358c0 214 128 358 343 358c93 0 149 -24 193 -55v47h418v-124h-276v-158zM388 608c-53 0 -193 -21 -193 -258s140 -258 193 -258s193 21 193 258s-140 258 -193 258z" />
    <glyph glyph-name="oe" unicode="&#x153;" horiz-adv-x="962" 
d="M887 132v-102c-54 -24 -109 -38 -179 -38c-60 0 -138 5 -207 75c-16 -21 -63 -75 -195 -75c-155 0 -268 95 -268 267c0 173 113 267 268 267c59 0 136 -9 196 -74c41 43 93 74 183 74c235 0 239 -219 239 -277v-31h-358c0 -87 72 -133 159 -133c76 0 129 26 162 47z
M180 259c0 -120 65 -169 126 -169c75 0 125 67 125 169s-50 169 -125 169c-61 0 -126 -49 -126 -169zM566 311h228c-3 84 -62 121 -114 121c-66 0 -111 -54 -114 -121z" />
    <glyph glyph-name="Racute" unicode="&#x154;" horiz-adv-x="630" 
d="M70 700h248c187 0 235 -96 235 -190c0 -115 -86 -151 -135 -163v-2c34 -8 56 -34 73 -74l114 -271h-159l-90 222c-17 42 -43 66 -90 66h-54v-288h-142v700zM212 590v-192h76c90 0 119 56 119 97c0 23 -7 95 -119 95h-76zM243 740l82 140h160l-132 -140h-110z" />
    <glyph glyph-name="racute" unicode="&#x155;" horiz-adv-x="396" 
d="M65 518h124v-112h3c12 63 59 120 139 120c13 0 31 -3 45 -6l-5 -99c-10 1 -30 3 -44 3c-49 0 -126 -30 -126 -175v-249h-136v518zM353 750l-145 -160h-83l88 160h140z" />
    <glyph glyph-name="Rcommaaccent" unicode="&#x156;" horiz-adv-x="630" 
d="M70 700h248c187 0 235 -96 235 -190c0 -115 -86 -151 -135 -163v-2c34 -8 56 -34 73 -74l114 -271h-159l-90 222c-17 42 -43 66 -90 66h-54v-288h-142v700zM212 590v-192h76c90 0 119 56 119 97c0 23 -7 95 -119 95h-76zM266 -50h140l-66 -190h-110z" />
    <glyph glyph-name="rcommaaccent" unicode="&#x157;" horiz-adv-x="396" 
d="M65 518h124v-112h3c12 63 59 120 139 120c13 0 31 -3 45 -6l-5 -99c-10 1 -30 3 -44 3c-49 0 -126 -30 -126 -175v-249h-136v518zM77 -50h140l-66 -190h-110z" />
    <glyph glyph-name="Rcaron" unicode="&#x158;" horiz-adv-x="630" 
d="M70 700h248c187 0 235 -96 235 -190c0 -115 -86 -151 -135 -163v-2c34 -8 56 -34 73 -74l114 -271h-159l-90 222c-17 42 -43 66 -90 66h-54v-288h-142v700zM212 590v-192h76c90 0 119 56 119 97c0 23 -7 95 -119 95h-76zM308 816l55 64h114l-113 -140h-112l-113 140h114z
" />
    <glyph glyph-name="rcaron" unicode="&#x159;" horiz-adv-x="396" 
d="M65 518h124v-112h3c12 63 59 120 139 120c13 0 31 -3 45 -6l-5 -99c-10 1 -30 3 -44 3c-49 0 -126 -30 -126 -175v-249h-136v518zM201 657l66 93h100l-116 -160h-100l-116 160h100z" />
    <glyph glyph-name="Sacute" unicode="&#x15a;" horiz-adv-x="552" 
d="M53 27l15 122c56 -26 126 -42 173 -42c76 0 112 45 112 84c0 73 -77 93 -141 125c-105 52 -162 96 -162 195c0 70 38 197 220 197c66 0 136 -7 200 -30l-15 -112c-41 17 -101 34 -153 34c-87 0 -105 -45 -105 -74c0 -56 49 -81 93 -100c117 -50 212 -90 212 -230
c0 -111 -86 -204 -267 -204c-68 0 -129 15 -182 35zM187 740l82 140h160l-132 -140h-110z" />
    <glyph glyph-name="sacute" unicode="&#x15b;" horiz-adv-x="454" 
d="M404 504l-12 -98c-19 7 -63 25 -118 25c-86 0 -91 -41 -91 -54c0 -45 50 -54 92 -68c59 -19 139 -55 139 -157c0 -82 -63 -160 -202 -160c-52 0 -120 12 -172 30l6 106c7 -3 76 -35 146 -35s86 35 86 56c0 43 -41 55 -90 73c-82 30 -139 63 -139 151c0 59 36 153 189 153
c30 0 92 1 166 -22zM393 750l-145 -160h-83l88 160h140z" />
    <glyph glyph-name="Scircumflex" unicode="&#x15c;" horiz-adv-x="552" 
d="M53 27l15 122c56 -26 126 -42 173 -42c76 0 112 45 112 84c0 73 -77 93 -141 125c-105 52 -162 96 -162 195c0 70 38 197 220 197c66 0 136 -7 200 -30l-15 -112c-41 17 -101 34 -153 34c-87 0 -105 -45 -105 -74c0 -56 49 -81 93 -100c117 -50 212 -90 212 -230
c0 -111 -86 -204 -267 -204c-68 0 -129 15 -182 35zM285 804l-55 -64h-114l113 140h112l113 -140h-114z" />
    <glyph glyph-name="scircumflex" unicode="&#x15d;" horiz-adv-x="454" 
d="M404 504l-12 -98c-19 7 -63 25 -118 25c-86 0 -91 -41 -91 -54c0 -45 50 -54 92 -68c59 -19 139 -55 139 -157c0 -82 -63 -160 -202 -160c-52 0 -120 12 -172 30l6 106c7 -3 76 -35 146 -35s86 35 86 56c0 43 -41 55 -90 73c-82 30 -139 63 -139 151c0 59 36 153 189 153
c30 0 92 1 166 -22zM231 683l-66 -93h-100l116 160h100l116 -160h-100z" />
    <glyph glyph-name="Scedilla" unicode="&#x15e;" horiz-adv-x="552" 
d="M223 -8c-59 3 -115 15 -170 35l15 122c56 -26 126 -42 173 -42c76 0 112 45 112 84c0 73 -77 93 -141 125c-105 52 -162 96 -162 195c0 70 38 197 220 197c66 0 136 -7 200 -30l-15 -112c-41 17 -101 34 -153 34c-87 0 -105 -45 -105 -74c0 -56 49 -81 93 -100
c117 -50 212 -90 212 -230c0 -127 -106 -191 -205 -201l-10 -60c55 -1 105 -33 105 -102c0 -60 -43 -102 -138 -102c-37 0 -64 7 -94 25l25 57c12 -8 29 -15 51 -15c39 0 54 14 54 36c0 31 -22 50 -57 50c-10 0 -21 -1 -31 -5z" />
    <glyph glyph-name="scedilla" unicode="&#x15f;" horiz-adv-x="454" 
d="M187 -8c-53 4 -102 15 -147 30l6 106c7 -3 76 -35 146 -35s86 35 86 56c0 43 -41 55 -90 73c-82 30 -139 63 -139 151c0 59 36 153 189 153c30 0 92 1 166 -22l-12 -98c-19 7 -63 25 -118 25c-86 0 -91 -41 -91 -54c0 -45 50 -54 92 -68c59 -19 139 -55 139 -157
c0 -78 -50 -137 -165 -159l-5 -25c52 -1 75 -48 75 -88c0 -44 -34 -89 -110 -89c-34 0 -58 14 -73 25l25 51c11 -8 30 -17 45 -17s39 5 39 30c0 27 -19 38 -44 38c-10 0 -20 0 -30 -3z" />
    <glyph glyph-name="Scaron" unicode="&#x160;" horiz-adv-x="552" 
d="M53 27l15 122c56 -26 126 -42 173 -42c76 0 112 45 112 84c0 73 -77 93 -141 125c-105 52 -162 96 -162 195c0 70 38 197 220 197c66 0 136 -7 200 -30l-15 -112c-41 17 -101 34 -153 34c-87 0 -105 -45 -105 -74c0 -56 49 -81 93 -100c117 -50 212 -90 212 -230
c0 -111 -86 -204 -267 -204c-68 0 -129 15 -182 35zM276 816l55 64h114l-113 -140h-112l-113 140h114z" />
    <glyph glyph-name="scaron" unicode="&#x161;" horiz-adv-x="454" 
d="M404 504l-12 -98c-19 7 -63 25 -118 25c-86 0 -91 -41 -91 -54c0 -45 50 -54 92 -68c59 -19 139 -55 139 -157c0 -82 -63 -160 -202 -160c-52 0 -120 12 -172 30l6 106c7 -3 76 -35 146 -35s86 35 86 56c0 43 -41 55 -90 73c-82 30 -139 63 -139 151c0 59 36 153 189 153
c30 0 92 1 166 -22zM231 657l66 93h100l-116 -160h-100l-116 160h100z" />
    <glyph glyph-name="Tcommaaccent" unicode="&#x162;" horiz-adv-x="576" 
d="M15 700h546v-124h-202v-576h-142v576h-202v124zM218 -50h140l-56 -190h-120z" />
    <glyph glyph-name="tcommaaccent" unicode="&#x163;" horiz-adv-x="396" 
d="M112 418h-102v100h102v103l136 43v-146h120v-100h-120v-235c0 -45 0 -91 67 -91c18 0 37 4 53 9v-96c-8 -2 -57 -13 -105 -13c-150 0 -151 126 -151 160v266zM140 -50h140l-66 -190h-110z" />
    <glyph glyph-name="Tcaron" unicode="&#x164;" horiz-adv-x="576" 
d="M15 700h546v-124h-202v-576h-142v576h-202v124zM288 816l55 64h114l-113 -140h-112l-113 140h114z" />
    <glyph glyph-name="tcaron" unicode="&#x165;" horiz-adv-x="446" 
d="M112 418h-102v100h102v103l136 43v-146h120v-100h-120v-235c0 -45 0 -91 67 -91c18 0 37 4 53 9v-96c-8 -2 -57 -13 -105 -13c-150 0 -151 126 -151 160v266zM326 750h140l-66 -190h-110z" />
    <glyph glyph-name="Umacron" unicode="&#x16a;" horiz-adv-x="724" 
d="M654 700v-434c0 -100 -28 -274 -290 -274c-89 0 -294 15 -294 274v434h142v-434c0 -50 9 -164 150 -164s150 114 150 164v434h142zM226 745v79h271v-79h-271z" />
    <glyph glyph-name="umacron" unicode="&#x16b;" horiz-adv-x="612" 
d="M411 518h136v-518h-131v81h-3c-50 -76 -124 -89 -164 -89c-62 0 -184 13 -184 191v335h136v-313c0 -34 4 -102 88 -102c79 0 122 71 122 141v274zM175 685h261v-74h-261v74z" />
    <glyph glyph-name="Ubreve" unicode="&#x16c;" horiz-adv-x="724" 
d="M654 700v-434c0 -100 -28 -274 -290 -274c-89 0 -294 15 -294 274v434h142v-434c0 -50 9 -164 150 -164s150 114 150 164v434h142zM463 880h64c-4 -137 -128 -140 -163 -140s-159 3 -163 140h64c1 -18 9 -60 99 -60s98 42 99 60z" />
    <glyph glyph-name="ubreve" unicode="&#x16d;" horiz-adv-x="612" 
d="M411 518h136v-518h-131v81h-3c-50 -76 -124 -89 -164 -89c-62 0 -184 13 -184 191v335h136v-313c0 -34 4 -102 88 -102c79 0 122 71 122 141v274zM405 740h54c-1 -137 -124 -140 -153 -140s-152 3 -153 140h54c1 -18 9 -60 99 -60s98 42 99 60z" />
    <glyph glyph-name="Uring" unicode="&#x16e;" horiz-adv-x="724" 
d="M654 700v-434c0 -100 -28 -274 -290 -274c-89 0 -294 15 -294 274v434h142v-434c0 -50 9 -164 150 -164s150 114 150 164v434h142zM256 830c0 59 47 106 106 106s106 -47 106 -106s-47 -106 -106 -106s-106 47 -106 106zM306 830c0 -30 26 -56 56 -56s56 26 56 56
s-26 56 -56 56s-56 -26 -56 -56z" />
    <glyph glyph-name="uring" unicode="&#x16f;" horiz-adv-x="612" 
d="M411 518h136v-518h-131v81h-3c-50 -76 -124 -89 -164 -89c-62 0 -184 13 -184 191v335h136v-313c0 -34 4 -102 88 -102c79 0 122 71 122 141v274zM200 676c0 59 47 106 106 106s106 -47 106 -106s-47 -106 -106 -106s-106 47 -106 106zM250 676c0 -30 26 -56 56 -56
s56 26 56 56s-26 56 -56 56s-56 -26 -56 -56z" />
    <glyph glyph-name="Uhungarumlaut" unicode="&#x170;" horiz-adv-x="724" 
d="M654 700v-434c0 -100 -28 -274 -290 -274c-89 0 -294 15 -294 274v434h142v-434c0 -50 9 -164 150 -164s150 114 150 164v434h142zM200 740l82 140h150l-132 -140h-100zM419 740l82 140h150l-132 -140h-100z" />
    <glyph glyph-name="uhungarumlaut" unicode="&#x171;" horiz-adv-x="612" 
d="M411 518h136v-518h-131v81h-3c-50 -76 -124 -89 -164 -89c-62 0 -184 13 -184 191v335h136v-313c0 -34 4 -102 88 -102c79 0 122 71 122 141v274zM361 750l-148 -160h-80l94 160h134zM571 750l-148 -160h-80l94 160h134z" />
    <glyph glyph-name="Uogonek" unicode="&#x172;" horiz-adv-x="724" 
d="M70 700h142v-434c0 -50 9 -164 150 -164s150 114 150 164v434h142v-434c0 -196 -105 -230 -187 -265c-64 -27 -127 -77 -127 -160c0 -19 8 -51 54 -51c22 0 60 9 87 23l17 -50c-39 -23 -77 -36 -132 -36c-27 0 -140 0 -140 99c0 72 46 134 119 166
c-111 -2 -275 46 -275 274v434z" />
    <glyph glyph-name="uogonek" unicode="&#x173;" horiz-adv-x="612" 
d="M411 518h136v-518c-107 -60 -107 -128 -107 -155c0 -34 24 -55 56 -55c25 0 60 9 86 22l16 -46c-37 -22 -76 -35 -130 -35c-129 0 -138 77 -138 97c0 60 36 136 136 172h-50v81h-3c-50 -76 -124 -89 -164 -89c-62 0 -184 13 -184 191v335h136v-313c0 -34 4 -102 88 -102
c79 0 122 71 122 141v274z" />
    <glyph glyph-name="Ydieresis" unicode="&#x178;" horiz-adv-x="642" 
d="M-5 700h164l144 -246l22 -48h3l24 48l145 246h150l-252 -416v-284h-142v286zM156 867h115v-115h-115v115zM385 867h115v-115h-115v115z" />
    <glyph glyph-name="Zacute" unicode="&#x179;" horiz-adv-x="591" 
d="M530 578l-323 -454h334v-124h-491v119l326 459l-81 -2h-236v124h471v-122zM191 740l82 140h160l-132 -140h-110z" />
    <glyph glyph-name="zacute" unicode="&#x17a;" horiz-adv-x="537" 
d="M63 518h414v-100l-221 -265l-46 -50v-3h277v-100h-437v103l230 264l45 48v3h-262v100zM402 750l-145 -160h-83l88 160h140z" />
    <glyph glyph-name="Zdotaccent" unicode="&#x17b;" horiz-adv-x="591" 
d="M530 578l-323 -454h334v-124h-491v119l326 459l-81 -2h-236v124h471v-122zM224 876h142v-126h-142v126z" />
    <glyph glyph-name="zdotaccent" unicode="&#x17c;" horiz-adv-x="537" 
d="M63 518h414v-100l-221 -265l-46 -50v-3h277v-100h-437v103l230 264l45 48v3h-262v100zM198 736h140v-140h-140v140z" />
    <glyph glyph-name="Zcaron" unicode="&#x17d;" horiz-adv-x="591" 
d="M530 578l-323 -454h334v-124h-491v119l326 459l-81 -2h-236v124h471v-122zM295 816l55 64h114l-113 -140h-112l-113 140h114z" />
    <glyph glyph-name="zcaron" unicode="&#x17e;" horiz-adv-x="537" 
d="M63 518h414v-100l-221 -265l-46 -50v-3h277v-100h-437v103l230 264l45 48v3h-262v100zM268 657l66 93h100l-116 -160h-100l-116 160h100z" />
    <glyph glyph-name="uni018F" unicode="&#x18f;" horiz-adv-x="762" 
d="M45 350v68h515c-16 112 -98 176 -227 176c-57 0 -122 -6 -200 -37l-8 125c74 18 146 26 205 26c234 0 387 -127 387 -358c0 -254 -170 -358 -343 -358c-178 0 -329 101 -329 358zM374 92c49 0 176 18 191 216h-382c15 -198 141 -216 191 -216z" />
    <glyph glyph-name="florin" unicode="&#x192;" 
d="M155 518h100l7 37c10 54 15 100 55 144c29 32 75 59 149 59c30 0 65 -5 95 -12l-21 -95c-16 4 -34 7 -51 7c-35 0 -55 -13 -66 -27c-16 -20 -20 -54 -26 -83l-6 -30h122l-17 -100h-122l-81 -455c-10 -54 -16 -101 -55 -144c-46 -51 -107 -59 -153 -59c-28 0 -60 4 -90 12
l21 95c4 -1 27 -7 50 -7c39 0 58 17 66 27c7 9 17 28 27 83l79 448h-100z" />
    <glyph glyph-name="uni01CF" unicode="&#x1cf;" horiz-adv-x="282" 
d="M70 0v700h142v-700h-142zM141 816l55 64h114l-113 -140h-112l-113 140h114z" />
    <glyph glyph-name="uni01D0" unicode="&#x1d0;" horiz-adv-x="256" 
d="M60 518h136v-518h-136v518zM128 657l66 93h100l-116 -160h-100l-116 160h100z" />
    <glyph glyph-name="uni01DD" unicode="&#x1dd;" horiz-adv-x="565" 
d="M35 311h353c-4 58 -53 117 -154 117c-60 0 -113 -14 -162 -36v102c53 20 117 32 179 32c155 0 279 -84 279 -267c0 -167 -117 -267 -256 -267c-235 0 -239 231 -239 277v42zM388 218h-213c0 -92 44 -132 107 -132c71 0 106 61 106 132z" />
    <glyph glyph-name="Gcaron" unicode="&#x1e6;" horiz-adv-x="729" 
d="M637 678l-8 -125c-72 33 -143 41 -200 41c-142 0 -234 -92 -234 -244c0 -149 90 -240 228 -240c35 0 62 2 94 14v167h-143v110h285v-371c-33 -9 -138 -38 -245 -38c-221 0 -369 130 -369 358c0 231 153 358 387 358c73 0 133 -6 205 -30zM429 816l55 64h114l-113 -140
h-112l-113 140h114z" />
    <glyph glyph-name="gcaron" unicode="&#x1e7;" horiz-adv-x="612" 
d="M90 -186l11 114c45 -23 104 -43 160 -43c97 0 150 53 150 139v68h-3c-11 -25 -49 -94 -158 -94c-158 0 -215 139 -215 259c0 163 89 269 213 269c21 0 123 2 168 -95h3v87h128v-477c0 -60 -3 -263 -264 -263c-49 0 -117 6 -193 36zM287 411c-76 0 -110 -73 -110 -151
c0 -130 74 -154 120 -154c58 0 114 53 114 164c0 87 -48 141 -124 141zM266 657l66 93h100l-116 -160h-100l-116 160h100z" />
    <glyph glyph-name="Scommaaccent" unicode="&#x218;" horiz-adv-x="552" 
d="M53 27l15 122c56 -26 126 -42 173 -42c76 0 112 45 112 84c0 73 -77 93 -141 125c-105 52 -162 96 -162 195c0 70 38 197 220 197c66 0 136 -7 200 -30l-15 -112c-41 17 -101 34 -153 34c-87 0 -105 -45 -105 -74c0 -56 49 -81 93 -100c117 -50 212 -90 212 -230
c0 -111 -86 -204 -267 -204c-68 0 -129 15 -182 35zM180 -50h140l-56 -190h-120z" />
    <glyph glyph-name="scommaaccent" unicode="&#x219;" horiz-adv-x="454" 
d="M404 504l-12 -98c-19 7 -63 25 -118 25c-86 0 -91 -41 -91 -54c0 -45 50 -54 92 -68c59 -19 139 -55 139 -157c0 -82 -63 -160 -202 -160c-52 0 -120 12 -172 30l6 106c7 -3 76 -35 146 -35s86 35 86 56c0 43 -41 55 -90 73c-82 30 -139 63 -139 151c0 59 36 153 189 153
c30 0 92 1 166 -22zM169 -50h140l-66 -190h-110z" />
    <glyph glyph-name="uni021A" unicode="&#x21a;" horiz-adv-x="576" 
d="M15 700h546v-124h-202v-576h-142v576h-202v124zM218 -50h140l-56 -190h-120z" />
    <glyph glyph-name="uni021B" unicode="&#x21b;" horiz-adv-x="396" 
d="M112 418h-102v100h102v103l136 43v-146h120v-100h-120v-235c0 -45 0 -91 67 -91c18 0 37 4 53 9v-96c-8 -2 -57 -13 -105 -13c-150 0 -151 126 -151 160v266zM140 -50h140l-66 -190h-110z" />
    <glyph glyph-name="uni0259" unicode="&#x259;" horiz-adv-x="565" 
d="M35 311h353c-4 58 -53 117 -154 117c-60 0 -113 -14 -162 -36v102c53 20 117 32 179 32c155 0 279 -84 279 -267c0 -167 -117 -267 -256 -267c-235 0 -239 231 -239 277v42zM388 218h-213c0 -92 44 -132 107 -132c71 0 106 61 106 132z" />
    <glyph glyph-name="afii57929" unicode="&#x2bc;" horiz-adv-x="276" 
d="M86 750h140l-66 -190h-110z" />
    <glyph glyph-name="circumflex" unicode="&#x2c6;" horiz-adv-x="452" 
d="M226 683l-66 -93h-100l116 160h100l116 -160h-100z" />
    <glyph glyph-name="caron" unicode="&#x2c7;" horiz-adv-x="452" 
d="M226 657l66 93h100l-116 -160h-100l-116 160h100z" />
    <glyph glyph-name="uni02C9" unicode="&#x2c9;" horiz-adv-x="381" 
d="M60 685h261v-74h-261v74z" />
    <glyph glyph-name="breve" unicode="&#x2d8;" horiz-adv-x="426" 
d="M312 740h54c-1 -137 -124 -140 -153 -140s-152 3 -153 140h54c1 -18 9 -60 99 -60s98 42 99 60z" />
    <glyph glyph-name="dotaccent" unicode="&#x2d9;" horiz-adv-x="380" 
d="M120 736h140v-140h-140v140z" />
    <glyph glyph-name="ring" unicode="&#x2da;" horiz-adv-x="332" 
d="M60 676c0 59 47 106 106 106s106 -47 106 -106s-47 -106 -106 -106s-106 47 -106 106zM110 676c0 -30 26 -56 56 -56s56 26 56 56s-26 56 -56 56s-56 -26 -56 -56z" />
    <glyph glyph-name="ogonek" unicode="&#x2db;" horiz-adv-x="268" 
d="M136 0h81c-102 -58 -107 -120 -107 -145c0 -18 4 -65 56 -65c25 0 60 9 86 22l16 -46c-37 -22 -76 -35 -130 -35c-129 0 -138 77 -138 97c0 60 36 136 136 172z" />
    <glyph glyph-name="tilde" unicode="&#x2dc;" horiz-adv-x="420" 
d="M85 596h-55c4 34 24 128 117 128c19 0 42 -5 72 -16c26 -10 49 -19 71 -19c39 0 44 38 45 48h55c-12 -99 -72 -129 -116 -129c-21 0 -51 9 -73 17c-21 7 -46 19 -69 19c-39 0 -46 -34 -47 -48z" />
    <glyph glyph-name="hungarumlaut" unicode="&#x2dd;" horiz-adv-x="538" 
d="M288 750l-148 -160h-80l94 160h134zM498 750l-148 -160h-80l94 160h134z" />
    <glyph glyph-name="acutecomb" unicode="&#x301;" horiz-adv-x="2" 
d="M-55 733l-145 -160h-83l88 160h140z" />
    <glyph glyph-name="uni037E" unicode="&#x37e;" horiz-adv-x="287" 
d="M228 518v-142h-140v142h140zM97 135h140l-69 -250h-118z" />
    <glyph glyph-name="uni0394" unicode="&#x394;" horiz-adv-x="666" 
d="M648 0h-630l257 700h116zM333 534l-139 -419h278z" />
    <glyph glyph-name="uni03A9" unicode="&#x3a9;" horiz-adv-x="776" 
d="M388 608c-182 0 -193 -167 -193 -208c0 -144 66 -196 150 -206v-194h-281l-17 145l104 4l6 -49h80v47c-171 33 -192 196 -192 261c0 151 103 300 343 300s343 -149 343 -300c0 -65 -21 -228 -192 -261v-47h80l6 49l104 -4l-17 -145h-281v194c84 10 150 62 150 206
c0 41 -11 208 -193 208z" />
    <glyph glyph-name="uni03BC" unicode="&#x3bc;" horiz-adv-x="577" 
d="M60 518h136v-313c0 -85 48 -102 88 -102c63 0 122 50 122 141v274h136v-518h-131v81h-3c-20 -41 -63 -89 -134 -89c-50 0 -77 22 -91 64h-4l17 -270h-136v732z" />
    <glyph glyph-name="pi" unicode="&#x3c0;" horiz-adv-x="756" 
d="M502 418h-186v-418h-136v418h-14c-16 0 -51 -5 -70 -38l-86 62c36 57 96 76 156 76h545v-100h-73v-418h-136v418z" />
    <glyph glyph-name="afii10023" unicode="&#x401;" horiz-adv-x="538" 
d="M70 700h418v-124h-276v-158h251v-115h-251v-179h276v-124h-418v700zM111 867h115v-115h-115v115zM340 867h115v-115h-115v115z" />
    <glyph glyph-name="afii10051" unicode="&#x402;" horiz-adv-x="785" 
d="M20 700h552v-124h-233v-176c54 33 111 49 181 49c213 0 220 -170 220 -220c0 -187 -84 -237 -220 -237c-34 0 -62 3 -90 8l10 107c24 -8 48 -10 69 -10c34 0 85 17 85 127c0 104 -68 115 -111 115c-69 0 -131 -37 -144 -45v-294h-142v576h-177v124z" />
    <glyph glyph-name="afii10052" unicode="&#x403;" horiz-adv-x="510" 
d="M70 700h430v-124h-288v-576h-142v700zM220 740l82 140h160l-132 -140h-110z" />
    <glyph glyph-name="afii10053" unicode="&#x404;" horiz-adv-x="635" 
d="M581 141l9 -119c-62 -21 -125 -30 -181 -30c-174 0 -364 99 -364 354c0 230 165 362 390 362c56 0 102 -6 155 -24l-6 -120c-41 16 -86 26 -139 26c-141 0 -219 -78 -242 -172h284v-115h-289c10 -98 83 -193 237 -193c55 0 102 11 146 31z" />
    <glyph glyph-name="afii10054" unicode="&#x405;" horiz-adv-x="552" 
d="M53 27l15 122c56 -26 126 -42 173 -42c76 0 112 45 112 84c0 73 -77 93 -141 125c-105 52 -162 96 -162 195c0 70 38 197 220 197c66 0 136 -7 200 -30l-15 -112c-41 17 -101 34 -153 34c-87 0 -105 -45 -105 -74c0 -56 49 -81 93 -100c117 -50 212 -90 212 -230
c0 -111 -86 -204 -267 -204c-68 0 -129 15 -182 35z" />
    <glyph glyph-name="afii10055" unicode="&#x406;" horiz-adv-x="282" 
d="M70 0v700h142v-700h-142z" />
    <glyph glyph-name="afii10056" unicode="&#x407;" horiz-adv-x="282" 
d="M70 0v700h142v-700h-142zM21 867h100v-115h-100v115zM161 867h100v-115h-100v115z" />
    <glyph glyph-name="afii10057" unicode="&#x408;" horiz-adv-x="379" 
d="M167 700h142v-497c0 -94 -17 -211 -181 -211c-33 0 -72 5 -108 13v114c22 -5 50 -9 68 -9c63 0 79 40 79 103v487z" />
    <glyph glyph-name="afii10058" unicode="&#x409;" horiz-adv-x="1015" 
d="M149 700h465v-262h98c241 0 258 -168 258 -212c0 -108 -61 -226 -262 -226h-236v585h-185v-149c0 -236 3 -444 -209 -444c-23 0 -49 4 -68 8l6 111c9 -2 27 -5 38 -5c110 0 95 200 95 366v228zM614 328v-218h94c67 0 117 41 117 109c0 45 -22 109 -128 109h-83z" />
    <glyph glyph-name="afii10059" unicode="&#x40a;" horiz-adv-x="1039" 
d="M638 700v-272h98c195 0 258 -107 258 -202c0 -108 -61 -226 -262 -226h-236v313h-284v-313h-142v700h142v-272h284v272h142zM638 318v-208h94c80 0 117 54 117 109c0 41 -22 99 -128 99h-83z" />
    <glyph glyph-name="afii10060" unicode="&#x40b;" horiz-adv-x="792" 
d="M20 700h550v-124h-232v-174c64 33 129 52 197 52c129 0 207 -65 207 -176v-278h-142v238c0 17 0 106 -111 106c-41 0 -97 -15 -151 -47v-297h-142v576h-176v124z" />
    <glyph glyph-name="afii10061" unicode="&#x40c;" horiz-adv-x="662" 
d="M70 700h142v-299h3l253 299h169l-292 -317l310 -383h-180l-260 348h-3v-348h-142v700zM240 740l82 140h160l-132 -140h-110z" />
    <glyph glyph-name="afii10062" unicode="&#x40e;" horiz-adv-x="644" 
d="M10 700h159l139 -298l30 -74h3l30 75l133 297h140l-280 -596c-39 -83 -92 -112 -166 -112c-33 0 -69 6 -106 22l16 106c20 -10 37 -15 60 -15c27 0 59 1 79 47l20 47zM439 905l73 -39c-41 -101 -126 -117 -185 -117s-144 16 -185 117l73 39c25 -62 88 -65 112 -65
s87 3 112 65z" />
    <glyph glyph-name="afii10145" unicode="&#x40f;" horiz-adv-x="701" 
d="M70 0v700h142v-585h277v585h142v-700h-210v-135h-141v135h-210z" />
    <glyph glyph-name="afii10017" unicode="&#x410;" horiz-adv-x="749" 
d="M294 700h162l278 -700h-160l-59 158h-289l-59 -158h-152zM271 273h202l-103 286h-2z" />
    <glyph glyph-name="afii10018" unicode="&#x411;" horiz-adv-x="622" 
d="M70 700h448v-124h-306v-146h114c206 0 249 -136 249 -226c0 -74 -49 -204 -249 -204h-256v700zM212 320v-210h88c79 0 125 34 125 105s-46 105 -125 105h-88z" />
    <glyph glyph-name="afii10019" unicode="&#x412;" horiz-adv-x="613" 
d="M70 700h230c136 0 233 -55 233 -173c0 -105 -64 -146 -114 -161v-2c90 -14 147 -79 147 -167c0 -87 -51 -197 -275 -197h-221v700zM212 590v-174h69c92 0 109 56 109 87c0 20 -5 87 -115 87h-63zM212 306v-196h79c89 0 125 48 125 98s-27 98 -125 98h-79z" />
    <glyph glyph-name="afii10020" unicode="&#x413;" horiz-adv-x="510" 
d="M70 700h430v-124h-288v-576h-142v700z" />
    <glyph glyph-name="afii10021" unicode="&#x414;" horiz-adv-x="741" 
d="M20 124h80c71 120 85 224 85 352v224h456v-576h80v-271h-140v147h-421v-147h-140v271zM499 576h-179v-100c0 -138 -8 -239 -72 -352h251v452z" />
    <glyph glyph-name="afii10022" unicode="&#x415;" horiz-adv-x="538" 
d="M70 700h418v-124h-276v-158h251v-115h-251v-179h276v-124h-418v700z" />
    <glyph glyph-name="afii10024" unicode="&#x416;" horiz-adv-x="978" 
d="M418 700h142v-299h3l235 299h169l-272 -317l276 -383h-180l-228 348h-3v-348h-142v348h-3l-228 -348h-180l276 383l-272 317h169l235 -299h3v299z" />
    <glyph glyph-name="afii10025" unicode="&#x417;" horiz-adv-x="569" 
d="M153 307v115h85c72 0 112 35 112 90c0 38 -26 81 -113 81c-56 0 -104 -11 -161 -38l-14 118c70 23 124 35 205 35c161 0 238 -74 238 -176c0 -72 -38 -137 -116 -158v-3c74 -13 140 -65 140 -168c0 -199 -215 -211 -286 -211c-82 0 -134 19 -205 43l11 119
c95 -42 159 -47 187 -47c108 0 138 56 138 93c0 106 -109 107 -136 107h-85z" />
    <glyph glyph-name="afii10026" unicode="&#x418;" horiz-adv-x="747" 
d="M70 700h142v-360l-3 -170h3l50 102l245 428h170v-700h-142v361l3 169h-3l-48 -106l-247 -424h-170v700z" />
    <glyph glyph-name="afii10027" unicode="&#x419;" horiz-adv-x="747" 
d="M70 700h142v-360l-3 -170h3l50 102l245 428h170v-700h-142v361l3 169h-3l-48 -106l-247 -424h-170v700zM477 905l73 -39c-41 -101 -126 -117 -185 -117s-144 16 -185 117l73 39c25 -62 88 -65 112 -65s87 3 112 65z" />
    <glyph glyph-name="afii10028" unicode="&#x41a;" horiz-adv-x="662" 
d="M70 700h142v-299h3l253 299h169l-292 -317l310 -383h-180l-260 348h-3v-348h-142v700z" />
    <glyph glyph-name="afii10029" unicode="&#x41b;" horiz-adv-x="679" 
d="M149 700h460v-700h-142v576h-185v-140c0 -235 4 -444 -204 -444c-23 0 -49 4 -68 8l6 111c9 -2 27 -5 38 -5c110 0 95 200 95 366v228z" />
    <glyph glyph-name="afii10030" unicode="&#x41c;" horiz-adv-x="965" 
d="M550 0h-135l-170 500l-32 100h-3l2 -108v-492h-142v700h240l140 -407l31 -124h3l31 124l140 407h240v-700h-142v492l2 108h-3l-32 -100z" />
    <glyph glyph-name="afii10031" unicode="&#x41d;" horiz-adv-x="708" 
d="M70 700h142v-282h284v282h142v-700h-142v303h-284v-303h-142v700z" />
    <glyph glyph-name="afii10032" unicode="&#x41e;" horiz-adv-x="776" 
d="M388 708c173 0 343 -104 343 -358s-170 -358 -343 -358s-343 104 -343 358s170 358 343 358zM388 608c-53 0 -193 -21 -193 -258s140 -258 193 -258s193 21 193 258s-140 258 -193 258z" />
    <glyph glyph-name="afii10033" unicode="&#x41f;" horiz-adv-x="701" 
d="M70 700h561v-700h-142v585h-277v-585h-142v700z" />
    <glyph glyph-name="afii10034" unicode="&#x420;" horiz-adv-x="586" 
d="M70 700h207c254 0 269 -175 269 -219c0 -92 -64 -218 -243 -218h-91v-263h-142v700zM212 373h65c86 0 119 59 119 112c0 58 -37 105 -119 105h-65v-217z" />
    <glyph glyph-name="afii10035" unicode="&#x421;" horiz-adv-x="630" 
d="M581 141l9 -119c-62 -21 -125 -30 -181 -30c-174 0 -364 99 -364 354c0 241 170 362 390 362c55 0 102 -7 155 -24l-6 -120c-41 16 -86 26 -139 26c-157 0 -250 -99 -250 -242c0 -169 114 -238 240 -238c62 0 111 15 146 31z" />
    <glyph glyph-name="afii10036" unicode="&#x422;" horiz-adv-x="576" 
d="M15 700h546v-124h-202v-576h-142v576h-202v124z" />
    <glyph glyph-name="afii10037" unicode="&#x423;" horiz-adv-x="644" 
d="M10 700h159l139 -298l30 -74h3l30 75l133 297h140l-280 -596c-39 -83 -92 -112 -166 -112c-33 0 -69 6 -106 22l16 106c20 -10 37 -15 60 -15c27 0 59 1 79 47l20 47z" />
    <glyph glyph-name="afii10038" unicode="&#x424;" horiz-adv-x="958" 
d="M550 740v-90h42c160 0 311 -104 311 -300s-151 -300 -311 -300h-42v-90h-142v90h-42c-160 0 -311 104 -311 300s151 300 311 300h42v90h142zM580 540h-30v-380h30c95 0 173 59 173 190s-78 190 -173 190zM378 160h30v380h-30c-95 0 -173 -59 -173 -190s78 -190 173 -190z
" />
    <glyph glyph-name="afii10039" unicode="&#x425;" horiz-adv-x="699" 
d="M41 700h168l112 -195l32 -59h3l32 59l115 195h155l-213 -334l234 -366h-168l-134 222l-30 54h-3l-30 -54l-139 -222h-155l234 366z" />
    <glyph glyph-name="afii10040" unicode="&#x426;" horiz-adv-x="739" 
d="M70 700h142v-576h284v576h142v-576h81v-268h-129v144h-520v700z" />
    <glyph glyph-name="afii10041" unicode="&#x427;" horiz-adv-x="671" 
d="M50 700h142v-239c0 -47 0 -111 136 -111c47 0 88 7 131 17v333h142v-700h-142v249c-38 -8 -75 -14 -131 -14c-240 0 -278 104 -278 207v258z" />
    <glyph glyph-name="afii10042" unicode="&#x428;" horiz-adv-x="1038" 
d="M70 700h142v-576h236v576h142v-576h236v576h142v-700h-898v700z" />
    <glyph glyph-name="afii10043" unicode="&#x429;" horiz-adv-x="1067" 
d="M70 700h142v-576h236v576h142v-576h236v576h142v-576h79v-274h-133v150h-844v700z" />
    <glyph glyph-name="afii10044" unicode="&#x42a;" horiz-adv-x="704" 
d="M303 700v-262h98c241 0 258 -168 258 -212c0 -108 -61 -226 -262 -226h-236v576h-151v124h293zM303 328v-218h94c67 0 117 41 117 109c0 45 -22 109 -128 109h-83z" />
    <glyph glyph-name="afii10045" unicode="&#x42b;" horiz-adv-x="880" 
d="M212 700v-262h98c241 0 258 -168 258 -212c0 -108 -61 -226 -262 -226h-236v700h142zM212 328v-218h94c67 0 117 41 117 109c0 45 -22 109 -128 109h-83zM668 700h142v-700h-142v700z" />
    <glyph glyph-name="afii10046" unicode="&#x42c;" horiz-adv-x="613" 
d="M212 700v-262h98c241 0 258 -168 258 -212c0 -108 -61 -226 -262 -226h-236v700h142zM212 328v-218h94c67 0 117 41 117 109c0 45 -22 109 -128 109h-83z" />
    <glyph glyph-name="afii10047" unicode="&#x42d;" horiz-adv-x="640" 
d="M151 303v115h294c-11 68 -57 175 -233 175c-50 0 -102 -9 -151 -27l-11 112c54 18 118 30 193 30c210 0 352 -130 352 -347c0 -223 -135 -369 -373 -369c-61 0 -122 10 -187 33l17 118c74 -32 138 -36 175 -36c144 0 216 88 218 196h-294z" />
    <glyph glyph-name="afii10048" unicode="&#x42e;" horiz-adv-x="1045" 
d="M212 414h104c16 180 162 294 341 294c173 0 343 -104 343 -358s-170 -358 -343 -358c-201 0 -331 135 -341 307h-104v-299h-142v700h142v-286zM657 608c-53 0 -193 -21 -193 -258s140 -258 193 -258s193 21 193 258s-140 258 -193 258z" />
    <glyph glyph-name="afii10049" unicode="&#x42f;" horiz-adv-x="638" 
d="M568 700v-700h-142v260h-85l-136 -260h-170l167 288c-55 17 -138 66 -138 196c0 219 228 216 277 216h227zM426 370v220h-81c-116 0 -131 -72 -131 -110c0 -109 114 -110 132 -110h80z" />
    <glyph glyph-name="afii10065" unicode="&#x430;" horiz-adv-x="581" 
d="M97 385v107c62 25 120 34 190 34c210 0 229 -121 229 -199v-327h-133v76h-2c-11 -22 -49 -84 -162 -84c-131 0 -184 77 -184 158c0 71 37 171 257 171c25 0 51 -1 76 -1h12v22c0 57 -55 89 -117 89c-45 0 -97 -7 -166 -46zM380 235h-23c-75 0 -184 -1 -184 -84
c0 -37 23 -67 83 -67c56 0 124 26 124 138v13z" />
    <glyph glyph-name="afii10066" unicode="&#x431;" horiz-adv-x="619" 
d="M542 779v-121c-83 -18 -133 -15 -182 -18c-177 -11 -216 -94 -216 -201v-45h4c18 49 66 124 194 124c145 0 242 -96 242 -259c0 -187 -121 -267 -264 -267c-240 0 -285 192 -285 395c0 157 28 334 275 366c71 9 139 4 232 26zM194 255c0 -82 34 -165 124 -165
s124 83 124 165s-34 165 -124 165s-124 -83 -124 -165z" />
    <glyph glyph-name="afii10067" unicode="&#x432;" horiz-adv-x="565" 
d="M65 518h254c149 0 178 -72 178 -127c0 -65 -42 -105 -96 -116v-3c59 -4 119 -41 119 -127c0 -93 -76 -145 -193 -145h-262v518zM201 428v-112h84c27 0 77 1 77 56c0 53 -51 56 -77 56h-84zM201 226v-136h87c25 0 90 -1 90 68c0 64 -59 68 -91 68h-86z" />
    <glyph glyph-name="afii10068" unicode="&#x433;" horiz-adv-x="436" 
d="M65 518h361v-100h-225v-418h-136v518z" />
    <glyph glyph-name="afii10069" unicode="&#x434;" horiz-adv-x="640" 
d="M137 518h406v-418h85v-235h-125v135h-366v-135h-125v235h58c61 71 67 150 67 250v168zM202 100h205v318h-150v-77c0 -81 1 -164 -55 -241z" />
    <glyph glyph-name="afii10070" unicode="&#x435;" horiz-adv-x="565" 
d="M530 218h-353c4 -66 52 -128 154 -128c60 0 113 14 162 36v-102c-53 -20 -117 -32 -179 -32c-155 0 -279 84 -279 267c0 167 117 267 256 267c235 0 239 -231 239 -277v-31zM177 311h213c2 87 -57 121 -107 121c-60 0 -105 -53 -106 -121z" />
    <glyph glyph-name="afii10072" unicode="&#x436;" horiz-adv-x="810" 
d="M337 518h136v-231h5l155 231h155l-183 -237l200 -281h-172l-155 251h-5v-251h-136v251h-5l-155 -251h-172l200 281l-183 237h155l155 -231h5v231z" />
    <glyph glyph-name="afii10073" unicode="&#x437;" horiz-adv-x="494" 
d="M144 223v95h70c64 0 76 32 76 53c0 30 -25 57 -88 57c-26 0 -92 -6 -149 -34l-2 99c59 21 106 33 174 33c161 0 203 -74 203 -136c0 -85 -64 -110 -89 -116v-2c44 -7 115 -34 115 -120c0 -91 -85 -160 -234 -160c-37 0 -113 6 -195 42l12 98c73 -34 143 -42 178 -42
c56 0 97 25 97 70c0 36 -26 63 -97 63h-71z" />
    <glyph glyph-name="afii10074" unicode="&#x438;" horiz-adv-x="639" 
d="M65 518h136v-272l-4 -93h2l223 365h152v-518h-136v268l4 97h-3l-229 -365h-145v518z" />
    <glyph glyph-name="afii10075" unicode="&#x439;" horiz-adv-x="639" 
d="M65 518h136v-272l-4 -93h2l223 365h152v-518h-136v268l4 97h-3l-229 -365h-145v518zM440 753l50 -46c-25 -46 -74 -98 -165 -98s-140 52 -165 98l50 46c36 -42 82 -47 115 -47s79 5 115 47z" />
    <glyph glyph-name="afii10076" unicode="&#x43a;" horiz-adv-x="556" 
d="M65 518h136v-235h5l166 235h152l-192 -245l219 -273h-171l-174 248h-5v-248h-136v518z" />
    <glyph glyph-name="afii10077" unicode="&#x43b;" horiz-adv-x="585" 
d="M103 518h417v-518h-136v418h-160v-115c0 -257 -24 -311 -161 -311c-22 0 -38 1 -58 8l6 104c8 -3 16 -4 24 -4c78 0 68 92 68 203v215z" />
    <glyph glyph-name="afii10078" unicode="&#x43c;" horiz-adv-x="791" 
d="M460 0h-129l-102 304l-26 84h-5l3 -93v-295h-136v518h190l107 -296l29 -92h9l29 92l107 296h190v-518h-136v295l3 93h-5l-26 -84z" />
    <glyph glyph-name="afii10079" unicode="&#x43d;" horiz-adv-x="620" 
d="M65 518h136v-196h218v196h136v-518h-136v222h-218v-222h-136v518z" />
    <glyph glyph-name="afii10080" unicode="&#x43e;" horiz-adv-x="604" 
d="M35 259c0 173 113 267 267 267s267 -94 267 -267s-113 -267 -267 -267s-267 94 -267 267zM177 259c0 -120 65 -169 125 -169s125 49 125 169s-65 169 -125 169s-125 -49 -125 -169z" />
    <glyph glyph-name="afii10081" unicode="&#x43f;" horiz-adv-x="612" 
d="M65 518h482v-518h-136v418h-210v-418h-136v518z" />
    <glyph glyph-name="afii10082" unicode="&#x440;" horiz-adv-x="608" 
d="M201 -214h-136v732h119v-90h2c53 94 147 98 169 98c118 0 218 -75 218 -267c0 -191 -111 -267 -224 -267c-75 0 -121 35 -149 78h-2l3 -85v-199zM201 259c0 -110 60 -159 115 -159s115 49 115 159s-60 159 -115 159s-115 -49 -115 -159z" />
    <glyph glyph-name="afii10083" unicode="&#x441;" horiz-adv-x="463" 
d="M430 512l-8 -98c-25 10 -52 14 -84 14c-91 0 -161 -67 -161 -171c0 -94 57 -167 152 -167c31 0 69 6 104 21l5 -99c-25 -8 -74 -20 -133 -20c-185 0 -270 135 -270 272c0 138 96 262 280 262c34 0 76 -4 115 -14z" />
    <glyph glyph-name="afii10084" unicode="&#x442;" horiz-adv-x="480" 
d="M10 518h460v-100h-162v-418h-136v418h-162v100z" />
    <glyph glyph-name="afii10085" unicode="&#x443;" horiz-adv-x="551" 
d="M3 518h150l97 -286l29 -99h5l32 103l94 282h138l-219 -581c-30 -78 -67 -159 -212 -159c-25 0 -55 7 -79 15l10 101c16 -6 33 -11 53 -11c46 0 76 13 94 58l12 30z" />
    <glyph glyph-name="afii10086" unicode="&#x444;" horiz-adv-x="828" 
d="M346 700h136v-197c34 18 68 23 97 23c81 0 214 -53 214 -267c0 -186 -103 -267 -214 -267c-41 0 -72 9 -97 22v-228h-136v228c-25 -13 -56 -22 -97 -22c-111 0 -214 81 -214 267c0 214 133 267 214 267c29 0 63 -5 97 -23v197zM482 405v-292c21 -13 44 -17 65 -17
c51 0 104 45 104 163s-53 163 -104 163c-21 0 -44 -4 -65 -17zM346 113v292c-21 13 -44 17 -65 17c-51 0 -104 -45 -104 -163s53 -163 104 -163c21 0 44 4 65 17z" />
    <glyph glyph-name="afii10087" unicode="&#x445;" horiz-adv-x="567" 
d="M25 518h162l72 -121l30 -59h3l31 61l68 119h151l-159 -251l174 -267h-162l-86 138l-31 58h-3l-32 -60l-82 -136h-151l174 267z" />
    <glyph glyph-name="afii10088" unicode="&#x446;" horiz-adv-x="654" 
d="M65 518h136v-418h217v418h136v-418h85v-235h-125v135h-449v518z" />
    <glyph glyph-name="afii10089" unicode="&#x447;" horiz-adv-x="570" 
d="M45 518h136v-165c0 -37 10 -75 83 -75c31 0 70 4 105 13v227h136v-518h-136v191c-59 -11 -107 -13 -129 -13c-173 0 -195 82 -195 158v182z" />
    <glyph glyph-name="afii10090" unicode="&#x448;" horiz-adv-x="872" 
d="M65 518h136v-418h167v418h136v-418h167v418h136v-518h-742v518z" />
    <glyph glyph-name="afii10091" unicode="&#x449;" horiz-adv-x="909" 
d="M65 518h136v-418h167v418h136v-418h167v418h136v-418h87v-235h-125v135h-704v518z" />
    <glyph glyph-name="afii10092" unicode="&#x44a;" horiz-adv-x="617" 
d="M5 518h269v-184h105c200 0 218 -119 218 -167c0 -91 -65 -167 -208 -167h-251v418h-133v100zM274 244v-154h85c59 0 96 30 96 77c0 38 -24 77 -96 77h-85z" />
    <glyph glyph-name="afii10093" unicode="&#x44b;" horiz-adv-x="805" 
d="M604 518h136v-518h-136v518zM65 518h136v-184h105c190 0 218 -108 218 -167c0 -91 -65 -167 -208 -167h-251v518zM201 244v-154h85c64 0 96 37 96 77c0 30 -20 77 -96 77h-85z" />
    <glyph glyph-name="afii10094" unicode="&#x44c;" horiz-adv-x="539" 
d="M60 518h136v-184h105c200 0 218 -119 218 -167c0 -91 -65 -167 -208 -167h-251v518zM196 244v-154h85c64 0 96 37 96 77c0 30 -20 77 -96 77h-85z" />
    <glyph glyph-name="afii10095" unicode="&#x44d;" horiz-adv-x="488" 
d="M111 222v94h200c-20 96 -116 110 -171 110c-29 0 -61 -7 -95 -22l-8 98c38 14 79 24 116 24c136 0 300 -63 300 -262c0 -133 -81 -272 -283 -272c-59 0 -106 13 -145 29l10 100c32 -15 74 -29 113 -29c76 0 155 33 163 130h-200z" />
    <glyph glyph-name="afii10096" unicode="&#x44e;" horiz-adv-x="848" 
d="M201 310h80c15 140 131 216 265 216c154 0 267 -96 267 -267s-113 -267 -267 -267c-148 0 -255 91 -265 224h-80v-216h-136v518h136v-208zM420 259c0 -120 65 -169 126 -169c75 0 125 67 125 169s-50 169 -125 169c-61 0 -126 -49 -126 -169z" />
    <glyph glyph-name="afii10097" unicode="&#x44f;" horiz-adv-x="561" 
d="M496 518v-518h-136v195h-61l-102 -195h-162l130 211c-88 22 -119 90 -119 151c0 105 96 156 182 156h268zM360 428h-90c-54 0 -82 -35 -82 -73c0 -44 39 -73 82 -73h90v146z" />
    <glyph glyph-name="afii10071" unicode="&#x451;" horiz-adv-x="565" 
d="M530 218h-353c4 -66 52 -128 154 -128c60 0 113 14 162 36v-102c-53 -20 -117 -32 -179 -32c-155 0 -279 84 -279 267c0 167 117 267 256 267c235 0 239 -231 239 -277v-31zM177 311h213c2 87 -57 121 -107 121c-60 0 -105 -53 -106 -121zM128 726h120v-116h-120v116z
M318 726h120v-116h-120v116z" />
    <glyph glyph-name="afii10099" unicode="&#x452;" horiz-adv-x="666" 
d="M113 748h136v-71h218v-85h-218v-68l-2 -82h3c47 76 118 84 155 84c183 0 201 -166 201 -296c0 -223 -40 -366 -212 -448l-58 105c129 54 130 177 130 337c0 72 -3 193 -103 193c-66 0 -114 -56 -114 -135v-282h-136v592h-83v85h83v71z" />
    <glyph glyph-name="afii10100" unicode="&#x453;" horiz-adv-x="436" 
d="M65 518h361v-100h-225v-418h-136v518zM408 750l-145 -160h-83l88 160h140z" />
    <glyph glyph-name="afii10101" unicode="&#x454;" horiz-adv-x="477" 
d="M350 224h-173c2 -76 59 -134 143 -134c33 0 72 6 111 24l8 -102c-42 -13 -88 -20 -141 -20c-189 0 -263 130 -263 273c0 166 104 261 250 261c51 0 104 -9 149 -22l-9 -101c-29 12 -72 25 -108 25c-78 0 -134 -46 -140 -114h173v-90z" />
    <glyph glyph-name="afii10102" unicode="&#x455;" horiz-adv-x="454" 
d="M404 504l-12 -98c-19 7 -63 25 -118 25c-86 0 -91 -41 -91 -54c0 -45 50 -54 92 -68c59 -19 139 -55 139 -157c0 -82 -63 -160 -202 -160c-52 0 -120 12 -172 30l6 106c7 -3 76 -35 146 -35s86 35 86 56c0 43 -41 55 -90 73c-82 30 -139 63 -139 151c0 59 36 153 189 153
c30 0 92 1 166 -22z" />
    <glyph glyph-name="afii10103" unicode="&#x456;" horiz-adv-x="270" 
d="M67 518h136v-518h-136v518zM205 736v-140h-140v140h140z" />
    <glyph glyph-name="afii10104" unicode="&#x457;" horiz-adv-x="256" 
d="M60 518h136v-518h-136v518zM14 726h100v-116h-100v116zM142 726h100v-116h-100v116z" />
    <glyph glyph-name="afii10105" unicode="&#x458;" horiz-adv-x="260" 
d="M198 518v-559c0 -82 -9 -181 -158 -181c-20 0 -37 1 -60 7v96c11 -3 24 -4 35 -4c43 0 47 34 47 77v564h136zM60 736h140v-140h-140v140z" />
    <glyph glyph-name="afii10106" unicode="&#x459;" horiz-adv-x="861" 
d="M108 518h417v-184h117c149 0 199 -89 199 -167c0 -68 -41 -167 -198 -167h-254v418h-160v-115c0 -232 -36 -311 -166 -311c-22 0 -38 2 -58 8l6 104c8 -3 16 -4 24 -4c73 0 73 73 73 203v215zM525 244v-154h86c85 0 95 52 95 77c0 33 -17 77 -97 77h-84z" />
    <glyph glyph-name="afii10107" unicode="&#x45a;" horiz-adv-x="884" 
d="M412 518h136v-184h117c149 0 199 -89 199 -167c0 -68 -41 -167 -198 -167h-254v234h-216v-234h-136v518h136v-184h216v184zM548 244v-154h86c85 0 95 52 95 77c0 33 -17 77 -97 77h-84z" />
    <glyph glyph-name="afii10108" unicode="&#x45b;" horiz-adv-x="655" 
d="M113 0v592h-83v85h83v73h136v-73h218v-85h-218v-75l-5 -80h3c50 76 124 89 164 89c107 0 184 -59 184 -163v-363h-136v313c0 72 -43 102 -94 102c-56 0 -116 -46 -116 -136v-279h-136z" />
    <glyph glyph-name="afii10109" unicode="&#x45c;" horiz-adv-x="556" 
d="M65 518h136v-235h5l166 235h152l-192 -245l219 -273h-171l-174 248h-5v-248h-136v518zM448 750l-145 -160h-83l88 160h140z" />
    <glyph glyph-name="afii10110" unicode="&#x45e;" horiz-adv-x="551" 
d="M3 518h150l97 -286l29 -99h5l32 103l94 282h138l-219 -581c-30 -78 -67 -159 -212 -159c-25 0 -55 7 -79 15l10 101c16 -6 33 -11 53 -11c46 0 76 13 94 58l12 30zM390 753l50 -46c-25 -46 -74 -98 -165 -98s-140 52 -165 98l50 46c36 -42 82 -47 115 -47s79 5 115 47z
" />
    <glyph glyph-name="afii10193" unicode="&#x45f;" horiz-adv-x="605" 
d="M60 0v518h136v-418h213v418h136v-518h-174v-135h-137v135h-174z" />
    <glyph glyph-name="afii10146" unicode="&#x462;" horiz-adv-x="728" 
d="M15 628h170v97h142v-97h187v-115h-187v-95h98c241 0 258 -158 258 -202c0 -108 -61 -216 -262 -216h-236v513h-170v115zM327 308v-198h94c67 0 117 31 117 99c0 45 -22 99 -128 99h-83z" />
    <glyph glyph-name="afii10194" unicode="&#x463;" horiz-adv-x="638" 
d="M10 518h149v182h136v-182h166v-100h-166v-88h105c200 0 218 -117 218 -165c0 -91 -65 -165 -208 -165h-251v418h-149v100zM295 240v-150h85c64 0 96 35 96 75c0 30 -20 75 -96 75h-85z" />
    <glyph glyph-name="afii10147" unicode="&#x472;" horiz-adv-x="776" 
d="M388 708c173 0 343 -104 343 -358s-170 -358 -343 -358s-343 104 -343 358s170 358 343 358zM200 418h376c-7 59 -43 190 -188 190s-181 -131 -188 -190zM579 303h-382c5 -66 37 -211 191 -211s186 145 191 211z" />
    <glyph glyph-name="afii10195" unicode="&#x473;" horiz-adv-x="604" 
d="M35 259c0 173 113 267 267 267s267 -94 267 -267s-113 -267 -267 -267s-267 94 -267 267zM184 322h236c-12 55 -54 106 -118 106s-106 -51 -118 -106zM425 222h-246c8 -62 45 -132 123 -132s115 70 123 132z" />
    <glyph glyph-name="afii10148" unicode="&#x474;" horiz-adv-x="739" 
d="M676 600c-27 0 -49 -11 -73 -79l-183 -521h-175l-240 700h152l147 -455l31 -108h2l30 108l110 315c43 125 107 148 177 148c34 0 53 -4 85 -13l-4 -108c-25 9 -41 13 -59 13z" />
    <glyph glyph-name="afii10196" unicode="&#x475;" horiz-adv-x="618" 
d="M553 426c-26 0 -37 -14 -50 -50l-141 -376h-160l-192 518h149l107 -320l21 -76h3l19 76l72 216c17 53 55 112 145 112c29 0 59 -5 87 -12l-18 -95c-12 4 -26 7 -42 7z" />
    <glyph glyph-name="afii10050" unicode="&#x490;" horiz-adv-x="510" 
d="M70 700h288v139h142v-263h-288v-576h-142v700z" />
    <glyph glyph-name="afii10098" unicode="&#x491;" horiz-adv-x="441" 
d="M60 518h236v122h129l1 -222h-230v-418h-136v518z" />
    <glyph glyph-name="uni0492" unicode="&#x492;" horiz-adv-x="535" 
d="M0 409h95v291h430v-118h-288v-173h253v-112h-253v-297h-142v297h-95v112z" />
    <glyph glyph-name="uni0493" unicode="&#x493;" horiz-adv-x="456" 
d="M0 301h85v217h361v-100h-225v-117h202v-100h-202v-201h-136v201h-85v100z" />
    <glyph glyph-name="uni0494" unicode="&#x494;" horiz-adv-x="658" 
d="M212 294v-294h-142v700h430v-124h-288v-176c54 33 111 49 181 49c213 0 220 -170 220 -220c0 -187 -84 -237 -220 -237c-34 0 -62 3 -90 8l10 107c24 -8 48 -10 69 -10c34 0 85 17 85 127c0 104 -68 115 -111 115c-69 0 -131 -37 -144 -45z" />
    <glyph glyph-name="uni0495" unicode="&#x495;" horiz-adv-x="529" 
d="M499 81c0 -163 -97 -261 -272 -261v98c83 0 130 41 130 153c0 99 -41 141 -116 141h-40v-212h-136v518h361v-100h-225v-108h56c161 0 242 -83 242 -229z" />
    <glyph glyph-name="uni0496" unicode="&#x496;" horiz-adv-x="1002" 
d="M418 700h142v-299h3l235 299h169l-272 -317l186 -259h111v-268h-129v144h-72l-228 348h-3v-348h-142v348h-3l-228 -348h-180l276 383l-272 317h169l235 -299h3v299z" />
    <glyph glyph-name="uni0497" unicode="&#x497;" horiz-adv-x="838" 
d="M703 0h-70l-155 251h-5v-251h-136v251h-5l-155 -251h-172l200 281l-183 237h155l155 -231h5v231h136v-231h5l155 231h155l-183 -237l129 -181h94v-235h-125v135z" />
    <glyph glyph-name="uni0498" unicode="&#x498;" horiz-adv-x="569" 
d="M321 -157h-129v152c-55 5 -99 21 -154 40l11 119c95 -42 159 -47 187 -47c108 0 138 56 138 93c0 106 -109 107 -136 107h-85v115h85c72 0 112 35 112 90c0 38 -26 81 -113 81c-56 0 -104 -11 -161 -38l-14 118c70 23 124 35 205 35c161 0 238 -74 238 -176
c0 -72 -38 -137 -116 -158v-3c74 -13 140 -65 140 -168c0 -148 -118 -192 -208 -205v-155z" />
    <glyph glyph-name="uni0499" unicode="&#x499;" horiz-adv-x="494" 
d="M284 -135h-125v132c-38 4 -85 15 -134 37l12 98c73 -34 143 -42 178 -42c56 0 97 25 97 70c0 36 -26 63 -97 63h-71v95h70c64 0 76 32 76 53c0 30 -25 57 -88 57c-26 0 -92 -6 -149 -34l-2 99c59 21 106 33 174 33c161 0 203 -74 203 -136c0 -85 -64 -110 -89 -116v-2
c44 -7 115 -34 115 -120c0 -77 -61 -139 -170 -155v-132z" />
    <glyph glyph-name="uni049A" unicode="&#x49a;" horiz-adv-x="676" 
d="M555 124h111v-268h-129v144h-62l-259 348h-4v-348h-142v700h142v-299h4l252 299h169l-292 -317z" />
    <glyph glyph-name="uni049B" unicode="&#x49b;" horiz-adv-x="576" 
d="M65 518h136v-235h5l166 235h152l-192 -245l139 -173h95v-235h-125v135h-61l-174 248h-5v-248h-136v518z" />
    <glyph glyph-name="uni049C" unicode="&#x49c;" horiz-adv-x="765" 
d="M274 180v125h-62v-305h-142v700h142v-284h62v124h100v-118l197 278h169l-263 -332l281 -368h-180l-204 300v-120h-100z" />
    <glyph glyph-name="uni049D" unicode="&#x49d;" horiz-adv-x="641" 
d="M249 131v85h-48v-216h-136v518h136v-204h48v85h83v-85l125 204h152l-176 -247l203 -271h-171l-133 215v-84h-83z" />
    <glyph glyph-name="uni04A0" unicode="&#x4a0;" horiz-adv-x="775" 
d="M325 0h-142v576h-163v124h305v-299h3l253 299h169l-292 -317l310 -383h-180l-260 348h-3v-348z" />
    <glyph glyph-name="uni04A1" unicode="&#x4a1;" horiz-adv-x="633" 
d="M10 518h268v-235h5l166 235h152l-192 -245l219 -273h-171l-174 248h-5v-248h-136v418h-132v100z" />
    <glyph glyph-name="uni04A2" unicode="&#x4a2;" horiz-adv-x="739" 
d="M70 700h142v-282h284v282h142v-576h81v-268h-129v144h-94v303h-284v-303h-142v700z" />
    <glyph glyph-name="uni04A3" unicode="&#x4a3;" horiz-adv-x="655" 
d="M65 518h136v-196h218v196h136v-418h85v-235h-125v135h-96v222h-218v-222h-136v518z" />
    <glyph glyph-name="uni04A4" unicode="&#x4a4;" horiz-adv-x="936" 
d="M70 700h142v-282h284v282h430v-124h-288v-576h-142v303h-284v-303h-142v700z" />
    <glyph glyph-name="uni04A5" unicode="&#x4a5;" horiz-adv-x="790" 
d="M65 518h136v-196h218v196h361v-100h-225v-418h-136v222h-218v-222h-136v518z" />
    <glyph glyph-name="uni04AA" unicode="&#x4aa;" horiz-adv-x="630" 
d="M487 -157h-129v152c-158 18 -313 121 -313 351c0 241 170 362 390 362c55 0 102 -7 155 -24l-6 -120c-41 16 -86 26 -139 26c-157 0 -250 -99 -250 -242c0 -169 114 -238 240 -238c62 0 111 15 146 31l9 -119c-35 -12 -70 -20 -103 -24v-155z" />
    <glyph glyph-name="uni04AB" unicode="&#x4ab;" horiz-adv-x="463" 
d="M359 -135h-125v135c-136 29 -199 146 -199 264c0 138 96 262 280 262c34 0 76 -4 115 -14l-8 -98c-25 10 -52 14 -84 14c-91 0 -161 -67 -161 -171c0 -94 57 -167 152 -167c31 0 69 6 104 21l5 -99c-17 -6 -45 -13 -79 -17v-130z" />
    <glyph glyph-name="uni04AE" unicode="&#x4ae;" horiz-adv-x="656" 
d="M2 700h164l144 -246l22 -48h3l24 48l145 246h150l-252 -416v-284h-142v286z" />
    <glyph glyph-name="uni04AF" unicode="&#x4af;" horiz-adv-x="565" 
d="M10 518h149l109 -313l21 -83h3l19 76l105 320h139l-203 -532v-200h-136v200z" />
    <glyph glyph-name="uni04B0" unicode="&#x4b0;" horiz-adv-x="656" 
d="M2 700h164l144 -246l22 -48h4l23 48l145 246h150l-236 -389h124v-118h-140v-193h-142v193h-140v118h124z" />
    <glyph glyph-name="uni04B1" unicode="&#x4b1;" horiz-adv-x="565" 
d="M10 518h149l109 -283l21 -73h4l18 68l105 288h139l-193 -468h110v-100h-120v-164h-136v164h-120v100h110z" />
    <glyph glyph-name="uni04B2" unicode="&#x4b2;" horiz-adv-x="725" 
d="M41 700h168l112 -195l32 -59h3l32 59l115 195h155l-213 -334l154 -242h111v-268h-129v144h-70l-134 222l-30 54h-3l-30 -54l-139 -222h-155l234 366z" />
    <glyph glyph-name="uni04B3" unicode="&#x4b3;" horiz-adv-x="596" 
d="M461 0h-66l-86 138l-31 58h-3l-32 -60l-82 -136h-151l174 267l-159 251h162l72 -121l30 -59h3l31 61l68 119h151l-159 -251l109 -167h94v-235h-125v135z" />
    <glyph glyph-name="uni04B6" unicode="&#x4b6;" horiz-adv-x="702" 
d="M553 0h-94v249c-38 -8 -75 -14 -131 -14c-240 0 -278 104 -278 207v258h142v-239c0 -47 0 -111 136 -111c47 0 88 7 131 17v333h142v-576h81v-268h-129v144z" />
    <glyph glyph-name="uni04B7" unicode="&#x4b7;" horiz-adv-x="605" 
d="M465 0h-96v191c-59 -11 -107 -13 -129 -13c-173 0 -195 82 -195 158v182h136v-165c0 -37 10 -75 83 -75c31 0 70 4 105 13v227h136v-418h85v-235h-125v135z" />
    <glyph glyph-name="uni04B8" unicode="&#x4b8;" horiz-adv-x="679" 
d="M386 467v-114c27 3 55 8 81 14v333h142v-700h-142v249c-25 -5 -51 -10 -81 -12v-108h-110v108c-190 15 -226 111 -226 205v258h142v-239c0 -39 4 -96 84 -107v113h110z" />
    <glyph glyph-name="uni04B9" unicode="&#x4b9;" horiz-adv-x="580" 
d="M329 363v-81c17 2 35 5 50 9v227h136v-518h-136v191c-18 -4 -34 -6 -50 -8v-84h-93v79c-165 3 -191 83 -191 158v182h136v-165c0 -36 7 -65 55 -73v83h93z" />
    <glyph glyph-name="uni04BA" unicode="&#x4ba;" horiz-adv-x="666" 
d="M70 700h142v-298c64 33 129 52 197 52c129 0 207 -65 207 -176v-278h-142v238c0 17 0 106 -111 106c-41 0 -97 -15 -151 -47v-297h-142v700z" />
    <glyph glyph-name="uni04BB" unicode="&#x4bb;" horiz-adv-x="612" 
d="M65 0v750h136v-233l-5 -80h3c38 56 97 89 167 89c120 0 181 -73 181 -183v-343h-136v298c0 41 -1 117 -88 117c-56 0 -122 -45 -122 -157v-258h-136z" />
    <glyph glyph-name="uni04C3" unicode="&#x4c3;" horiz-adv-x="672" 
d="M70 700h142v-299h3l253 299h169l-277 -304c169 -4 269 -84 269 -294c0 -215 -142 -302 -343 -302v100c87 0 193 15 193 202c0 172 -86 199 -176 199h-91v-301h-142v700z" />
    <glyph glyph-name="uni04C4" unicode="&#x4c4;" horiz-adv-x="554" 
d="M516 75c0 -163 -96 -255 -271 -255v98c85 0 129 40 129 152c0 99 -41 135 -116 135h-57v-205h-136v518h136v-216h23l148 216h152l-174 -229c109 -20 166 -94 166 -214z" />
    <glyph glyph-name="uni04C7" unicode="&#x4c7;" horiz-adv-x="708" 
d="M496 700h142v-711c0 -94 -17 -211 -181 -211c-33 0 -72 5 -108 13v114c22 -5 50 -9 68 -9c63 0 79 40 79 103v304h-284v-303h-142v700h142v-282h284v282z" />
    <glyph glyph-name="uni04C8" unicode="&#x4c8;" horiz-adv-x="620" 
d="M65 518h136v-196h218v196h136v-559c0 -82 -9 -181 -158 -181c-20 0 -37 1 -60 7v96c11 -3 24 -4 35 -4c43 0 47 34 47 77v268h-218v-222h-136v518z" />
    <glyph glyph-name="uni04D0" unicode="&#x4d0;" horiz-adv-x="749" 
d="M294 700h162l278 -700h-160l-59 158h-289l-59 -158h-152zM271 273h202l-103 286h-2zM475 880h64c-4 -137 -128 -140 -163 -140s-159 3 -163 140h64c1 -18 9 -60 99 -60s98 42 99 60z" />
    <glyph glyph-name="uni04D1" unicode="&#x4d1;" horiz-adv-x="581" 
d="M97 385v107c62 25 120 34 190 34c210 0 229 -121 229 -199v-327h-133v76h-2c-11 -22 -49 -84 -162 -84c-131 0 -184 77 -184 158c0 71 37 171 257 171c25 0 51 -1 76 -1h12v22c0 57 -55 89 -117 89c-45 0 -97 -7 -166 -46zM380 235h-23c-75 0 -184 -1 -184 -84
c0 -37 23 -67 83 -67c56 0 124 26 124 138v13zM389 740h54c-1 -137 -124 -140 -153 -140s-152 3 -153 140h54c1 -18 9 -60 99 -60s98 42 99 60z" />
    <glyph glyph-name="uni04D2" unicode="&#x4d2;" horiz-adv-x="749" 
d="M294 700h162l278 -700h-160l-59 158h-289l-59 -158h-152zM271 273h202l-103 286h-2zM202 867h115v-115h-115v115zM431 867h115v-115h-115v115z" />
    <glyph glyph-name="uni04D3" unicode="&#x4d3;" horiz-adv-x="581" 
d="M97 385v107c62 25 120 34 190 34c210 0 229 -121 229 -199v-327h-133v76h-2c-11 -22 -49 -84 -162 -84c-131 0 -184 77 -184 158c0 71 37 171 257 171c25 0 51 -1 76 -1h12v22c0 57 -55 89 -117 89c-45 0 -97 -7 -166 -46zM380 235h-23c-75 0 -184 -1 -184 -84
c0 -37 23 -67 83 -67c56 0 124 26 124 138v13zM134 726h120v-116h-120v116zM324 726h120v-116h-120v116z" />
    <glyph glyph-name="uni04D4" unicode="&#x4d4;" horiz-adv-x="946" 
d="M403 700h506v-121h-270l14 -160h235v-123h-222l15 -175h235v-121h-376l-13 159h-267l-88 -159h-165zM518 277l-26 316h-4l-60 -117l-110 -199h200z" />
    <glyph glyph-name="uni04D5" unicode="&#x4d5;" horiz-adv-x="898" 
d="M97 385v107c69 27 126 34 179 34c76 0 123 -10 177 -59c42 35 94 59 171 59c235 0 239 -220 239 -277v-31h-358c0 -87 72 -133 159 -133c76 0 129 26 162 47v-102c-52 -23 -110 -38 -179 -38c-92 0 -177 26 -226 87c-49 -57 -115 -87 -202 -87c-90 0 -184 41 -184 158
c0 174 194 170 322 170h23v8c0 28 -6 103 -117 103c-61 0 -110 -12 -166 -46zM380 235h-43c-62 0 -164 -4 -164 -84c0 -47 43 -66 83 -66c70 0 124 51 124 137v13zM505 311h228c-3 84 -62 121 -114 121c-66 0 -111 -54 -114 -121z" />
    <glyph glyph-name="uni04D6" unicode="&#x4d6;" horiz-adv-x="538" 
d="M70 700h418v-124h-276v-158h251v-115h-251v-179h276v-124h-418v700zM370 880h64c-4 -137 -128 -140 -163 -140s-159 3 -163 140h64c1 -18 9 -60 99 -60s98 42 99 60z" />
    <glyph glyph-name="uni04D7" unicode="&#x4d7;" horiz-adv-x="565" 
d="M530 218h-353c4 -66 52 -128 154 -128c60 0 113 14 162 36v-102c-53 -20 -117 -32 -179 -32c-155 0 -279 84 -279 267c0 167 117 267 256 267c235 0 239 -231 239 -277v-31zM177 311h213c2 87 -57 121 -107 121c-60 0 -105 -53 -106 -121zM381 740h54
c-1 -137 -124 -140 -153 -140s-152 3 -153 140h54c1 -18 9 -60 99 -60s98 42 99 60z" />
    <glyph glyph-name="uni04D8" unicode="&#x4d8;" horiz-adv-x="762" 
d="M45 350v68h515c-16 112 -98 176 -227 176c-57 0 -122 -6 -200 -37l-8 125c74 18 146 26 205 26c234 0 387 -127 387 -358c0 -254 -170 -358 -343 -358c-178 0 -329 101 -329 358zM374 92c49 0 176 18 191 216h-382c15 -198 141 -216 191 -216z" />
    <glyph glyph-name="afii10846" unicode="&#x4d9;" horiz-adv-x="565" 
d="M35 311h353c-4 58 -53 117 -154 117c-60 0 -113 -14 -162 -36v102c53 20 117 32 179 32c155 0 279 -84 279 -267c0 -167 -117 -267 -256 -267c-235 0 -239 231 -239 277v42zM388 218h-213c0 -92 44 -132 107 -132c71 0 106 61 106 132z" />
    <glyph glyph-name="uni04DA" unicode="&#x4da;" horiz-adv-x="762" 
d="M45 350v68h515c-16 112 -98 176 -227 176c-57 0 -122 -6 -200 -37l-8 125c74 18 146 26 205 26c234 0 387 -127 387 -358c0 -254 -170 -358 -343 -358c-178 0 -329 101 -329 358zM374 92c49 0 176 18 191 216h-382c15 -198 141 -216 191 -216zM200 867h115v-115h-115v115
zM429 867h115v-115h-115v115z" />
    <glyph glyph-name="uni04DB" unicode="&#x4db;" horiz-adv-x="565" 
d="M35 311h353c-4 58 -53 117 -154 117c-60 0 -113 -14 -162 -36v102c53 20 117 32 179 32c155 0 279 -84 279 -267c0 -167 -117 -267 -256 -267c-235 0 -239 231 -239 277v42zM388 218h-213c0 -92 44 -132 107 -132c71 0 106 61 106 132zM120 726h120v-116h-120v116z
M310 726h120v-116h-120v116z" />
    <glyph glyph-name="uni04DC" unicode="&#x4dc;" horiz-adv-x="978" 
d="M418 700h142v-299h3l235 299h169l-272 -317l276 -383h-180l-228 348h-3v-348h-142v348h-3l-228 -348h-180l276 383l-272 317h169l235 -299h3v299zM317 867h115v-115h-115v115zM546 867h115v-115h-115v115z" />
    <glyph glyph-name="uni04DD" unicode="&#x4dd;" horiz-adv-x="810" 
d="M337 518h136v-231h5l155 231h155l-183 -237l200 -281h-172l-155 251h-5v-251h-136v251h-5l-155 -251h-172l200 281l-183 237h155l155 -231h5v231zM249 726h120v-116h-120v116zM439 726h120v-116h-120v116z" />
    <glyph glyph-name="uni04DE" unicode="&#x4de;" horiz-adv-x="569" 
d="M153 307v115h85c72 0 112 35 112 90c0 38 -26 81 -113 81c-56 0 -104 -11 -161 -38l-14 118c70 23 124 35 205 35c161 0 238 -74 238 -176c0 -72 -38 -137 -116 -158v-3c74 -13 140 -65 140 -168c0 -199 -215 -211 -286 -211c-82 0 -134 19 -205 43l11 119
c95 -42 159 -47 187 -47c108 0 138 56 138 93c0 106 -109 107 -136 107h-85zM126 867h115v-115h-115v115zM355 867h115v-115h-115v115z" />
    <glyph glyph-name="uni04DF" unicode="&#x4df;" horiz-adv-x="494" 
d="M144 223v95h70c64 0 76 32 76 53c0 30 -25 57 -88 57c-26 0 -92 -6 -149 -34l-2 99c59 21 106 33 174 33c161 0 203 -74 203 -136c0 -85 -64 -110 -89 -116v-2c44 -7 115 -34 115 -120c0 -91 -85 -160 -234 -160c-37 0 -113 6 -195 42l12 98c73 -34 143 -42 178 -42
c56 0 97 25 97 70c0 36 -26 63 -97 63h-71zM91 726h120v-116h-120v116zM281 726h120v-116h-120v116z" />
    <glyph glyph-name="uni04E2" unicode="&#x4e2;" horiz-adv-x="747" 
d="M70 700h142v-360l-3 -170h3l50 102l245 428h170v-700h-142v361l3 169h-3l-48 -106l-247 -424h-170v700zM238 745v79h271v-79h-271z" />
    <glyph glyph-name="uni04E3" unicode="&#x4e3;" horiz-adv-x="639" 
d="M65 518h136v-272l-4 -93h2l223 365h152v-518h-136v268l4 97h-3l-229 -365h-145v518zM189 685h261v-74h-261v74z" />
    <glyph glyph-name="uni04E4" unicode="&#x4e4;" horiz-adv-x="747" 
d="M70 700h142v-360l-3 -170h3l50 102l245 428h170v-700h-142v361l3 169h-3l-48 -106l-247 -424h-170v700zM201 867h115v-115h-115v115zM430 867h115v-115h-115v115z" />
    <glyph glyph-name="uni04E5" unicode="&#x4e5;" horiz-adv-x="639" 
d="M65 518h136v-272l-4 -93h2l223 365h152v-518h-136v268l4 97h-3l-229 -365h-145v518zM163 726h120v-116h-120v116zM353 726h120v-116h-120v116z" />
    <glyph glyph-name="uni04E6" unicode="&#x4e6;" horiz-adv-x="776" 
d="M388 708c173 0 343 -104 343 -358s-170 -358 -343 -358s-343 104 -343 358s170 358 343 358zM388 608c-53 0 -193 -21 -193 -258s140 -258 193 -258s193 21 193 258s-140 258 -193 258zM216 867h115v-115h-115v115zM445 867h115v-115h-115v115z" />
    <glyph glyph-name="uni04E7" unicode="&#x4e7;" horiz-adv-x="604" 
d="M35 259c0 173 113 267 267 267s267 -94 267 -267s-113 -267 -267 -267s-267 94 -267 267zM177 259c0 -120 65 -169 125 -169s125 49 125 169s-65 169 -125 169s-125 -49 -125 -169zM146 726h120v-116h-120v116zM336 726h120v-116h-120v116z" />
    <glyph glyph-name="uni04E8" unicode="&#x4e8;" horiz-adv-x="776" 
d="M388 708c173 0 343 -104 343 -358s-170 -358 -343 -358s-343 104 -343 358s170 358 343 358zM200 418h376c-7 59 -43 190 -188 190s-181 -131 -188 -190zM579 303h-382c5 -66 37 -211 191 -211s186 145 191 211z" />
    <glyph glyph-name="uni04E9" unicode="&#x4e9;" horiz-adv-x="604" 
d="M35 259c0 173 113 267 267 267s267 -94 267 -267s-113 -267 -267 -267s-267 94 -267 267zM184 322h236c-12 55 -54 106 -118 106s-106 -51 -118 -106zM425 222h-246c8 -62 45 -132 123 -132s115 70 123 132z" />
    <glyph glyph-name="uni04EA" unicode="&#x4ea;" horiz-adv-x="776" 
d="M388 708c173 0 343 -104 343 -358s-170 -358 -343 -358s-343 104 -343 358s170 358 343 358zM200 418h376c-7 59 -43 190 -188 190s-181 -131 -188 -190zM579 303h-382c5 -66 37 -211 191 -211s186 145 191 211zM216 867h115v-115h-115v115zM445 867h115v-115h-115v115z
" />
    <glyph glyph-name="uni04EB" unicode="&#x4eb;" horiz-adv-x="604" 
d="M35 259c0 173 113 267 267 267s267 -94 267 -267s-113 -267 -267 -267s-267 94 -267 267zM184 322h236c-12 55 -54 106 -118 106s-106 -51 -118 -106zM425 222h-246c8 -62 45 -132 123 -132s115 70 123 132zM146 726h120v-116h-120v116zM336 726h120v-116h-120v116z" />
    <glyph glyph-name="uni04EE" unicode="&#x4ee;" horiz-adv-x="644" 
d="M10 700h159l139 -298l30 -74h3l30 75l133 297h140l-280 -596c-39 -83 -92 -112 -166 -112c-33 0 -69 6 -106 22l16 106c20 -10 37 -15 60 -15c27 0 59 1 79 47l20 47zM191 745v79h271v-79h-271z" />
    <glyph glyph-name="uni04EF" unicode="&#x4ef;" horiz-adv-x="551" 
d="M3 518h150l97 -286l29 -99h5l32 103l94 282h138l-219 -581c-30 -78 -67 -159 -212 -159c-25 0 -55 7 -79 15l10 101c16 -6 33 -11 53 -11c46 0 76 13 94 58l12 30zM145 685h261v-74h-261v74z" />
    <glyph glyph-name="uni04F0" unicode="&#x4f0;" horiz-adv-x="644" 
d="M10 700h159l139 -298l30 -74h3l30 75l133 297h140l-280 -596c-39 -83 -92 -112 -166 -112c-33 0 -69 6 -106 22l16 106c20 -10 37 -15 60 -15c27 0 59 1 79 47l20 47zM155 867h115v-115h-115v115zM384 867h115v-115h-115v115z" />
    <glyph glyph-name="uni04F1" unicode="&#x4f1;" horiz-adv-x="551" 
d="M3 518h150l97 -286l29 -99h5l32 103l94 282h138l-219 -581c-30 -78 -67 -159 -212 -159c-25 0 -55 7 -79 15l10 101c16 -6 33 -11 53 -11c46 0 76 13 94 58l12 30zM119 726h120v-116h-120v116zM309 726h120v-116h-120v116z" />
    <glyph glyph-name="uni04F2" unicode="&#x4f2;" horiz-adv-x="644" 
d="M10 700h159l139 -298l30 -74h3l30 75l133 297h140l-280 -596c-39 -83 -92 -112 -166 -112c-33 0 -69 6 -106 22l16 106c20 -10 37 -15 60 -15c27 0 59 1 79 47l20 47zM160 740l82 140h150l-132 -140h-100zM379 740l82 140h150l-132 -140h-100z" />
    <glyph glyph-name="uni04F3" unicode="&#x4f3;" horiz-adv-x="551" 
d="M3 518h150l97 -286l29 -99h5l32 103l94 282h138l-219 -581c-30 -78 -67 -159 -212 -159c-25 0 -55 7 -79 15l10 101c16 -6 33 -11 53 -11c46 0 76 13 94 58l12 30zM330 750l-148 -160h-80l94 160h134zM540 750l-148 -160h-80l94 160h134z" />
    <glyph glyph-name="uni04F4" unicode="&#x4f4;" horiz-adv-x="671" 
d="M50 700h142v-239c0 -47 0 -111 136 -111c47 0 88 7 131 17v333h142v-700h-142v249c-38 -8 -75 -14 -131 -14c-240 0 -278 104 -278 207v258zM163 867h115v-115h-115v115zM392 867h115v-115h-115v115z" />
    <glyph glyph-name="uni04F5" unicode="&#x4f5;" horiz-adv-x="570" 
d="M45 518h136v-165c0 -37 10 -75 83 -75c31 0 70 4 105 13v227h136v-518h-136v191c-59 -11 -107 -13 -129 -13c-173 0 -195 82 -195 158v182zM129 726h120v-116h-120v116zM319 726h120v-116h-120v116z" />
    <glyph glyph-name="uni04F8" unicode="&#x4f8;" horiz-adv-x="880" 
d="M212 700v-262h98c241 0 258 -168 258 -212c0 -108 -61 -226 -262 -226h-236v700h142zM212 328v-218h94c67 0 117 41 117 109c0 45 -22 109 -128 109h-83zM668 700h142v-700h-142v700zM268 867h115v-115h-115v115zM497 867h115v-115h-115v115z" />
    <glyph glyph-name="uni04F9" unicode="&#x4f9;" horiz-adv-x="805" 
d="M604 518h136v-518h-136v518zM65 518h136v-184h105c190 0 218 -108 218 -167c0 -91 -65 -167 -208 -167h-251v518zM201 244v-154h85c64 0 96 37 96 77c0 30 -20 77 -96 77h-85zM246 726h120v-116h-120v116zM436 726h120v-116h-120v116z" />
    <glyph glyph-name="uni0531" unicode="&#x531;" horiz-adv-x="795" 
d="M654 700v-434c0 -23 -2 -46 -9 -71l110 -67v-136l-154 92c-71 -74 -144 -92 -239 -92c-53 0 -175 7 -241 94c-49 65 -51 150 -51 180v434h142v-434c0 -22 1 -73 26 -108c23 -32 64 -56 124 -56s101 24 124 56c25 35 26 86 26 108v434h142z" />
    <glyph glyph-name="uni0532" unicode="&#x532;" horiz-adv-x="714" 
d="M70 0v434c0 32 3 116 51 180c66 87 187 94 240 94c59 0 173 -7 242 -94c25 -31 51 -83 51 -159v-20h-142v21c0 21 -3 54 -26 86c-19 25 -55 56 -124 56s-107 -31 -124 -56c-24 -37 -26 -85 -26 -108v-129h442v-110h-442v-195h-142z" />
    <glyph glyph-name="uni0533" unicode="&#x533;" horiz-adv-x="791" 
d="M761 195h-133v-195h-142v194c-56 -16 -110 -22 -159 -22c-68 0 -152 11 -216 83c-37 41 -66 104 -66 188c0 97 41 154 79 192c64 60 133 73 216 73c70 0 155 -8 216 -64c67 -62 72 -151 72 -204v-135h133v-110zM486 304v136c0 64 -24 101 -44 120c-25 24 -67 38 -108 38
c-52 0 -87 -21 -108 -48c-28 -35 -34 -77 -34 -112c0 -37 5 -81 42 -117c35 -33 76 -39 121 -39c49 0 91 7 131 22z" />
    <glyph glyph-name="uni0534" unicode="&#x534;" horiz-adv-x="783" 
d="M39 373v61c0 32 3 116 51 180c66 87 187 94 239 94c140 0 208 -51 243 -94c48 -64 51 -148 51 -180v-129h130v-110h-130v-195h-142v434c0 24 -2 70 -26 108c-32 47 -84 56 -124 56s-92 -9 -124 -56c-24 -38 -26 -84 -26 -108v-61h-142z" />
    <glyph glyph-name="uni0535" unicode="&#x535;" horiz-adv-x="720" 
d="M654 272v-16c0 -64 -19 -129 -51 -170c-66 -87 -188 -94 -239 -94c-139 0 -209 49 -243 94c-48 64 -51 148 -51 180v434h142v-174h448v-110h-448v-150c0 -23 1 -72 26 -108c32 -47 84 -56 124 -56c41 0 92 9 124 56c19 27 26 60 26 89v25h142z" />
    <glyph glyph-name="uni0536" unicode="&#x536;" horiz-adv-x="830" 
d="M770 -16h-142v20c0 16 -2 44 -51 44h-365v-48h-142v201h142v-48h65c50 0 130 71 146 90l-2 4c-9 -1 -21 -2 -32 -2c-112 0 -224 72 -224 215c0 164 118 248 284 248c124 0 259 -49 259 -236c0 -109 -79 -225 -222 -316v-3h164c44 0 120 -8 120 -113v-56zM440 601
c-81 0 -130 -56 -130 -139c0 -87 61 -126 135 -126c19 0 46 4 62 7c24 24 56 76 56 131c0 54 -22 127 -123 127z" />
    <glyph glyph-name="uni0537" unicode="&#x537;" horiz-adv-x="592" 
d="M521 -83h-142v36c0 45 -31 47 -56 47h-253v700h142v-171h346v-110h-346v-309h180c84 0 129 -36 129 -131v-62z" />
    <glyph glyph-name="uni0538" unicode="&#x538;" horiz-adv-x="729" 
d="M70 0v434c0 32 3 116 51 180c66 87 187 94 239 94c140 0 208 -51 243 -94c48 -64 51 -148 51 -180v-53h-142v53c0 23 -2 71 -26 108c-23 32 -64 56 -124 56s-101 -24 -124 -56c-24 -37 -26 -85 -26 -108v-324h447v-110h-589z" />
    <glyph glyph-name="uni0539" unicode="&#x539;" horiz-adv-x="829" 
d="M809 365h-69v-49c0 -45 -4 -131 -57 -192c-47 -55 -117 -68 -175 -68c-49 0 -113 7 -164 58s-59 112 -59 163s8 97 43 137c48 53 111 61 158 61h97c-3 23 -23 123 -162 123c-68 0 -120 -22 -155 -54c-29 -28 -54 -74 -54 -131v-413h-142v415c0 63 13 151 93 220
c80 67 183 73 256 73c65 0 167 -5 240 -73c35 -32 69 -85 73 -160h77v-110zM592 365h-89c-37 0 -53 -19 -60 -28c-12 -19 -14 -48 -14 -68c0 -43 6 -60 13 -71c17 -28 47 -32 67 -32c21 0 47 5 64 28c10 15 19 41 19 122v49z" />
    <glyph glyph-name="uni053A" unicode="&#x53a;" horiz-adv-x="770" 
d="M760 419h-127v-170c0 -52 -11 -127 -72 -186c-63 -60 -140 -71 -219 -71c-66 0 -152 7 -218 70c-37 34 -79 98 -79 203c0 64 15 121 54 170c64 83 147 94 223 94h169v171h142v-171h127v-110zM491 254v165h-156c-44 0 -142 -10 -142 -157c0 -34 3 -86 40 -123
c32 -31 74 -37 106 -37c45 0 81 9 112 41c32 35 40 74 40 111z" />
    <glyph glyph-name="uni053B" unicode="&#x53b;" horiz-adv-x="623" 
d="M211 0h-141v700h142v-153c43 12 82 17 125 17c101 0 160 -33 193 -68c48 -54 54 -115 54 -154v-100h-142v99c0 31 -5 68 -41 93c-24 16 -54 19 -79 19c-44 0 -80 -7 -111 -18v-435z" />
    <glyph glyph-name="uni053C" unicode="&#x53c;" horiz-adv-x="467" 
d="M70 0v700h142v-590h230v-110h-372z" />
    <glyph glyph-name="uni053D" unicode="&#x53d;" horiz-adv-x="877" 
d="M212 0h-142v700h142v-176h258v-213c0 -27 1 -63 20 -86c15 -19 42 -33 81 -33c41 0 67 14 83 37c20 27 21 58 21 86v209h142v-208c0 -46 -7 -117 -69 -174c-35 -32 -90 -60 -178 -60c-72 0 -132 18 -173 53c-61 50 -69 120 -69 171v108h-116v-414z" />
    <glyph glyph-name="uni053E" unicode="&#x53e;" horiz-adv-x="870" 
d="M837 472h-121v14c0 13 -6 44 -46 44h-59l-1 -3c34 -24 105 -81 105 -220c0 -109 -40 -181 -74 -220c-67 -77 -151 -95 -227 -95c-75 0 -166 16 -235 107c-32 43 -64 108 -64 204c0 50 11 157 108 224v3h-79c-105 0 -105 97 -105 116v54h138v-22c0 -40 22 -43 45 -43h476
c115 0 139 -71 139 -122v-41zM415 525c-47 0 -85 -16 -113 -60c-8 -13 -37 -63 -37 -164c0 -47 5 -98 36 -141c35 -47 79 -58 114 -58c63 0 101 36 120 68c24 39 30 90 30 131c0 55 -9 128 -41 171c-25 35 -62 53 -109 53z" />
    <glyph glyph-name="uni053F" unicode="&#x53f;" horiz-adv-x="661" 
d="M591 0h-142v166c-24 -8 -77 -23 -141 -23c-30 0 -109 3 -165 45c-67 51 -73 120 -73 178v334h142v-328c0 -28 1 -64 28 -91s68 -28 89 -28c31 0 73 4 120 23v240h142v-516z" />
    <glyph glyph-name="uni0540" unicode="&#x540;" horiz-adv-x="732" 
d="M700 -8l-673 235l343 329c4 4 10 10 10 17c0 4 -3 8 -8 13l-45 40l82 79l84 -85c13 -13 30 -28 30 -51c0 -17 -8 -33 -23 -48l-245 -235l445 -166v-128z" />
    <glyph glyph-name="uni0541" unicode="&#x541;" horiz-adv-x="702" 
d="M634 0h-104c-60 0 -107 25 -142 58c-47 -39 -110 -66 -178 -66c-101 0 -165 57 -165 140c0 78 70 143 174 143c53 0 110 -23 164 -66c71 77 99 170 99 245c0 71 -28 144 -132 144c-46 0 -130 -19 -130 -119v-46h-142v50c0 75 34 124 67 156c57 56 125 69 201 69
c83 0 286 -23 286 -247c0 -122 -67 -239 -156 -320c17 -15 44 -30 71 -30h87v-111zM310 132c-24 21 -60 42 -96 42c-26 0 -49 -12 -49 -41c0 -28 22 -41 55 -41c31 0 63 12 90 40z" />
    <glyph glyph-name="uni0542" unicode="&#x542;" horiz-adv-x="783" 
d="M39 378v56c0 32 3 116 51 180c66 87 187 94 239 94c140 0 208 -51 243 -94c48 -64 51 -148 51 -180v-324h130v-110h-272v434c0 23 -2 71 -26 108c-23 32 -64 56 -124 56s-101 -24 -124 -56c-24 -37 -26 -85 -26 -108v-56h-142z" />
    <glyph glyph-name="uni0543" unicode="&#x543;" horiz-adv-x="707" 
d="M70 0v266c0 106 48 186 87 233c-26 2 -51 1 -76 -3v109c25 2 51 3 78 3s56 -2 86 -5c39 35 83 61 130 77c51 17 108 25 164 25c27 0 54 -2 79 -7v-110c-24 4 -45 6 -72 6c-47 0 -89 -6 -140 -31c51 -15 115 -44 156 -88c39 -40 75 -105 75 -210v-265h-567zM212 110h283
v148c0 72 -29 127 -65 162c-49 47 -122 59 -130 59c-75 -80 -88 -161 -88 -219v-150z" />
    <glyph glyph-name="uni0544" unicode="&#x544;" horiz-adv-x="815" 
d="M512 700h277v-110h-135v-324c0 -32 -3 -116 -51 -180c-66 -87 -187 -94 -243 -94c-54 0 -172 5 -239 94c-19 24 -51 79 -51 180v434h142v-434c0 -22 1 -73 26 -108c23 -32 64 -56 124 -56s101 24 124 56c25 35 26 86 26 108v434z" />
    <glyph glyph-name="uni0545" unicode="&#x545;" horiz-adv-x="707" 
d="M354 -8c-151 0 -289 60 -292 243h142c2 -79 48 -133 150 -133c83 0 141 37 141 118c0 64 -40 111 -116 111h-314v100h314c60 0 93 24 93 91c0 45 -44 76 -116 76c-45 0 -120 -7 -122 -82h-142c17 153 143 192 266 192c152 0 258 -53 258 -187c0 -68 -40 -118 -91 -134v-3
c41 -14 120 -44 120 -163c0 -161 -130 -229 -291 -229z" />
    <glyph glyph-name="uni0546" unicode="&#x546;" horiz-adv-x="778" 
d="M739 304v-40c0 -28 -2 -113 -51 -178c-34 -44 -104 -94 -241 -94c-53 0 -175 7 -241 94c-48 64 -51 148 -51 180v324h-135v110h277v-434c0 -22 1 -73 26 -108c23 -32 64 -56 124 -56s101 24 124 56c25 35 26 86 26 108v38h142z" />
    <glyph glyph-name="uni0547" unicode="&#x547;" horiz-adv-x="714" 
d="M510 264h142c0 -68 -17 -134 -57 -182c-33 -38 -97 -90 -225 -90c-72 0 -164 14 -233 91c-51 56 -69 124 -69 203c0 101 39 171 82 212c43 40 100 64 155 72c-35 23 -64 28 -105 28c-52 0 -89 -8 -128 -28v112c44 15 94 26 149 26c83 0 124 -28 213 -87
c56 -37 116 -77 211 -80v-113c-112 0 -183 36 -227 66c-72 0 -120 -20 -149 -51c-44 -47 -51 -112 -51 -167c0 -41 4 -90 33 -126c35 -43 83 -48 120 -48c80 0 108 38 122 63c13 25 17 70 17 99z" />
    <glyph glyph-name="uni0548" unicode="&#x548;" horiz-adv-x="724" 
d="M70 0v434c0 100 32 159 59 190c40 45 112 84 232 84c139 0 207 -50 242 -94c48 -64 51 -148 51 -180v-434h-142v434c0 33 -3 75 -26 108c-21 31 -60 56 -124 56c-69 0 -107 -31 -124 -56c-23 -33 -26 -75 -26 -108v-434h-142z" />
    <glyph glyph-name="uni0549" unicode="&#x549;" horiz-adv-x="693" 
d="M93 240l136 -37c64 16 131 47 178 86c67 56 85 119 85 172s-21 89 -46 109c-29 24 -63 28 -90 28c-41 0 -81 -8 -114 -43c-28 -31 -34 -60 -34 -95v-24h-142v20c0 50 10 125 82 186c63 52 139 66 212 66s152 -13 213 -74c59 -62 69 -130 69 -177c0 -68 -18 -133 -75 -192
c-45 -48 -122 -84 -180 -103v-3l168 -47l-37 -120l-462 126z" />
    <glyph glyph-name="uni054A" unicode="&#x54a;" horiz-adv-x="807" 
d="M595 0v432c0 35 -4 88 -42 126c-23 23 -61 40 -104 40v-388h-130v388c-78 0 -114 -43 -126 -64c-21 -35 -24 -78 -24 -118v-28h-142v27c0 74 13 167 109 234c78 54 183 59 252 59c74 0 177 -5 249 -56c87 -61 100 -142 100 -217v-435h-142z" />
    <glyph glyph-name="uni054B" unicode="&#x54b;" horiz-adv-x="804" 
d="M212 0h-142v201h142v-48h41c45 0 83 34 83 69c0 33 -30 47 -51 55c-33 14 -71 20 -106 61c-40 46 -44 99 -44 128c0 100 51 158 91 187c39 28 96 55 188 55c88 0 152 -25 196 -63c34 -30 72 -87 72 -174c0 -76 -27 -133 -74 -185c-59 -67 -144 -119 -169 -133h183
c110 0 122 -61 122 -110v-59h-137v25c0 19 -5 39 -49 39h-346v-48zM410 240l6 -2c51 43 115 118 115 219c0 41 -10 74 -30 98c-23 27 -56 43 -95 43c-40 0 -70 -17 -89 -36c-21 -23 -33 -54 -33 -99c0 -21 4 -46 20 -69c17 -24 44 -39 67 -54c35 -23 42 -53 42 -76
c0 -11 -2 -17 -3 -24z" />
    <glyph glyph-name="uni054C" unicode="&#x54c;" horiz-adv-x="805" 
d="M76 0v434c0 32 3 116 51 180c66 87 188 94 241 94s175 -7 241 -94c48 -64 51 -148 51 -180v-129h115v-110h-115v-195h-142v434c0 23 -2 71 -26 108c-23 32 -64 56 -124 56s-101 -24 -124 -56c-24 -37 -26 -85 -26 -108v-434h-142z" />
    <glyph glyph-name="uni054D" unicode="&#x54d;" horiz-adv-x="724" 
d="M654 700v-434c0 -32 -3 -116 -51 -180c-66 -87 -188 -94 -240 -94c-138 0 -208 49 -242 94c-48 64 -51 148 -51 180v434h142v-434c0 -22 1 -73 26 -108c23 -32 64 -56 124 -56s101 24 124 56c25 35 26 86 26 108v434h142z" />
    <glyph glyph-name="uni054E" unicode="&#x54e;" horiz-adv-x="768" 
d="M738 0h-272v168c-45 -10 -90 -15 -135 -15c-67 0 -154 9 -212 65c-56 51 -66 118 -66 165v141h142v-130c0 -53 21 -83 38 -99c35 -30 90 -32 110 -32c40 0 86 6 123 17v420h142v-590h130v-110z" />
    <glyph glyph-name="uni054F" unicode="&#x54f;" horiz-adv-x="686" 
d="M56 249h142c0 -68 21 -147 156 -147c87 0 125 35 125 82c0 62 -62 85 -149 120c-107 43 -178 82 -214 134c-18 26 -27 56 -27 93c0 64 31 108 67 134c58 42 138 43 182 43c92 0 143 -29 164 -45c36 -28 75 -81 78 -161h-142c0 80 -59 97 -107 97c-30 0 -92 -9 -92 -68
c0 -57 56 -79 134 -111c184 -75 257 -114 257 -231c0 -150 -150 -197 -274 -197c-81 0 -164 12 -230 73c-26 23 -70 89 -70 184z" />
    <glyph glyph-name="uni0550" unicode="&#x550;" horiz-adv-x="693" 
d="M70 0v434c0 32 3 116 51 180c66 87 187 94 239 94c140 0 208 -51 243 -94c48 -64 51 -148 51 -180v-49h-142v49c0 23 -2 71 -26 108c-23 32 -64 56 -124 56s-101 -24 -124 -56c-24 -37 -26 -85 -26 -108v-434h-142z" />
    <glyph glyph-name="uni0551" unicode="&#x551;" horiz-adv-x="715" 
d="M216 294l-151 16c16 48 45 75 68 91c29 20 61 32 96 36v5c-45 15 -76 58 -76 105c0 48 19 93 58 121s98 40 147 40c47 0 101 -11 136 -32c39 -24 64 -67 64 -123c0 -25 -9 -54 -25 -74c-12 -16 -31 -30 -58 -37v-5c39 -3 83 -19 115 -46c53 -45 63 -107 63 -156
c0 -77 -27 -138 -81 -182c-64 -53 -146 -61 -217 -61c-67 0 -142 6 -205 52c-39 28 -80 78 -88 157h147c3 -19 8 -47 39 -70c33 -25 74 -28 105 -28c39 0 80 4 111 31s38 58 38 93c0 39 -7 81 -59 110c-25 15 -56 20 -87 20c-32 0 -69 -6 -96 -19c-20 -11 -33 -21 -44 -44z
M357 606c-25 0 -44 -5 -59 -14c-17 -11 -26 -27 -26 -48c0 -25 9 -43 24 -54c15 -12 35 -18 59 -18c51 0 83 29 83 71c0 19 -7 37 -27 50c-19 12 -41 13 -54 13z" />
    <glyph glyph-name="uni0552" unicode="&#x552;" horiz-adv-x="563" 
d="M212 0h-142v700h142v-132h34c47 0 120 -17 154 -77c30 -53 25 -119 62 -150c15 -13 34 -22 61 -22v-111c-55 0 -105 9 -147 40c-46 33 -60 87 -68 119c-10 41 -25 90 -73 90h-23v-457z" />
    <glyph glyph-name="uni0553" unicode="&#x553;" horiz-adv-x="820" 
d="M481 90v-90h-142v90c-69 0 -146 21 -197 58s-97 103 -97 213c0 91 29 162 108 213c10 7 80 50 186 53v73h142v-73c106 -3 176 -46 186 -53c79 -51 108 -122 108 -213c0 -110 -46 -176 -97 -213s-128 -58 -197 -58zM481 516v-315c36 0 69 12 92 31c41 33 52 82 52 130
c0 39 -6 74 -35 106c-13 15 -48 45 -109 48zM339 201v315c-61 -3 -96 -33 -109 -48c-29 -32 -35 -67 -35 -106c0 -48 11 -97 52 -130c23 -19 56 -31 92 -31z" />
    <glyph glyph-name="uni0554" unicode="&#x554;" horiz-adv-x="765" 
d="M297 0h-142v88h-110v100h110v276c0 47 1 96 36 147s99 97 228 97c40 0 126 -4 187 -55c37 -32 75 -86 75 -178c0 -76 -24 -131 -76 -175c-51 -41 -101 -53 -165 -53c-49 0 -98 7 -143 46v-103h411v-111h-411v-79zM298 483c0 -29 4 -65 31 -93c27 -27 60 -32 93 -32
c21 0 49 3 73 19c36 25 42 61 42 98c0 31 -3 67 -35 96c-24 23 -53 28 -84 28c-33 0 -61 -6 -86 -29c-28 -25 -34 -52 -34 -87z" />
    <glyph glyph-name="uni0555" unicode="&#x555;" horiz-adv-x="776" 
d="M388 708c125 0 207 -52 252 -99c77 -80 91 -175 91 -259c0 -85 -13 -179 -91 -259c-45 -47 -127 -99 -252 -99s-207 52 -252 99c-78 80 -91 174 -91 259c0 84 14 179 91 259c45 47 127 99 252 99zM388 102c64 0 115 29 146 72c33 45 47 116 47 176s-14 131 -47 176
c-31 43 -82 72 -146 72s-115 -29 -146 -72c-33 -45 -47 -116 -47 -176s14 -131 47 -176c31 -43 82 -72 146 -72z" />
    <glyph glyph-name="uni0556" unicode="&#x556;" horiz-adv-x="845" 
d="M63 250h139c-3 -47 16 -83 37 -106c24 -25 67 -45 116 -42v280c-92 4 -148 22 -184 54c-35 31 -47 67 -47 111c0 53 19 89 42 110c29 28 74 43 117 43h214v-216l53 -5c69 -7 140 -30 184 -70c58 -53 66 -120 66 -169c0 -88 -30 -151 -99 -196c-77 -51 -172 -52 -274 -52
c-100 0 -217 2 -295 78c-26 26 -74 86 -69 180zM359 492v102h-47c-43 0 -55 -26 -55 -51c0 -20 10 -54 102 -51zM497 373v-271c41 -3 90 10 119 37c33 31 34 69 34 97c0 32 -4 65 -33 94c-20 20 -51 34 -82 38z" />
    <glyph glyph-name="uni0559" unicode="&#x559;" horiz-adv-x="161" 
d="M151 946v-69h-7c-34 0 -44 -21 -44 -40c0 -9 3 -18 6 -23c5 -8 16 -17 38 -17h7v-69h-19c-29 0 -57 3 -83 24c-23 19 -39 49 -39 85c0 38 17 67 39 85c26 21 54 24 83 24h19z" />
    <glyph glyph-name="uni055A" unicode="&#x55a;" horiz-adv-x="289" 
d="M97 700h142l-69 -250h-120z" />
    <glyph glyph-name="uni055B" unicode="&#x55b;" horiz-adv-x="10" 
d="M24 900l-145 -160h-83l88 160h140z" />
    <glyph glyph-name="uni055C" unicode="&#x55c;" horiz-adv-x="10" 
d="M-22 900h54c-3 -27 -13 -63 -30 -84c-17 -23 -47 -40 -95 -40c-11 0 -23 1 -34 2c-15 1 -30 3 -45 3s-31 -1 -46 -12c-7 -5 -15 -14 -18 -29h-54c3 29 11 62 30 85c27 32 59 39 94 39c27 0 55 -4 82 -4c15 0 30 1 45 12c12 9 16 20 17 28z" />
    <glyph glyph-name="uni055D" unicode="&#x55d;" horiz-adv-x="20" 
d="M-208 900h140l88 -160h-83z" />
    <glyph glyph-name="uni055E" unicode="&#x55e;" horiz-adv-x="10" 
d="M-202 734h-64c45 75 105 166 197 166c55 0 89 -32 89 -80c0 -44 -27 -93 -92 -93c-27 0 -46 7 -59 15l17 34c9 -5 18 -8 27 -8c13 0 25 9 25 25c0 11 -3 27 -26 27c-47 0 -81 -39 -114 -86z" />
    <glyph glyph-name="uni055F" unicode="&#x55f;" horiz-adv-x="331" 
d="M321 798v-70h-159c-28 0 -71 3 -103 24c-33 22 -49 59 -49 94c0 24 8 53 25 78l85 -30c-8 -15 -17 -38 -17 -55s8 -27 16 -32c12 -8 28 -9 34 -9h168z" />
    <glyph glyph-name="uni0561" unicode="&#x561;" horiz-adv-x="902" 
d="M701 518h136v-518h-129v88h-3c-13 -29 -33 -53 -66 -73c-31 -19 -56 -23 -92 -23c-31 0 -62 2 -93 25c-19 13 -39 35 -50 72h-3c-15 -28 -37 -52 -70 -72s-61 -25 -100 -25c-43 0 -85 7 -121 44c-43 43 -45 94 -45 137v345h136v-291c0 -27 -2 -65 15 -92
c11 -16 29 -32 62 -32c35 0 63 18 80 42c23 31 25 68 25 87v286h136v-291c0 -43 2 -62 9 -78c8 -20 27 -46 66 -46c33 0 61 14 80 38c13 16 27 44 27 91v286z" />
    <glyph glyph-name="uni0562" unicode="&#x562;" horiz-adv-x="615" 
d="M201 -214h-136v732h131v-81h3c21 32 71 89 172 89c32 0 80 -6 124 -41c44 -37 52 -81 52 -132v-128h-136v88c0 23 -5 47 -16 64s-32 38 -72 38c-24 0 -63 -8 -94 -49c-13 -19 -28 -47 -28 -87v-181h349v-98h-349v-214z" />
    <glyph glyph-name="uni0563" unicode="&#x563;" horiz-adv-x="688" 
d="M407 -214v200l3 85h-2c-35 -53 -84 -79 -149 -79c-53 0 -125 18 -175 89c-43 61 -49 134 -49 191c0 52 7 118 54 177c29 37 82 77 164 77c84 0 140 -41 169 -97h2v89h119v-420h135v-98h-135v-214h-136zM407 259c0 52 -15 85 -23 100c-30 52 -69 59 -92 59
c-21 0 -65 -7 -92 -59c-8 -15 -23 -48 -23 -100s15 -85 23 -100c26 -53 72 -59 92 -59c22 0 63 7 92 59c8 15 23 48 23 100z" />
    <glyph glyph-name="uni0564" unicode="&#x564;" horiz-adv-x="692" 
d="M201 0h-136v518h131v-81h3c21 32 71 89 172 89c32 0 80 -6 124 -41c43 -37 52 -82 52 -122v-265h135v-98h-135v-214h-136v527c0 23 -5 47 -16 64s-32 38 -72 38c-39 0 -71 -18 -94 -49c-16 -23 -28 -58 -28 -87v-279z" />
    <glyph glyph-name="uni0565" unicode="&#x565;" horiz-adv-x="612" 
d="M411 262h136v-262h-131v81h-3c-21 -32 -71 -89 -172 -89c-41 0 -87 9 -124 42c-51 45 -52 97 -52 149v502h136v-167h356v-98h-356v-215c0 -23 2 -49 15 -69c11 -17 32 -33 71 -33c68 0 124 56 124 141v18z" />
    <glyph glyph-name="uni0566" unicode="&#x566;" horiz-adv-x="627" 
d="M411 518h136v-634h125v-98h-261v295h-3c-54 -81 -129 -89 -170 -89c-39 0 -82 7 -121 42c-51 45 -52 97 -52 149v335h136v-313c0 -23 2 -49 15 -69c11 -17 32 -33 71 -33c44 0 75 20 98 52c21 31 26 58 26 89v274z" />
    <glyph glyph-name="uni0567" unicode="&#x567;" horiz-adv-x="514" 
d="M321 -88v41c0 23 -6 34 -13 39c-9 7 -36 8 -44 8h-199v685h136v-167h291v-98h-291v-322h129c32 0 75 -2 103 -37c21 -27 24 -61 24 -92v-57h-136z" />
    <glyph glyph-name="uni0568" unicode="&#x568;" horiz-adv-x="624" 
d="M559 -214h-494v732h131v-81h3c37 56 95 89 171 89c32 0 82 -5 125 -41c43 -37 52 -82 52 -122v-363h-136v313c0 23 -5 47 -16 64s-32 38 -72 38c-39 0 -71 -18 -94 -49c-16 -23 -28 -58 -28 -87v-395h358v-98z" />
    <glyph glyph-name="uni0569" unicode="&#x569;" horiz-adv-x="720" 
d="M201 -214h-136v732h122v-96h3c23 29 52 56 79 72c47 28 93 32 137 32c51 0 103 -5 155 -46c67 -53 79 -121 79 -157h70v-98h-67l-1 -25c-3 -47 -7 -91 -44 -138c-43 -55 -94 -70 -158 -70c-28 0 -79 5 -118 39c-23 18 -53 60 -53 132c0 24 3 72 39 112
c39 43 86 48 121 48h69l-1 16c-1 21 -19 43 -34 54c-21 16 -54 22 -86 22c-65 0 -105 -29 -128 -52c-41 -41 -48 -87 -48 -130v-447zM502 225h-69c-41 0 -58 -30 -58 -70c0 -15 2 -33 15 -48c11 -12 26 -18 47 -18c63 0 65 59 65 74v62z" />
    <glyph glyph-name="uni056A" unicode="&#x56a;" horiz-adv-x="661" 
d="M651 420h-108v-186c0 -56 -1 -113 -52 -168c-35 -37 -94 -74 -198 -74c-73 0 -133 17 -184 69c-69 69 -74 162 -74 213c0 53 10 130 68 186c56 56 119 58 190 58h114v167h136v-167h108v-98zM407 420h-114c-49 0 -121 -19 -121 -151c0 -72 19 -167 122 -167
c90 0 113 71 113 122v196z" />
    <glyph glyph-name="uni056B" unicode="&#x56b;" horiz-adv-x="612" 
d="M201 -214h-136v899h136v-166l-4 -82h2c37 56 95 89 171 89c32 0 82 -5 125 -41c43 -37 52 -82 52 -122v-363h-136v313c0 23 -5 47 -16 64s-32 38 -72 38c-39 0 -71 -18 -94 -49c-16 -23 -28 -58 -28 -87v-493z" />
    <glyph glyph-name="uni056C" unicode="&#x56c;" horiz-adv-x="297" 
d="M377 -214h-312v732h136v-634h176v-98z" />
    <glyph glyph-name="uni056D" unicode="&#x56d;" horiz-adv-x="843" 
d="M201 -214h-136v899h136v-167h251v-250c0 -51 -2 -92 10 -119c9 -19 28 -46 75 -46s72 25 83 42c23 35 22 78 22 110v263h136v-518h-122v83h-3c-51 -83 -127 -91 -167 -91c-43 0 -81 8 -113 39c-29 28 -57 78 -57 151v238h-115v-634z" />
    <glyph glyph-name="uni056E" unicode="&#x56e;" horiz-adv-x="582" 
d="M524 516v-98c-17 3 -36 4 -56 4c55 -64 67 -129 67 -180c0 -57 -19 -122 -55 -167c-59 -75 -141 -83 -189 -83c-73 0 -140 21 -193 82c-51 57 -63 123 -63 184c0 72 20 129 65 176c27 28 71 62 140 75c-31 28 -61 53 -90 76l50 100h121l-35 -74c36 -31 68 -60 99 -89
c43 0 89 -2 139 -6zM316 418c-86 -2 -112 -51 -126 -87c-14 -39 -15 -80 -15 -87c0 -35 7 -83 30 -111c24 -31 57 -38 84 -38c25 0 60 5 83 40c19 28 21 68 21 85c0 64 -21 138 -77 198z" />
    <glyph glyph-name="uni056F" unicode="&#x56f;" horiz-adv-x="612" 
d="M411 518h136v-732h-136v214l5 81h-3c-21 -32 -71 -89 -172 -89c-41 0 -87 9 -124 42c-51 45 -52 97 -52 149v502h136v-480c0 -23 2 -49 15 -69c11 -16 32 -33 73 -33c43 0 73 19 96 52c21 31 26 58 26 89v274z" />
    <glyph glyph-name="uni0570" unicode="&#x570;" horiz-adv-x="612" 
d="M65 0v685h136v-168l-5 -80h3c43 60 104 89 179 89c36 0 80 -8 119 -44c43 -40 50 -86 50 -139v-343h-136v298c0 27 -1 58 -14 81c-8 15 -29 36 -74 36c-31 0 -66 -14 -93 -51c-25 -35 -29 -67 -29 -106v-258h-136z" />
    <glyph glyph-name="uni0571" unicode="&#x571;" horiz-adv-x="625" 
d="M463 0l-19 44c-61 -27 -146 -52 -230 -52c-35 0 -90 4 -130 36c-32 25 -44 59 -44 100c0 47 16 82 43 117l200 271c5 7 6 12 6 15c0 7 -5 7 -8 8l-66 15c-11 2 -17 10 -17 23c0 7 2 13 5 18l47 90h135l-38 -62c-1 -2 -2 -4 -2 -7c0 -5 4 -9 11 -11l63 -12
c15 -3 23 -11 23 -24c0 -6 -2 -12 -6 -18l-39 -59l203 -492h-137zM315 373l-113 -157c-8 -11 -20 -30 -20 -57s13 -41 26 -48c3 -3 19 -11 54 -11c45 0 108 16 149 32z" />
    <glyph glyph-name="uni0572" unicode="&#x572;" horiz-adv-x="627" 
d="M201 0h-136v518h131v-81h3c37 56 95 89 171 89c32 0 82 -5 125 -41c43 -37 52 -82 52 -122v-479h125v-98h-261v527c0 23 -5 47 -16 64s-32 38 -72 38c-39 0 -71 -18 -94 -49c-16 -23 -28 -58 -28 -87v-279z" />
    <glyph glyph-name="uni0573" unicode="&#x573;" horiz-adv-x="618" 
d="M450 0l-16 49c-77 -40 -167 -57 -228 -57c-36 0 -83 7 -120 43c-31 28 -41 64 -41 103c0 48 14 79 34 110l115 179c-29 3 -56 3 -83 -1v107c55 5 104 5 151 -2l62 94c25 37 58 65 127 65c35 0 66 -5 77 -8v-104c-19 7 -42 10 -59 10c-31 0 -47 -16 -54 -27l-43 -60
c40 -21 66 -53 87 -117l129 -384h-138zM407 138l-66 194c-15 43 -32 55 -41 62l-100 -168c-7 -13 -17 -30 -17 -53c0 -19 8 -39 24 -54c17 -15 35 -19 58 -19c39 0 95 15 142 38z" />
    <glyph glyph-name="uni0574" unicode="&#x574;" horiz-adv-x="664" 
d="M201 518v-313c0 -42 7 -102 83 -102c71 0 127 63 127 141v315c0 32 1 73 26 101c26 28 62 30 86 30c11 0 65 0 149 -16v-100c-27 8 -57 13 -80 13c-19 0 -45 -3 -45 -41v-546h-131v81h-3c-53 -82 -134 -89 -174 -89c-39 0 -83 7 -122 42c-51 45 -52 97 -52 149v335h136z
" />
    <glyph glyph-name="uni0575" unicode="&#x575;" horiz-adv-x="301" 
d="M-30 -203v100c27 -7 59 -13 82 -13c29 0 42 5 42 73v561h136v-568c0 -40 4 -90 -21 -127c-27 -40 -71 -42 -103 -42c-29 0 -77 1 -136 16z" />
    <glyph glyph-name="uni0576" unicode="&#x576;" horiz-adv-x="622" 
d="M421 518h136v-518h-131v81h-3c-21 -32 -71 -89 -172 -89c-41 0 -87 9 -124 42c-51 45 -52 97 -52 149v404h-135v98h271v-480c0 -23 2 -49 15 -69c11 -17 31 -33 68 -33c47 0 81 21 101 50c24 35 26 72 26 91v274z" />
    <glyph glyph-name="uni0577" unicode="&#x577;" horiz-adv-x="471" 
d="M428 -214h-288c-68 0 -115 41 -115 108c0 49 20 81 43 114l183 253c26 36 38 64 38 96c0 36 -27 62 -79 62c-49 0 -106 -12 -143 -27v106c44 15 104 28 166 28c140 0 191 -85 191 -154c0 -75 -29 -120 -80 -189l-155 -209c-7 -9 -19 -30 -19 -49c0 -25 19 -41 50 -41h208
v-98z" />
    <glyph glyph-name="uni0578" unicode="&#x578;" horiz-adv-x="612" 
d="M201 0h-136v518h131v-81h3c54 81 134 89 175 89c39 0 82 -9 121 -41c43 -37 52 -82 52 -122v-363h-136v313c0 21 -1 41 -16 64c-17 27 -41 38 -72 38c-39 0 -71 -18 -94 -49c-16 -23 -28 -58 -28 -87v-279z" />
    <glyph glyph-name="uni0579" unicode="&#x579;" horiz-adv-x="412" 
d="M407 -214h-307c-52 0 -95 37 -95 93c0 36 14 58 18 63l166 237c7 8 11 20 11 31c0 9 -3 16 -10 23l-99 93c-8 8 -16 23 -16 38c0 11 4 27 9 36l68 118h146l-67 -108c-5 -9 -13 -26 -13 -34c0 -14 10 -24 17 -31l88 -84c13 -13 20 -32 20 -48c0 -29 -18 -48 -29 -65
l-148 -202c-7 -11 -13 -21 -13 -33c0 -28 27 -29 43 -29h211v-98z" />
    <glyph glyph-name="uni057A" unicode="&#x57a;" horiz-adv-x="902" 
d="M701 518h136v-732h-136v205l4 97h-2c-12 -29 -32 -54 -64 -73c-31 -19 -57 -23 -92 -23c-31 0 -62 2 -93 25c-19 13 -39 35 -50 72h-3c-15 -28 -37 -52 -70 -72c-35 -20 -61 -25 -98 -25c-45 0 -87 8 -123 44c-43 43 -45 94 -45 137v345h136v-291c0 -27 -2 -65 15 -92
c11 -16 29 -32 62 -32c35 0 63 18 80 42c23 31 25 68 25 87v286h136v-291c0 -43 2 -62 9 -78c7 -19 26 -46 70 -46c31 0 57 14 76 38c13 16 27 44 27 91v286z" />
    <glyph glyph-name="uni057B" unicode="&#x57b;" horiz-adv-x="547" 
d="M475 -214h-330c-24 0 -48 1 -71 25c-14 15 -21 32 -21 53c0 23 8 45 23 60l71 76c27 28 36 40 36 69c0 36 -15 51 -63 78c-16 9 -36 23 -52 43c-19 24 -33 57 -33 100c0 51 16 113 72 168c51 49 108 68 175 68c95 0 150 -41 181 -77c41 -49 49 -102 49 -141
c0 -49 -11 -95 -43 -140c-36 -51 -98 -98 -154 -145c-100 -85 -109 -103 -109 -114c0 -6 1 -25 28 -25h241v-98zM256 110l4 -1c32 31 65 68 84 103c19 33 26 60 26 96c0 28 -5 57 -28 82c-21 23 -41 28 -68 28c-31 0 -56 -9 -75 -36c-19 -24 -23 -55 -23 -82
c0 -21 5 -39 14 -54c11 -17 24 -29 39 -45c12 -13 28 -38 27 -91z" />
    <glyph glyph-name="uni057C" unicode="&#x57c;" horiz-adv-x="619" 
d="M201 0h-136v518h131v-81h3c53 82 136 89 176 89c39 0 86 -7 126 -46c46 -46 52 -101 52 -141c0 -42 -8 -135 -96 -241h127v-98h-256v94c63 60 90 138 90 201c0 31 -8 59 -23 82c-19 27 -40 38 -72 38c-39 0 -71 -18 -94 -49c-16 -23 -28 -58 -28 -87v-279z" />
    <glyph glyph-name="uni057D" unicode="&#x57d;" horiz-adv-x="612" 
d="M411 518h136v-518h-131v81h-3c-54 -81 -134 -89 -175 -89c-39 0 -82 7 -121 42c-51 45 -52 97 -52 149v335h136v-313c0 -23 2 -49 15 -69c11 -17 32 -33 71 -33c44 0 75 20 98 52c21 31 26 58 26 89v274z" />
    <glyph glyph-name="uni057E" unicode="&#x57e;" horiz-adv-x="628" 
d="M412 685h136v-810h125v-89h-261v214l5 81h-3c-19 -27 -66 -89 -173 -89c-48 0 -91 14 -120 38c-56 48 -55 123 -55 162v326h136v-313c0 -25 1 -45 15 -68c16 -27 40 -34 68 -34c40 0 75 14 101 51c22 31 26 62 26 90v441z" />
    <glyph glyph-name="uni057F" unicode="&#x57f;" horiz-adv-x="902" 
d="M383 232v286h129v-88h3c13 29 33 53 66 73c31 19 56 23 91 23c31 0 78 -3 114 -34c51 -45 51 -113 51 -161v-331h-136v313c0 21 -2 60 -21 81c-11 12 -31 21 -56 21c-39 0 -63 -19 -78 -38c-25 -32 -27 -72 -27 -91v-286h-129v88h-3c-13 -29 -33 -53 -66 -73
c-31 -19 -56 -23 -91 -23c-31 0 -78 3 -114 34c-51 43 -51 115 -51 161v331h136v-313c0 -21 2 -60 21 -81c11 -12 30 -21 54 -21c40 0 65 19 80 38c25 32 27 72 27 91z" />
    <glyph glyph-name="uni0580" unicode="&#x580;" horiz-adv-x="612" 
d="M201 -214h-136v732h131v-81h3c37 56 95 89 171 89c32 0 82 -5 125 -41c43 -37 52 -82 52 -122v-363h-136v313c0 23 -5 47 -16 64s-32 38 -72 38c-25 0 -63 -8 -94 -49c-23 -29 -28 -58 -28 -87v-493z" />
    <glyph glyph-name="uni0581" unicode="&#x581;" horiz-adv-x="612" 
d="M547 518v-473c0 -54 -2 -146 -82 -210c-56 -44 -120 -57 -188 -57c-71 0 -127 11 -187 38l11 114c47 -24 106 -41 165 -41c92 0 145 50 145 139v64h-3c-40 -89 -122 -94 -152 -94c-64 0 -112 21 -151 60c-53 56 -70 123 -70 194c0 59 9 135 61 199c32 37 80 75 158 75
c64 0 129 -26 162 -95h3v87h128zM292 411c-40 0 -67 -13 -90 -49c-21 -33 -25 -67 -25 -102c0 -13 1 -67 25 -104c15 -23 42 -50 89 -50c28 0 67 10 95 53c23 35 25 70 25 101c0 37 -6 79 -35 114c-23 27 -51 37 -84 37z" />
    <glyph glyph-name="uni0582" unicode="&#x582;" horiz-adv-x="361" 
d="M351 0h-286v518h136v-420h150v-98z" />
    <glyph glyph-name="uni0583" unicode="&#x583;" horiz-adv-x="902" 
d="M383 232v453h136v-167l-6 -87h3c42 93 134 95 156 95c31 0 78 -3 114 -34c51 -45 51 -113 51 -161v-331h-136v313c0 21 -2 60 -21 81c-11 12 -31 21 -56 21c-31 0 -60 -14 -79 -37c-17 -23 -26 -59 -26 -92v-500h-136v214l6 87h-3c-45 -92 -135 -95 -156 -95
c-31 0 -78 3 -114 34c-51 43 -51 115 -51 161v331h136v-313c0 -21 2 -60 21 -81c11 -12 31 -21 55 -21c61 0 106 49 106 129z" />
    <glyph glyph-name="uni0584" unicode="&#x584;" horiz-adv-x="655" 
d="M237 -214h-136v93h-101v98h101v541h121v-69h3c17 25 52 77 154 77c88 0 141 -36 174 -91c31 -51 36 -110 36 -150c0 -89 -25 -150 -57 -187c-47 -55 -108 -69 -161 -69c-77 0 -112 27 -131 51h-3v-103h363v-98h-363v-93zM344 418c-39 0 -64 -17 -80 -37
c-23 -31 -26 -75 -26 -98c0 -35 7 -76 20 -99c11 -20 35 -45 84 -45c35 0 57 12 76 37c25 35 29 70 29 105c0 31 -3 66 -22 94c-18 29 -45 43 -81 43z" />
    <glyph glyph-name="uni0585" unicode="&#x585;" horiz-adv-x="604" 
d="M35 259c0 72 16 146 84 206c61 53 126 61 183 61s122 -8 183 -61c68 -60 84 -134 84 -206s-16 -146 -84 -206c-61 -53 -126 -61 -183 -61s-122 8 -183 61c-68 60 -84 134 -84 206zM177 259c0 -33 4 -76 27 -112c29 -47 70 -57 98 -57s69 10 98 57c23 36 27 79 27 112
s-4 76 -27 112c-29 47 -70 57 -98 57s-69 -10 -98 -57c-23 -36 -27 -79 -27 -112z" />
    <glyph glyph-name="uni0586" unicode="&#x586;" horiz-adv-x="773" 
d="M311 -214v204c-145 0 -276 83 -276 209h139c5 -76 91 -99 137 -99v277c-95 18 -212 40 -212 169c0 75 58 139 162 139h186v-222c177 -33 281 -78 281 -235c0 -127 -98 -238 -281 -238v-204h-136zM447 355v-255c70 7 139 32 139 124c0 85 -59 115 -139 131zM320 591h-28
c-29 0 -62 -9 -62 -48c0 -29 15 -56 90 -64v112z" />
    <glyph glyph-name="uni0587" unicode="&#x587;" horiz-adv-x="692" 
d="M411 518h136v-420h135v-98h-266v81h-3c-54 -81 -134 -89 -174 -89c-64 0 -101 22 -122 41c-51 43 -52 100 -52 150v502h136v-480c0 -23 2 -49 15 -69c11 -16 31 -33 70 -33c45 0 76 20 99 52c21 31 26 58 26 89v274z" />
    <glyph glyph-name="uni0589" unicode="&#x589;" horiz-adv-x="260" 
d="M200 518v-142h-140v142h140zM200 142v-142h-140v142h140z" />
    <glyph glyph-name="uni058A" unicode="&#x58a;" horiz-adv-x="502" 
d="M80 22l55 65c43 -63 97 -67 124 -67c51 0 105 19 145 41l18 -59c-45 -26 -119 -58 -188 -58c-81 0 -129 44 -154 78z" />
    <glyph glyph-name="uni058F" unicode="&#x58f;" horiz-adv-x="774" 
d="M451 216c0 30 -9 61 -27 98c77 -13 127 -83 127 -156c0 -83 -72 -166 -164 -166c-32 0 -70 11 -96 30c90 21 160 101 160 194zM323 484c0 -31 6 -62 27 -98c-73 17 -126 79 -126 155c0 83 68 167 165 167c33 0 67 -11 93 -30c-94 -20 -159 -98 -159 -194zM586 163
c0 70 -40 156 -149 188c29 15 64 24 91 24c79 0 155 -65 155 -167c0 -96 -63 -145 -128 -158c16 29 31 72 31 113zM201 150c70 0 155 42 187 148c18 -28 26 -62 26 -90c0 -79 -66 -155 -167 -155c-94 0 -144 64 -158 131c28 -20 70 -34 112 -34zM248 286c30 0 66 5 103 27
c-17 -71 -81 -125 -154 -125c-84 0 -167 76 -167 161c0 34 9 68 27 93c20 -76 89 -156 191 -156zM575 549c-71 0 -157 -41 -191 -150c-14 28 -23 64 -23 92c0 79 66 155 167 155c93 0 142 -67 156 -131c-28 18 -69 34 -109 34zM189 536c0 -70 40 -156 147 -189
c-30 -14 -64 -23 -89 -23c-80 0 -157 65 -157 167c0 92 67 142 131 156c-16 -27 -32 -69 -32 -111zM521 415c-30 0 -64 -6 -98 -28c16 71 80 125 155 125c94 0 166 -77 166 -163c0 -33 -10 -69 -28 -94c-18 83 -80 160 -195 160z" />
    <glyph glyph-name="uni1E9E" unicode="&#x1e9e;" horiz-adv-x="680" 
d="M70 0v473c0 60 8 126 72 179c51 42 125 58 197 58c108 0 191 -30 257 -85l-154 -201c49 0 102 -17 136 -48c50 -45 57 -107 57 -155c0 -51 -10 -126 -79 -180c-58 -46 -124 -49 -189 -49c-30 0 -55 2 -90 8l10 107c26 -9 43 -10 68 -10c29 0 77 0 107 35
c19 22 27 56 27 84c0 30 -8 66 -28 87c-25 26 -60 29 -87 29h-77v70l128 174c-17 13 -32 20 -54 24c-12 2 -23 4 -35 4c-36 0 -74 -11 -96 -34c-26 -27 -28 -63 -28 -96v-474h-142z" />
    <glyph glyph-name="uni2010" unicode="&#x2010;" horiz-adv-x="440" 
d="M80 344h280v-120h-280v120z" />
    <glyph glyph-name="uni2011" unicode="&#x2011;" horiz-adv-x="440" 
d="M80 344h280v-120h-280v120z" />
    <glyph glyph-name="figuredash" unicode="&#x2012;" horiz-adv-x="740" 
d="M100 403h540v-90h-540v90z" />
    <glyph glyph-name="endash" unicode="&#x2013;" horiz-adv-x="740" 
d="M100 328h540v-90h-540v90z" />
    <glyph glyph-name="emdash" unicode="&#x2014;" horiz-adv-x="1000" 
d="M100 328h800v-90h-800v90z" />
    <glyph glyph-name="afii00208" unicode="&#x2015;" horiz-adv-x="1000" 
d="M100 328h800v-90h-800v90z" />
    <glyph glyph-name="quoteleft" unicode="&#x2018;" horiz-adv-x="287" 
d="M60 450l47 250h120l-25 -250h-142z" />
    <glyph glyph-name="quoteright" unicode="&#x2019;" horiz-adv-x="289" 
d="M97 700h142l-69 -250h-120z" />
    <glyph glyph-name="quotesinglbase" unicode="&#x201a;" horiz-adv-x="289" 
d="M97 135h142l-69 -250h-120z" />
    <glyph glyph-name="quotedblleft" unicode="&#x201c;" horiz-adv-x="527" 
d="M60 450l47 250h120l-25 -250h-142zM300 450l47 250h120l-25 -250h-142z" />
    <glyph glyph-name="quotedblright" unicode="&#x201d;" horiz-adv-x="549" 
d="M107 700h142l-69 -250h-120zM347 700h142l-69 -250h-120z" />
    <glyph glyph-name="quotedblbase" unicode="&#x201e;" horiz-adv-x="549" 
d="M107 135h142l-69 -250h-120zM347 135h142l-69 -250h-120z" />
    <glyph glyph-name="dagger" unicode="&#x2020;" horiz-adv-x="656" 
d="M258 -214v546h-228v140h228v228h140v-228h228v-140h-228v-546h-140z" />
    <glyph glyph-name="daggerdbl" unicode="&#x2021;" horiz-adv-x="656" 
d="M398 14v-228h-140v228h-228v140h228v178h-228v140h228v228h140v-228h228v-140h-228v-178h228v-140h-228z" />
    <glyph glyph-name="bullet" unicode="&#x2022;" horiz-adv-x="404" 
d="M30 350c0 95 77 172 172 172s172 -77 172 -172s-77 -172 -172 -172s-172 77 -172 172z" />
    <glyph glyph-name="ellipsis" unicode="&#x2026;" horiz-adv-x="735" 
d="M50 145h145v-145h-145v145zM295 145h145v-145h-145v145zM540 145h145v-145h-145v145z" />
    <glyph glyph-name="perthousand" unicode="&#x2030;" horiz-adv-x="1196" 
d="M588 727l76 -47l-435 -700l-76 47zM191 708c117 0 166 -93 166 -195s-49 -195 -166 -195s-166 93 -166 195s49 195 166 195zM191 643c-54 0 -52 -79 -52 -130s-2 -130 52 -130s52 79 52 130s2 130 -52 130zM623 382c117 0 166 -93 166 -195s-49 -195 -166 -195
s-166 93 -166 195s49 195 166 195zM623 317c-54 0 -52 -79 -52 -130s-2 -130 52 -130s52 79 52 130s2 130 -52 130zM1005 382c117 0 166 -93 166 -195s-49 -195 -166 -195s-166 93 -166 195s49 195 166 195zM1005 317c-54 0 -52 -79 -52 -130s-2 -130 52 -130s52 79 52 130
s2 130 -52 130z" />
    <glyph glyph-name="guilsinglleft" unicode="&#x2039;" horiz-adv-x="323" 
d="M173 315l110 -211h-127l-116 211l116 203h127z" />
    <glyph glyph-name="guilsinglright" unicode="&#x203a;" horiz-adv-x="323" 
d="M150 315l-110 203h127l116 -203l-116 -211h-127z" />
    <glyph glyph-name="fraction" unicode="&#x2044;" horiz-adv-x="219" 
d="M-100 -2l343 736l76 -32l-343 -736z" />
    <glyph glyph-name="Euro" unicode="&#x20ac;" 
d="M571 141l9 -119c-23 -8 -97 -30 -181 -30c-92 0 -176 31 -235 86c-44 41 -77 98 -91 159h-98l25 83h61c-1 9 -2 17 -2 26c0 13 0 25 2 38h-85l25 83h74c20 78 72 146 135 187c65 42 140 54 215 54c55 0 103 -7 155 -24l-6 -120c-41 16 -86 26 -139 26
c-66 0 -107 -16 -144 -45c-32 -25 -48 -50 -58 -78h315l-26 -83h-311v-64h289l-26 -83h-245c12 -36 33 -61 51 -77c33 -29 83 -50 145 -50c44 0 96 8 146 31z" />
    <glyph glyph-name="uni20B4" unicode="&#x20b4;" 
d="M106 227h-60v90h103c26 31 69 56 111 77h-214v90h311c6 13 9 27 9 42c0 40 -29 74 -92 74c-38 0 -84 -11 -126 -27l-15 112c63 15 122 23 180 23c132 0 200 -83 200 -177c0 -17 -3 -32 -6 -47h61v-90h-110c-31 -29 -80 -55 -126 -77h236v-90h-313c-4 -12 -5 -24 -5 -36
c0 -36 27 -84 98 -84c35 0 91 7 147 33l15 -122c-60 -19 -137 -26 -178 -26c-164 0 -231 107 -231 184c0 18 2 35 5 51z" />
    <glyph glyph-name="uni20B6" unicode="&#x20b6;" 
d="M264 385h43c86 0 118 53 118 106c0 58 -36 99 -118 99h-43v-205zM122 700h187c254 0 266 -175 266 -219c0 -92 -61 -206 -240 -206h-71v-83h151v-90h-151v-102h-142v102h-95v90h95v83h-95v110h95v315z" />
    <glyph glyph-name="uni20B7" unicode="&#x20b7;" 
d="M264 385h43c86 0 118 53 118 106c0 58 -36 99 -118 99h-43v-205zM122 700h187c254 0 266 -175 266 -219c0 -92 -61 -206 -240 -206h-71v-83h151v-90h-151v-102h-142v102h-95v90h95v83h-95v110h95v315z" />
    <glyph glyph-name="uni20B8" unicode="&#x20b8;" 
d="M34 540h546v-90h-202v-450h-142v450h-202v90zM34 700h546v-90h-546v90z" />
    <glyph glyph-name="uni20B9" unicode="&#x20b9;" 
d="M264 385h43c86 0 118 53 118 106c0 58 -36 99 -118 99h-43v-205zM122 700h187c254 0 266 -175 266 -219c0 -92 -61 -206 -240 -206h-71v-83h151v-90h-151v-102h-142v102h-95v90h95v83h-95v110h95v315z" />
    <glyph glyph-name="uni20BA" unicode="&#x20ba;" 
d="M264 385h43c86 0 118 53 118 106c0 58 -36 99 -118 99h-43v-205zM122 700h187c254 0 266 -175 266 -219c0 -92 -61 -206 -240 -206h-71v-83h151v-90h-151v-102h-142v102h-95v90h95v83h-95v110h95v315z" />
    <glyph glyph-name="uni20BB" unicode="&#x20bb;" 
d="M264 385h43c86 0 118 53 118 106c0 58 -36 99 -118 99h-43v-205zM122 700h187c254 0 266 -175 266 -219c0 -92 -61 -206 -240 -206h-71v-83h151v-90h-151v-102h-142v102h-95v90h95v83h-95v110h95v315z" />
    <glyph glyph-name="uni20BC" unicode="&#x20bc;" 
d="M264 385h43c86 0 118 53 118 106c0 58 -36 99 -118 99h-43v-205zM122 700h187c254 0 266 -175 266 -219c0 -92 -61 -206 -240 -206h-71v-83h151v-90h-151v-102h-142v102h-95v90h95v83h-95v110h95v315z" />
    <glyph glyph-name="uni20BD" unicode="&#x20bd;" 
d="M264 385h43c86 0 118 53 118 106c0 58 -36 99 -118 99h-43v-205zM122 700h187c254 0 266 -175 266 -219c0 -92 -61 -206 -240 -206h-71v-83h151v-90h-151v-102h-142v102h-95v90h95v83h-95v110h95v315z" />
    <glyph glyph-name="uni20BE" unicode="&#x20be;" 
d="M264 385h43c86 0 118 53 118 106c0 58 -36 99 -118 99h-43v-205zM122 700h187c254 0 266 -175 266 -219c0 -92 -61 -206 -240 -206h-71v-83h151v-90h-151v-102h-142v102h-95v90h95v83h-95v110h95v315z" />
    <glyph glyph-name="uni20BF" unicode="&#x20bf;" 
d="M264 385h43c86 0 118 53 118 106c0 58 -36 99 -118 99h-43v-205zM122 700h187c254 0 266 -175 266 -219c0 -92 -61 -206 -240 -206h-71v-83h151v-90h-151v-102h-142v102h-95v90h95v83h-95v110h95v315z" />
    <glyph glyph-name="uni20C0" unicode="&#x20c0;" 
d="M264 385h43c86 0 118 53 118 106c0 58 -36 99 -118 99h-43v-205zM122 700h187c254 0 266 -175 266 -219c0 -92 -61 -206 -240 -206h-71v-83h151v-90h-151v-102h-142v102h-95v90h95v83h-95v110h95v315z" />
    <glyph glyph-name="uni20C1" unicode="&#x20c1;" 
d="M264 385h43c86 0 118 53 118 106c0 58 -36 99 -118 99h-43v-205zM122 700h187c254 0 266 -175 266 -219c0 -92 -61 -206 -240 -206h-71v-83h151v-90h-151v-102h-142v102h-95v90h95v83h-95v110h95v315z" />
    <glyph glyph-name="uni20C2" unicode="&#x20c2;" 
d="M264 385h43c86 0 118 53 118 106c0 58 -36 99 -118 99h-43v-205zM122 700h187c254 0 266 -175 266 -219c0 -92 -61 -206 -240 -206h-71v-83h151v-90h-151v-102h-142v102h-95v90h95v83h-95v110h95v315z" />
    <glyph glyph-name="uni20C3" unicode="&#x20c3;" 
d="M264 385h43c86 0 118 53 118 106c0 58 -36 99 -118 99h-43v-205zM122 700h187c254 0 266 -175 266 -219c0 -92 -61 -206 -240 -206h-71v-83h151v-90h-151v-102h-142v102h-95v90h95v83h-95v110h95v315z" />
    <glyph glyph-name="uni20C4" unicode="&#x20c4;" 
d="M264 385h43c86 0 118 53 118 106c0 58 -36 99 -118 99h-43v-205zM122 700h187c254 0 266 -175 266 -219c0 -92 -61 -206 -240 -206h-71v-83h151v-90h-151v-102h-142v102h-95v90h95v83h-95v110h95v315z" />
    <glyph glyph-name="uni20C5" unicode="&#x20c5;" 
d="M264 385h43c86 0 118 53 118 106c0 58 -36 99 -118 99h-43v-205zM122 700h187c254 0 266 -175 266 -219c0 -92 -61 -206 -240 -206h-71v-83h151v-90h-151v-102h-142v102h-95v90h95v83h-95v110h95v315z" />
    <glyph glyph-name="uni20C6" unicode="&#x20c6;" 
d="M264 385h43c86 0 118 53 118 106c0 58 -36 99 -118 99h-43v-205zM122 700h187c254 0 266 -175 266 -219c0 -92 -61 -206 -240 -206h-71v-83h151v-90h-151v-102h-142v102h-95v90h95v83h-95v110h95v315z" />
    <glyph glyph-name="uni20C7" unicode="&#x20c7;" 
d="M264 385h43c86 0 118 53 118 106c0 58 -36 99 -118 99h-43v-205zM122 700h187c254 0 266 -175 266 -219c0 -92 -61 -206 -240 -206h-71v-83h151v-90h-151v-102h-142v102h-95v90h95v83h-95v110h95v315z" />
    <glyph glyph-name="uni20C8" unicode="&#x20c8;" 
d="M264 385h43c86 0 118 53 118 106c0 58 -36 99 -118 99h-43v-205zM122 700h187c254 0 266 -175 266 -219c0 -92 -61 -206 -240 -206h-71v-83h151v-90h-151v-102h-142v102h-95v90h95v83h-95v110h95v315z" />
    <glyph glyph-name="uni20C9" unicode="&#x20c9;" 
d="M264 385h43c86 0 118 53 118 106c0 58 -36 99 -118 99h-43v-205zM122 700h187c254 0 266 -175 266 -219c0 -92 -61 -206 -240 -206h-71v-83h151v-90h-151v-102h-142v102h-95v90h95v83h-95v110h95v315z" />
    <glyph glyph-name="uni20CA" unicode="&#x20ca;" 
d="M264 385h43c86 0 118 53 118 106c0 58 -36 99 -118 99h-43v-205zM122 700h187c254 0 266 -175 266 -219c0 -92 -61 -206 -240 -206h-71v-83h151v-90h-151v-102h-142v102h-95v90h95v83h-95v110h95v315z" />
    <glyph glyph-name="uni20CB" unicode="&#x20cb;" 
d="M264 385h43c86 0 118 53 118 106c0 58 -36 99 -118 99h-43v-205zM122 700h187c254 0 266 -175 266 -219c0 -92 -61 -206 -240 -206h-71v-83h151v-90h-151v-102h-142v102h-95v90h95v83h-95v110h95v315z" />
    <glyph glyph-name="uni20CC" unicode="&#x20cc;" 
d="M264 385h43c86 0 118 53 118 106c0 58 -36 99 -118 99h-43v-205zM122 700h187c254 0 266 -175 266 -219c0 -92 -61 -206 -240 -206h-71v-83h151v-90h-151v-102h-142v102h-95v90h95v83h-95v110h95v315z" />
    <glyph glyph-name="uni20CD" unicode="&#x20cd;" 
d="M264 385h43c86 0 118 53 118 106c0 58 -36 99 -118 99h-43v-205zM122 700h187c254 0 266 -175 266 -219c0 -92 -61 -206 -240 -206h-71v-83h151v-90h-151v-102h-142v102h-95v90h95v83h-95v110h95v315z" />
    <glyph glyph-name="uni20CE" unicode="&#x20ce;" 
d="M264 385h43c86 0 118 53 118 106c0 58 -36 99 -118 99h-43v-205zM122 700h187c254 0 266 -175 266 -219c0 -92 -61 -206 -240 -206h-71v-83h151v-90h-151v-102h-142v102h-95v90h95v83h-95v110h95v315z" />
    <glyph glyph-name="uni20CF" unicode="&#x20cf;" 
d="M264 385h43c86 0 118 53 118 106c0 58 -36 99 -118 99h-43v-205zM122 700h187c254 0 266 -175 266 -219c0 -92 -61 -206 -240 -206h-71v-83h151v-90h-151v-102h-142v102h-95v90h95v83h-95v110h95v315z" />
    <glyph glyph-name="afii61352" unicode="&#x2116;" horiz-adv-x="1036" 
d="M70 700h175l242 -441l37 -95h3l-3 124v412h133v-700h-175l-244 458l-35 78h-3l3 -124v-412h-133v700zM853 566c93 0 133 -73 133 -156c0 -81 -40 -156 -133 -156s-133 75 -133 156c0 83 40 156 133 156zM853 514c-42 0 -42 -60 -42 -104c0 -40 0 -104 42 -104
s42 64 42 104c0 44 0 104 -42 104zM986 114v-79h-266v79h266z" />
    <glyph glyph-name="uni2117" unicode="&#x2117;" horiz-adv-x="836" 
d="M60 350c0 198 160 358 358 358s358 -160 358 -358s-160 -358 -358 -358s-358 160 -358 358zM142 350c0 -152 124 -276 276 -276s276 124 276 276s-124 276 -276 276s-276 -124 -276 -276zM309 531h117c159 0 166 -91 166 -114c0 -48 -37 -115 -149 -115h-45v-136h-89v365
zM398 370h28c54 0 74 21 74 49c0 30 -22 43 -74 43h-28v-92z" />
    <glyph glyph-name="trademark" unicode="&#x2122;" horiz-adv-x="991" 
d="M60 700h330v-72h-116v-301h-98v301h-116v72zM739 327h-92l-74 219l-19 60h-3l2 -67v-212h-98v373h137l77 -213l21 -66h6l21 66l77 213h137v-373h-98v212l2 67h-3l-19 -60z" />
    <glyph glyph-name="Omega" unicode="&#x2126;" horiz-adv-x="776" 
d="M388 608c-182 0 -193 -167 -193 -208c0 -144 66 -196 150 -206v-194h-281l-17 145l104 4l6 -49h80v47c-171 33 -192 196 -192 261c0 151 103 300 343 300s343 -149 343 -300c0 -65 -21 -228 -192 -261v-47h80l6 49l104 -4l-17 -145h-281v194c84 10 150 62 150 206
c0 41 -11 208 -193 208z" />
    <glyph glyph-name="partialdiff" unicode="&#x2202;" horiz-adv-x="584" 
d="M35 243c0 175 119 258 242 258c65 0 108 -26 142 -58c-28 70 -99 147 -310 166l48 110c163 -12 392 -89 392 -431c0 -154 -80 -296 -254 -296c-150 0 -260 104 -260 251zM407 259c0 110 -60 159 -115 159s-115 -49 -115 -159s60 -159 115 -159s115 49 115 159z" />
    <glyph glyph-name="Delta" unicode="&#x2206;" horiz-adv-x="666" 
d="M648 0h-630l257 700h116zM333 534l-139 -419h278z" />
    <glyph glyph-name="product" unicode="&#x220f;" horiz-adv-x="701" 
d="M70 750h561v-1000h-142v885h-277v-885h-142v1000z" />
    <glyph glyph-name="summation" unicode="&#x2211;" horiz-adv-x="668" 
d="M22 750h595v-244h-112l-10 132h-333l248 -371l-248 -405h342l10 135h112v-247h-604v122l244 395l-244 361v122z" />
    <glyph glyph-name="minus" unicode="&#x2212;" horiz-adv-x="638" 
d="M60 394h518v-90h-518v90z" />
    <glyph glyph-name="uni2215" unicode="&#x2215;" horiz-adv-x="409" 
d="M-5 -2l343 736l76 -32l-343 -736z" />
    <glyph glyph-name="uni2219" unicode="&#x2219;" horiz-adv-x="260" 
d="M200 401v-142h-140v142h140z" />
    <glyph glyph-name="radical" unicode="&#x221a;" horiz-adv-x="810" 
d="M20 436h288l137 -350l141 687h154v-65h-96l-189 -923h-25l-241 586h-169v65z" />
    <glyph glyph-name="infinity" unicode="&#x221e;" horiz-adv-x="600" 
d="M300 298l60 56c28 26 56 39 97 39c101 0 143 -77 143 -135c0 -61 -42 -135 -143 -135c-43 0 -67 11 -97 39l-60 56l-60 -56c-30 -28 -54 -39 -97 -39c-101 0 -143 74 -143 135c0 58 42 135 143 135c41 0 69 -13 97 -39zM252 258l-52 46c-17 15 -27 27 -58 27
c-47 0 -74 -35 -74 -73c0 -36 27 -74 74 -74c29 0 40 12 58 28zM348 258l52 -46c18 -16 29 -28 58 -28c47 0 74 38 74 74c0 38 -27 73 -74 73c-31 0 -41 -12 -58 -27z" />
    <glyph glyph-name="integral" unicode="&#x222b;" horiz-adv-x="553" 
d="M75 -254l26 108c17 -8 41 -12 63 -12c13 0 26 6 33 15c6 8 11 24 11 76v648c0 54 -2 121 37 168c29 35 79 54 135 54c48 0 80 -10 98 -16l-27 -112c-20 7 -48 8 -67 8c-14 0 -24 -8 -30 -15c-7 -8 -12 -24 -12 -76v-649c0 -54 2 -120 -37 -167c-28 -34 -80 -54 -135 -54
c-22 0 -53 5 -95 24z" />
    <glyph glyph-name="approxequal" unicode="&#x2248;" horiz-adv-x="638" 
d="M500 551l60 -45c-41 -61 -78 -101 -147 -101c-47 0 -84 17 -119 33c-21 10 -44 20 -67 20s-62 -10 -89 -50l-60 45c39 60 80 101 147 101c23 0 46 -4 67 -11c18 -6 35 -14 52 -22c21 -10 44 -20 67 -20s62 10 89 50zM500 361l60 -45c-41 -61 -78 -101 -147 -101
c-47 0 -84 17 -119 33c-21 10 -44 20 -67 20s-62 -10 -89 -50l-60 45c39 60 80 101 147 101c23 0 46 -4 67 -11c18 -6 35 -14 52 -22c21 -10 44 -20 67 -20s62 10 89 50z" />
    <glyph glyph-name="notequal" unicode="&#x2260;" horiz-adv-x="638" 
d="M60 209v90h199l47 100h-246v90h289l65 140l58 -28l-52 -112h158v-90h-201l-47 -100h248v-90h-290l-65 -139l-58 28l52 111h-157z" />
    <glyph glyph-name="lessequal" unicode="&#x2264;" horiz-adv-x="638" 
d="M59 359l527 -292v-101l-527 292v101zM245 453l341 -189v-106l-534 295l534 295v-106z" />
    <glyph glyph-name="greaterequal" unicode="&#x2265;" horiz-adv-x="638" 
d="M52 67l527 292v-101l-527 -292v101zM52 264l341 189l-341 189v106l534 -295l-534 -295v106z" />
    <glyph glyph-name="dotmath" unicode="&#x22c5;" horiz-adv-x="260" 
d="M200 401v-142h-140v142h140z" />
    <glyph glyph-name="lozenge" unicode="&#x25ca;" horiz-adv-x="700" 
d="M90 334l260 360l260 -360l-260 -360zM468 334l-118 162l-118 -162l118 -162z" />
    <glyph glyph-name="uniF400" unicode="&#xf400;" horiz-adv-x="2" 
d="M-55 733l-145 -160h-83l88 160h140z" />
    <glyph glyph-name="uniF401" unicode="&#xf401;" horiz-adv-x="2" 
d="M-388 730l83 150h159l-132 -150h-110z" />
    <glyph glyph-name="uniF406" unicode="&#xf406;" horiz-adv-x="446" 
d="M322 880h64c-4 -137 -128 -140 -163 -140s-159 3 -163 140h64c1 -18 9 -60 99 -60s98 42 99 60z" />
    <glyph glyph-name="uniF407" unicode="&#xf407;" horiz-adv-x="232" 
d="M69 22l72 -4l-14 -83c55 -1 105 -33 105 -102c0 -60 -43 -102 -138 -102c-37 0 -64 7 -94 25l25 57c12 -8 29 -15 51 -15c39 0 54 14 54 36c0 31 -22 50 -57 50c-10 0 -21 -1 -31 -5z" />
    <glyph glyph-name="uniF408" unicode="&#xf408;" horiz-adv-x="458" 
d="M229 804l-55 -64h-114l113 140h112l113 -140h-114z" />
    <glyph glyph-name="uniF409" unicode="&#xf409;" horiz-adv-x="276" 
d="M86 -50h140l-56 -190h-120z" />
    <glyph glyph-name="uniF40A" unicode="&#xf40a;" horiz-adv-x="287" 
d="M97 750h140l-69 -250h-118z" />
    <glyph glyph-name="uniF40B" unicode="&#xf40b;" horiz-adv-x="262" 
d="M60 876h142v-126h-142v126z" />
    <glyph glyph-name="uniF40C" unicode="&#xf40c;" horiz-adv-x="332" 
d="M60 830c0 59 47 106 106 106s106 -47 106 -106s-47 -106 -106 -106s-106 47 -106 106zM110 830c0 -30 26 -56 56 -56s56 26 56 56s-26 56 -56 56s-56 -26 -56 -56z" />
    <glyph glyph-name="uniF40D" unicode="&#xf40d;" horiz-adv-x="420" 
d="M85 732h-55c4 35 25 128 116 128c12 0 35 -2 73 -16c25 -9 42 -18 70 -18c37 0 45 31 46 47h55c-12 -99 -71 -129 -117 -129c-23 0 -46 9 -72 18c-37 13 -54 18 -69 18c-39 0 -46 -34 -47 -48z" />
    <glyph glyph-name="uniF40E" unicode="&#xf40e;" horiz-adv-x="272" 
d="M138 0h89c-100 -54 -113 -112 -113 -149c0 -22 2 -61 54 -61c22 0 60 9 87 23l17 -50c-39 -23 -77 -36 -132 -36c-22 0 -140 -2 -140 103c0 84 66 144 138 170z" />
    <glyph glyph-name="uniF43E" unicode="&#xf43e;" horiz-adv-x="576" 
d="M15 700h546v-124h-202v-576h-39l-5 -32c52 -1 75 -48 75 -88c0 -44 -34 -89 -110 -89c-34 0 -58 14 -73 25l25 51c11 -8 30 -17 45 -17s39 5 39 30c0 27 -19 38 -44 38c-10 0 -20 0 -30 -3l18 85h-43v576h-202v124z" />
    <glyph glyph-name="uniF43F" unicode="&#xf43f;" horiz-adv-x="396" 
d="M112 418h-102v100h102v103l136 43v-146h120v-100h-120v-235c0 -45 0 -91 67 -91c18 0 37 4 53 9v-96c-29 -7 -65 -13 -105 -13h-3l-5 -24c52 -1 75 -48 75 -88c0 -44 -34 -89 -110 -89c-34 0 -58 14 -73 25l25 51c11 -8 30 -17 45 -17s39 5 39 30c0 27 -19 38 -44 38
c-10 0 -20 0 -30 -3l18 87c-85 31 -88 109 -88 150v266z" />
    <glyph glyph-name="uniF47E" unicode="&#xf47e;" horiz-adv-x="724" 
d="M654 700v-434c0 -100 -28 -274 -290 -274c-89 0 -294 15 -294 274v434h142v-434c0 -50 9 -164 150 -164s150 114 150 164v434h142zM291 876h142v-126h-142v126z" />
    <glyph glyph-name="uniF47F" unicode="&#xf47f;" horiz-adv-x="612" 
d="M411 518h136v-518h-131v81h-3c-50 -76 -124 -89 -164 -89c-62 0 -184 13 -184 191v335h136v-313c0 -34 4 -102 88 -102c79 0 122 71 122 141v274zM236 736h140v-140h-140v140z" />
    <glyph glyph-name="uniF4C6" unicode="&#xf4c6;" horiz-adv-x="671" 
d="M50 700h142v-239c0 -47 0 -111 136 -111c47 0 88 7 131 17v333h142v-711c0 -94 -17 -211 -181 -211c-33 0 -72 5 -108 13v114c22 -5 50 -9 68 -9c63 0 79 40 79 103v250c-38 -8 -75 -14 -131 -14c-240 0 -278 104 -278 207v258z" />
    <glyph glyph-name="uniF4C7" unicode="&#xf4c7;" horiz-adv-x="570" 
d="M505 518v-559c0 -82 -9 -181 -158 -181c-20 0 -37 1 -60 7v96c11 -3 24 -4 35 -4c43 0 47 34 47 77v237c-59 -11 -107 -13 -129 -13c-173 0 -195 82 -195 158v182h136v-165c0 -37 10 -75 83 -75c31 0 70 4 105 13v227h136z" />
    <glyph glyph-name="uniF4C8" unicode="&#xf4c8;" horiz-adv-x="665" 
d="M596 141l9 -119c-63 -21 -125 -30 -181 -30c-11 0 -22 0 -33 1l-5 -25c52 -1 75 -48 75 -88c0 -44 -34 -89 -110 -89c-34 0 -58 14 -73 25l25 51c11 -8 30 -17 45 -17s39 5 39 30c0 15 -3 38 -39 38c-12 0 -23 1 -35 -3l18 87c-109 23 -271 110 -271 344
c0 230 165 362 390 362c56 0 102 -6 155 -24l-6 -120c-41 16 -86 26 -139 26c-157 0 -250 -99 -250 -242c0 -153 97 -238 240 -238c55 0 102 11 146 31z" />
    <glyph glyph-name="uniF4C9" unicode="&#xf4c9;" horiz-adv-x="465" 
d="M432 509l-6 -97c-40 15 -75 14 -100 14c-26 0 -139 -14 -139 -156c0 -96 44 -179 142 -179c31 0 68 5 104 22l7 -100c-46 -15 -89 -21 -131 -21l-2 -20c33 -5 63 -29 63 -73c0 -49 -42 -79 -96 -79c-28 0 -48 12 -60 21l19 45c10 -6 26 -11 38 -11c15 0 33 7 33 24
s-12 31 -33 31c-10 0 -19 0 -29 -2l12 68c-175 32 -209 177 -209 274c0 122 74 256 260 256c48 0 89 -6 127 -17z" />
    <glyph glyph-name="uniF4CC" unicode="&#xf4cc;" horiz-adv-x="644" 
d="M10 700h159l139 -298l30 -74h3l30 75l133 297h140l-280 -596c-39 -83 -92 -112 -166 -112c-33 0 -69 6 -106 22l16 106c20 -10 37 -15 60 -15c27 0 59 1 79 47l20 47zM223 740l82 140h160l-132 -140h-110z" />
    <glyph glyph-name="uniF4CD" unicode="&#xf4cd;" horiz-adv-x="551" 
d="M3 518h150l97 -286l29 -99h5l32 103l94 282h138l-219 -581c-30 -78 -67 -159 -212 -159c-25 0 -55 7 -79 15l10 101c16 -6 33 -11 53 -11c46 0 76 13 94 58l12 30zM399 750l-145 -160h-83l88 160h140z" />
    <glyph glyph-name="dollar.fitted" unicode="&#xf5f5;" horiz-adv-x="527" 
d="M30 27l15 122c59 -26 119 -38 178 -39v195l-23 11c-55 26 -177 72 -177 195c0 101 76 189 200 193v70h80v-66c56 -1 111 -10 164 -28l-15 -112c-48 21 -98 31 -149 31v-178l29 -12c82 -34 174 -85 174 -201c0 -134 -106 -197 -203 -210v-70h-80v64c-64 1 -128 12 -193 35
zM298 268v-145c39 13 63 41 63 68c0 16 -3 52 -63 77zM228 451v140c-36 -8 -63 -34 -63 -65c0 -41 37 -66 63 -75z" />
    <glyph glyph-name="Euro.fitted" unicode="&#xf5f6;" horiz-adv-x="663" 
d="M613 141l9 -119c-23 -8 -97 -30 -181 -30c-92 0 -176 31 -235 86c-44 41 -77 98 -91 159h-98l25 83h61c-1 9 -2 17 -2 26c0 13 0 25 2 38h-85l25 83h74c20 78 72 146 135 187c65 42 140 54 215 54c55 0 103 -7 155 -24l-6 -120c-41 16 -86 26 -139 26
c-66 0 -107 -16 -144 -45c-32 -25 -48 -50 -58 -78h315l-26 -83h-311v-64h289l-26 -83h-245c12 -36 33 -61 51 -77c33 -29 83 -50 145 -50c44 0 96 8 146 31z" />
    <glyph glyph-name="cent.fitted" unicode="&#xf5f7;" horiz-adv-x="443" 
d="M217 628h130v-106c19 -3 39 -8 59 -14l-6 -96c-28 10 -61 15 -85 15c-80 0 -158 -51 -158 -174c0 -109 82 -161 155 -161c29 0 68 9 97 21l7 -100c-21 -9 -44 -15 -69 -16v-107h-130v108c-158 30 -202 161 -202 269c0 129 77 232 202 254v107z" />
    <glyph glyph-name="sterling.fitted" unicode="&#xf5f8;" horiz-adv-x="562" 
d="M233 118h278v-118h-483v118h63v218h-63v90h64v34c0 48 8 107 54 161c74 86 186 87 248 87c42 0 82 -5 126 -14v-104c-47 13 -88 18 -119 18c-34 0 -88 -2 -127 -38c-35 -33 -40 -75 -40 -114v-30h171v-90h-172v-218z" />
    <glyph glyph-name="yen.fitted" unicode="&#xf5f9;" horiz-adv-x="688" 
d="M19 700h154l171 -294l171 294h154l-172 -281h107v-90h-162l-27 -45v-29h188v-90h-188v-165h-142v165h-188v90h188v31l-26 43h-161v90h105z" />
    <glyph glyph-name="florin.fitted" unicode="&#xf5fa;" horiz-adv-x="583" 
d="M169 518h100l7 37c10 54 15 100 55 144c29 32 75 59 149 59c30 0 65 -5 95 -12l-21 -95c-16 4 -34 7 -51 7c-35 0 -55 -13 -66 -27c-16 -20 -20 -54 -26 -83l-6 -30h122l-17 -100h-122l-81 -455c-10 -54 -16 -101 -55 -144c-46 -51 -107 -59 -153 -59c-28 0 -60 4 -90 12
l21 95c4 -1 27 -7 50 -7c39 0 58 17 66 27c7 9 17 28 27 83l79 448h-100z" />
    <glyph glyph-name="uni20B4.fitted" unicode="&#xf5fb;" 
d="M106 227h-60v90h103c26 31 69 56 111 77h-214v90h311c6 13 9 27 9 42c0 40 -29 74 -92 74c-38 0 -84 -11 -126 -27l-15 112c63 15 122 23 180 23c132 0 200 -83 200 -177c0 -17 -3 -32 -6 -47h61v-90h-110c-31 -29 -80 -55 -126 -77h236v-90h-313c-4 -12 -5 -24 -5 -36
c0 -36 27 -84 98 -84c35 0 91 7 147 33l15 -122c-60 -19 -137 -26 -178 -26c-164 0 -231 107 -231 184c0 18 2 35 5 51z" />
    <glyph glyph-name="uni20B6.fitted" unicode="&#xf5fc;" 
d="M264 385h43c86 0 118 53 118 106c0 58 -36 99 -118 99h-43v-205zM122 700h187c254 0 266 -175 266 -219c0 -92 -61 -206 -240 -206h-71v-83h151v-90h-151v-102h-142v102h-95v90h95v83h-95v110h95v315z" />
    <glyph glyph-name="uni20B8.fitted" unicode="&#xf5fd;" horiz-adv-x="574" 
d="M14 540h546v-90h-202v-450h-142v450h-202v90zM14 700h546v-90h-546v90z" />
    <glyph glyph-name="currency.fitted" unicode="&#xf5fe;" horiz-adv-x="696" 
d="M633 320c0 -85 -33 -137 -48 -158l83 -83l-80 -80l-83 83c-47 -30 -103 -47 -157 -47s-110 17 -157 47l-83 -83l-80 80l83 83c-15 21 -48 73 -48 158s33 137 48 158l-83 83l80 80l83 -83c47 30 103 47 157 47s110 -17 157 -47l83 83l80 -80l-83 -83
c15 -21 48 -73 48 -158zM178 320c0 -93 77 -170 170 -170s170 77 170 170s-77 170 -170 170s-170 -77 -170 -170z" />
    <glyph glyph-name="numbersign.fitted" unicode="&#xf5ff;" horiz-adv-x="633" 
d="M425 42h-80l26 154h-163l-26 -154h-80l26 154h-113l12 72h113l30 178h-113l12 72h113l26 154h80l-26 -154h163l26 154h80l-26 -154h113l-12 -72h-113l-30 -178h113l-12 -72h-113zM383 268l30 178h-163l-30 -178h163z" />
    <glyph glyph-name="uniF639" unicode="&#xf639;" horiz-adv-x="570" 
d="M285 708c109 0 252 -44 252 -358s-143 -358 -252 -358s-252 44 -252 358s143 358 252 358zM285 598c-97 0 -107 -136 -107 -248s10 -248 107 -248s107 136 107 248s-10 248 -107 248z" />
    <glyph glyph-name="uniF63A" unicode="&#xf63a;" horiz-adv-x="544" 
d="M60 543l-12 114c93 43 164 51 212 51c49 0 114 -6 163 -45c44 -35 68 -89 68 -139c0 -32 -5 -107 -87 -210c-36 -45 -115 -127 -148 -155l-55 -46l1 -3l68 5h240v-115h-472v116l50 46c26 24 121 113 185 191c34 42 68 92 68 149c0 34 -13 56 -36 73c-21 16 -42 21 -71 21
c-54 0 -120 -21 -174 -53z" />
    <glyph glyph-name="uniF63B" unicode="&#xf63b;" horiz-adv-x="530" 
d="M123 308v110h65c78 0 110 19 120 26c26 18 35 48 35 75c0 35 -24 52 -38 61c-7 4 -32 18 -85 18c-50 0 -110 -12 -160 -31l-8 114c55 15 125 27 190 27c22 0 109 -2 169 -37c37 -22 82 -64 82 -142c0 -84 -51 -147 -130 -158v-3c41 -8 74 -29 96 -54
c28 -32 39 -72 39 -111c0 -57 -28 -113 -72 -150c-61 -52 -143 -61 -198 -61c-56 0 -121 7 -191 29l7 118c48 -21 110 -37 165 -37c54 0 86 15 104 30c21 17 35 44 35 75c0 35 -18 62 -40 77c-31 21 -84 24 -113 24h-72z" />
    <glyph glyph-name="uniF63C" unicode="&#xf63c;" horiz-adv-x="572" 
d="M276 700h183v-451h89v-110h-89v-139h-142v139h-305v120zM317 249v233l2 77h-2l-145 -261l-30 -48l1 -2l50 1h124z" />
    <glyph glyph-name="uniF63D" unicode="&#xf63d;" horiz-adv-x="517" 
d="M52 700h412v-110h-270v-139c16 2 32 3 48 3c109 0 164 -41 190 -69c29 -31 54 -83 54 -154c0 -87 -38 -141 -69 -170c-61 -57 -143 -69 -207 -69c-70 0 -124 10 -170 26l3 123c64 -27 109 -35 140 -35c56 0 98 14 121 37c18 18 32 50 32 83c0 30 -13 63 -37 83
c-25 22 -68 35 -106 35c-33 0 -88 -3 -141 -20v376z" />
    <glyph glyph-name="uniF63E" unicode="&#xf63e;" horiz-adv-x="557" 
d="M482 685l-16 -113c-38 16 -85 26 -125 26c-75 0 -117 -38 -137 -69c-25 -38 -33 -97 -33 -130h3c29 41 69 69 136 69c66 0 121 -23 157 -63c16 -18 59 -69 59 -166c0 -83 -26 -144 -62 -181c-33 -34 -89 -66 -180 -66c-99 0 -163 39 -202 97c-46 67 -50 159 -50 223
c0 99 11 248 108 334c60 53 129 62 189 62c61 0 104 -6 153 -23zM280 358c-52 0 -96 -33 -96 -128s44 -128 96 -128s96 33 96 128s-44 128 -96 128z" />
    <glyph glyph-name="uniF63F" unicode="&#xf63f;" horiz-adv-x="502" 
d="M487 595l-256 -595h-159l270 590h-311v110h456v-105z" />
    <glyph glyph-name="uniF640" unicode="&#xf640;" horiz-adv-x="560" 
d="M155 367c-67 29 -104 86 -104 154c0 60 22 102 66 137c47 37 101 50 163 50s127 -17 170 -52c31 -25 59 -64 59 -122c0 -68 -37 -131 -109 -157c78 -27 129 -90 129 -177c0 -69 -28 -124 -86 -163c-44 -30 -103 -45 -163 -45c-58 0 -126 17 -169 46
c-45 31 -80 85 -80 160c0 81 48 144 124 169zM290 422c15 5 41 18 63 46c15 19 21 37 21 51c0 21 -8 47 -33 64c-16 11 -38 18 -61 18c-22 0 -46 -6 -64 -20c-24 -18 -30 -41 -30 -59c0 -27 16 -49 34 -63c15 -12 50 -29 70 -37zM267 309c-24 -11 -49 -28 -65 -46
c-19 -21 -26 -42 -26 -68c0 -30 11 -50 24 -63c19 -19 52 -30 83 -30c41 0 66 17 79 31c15 16 22 39 22 62c0 34 -19 55 -38 70c-21 17 -52 34 -79 44z" />
    <glyph glyph-name="uniF641" unicode="&#xf641;" horiz-adv-x="557" 
d="M75 15l16 113c38 -16 85 -26 125 -26c75 0 117 38 137 69c25 38 33 97 33 130h-3c-28 -40 -67 -69 -138 -69c-75 0 -125 31 -155 63c-32 36 -59 92 -59 166c0 83 26 144 62 181c33 34 89 66 180 66c113 0 172 -52 203 -97c39 -58 49 -140 49 -228
c0 -92 -11 -244 -107 -329c-60 -53 -131 -62 -190 -62c-60 0 -105 6 -153 23zM277 342c52 0 96 33 96 128s-44 128 -96 128s-96 -33 -96 -128s44 -128 96 -128z" />
    <glyph glyph-name="uniF643" unicode="&#xf643;" 
d="M307 526c109 0 252 -39 252 -267s-143 -267 -252 -267s-252 39 -252 267s143 267 252 267zM307 416c-91 0 -107 -85 -107 -157c0 -71 16 -157 107 -157s107 86 107 157c0 72 -16 157 -107 157z" />
    <glyph glyph-name="uniF644" unicode="&#xf644;" 
d="M296 518h128v-518h-142v365l-110 -96l-67 83z" />
    <glyph glyph-name="uniF645" unicode="&#xf645;" 
d="M70 0v115c165 94 307 166 307 235c0 53 -49 64 -91 64c-93 0 -164 -39 -188 -52l-12 114c37 14 111 50 236 50c145 0 207 -78 207 -159c0 -108 -71 -167 -262 -251v-4l43 3h227v-115h-467z" />
    <glyph glyph-name="uniF646" unicode="&#xf646;" 
d="M159 126v110h65c78 0 110 19 120 26c26 18 35 48 35 75c0 35 -24 52 -38 61c-7 4 -32 18 -85 18c-50 0 -110 -12 -160 -31l-8 114c55 15 125 27 190 27c22 0 109 -2 169 -37c37 -22 82 -64 82 -142c0 -84 -51 -147 -130 -158v-3c41 -8 74 -29 96 -54
c28 -32 39 -72 39 -111c0 -57 -28 -113 -72 -150c-61 -52 -143 -61 -198 -61c-56 0 -121 7 -191 29l7 118c48 -21 110 -37 165 -37c54 0 86 15 104 30c21 17 35 44 35 75c0 35 -18 62 -40 77c-31 21 -84 24 -113 24h-72z" />
    <glyph glyph-name="uniF647" unicode="&#xf647;" 
d="M304 518h183v-408h89v-110h-89v-182h-142v182h-305v120zM345 110v190l2 77h-2l-145 -218l-36 -48l1 -2l56 1h124z" />
    <glyph glyph-name="uniF648" unicode="&#xf648;" 
d="M100 518h412v-110h-270v-139c16 2 32 3 48 3c109 0 164 -41 190 -69c29 -31 54 -83 54 -154c0 -87 -38 -141 -69 -170c-61 -57 -143 -69 -207 -69c-70 0 -124 10 -170 26l3 123c64 -27 109 -35 140 -35c56 0 98 14 121 37c18 18 32 50 32 83c0 30 -13 63 -37 83
c-25 22 -68 35 -106 35c-33 0 -88 -3 -141 -20v376z" />
    <glyph glyph-name="uniF649" unicode="&#xf649;" 
d="M510 685l-16 -113c-38 16 -85 26 -125 26c-75 0 -117 -38 -137 -69c-25 -38 -33 -97 -33 -130h3c29 41 69 69 136 69c66 0 121 -23 157 -63c16 -18 59 -69 59 -166c0 -83 -26 -144 -62 -181c-33 -34 -89 -66 -180 -66c-99 0 -163 39 -202 97c-46 67 -50 159 -50 223
c0 99 11 248 108 334c60 53 129 62 189 62c61 0 104 -6 153 -23zM308 358c-52 0 -96 -33 -96 -128s44 -128 96 -128s96 33 96 128s-44 128 -96 128z" />
    <glyph glyph-name="uniF64A" unicode="&#xf64a;" 
d="M535 413l-256 -595h-159l270 590h-311v110h456v-105z" />
    <glyph glyph-name="uniF64B" unicode="&#xf64b;" 
d="M182 367c-67 29 -104 86 -104 154c0 60 22 102 66 137c47 37 101 50 163 50s127 -17 170 -52c31 -25 59 -64 59 -122c0 -68 -37 -131 -109 -157c78 -27 129 -90 129 -177c0 -69 -28 -124 -86 -163c-44 -30 -103 -45 -163 -45c-58 0 -126 17 -169 46
c-45 31 -80 85 -80 160c0 81 48 144 124 169zM317 422c15 5 41 18 63 46c15 19 21 37 21 51c0 21 -8 47 -33 64c-16 11 -38 18 -61 18c-22 0 -46 -6 -64 -20c-24 -18 -30 -41 -30 -59c0 -27 16 -49 34 -63c15 -12 50 -29 70 -37zM294 309c-24 -11 -49 -28 -65 -46
c-19 -21 -26 -42 -26 -68c0 -30 11 -50 24 -63c19 -19 52 -30 83 -30c41 0 66 17 79 31c15 16 22 39 22 62c0 34 -19 55 -38 70c-21 17 -52 34 -79 44z" />
    <glyph glyph-name="uniF64C" unicode="&#xf64c;" 
d="M104 -167l16 113c38 -16 85 -26 125 -26c75 0 117 38 137 69c25 38 33 97 33 130h-3c-28 -40 -67 -69 -138 -69c-75 0 -125 31 -155 63c-32 36 -59 92 -59 166c0 83 26 144 62 181c33 34 89 66 180 66c113 0 172 -52 203 -97c39 -58 49 -140 49 -228
c0 -92 -11 -244 -107 -329c-60 -53 -131 -62 -190 -62c-60 0 -105 6 -153 23zM306 160c52 0 96 33 96 128s-44 128 -96 128s-96 -33 -96 -128s44 -128 96 -128z" />
    <glyph glyph-name="uniF6BA" unicode="&#xf6ba;" horiz-adv-x="440" 
d="M80 405h280v-120h-280v120z" />
    <glyph glyph-name="uniF6BB" unicode="&#xf6bb;" horiz-adv-x="740" 
d="M100 403h540v-90h-540v90z" />
    <glyph glyph-name="uniF6BC" unicode="&#xf6bc;" horiz-adv-x="1000" 
d="M100 403h800v-90h-800v90z" />
    <glyph glyph-name="uniF6C3" unicode="&#xf6c3;" horiz-adv-x="276" 
d="M86 -50h140l-66 -190h-110z" />
    <glyph glyph-name="uniF6C9" unicode="&#xf6c9;" horiz-adv-x="328" 
d="M60 740l82 140h160l-132 -140h-110z" />
    <glyph glyph-name="uniF6CA" unicode="&#xf6ca;" horiz-adv-x="458" 
d="M229 816l55 64h114l-113 -140h-112l-113 140h114z" />
    <glyph glyph-name="uniF6CB" unicode="&#xf6cb;" horiz-adv-x="464" 
d="M60 867h115v-115h-115v115zM289 867h115v-115h-115v115z" />
    <glyph glyph-name="uniF6CC" unicode="&#xf6cc;" horiz-adv-x="538" 
d="M101 913h115v-115h-115v115zM342 913h115v-115h-115v115zM461 1073l-145 -160h-83l88 160h140z" />
    <glyph glyph-name="uniF6CE" unicode="&#xf6ce;" horiz-adv-x="337" 
d="M272 740h-110l-132 140h160z" />
    <glyph glyph-name="uniF6CF" unicode="&#xf6cf;" horiz-adv-x="537" 
d="M60 740l82 140h150l-132 -140h-100zM279 740l82 140h150l-132 -140h-100z" />
    <glyph glyph-name="uniF6D0" unicode="&#xf6d0;" horiz-adv-x="391" 
d="M60 745v79h271v-79h-271z" />
    <glyph glyph-name="uniF6D1" unicode="&#xf6d1;" horiz-adv-x="440" 
d="M332 905l73 -39c-41 -101 -126 -117 -185 -117s-144 16 -185 117l73 39c25 -62 88 -65 112 -65s87 3 112 65z" />
    <glyph glyph-name="uniF6D4" unicode="&#xf6d4;" horiz-adv-x="426" 
d="M328 753l50 -46c-25 -46 -74 -98 -165 -98s-140 52 -165 98l50 46c36 -42 82 -47 115 -47s79 5 115 47z" />
    <glyph glyph-name="uniF6D7" unicode="&#xf6d7;" horiz-adv-x="565" 
d="M97 715h121v-116h-121v116zM338 715h121v-116h-121v116zM463 875l-145 -160h-83l88 160h140z" />
    <glyph glyph-name="uniF6DC" unicode="&#xf6dc;" horiz-adv-x="376" 
d="M204 700h128v-700h-142v547l-120 -105l-67 83z" />
    <glyph glyph-name="uniF6DE" unicode="&#xf6de;" horiz-adv-x="690" 
d="M45 324h600v-90h-600v90z" />
    <glyph glyph-name="uniF6E1" unicode="&#xf6e1;" horiz-adv-x="287" 
d="M97 -60h130l-69 -190h-108z" />
    <glyph glyph-name="uniF6E2" unicode="&#xf6e2;" horiz-adv-x="287" 
d="M97 750h110l-69 -200h-88z" />
    <glyph glyph-name="uniF730" unicode="&#xf730;" horiz-adv-x="604" 
d="M302 526c109 0 252 -39 252 -267s-143 -267 -252 -267s-252 39 -252 267s143 267 252 267zM302 416c-91 0 -107 -85 -107 -157c0 -71 16 -157 107 -157s107 86 107 157c0 72 -16 157 -107 157z" />
    <glyph glyph-name="uniF731" unicode="&#xf731;" horiz-adv-x="494" 
d="M231 518h128v-518h-142v365l-110 -96l-67 83z" />
    <glyph glyph-name="uniF732" unicode="&#xf732;" horiz-adv-x="600" 
d="M63 0v115c165 94 307 166 307 235c0 53 -49 64 -91 64c-93 0 -164 -39 -188 -52l-12 114c37 14 111 50 236 50c145 0 207 -78 207 -159c0 -108 -71 -167 -262 -251v-4l43 3h227v-115h-467z" />
    <glyph glyph-name="uniF733" unicode="&#xf733;" horiz-adv-x="561" 
d="M126 126v110h65c78 0 110 19 120 26c26 18 35 48 35 75c0 35 -24 52 -38 61c-7 4 -32 18 -85 18c-50 0 -110 -12 -160 -31l-8 114c55 15 125 27 190 27c22 0 109 -2 169 -37c37 -22 82 -64 82 -142c0 -84 -51 -147 -130 -158v-3c41 -8 74 -29 96 -54
c28 -32 39 -72 39 -111c0 -57 -28 -113 -72 -150c-61 -52 -143 -61 -198 -61c-56 0 -121 7 -191 29l7 118c48 -21 110 -37 165 -37c54 0 86 15 104 30c21 17 35 44 35 75c0 35 -18 62 -40 77c-31 21 -84 24 -113 24h-72z" />
    <glyph glyph-name="uniF734" unicode="&#xf734;" horiz-adv-x="620" 
d="M315 518h183v-408h89v-110h-89v-182h-142v182h-305v120zM356 110v190l2 77h-2l-145 -218l-36 -48l1 -2l56 1h124z" />
    <glyph glyph-name="uniF735" unicode="&#xf735;" horiz-adv-x="586" 
d="M87 518h412v-110h-270v-139c16 2 32 3 48 3c109 0 164 -41 190 -69c29 -31 54 -83 54 -154c0 -87 -38 -141 -69 -170c-61 -57 -143 -69 -207 -69c-70 0 -124 10 -170 26l3 123c64 -27 109 -35 140 -35c56 0 98 14 121 37c18 18 32 50 32 83c0 30 -13 63 -37 83
c-25 22 -68 35 -106 35c-33 0 -88 -3 -141 -20v376z" />
    <glyph glyph-name="uniF736" unicode="&#xf736;" horiz-adv-x="604" 
d="M505 685l-16 -113c-38 16 -85 26 -125 26c-75 0 -117 -38 -137 -69c-25 -38 -33 -97 -33 -130h3c29 41 69 69 136 69c66 0 121 -23 157 -63c16 -18 59 -69 59 -166c0 -83 -26 -144 -62 -181c-33 -34 -89 -66 -180 -66c-99 0 -163 39 -202 97c-46 67 -50 159 -50 223
c0 99 11 248 108 334c60 53 129 62 189 62c61 0 104 -6 153 -23zM303 358c-52 0 -96 -33 -96 -128s44 -128 96 -128s96 33 96 128s-44 128 -96 128z" />
    <glyph glyph-name="uniF737" unicode="&#xf737;" horiz-adv-x="556" 
d="M491 413l-256 -595h-159l270 590h-311v110h456v-105z" />
    <glyph glyph-name="uniF738" unicode="&#xf738;" horiz-adv-x="598" 
d="M174 367c-67 29 -104 86 -104 154c0 60 22 102 66 137c47 37 101 50 163 50s127 -17 170 -52c31 -25 59 -64 59 -122c0 -68 -37 -131 -109 -157c78 -27 129 -90 129 -177c0 -69 -28 -124 -86 -163c-44 -30 -103 -45 -163 -45c-58 0 -126 17 -169 46
c-45 31 -80 85 -80 160c0 81 48 144 124 169zM309 422c15 5 41 18 63 46c15 19 21 37 21 51c0 21 -8 47 -33 64c-16 11 -38 18 -61 18c-22 0 -46 -6 -64 -20c-24 -18 -30 -41 -30 -59c0 -27 16 -49 34 -63c15 -12 50 -29 70 -37zM286 309c-24 -11 -49 -28 -65 -46
c-19 -21 -26 -42 -26 -68c0 -30 11 -50 24 -63c19 -19 52 -30 83 -30c41 0 66 17 79 31c15 16 22 39 22 62c0 34 -19 55 -38 70c-21 17 -52 34 -79 44z" />
    <glyph glyph-name="uniF739" unicode="&#xf739;" horiz-adv-x="604" 
d="M94 -167l16 113c38 -16 85 -26 125 -26c75 0 117 38 137 69c25 38 33 97 33 130h-3c-28 -40 -67 -69 -138 -69c-75 0 -125 31 -155 63c-32 36 -59 92 -59 166c0 83 26 144 62 181c33 34 89 66 180 66c113 0 172 -52 203 -97c39 -58 49 -140 49 -228
c0 -92 -11 -244 -107 -329c-60 -53 -131 -62 -190 -62c-60 0 -105 6 -153 23zM296 160c52 0 96 33 96 128s-44 128 -96 128s-96 -33 -96 -128s44 -128 96 -128z" />
    <glyph glyph-name="uniFB13" unicode="&#xfb13;" horiz-adv-x="1224" 
d="M1023 518h136v-518h-131v81h-3c-21 -32 -71 -89 -172 -89c-41 0 -87 9 -124 42c-51 45 -52 97 -52 149v289h-130v-472h-131v81h-3c-53 -82 -134 -89 -174 -89c-39 0 -83 7 -122 42c-51 45 -52 97 -52 149v335h136v-313c0 -42 7 -102 83 -102c71 0 127 63 127 141v202
c0 10 0 19 1 28c-143 18 -173 119 -173 211h119c0 -61 10 -112 71 -127c37 97 124 132 212 132c25 0 75 0 138 -12v-77c-27 6 -76 11 -114 11c-49 0 -84 -18 -102 -58h250v-349c0 -23 2 -49 15 -69c11 -17 31 -33 68 -33c47 0 81 21 101 50c24 35 26 72 26 91v274z" />
    <glyph glyph-name="uniFB14" unicode="&#xfb14;" horiz-adv-x="1229" 
d="M1028 262h136v-262h-131v81h-3c-21 -32 -71 -89 -172 -89c-41 0 -87 9 -124 42c-51 45 -52 97 -52 149v420c-14 2 -29 3 -42 3c-59 0 -93 -29 -93 -116v-490h-131v81h-3c-53 -82 -134 -89 -174 -89c-39 0 -83 7 -122 42c-51 45 -52 97 -52 149v335h136v-313
c0 -42 7 -102 83 -102c71 0 127 63 127 141v225c0 174 86 221 194 221c20 0 47 -1 77 -5h136v-167h356v-98h-356v-215c0 -23 2 -49 15 -69c11 -17 32 -33 71 -33c68 0 124 56 124 141v18z" />
    <glyph glyph-name="uniFB15" unicode="&#xfb15;" horiz-adv-x="1229" 
d="M818 -214h-136v817c-14 2 -29 3 -42 3c-59 0 -93 -29 -93 -116v-490h-131v81h-3c-53 -82 -134 -89 -174 -89c-39 0 -83 7 -122 42c-51 45 -52 97 -52 149v335h136v-313c0 -42 7 -102 83 -102c71 0 127 63 127 141v225c0 174 86 221 194 221c20 0 47 -1 77 -5h136v-166
l-4 -82h2c37 56 95 89 171 89c32 0 82 -5 125 -41c43 -37 52 -82 52 -122v-363h-136v313c0 23 -5 47 -16 64s-32 38 -72 38c-39 0 -71 -18 -94 -49c-16 -23 -28 -58 -28 -87v-493z" />
    <glyph glyph-name="uniFB16" unicode="&#xfb16;" horiz-adv-x="1224" 
d="M411 685h136v-131h266v-349c0 -23 2 -49 15 -69c11 -17 31 -33 68 -33c47 0 81 21 101 50c24 35 26 72 26 91v274h136v-518h-131v81h-3c-21 -32 -71 -89 -172 -89c-41 0 -87 9 -124 42c-51 45 -52 97 -52 149v289h-130v-597h135v-89h-271v214l5 81h-3
c-19 -27 -66 -89 -173 -89c-48 0 -91 14 -120 38c-54 46 -55 123 -55 162v326h136v-313c0 -25 1 -45 15 -68c16 -27 40 -34 68 -34c40 0 75 14 101 51c22 31 26 62 26 90v228c-169 6 -204 115 -204 213h119c0 -65 12 -119 85 -129v129z" />
    </font>
</defs>
</svg>
