<?xml version="1.0" standalone="no"?>
<!DOCTYPE svg PUBLIC "-//W3C//DTD SVG 1.1//EN" "http://www.w3.org/Graphics/SVG/1.1/DTD/svg11.dtd" >
<svg xmlns="http://www.w3.org/2000/svg" xmlns:xlink="http://www.w3.org/1999/xlink" version="1.1">
<metadata>
Created by FontForge 20190801 at Thu Sep 24 17:13:08 2009
 By Jimmy Wärting
The type family in four basic styles was designed in ParaType (ParaGraph) in 1992 by Tagir Safayev. Based on Frutiger, of Mergenthaler Linotype, 1976 by Adrian Frutiger. Frutiger font was originally designed for use on signs at the new Charles de Gaulle Airport at Roissy. The straightforward sans serif shapes are suited well for both text and display setting. Six additional styles were added in 1998-2000. Multilingual versions of 6 styles (Light, Demi and Extrabold) include Armenian alphabet designed by Manvel Shmavonyan in 1997. Two condensed Cyrillic styles (Demi Condensed and Bold Condensed) designed by Manvel Shmavonyan in 2005.
</metadata>
<defs>
<font id="FreeSet-Book" horiz-adv-x="556" >
  <font-face 
    font-family="FreeSet Book"
    font-weight="400"
    font-stretch="normal"
    units-per-em="1000"
    panose-1="2 11 5 3 4 5 4 2 2 4"
    ascent="800"
    descent="-200"
    x-height="510"
    cap-height="700"
    bbox="-409 -248 998 1006"
    underline-thickness="50"
    underline-position="-100"
    stemh="76"
    stemv="94"
    unicode-range="U+0020-FB02"
  />
<missing-glyph horiz-adv-x="233" 
 />
    <glyph glyph-name="IJ" unicode="IJ" horiz-adv-x="660" 
d="M94 0v700h100v-700h-100zM292 2v86c32 -9 53 -10 63 -10c45 0 73 14 88 32c24 27 26 69 26 105v485h100v-517c0 -36 -5 -103 -55 -148c-32 -29 -83 -45 -144 -45c-40 0 -65 7 -78 12z" />
    <glyph glyph-name="ij" unicode="ij" horiz-adv-x="520" 
d="M80 0v510h94v-510h-94zM180 720v-106h-106v106h106zM226 -220l3 81c11 -2 20 -3 28 -3h10c21 1 37 8 49 27c17 27 18 68 18 81v544h94v-530c0 -51 -2 -114 -34 -156c-33 -43 -81 -48 -124 -48c-16 0 -29 1 -44 4zM434 720v-106h-106v106h106z" />
    <glyph glyph-name="afii10017.var.accented" unicode="&#x410;`" horiz-adv-x="722" 
d="M12 0l298 700h105l295 -700h-109l-71 177h-342l-71 -177h-105zM498 259l-139 347l-139 -347h278zM340 870h130l-114 -120h-96z" />
    <glyph glyph-name="afii10022.var.accented" unicode="&#x415;`" 
d="M94 0v700h391v-88h-291v-205h265v-88h-265v-231h291v-88h-391zM320 870h130l-114 -120h-96z" />
    <glyph glyph-name="afii10026.var.accented" unicode="&#x418;`" horiz-adv-x="745" 
d="M94 0v700h100v-477l-3 -87h5c24 48 38 70 63 110l280 454h112v-700h-100v477l3 87h-5c-26 -55 -42 -76 -63 -110l-280 -454h-112zM361 870h130l-114 -120h-96z" />
    <glyph glyph-name="afii10032.var.accented" unicode="&#x41e;`" horiz-adv-x="778" 
d="M389 710c112 0 193 -40 250 -106c52 -59 86 -147 86 -254c0 -109 -36 -198 -86 -255c-44 -51 -122 -105 -250 -105s-206 54 -250 105c-50 57 -86 146 -86 255c0 107 34 195 86 254c57 66 138 106 250 106zM389 622c-82 0 -139 -39 -171 -80c-36 -46 -59 -120 -59 -192
c0 -59 16 -137 59 -192c34 -44 87 -80 171 -80s137 36 171 80c43 55 59 133 59 192c0 72 -23 146 -59 192c-32 41 -89 80 -171 80zM368 870h130l-114 -120h-96z" />
    <glyph glyph-name="afii10037.var.accented" unicode="&#x423;`" horiz-adv-x="581" 
d="M15 700h113l182 -394h7l171 394h97l-266 -599c-15 -34 -36 -65 -60 -83c-18 -14 -47 -28 -88 -28c-28 0 -61 7 -83 14l11 87c17 -7 41 -13 60 -13c25 0 40 9 47 14c10 7 27 29 32 42l23 57zM320 870h130l-114 -120h-96z" />
    <glyph glyph-name="afii10045.var.accented" unicode="&#x42b;`" horiz-adv-x="831" 
d="M94 0v700h100v-282h54c61 0 151 2 213 -44c45 -33 79 -93 79 -167c0 -76 -32 -125 -61 -151c-56 -50 -134 -56 -205 -56h-180zM194 330v-242h69c39 0 99 0 135 30c14 12 36 39 36 90c0 46 -19 73 -35 88c-39 36 -98 34 -134 34h-71zM637 0v700h100v-700h-100zM394 870
h130l-114 -120h-96z" />
    <glyph glyph-name="afii10047.var.accented" unicode="&#x42d;`" horiz-adv-x="632" 
d="M62 583l-8 97c29 13 79 30 160 30c89 0 170 -21 239 -75c78 -62 126 -153 126 -284c0 -119 -44 -197 -87 -246c-89 -101 -202 -115 -293 -115c-42 0 -88 3 -146 25l6 97c63 -29 109 -34 143 -34c89 0 161 30 204 76c39 42 63 108 67 165h-284v88h284
c-10 69 -45 126 -90 161c-51 40 -123 54 -180 54c-38 0 -89 -8 -141 -39zM285 870h130l-114 -120h-96z" />
    <glyph glyph-name="afii10048.var.accented" unicode="&#x42e;`" horiz-adv-x="1030" 
d="M194 407h120c7 67 33 141 81 197c56 66 135 106 246 106s193 -41 250 -106c52 -59 86 -147 86 -254c0 -109 -36 -198 -86 -255c-44 -51 -122 -105 -250 -105c-127 0 -202 54 -246 105c-51 59 -80 145 -84 224h-117v-319h-100v700h100v-293zM641 622
c-82 0 -139 -39 -171 -80c-36 -46 -59 -120 -59 -192c0 -59 16 -137 59 -192c34 -44 87 -80 171 -80s137 36 171 80c43 55 59 133 59 192c0 72 -23 146 -59 192c-32 41 -89 80 -171 80zM494 870h130l-114 -120h-96z" />
    <glyph glyph-name="afii10049.var.accented" unicode="&#x42f;`" horiz-adv-x="627" 
d="M533 700v-700h-100v280h-113l-146 -280h-120l168 300c-59 19 -91 56 -96 62c-27 33 -43 80 -43 129c0 48 14 111 70 157c57 48 123 52 178 52h202zM433 362v250h-108c-30 0 -68 -4 -98 -30c-22 -19 -38 -51 -38 -93s17 -70 33 -86c37 -37 89 -41 133 -41h78zM352 870h130
l-114 -120h-96z" />
    <glyph glyph-name="afii10023.var.accented" unicode="&#x401;`" horiz-adv-x="531" 
d="M94 0v700h391v-88h-291v-205h265v-88h-265v-231h291v-88h-391zM126 862h108v-105h-108v105zM345 862h108v-105h-108v105zM252 862l89 144h109l-131 -144h-67z" />
    <glyph glyph-name="afii10065.var.accented" unicode="&#x430;`" 
d="M109 392l-6 82c65 39 141 44 176 44c64 0 117 -17 150 -50c45 -45 48 -103 48 -158v-207c0 -23 0 -78 4 -103h-88v69h-2c-42 -57 -109 -77 -167 -77c-46 0 -92 14 -122 36s-56 59 -56 116c0 35 12 98 80 136c24 14 77 34 193 34c18 0 47 -1 64 -2v28c0 20 -1 50 -30 75
s-69 27 -93 27c-36 0 -91 -7 -151 -50zM383 199v44c-18 1 -36 2 -54 2c-74 0 -118 -9 -146 -28c-30 -20 -37 -47 -37 -68c0 -30 14 -49 27 -59c19 -15 46 -22 73 -22c38 0 78 14 103 40c17 18 34 48 34 91zM212 610l78 130h120l-118 -130h-80z" />
    <glyph glyph-name="afii10070.var.accented" unicode="&#x435;`" 
d="M510 234h-364c1 -45 18 -86 43 -113c27 -30 71 -53 128 -53c54 0 116 24 154 51v-94l-14 -5c-28 -10 -63 -28 -147 -28c-62 0 -140 11 -198 73c-31 33 -66 94 -66 192c0 108 42 170 79 203c31 28 82 58 160 58c89 0 140 -36 169 -72c38 -47 56 -120 56 -185v-27zM146 304
h264c1 36 -11 69 -29 92c-16 20 -47 46 -101 46c-48 0 -81 -23 -102 -51c-18 -25 -29 -57 -32 -87zM212 610l78 130h120l-118 -130h-80z" />
    <glyph glyph-name="afii10074.var.accented" unicode="&#x438;`" horiz-adv-x="622" 
d="M174 510v-385l274 385h94v-510h-94v385l-274 -385h-94v510h94zM245 610l78 130h120l-118 -130h-80z" />
    <glyph glyph-name="afii10080.var.accented" unicode="&#x43e;`" horiz-adv-x="610" 
d="M305 518c97 0 159 -42 193 -80c45 -50 66 -118 66 -183s-21 -133 -66 -183c-34 -38 -96 -80 -193 -80s-159 42 -193 80c-45 50 -66 118 -66 183s21 133 66 183c34 38 96 80 193 80zM305 442c-50 0 -93 -26 -120 -60c-27 -35 -39 -82 -39 -127c0 -52 15 -96 39 -127
c41 -55 97 -60 120 -60s79 5 120 60c24 31 39 75 39 127s-15 96 -39 127c-31 41 -76 60 -120 60zM239 610l78 130h120l-118 -130h-80z" />
    <glyph glyph-name="afii10085.var.accented" unicode="&#x443;`" horiz-adv-x="492" 
d="M36 -217l6 77c24 -7 38 -8 45 -8c25 0 46 9 64 27c23 23 36 62 41 79l6 22l-12 38l-179 492h103l140 -419h2l137 419h95l-191 -529c-24 -66 -43 -114 -67 -144c-39 -50 -88 -61 -131 -61c-28 0 -41 3 -54 6zM193 610l78 130h120l-118 -130h-80z" />
    <glyph glyph-name="afii10093.var.accented" unicode="&#x44b;`" horiz-adv-x="742" 
d="M80 510h94v-195h105c39 0 104 -3 152 -39c28 -21 57 -59 57 -121c0 -48 -20 -88 -48 -113c-43 -38 -101 -42 -142 -42h-218v510zM174 239v-163h122c24 0 57 2 79 26c16 17 19 39 19 55c0 19 -4 42 -24 59c-25 22 -67 23 -89 23h-107zM568 0v510h94v-510h-94zM305 610
l78 130h120l-118 -130h-80z" />
    <glyph glyph-name="afii10095.var.accented" unicode="&#x44d;`" horiz-adv-x="487" 
d="M57 422l-8 76c51 16 98 20 130 20c89 0 146 -30 180 -60c48 -42 82 -113 82 -199c0 -67 -20 -141 -64 -190c-39 -43 -103 -77 -204 -77c-29 0 -74 3 -128 21l7 83c54 -26 99 -28 121 -28c74 0 113 29 132 52c22 26 36 67 36 108h-205v74h201c-2 37 -16 69 -35 91
c-38 43 -91 49 -129 49c-67 0 -107 -17 -116 -20zM157 610l78 130h120l-118 -130h-80z" />
    <glyph glyph-name="afii10096.var.accented" unicode="&#x44e;`" horiz-adv-x="822" 
d="M174 303h91c10 76 48 126 82 156c50 44 107 59 170 59c98 0 158 -41 193 -80c45 -50 66 -118 66 -183s-21 -133 -66 -183c-35 -38 -95 -80 -193 -80c-103 0 -164 46 -196 84c-33 39 -54 95 -59 151h-88v-227h-94v510h94v-207zM517 442c-50 0 -93 -26 -120 -60
c-27 -35 -39 -82 -39 -127c0 -52 15 -96 39 -127c41 -55 97 -60 120 -60s79 5 120 60c24 31 39 75 39 127s-15 96 -39 127c-31 41 -76 60 -120 60zM345 610l78 130h120l-118 -130h-80z" />
    <glyph glyph-name="afii10097.var.accented" unicode="&#x44f;`" horiz-adv-x="526" 
d="M446 510v-510h-94v201h-93l-103 -201h-111l120 218c-44 9 -69 34 -79 46c-15 18 -31 49 -31 95c0 48 24 86 52 110c28 23 72 41 117 41h222zM352 439h-105c-24 0 -47 -3 -69 -25c-20 -20 -23 -43 -23 -59c0 -21 7 -42 23 -58c23 -24 53 -26 69 -26h105v168zM217 610
l78 130h120l-118 -130h-80z" />
    <glyph glyph-name="afii10071.var.accented" unicode="&#x451;`" 
d="M510 234h-364c1 -45 18 -86 43 -113c27 -30 71 -53 128 -53c54 0 116 24 154 51v-94l-14 -5c-28 -10 -63 -28 -147 -28c-62 0 -140 11 -198 73c-31 33 -66 94 -66 192c0 108 42 170 79 203c31 28 82 58 160 58c89 0 140 -36 169 -72c38 -47 56 -120 56 -185v-27zM146 304
h264c1 36 -11 69 -29 92c-16 20 -47 46 -101 46c-48 0 -81 -23 -102 -51c-18 -25 -29 -57 -32 -87zM108 700h109v-105h-109v105zM346 700h108v-105h-108v105zM243 700l89 144h109l-131 -144h-67z" />
    <glyph glyph-name="fi" unicode="fi" horiz-adv-x="652" 
d="M128 0v434h-111v76h111v47c0 52 1 121 49 166c36 34 83 39 119 39c20 0 40 -2 66 -6l-4 -76c-8 2 -24 6 -45 6c-33 0 -54 -10 -66 -22c-24 -24 -25 -66 -25 -99v-55h141v-76h-141v-434h-94zM468 0v510h94v-510h-94zM568 720v-106h-106v106h106z" />
    <glyph glyph-name="fl" unicode="fl" horiz-adv-x="643" 
d="M128 0v434h-111v76h111v47c0 52 1 121 49 166c36 34 83 39 119 39c20 0 40 -2 66 -6l-4 -76c-8 2 -24 6 -45 6c-33 0 -54 -10 -66 -22c-24 -24 -25 -66 -25 -99v-55h141v-76h-141v-434h-94zM469 0v762h94v-762h-94z" />
    <glyph glyph-name=".notdef" horiz-adv-x="233" 
 />
    <glyph glyph-name="space" unicode=" " horiz-adv-x="233" 
 />
    <glyph glyph-name="exclam" unicode="!" horiz-adv-x="389" 
d="M251 700l-16 -504h-80l-16 504h112zM139 0v112h112v-112h-112z" />
    <glyph glyph-name="quotedbl" unicode="&#x22;" 
d="M309 455v245h88v-245h-88zM159 455v245h88v-245h-88z" />
    <glyph glyph-name="numbersign" unicode="#" 
d="M94 0l29 208h-95v76h106l18 130h-96v76h107l29 208h76l-29 -208h118l29 208h76l-29 -208h95v-76h-106l-18 -130h95v-76h-106l-29 -208h-76l29 208h-118l-29 -208h-76zM328 284l18 130h-118l-18 -130h118z" />
    <glyph glyph-name="dollar" unicode="$" 
d="M247 435v180c-18 -3 -39 -12 -52 -25c-15 -15 -24 -40 -24 -67c0 -44 34 -67 76 -88zM305 290v-206c18 4 42 15 61 42c14 21 19 45 19 67c0 26 -10 45 -25 61c-10 11 -28 26 -55 36zM247 -106v94h-12c-80 0 -131 20 -152 29l12 96c53 -32 100 -37 138 -37h14v243l-35 17
c-25 12 -76 40 -105 71c-19 20 -42 55 -42 113c0 51 20 98 56 133c25 24 66 51 126 54v99h58v-96c77 -1 122 -17 143 -25l-14 -92c-19 11 -57 29 -119 29h-10v-217l58 -32c29 -16 66 -37 91 -68c22 -27 37 -65 37 -110c0 -67 -28 -113 -55 -142c-42 -44 -87 -58 -131 -61
v-98h-58z" />
    <glyph glyph-name="percent" unicode="%" horiz-adv-x="1000" 
d="M260 310c-115 0 -150 99 -150 200c0 107 28 200 150 200c121 0 150 -94 150 -200c0 -101 -35 -200 -150 -200zM260 380c60 0 62 89 62 130c0 45 4 130 -62 130c-62 0 -62 -88 -62 -130c0 -41 2 -130 62 -130zM247 -22l433 742h72l-433 -742h-72zM740 -12
c-115 0 -150 99 -150 200c0 107 28 200 150 200c121 0 150 -94 150 -200c0 -101 -35 -200 -150 -200zM740 58c60 0 62 89 62 130c0 45 4 130 -62 130c-62 0 -62 -88 -62 -130c0 -41 2 -130 62 -130z" />
    <glyph glyph-name="ampersand" unicode="&#x26;" horiz-adv-x="722" 
d="M554 377h94c-9 -113 -40 -178 -80 -239l122 -138h-125l-57 68c-50 -55 -111 -78 -200 -78c-138 0 -225 78 -225 193c0 106 62 166 156 204c-37 45 -72 92 -72 159c0 112 82 164 182 164c91 0 173 -48 173 -158c0 -89 -79 -149 -153 -182l142 -162c27 43 38 89 43 169z
M455 131l-168 197c-53 -36 -98 -69 -98 -138c0 -75 65 -124 137 -124c65 0 107 40 129 65zM323 426c42 20 105 63 105 122c0 64 -35 86 -83 86c-46 0 -84 -30 -84 -90c0 -47 32 -85 62 -118z" />
    <glyph glyph-name="quotesingle" unicode="'" horiz-adv-x="278" 
d="M95 455v245h88v-245h-88z" />
    <glyph glyph-name="parenleft" unicode="(" horiz-adv-x="333" 
d="M319 -140h-90c-153 212 -164 382 -164 448c0 72 14 232 164 448h90c-66 -108 -154 -283 -154 -448c0 -167 86 -339 154 -448z" />
    <glyph glyph-name="parenright" unicode=")" horiz-adv-x="333" 
d="M14 756h90c153 -212 164 -382 164 -448c0 -72 -14 -232 -164 -448h-90c66 108 154 283 154 448c0 167 -86 339 -154 448z" />
    <glyph glyph-name="asterisk" unicode="*" 
d="M359 310l-81 138l-82 -138l-74 50l110 123l-160 33l28 85l151 -62l-16 159h91l-15 -159l146 62l27 -85l-157 -33l107 -123z" />
    <glyph glyph-name="plus" unicode="+" horiz-adv-x="600" 
d="M47 209v88h209v209h88v-209h209v-88h-209v-209h-88v209h-209z" />
    <glyph glyph-name="comma" unicode="," horiz-adv-x="278" 
d="M52 -133l63 245h111l-85 -245h-89z" />
    <glyph glyph-name="hyphen" unicode="-" horiz-adv-x="420" 
d="M80 334h260v-100h-260v100z" />
    <glyph glyph-name="period" unicode="." horiz-adv-x="278" 
d="M83 0v112h112v-112h-112z" />
    <glyph glyph-name="slash" unicode="/" horiz-adv-x="278" 
d="M-25 -12l240 722h88l-240 -722h-88z" />
    <glyph glyph-name="zero" unicode="0" 
d="M278 710c56 0 137 -21 187 -115c34 -65 50 -158 50 -245c0 -85 -15 -182 -50 -246c-56 -105 -151 -114 -187 -114s-131 9 -187 114c-35 64 -50 161 -50 246c0 87 16 180 50 245c50 94 131 115 187 115zM278 628c-28 0 -67 -12 -95 -70c-25 -52 -36 -141 -36 -208
s11 -156 36 -208c28 -58 67 -70 95 -70s67 12 95 70c25 52 36 141 36 208s-11 156 -36 208c-28 58 -67 70 -95 70z" />
    <glyph glyph-name="one" unicode="1" 
d="M269 0v585l-107 -93l-53 68l171 140h89v-700h-100z" />
    <glyph glyph-name="two" unicode="2" 
d="M50 0v107l131 118c56 50 86 84 126 135c28 36 69 88 69 152c0 41 -18 67 -33 82c-30 30 -67 34 -101 34c-70 0 -130 -29 -160 -45l-10 86c69 32 136 41 183 41c55 0 102 -9 145 -38c71 -48 82 -116 82 -159c0 -87 -48 -142 -82 -184c-35 -44 -42 -58 -118 -132
c-15 -15 -48 -48 -92 -86l-33 -29h335v-82h-442z" />
    <glyph glyph-name="three" unicode="3" 
d="M145 323v82h56c45 0 98 11 128 31c29 19 45 45 45 83c0 39 -16 64 -36 80c-33 26 -78 29 -101 29c-60 0 -114 -18 -155 -38l-6 89c82 28 142 31 175 31c67 0 123 -17 160 -45c33 -25 69 -73 69 -140c0 -52 -20 -87 -42 -109c-24 -25 -63 -46 -108 -54v-2
c43 -8 87 -30 112 -55c24 -25 44 -63 44 -119c0 -55 -16 -105 -67 -144c-65 -49 -161 -52 -196 -52c-47 0 -106 6 -172 27l6 92c48 -23 102 -37 153 -37c37 0 94 9 126 33c21 15 44 43 44 88c0 55 -29 88 -56 104c-30 18 -75 26 -118 26h-61z" />
    <glyph glyph-name="four" unicode="4" 
d="M344 241v377h-2l-222 -377h224zM344 0v159h-325v83l282 458h143v-459h88v-82h-88v-159h-100z" />
    <glyph glyph-name="five" unicode="5" 
d="M478 700v-82h-290l-6 -186c35 7 51 10 75 10c68 0 123 -16 170 -58c31 -28 71 -78 71 -158c0 -71 -27 -128 -68 -166c-49 -45 -121 -70 -203 -70c-44 0 -101 8 -146 23l3 94c59 -31 108 -35 140 -35c39 0 89 8 128 45c27 26 40 57 40 94c0 57 -27 94 -52 114
c-32 25 -77 35 -123 35c-37 0 -83 -6 -129 -26l6 366h384z" />
    <glyph glyph-name="six" unicode="6" 
d="M479 688l-14 -89c-38 19 -84 29 -124 29c-68 0 -110 -34 -133 -60c-40 -47 -63 -126 -62 -193h3c18 21 63 64 152 64c65 0 117 -24 150 -57c28 -28 60 -79 60 -161c0 -83 -31 -135 -61 -166c-30 -30 -82 -65 -163 -65c-69 0 -150 23 -197 118c-31 63 -38 155 -38 216
c0 107 17 190 59 262c32 55 90 124 233 124c46 0 97 -9 135 -22zM405 219c0 33 -12 68 -27 90c-28 41 -65 48 -90 48c-46 0 -75 -19 -91 -35c-21 -21 -39 -55 -39 -103c0 -37 12 -75 31 -100c17 -23 46 -47 92 -47c51 0 81 26 98 51c18 28 26 66 26 96z" />
    <glyph glyph-name="seven" unicode="7" 
d="M491 700v-82l-258 -618h-110l266 618h-340v82h442z" />
    <glyph glyph-name="eight" unicode="8" 
d="M186 368v2c-30 11 -71 33 -96 65c-22 27 -35 67 -35 109c0 41 20 96 83 133c39 23 89 33 137 33c65 0 119 -14 163 -48c34 -27 59 -62 59 -113c0 -45 -15 -84 -41 -113c-22 -25 -60 -49 -85 -62c35 -12 74 -35 99 -61c34 -36 48 -81 48 -123c0 -67 -25 -114 -65 -146
c-31 -25 -85 -54 -172 -54c-83 0 -138 27 -174 55c-47 37 -69 84 -69 140c0 55 25 103 60 134c25 22 63 40 88 49zM269 416l30 -13c68 47 92 83 92 130c0 33 -9 55 -38 74c-22 15 -49 21 -80 21c-36 0 -65 -12 -86 -29c-27 -22 -32 -49 -32 -69c0 -28 15 -49 34 -65
c17 -15 54 -38 80 -49zM260 331l-31 -20c-38 -24 -85 -52 -85 -120c0 -41 18 -68 40 -86c27 -22 68 -33 101 -33c36 0 69 11 91 31c15 14 36 41 36 88c0 76 -54 96 -116 124z" />
    <glyph glyph-name="nine" unicode="9" 
d="M77 12l14 88c46 -24 94 -28 119 -28c84 0 127 42 150 76c32 47 50 113 50 177h-3c-56 -60 -119 -65 -150 -65c-81 0 -131 34 -157 63c-30 33 -55 86 -55 154c0 67 21 130 68 175c49 46 107 58 156 58c54 0 140 -12 191 -108c17 -32 44 -99 44 -226
c0 -72 -9 -166 -46 -241c-56 -114 -153 -145 -241 -145c-40 0 -99 8 -140 22zM151 481c0 -33 7 -63 28 -92c15 -21 41 -47 92 -47c34 0 70 14 94 42c15 17 33 47 33 96c0 39 -12 77 -36 106c-23 27 -52 42 -87 42c-43 0 -71 -19 -88 -39c-23 -26 -36 -64 -36 -108z" />
    <glyph glyph-name="colon" unicode=":" horiz-adv-x="278" 
d="M195 510v-112h-112v112h112zM83 0v112h112v-112h-112z" />
    <glyph glyph-name="semicolon" unicode=";" horiz-adv-x="278" 
d="M20 -133l63 245h112l-85 -245h-90zM195 510v-112h-112v112h112z" />
    <glyph glyph-name="less" unicode="&#x3c;" horiz-adv-x="600" 
d="M554 514v-88l-394 -173l394 -173v-88l-508 223v76z" />
    <glyph glyph-name="equal" unicode="=" horiz-adv-x="600" 
d="M47 314v88h506v-88h-506zM47 104v88h506v-88h-506z" />
    <glyph glyph-name="greater" unicode="&#x3e;" horiz-adv-x="600" 
d="M46 514l508 -223v-76l-508 -223v88l394 173l-394 173v88z" />
    <glyph glyph-name="question" unicode="?" horiz-adv-x="500" 
d="M204 194v21c0 22 1 48 14 77c11 25 34 55 48 71l11 13c35 41 73 82 73 143c0 43 -21 69 -36 82c-25 21 -55 27 -85 27c-27 0 -82 -2 -148 -43l-7 92c61 27 128 33 166 33c55 0 109 -13 146 -41c40 -30 70 -83 70 -143c0 -71 -39 -114 -78 -160l-25 -30
c-9 -11 -36 -48 -47 -76c-7 -17 -8 -30 -8 -48v-18h-94zM195 0v112h112v-112h-112z" />
    <glyph glyph-name="at" unicode="@" horiz-adv-x="800" 
d="M366 217c74 0 128 93 128 163c0 48 -34 84 -77 84c-79 0 -133 -87 -133 -156c0 -53 31 -91 82 -91zM615 532l-67 -254c-4 -14 -8 -30 -8 -42c1 -15 4 -25 18 -25c58 0 122 85 122 187c0 156 -119 242 -265 242c-169 0 -283 -129 -283 -293c0 -190 124 -289 293 -289
c84 0 165 34 217 89h76c-65 -100 -176 -159 -297 -159c-206 0 -371 132 -371 361c0 218 166 361 366 361c176 0 334 -120 334 -297c0 -190 -161 -278 -237 -278c-30 0 -56 19 -58 56h-2c-27 -28 -68 -56 -109 -56c-83 0 -148 73 -148 160c0 125 85 251 215 251
c46 0 85 -19 114 -66l15 52h75z" />
    <glyph glyph-name="A" unicode="A" horiz-adv-x="722" 
d="M12 0l298 700h105l295 -700h-109l-71 177h-342l-71 -177h-105zM498 259l-139 347l-139 -347h278z" />
    <glyph glyph-name="B" unicode="B" horiz-adv-x="602" 
d="M94 0v700h189c60 0 135 -7 188 -48c40 -31 57 -73 57 -128c0 -30 -5 -72 -35 -107c-26 -31 -71 -52 -109 -60v-2c46 -3 88 -22 115 -48c28 -27 47 -69 47 -120c0 -67 -27 -109 -54 -132c-58 -50 -156 -55 -212 -55h-186zM194 319v-237h75c43 0 109 3 144 39
c14 15 27 39 27 77c0 45 -16 79 -60 101c-36 18 -80 20 -121 20h-65zM194 618v-217h55c44 0 116 0 152 35c25 24 27 57 27 74c0 34 -9 62 -36 82c-25 19 -61 26 -93 26h-105z" />
    <glyph glyph-name="C" unicode="C" horiz-adv-x="625" 
d="M579 680l-8 -97c-44 26 -94 39 -144 39c-62 0 -124 -19 -171 -56c-56 -44 -97 -119 -97 -216c0 -85 31 -146 66 -186c48 -56 117 -86 212 -86c34 0 82 7 137 33l6 -96c-58 -22 -105 -25 -146 -25c-93 0 -203 19 -285 103c-52 54 -96 144 -96 258c0 74 18 197 130 283
c73 56 161 76 244 76c76 0 120 -15 152 -30z" />
    <glyph glyph-name="D" unicode="D" horiz-adv-x="733" 
d="M94 0v700h206c75 0 183 -14 271 -98c52 -49 101 -128 101 -254c0 -77 -21 -156 -61 -213c-82 -116 -215 -135 -311 -135h-206zM194 612v-524h105c76 0 159 12 217 86c16 20 50 72 50 166c0 100 -36 166 -73 203c-30 29 -89 69 -182 69h-117z" />
    <glyph glyph-name="E" unicode="E" horiz-adv-x="554" 
d="M94 0v700h391v-88h-291v-205h265v-88h-265v-231h291v-88h-391z" />
    <glyph glyph-name="F" unicode="F" horiz-adv-x="511" 
d="M94 0v700h371v-88h-271v-205h259v-88h-259v-319h-100z" />
    <glyph glyph-name="G" unicode="G" horiz-adv-x="722" 
d="M627 675l-8 -100c-24 16 -48 26 -79 34c-47 12 -87 13 -106 13c-78 0 -138 -22 -183 -60c-47 -40 -92 -112 -92 -215c0 -80 29 -142 72 -189c53 -57 121 -80 200 -80c17 0 73 5 89 8l14 3v212h-147v82h247v-362c-82 -27 -155 -31 -203 -31c-91 0 -188 19 -267 90
c-87 78 -111 184 -111 273c0 126 52 211 115 267c62 55 147 90 258 90c64 0 117 -11 124 -12c27 -6 53 -14 77 -23z" />
    <glyph glyph-name="H" unicode="H" horiz-adv-x="722" 
d="M94 0v700h100v-293h334v293h100v-700h-100v319h-334v-319h-100z" />
    <glyph glyph-name="I" unicode="I" horiz-adv-x="288" 
d="M94 0v700h100v-700h-100z" />
    <glyph glyph-name="J" unicode="J" horiz-adv-x="389" 
d="M21 2v86c32 -9 53 -10 63 -10c45 0 73 14 88 32c24 27 26 69 26 105v485h100v-517c0 -36 -5 -103 -55 -148c-32 -29 -83 -45 -144 -45c-40 0 -65 7 -78 12z" />
    <glyph glyph-name="K" unicode="K" horiz-adv-x="667" 
d="M94 0v700h100v-308l298 308h133l-328 -331l354 -369h-146l-311 343v-343h-100z" />
    <glyph glyph-name="L" unicode="L" horiz-adv-x="506" 
d="M94 0v700h100v-612h292v-88h-392z" />
    <glyph glyph-name="M" unicode="M" horiz-adv-x="952" 
d="M94 0v700h165l219 -582l215 582h165v-700h-100v606h-2l-231 -606h-98l-231 606h-2v-606h-100z" />
    <glyph glyph-name="N" unicode="N" horiz-adv-x="722" 
d="M88 0v700h136l308 -564h2v564h100v-700h-128l-316 576h-2v-576h-100z" />
    <glyph glyph-name="O" unicode="O" horiz-adv-x="778" 
d="M389 710c112 0 193 -40 250 -106c52 -59 86 -147 86 -254c0 -109 -36 -198 -86 -255c-44 -51 -122 -105 -250 -105s-206 54 -250 105c-50 57 -86 146 -86 255c0 107 34 195 86 254c57 66 138 106 250 106zM389 622c-82 0 -139 -39 -171 -80c-36 -46 -59 -120 -59 -192
c0 -59 16 -137 59 -192c34 -44 87 -80 171 -80s137 36 171 80c43 55 59 133 59 192c0 72 -23 146 -59 192c-32 41 -89 80 -171 80z" />
    <glyph glyph-name="P" unicode="P" 
d="M183 612v-244h99c38 0 81 12 106 35c16 15 34 43 34 86c0 48 -22 77 -45 94c-37 27 -88 29 -109 29h-85zM83 0v700h183c53 0 134 -6 192 -51c34 -26 70 -73 70 -156c0 -63 -22 -110 -47 -139c-26 -30 -84 -74 -200 -74h-98v-280h-100z" />
    <glyph glyph-name="Q" unicode="Q" horiz-adv-x="778" 
d="M575 -126l-130 120c-6 -1 -13 -1 -19 -2s-11 -2 -17 -2h-20c-81 3 -175 19 -250 105c-50 57 -86 145 -86 255c0 107 34 194 86 254c57 66 138 106 250 106c111 0 193 -40 250 -106c51 -59 86 -147 86 -254c0 -29 -3 -134 -61 -222c-43 -66 -100 -96 -127 -108l162 -146
h-124zM389 622c-82 0 -139 -39 -171 -80c-36 -46 -59 -120 -59 -192c0 -59 16 -137 59 -192c34 -44 87 -80 171 -80s137 36 171 80c43 55 59 133 59 192c0 72 -23 146 -59 192c-32 41 -89 80 -171 80z" />
    <glyph glyph-name="R" unicode="R" horiz-adv-x="611" 
d="M83 0v700h171c65 0 150 -2 207 -44c33 -24 64 -67 64 -139c0 -49 -14 -86 -46 -117c-21 -21 -53 -42 -98 -49v-2c13 -5 28 -13 38 -24s24 -34 30 -46l132 -279h-114l-107 243c-15 33 -32 50 -46 57c-15 8 -36 11 -71 11h-60v-311h-100zM183 612v-213h85c30 0 81 3 117 34
c14 12 34 36 34 75c0 49 -25 73 -46 85c-25 14 -64 19 -94 19h-96z" />
    <glyph glyph-name="S" unicode="S" horiz-adv-x="500" 
d="M420 685l-14 -92c-53 24 -98 29 -131 29c-14 0 -52 -1 -80 -17c-23 -13 -42 -35 -42 -75c0 -24 8 -39 22 -55c31 -34 71 -48 100 -62l26 -13c49 -24 93 -49 121 -93c15 -23 31 -59 31 -112c0 -62 -20 -111 -68 -151s-105 -54 -177 -54c-38 0 -90 6 -153 29l10 92
c43 -19 99 -33 145 -33c33 0 71 6 102 35c23 21 35 46 35 79c0 35 -13 59 -37 79c-20 17 -47 29 -94 53l-43 22c-29 15 -72 39 -98 76c-15 22 -28 54 -28 99c0 84 45 128 74 148c42 29 101 41 150 41c73 0 128 -17 149 -25z" />
    <glyph glyph-name="T" unicode="T" 
d="M228 0v612h-217v88h534v-88h-217v-612h-100z" />
    <glyph glyph-name="U" unicode="U" horiz-adv-x="722" 
d="M632 700v-410c0 -115 -35 -184 -73 -225c-22 -24 -82 -75 -198 -75s-176 51 -198 75c-38 41 -73 110 -73 225v410h100v-397c0 -51 4 -116 37 -163c38 -54 90 -62 134 -62s96 8 134 62c33 47 37 112 37 163v397h100z" />
    <glyph glyph-name="V" unicode="V" horiz-adv-x="667" 
d="M661 700l-267 -700h-125l-263 700h112l215 -612h2l221 612h105z" />
    <glyph glyph-name="W" unicode="W" horiz-adv-x="1000" 
d="M213 0l-211 700h110l167 -600h2l149 600h142l151 -600h2l167 600h106l-215 -700h-129l-152 612h-2l-153 -612h-134z" />
    <glyph glyph-name="X" unicode="X" horiz-adv-x="667" 
d="M8 0l257 364l-234 336h120l186 -269l185 269h114l-235 -334l258 -366h-126l-206 297l-199 -297h-120z" />
    <glyph glyph-name="Y" unicode="Y" horiz-adv-x="667" 
d="M284 0v293l-273 407h117l208 -314l203 314h117l-272 -407v-293h-100z" />
    <glyph glyph-name="Z" unicode="Z" 
d="M32 0v90l362 522h-350v88h465v-90l-361 -522h367v-88h-483z" />
    <glyph glyph-name="bracketleft" unicode="[" horiz-adv-x="333" 
d="M95 -140v896h189v-70h-101v-756h101v-70h-189z" />
    <glyph glyph-name="backslash" unicode="\" horiz-adv-x="278" 
d="M215 -12l-240 722h88l240 -722h-88z" />
    <glyph glyph-name="bracketright" unicode="]" horiz-adv-x="333" 
d="M238 756v-896h-189v70h101v756h-101v70h189z" />
    <glyph glyph-name="asciicircum" unicode="^" horiz-adv-x="600" 
d="M60 295l199 405h82l199 -405h-90l-150 313l-150 -313h-90z" />
    <glyph glyph-name="underscore" unicode="_" horiz-adv-x="500" 
d="M0 -125v50h500v-50h-500z" />
    <glyph glyph-name="grave" unicode="`" horiz-adv-x="278" 
d="M127 740l78 -130h-80l-118 130h120z" />
    <glyph glyph-name="a" unicode="a" 
d="M109 392l-6 82c65 39 141 44 176 44c64 0 117 -17 150 -50c45 -45 48 -103 48 -158v-207c0 -23 0 -78 4 -103h-88v69h-2c-42 -57 -109 -77 -167 -77c-46 0 -92 14 -122 36s-56 59 -56 116c0 35 12 98 80 136c24 14 77 34 193 34c18 0 47 -1 64 -2v28c0 20 -1 50 -30 75
s-69 27 -93 27c-36 0 -91 -7 -151 -50zM383 199v44c-18 1 -36 2 -54 2c-74 0 -118 -9 -146 -28c-30 -20 -37 -47 -37 -68c0 -30 14 -49 27 -59c19 -15 46 -22 73 -22c38 0 78 14 103 40c17 18 34 48 34 91z" />
    <glyph glyph-name="b" unicode="b" horiz-adv-x="611" 
d="M80 0v762h94v-322h2c14 20 32 39 59 53c31 16 67 25 105 25c89 0 141 -39 172 -79c37 -48 53 -113 53 -175c0 -58 -13 -131 -49 -184c-27 -40 -79 -88 -170 -88c-43 0 -81 11 -112 27c-25 13 -44 28 -62 53h-2v-72h-90zM174 254c0 -54 16 -97 37 -127
c35 -50 82 -59 113 -59c28 0 70 9 103 55c27 37 38 90 38 140c0 54 -14 95 -34 124c-21 30 -54 55 -106 55s-87 -26 -107 -50c-31 -37 -44 -90 -44 -138z" />
    <glyph glyph-name="c" unicode="c" horiz-adv-x="444" 
d="M412 498l-8 -78c-32 14 -72 22 -102 22c-36 0 -76 -14 -105 -39c-36 -32 -59 -89 -59 -148c0 -44 12 -94 39 -128c27 -33 74 -59 131 -59c44 0 78 14 101 29l7 -84c-30 -13 -65 -21 -118 -21c-87 0 -151 37 -192 82c-29 31 -68 92 -68 185c0 67 22 145 88 200
c46 38 107 59 172 59c20 0 64 -2 114 -20z" />
    <glyph glyph-name="d" unicode="d" horiz-adv-x="611" 
d="M437 762h94v-762h-90v72h-2c-17 -23 -34 -37 -59 -51c-34 -19 -67 -29 -113 -29c-80 0 -131 35 -163 75c-38 47 -58 114 -58 194c0 64 13 135 68 193c47 50 97 64 152 64c51 0 81 -9 112 -27c23 -13 41 -28 57 -51h2v322zM437 254c0 46 -12 92 -37 128
c-26 36 -62 60 -114 60c-38 0 -74 -13 -102 -49c-22 -29 -38 -73 -38 -136c0 -39 7 -85 32 -125c33 -53 78 -64 109 -64c37 0 77 14 107 51c28 35 43 88 43 135z" />
    <glyph glyph-name="e" unicode="e" 
d="M510 234h-364c1 -45 18 -86 43 -113c27 -30 71 -53 128 -53c54 0 116 24 154 51v-94l-14 -5c-28 -10 -63 -28 -147 -28c-62 0 -140 11 -198 73c-31 33 -66 94 -66 192c0 108 42 170 79 203c31 28 82 58 160 58c89 0 140 -36 169 -72c38 -47 56 -120 56 -185v-27zM146 304
h264c1 36 -11 69 -29 92c-16 20 -47 46 -101 46c-48 0 -81 -23 -102 -51c-18 -25 -29 -57 -32 -87z" />
    <glyph glyph-name="f" unicode="f" horiz-adv-x="373" 
d="M128 0v434h-111v76h111v47c0 52 1 121 49 166c36 34 83 39 119 39c20 0 40 -2 66 -6l-4 -76c-8 2 -24 6 -45 6c-33 0 -54 -10 -66 -22c-24 -24 -25 -66 -25 -99v-55h141v-76h-141v-434h-94z" />
    <glyph glyph-name="g" unicode="g" horiz-adv-x="611" 
d="M531 510v-490c0 -56 -8 -127 -63 -180c-33 -32 -93 -64 -200 -64c-28 0 -94 3 -183 35l10 87c35 -18 104 -46 178 -46c49 0 95 12 128 54c25 32 36 76 36 121v52h-2c-14 -19 -35 -42 -73 -59c-15 -7 -50 -20 -98 -20c-86 0 -135 42 -159 70c-40 48 -59 117 -59 181
c0 92 31 152 61 188c35 43 90 79 174 79c56 0 95 -21 100 -24c32 -17 50 -41 61 -60h2v76h87zM288 76c32 0 79 9 113 56c25 34 36 80 36 122c0 47 -11 96 -38 133c-27 38 -62 55 -109 55c-57 0 -89 -31 -107 -55c-5 -7 -37 -53 -37 -131c0 -46 14 -96 38 -127
c23 -30 62 -53 104 -53z" />
    <glyph glyph-name="h" unicode="h" horiz-adv-x="604" 
d="M80 0v762h94v-325h2c15 22 37 43 67 59c29 15 59 22 97 22c41 0 102 -7 144 -56c41 -48 47 -112 47 -159v-303h-94v264c0 87 -16 124 -32 144c-14 17 -41 34 -83 34s-77 -19 -100 -44c-45 -50 -48 -126 -48 -162v-236h-94z" />
    <glyph glyph-name="i" unicode="i" horiz-adv-x="254" 
d="M80 0v510h94v-510h-94zM180 720v-106h-106v106h106z" />
    <glyph glyph-name="j" unicode="j" horiz-adv-x="254" 
d="M-28 -220l3 81c11 -2 20 -3 28 -3h10c21 1 37 8 49 27c17 27 18 68 18 81v544h94v-530c0 -51 -2 -114 -34 -156c-33 -43 -81 -48 -124 -48c-16 0 -29 1 -44 4zM180 720v-106h-106v106h106z" />
    <glyph glyph-name="k" unicode="k" horiz-adv-x="546" 
d="M80 0v762h94v-459l208 207h122l-235 -221l264 -289h-127l-232 262v-262h-94z" />
    <glyph glyph-name="l" unicode="l" horiz-adv-x="254" 
d="M80 0v762h94v-762h-94z" />
    <glyph glyph-name="m" unicode="m" horiz-adv-x="884" 
d="M79 0v510h88v-74h2c13 22 34 46 68 62c27 13 63 20 90 20c33 0 63 -7 89 -24c21 -14 45 -38 60 -75c21 39 49 63 74 77c27 15 56 22 93 22c33 0 89 -7 127 -54c25 -31 41 -78 41 -137v-327h-94v304c0 36 -5 80 -25 106c-10 14 -31 32 -69 32c-25 0 -63 -7 -94 -49
c-32 -43 -37 -99 -37 -136v-257h-94v304c0 34 -3 75 -24 104c-15 20 -37 34 -70 34c-50 0 -80 -30 -94 -49c-24 -32 -37 -80 -37 -136v-257h-94z" />
    <glyph glyph-name="n" unicode="n" horiz-adv-x="604" 
d="M80 0v510h94v-73h2c15 22 37 43 67 59c29 15 59 22 97 22c41 0 102 -7 144 -56c41 -48 47 -112 47 -159v-303h-94v264c0 47 -2 108 -32 144c-10 12 -36 34 -83 34c-42 0 -77 -19 -100 -44c-45 -50 -48 -126 -48 -162v-236h-94z" />
    <glyph glyph-name="o" unicode="o" horiz-adv-x="610" 
d="M305 518c97 0 159 -42 193 -80c45 -50 66 -118 66 -183s-21 -133 -66 -183c-34 -38 -96 -80 -193 -80s-159 42 -193 80c-45 50 -66 118 -66 183s21 133 66 183c34 38 96 80 193 80zM305 442c-50 0 -93 -26 -120 -60c-27 -35 -39 -82 -39 -127c0 -52 15 -96 39 -127
c41 -55 97 -60 120 -60s79 5 120 60c24 31 39 75 39 127s-15 96 -39 127c-31 41 -76 60 -120 60z" />
    <glyph glyph-name="p" unicode="p" horiz-adv-x="611" 
d="M80 510h90v-73h2c52 73 131 81 169 81c65 0 120 -20 162 -68c37 -43 62 -110 62 -191c0 -67 -19 -142 -59 -192c-27 -34 -77 -75 -160 -75c-39 0 -78 7 -112 25c-27 14 -45 31 -58 50h-2v-291h-94v734zM174 254c0 -44 12 -95 39 -131c22 -30 60 -55 109 -55
c45 0 76 21 96 43c28 31 47 83 47 151c0 40 -6 95 -42 136c-23 27 -56 44 -98 44c-63 0 -96 -34 -114 -60c-28 -39 -37 -83 -37 -128z" />
    <glyph glyph-name="q" unicode="q" horiz-adv-x="611" 
d="M531 510v-734h-94v291h-2c-13 -19 -31 -36 -58 -50c-34 -18 -73 -25 -112 -25c-83 0 -133 41 -160 75c-40 50 -59 125 -59 192c0 81 25 148 62 191c42 48 97 68 162 68c38 0 117 -8 169 -81h2v73h90zM437 254c0 45 -9 89 -37 128c-18 26 -51 60 -114 60
c-42 0 -75 -17 -98 -44c-36 -41 -42 -96 -42 -136c0 -68 19 -120 47 -151c20 -22 51 -43 96 -43c49 0 87 25 109 55c27 36 39 87 39 131z" />
    <glyph glyph-name="r" unicode="r" horiz-adv-x="379" 
d="M80 510h88v-83h2c27 55 79 91 136 91c13 0 39 -3 50 -5l9 -2v-84c-19 7 -36 9 -52 9c-34 0 -63 -10 -90 -42c-45 -52 -49 -126 -49 -166v-228h-94v510z" />
    <glyph glyph-name="s" unicode="s" horiz-adv-x="406" 
d="M48 20l5 83c55 -31 99 -35 119 -35c29 0 58 9 75 25c10 9 19 24 19 46s-10 34 -25 46c-19 15 -49 31 -68 40l-20 9c-34 15 -73 42 -91 69c-14 22 -17 45 -17 62c0 54 23 89 45 109c30 27 78 44 135 44c56 0 103 -15 117 -20l-8 -80c-14 8 -27 13 -43 17
c-17 4 -36 7 -55 7c-22 0 -46 -4 -62 -13c-22 -13 -29 -32 -29 -47c0 -49 51 -67 92 -86l15 -7c32 -15 70 -33 92 -65c13 -20 22 -47 22 -79c0 -49 -20 -85 -52 -112c-36 -30 -79 -41 -133 -41c-57 0 -100 13 -133 28z" />
    <glyph glyph-name="t" unicode="t" horiz-adv-x="375" 
d="M118 628l94 30v-148h141v-76h-141v-275c0 -19 3 -45 22 -66c11 -12 30 -25 61 -25c20 0 41 6 60 18v-80c-26 -9 -55 -14 -83 -14c-39 0 -82 10 -110 34c-38 32 -44 78 -44 114v294h-111v76h111v118z" />
    <glyph glyph-name="u" unicode="u" horiz-adv-x="604" 
d="M524 510v-510h-94v73h-2c-15 -22 -37 -43 -67 -59c-29 -15 -59 -22 -97 -22c-41 0 -102 7 -144 56c-41 48 -47 112 -47 159v303h94v-264c0 -47 2 -108 32 -144c10 -12 36 -34 83 -34c42 0 77 19 100 44c45 50 48 126 48 162v236h94z" />
    <glyph glyph-name="v" unicode="v" horiz-adv-x="500" 
d="M489 510l-183 -510h-112l-183 510h103l138 -416h2l141 416h94z" />
    <glyph glyph-name="w" unicode="w" horiz-adv-x="833" 
d="M821 510l-164 -510h-109l-132 428h-2l-129 -428h-109l-164 510h103l117 -422h2l130 422h111l128 -422h2l124 422h92z" />
    <glyph glyph-name="x" unicode="x" horiz-adv-x="500" 
d="M10 0l184 267l-166 243h117l111 -182l113 182h105l-164 -243l180 -267h-116l-126 200l-126 -200h-112z" />
    <glyph glyph-name="y" unicode="y" horiz-adv-x="488" 
d="M36 -217l6 77c13 -5 30 -8 41 -8c28 0 50 10 68 29c23 24 36 59 41 77l6 22l-12 38l-179 492h103l140 -419h2l137 419h95l-191 -529c-20 -55 -40 -107 -67 -142c-35 -45 -77 -63 -131 -63c-28 0 -41 3 -54 6z" />
    <glyph glyph-name="z" unicode="z" horiz-adv-x="500" 
d="M43 0v82l294 352h-280v76h389v-82l-294 -352h305v-76h-414z" />
    <glyph glyph-name="braceleft" unicode="{" horiz-adv-x="317" 
d="M209 610v-181c0 -32 -7 -66 -38 -94c-17 -16 -35 -23 -52 -26c17 -3 35 -10 52 -26c31 -28 38 -62 38 -94v-181c0 -20 -1 -41 17 -60c12 -13 26 -16 41 -16c8 0 15 1 23 3l8 -69c-10 -2 -28 -4 -45 -4c-48 0 -77 16 -93 31c-34 32 -37 79 -37 108v174
c0 62 -29 94 -86 100v68c57 6 86 38 86 100v174c0 29 3 76 37 108c16 15 45 31 93 31c17 0 35 -2 45 -4l-8 -69c-8 2 -15 3 -23 3c-15 0 -29 -3 -41 -16c-18 -19 -17 -40 -17 -60z" />
    <glyph glyph-name="bar" unicode="|" horiz-adv-x="222" 
d="M67 -12v762h88v-762h-88z" />
    <glyph glyph-name="braceright" unicode="}" horiz-adv-x="317" 
d="M108 429v181c0 20 1 41 -17 60c-12 13 -26 16 -41 16c-8 0 -15 -1 -23 -3l-8 69c10 2 28 4 45 4c48 0 77 -16 93 -31c34 -32 37 -79 37 -108v-174c0 -62 29 -94 86 -100v-68c-57 -6 -86 -38 -86 -100v-174c0 -29 -3 -76 -37 -108c-16 -15 -45 -31 -93 -31
c-17 0 -35 2 -45 4l8 69c8 -2 15 -3 23 -3c15 0 29 3 41 16c18 19 17 40 17 60v181c0 32 7 66 38 94c17 16 35 23 52 26c-17 3 -35 10 -52 26c-31 28 -38 62 -38 94z" />
    <glyph glyph-name="asciitilde" unicode="~" horiz-adv-x="600" 
d="M495 333l36 -70c-20 -42 -58 -85 -125 -85c-27 0 -53 6 -111 31l-25 11c-31 14 -54 26 -77 26c-42 0 -73 -46 -88 -73l-36 70c20 42 58 85 125 85c27 0 53 -6 111 -31l25 -11c31 -14 54 -26 77 -26c42 0 73 46 88 73z" />
    <glyph glyph-name="uni00A0" unicode="&#xa0;" horiz-adv-x="233" 
 />
    <glyph glyph-name="exclamdown" unicode="&#xa1;" horiz-adv-x="389" 
d="M251 0h-112l16 504h80zM139 700h112v-112h-112v112z" />
    <glyph glyph-name="cent" unicode="&#xa2;" 
d="M463 502l-8 -78c-32 14 -72 22 -102 22c-36 0 -76 -13 -105 -40c-36 -33 -59 -90 -59 -151c0 -44 12 -96 39 -131s73 -60 131 -60c44 0 78 14 101 29l7 -84c-31 -13 -63 -20 -98 -21v-94h-58v97c-73 10 -123 46 -154 80c-38 42 -68 106 -68 188c0 68 22 147 88 203
c29 25 75 50 134 58v98h58v-97c30 -2 61 -7 94 -19z" />
    <glyph glyph-name="sterling" unicode="&#xa3;" 
d="M59 0v88h91v260h-79v58h79v58c0 55 9 147 92 206c36 26 87 42 150 42c66 0 106 -14 118 -19l-8 -93c-40 17 -67 24 -100 24c-19 0 -58 -2 -89 -22c-59 -39 -63 -110 -63 -145v-51h161v-58h-161v-260h247v-88h-438z" />
    <glyph glyph-name="currency" unicode="&#xa4;" 
d="M24 146l56 57c-21 25 -50 70 -50 146c0 81 32 127 50 148l-56 54l51 52l55 -55c55 41 114 49 148 49c65 0 115 -23 150 -49l54 55l50 -52l-54 -54c15 -19 48 -65 48 -148c0 -43 -10 -98 -48 -146l54 -57l-50 -51l-54 57c-21 -18 -66 -51 -150 -51c-82 0 -127 33 -148 51
l-55 -57zM118 349c0 -92 72 -166 160 -166c92 0 160 77 160 166c0 88 -68 166 -160 166c-89 0 -160 -76 -160 -166z" />
    <glyph glyph-name="yen" unicode="&#xa5;" 
d="M229 0v162h-141v58h141v72l-8 16h-133v58h101l-183 332h111l164 -313l158 313h111l-181 -332h101v-58h-133l-8 -16v-72h141v-58h-141v-162h-100z" />
    <glyph glyph-name="brokenbar" unicode="&#xa6;" horiz-adv-x="222" 
d="M67 -12v277h88v-277h-88zM67 473v277h88v-277h-88z" />
    <glyph glyph-name="section" unicode="&#xa7;" 
d="M89 -94l9 91c69 -35 145 -35 165 -35c31 0 57 7 80 22c30 19 39 47 39 69c0 27 -18 42 -33 51c-20 12 -42 18 -85 34l-62 24c-30 12 -66 30 -90 62s-28 67 -28 83c0 29 7 57 26 84c13 18 28 30 47 39c-18 10 -33 24 -44 39c-15 20 -25 47 -25 80c0 28 10 86 73 125
c52 32 115 36 143 36c55 0 109 -11 138 -19l-9 -91c-59 25 -102 28 -122 28c-18 0 -52 -1 -83 -14c-43 -18 -46 -51 -46 -63c0 -15 7 -31 17 -42c17 -19 49 -32 110 -53l31 -11c34 -12 80 -31 109 -64c25 -28 34 -60 34 -93c0 -22 -5 -74 -71 -119c39 -26 64 -67 64 -113
c0 -45 -19 -94 -63 -127c-58 -43 -140 -48 -163 -48c-37 0 -96 2 -161 25zM314 217l45 -16c22 20 36 51 36 74c0 15 -7 35 -16 47c-13 19 -33 29 -52 36l-41 15c-47 17 -60 22 -77 31c-25 -18 -37 -45 -37 -69c0 -22 9 -45 22 -59c24 -27 67 -40 120 -59z" />
    <glyph glyph-name="dieresis" unicode="&#xa8;" horiz-adv-x="278" 
d="M10 620v100h94v-100h-94zM174 620v100h94v-100h-94z" />
    <glyph glyph-name="copyright" unicode="&#xa9;" horiz-adv-x="879" 
d="M80 350c0 199 161 360 360 360s359 -161 359 -360c0 -195 -161 -360 -359 -360c-199 0 -360 164 -360 360zM145 350c0 -163 133 -294 295 -294c163 0 294 131 294 294s-132 295 -294 295c-161 0 -295 -132 -295 -295zM542 535l-3 -60c-30 13 -61 15 -88 15
c-75 0 -117 -60 -117 -136c0 -92 56 -140 119 -140c26 0 60 6 87 17l5 -61c-30 -12 -60 -18 -98 -18c-139 0 -194 106 -194 202c0 115 78 196 188 196c40 0 74 -6 101 -15z" />
    <glyph glyph-name="ordfeminine" unicode="&#xaa;" horiz-adv-x="360" 
d="M66 626l-3 63c29 10 70 21 124 21c32 0 73 -4 104 -25c38 -26 43 -60 43 -102v-128l3 -59h-84v38h-2c-9 -16 -21 -26 -38 -34c-18 -8 -37 -12 -60 -12c-16 0 -60 0 -90 21c-23 16 -40 45 -40 75c0 17 4 60 56 84c36 17 82 18 136 18c8 0 20 0 37 -1v8c0 15 -4 31 -20 44
c-18 15 -37 16 -58 16c-25 0 -61 -4 -108 -27zM252 506v28c-17 1 -35 1 -52 1c-34 0 -59 -3 -75 -14c-13 -9 -20 -24 -20 -40c0 -12 7 -20 16 -26c14 -9 30 -9 43 -9c22 0 48 2 67 17c19 14 21 30 21 43z" />
    <glyph glyph-name="guillemotleft" unicode="&#xab;" 
d="M194 67l-143 202l143 202h88l-130 -202l130 -202h-88zM396 67l-143 202l143 202h88l-130 -202l130 -202h-88z" />
    <glyph glyph-name="logicalnot" unicode="&#xac;" horiz-adv-x="600" 
d="M47 314v88h506v-298h-88v210h-418z" />
    <glyph glyph-name="uni00AD" unicode="&#xad;" horiz-adv-x="420" 
d="M80 334h260v-100h-260v100z" />
    <glyph glyph-name="registered" unicode="&#xae;" horiz-adv-x="879" 
d="M80 350c0 199 161 360 360 360s359 -161 359 -360c0 -195 -161 -360 -359 -360c-199 0 -360 164 -360 360zM145 350c0 -163 133 -294 295 -294c163 0 294 131 294 294s-132 295 -294 295c-161 0 -295 -132 -295 -295zM307 547h141c26 0 59 -3 89 -24
c28 -20 39 -45 39 -84c0 -26 -7 -43 -26 -61c-12 -11 -29 -23 -55 -28v-2c26 -8 39 -30 43 -40l66 -157h-78l-59 138c-13 31 -33 31 -50 31h-37v-169h-73v396zM380 489v-109h45c19 0 40 2 57 16c12 10 19 25 19 39c0 16 -7 33 -19 42c-15 12 -32 12 -51 12h-51z" />
    <glyph glyph-name="macron" unicode="&#xaf;" horiz-adv-x="278" 
d="M-9 652v70h296v-70h-296z" />
    <glyph glyph-name="degree" unicode="&#xb0;" horiz-adv-x="400" 
d="M57 567c0 79 64 143 143 143s143 -64 143 -143s-64 -143 -143 -143s-143 64 -143 143zM121 567c0 -43 36 -79 79 -79s79 36 79 79s-36 79 -79 79s-79 -36 -79 -79z" />
    <glyph glyph-name="plusminus" unicode="&#xb1;" horiz-adv-x="600" 
d="M47 271v88h209v147h88v-147h209v-88h-209v-147h-88v147h-209zM47 0v88h506v-88h-506z" />
    <glyph glyph-name="twosuperior" unicode="&#xb2;" horiz-adv-x="361" 
d="M31 282v76c41 34 204 153 204 227c0 40 -47 55 -80 55c-35 0 -74 -11 -104 -29l-6 74c40 17 82 25 125 25c77 0 153 -33 153 -121c0 -82 -145 -211 -192 -235v-2h199v-70h-299z" />
    <glyph glyph-name="threesuperior" unicode="&#xb3;" horiz-adv-x="361" 
d="M93 466v70h46c37 0 99 17 99 57c0 37 -55 47 -89 47c-37 0 -69 -10 -97 -22l-4 72c30 11 76 20 123 20c79 0 155 -33 155 -113c0 -56 -51 -86 -100 -95v-2c59 -8 104 -43 104 -105c0 -101 -98 -119 -185 -119c-45 0 -84 8 -113 16l10 76c11 -11 55 -22 94 -22
c37 0 106 10 106 53c0 46 -57 67 -100 67h-49z" />
    <glyph glyph-name="acute" unicode="&#xb4;" horiz-adv-x="278" 
d="M73 610l78 130h120l-118 -130h-80z" />
    <glyph glyph-name="mu" unicode="&#xb5;" horiz-adv-x="611" 
d="M531 510v-510h-91v81h-2c-14 -25 -37 -51 -63 -67c-28 -17 -65 -26 -104 -26c-17 0 -39 2 -61 11c-15 6 -26 14 -36 24v-247h-94v734h94v-264c0 -50 -1 -98 24 -137c20 -32 49 -45 84 -45c66 0 101 33 119 60c34 51 36 119 36 150v236h94z" />
    <glyph glyph-name="paragraph" unicode="&#xb6;" horiz-adv-x="600" 
d="M236 -112v445c-125 -7 -216 74 -216 179c0 185 185 188 236 188h271v-812h-88v740h-115v-740h-88z" />
    <glyph glyph-name="periodcentered" unicode="&#xb7;" horiz-adv-x="278" 
d="M83 247v112h112v-112h-112z" />
    <glyph glyph-name="cedilla" unicode="&#xb8;" horiz-adv-x="285" 
d="M100 9h57l-5 -40c25 -1 46 -11 59 -24c14 -14 24 -36 24 -67c0 -25 -13 -51 -31 -68c-10 -9 -35 -25 -81 -25c-30 0 -53 11 -73 25l25 46c13 -10 29 -17 45 -17c14 0 26 4 34 12c5 5 12 14 12 27s-4 25 -12 32c-10 10 -25 12 -37 12c-10 0 -19 0 -29 -2z" />
    <glyph glyph-name="onesuperior" unicode="&#xb9;" horiz-adv-x="361" 
d="M154 282v346l-70 -55l-34 46l111 85h81v-422h-88z" />
    <glyph glyph-name="ordmasculine" unicode="&#xba;" horiz-adv-x="397" 
d="M198 388c-97 0 -172 66 -172 161c0 74 50 161 172 161c104 0 172 -67 172 -161s-72 -161 -172 -161zM108 549c0 -60 27 -103 90 -103c84 0 90 73 90 103c0 76 -45 103 -90 103c-44 0 -90 -28 -90 -103z" />
    <glyph glyph-name="guillemotright" unicode="&#xbb;" 
d="M160 471l143 -202l-143 -202h-88l130 202l-130 202h88zM362 471l143 -202l-143 -202h-88l130 202l-130 202h88z" />
    <glyph glyph-name="onequarter" unicode="&#xbc;" horiz-adv-x="834" 
d="M143 -22l433 742h72l-433 -742h-72zM137 278v346l-70 -55l-34 46l111 85h81v-422h-88zM661 153v199h-2l-128 -199h130zM661 0v83h-212v61l184 278h116v-269h52v-70h-52v-83h-88z" />
    <glyph glyph-name="onehalf" unicode="&#xbd;" horiz-adv-x="834" 
d="M112 -22l433 742h72l-433 -742h-72zM137 279v346l-70 -55l-34 46l111 84h81v-421h-88zM502 0v76c41 34 204 153 204 227c0 40 -47 55 -80 55c-35 0 -74 -11 -104 -29l-6 74c40 17 82 25 125 25c77 0 153 -33 153 -121c0 -82 -145 -211 -192 -235v-2h199v-70h-299z" />
    <glyph glyph-name="threequarters" unicode="&#xbe;" horiz-adv-x="834" 
d="M186 -22l433 742h72l-433 -742h-72zM93 466v70h46c37 0 99 17 99 57c0 37 -55 47 -89 47c-37 0 -69 -10 -97 -22l-4 72c30 11 76 20 123 20c79 0 155 -33 155 -113c0 -56 -51 -86 -100 -95v-2c59 -8 104 -43 104 -105c0 -101 -98 -119 -185 -119c-45 0 -84 8 -113 16
l10 76c11 -11 55 -22 94 -22c37 0 106 10 106 53c0 46 -57 67 -100 67h-49zM661 153v199h-2l-128 -199h130zM661 0v83h-212v61l184 278h116v-269h52v-70h-52v-83h-88z" />
    <glyph glyph-name="questiondown" unicode="&#xbf;" horiz-adv-x="500" 
d="M296 506v-21c0 -22 -1 -48 -14 -77c-11 -25 -34 -55 -48 -71l-11 -13c-35 -41 -73 -82 -73 -143c0 -43 21 -69 36 -82c25 -21 55 -27 85 -27c27 0 82 2 148 43l7 -92c-61 -27 -128 -33 -166 -33c-55 0 -109 13 -146 41c-40 30 -70 83 -70 143c0 71 39 114 78 160l25 30
c9 11 36 48 47 76c7 17 8 30 8 48v18h94zM305 700v-112h-112v112h112z" />
    <glyph glyph-name="Agrave" unicode="&#xc0;" horiz-adv-x="722" 
d="M12 0l298 700h105l295 -700h-109l-71 177h-342l-71 -177h-105zM498 259l-139 347l-139 -347h278zM245 870h130l80 -120h-96z" />
    <glyph glyph-name="Aacute" unicode="&#xc1;" horiz-adv-x="722" 
d="M12 0l298 700h105l295 -700h-109l-71 177h-342l-71 -177h-105zM498 259l-139 347l-139 -347h278zM340 870h130l-114 -120h-96z" />
    <glyph glyph-name="Acircumflex" unicode="&#xc2;" horiz-adv-x="722" 
d="M12 0l298 700h105l295 -700h-109l-71 177h-342l-71 -177h-105zM498 259l-139 347l-139 -347h278zM306 870h110l104 -120h-90l-69 70l-69 -70h-90z" />
    <glyph glyph-name="Atilde" unicode="&#xc3;" horiz-adv-x="722" 
d="M12 0l298 700h105l295 -700h-109l-71 177h-342l-71 -177h-105zM498 259l-139 347l-139 -347h278zM237 748h-46c2 26 11 53 24 73c22 33 52 39 72 39c18 0 37 -6 53 -13l29 -12c25 -10 46 -21 70 -21c17 0 28 5 36 18c4 7 8 18 10 28h46c-3 -20 -10 -49 -19 -66
c-17 -32 -47 -46 -76 -46c-19 0 -39 7 -54 13l-29 12c-25 10 -46 21 -70 21c-15 0 -26 -5 -34 -15c-6 -8 -10 -21 -12 -31z" />
    <glyph glyph-name="Adieresis" unicode="&#xc4;" horiz-adv-x="722" 
d="M12 0l298 700h105l295 -700h-109l-71 177h-342l-71 -177h-105zM498 259l-139 347l-139 -347h278zM199 852h106v-100h-106v100zM415 852h106v-100h-106v100z" />
    <glyph glyph-name="Aring" unicode="&#xc5;" horiz-adv-x="722" 
d="M12 0l298 700h105l295 -700h-109l-71 177h-342l-71 -177h-105zM498 259l-139 347l-139 -347h278zM260 827c0 55 46 101 101 101s101 -46 101 -101s-46 -101 -101 -101s-101 46 -101 101zM306 827c0 -32 23 -55 55 -55s55 23 55 55s-23 55 -55 55s-55 -23 -55 -55z" />
    <glyph glyph-name="AE" unicode="&#xc6;" horiz-adv-x="944" 
d="M2 0l422 700h439v-88h-277l13 -206h246v-88h-241l14 -230h255v-88h-347l-11 176h-297l-105 -176h-111zM510 258l-22 370h-2l-220 -370h244z" />
    <glyph glyph-name="Ccedilla" unicode="&#xc7;" horiz-adv-x="625" 
d="M579 680l-8 -97c-44 26 -94 39 -144 39c-62 0 -124 -19 -171 -56c-56 -44 -97 -119 -97 -216c0 -85 31 -146 66 -186c48 -56 117 -86 212 -86c34 0 82 7 137 33l6 -96c-60 -22 -111 -25 -143 -25l-3 -23c31 0 52 -15 62 -25c17 -17 26 -42 26 -70c0 -26 -14 -54 -33 -71
c-22 -20 -56 -27 -85 -27c-20 0 -49 7 -77 27l27 48c16 -13 33 -18 47 -18c17 0 28 6 36 13c8 8 12 17 12 28c0 13 -4 27 -12 34c-10 10 -27 12 -39 12c-10 0 -21 0 -31 -2l11 77c-95 6 -177 47 -229 100c-52 54 -96 144 -96 258c0 99 32 206 130 282c78 60 168 77 244 77
s120 -15 152 -30z" />
    <glyph glyph-name="Egrave" unicode="&#xc8;" horiz-adv-x="554" 
d="M94 0v700h391v-88h-291v-205h265v-88h-265v-231h291v-88h-391zM170 870h130l80 -120h-96z" />
    <glyph glyph-name="Eacute" unicode="&#xc9;" horiz-adv-x="554" 
d="M94 0v700h391v-88h-291v-205h265v-88h-265v-231h291v-88h-391zM320 870h130l-114 -120h-96z" />
    <glyph glyph-name="Ecircumflex" unicode="&#xca;" horiz-adv-x="554" 
d="M94 0v700h391v-88h-291v-205h265v-88h-265v-231h291v-88h-391zM234 870h110l104 -120h-90l-69 70l-69 -70h-90z" />
    <glyph glyph-name="Edieresis" unicode="&#xcb;" horiz-adv-x="554" 
d="M94 0v700h391v-88h-291v-205h265v-88h-265v-231h291v-88h-391zM130 852h106v-100h-106v100zM346 852h106v-100h-106v100z" />
    <glyph glyph-name="Igrave" unicode="&#xcc;" horiz-adv-x="288" 
d="M94 0v700h100v-700h-100zM28 870h130l80 -120h-96z" />
    <glyph glyph-name="Iacute" unicode="&#xcd;" horiz-adv-x="288" 
d="M94 0v700h100v-700h-100zM123 870h130l-114 -120h-96z" />
    <glyph glyph-name="Icircumflex" unicode="&#xce;" horiz-adv-x="288" 
d="M94 0v700h100v-700h-100zM89 870h110l104 -120h-90l-69 70l-69 -70h-90z" />
    <glyph glyph-name="Idieresis" unicode="&#xcf;" horiz-adv-x="288" 
d="M94 0v700h100v-700h-100zM-18 852h106v-100h-106v100zM198 852h106v-100h-106v100z" />
    <glyph glyph-name="Eth" unicode="&#xd0;" horiz-adv-x="723" 
d="M183 612v-205h183v-64h-183v-255h105c172 0 268 83 268 264c0 150 -104 260 -258 260h-115zM83 0v343h-68v64h68v293h206c207 0 373 -128 373 -344c0 -235 -142 -356 -373 -356h-206z" />
    <glyph glyph-name="Ntilde" unicode="&#xd1;" horiz-adv-x="722" 
d="M88 0v700h136l308 -564h2v564h100v-700h-128l-316 576h-2v-576h-100zM246 748h-46c2 26 11 53 24 73c22 33 52 39 72 39c18 0 37 -6 53 -13l29 -12c25 -10 46 -21 70 -21c17 0 28 5 36 18c4 7 8 18 10 28h46c-3 -20 -10 -49 -19 -66c-17 -32 -47 -46 -76 -46
c-19 0 -39 7 -54 13l-29 12c-25 10 -46 21 -70 21c-15 0 -26 -5 -34 -15c-6 -8 -10 -21 -12 -31z" />
    <glyph glyph-name="Ograve" unicode="&#xd2;" horiz-adv-x="778" 
d="M389 710c112 0 193 -40 250 -106c52 -59 86 -147 86 -254c0 -109 -36 -198 -86 -255c-44 -51 -122 -105 -250 -105s-206 54 -250 105c-50 57 -86 146 -86 255c0 107 34 195 86 254c57 66 138 106 250 106zM389 622c-82 0 -139 -39 -171 -80c-36 -46 -59 -120 -59 -192
c0 -59 16 -137 59 -192c34 -44 87 -80 171 -80s137 36 171 80c43 55 59 133 59 192c0 72 -23 146 -59 192c-32 41 -89 80 -171 80zM273 870h130l80 -120h-96z" />
    <glyph glyph-name="Oacute" unicode="&#xd3;" horiz-adv-x="778" 
d="M389 710c112 0 193 -40 250 -106c52 -59 86 -147 86 -254c0 -109 -36 -198 -86 -255c-44 -51 -122 -105 -250 -105s-206 54 -250 105c-50 57 -86 146 -86 255c0 107 34 195 86 254c57 66 138 106 250 106zM389 622c-82 0 -139 -39 -171 -80c-36 -46 -59 -120 -59 -192
c0 -59 16 -137 59 -192c34 -44 87 -80 171 -80s137 36 171 80c43 55 59 133 59 192c0 72 -23 146 -59 192c-32 41 -89 80 -171 80zM368 870h130l-114 -120h-96z" />
    <glyph glyph-name="Ocircumflex" unicode="&#xd4;" horiz-adv-x="778" 
d="M389 710c112 0 193 -40 250 -106c52 -59 86 -147 86 -254c0 -109 -36 -198 -86 -255c-44 -51 -122 -105 -250 -105s-206 54 -250 105c-50 57 -86 146 -86 255c0 107 34 195 86 254c57 66 138 106 250 106zM389 622c-82 0 -139 -39 -171 -80c-36 -46 -59 -120 -59 -192
c0 -59 16 -137 59 -192c34 -44 87 -80 171 -80s137 36 171 80c43 55 59 133 59 192c0 72 -23 146 -59 192c-32 41 -89 80 -171 80zM334 870h110l104 -120h-90l-69 70l-69 -70h-90z" />
    <glyph glyph-name="Otilde" unicode="&#xd5;" horiz-adv-x="778" 
d="M389 710c112 0 193 -40 250 -106c52 -59 86 -147 86 -254c0 -109 -36 -198 -86 -255c-44 -51 -122 -105 -250 -105s-206 54 -250 105c-50 57 -86 146 -86 255c0 107 34 195 86 254c57 66 138 106 250 106zM389 622c-82 0 -139 -39 -171 -80c-36 -46 -59 -120 -59 -192
c0 -59 16 -137 59 -192c34 -44 87 -80 171 -80s137 36 171 80c43 55 59 133 59 192c0 72 -23 146 -59 192c-32 41 -89 80 -171 80zM265 748h-46c2 26 11 53 24 73c22 33 52 39 72 39c18 0 37 -6 53 -13l29 -12c25 -10 46 -21 70 -21c17 0 28 5 36 18c4 7 8 18 10 28h46
c-3 -20 -10 -49 -19 -66c-17 -32 -47 -46 -76 -46c-19 0 -39 7 -54 13l-29 12c-25 10 -46 21 -70 21c-15 0 -26 -5 -34 -15c-6 -8 -10 -21 -12 -31z" />
    <glyph glyph-name="Odieresis" unicode="&#xd6;" horiz-adv-x="778" 
d="M389 710c112 0 193 -40 250 -106c52 -59 86 -147 86 -254c0 -109 -36 -198 -86 -255c-44 -51 -122 -105 -250 -105s-206 54 -250 105c-50 57 -86 146 -86 255c0 107 34 195 86 254c57 66 138 106 250 106zM389 622c-82 0 -139 -39 -171 -80c-36 -46 -59 -120 -59 -192
c0 -59 16 -137 59 -192c34 -44 87 -80 171 -80s137 36 171 80c43 55 59 133 59 192c0 72 -23 146 -59 192c-32 41 -89 80 -171 80zM227 852h106v-100h-106v100zM443 852h106v-100h-106v100z" />
    <glyph glyph-name="multiply" unicode="&#xd7;" horiz-adv-x="600" 
d="M238 253l-170 170l62 62l170 -171l170 171l62 -62l-171 -170l171 -170l-62 -62l-170 171l-170 -171l-62 62z" />
    <glyph glyph-name="Oslash" unicode="&#xd8;" horiz-adv-x="726" 
d="M162 162l318 412c-36 31 -83 51 -143 50c-154 1 -230 -131 -230 -273c0 -69 17 -138 55 -189zM42 7l57 74c-64 64 -98 158 -98 270c0 207 124 361 336 361c80 0 148 -23 202 -62l53 69l36 -28l-54 -71c65 -66 99 -160 99 -269c0 -212 -123 -361 -336 -361
c-81 0 -149 21 -203 61l-54 -70zM511 539l-317 -411c35 -31 83 -50 143 -50c161 0 230 134 230 273c0 70 -19 138 -56 188z" />
    <glyph glyph-name="Ugrave" unicode="&#xd9;" horiz-adv-x="722" 
d="M632 700v-410c0 -115 -35 -184 -73 -225c-22 -24 -82 -75 -198 -75s-176 51 -198 75c-38 41 -73 110 -73 225v410h100v-397c0 -51 4 -116 37 -163c38 -54 90 -62 134 -62s96 8 134 62c33 47 37 112 37 163v397h100zM230 870h130l80 -120h-96z" />
    <glyph glyph-name="Uacute" unicode="&#xda;" horiz-adv-x="722" 
d="M632 700v-410c0 -115 -35 -184 -73 -225c-22 -24 -82 -75 -198 -75s-176 51 -198 75c-38 41 -73 110 -73 225v410h100v-397c0 -51 4 -116 37 -163c38 -54 90 -62 134 -62s96 8 134 62c33 47 37 112 37 163v397h100zM380 870h130l-114 -120h-96z" />
    <glyph glyph-name="Ucircumflex" unicode="&#xdb;" horiz-adv-x="722" 
d="M632 700v-410c0 -115 -35 -184 -73 -225c-22 -24 -82 -75 -198 -75s-176 51 -198 75c-38 41 -73 110 -73 225v410h100v-397c0 -51 4 -116 37 -163c38 -54 90 -62 134 -62s96 8 134 62c33 47 37 112 37 163v397h100zM306 870h110l104 -120h-90l-69 70l-69 -70h-90z" />
    <glyph glyph-name="Udieresis" unicode="&#xdc;" horiz-adv-x="722" 
d="M632 700v-410c0 -115 -35 -184 -73 -225c-22 -24 -82 -75 -198 -75s-176 51 -198 75c-38 41 -73 110 -73 225v410h100v-397c0 -51 4 -116 37 -163c38 -54 90 -62 134 -62s96 8 134 62c33 47 37 112 37 163v397h100zM199 852h106v-100h-106v100zM415 852h106v-100h-106
v100z" />
    <glyph glyph-name="Yacute" unicode="&#xdd;" horiz-adv-x="667" 
d="M284 0v293l-273 407h117l208 -314l203 314h117l-272 -407v-293h-100zM312 870h130l-114 -120h-96z" />
    <glyph glyph-name="Thorn" unicode="&#xde;" 
d="M83 0v700h100v-104h83c143 0 262 -50 262 -209c0 -155 -121 -210 -247 -210h-98v-177h-100zM183 508v-243h99c62 0 140 31 140 123c0 88 -92 120 -154 120h-85z" />
    <glyph glyph-name="germandbls" unicode="&#xdf;" horiz-adv-x="611" 
d="M174 0h-94v474c0 181 65 288 245 288c96 0 203 -65 203 -196c0 -83 -39 -139 -117 -163v-2c95 -11 149 -97 149 -184c0 -123 -80 -223 -221 -223c-33 0 -63 4 -97 14v79c25 -11 52 -17 79 -17c76 0 139 50 139 143c0 116 -78 144 -188 144v76c94 0 156 28 156 130
c0 64 -40 123 -112 123c-113 0 -142 -107 -142 -197v-489z" />
    <glyph glyph-name="agrave" unicode="&#xe0;" 
d="M109 392l-6 82c65 39 141 44 176 44c64 0 117 -17 150 -50c45 -45 48 -103 48 -158v-207c0 -23 0 -78 4 -103h-88v69h-2c-42 -57 -109 -77 -167 -77c-46 0 -92 14 -122 36s-56 59 -56 116c0 35 12 98 80 136c24 14 77 34 193 34c18 0 47 -1 64 -2v28c0 20 -1 50 -30 75
s-69 27 -93 27c-36 0 -91 -7 -151 -50zM383 199v44c-18 1 -36 2 -54 2c-74 0 -118 -9 -146 -28c-30 -20 -37 -47 -37 -68c0 -30 14 -49 27 -59c19 -15 46 -22 73 -22c38 0 78 14 103 40c17 18 34 48 34 91zM266 740l78 -130h-80l-118 130h120z" />
    <glyph glyph-name="aacute" unicode="&#xe1;" 
d="M109 392l-6 82c65 39 141 44 176 44c64 0 117 -17 150 -50c45 -45 48 -103 48 -158v-207c0 -23 0 -78 4 -103h-88v69h-2c-42 -57 -109 -77 -167 -77c-46 0 -92 14 -122 36s-56 59 -56 116c0 35 12 98 80 136c24 14 77 34 193 34c18 0 47 -1 64 -2v28c0 20 -1 50 -30 75
s-69 27 -93 27c-36 0 -91 -7 -151 -50zM383 199v44c-18 1 -36 2 -54 2c-74 0 -118 -9 -146 -28c-30 -20 -37 -47 -37 -68c0 -30 14 -49 27 -59c19 -15 46 -22 73 -22c38 0 78 14 103 40c17 18 34 48 34 91zM212 610l78 130h120l-118 -130h-80z" />
    <glyph glyph-name="acircumflex" unicode="&#xe2;" 
d="M109 392l-6 82c65 39 141 44 176 44c64 0 117 -17 150 -50c45 -45 48 -103 48 -158v-207c0 -23 0 -78 4 -103h-88v69h-2c-42 -57 -109 -77 -167 -77c-46 0 -92 14 -122 36s-56 59 -56 116c0 35 12 98 80 136c24 14 77 34 193 34c18 0 47 -1 64 -2v28c0 20 -1 50 -30 75
s-69 27 -93 27c-36 0 -91 -7 -151 -50zM383 199v44c-18 1 -36 2 -54 2c-74 0 -118 -9 -146 -28c-30 -20 -37 -47 -37 -68c0 -30 14 -49 27 -59c19 -15 46 -22 73 -22c38 0 78 14 103 40c17 18 34 48 34 91zM133 610l100 130h90l100 -130h-76l-69 84l-69 -84h-76z" />
    <glyph glyph-name="atilde" unicode="&#xe3;" 
d="M109 392l-6 82c65 39 141 44 176 44c64 0 117 -17 150 -50c45 -45 48 -103 48 -158v-207c0 -23 0 -78 4 -103h-88v69h-2c-42 -57 -109 -77 -167 -77c-46 0 -92 14 -122 36s-56 59 -56 116c0 35 12 98 80 136c24 14 77 34 193 34c18 0 47 -1 64 -2v28c0 20 -1 50 -30 75
s-69 27 -93 27c-36 0 -91 -7 -151 -50zM383 199v44c-18 1 -36 2 -54 2c-74 0 -118 -9 -146 -28c-30 -20 -37 -47 -37 -68c0 -30 14 -49 27 -59c19 -15 46 -22 73 -22c38 0 78 14 103 40c17 18 34 48 34 91zM159 586h-43c2 26 10 53 22 73c20 33 49 39 69 39
c18 0 35 -7 50 -13l28 -12c17 -7 40 -21 66 -21c20 0 28 7 34 18c4 7 8 17 10 28h44c-3 -21 -10 -48 -19 -66c-19 -37 -49 -46 -72 -46c-19 0 -37 7 -51 13l-28 12c-17 7 -40 21 -66 21c-18 0 -26 -6 -32 -15s-10 -20 -12 -31z" />
    <glyph glyph-name="adieresis" unicode="&#xe4;" 
d="M109 392l-6 82c65 39 141 44 176 44c64 0 117 -17 150 -50c45 -45 48 -103 48 -158v-207c0 -23 0 -78 4 -103h-88v69h-2c-42 -57 -109 -77 -167 -77c-46 0 -92 14 -122 36s-56 59 -56 116c0 35 12 98 80 136c24 14 77 34 193 34c18 0 47 -1 64 -2v28c0 20 -1 50 -30 75
s-69 27 -93 27c-36 0 -91 -7 -151 -50zM383 199v44c-18 1 -36 2 -54 2c-74 0 -118 -9 -146 -28c-30 -20 -37 -47 -37 -68c0 -30 14 -49 27 -59c19 -15 46 -22 73 -22c38 0 78 14 103 40c17 18 34 48 34 91zM149 620v100h94v-100h-94zM313 620v100h94v-100h-94z" />
    <glyph glyph-name="aring" unicode="&#xe5;" 
d="M109 392l-6 82c65 39 141 44 176 44c64 0 117 -17 150 -50c45 -45 48 -103 48 -158v-207c0 -23 0 -78 4 -103h-88v69h-2c-42 -57 -109 -77 -167 -77c-46 0 -92 14 -122 36s-56 59 -56 116c0 35 12 98 80 136c24 14 77 34 193 34c18 0 47 -1 64 -2v28c0 20 -1 50 -30 75
s-69 27 -93 27c-36 0 -91 -7 -151 -50zM383 199v44c-18 1 -36 2 -54 2c-74 0 -118 -9 -146 -28c-30 -20 -37 -47 -37 -68c0 -30 14 -49 27 -59c19 -15 46 -22 73 -22c38 0 78 14 103 40c17 18 34 48 34 91zM176 678c0 56 46 102 102 102s102 -46 102 -102
s-46 -102 -102 -102s-102 46 -102 102zM216 678c0 -35 27 -62 62 -62s62 27 62 62s-27 62 -62 62s-62 -27 -62 -62z" />
    <glyph glyph-name="ae" unicode="&#xe6;" horiz-adv-x="889" 
d="M107 392l-5 78c44 27 103 48 169 48c68 0 141 -25 176 -88c36 63 105 88 177 88c173 0 224 -137 224 -284h-361c0 -92 70 -167 167 -167c50 0 105 24 141 52v-93c-44 -20 -96 -34 -146 -34c-87 0 -187 28 -220 117h-2c-21 -79 -107 -117 -189 -117
c-95 0 -197 58 -197 161c0 139 158 161 246 161c54 0 87 -6 106 -5c0 98 -64 134 -144 134c-49 0 -103 -23 -142 -51zM141 150c0 -56 50 -83 100 -83c90 0 152 82 152 175c-15 0 -45 3 -90 3c-53 0 -162 -11 -162 -95zM487 303h261c0 66 -48 140 -125 140
c-82 0 -136 -62 -136 -140z" />
    <glyph glyph-name="ccedilla" unicode="&#xe7;" horiz-adv-x="444" 
d="M412 498l-8 -78c-32 14 -72 22 -102 22c-36 0 -76 -14 -105 -39c-36 -32 -59 -89 -59 -148c0 -44 12 -94 39 -128c27 -33 74 -59 131 -59c44 0 78 14 101 29l7 -84c-31 -14 -59 -19 -100 -21l-3 -23c25 -1 46 -11 59 -24c14 -14 24 -36 24 -67c0 -25 -13 -51 -31 -68
c-10 -9 -35 -25 -81 -25c-30 0 -53 11 -73 25l25 46c13 -10 29 -17 45 -17c14 0 26 4 34 12c5 5 12 14 12 27s-4 25 -12 32c-10 10 -25 12 -37 12c-10 0 -19 0 -29 -2l10 75c-72 10 -122 46 -153 79c-38 41 -68 104 -68 185c0 67 22 145 88 200c46 38 107 59 172 59
c20 0 64 -2 114 -20z" />
    <glyph glyph-name="egrave" unicode="&#xe8;" 
d="M510 234h-364c1 -45 18 -86 43 -113c27 -30 71 -53 128 -53c54 0 116 24 154 51v-94l-14 -5c-28 -10 -63 -28 -147 -28c-62 0 -140 11 -198 73c-31 33 -66 94 -66 192c0 108 42 170 79 203c31 28 82 58 160 58c89 0 140 -36 169 -72c38 -47 56 -120 56 -185v-27zM146 304
h264c1 36 -11 69 -29 92c-16 20 -47 46 -101 46c-48 0 -81 -23 -102 -51c-18 -25 -29 -57 -32 -87zM287 740l78 -130h-80l-118 130h120z" />
    <glyph glyph-name="eacute" unicode="&#xe9;" 
d="M510 234h-364c1 -45 18 -86 43 -113c27 -30 71 -53 128 -53c54 0 116 24 154 51v-94l-14 -5c-28 -10 -63 -28 -147 -28c-62 0 -140 11 -198 73c-31 33 -66 94 -66 192c0 108 42 170 79 203c31 28 82 58 160 58c89 0 140 -36 169 -72c38 -47 56 -120 56 -185v-27zM146 304
h264c1 36 -11 69 -29 92c-16 20 -47 46 -101 46c-48 0 -81 -23 -102 -51c-18 -25 -29 -57 -32 -87zM212 610l78 130h120l-118 -130h-80z" />
    <glyph glyph-name="ecircumflex" unicode="&#xea;" 
d="M510 234h-364c1 -45 18 -86 43 -113c27 -30 71 -53 128 -53c54 0 116 24 154 51v-94l-14 -5c-28 -10 -63 -28 -147 -28c-62 0 -140 11 -198 73c-31 33 -66 94 -66 192c0 108 42 170 79 203c31 28 82 58 160 58c89 0 140 -36 169 -72c38 -47 56 -120 56 -185v-27zM146 304
h264c1 36 -11 69 -29 92c-16 20 -47 46 -101 46c-48 0 -81 -23 -102 -51c-18 -25 -29 -57 -32 -87zM133 610l100 130h90l100 -130h-76l-69 84l-69 -84h-76z" />
    <glyph glyph-name="edieresis" unicode="&#xeb;" 
d="M510 234h-364c1 -45 18 -86 43 -113c27 -30 71 -53 128 -53c54 0 116 24 154 51v-94l-14 -5c-28 -10 -63 -28 -147 -28c-62 0 -140 11 -198 73c-31 33 -66 94 -66 192c0 108 42 170 79 203c31 28 82 58 160 58c89 0 140 -36 169 -72c38 -47 56 -120 56 -185v-27zM146 304
h264c1 36 -11 69 -29 92c-16 20 -47 46 -101 46c-48 0 -81 -23 -102 -51c-18 -25 -29 -57 -32 -87zM149 620v100h94v-100h-94zM313 620v100h94v-100h-94z" />
    <glyph glyph-name="igrave" unicode="&#xec;" horiz-adv-x="254" 
d="M80 0v510h94v-510h-94zM109 740l78 -130h-80l-118 130h120z" />
    <glyph glyph-name="iacute" unicode="&#xed;" horiz-adv-x="254" 
d="M80 0v510h94v-510h-94zM55 610l78 130h120l-118 -130h-80z" />
    <glyph glyph-name="icircumflex" unicode="&#xee;" horiz-adv-x="254" 
d="M80 0v510h94v-510h-94zM-24 610l100 130h90l100 -130h-76l-69 84l-69 -84h-76z" />
    <glyph glyph-name="idieresis" unicode="&#xef;" horiz-adv-x="254" 
d="M80 0v510h94v-510h-94zM-8 620v100h94v-100h-94zM156 620v100h94v-100h-94z" />
    <glyph glyph-name="eth" unicode="&#xf0;" horiz-adv-x="611" 
d="M146 255c0 -43 12 -90 35 -123c30 -43 80 -65 127 -65c46 0 91 21 119 60c24 33 38 85 38 128c0 45 -13 95 -45 134c-38 46 -85 54 -114 54c-57 0 -91 -28 -109 -48c-30 -33 -51 -78 -51 -140zM108 587l110 58c-59 35 -104 50 -125 57l72 53c71 -27 104 -44 137 -65
l122 65l46 -53l-104 -55c37 -27 90 -74 132 -146c41 -70 67 -156 67 -238c0 -87 -31 -148 -66 -188c-33 -37 -93 -83 -193 -83c-59 0 -138 18 -199 91c-28 34 -61 88 -61 172c0 96 39 156 78 194c28 27 82 69 182 69c27 0 52 -4 84 -21h2c-20 28 -51 63 -109 106l-129 -68z
" />
    <glyph glyph-name="ntilde" unicode="&#xf1;" horiz-adv-x="604" 
d="M80 0v510h94v-73h2c15 22 37 43 67 59c29 15 59 22 97 22c41 0 102 -7 144 -56c41 -48 47 -112 47 -159v-303h-94v264c0 47 -2 108 -32 144c-10 12 -36 34 -83 34c-42 0 -77 -19 -100 -44c-45 -50 -48 -126 -48 -162v-236h-94zM203 586h-43c2 26 10 53 22 73
c20 33 49 39 69 39c18 0 35 -7 50 -13l28 -12c17 -7 40 -21 66 -21c20 0 28 7 34 18c4 7 8 17 10 28h44c-3 -21 -10 -48 -19 -66c-19 -37 -49 -46 -72 -46c-19 0 -37 7 -51 13l-28 12c-17 7 -40 21 -66 21c-18 0 -26 -6 -32 -15s-10 -20 -12 -31z" />
    <glyph glyph-name="ograve" unicode="&#xf2;" horiz-adv-x="610" 
d="M305 518c97 0 159 -42 193 -80c45 -50 66 -118 66 -183s-21 -133 -66 -183c-34 -38 -96 -80 -193 -80s-159 42 -193 80c-45 50 -66 118 -66 183s21 133 66 183c34 38 96 80 193 80zM305 442c-50 0 -93 -26 -120 -60c-27 -35 -39 -82 -39 -127c0 -52 15 -96 39 -127
c41 -55 97 -60 120 -60s79 5 120 60c24 31 39 75 39 127s-15 96 -39 127c-31 41 -76 60 -120 60zM293 740l78 -130h-80l-118 130h120z" />
    <glyph glyph-name="oacute" unicode="&#xf3;" horiz-adv-x="610" 
d="M305 518c97 0 159 -42 193 -80c45 -50 66 -118 66 -183s-21 -133 -66 -183c-34 -38 -96 -80 -193 -80s-159 42 -193 80c-45 50 -66 118 -66 183s21 133 66 183c34 38 96 80 193 80zM305 442c-50 0 -93 -26 -120 -60c-27 -35 -39 -82 -39 -127c0 -52 15 -96 39 -127
c41 -55 97 -60 120 -60s79 5 120 60c24 31 39 75 39 127s-15 96 -39 127c-31 41 -76 60 -120 60zM239 610l78 130h120l-118 -130h-80z" />
    <glyph glyph-name="ocircumflex" unicode="&#xf4;" horiz-adv-x="610" 
d="M305 518c97 0 159 -42 193 -80c45 -50 66 -118 66 -183s-21 -133 -66 -183c-34 -38 -96 -80 -193 -80s-159 42 -193 80c-45 50 -66 118 -66 183s21 133 66 183c34 38 96 80 193 80zM305 442c-50 0 -93 -26 -120 -60c-27 -35 -39 -82 -39 -127c0 -52 15 -96 39 -127
c41 -55 97 -60 120 -60s79 5 120 60c24 31 39 75 39 127s-15 96 -39 127c-31 41 -76 60 -120 60zM160 610l100 130h90l100 -130h-76l-69 84l-69 -84h-76z" />
    <glyph glyph-name="otilde" unicode="&#xf5;" horiz-adv-x="610" 
d="M305 518c97 0 159 -42 193 -80c45 -50 66 -118 66 -183s-21 -133 -66 -183c-34 -38 -96 -80 -193 -80s-159 42 -193 80c-45 50 -66 118 -66 183s21 133 66 183c34 38 96 80 193 80zM305 442c-50 0 -93 -26 -120 -60c-27 -35 -39 -82 -39 -127c0 -52 15 -96 39 -127
c41 -55 97 -60 120 -60s79 5 120 60c24 31 39 75 39 127s-15 96 -39 127c-31 41 -76 60 -120 60zM186 586h-43c2 26 10 53 22 73c20 33 49 39 69 39c18 0 35 -7 50 -13l28 -12c17 -7 40 -21 66 -21c20 0 28 7 34 18c4 7 8 17 10 28h44c-3 -21 -10 -48 -19 -66
c-19 -37 -49 -46 -72 -46c-19 0 -37 7 -51 13l-28 12c-17 7 -40 21 -66 21c-18 0 -26 -6 -32 -15s-10 -20 -12 -31z" />
    <glyph glyph-name="odieresis" unicode="&#xf6;" horiz-adv-x="610" 
d="M305 518c97 0 159 -42 193 -80c45 -50 66 -118 66 -183s-21 -133 -66 -183c-34 -38 -96 -80 -193 -80s-159 42 -193 80c-45 50 -66 118 -66 183s21 133 66 183c34 38 96 80 193 80zM305 442c-50 0 -93 -26 -120 -60c-27 -35 -39 -82 -39 -127c0 -52 15 -96 39 -127
c41 -55 97 -60 120 -60s79 5 120 60c24 31 39 75 39 127s-15 96 -39 127c-31 41 -76 60 -120 60zM176 620v100h94v-100h-94zM340 620v100h94v-100h-94z" />
    <glyph glyph-name="divide" unicode="&#xf7;" horiz-adv-x="600" 
d="M47 209v88h506v-88h-506zM224 441c0 41 36 77 77 77c39 0 76 -36 76 -77c0 -39 -36 -76 -75 -76c-43 0 -78 37 -78 76zM224 65c0 42 36 76 77 76c39 0 76 -35 76 -76c0 -39 -36 -77 -75 -77c-42 0 -78 37 -78 77z" />
    <glyph glyph-name="oslash" unicode="&#xf8;" horiz-adv-x="611" 
d="M179 137l224 269c-25 24 -57 37 -97 37c-101 0 -160 -92 -160 -188c0 -40 10 -84 33 -118zM429 376l-225 -271c25 -23 59 -38 102 -38c110 0 159 99 159 188c0 45 -13 88 -36 121zM64 -2l57 70c-48 48 -75 114 -75 187c0 153 104 263 260 263c59 0 112 -16 153 -45l53 64
l30 -25l-53 -64c49 -47 76 -114 76 -193c0 -144 -106 -263 -259 -263c-61 0 -114 19 -155 49l-57 -68z" />
    <glyph glyph-name="ugrave" unicode="&#xf9;" horiz-adv-x="604" 
d="M524 510v-510h-94v73h-2c-15 -22 -37 -43 -67 -59c-29 -15 -59 -22 -97 -22c-41 0 -102 7 -144 56c-41 48 -47 112 -47 159v303h94v-264c0 -47 2 -108 32 -144c10 -12 36 -34 83 -34c42 0 77 19 100 44c45 50 48 126 48 162v236h94zM290 740l78 -130h-80l-118 130h120z
" />
    <glyph glyph-name="uacute" unicode="&#xfa;" horiz-adv-x="604" 
d="M524 510v-510h-94v73h-2c-15 -22 -37 -43 -67 -59c-29 -15 -59 -22 -97 -22c-41 0 -102 7 -144 56c-41 48 -47 112 -47 159v303h94v-264c0 -47 2 -108 32 -144c10 -12 36 -34 83 -34c42 0 77 19 100 44c45 50 48 126 48 162v236h94zM236 610l78 130h120l-118 -130h-80z
" />
    <glyph glyph-name="ucircumflex" unicode="&#xfb;" horiz-adv-x="604" 
d="M524 510v-510h-94v73h-2c-15 -22 -37 -43 -67 -59c-29 -15 -59 -22 -97 -22c-41 0 -102 7 -144 56c-41 48 -47 112 -47 159v303h94v-264c0 -47 2 -108 32 -144c10 -12 36 -34 83 -34c42 0 77 19 100 44c45 50 48 126 48 162v236h94zM157 610l100 130h90l100 -130h-76
l-69 84l-69 -84h-76z" />
    <glyph glyph-name="udieresis" unicode="&#xfc;" horiz-adv-x="604" 
d="M524 510v-510h-94v73h-2c-15 -22 -37 -43 -67 -59c-29 -15 -59 -22 -97 -22c-41 0 -102 7 -144 56c-41 48 -47 112 -47 159v303h94v-264c0 -47 2 -108 32 -144c10 -12 36 -34 83 -34c42 0 77 19 100 44c45 50 48 126 48 162v236h94zM173 620v100h94v-100h-94zM337 620
v100h94v-100h-94z" />
    <glyph glyph-name="yacute" unicode="&#xfd;" horiz-adv-x="488" 
d="M36 -217l6 77c13 -5 30 -8 41 -8c28 0 50 10 68 29c23 24 36 59 41 77l6 22l-12 38l-179 492h103l140 -419h2l137 419h95l-191 -529c-20 -55 -40 -107 -67 -142c-35 -45 -77 -63 -131 -63c-28 0 -41 3 -54 6zM193 610l78 130h120l-118 -130h-80z" />
    <glyph glyph-name="thorn" unicode="&#xfe;" horiz-adv-x="611" 
d="M80 -203v946h94v-306h2c29 47 80 81 169 81c148 0 220 -119 220 -254c0 -138 -65 -272 -219 -272c-90 0 -141 35 -170 81h-2v-276h-94zM465 257c2 91 -38 186 -140 186s-151 -95 -151 -189c0 -84 44 -187 150 -187c101 0 143 111 141 190z" />
    <glyph glyph-name="ydieresis" unicode="&#xff;" horiz-adv-x="488" 
d="M36 -217l6 77c13 -5 30 -8 41 -8c28 0 50 10 68 29c23 24 36 59 41 77l6 22l-12 38l-179 492h103l140 -419h2l137 419h95l-191 -529c-20 -55 -40 -107 -67 -142c-35 -45 -77 -63 -131 -63c-28 0 -41 3 -54 6zM115 620v100h94v-100h-94zM279 620v100h94v-100h-94z" />
    <glyph glyph-name="Amacron" unicode="&#x100;" horiz-adv-x="722" 
d="M12 0l298 700h105l295 -700h-109l-71 177h-342l-71 -177h-105zM498 259l-139 347l-139 -347h278zM200 840h320v-70h-320v70z" />
    <glyph glyph-name="amacron" unicode="&#x101;" 
d="M109 392l-6 82c65 39 141 44 176 44c64 0 117 -17 150 -50c45 -45 48 -103 48 -158v-207c0 -23 0 -78 4 -103h-88v69h-2c-42 -57 -109 -77 -167 -77c-46 0 -92 14 -122 36s-56 59 -56 116c0 35 12 98 80 136c24 14 77 34 193 34c18 0 47 -1 64 -2v28c0 20 -1 50 -30 75
s-69 27 -93 27c-36 0 -91 -7 -151 -50zM383 199v44c-18 1 -36 2 -54 2c-74 0 -118 -9 -146 -28c-30 -20 -37 -47 -37 -68c0 -30 14 -49 27 -59c19 -15 46 -22 73 -22c38 0 78 14 103 40c17 18 34 48 34 91zM130 652v70h296v-70h-296z" />
    <glyph glyph-name="Abreve" unicode="&#x102;" horiz-adv-x="722" 
d="M12 0l298 700h105l295 -700h-109l-71 177h-342l-71 -177h-105zM498 259l-139 347l-139 -347h278zM193 870h70c8 -23 29 -56 98 -56s90 33 98 56h70c-23 -87 -93 -126 -168 -126s-145 39 -168 126z" />
    <glyph glyph-name="abreve" unicode="&#x103;" 
d="M109 392l-6 82c65 39 141 44 176 44c64 0 117 -17 150 -50c45 -45 48 -103 48 -158v-207c0 -23 0 -78 4 -103h-88v69h-2c-42 -57 -109 -77 -167 -77c-46 0 -92 14 -122 36s-56 59 -56 116c0 35 12 98 80 136c24 14 77 34 193 34c18 0 47 -1 64 -2v28c0 20 -1 50 -30 75
s-69 27 -93 27c-36 0 -91 -7 -151 -50zM383 199v44c-18 1 -36 2 -54 2c-74 0 -118 -9 -146 -28c-30 -20 -37 -47 -37 -68c0 -30 14 -49 27 -59c19 -15 46 -22 73 -22c38 0 78 14 103 40c17 18 34 48 34 91zM124 740h60c7 -33 30 -72 94 -72s87 39 94 72h60
c-7 -87 -69 -142 -154 -142s-147 55 -154 142z" />
    <glyph glyph-name="Aogonek" unicode="&#x104;" horiz-adv-x="722" 
d="M12 0l298 700h105l295 -700c-38 -28 -55 -43 -73 -71c-11 -17 -19 -34 -19 -60c0 -19 3 -31 16 -42c10 -9 21 -13 35 -13c21 0 45 5 68 20l18 -43c-33 -23 -66 -32 -104 -32c-28 0 -58 3 -83 24c-27 21 -33 47 -33 76c0 33 8 52 27 77c23 29 50 50 79 64h-40l-71 177
h-342l-71 -177h-105zM498 259l-139 347l-139 -347h278z" />
    <glyph glyph-name="aogonek" unicode="&#x105;" horiz-adv-x="525" 
d="M109 392l-6 82c65 39 141 44 176 44c64 0 117 -17 150 -50c45 -45 48 -103 48 -158v-207c0 -23 0 -78 4 -103c-42 -30 -61 -52 -71 -69c-13 -21 -18 -41 -18 -58c0 -16 4 -31 15 -41c9 -9 20 -13 34 -13c20 0 44 5 66 20l18 -42c-27 -18 -59 -31 -101 -31
c-27 0 -57 4 -81 23c-22 18 -32 39 -32 66c0 36 8 60 26 83c15 19 39 44 77 62h-21v69h-2c-42 -57 -109 -77 -167 -77c-46 0 -92 14 -122 36s-56 59 -56 116c0 35 12 98 80 136c24 14 77 34 193 34c18 0 47 -1 64 -2v28c0 19 -2 51 -29 75c-31 28 -82 28 -94 28
c-44 0 -100 -14 -151 -51zM383 199v44c-18 1 -36 2 -54 2c-74 0 -118 -9 -146 -28c-30 -20 -37 -47 -37 -68c0 -29 14 -49 27 -59c18 -15 47 -23 73 -23c40 0 81 18 103 41c17 18 34 48 34 91z" />
    <glyph glyph-name="Cacute" unicode="&#x106;" horiz-adv-x="625" 
d="M579 680l-8 -97c-44 26 -94 39 -144 39c-62 0 -124 -19 -171 -56c-56 -44 -97 -119 -97 -216c0 -85 31 -146 66 -186c48 -56 117 -86 212 -86c34 0 82 7 137 33l6 -96c-58 -22 -105 -25 -146 -25c-93 0 -203 19 -285 103c-52 54 -96 144 -96 258c0 74 18 197 130 283
c73 56 161 76 244 76c76 0 120 -15 152 -30zM420 870h130l-114 -120h-96z" />
    <glyph glyph-name="cacute" unicode="&#x107;" horiz-adv-x="444" 
d="M412 498l-8 -78c-32 14 -72 22 -102 22c-36 0 -76 -14 -105 -39c-36 -32 -59 -89 -59 -148c0 -44 12 -94 39 -128c27 -33 74 -59 131 -59c44 0 78 14 101 29l7 -84c-30 -13 -65 -21 -118 -21c-87 0 -151 37 -192 82c-29 31 -68 92 -68 185c0 67 22 145 88 200
c46 38 107 59 172 59c20 0 64 -2 114 -20zM193 610l78 130h120l-118 -130h-80z" />
    <glyph glyph-name="Ccircumflex" unicode="&#x108;" horiz-adv-x="625" 
d="M579 680l-8 -97c-44 26 -94 39 -144 39c-62 0 -124 -19 -171 -56c-56 -44 -97 -119 -97 -216c0 -85 31 -146 66 -186c48 -56 117 -86 212 -86c34 0 82 7 137 33l6 -96c-58 -22 -105 -25 -146 -25c-93 0 -203 19 -285 103c-52 54 -96 144 -96 258c0 74 18 197 130 283
c73 56 161 76 244 76c76 0 120 -15 152 -30zM364 870h110l104 -120h-90l-69 70l-69 -70h-90z" />
    <glyph glyph-name="ccircumflex" unicode="&#x109;" horiz-adv-x="444" 
d="M412 498l-8 -78c-32 14 -72 22 -102 22c-36 0 -76 -14 -105 -39c-36 -32 -59 -89 -59 -148c0 -44 12 -94 39 -128c27 -33 74 -59 131 -59c44 0 78 14 101 29l7 -84c-30 -13 -65 -21 -118 -21c-87 0 -151 37 -192 82c-29 31 -68 92 -68 185c0 67 22 145 88 200
c46 38 107 59 172 59c20 0 64 -2 114 -20zM154 611l100 130h90l100 -130h-76l-69 84l-69 -84h-76z" />
    <glyph glyph-name="Cdotaccent" unicode="&#x10a;" horiz-adv-x="625" 
d="M579 680l-8 -97c-44 26 -94 39 -144 39c-62 0 -124 -19 -171 -56c-56 -44 -97 -119 -97 -216c0 -85 31 -146 66 -186c48 -56 117 -86 212 -86c34 0 82 7 137 33l6 -96c-58 -22 -105 -25 -146 -25c-93 0 -203 19 -285 103c-52 54 -96 144 -96 258c0 74 18 197 130 283
c73 56 161 76 244 76c76 0 120 -15 152 -30zM472 854v-102h-112v102h112z" />
    <glyph glyph-name="cdotaccent" unicode="&#x10b;" horiz-adv-x="444" 
d="M412 498l-8 -78c-32 14 -72 22 -102 22c-36 0 -76 -14 -105 -39c-36 -32 -59 -89 -59 -148c0 -44 12 -94 39 -128c27 -33 74 -59 131 -59c44 0 78 14 101 29l7 -84c-30 -13 -65 -21 -118 -21c-87 0 -151 37 -192 82c-29 31 -68 92 -68 185c0 67 22 145 88 200
c46 38 107 59 172 59c20 0 64 -2 114 -20zM332 720v-106h-106v106h106z" />
    <glyph glyph-name="Ccaron" unicode="&#x10c;" horiz-adv-x="625" 
d="M579 680l-8 -97c-44 26 -94 39 -144 39c-62 0 -124 -19 -171 -56c-56 -44 -97 -119 -97 -216c0 -85 31 -146 66 -186c48 -56 117 -86 212 -86c34 0 82 7 137 33l6 -96c-58 -22 -105 -25 -146 -25c-93 0 -203 19 -285 103c-52 54 -96 144 -96 258c0 74 18 197 130 283
c73 56 161 76 244 76c76 0 120 -15 152 -30zM489 750h-110l-104 120h90l69 -70l69 70h90z" />
    <glyph glyph-name="ccaron" unicode="&#x10d;" horiz-adv-x="444" 
d="M412 498l-8 -78c-32 14 -72 22 -102 22c-36 0 -76 -14 -105 -39c-36 -32 -59 -89 -59 -148c0 -44 12 -94 39 -128c27 -33 74 -59 131 -59c44 0 78 14 101 29l7 -84c-30 -13 -65 -21 -118 -21c-87 0 -151 37 -192 82c-29 31 -68 92 -68 185c0 67 22 145 88 200
c46 38 107 59 172 59c20 0 64 -2 114 -20zM412 738l-100 -130h-90l-100 130h76l69 -84l69 84h76z" />
    <glyph glyph-name="Dcaron" unicode="&#x10e;" horiz-adv-x="733" 
d="M94 0v700h206c75 0 183 -14 271 -98c52 -49 101 -128 101 -254c0 -77 -21 -156 -61 -213c-82 -116 -215 -135 -311 -135h-206zM194 612v-524h105c76 0 159 12 217 86c16 20 50 72 50 166c0 100 -36 166 -73 203c-30 29 -89 69 -182 69h-117zM374 750h-110l-104 120h90
l69 -70l69 70h90z" />
    <glyph glyph-name="dcaron" unicode="&#x10f;" horiz-adv-x="674" 
d="M437 762h94v-762h-90v72h-2c-17 -23 -34 -37 -59 -51c-34 -19 -67 -29 -113 -29c-80 0 -131 35 -163 75c-38 47 -58 114 -58 194c0 64 13 135 68 193c47 50 97 64 152 64c51 0 81 -9 112 -27c23 -13 41 -28 57 -51h2v322zM437 254c0 46 -12 92 -37 128
c-26 36 -62 60 -114 60c-38 0 -74 -13 -102 -49c-22 -29 -38 -73 -38 -136c0 -39 7 -85 32 -125c33 -53 78 -64 109 -64c37 0 77 14 107 51c28 35 43 88 43 135zM574 594l40 168h100l-70 -168h-70z" />
    <glyph glyph-name="Dcroat" unicode="&#x110;" horiz-adv-x="723" 
d="M183 612v-205h183v-64h-183v-255h105c172 0 268 83 268 264c0 150 -104 260 -258 260h-115zM83 0v343h-68v64h68v293h206c207 0 373 -128 373 -344c0 -235 -142 -356 -373 -356h-206z" />
    <glyph glyph-name="dcroat" unicode="&#x111;" horiz-adv-x="611" 
d="M437 762h94v-107h75v-54h-75v-601h-90v72h-2c-17 -23 -34 -37 -59 -51c-34 -19 -67 -29 -113 -29c-80 0 -131 35 -163 75c-38 47 -58 114 -58 194c0 64 13 135 68 193c47 50 97 64 152 64c51 0 81 -9 112 -27c23 -13 41 -28 57 -51h2v161h-203v54h203v107zM437 254
c0 46 -12 92 -37 128c-26 36 -62 60 -114 60c-38 0 -74 -13 -102 -49c-22 -29 -38 -73 -38 -136c0 -39 7 -85 32 -125c33 -53 78 -64 109 -64c37 0 77 14 107 51c28 35 43 88 43 135z" />
    <glyph glyph-name="Emacron" unicode="&#x112;" horiz-adv-x="554" 
d="M94 0v700h391v-88h-291v-205h265v-88h-265v-231h291v-88h-391zM130 840h320v-70h-320v70z" />
    <glyph glyph-name="emacron" unicode="&#x113;" 
d="M510 234h-364c1 -45 18 -86 43 -113c27 -30 71 -53 128 -53c54 0 116 24 154 51v-94l-14 -5c-28 -10 -63 -28 -147 -28c-62 0 -140 11 -198 73c-31 33 -66 94 -66 192c0 108 42 170 79 203c31 28 82 58 160 58c89 0 140 -36 169 -72c38 -47 56 -120 56 -185v-27zM146 304
h264c1 36 -11 69 -29 92c-16 20 -47 46 -101 46c-48 0 -81 -23 -102 -51c-18 -25 -29 -57 -32 -87zM130 652v70h296v-70h-296z" />
    <glyph glyph-name="Edotaccent" unicode="&#x116;" horiz-adv-x="554" 
d="M94 0v700h391v-88h-291v-205h265v-88h-265v-231h291v-88h-391zM348 854v-102h-112v102h112z" />
    <glyph glyph-name="edotaccent" unicode="&#x117;" 
d="M510 234h-364c1 -45 18 -86 43 -113c27 -30 71 -53 128 -53c54 0 116 24 154 51v-94l-14 -5c-28 -10 -63 -28 -147 -28c-62 0 -140 11 -198 73c-31 33 -66 94 -66 192c0 108 42 170 79 203c31 28 82 58 160 58c89 0 140 -36 169 -72c38 -47 56 -120 56 -185v-27zM146 304
h264c1 36 -11 69 -29 92c-16 20 -47 46 -101 46c-48 0 -81 -23 -102 -51c-18 -25 -29 -57 -32 -87zM331 720v-106h-106v106h106z" />
    <glyph glyph-name="Eogonek" unicode="&#x118;" horiz-adv-x="554" 
d="M94 0v700h391v-88h-291v-205h265v-88h-265v-231h291v-88h-45c-38 -28 -55 -43 -73 -71c-11 -17 -19 -34 -19 -60c0 -19 3 -31 16 -42c10 -9 21 -13 35 -13c21 0 45 5 68 20l18 -43c-33 -23 -66 -32 -104 -32c-28 0 -58 3 -83 24c-27 21 -33 47 -33 76c0 33 8 52 27 77
c23 29 50 50 79 64h-277z" />
    <glyph glyph-name="eogonek" unicode="&#x119;" 
d="M510 234h-364c1 -45 18 -86 43 -113c27 -30 71 -53 128 -53c37 0 72 10 107 25c17 7 31 15 47 26v-94l-14 -5l-6 -2c-11 -5 -21 -11 -30 -18c-7 -5 -14 -10 -20 -16c-18 -15 -32 -30 -45 -53c-5 -8 -9 -16 -12 -25c-4 -11 -6 -22 -6 -33c0 -16 4 -31 15 -41
c9 -9 20 -13 34 -13c20 0 44 5 66 20l18 -42c-21 -14 -54 -31 -101 -31c-30 0 -60 6 -81 23c-22 17 -32 40 -32 66c0 36 8 60 26 83c17 22 40 42 64 56c-12 -1 -25 -2 -37 -2c-61 0 -140 11 -198 73c-31 33 -66 94 -66 192c0 108 42 170 79 203c31 28 82 58 160 58
c89 0 140 -36 169 -72c38 -47 56 -120 56 -185v-27zM146 304h264c1 36 -11 69 -29 92c-12 15 -28 27 -45 35s-37 11 -56 11c-48 0 -81 -23 -102 -51c-11 -14 -19 -31 -24 -48c-4 -13 -7 -26 -8 -39z" />
    <glyph glyph-name="Ecaron" unicode="&#x11a;" horiz-adv-x="554" 
d="M94 0v700h391v-88h-291v-205h265v-88h-265v-231h291v-88h-391zM344 750h-110l-104 120h90l69 -70l69 70h90z" />
    <glyph glyph-name="ecaron" unicode="&#x11b;" 
d="M510 234h-364c1 -45 18 -86 43 -113c27 -30 71 -53 128 -53c54 0 116 24 154 51v-94l-14 -5c-28 -10 -63 -28 -147 -28c-62 0 -140 11 -198 73c-31 33 -66 94 -66 192c0 108 42 170 79 203c31 28 82 58 160 58c89 0 140 -36 169 -72c38 -47 56 -120 56 -185v-27zM146 304
h264c1 36 -11 69 -29 92c-16 20 -47 46 -101 46c-48 0 -81 -23 -102 -51c-18 -25 -29 -57 -32 -87zM423 740l-100 -130h-90l-100 130h76l69 -84l69 84h76z" />
    <glyph glyph-name="Gcircumflex" unicode="&#x11c;" horiz-adv-x="722" 
d="M627 675l-8 -100c-24 16 -48 26 -79 34c-47 12 -87 13 -106 13c-78 0 -138 -22 -183 -60c-47 -40 -92 -112 -92 -215c0 -80 29 -142 72 -189c53 -57 121 -80 200 -80c17 0 73 5 89 8l14 3v212h-147v82h247v-362c-82 -27 -155 -31 -203 -31c-91 0 -188 19 -267 90
c-87 78 -111 184 -111 273c0 126 52 211 115 267c62 55 147 90 258 90c64 0 117 -11 124 -12c27 -6 53 -14 77 -23zM364 870h110l104 -120h-90l-69 70l-69 -70h-90z" />
    <glyph glyph-name="gcircumflex" unicode="&#x11d;" horiz-adv-x="611" 
d="M531 510v-490c0 -56 -8 -127 -63 -180c-33 -32 -93 -64 -200 -64c-28 0 -94 3 -183 35l10 87c35 -18 104 -46 178 -46c49 0 95 12 128 54c25 32 36 76 36 121v52h-2c-14 -19 -35 -42 -73 -59c-15 -7 -50 -20 -98 -20c-86 0 -135 42 -159 70c-40 48 -59 117 -59 181
c0 92 31 152 61 188c35 43 90 79 174 79c56 0 95 -21 100 -24c32 -17 50 -41 61 -60h2v76h87zM288 76c32 0 79 9 113 56c25 34 36 80 36 122c0 47 -11 96 -38 133c-27 38 -62 55 -109 55c-57 0 -89 -31 -107 -55c-5 -7 -37 -53 -37 -131c0 -46 14 -96 38 -127
c23 -30 62 -53 104 -53zM134 610l100 130h90l100 -130h-76l-69 84l-69 -84h-76z" />
    <glyph glyph-name="Gbreve" unicode="&#x11e;" horiz-adv-x="722" 
d="M627 675l-8 -100c-24 16 -48 26 -79 34c-47 12 -87 13 -106 13c-78 0 -138 -22 -183 -60c-47 -40 -92 -112 -92 -215c0 -80 29 -142 72 -189c53 -57 121 -80 200 -80c17 0 73 5 89 8l14 3v212h-147v82h247v-362c-82 -27 -155 -31 -203 -31c-91 0 -188 19 -267 90
c-87 78 -111 184 -111 273c0 126 52 211 115 267c62 55 147 90 258 90c64 0 117 -11 124 -12c27 -6 53 -14 77 -23zM260 870h70c8 -23 29 -56 98 -56s90 33 98 56h70c-23 -87 -93 -126 -168 -126s-145 39 -168 126z" />
    <glyph glyph-name="gbreve" unicode="&#x11f;" horiz-adv-x="611" 
d="M531 510v-490c0 -56 -8 -127 -63 -180c-33 -32 -93 -64 -200 -64c-28 0 -94 3 -183 35l10 87c35 -18 104 -46 178 -46c49 0 95 12 128 54c25 32 36 76 36 121v52h-2c-14 -19 -35 -42 -73 -59c-15 -7 -50 -20 -98 -20c-86 0 -135 42 -159 70c-40 48 -59 117 -59 181
c0 92 31 152 61 188c35 43 90 79 174 79c56 0 95 -21 100 -24c32 -17 50 -41 61 -60h2v76h87zM288 76c32 0 79 9 113 56c25 34 36 80 36 122c0 47 -11 96 -38 133c-27 38 -62 55 -109 55c-57 0 -89 -31 -107 -55c-5 -7 -37 -53 -37 -131c0 -46 14 -96 38 -127
c23 -30 62 -53 104 -53zM125 740h60c7 -33 30 -72 94 -72s87 39 94 72h60c-7 -87 -69 -142 -154 -142s-147 55 -154 142z" />
    <glyph glyph-name="Gdotaccent" unicode="&#x120;" horiz-adv-x="722" 
d="M627 675l-8 -100c-24 16 -48 26 -79 34c-47 12 -87 13 -106 13c-78 0 -138 -22 -183 -60c-47 -40 -92 -112 -92 -215c0 -80 29 -142 72 -189c53 -57 121 -80 200 -80c17 0 73 5 89 8l14 3v212h-147v82h247v-362c-82 -27 -155 -31 -203 -31c-91 0 -188 19 -267 90
c-87 78 -111 184 -111 273c0 126 52 211 115 267c62 55 147 90 258 90c64 0 117 -11 124 -12c27 -6 53 -14 77 -23zM492 854v-102h-112v102h112z" />
    <glyph glyph-name="gdotaccent" unicode="&#x121;" horiz-adv-x="611" 
d="M531 510v-490c0 -56 -8 -127 -63 -180c-33 -32 -93 -64 -200 -64c-28 0 -94 3 -183 35l10 87c35 -18 104 -46 178 -46c49 0 95 12 128 54c25 32 36 76 36 121v52h-2c-14 -19 -35 -42 -73 -59c-15 -7 -50 -20 -98 -20c-86 0 -135 42 -159 70c-40 48 -59 117 -59 181
c0 92 31 152 61 188c35 43 90 79 174 79c56 0 95 -21 100 -24c32 -17 50 -41 61 -60h2v76h87zM288 76c32 0 79 9 113 56c25 34 36 80 36 122c0 47 -11 96 -38 133c-27 38 -62 55 -109 55c-57 0 -89 -31 -107 -55c-5 -7 -37 -53 -37 -131c0 -46 14 -96 38 -127
c23 -30 62 -53 104 -53zM332 720v-106h-106v106h106z" />
    <glyph glyph-name="Gcommaaccent" unicode="&#x122;" horiz-adv-x="722" 
d="M627 675l-8 -100c-24 16 -48 26 -79 34c-47 12 -87 13 -106 13c-78 0 -138 -22 -183 -60c-47 -40 -92 -112 -92 -215c0 -80 29 -142 72 -189c53 -57 121 -80 200 -80c17 0 73 5 89 8l14 3v212h-147v82h247v-362c-82 -27 -155 -31 -203 -31c-91 0 -188 19 -267 90
c-87 78 -111 184 -111 273c0 126 52 211 115 267c62 55 147 90 258 90c64 0 117 -11 124 -12c27 -6 53 -14 77 -23zM352 -248l40 198h110l-70 -198h-80z" />
    <glyph glyph-name="gcommaaccent" unicode="&#x123;" horiz-adv-x="611" 
d="M531 510v-490c0 -56 -8 -127 -63 -180c-33 -32 -93 -64 -200 -64c-28 0 -94 3 -183 35l10 87c35 -18 104 -46 178 -46c49 0 95 12 128 54c25 32 36 76 36 121v52h-2c-14 -19 -35 -42 -73 -59c-15 -7 -50 -20 -98 -20c-86 0 -135 42 -159 70c-40 48 -59 117 -59 181
c0 92 31 152 61 188c35 43 90 79 174 79c56 0 95 -21 100 -24c32 -17 50 -41 61 -60h2v76h87zM288 76c32 0 79 9 113 56c25 34 36 80 36 122c0 47 -11 96 -38 133c-27 38 -62 55 -109 55c-57 0 -89 -31 -107 -55c-5 -7 -37 -53 -37 -131c0 -46 14 -96 38 -127
c23 -30 62 -53 104 -53zM366 762l-40 -170h-100l70 170h70z" />
    <glyph glyph-name="Hcircumflex" unicode="&#x124;" horiz-adv-x="722" 
d="M94 0v700h100v-293h334v293h100v-700h-100v319h-334v-319h-100zM306 870h110l104 -120h-90l-69 70l-69 -70h-90z" />
    <glyph glyph-name="hcircumflex" unicode="&#x125;" horiz-adv-x="604" 
d="M80 0v762h94v-325h2c15 22 37 43 67 59c29 15 59 22 97 22c41 0 102 -7 144 -56c41 -48 47 -112 47 -159v-303h-94v264c0 87 -16 124 -32 144c-14 17 -41 34 -83 34s-77 -19 -100 -44c-45 -50 -48 -126 -48 -162v-236h-94zM-17 795l100 130h90l100 -130h-76l-69 84
l-69 -84h-76z" />
    <glyph glyph-name="Hbar" unicode="&#x126;" horiz-adv-x="722" 
d="M94 0v514h-70v64h70v122h100v-122h334v122h100v-122h70v-64h-70v-514h-100v319h-334v-319h-100zM528 514h-334v-107h334v107z" />
    <glyph glyph-name="hbar" unicode="&#x127;" horiz-adv-x="604" 
d="M531 303v-303h-94v264c0 87 -16 124 -32 144c-14 17 -41 34 -83 34s-77 -19 -100 -44c-45 -50 -48 -126 -48 -162v-236h-94v601h-75v54h75v107h94v-107h203v-54h-203v-164h2c15 22 37 43 67 59c29 15 59 22 97 22c41 0 102 -7 144 -56c41 -48 47 -112 47 -159z" />
    <glyph glyph-name="Imacron" unicode="&#x12a;" horiz-adv-x="288" 
d="M94 0v700h100v-700h-100zM-16 840h320v-70h-320v70z" />
    <glyph glyph-name="imacron" unicode="&#x12b;" horiz-adv-x="254" 
d="M80 0v510h94v-510h-94zM-27 652v70h296v-70h-296z" />
    <glyph glyph-name="Iogonek" unicode="&#x12e;" horiz-adv-x="288" 
d="M94 0v700h100v-700c-38 -28 -55 -43 -73 -71c-11 -17 -19 -34 -19 -60c0 -19 3 -31 16 -42c10 -9 21 -13 35 -13c21 0 45 5 68 20l18 -43c-33 -23 -66 -32 -104 -32c-28 0 -58 3 -83 24c-27 21 -33 47 -33 76c0 33 8 52 27 77c23 29 50 50 79 64h-31z" />
    <glyph glyph-name="iogonek" unicode="&#x12f;" horiz-adv-x="254" 
d="M80 0v510h94v-510c-47 -33 -89 -74 -89 -127c0 -32 18 -54 49 -54c20 0 44 5 66 20l18 -42c-27 -18 -59 -31 -101 -31c-69 0 -113 33 -113 89c0 71 53 121 103 145h-27zM180 720v-106h-106v106h106z" />
    <glyph glyph-name="Idotaccent" unicode="&#x130;" horiz-adv-x="288" 
d="M94 0v700h100v-700h-100zM200 854v-102h-112v102h112z" />
    <glyph glyph-name="dotlessi" unicode="&#x131;" horiz-adv-x="254" 
d="M80 0v510h94v-510h-94z" />
    <glyph glyph-name="Jcircumflex" unicode="&#x134;" horiz-adv-x="389" 
d="M21 2v86c32 -9 53 -10 63 -10c45 0 73 14 88 32c24 27 26 69 26 105v485h100v-517c0 -36 -5 -103 -55 -148c-32 -29 -83 -45 -144 -45c-40 0 -65 7 -78 12zM184 870h110l104 -120h-90l-69 70l-69 -70h-90z" />
    <glyph glyph-name="jcircumflex" unicode="&#x135;" horiz-adv-x="254" 
d="M-28 -220l3 81c11 -2 20 -3 28 -3h10c21 1 37 8 49 27c17 27 18 68 18 81v544h94v-530c0 -51 -2 -114 -34 -156c-33 -43 -81 -48 -124 -48c-16 0 -29 1 -44 4zM-18 610l100 130h90l100 -130h-76l-69 84l-69 -84h-76z" />
    <glyph glyph-name="Kcommaaccent" unicode="&#x136;" horiz-adv-x="667" 
d="M94 0v700h100v-308l298 308h133l-328 -331l354 -369h-146l-311 343v-343h-100zM252 -248l40 198h110l-70 -198h-80z" />
    <glyph glyph-name="kcommaaccent" unicode="&#x137;" horiz-adv-x="546" 
d="M80 0v762h94v-459l208 207h122l-235 -221l264 -289h-127l-232 262v-262h-94zM202 -220l40 170h100l-70 -170h-70z" />
    <glyph glyph-name="Lacute" unicode="&#x139;" horiz-adv-x="506" 
d="M94 0v700h100v-612h292v-88h-392zM195 870h130l-114 -120h-96z" />
    <glyph glyph-name="lacute" unicode="&#x13a;" horiz-adv-x="254" 
d="M80 0v762h94v-762h-94zM73 800l78 130h120l-118 -130h-80z" />
    <glyph glyph-name="Lcommaaccent" unicode="&#x13b;" horiz-adv-x="506" 
d="M94 0v700h100v-612h292v-88h-392zM212 -248l40 198h110l-70 -198h-80z" />
    <glyph glyph-name="lcommaaccent" unicode="&#x13c;" horiz-adv-x="254" 
d="M80 0v762h94v-762h-94zM57 -220l40 170h100l-70 -170h-70z" />
    <glyph glyph-name="Lcaron" unicode="&#x13d;" horiz-adv-x="506" 
d="M94 0v700h100v-612h292v-88h-392zM332 500l40 200h110l-74 -200h-76z" />
    <glyph glyph-name="lcaron" unicode="&#x13e;" horiz-adv-x="310" 
d="M80 0v762h94v-762h-94zM210 594l40 168h100l-70 -168h-70z" />
    <glyph glyph-name="Ldot" unicode="&#x13f;" horiz-adv-x="506" 
d="M94 0v700h100v-612h292v-88h-392zM339 320v112h112v-112h-112z" />
    <glyph glyph-name="ldot" unicode="&#x140;" horiz-adv-x="366" 
d="M80 0v762h94v-762h-94zM254 333v112h112v-112h-112z" />
    <glyph glyph-name="Lslash" unicode="&#x141;" horiz-adv-x="506" 
d="M94 700h100v-330l183 131l34 -56l-217 -151v-206h292v-88h-392v236l-60 -42l-34 56l94 60v390z" />
    <glyph glyph-name="lslash" unicode="&#x142;" horiz-adv-x="278" 
d="M92 0v340l-64 -51v71l64 51v351h94v-277l64 51v-71l-64 -51v-414h-94z" />
    <glyph glyph-name="Nacute" unicode="&#x143;" horiz-adv-x="722" 
d="M88 0v700h136l308 -564h2v564h100v-700h-128l-316 576h-2v-576h-100zM380 870h130l-114 -120h-96z" />
    <glyph glyph-name="nacute" unicode="&#x144;" horiz-adv-x="604" 
d="M80 0v510h94v-73h2c15 22 37 43 67 59c29 15 59 22 97 22c41 0 102 -7 144 -56c41 -48 47 -112 47 -159v-303h-94v264c0 47 -2 108 -32 144c-10 12 -36 34 -83 34c-42 0 -77 -19 -100 -44c-45 -50 -48 -126 -48 -162v-236h-94zM273 610l78 130h120l-118 -130h-80z" />
    <glyph glyph-name="Ncommaaccent" unicode="&#x145;" horiz-adv-x="722" 
d="M88 0v700h136l308 -564h2v564h100v-700h-128l-316 576h-2v-576h-100zM252 -248l40 198h110l-70 -198h-80z" />
    <glyph glyph-name="ncommaaccent" unicode="&#x146;" horiz-adv-x="604" 
d="M80 0v510h94v-73h2c15 22 37 43 67 59c29 15 59 22 97 22c41 0 102 -7 144 -56c41 -48 47 -112 47 -159v-303h-94v264c0 47 -2 108 -32 144c-10 12 -36 34 -83 34c-42 0 -77 -19 -100 -44c-45 -50 -48 -126 -48 -162v-236h-94zM222 -220l40 170h100l-70 -170h-70z" />
    <glyph glyph-name="Ncaron" unicode="&#x147;" horiz-adv-x="722" 
d="M88 0v700h136l308 -564h2v564h100v-700h-128l-316 576h-2v-576h-100zM434 750h-110l-104 120h90l69 -70l69 70h90z" />
    <glyph glyph-name="ncaron" unicode="&#x148;" horiz-adv-x="604" 
d="M80 0v510h94v-73h2c15 22 37 43 67 59c29 15 59 22 97 22c41 0 102 -7 144 -56c41 -48 47 -112 47 -159v-303h-94v264c0 47 -2 108 -32 144c-10 12 -36 34 -83 34c-42 0 -77 -19 -100 -44c-45 -50 -48 -126 -48 -162v-236h-94zM464 740l-100 -130h-90l-100 130h76l69 -84
l69 84h76z" />
    <glyph glyph-name="Omacron" unicode="&#x14c;" horiz-adv-x="778" 
d="M389 710c112 0 193 -40 250 -106c52 -59 86 -147 86 -254c0 -109 -36 -198 -86 -255c-44 -51 -122 -105 -250 -105s-206 54 -250 105c-50 57 -86 146 -86 255c0 107 34 195 86 254c57 66 138 106 250 106zM389 622c-82 0 -139 -39 -171 -80c-36 -46 -59 -120 -59 -192
c0 -59 16 -137 59 -192c34 -44 87 -80 171 -80s137 36 171 80c43 55 59 133 59 192c0 72 -23 146 -59 192c-32 41 -89 80 -171 80zM230 840h320v-70h-320v70z" />
    <glyph glyph-name="omacron" unicode="&#x14d;" horiz-adv-x="610" 
d="M305 518c97 0 159 -42 193 -80c45 -50 66 -118 66 -183s-21 -133 -66 -183c-34 -38 -96 -80 -193 -80s-159 42 -193 80c-45 50 -66 118 -66 183s21 133 66 183c34 38 96 80 193 80zM305 442c-50 0 -93 -26 -120 -60c-27 -35 -39 -82 -39 -127c0 -52 15 -96 39 -127
c41 -55 97 -60 120 -60s79 5 120 60c24 31 39 75 39 127s-15 96 -39 127c-31 41 -76 60 -120 60zM157 652v70h296v-70h-296z" />
    <glyph glyph-name="Obreve" unicode="&#x14e;" horiz-adv-x="778" 
d="M389 710c112 0 193 -40 250 -106c52 -59 86 -147 86 -254c0 -109 -36 -198 -86 -255c-44 -51 -122 -105 -250 -105s-206 54 -250 105c-50 57 -86 146 -86 255c0 107 34 195 86 254c57 66 138 106 250 106zM389 622c-82 0 -139 -39 -171 -80c-36 -46 -59 -120 -59 -192
c0 -59 16 -137 59 -192c34 -44 87 -80 171 -80s137 36 171 80c43 55 59 133 59 192c0 72 -23 146 -59 192c-32 41 -89 80 -171 80zM221 870h70c8 -23 29 -56 98 -56s90 33 98 56h70c-23 -87 -93 -126 -168 -126s-145 39 -168 126z" />
    <glyph glyph-name="obreve" unicode="&#x14f;" horiz-adv-x="610" 
d="M305 518c97 0 159 -42 193 -80c45 -50 66 -118 66 -183s-21 -133 -66 -183c-34 -38 -96 -80 -193 -80s-159 42 -193 80c-45 50 -66 118 -66 183s21 133 66 183c34 38 96 80 193 80zM305 442c-50 0 -93 -26 -120 -60c-27 -35 -39 -82 -39 -127c0 -52 15 -96 39 -127
c41 -55 97 -60 120 -60s79 5 120 60c24 31 39 75 39 127s-15 96 -39 127c-31 41 -76 60 -120 60zM151 740h60c7 -33 30 -72 94 -72s87 39 94 72h60c-7 -87 -69 -142 -154 -142s-147 55 -154 142z" />
    <glyph glyph-name="Ohungarumlaut" unicode="&#x150;" horiz-adv-x="778" 
d="M389 710c112 0 193 -40 250 -106c52 -59 86 -147 86 -254c0 -109 -36 -198 -86 -255c-44 -51 -122 -105 -250 -105s-206 54 -250 105c-50 57 -86 146 -86 255c0 107 34 195 86 254c57 66 138 106 250 106zM389 622c-82 0 -139 -39 -171 -80c-36 -46 -59 -120 -59 -192
c0 -59 16 -137 59 -192c34 -44 87 -80 171 -80s137 36 171 80c43 55 59 133 59 192c0 72 -23 146 -59 192c-32 41 -89 80 -171 80zM356 870h120l-130 -120h-76zM514 870h120l-130 -120h-76z" />
    <glyph glyph-name="ohungarumlaut" unicode="&#x151;" horiz-adv-x="610" 
d="M305 518c97 0 159 -42 193 -80c45 -50 66 -118 66 -183s-21 -133 -66 -183c-34 -38 -96 -80 -193 -80s-159 42 -193 80c-45 50 -66 118 -66 183s21 133 66 183c34 38 96 80 193 80zM305 442c-50 0 -93 -26 -120 -60c-27 -35 -39 -82 -39 -127c0 -52 15 -96 39 -127
c41 -55 97 -60 120 -60s79 5 120 60c24 31 39 75 39 127s-15 96 -39 127c-31 41 -76 60 -120 60zM183 610l88 130h110l-128 -130h-70zM364 610l88 130h110l-128 -130h-70z" />
    <glyph glyph-name="OE" unicode="&#x152;" horiz-adv-x="944" 
d="M493 88v522c-20 3 -41 6 -61 6c-168 0 -273 -91 -273 -258c0 -176 113 -276 274 -276c20 0 40 1 60 6zM875 700v-88h-282v-206h262v-88h-262v-230h289v-88h-290c-52 0 -104 -6 -156 -6c-222 0 -383 134 -383 364c0 212 157 346 385 346c49 0 98 -5 146 -4h291z" />
    <glyph glyph-name="oe" unicode="&#x153;" horiz-adv-x="944" 
d="M850 119v-93c-44 -20 -96 -34 -146 -34c-97 0 -175 34 -210 109c-37 -79 -126 -109 -200 -109c-157 0 -253 112 -253 263c0 135 96 263 253 263c93 0 167 -33 203 -98c32 66 100 98 182 98c173 0 224 -137 224 -284h-361c0 -92 70 -167 167 -167c50 0 105 24 141 52z
M141 255c-1 -97 43 -188 154 -188c99 0 153 99 153 188c0 83 -47 188 -153 188c-107 0 -155 -105 -154 -188zM542 303h261c0 66 -48 140 -125 140c-82 0 -136 -62 -136 -140z" />
    <glyph glyph-name="Racute" unicode="&#x154;" horiz-adv-x="611" 
d="M83 0v700h171c65 0 150 -2 207 -44c33 -24 64 -67 64 -139c0 -49 -14 -86 -46 -117c-21 -21 -53 -42 -98 -49v-2c13 -5 28 -13 38 -24s24 -34 30 -46l132 -279h-114l-107 243c-15 33 -32 50 -46 57c-15 8 -36 11 -71 11h-60v-311h-100zM183 612v-213h85c30 0 81 3 117 34
c14 12 34 36 34 75c0 49 -25 73 -46 85c-25 14 -64 19 -94 19h-96zM284 870h130l-114 -120h-96z" />
    <glyph glyph-name="racute" unicode="&#x155;" horiz-adv-x="379" 
d="M80 510h88v-83h2c27 55 79 91 136 91c13 0 39 -3 50 -5l9 -2v-84c-19 7 -36 9 -52 9c-34 0 -63 -10 -90 -42c-45 -52 -49 -126 -49 -166v-228h-94v510zM173 610l78 130h120l-118 -130h-80z" />
    <glyph glyph-name="Rcommaaccent" unicode="&#x156;" horiz-adv-x="611" 
d="M83 0v700h171c65 0 150 -2 207 -44c33 -24 64 -67 64 -139c0 -49 -14 -86 -46 -117c-21 -21 -53 -42 -98 -49v-2c13 -5 28 -13 38 -24s24 -34 30 -46l132 -279h-114l-107 243c-15 33 -32 50 -46 57c-15 8 -36 11 -71 11h-60v-311h-100zM183 612v-213h85c30 0 81 3 117 34
c14 12 34 36 34 75c0 49 -25 73 -46 85c-25 14 -64 19 -94 19h-96zM232 -248l40 198h110l-70 -198h-80z" />
    <glyph glyph-name="rcommaaccent" unicode="&#x157;" horiz-adv-x="379" 
d="M80 510h88v-83h2c27 55 79 91 136 91c13 0 39 -3 50 -5l9 -2v-84c-19 7 -36 9 -52 9c-34 0 -63 -10 -90 -42c-45 -52 -49 -126 -49 -166v-228h-94v510zM82 -220l40 170h100l-70 -170h-70z" />
    <glyph glyph-name="Rcaron" unicode="&#x158;" horiz-adv-x="611" 
d="M83 0v700h171c65 0 150 -2 207 -44c33 -24 64 -67 64 -139c0 -49 -14 -86 -46 -117c-21 -21 -53 -42 -98 -49v-2c13 -5 28 -13 38 -24s24 -34 30 -46l132 -279h-114l-107 243c-15 33 -32 50 -46 57c-15 8 -36 11 -71 11h-60v-311h-100zM183 612v-213h85c30 0 81 3 117 34
c14 12 34 36 34 75c0 49 -25 73 -46 85c-25 14 -64 19 -94 19h-96zM344 750h-110l-104 120h90l69 -70l69 70h90z" />
    <glyph glyph-name="rcaron" unicode="&#x159;" horiz-adv-x="379" 
d="M80 510h88v-83h2c27 55 79 91 136 91c13 0 39 -3 50 -5l9 -2v-84c-19 7 -36 9 -52 9c-34 0 -63 -10 -90 -42c-45 -52 -49 -126 -49 -166v-228h-94v510zM364 740l-100 -130h-90l-100 130h76l69 -84l69 84h76z" />
    <glyph glyph-name="Sacute" unicode="&#x15a;" horiz-adv-x="500" 
d="M420 685l-14 -92c-53 24 -98 29 -131 29c-14 0 -52 -1 -80 -17c-23 -13 -42 -35 -42 -75c0 -24 8 -39 22 -55c31 -34 71 -48 100 -62l26 -13c49 -24 93 -49 121 -93c15 -23 31 -59 31 -112c0 -62 -20 -111 -68 -151s-105 -54 -177 -54c-38 0 -90 6 -153 29l10 92
c43 -19 99 -33 145 -33c33 0 71 6 102 35c23 21 35 46 35 79c0 35 -13 59 -37 79c-20 17 -47 29 -94 53l-43 22c-29 15 -72 39 -98 76c-15 22 -28 54 -28 99c0 84 45 128 74 148c42 29 101 41 150 41c73 0 128 -17 149 -25zM260 870h130l-114 -120h-96z" />
    <glyph glyph-name="sacute" unicode="&#x15b;" horiz-adv-x="406" 
d="M48 20l5 83c55 -31 99 -35 119 -35c29 0 58 9 75 25c10 9 19 24 19 46s-10 34 -25 46c-19 15 -49 31 -68 40l-20 9c-34 15 -73 42 -91 69c-14 22 -17 45 -17 62c0 54 23 89 45 109c30 27 78 44 135 44c56 0 103 -15 117 -20l-8 -80c-14 8 -27 13 -43 17
c-17 4 -36 7 -55 7c-22 0 -46 -4 -62 -13c-22 -13 -29 -32 -29 -47c0 -49 51 -67 92 -86l15 -7c32 -15 70 -33 92 -65c13 -20 22 -47 22 -79c0 -49 -20 -85 -52 -112c-36 -30 -79 -41 -133 -41c-57 0 -100 13 -133 28zM137 610l78 130h120l-118 -130h-80z" />
    <glyph glyph-name="Scircumflex" unicode="&#x15c;" horiz-adv-x="500" 
d="M420 685l-14 -92c-53 24 -98 29 -131 29c-14 0 -52 -1 -80 -17c-23 -13 -42 -35 -42 -75c0 -24 8 -39 22 -55c31 -34 71 -48 100 -62l26 -13c49 -24 93 -49 121 -93c15 -23 31 -59 31 -112c0 -62 -20 -111 -68 -151s-105 -54 -177 -54c-38 0 -90 6 -153 29l10 92
c43 -19 99 -33 145 -33c33 0 71 6 102 35c23 21 35 46 35 79c0 35 -13 59 -37 79c-20 17 -47 29 -94 53l-43 22c-29 15 -72 39 -98 76c-15 22 -28 54 -28 99c0 84 45 128 74 148c42 29 101 41 150 41c73 0 128 -17 149 -25zM214 870h110l104 -120h-90l-69 70l-69 -70h-90z
" />
    <glyph glyph-name="scircumflex" unicode="&#x15d;" horiz-adv-x="406" 
d="M48 20l5 83c55 -31 99 -35 119 -35c29 0 58 9 75 25c10 9 19 24 19 46s-10 34 -25 46c-19 15 -49 31 -68 40l-20 9c-34 15 -73 42 -91 69c-14 22 -17 45 -17 62c0 54 23 89 45 109c30 27 78 44 135 44c56 0 103 -15 117 -20l-8 -80c-14 8 -27 13 -43 17
c-17 4 -36 7 -55 7c-22 0 -46 -4 -62 -13c-22 -13 -29 -32 -29 -47c0 -49 51 -67 92 -86l15 -7c32 -15 70 -33 92 -65c13 -20 22 -47 22 -79c0 -49 -20 -85 -52 -112c-36 -30 -79 -41 -133 -41c-57 0 -100 13 -133 28zM58 610l100 130h90l100 -130h-76l-69 84l-69 -84h-76z
" />
    <glyph glyph-name="Scedilla" unicode="&#x15e;" horiz-adv-x="500" 
d="M420 685l-14 -92c-53 24 -98 29 -131 29c-14 0 -52 -1 -80 -17c-23 -13 -42 -35 -42 -75c0 -24 8 -39 22 -55c31 -34 71 -48 100 -62l26 -13c49 -24 93 -49 121 -93c15 -23 31 -59 31 -112c0 -62 -20 -111 -68 -151c-29 -24 -75 -49 -135 -52l-4 -25c31 0 52 -15 62 -25
c17 -17 26 -42 26 -70c0 -26 -14 -54 -33 -71c-22 -20 -56 -27 -85 -27c-20 0 -49 7 -77 27l27 48c16 -13 33 -18 47 -18c17 0 28 6 36 13c8 8 12 17 12 28c0 13 -4 27 -12 34c-10 10 -27 12 -39 12c-10 0 -21 0 -31 -2l10 75c-24 1 -72 6 -134 28l10 92
c43 -19 99 -33 145 -33c33 0 71 6 102 35c23 21 35 46 35 79c0 35 -13 59 -37 79c-20 17 -47 29 -94 53l-43 22c-29 15 -72 39 -98 76c-15 22 -28 54 -28 99c0 84 45 128 74 148c42 29 101 41 150 41c73 0 128 -17 149 -25z" />
    <glyph glyph-name="scedilla" unicode="&#x15f;" horiz-adv-x="406" 
d="M342 498l-8 -80c-17 10 -28 13 -43 17c-18 5 -34 8 -60 8c-7 0 -37 -2 -57 -13c-25 -14 -29 -37 -29 -48c0 -49 50 -67 92 -86l15 -7c32 -15 70 -33 92 -65c13 -20 22 -47 22 -79c0 -49 -20 -85 -52 -112c-23 -19 -56 -36 -98 -39l-3 -25c25 -1 46 -11 59 -24
c15 -14 24 -36 24 -67c0 -27 -10 -50 -31 -68c-19 -17 -45 -25 -81 -25c-30 0 -53 11 -73 25l25 46c13 -10 29 -17 45 -17c14 0 26 4 34 12c5 5 12 14 12 27s-4 25 -12 32c-10 10 -25 12 -37 12c-10 0 -19 0 -29 -2l10 73c-45 2 -82 14 -111 27l5 83c44 -26 88 -36 119 -36
c35 0 60 12 75 26c14 14 19 30 19 46c0 22 -10 34 -25 46c-19 15 -49 31 -68 40l-20 9c-34 15 -73 42 -91 69c-14 22 -17 45 -17 62c0 54 23 89 45 109c30 27 78 44 135 44c56 0 103 -15 117 -20z" />
    <glyph glyph-name="Scaron" unicode="&#x160;" horiz-adv-x="500" 
d="M420 685l-14 -92c-53 24 -98 29 -131 29c-14 0 -52 -1 -80 -17c-23 -13 -42 -35 -42 -75c0 -24 8 -39 22 -55c31 -34 71 -48 100 -62l26 -13c49 -24 93 -49 121 -93c15 -23 31 -59 31 -112c0 -62 -20 -111 -68 -151s-105 -54 -177 -54c-38 0 -90 6 -153 29l10 92
c43 -19 99 -33 145 -33c33 0 71 6 102 35c23 21 35 46 35 79c0 35 -13 59 -37 79c-20 17 -47 29 -94 53l-43 22c-29 15 -72 39 -98 76c-15 22 -28 54 -28 99c0 84 45 128 74 148c42 29 101 41 150 41c73 0 128 -17 149 -25zM324 750h-110l-104 120h90l69 -70l69 70h90z" />
    <glyph glyph-name="scaron" unicode="&#x161;" horiz-adv-x="406" 
d="M48 20l5 83c55 -31 99 -35 119 -35c29 0 58 9 75 25c10 9 19 24 19 46s-10 34 -25 46c-19 15 -49 31 -68 40l-20 9c-34 15 -73 42 -91 69c-14 22 -17 45 -17 62c0 54 23 89 45 109c30 27 78 44 135 44c56 0 103 -15 117 -20l-8 -80c-14 8 -27 13 -43 17
c-17 4 -36 7 -55 7c-22 0 -46 -4 -62 -13c-22 -13 -29 -32 -29 -47c0 -49 51 -67 92 -86l15 -7c32 -15 70 -33 92 -65c13 -20 22 -47 22 -79c0 -49 -20 -85 -52 -112c-36 -30 -79 -41 -133 -41c-57 0 -100 13 -133 28zM348 740l-100 -130h-90l-100 130h76l69 -84l69 84h76z
" />
    <glyph glyph-name="Tcommaaccent" unicode="&#x162;" 
d="M228 0v612h-217v88h534v-88h-217v-612h-100zM222 -248l40 198h110l-70 -198h-80z" />
    <glyph glyph-name="tcommaaccent" unicode="&#x163;" horiz-adv-x="375" 
d="M118 628l94 30v-148h141v-76h-141v-275c0 -19 3 -45 22 -66c11 -12 30 -25 61 -25c20 0 41 6 60 18v-80c-26 -9 -55 -14 -83 -14c-39 0 -82 10 -110 34c-38 32 -44 78 -44 114v294h-111v76h111v118zM134 -220l40 170h100l-70 -170h-70z" />
    <glyph glyph-name="Tcaron" unicode="&#x164;" 
d="M228 0v612h-217v88h534v-88h-217v-612h-100zM333 750h-110l-104 120h90l69 -70l69 70h90z" />
    <glyph glyph-name="tcaron" unicode="&#x165;" horiz-adv-x="375" 
d="M118 628l94 30v-148h141v-76h-141v-275c0 -19 3 -45 22 -66c11 -12 30 -25 61 -25c20 0 41 6 60 18v-80c-26 -9 -55 -14 -83 -14c-39 0 -82 10 -110 34c-38 32 -44 78 -44 114v294h-111v76h111v118zM260 594l40 168h100l-70 -168h-70z" />
    <glyph glyph-name="Umacron" unicode="&#x16a;" horiz-adv-x="722" 
d="M632 700v-410c0 -115 -35 -184 -73 -225c-22 -24 -82 -75 -198 -75s-176 51 -198 75c-38 41 -73 110 -73 225v410h100v-397c0 -51 4 -116 37 -163c38 -54 90 -62 134 -62s96 8 134 62c33 47 37 112 37 163v397h100zM200 840h320v-70h-320v70z" />
    <glyph glyph-name="umacron" unicode="&#x16b;" horiz-adv-x="604" 
d="M524 510v-510h-94v73h-2c-15 -22 -37 -43 -67 -59c-29 -15 -59 -22 -97 -22c-41 0 -102 7 -144 56c-41 48 -47 112 -47 159v303h94v-264c0 -47 2 -108 32 -144c10 -12 36 -34 83 -34c42 0 77 19 100 44c45 50 48 126 48 162v236h94zM154 652v70h296v-70h-296z" />
    <glyph glyph-name="Ubreve" unicode="&#x16c;" horiz-adv-x="722" 
d="M632 700v-410c0 -115 -35 -184 -73 -225c-22 -24 -82 -75 -198 -75s-176 51 -198 75c-38 41 -73 110 -73 225v410h100v-397c0 -51 4 -116 37 -163c38 -54 90 -62 134 -62s96 8 134 62c33 47 37 112 37 163v397h100zM193 870h70c8 -23 29 -56 98 -56s90 33 98 56h70
c-23 -87 -93 -126 -168 -126s-145 39 -168 126z" />
    <glyph glyph-name="ubreve" unicode="&#x16d;" horiz-adv-x="604" 
d="M524 510v-510h-94v73h-2c-15 -22 -37 -43 -67 -59c-29 -15 -59 -22 -97 -22c-41 0 -102 7 -144 56c-41 48 -47 112 -47 159v303h94v-264c0 -47 2 -108 32 -144c10 -12 36 -34 83 -34c42 0 77 19 100 44c45 50 48 126 48 162v236h94zM148 740h60c7 -33 30 -72 94 -72
s87 39 94 72h60c-7 -87 -69 -142 -154 -142s-147 55 -154 142z" />
    <glyph glyph-name="Uring" unicode="&#x16e;" horiz-adv-x="722" 
d="M632 700v-410c0 -115 -35 -184 -73 -225c-22 -24 -82 -75 -198 -75s-176 51 -198 75c-38 41 -73 110 -73 225v410h100v-397c0 -51 4 -116 37 -163c38 -54 90 -62 134 -62s96 8 134 62c33 47 37 112 37 163v397h100zM260 827c0 55 46 101 101 101s101 -46 101 -101
s-46 -101 -101 -101s-101 46 -101 101zM306 827c0 -32 23 -55 55 -55s55 23 55 55s-23 55 -55 55s-55 -23 -55 -55z" />
    <glyph glyph-name="uring" unicode="&#x16f;" horiz-adv-x="604" 
d="M524 510v-510h-94v73h-2c-15 -22 -37 -43 -67 -59c-29 -15 -59 -22 -97 -22c-41 0 -102 7 -144 56c-41 48 -47 112 -47 159v303h94v-264c0 -47 2 -108 32 -144c10 -12 36 -34 83 -34c42 0 77 19 100 44c45 50 48 126 48 162v236h94zM200 678c0 56 46 102 102 102
s102 -46 102 -102s-46 -102 -102 -102s-102 46 -102 102zM240 678c0 -35 27 -62 62 -62s62 27 62 62s-27 62 -62 62s-62 -27 -62 -62z" />
    <glyph glyph-name="Uhungarumlaut" unicode="&#x170;" horiz-adv-x="722" 
d="M632 700v-410c0 -115 -35 -184 -73 -225c-22 -24 -82 -75 -198 -75s-176 51 -198 75c-38 41 -73 110 -73 225v410h100v-397c0 -51 4 -116 37 -163c38 -54 90 -62 134 -62s96 8 134 62c33 47 37 112 37 163v397h100zM326 870h120l-130 -120h-76zM484 870h120l-130 -120
h-76z" />
    <glyph glyph-name="uhungarumlaut" unicode="&#x171;" horiz-adv-x="604" 
d="M524 510v-510h-94v73h-2c-15 -22 -37 -43 -67 -59c-29 -15 -59 -22 -97 -22c-41 0 -102 7 -144 56c-41 48 -47 112 -47 159v303h94v-264c0 -47 2 -108 32 -144c10 -12 36 -34 83 -34c42 0 77 19 100 44c45 50 48 126 48 162v236h94zM163 610l88 130h110l-128 -130h-70z
M344 610l88 130h110l-128 -130h-70z" />
    <glyph glyph-name="Uogonek" unicode="&#x172;" horiz-adv-x="722" 
d="M632 700v-410c0 -90 -22 -163 -60 -210c-24 -30 -60 -54 -92 -68c-45 -39 -63 -49 -84 -83c-11 -17 -19 -34 -19 -60c0 -19 3 -31 16 -42c10 -9 21 -13 35 -13c21 0 45 5 68 20l18 -43c-33 -23 -66 -32 -104 -32c-28 0 -58 3 -83 24c-27 21 -33 47 -33 76
c0 33 8 52 27 77c19 24 41 42 62 55c-7 -1 -15 -1 -22 -1c-89 0 -157 32 -198 75c-38 41 -73 110 -73 225v410h100v-397c0 -51 4 -116 37 -163c38 -54 90 -62 134 -62s96 8 134 62c33 47 37 112 37 163v397h100z" />
    <glyph glyph-name="uogonek" unicode="&#x173;" horiz-adv-x="604" 
d="M524 510v-510c-47 -33 -89 -74 -89 -127c0 -32 18 -54 49 -54c20 0 44 5 66 20l18 -42c-27 -18 -59 -31 -101 -31c-69 0 -113 33 -113 89c0 71 53 121 103 145h-27v73h-2c-15 -22 -37 -43 -67 -59c-29 -15 -59 -22 -97 -22c-41 0 -102 7 -144 56c-41 48 -47 112 -47 159
v303h94v-264c0 -47 2 -108 32 -144c10 -12 36 -34 83 -34c42 0 77 19 100 44c45 50 48 126 48 162v236h94z" />
    <glyph glyph-name="Ydieresis" unicode="&#x178;" horiz-adv-x="667" 
d="M284 0v293l-273 407h117l208 -314l203 314h117l-272 -407v-293h-100zM171 852h106v-100h-106v100zM387 852h106v-100h-106v100z" />
    <glyph glyph-name="Zacute" unicode="&#x179;" 
d="M32 0v90l362 522h-350v88h465v-90l-361 -522h367v-88h-483zM280 870h130l-114 -120h-96z" />
    <glyph glyph-name="zacute" unicode="&#x17a;" horiz-adv-x="500" 
d="M43 0v82l294 352h-280v76h389v-82l-294 -352h305v-76h-414zM184 610l78 130h120l-118 -130h-80z" />
    <glyph glyph-name="Zdotaccent" unicode="&#x17b;" 
d="M32 0v90l362 522h-350v88h465v-90l-361 -522h367v-88h-483zM332 854v-102h-112v102h112z" />
    <glyph glyph-name="zdotaccent" unicode="&#x17c;" horiz-adv-x="500" 
d="M43 0v82l294 352h-280v76h389v-82l-294 -352h305v-76h-414zM303 720v-106h-106v106h106z" />
    <glyph glyph-name="Zcaron" unicode="&#x17d;" 
d="M32 0v90l362 522h-350v88h465v-90l-361 -522h367v-88h-483zM333 750h-110l-104 120h90l69 -70l69 70h90z" />
    <glyph glyph-name="zcaron" unicode="&#x17e;" horiz-adv-x="500" 
d="M43 0v82l294 352h-280v76h389v-82l-294 -352h305v-76h-414zM395 740l-100 -130h-90l-100 130h76l69 -84l69 84h76z" />
    <glyph glyph-name="uni018F" unicode="&#x18f;" horiz-adv-x="666" 
d="M53 375h454c0 11 0 103 -54 170c-35 43 -92 77 -164 77c-70 0 -138 -32 -188 -70v113l17 7c41 17 85 38 179 38c77 0 167 -15 237 -100c66 -80 79 -185 79 -263c0 -86 -15 -197 -94 -278c-47 -48 -110 -79 -191 -79s-153 26 -206 99c-44 60 -69 149 -69 253v33zM507 287
h-344c0 -48 14 -103 40 -141c21 -31 62 -68 131 -68c44 0 94 17 132 76c24 37 38 88 41 133z" />
    <glyph glyph-name="florin" unicode="&#x192;" 
d="M475 414l-14 -70h-126l-69 -368c-13 -71 -28 -118 -52 -147c-36 -44 -87 -51 -127 -51c-29 0 -45 3 -54 5l16 81c12 -3 24 -4 30 -4c17 0 43 2 61 28c12 18 22 56 26 78l71 378h-112l13 70h112l21 109c9 45 24 106 60 143c31 33 73 44 119 44c14 0 42 -3 55 -5l18 -3
l-14 -80l-8 2c-6 1 -21 4 -37 4s-35 -1 -52 -14c-25 -19 -35 -61 -42 -96l-21 -104h126z" />
    <glyph glyph-name="uni01CF" unicode="&#x1cf;" horiz-adv-x="288" 
d="M94 0v700h100v-700h-100zM199 750h-110l-104 120h90l69 -70l69 70h90z" />
    <glyph glyph-name="uni01D0" unicode="&#x1d0;" horiz-adv-x="254" 
d="M80 0v510h94v-510h-94zM272 740l-100 -130h-90l-100 130h76l69 -84l69 84h76z" />
    <glyph glyph-name="uni01DD" unicode="&#x1dd;" 
d="M46 276h364c-1 45 -18 86 -43 113c-27 30 -71 53 -128 53c-54 0 -116 -24 -154 -51v94l14 5c28 10 63 28 147 28c62 0 140 -11 198 -73c31 -33 66 -94 66 -192c0 -108 -42 -170 -79 -203c-31 -28 -82 -58 -160 -58c-89 0 -140 36 -169 72c-38 47 -56 120 -56 185v27z
M410 206h-264c-1 -36 11 -69 29 -92c16 -20 47 -46 101 -46c48 0 81 23 102 51c18 25 29 57 32 87z" />
    <glyph glyph-name="Gcaron" unicode="&#x1e6;" horiz-adv-x="722" 
d="M627 675l-8 -100c-24 16 -48 26 -79 34c-47 12 -87 13 -106 13c-78 0 -138 -22 -183 -60c-47 -40 -92 -112 -92 -215c0 -80 29 -142 72 -189c53 -57 121 -80 200 -80c17 0 73 5 89 8l14 3v212h-147v82h247v-362c-82 -27 -155 -31 -203 -31c-91 0 -188 19 -267 90
c-87 78 -111 184 -111 273c0 126 52 211 115 267c62 55 147 90 258 90c64 0 117 -11 124 -12c27 -6 53 -14 77 -23zM474 750h-110l-104 120h90l69 -70l69 70h90z" />
    <glyph glyph-name="gcaron" unicode="&#x1e7;" horiz-adv-x="611" 
d="M531 510v-490c0 -56 -8 -127 -63 -180c-33 -32 -93 -64 -200 -64c-28 0 -94 3 -183 35l10 87c35 -18 104 -46 178 -46c49 0 95 12 128 54c25 32 36 76 36 121v52h-2c-14 -19 -35 -42 -73 -59c-15 -7 -50 -20 -98 -20c-86 0 -135 42 -159 70c-40 48 -59 117 -59 181
c0 92 31 152 61 188c35 43 90 79 174 79c56 0 95 -21 100 -24c32 -17 50 -41 61 -60h2v76h87zM288 76c32 0 79 9 113 56c25 34 36 80 36 122c0 47 -11 96 -38 133c-27 38 -62 55 -109 55c-57 0 -89 -31 -107 -55c-5 -7 -37 -53 -37 -131c0 -46 14 -96 38 -127
c23 -30 62 -53 104 -53zM424 740l-100 -130h-90l-100 130h76l69 -84l69 84h76z" />
    <glyph glyph-name="Scommaaccent" unicode="&#x218;" horiz-adv-x="500" 
d="M420 685l-14 -92c-53 24 -98 29 -131 29c-14 0 -52 -1 -80 -17c-23 -13 -42 -35 -42 -75c0 -24 8 -39 22 -55c31 -34 71 -48 100 -62l26 -13c49 -24 93 -49 121 -93c15 -23 31 -59 31 -112c0 -62 -20 -111 -68 -151s-105 -54 -177 -54c-38 0 -90 6 -153 29l10 92
c43 -19 99 -33 145 -33c33 0 71 6 102 35c23 21 35 46 35 79c0 35 -13 59 -37 79c-20 17 -47 29 -94 53l-43 22c-29 15 -72 39 -98 76c-15 22 -28 54 -28 99c0 84 45 128 74 148c42 29 101 41 150 41c73 0 128 -17 149 -25zM152 -248l40 198h110l-70 -198h-80z" />
    <glyph glyph-name="scommaaccent" unicode="&#x219;" horiz-adv-x="406" 
d="M48 20l5 83c55 -31 99 -35 119 -35c29 0 58 9 75 25c10 9 19 24 19 46s-10 34 -25 46c-19 15 -49 31 -68 40l-20 9c-34 15 -73 42 -91 69c-14 22 -17 45 -17 62c0 54 23 89 45 109c30 27 78 44 135 44c56 0 103 -15 117 -20l-8 -80c-14 8 -27 13 -43 17
c-17 4 -36 7 -55 7c-22 0 -46 -4 -62 -13c-22 -13 -29 -32 -29 -47c0 -49 51 -67 92 -86l15 -7c32 -15 70 -33 92 -65c13 -20 22 -47 22 -79c0 -49 -20 -85 -52 -112c-36 -30 -79 -41 -133 -41c-57 0 -100 13 -133 28zM112 -220l40 170h100l-70 -170h-70z" />
    <glyph glyph-name="uni021A" unicode="&#x21a;" 
d="M228 0v612h-217v88h534v-88h-217v-612h-100zM222 -248l40 198h110l-70 -198h-80z" />
    <glyph glyph-name="uni021B" unicode="&#x21b;" horiz-adv-x="375" 
d="M118 628l94 30v-148h141v-76h-141v-275c0 -19 3 -45 22 -66c11 -12 30 -25 61 -25c20 0 41 6 60 18v-80c-26 -9 -55 -14 -83 -14c-39 0 -82 10 -110 34c-38 32 -44 78 -44 114v294h-111v76h111v118zM134 -220l40 170h100l-70 -170h-70z" />
    <glyph glyph-name="uni0259" unicode="&#x259;" 
d="M46 276h364c-1 45 -18 86 -43 113c-27 30 -71 53 -128 53c-54 0 -116 -24 -154 -51v94l14 5c28 10 63 28 147 28c62 0 140 -11 198 -73c31 -33 66 -94 66 -192c0 -108 -42 -170 -79 -203c-31 -28 -82 -58 -160 -58c-89 0 -140 36 -169 72c-38 47 -56 120 -56 185v27z
M410 206h-264c-1 -36 11 -69 29 -92c16 -20 47 -46 101 -46c48 0 81 23 102 51c18 25 29 57 32 87z" />
    <glyph glyph-name="afii57929" unicode="&#x2bc;" horiz-adv-x="180" 
d="M0 594l40 168h100l-70 -168h-70z" />
    <glyph glyph-name="circumflex" unicode="&#x2c6;" horiz-adv-x="278" 
d="M-6 610l100 130h90l100 -130h-76l-69 84l-69 -84h-76z" />
    <glyph glyph-name="caron" unicode="&#x2c7;" horiz-adv-x="278" 
d="M284 740l-100 -130h-90l-100 130h76l69 -84l69 84h76z" />
    <glyph glyph-name="uni02C9" unicode="&#x2c9;" horiz-adv-x="278" 
d="M-9 615v58h296v-58h-296z" />
    <glyph glyph-name="breve" unicode="&#x2d8;" horiz-adv-x="278" 
d="M-15 740h60c7 -33 30 -72 94 -72s87 39 94 72h60c-7 -87 -69 -142 -154 -142s-147 55 -154 142z" />
    <glyph glyph-name="dotaccent" unicode="&#x2d9;" horiz-adv-x="278" 
d="M192 720v-106h-106v106h106z" />
    <glyph glyph-name="ring" unicode="&#x2da;" horiz-adv-x="278" 
d="M37 678c0 56 46 102 102 102s102 -46 102 -102s-46 -102 -102 -102s-102 46 -102 102zM77 678c0 -35 27 -62 62 -62s62 27 62 62s-27 62 -62 62s-62 -27 -62 -62z" />
    <glyph glyph-name="ogonek" unicode="&#x2db;" horiz-adv-x="214" 
d="M103 0h67c-47 -33 -89 -74 -89 -127c0 -32 18 -54 49 -54c20 0 44 5 66 20l18 -42c-27 -18 -59 -31 -101 -31c-69 0 -113 33 -113 89c0 71 53 121 103 145z" />
    <glyph glyph-name="tilde" unicode="&#x2dc;" horiz-adv-x="523" 
d="M143 586h-43c2 26 10 53 22 73c20 33 49 39 69 39c18 0 35 -7 50 -13l28 -12c17 -7 40 -21 66 -21c20 0 28 7 34 18c4 7 8 17 10 28h44c-3 -21 -10 -48 -19 -66c-19 -37 -49 -46 -72 -46c-19 0 -37 7 -51 13l-28 12c-17 7 -40 21 -66 21c-18 0 -26 -6 -32 -15
s-10 -20 -12 -31z" />
    <glyph glyph-name="hungarumlaut" unicode="&#x2dd;" horiz-adv-x="278" 
d="M-17 610l88 130h110l-128 -130h-70zM164 610l88 130h110l-128 -130h-70z" />
    <glyph glyph-name="acutecomb" unicode="&#x301;" horiz-adv-x="2" 
d="M-360 581l89 144h109l-131 -144h-67z" />
    <glyph glyph-name="uni037E" unicode="&#x37e;" horiz-adv-x="278" 
d="M20 -133l63 245h112l-85 -245h-90zM195 510v-112h-112v112h112z" />
    <glyph glyph-name="uni0394" unicode="&#x394;" horiz-adv-x="712" 
d="M12 0l293 700h105l290 -700h-688zM559 82l-205 524l-204 -524h409z" />
    <glyph glyph-name="uni03A9" unicode="&#x3a9;" horiz-adv-x="761" 
d="M424 0v164c56 8 97 38 121 66c29 34 51 86 51 164c0 60 -13 116 -56 163c-40 44 -93 65 -159 65c-69 0 -116 -23 -147 -51c-59 -52 -68 -121 -68 -177c0 -42 4 -110 50 -164c24 -28 65 -58 122 -66v-164h-272l-12 147l79 5l6 -72h116v44c-54 13 -95 41 -125 75
c-25 28 -70 91 -70 199c0 88 25 171 99 237c69 62 140 75 222 75c86 0 156 -16 222 -75c55 -49 99 -125 99 -237c0 -82 -29 -151 -71 -199c-41 -47 -86 -66 -125 -75v-44h117l5 72l80 -5l-13 -147h-271z" />
    <glyph glyph-name="uni03BC" unicode="&#x3bc;" horiz-adv-x="611" 
d="M531 510v-510h-91v81h-2c-14 -25 -37 -51 -63 -67c-28 -17 -65 -26 -104 -26c-17 0 -39 2 -61 11c-15 6 -26 14 -36 24v-247h-94v734h94v-264c0 -50 -1 -98 24 -137c20 -32 49 -45 84 -45c66 0 101 33 119 60c34 51 36 119 36 150v236h94z" />
    <glyph glyph-name="pi" unicode="&#x3c0;" horiz-adv-x="669" 
d="M257 434v-434h-94v434h-9c-13 0 -63 -1 -94 -54l-45 59c42 62 101 71 175 71h464v-76h-70v-434h-94v434h-233z" />
    <glyph glyph-name="afii10023" unicode="&#x401;" 
d="M94 0v700h391v-88h-291v-205h265v-88h-265v-231h291v-88h-391zM130 852h106v-100h-106v100zM346 852h106v-100h-106v100z" />
    <glyph glyph-name="afii10051" unicode="&#x402;" horiz-adv-x="799" 
d="M219 0v612h-204v88h534v-88h-230v-208c22 15 45 27 76 37c35 12 70 17 111 17c81 0 129 -31 158 -61c47 -50 55 -116 55 -158c0 -29 0 -108 -34 -164c-35 -58 -94 -85 -176 -85c-29 0 -56 4 -85 13l7 82c24 -10 50 -14 75 -14c31 0 64 10 86 43c23 35 23 94 23 123
c0 34 -10 75 -32 102c-28 34 -68 39 -99 39c-39 0 -69 -5 -100 -18c-25 -10 -46 -23 -65 -37v-323h-100z" />
    <glyph glyph-name="afii10052" unicode="&#x403;" horiz-adv-x="475" 
d="M94 0v700h371v-88h-271v-612h-100zM280 870h130l-114 -120h-96z" />
    <glyph glyph-name="afii10053" unicode="&#x404;" horiz-adv-x="633" 
d="M579 680l-8 -97c-28 16 -77 39 -144 39c-62 0 -126 -19 -172 -56c-38 -31 -78 -85 -92 -159h268v-88h-271c6 -62 32 -117 64 -155c31 -36 91 -86 198 -86c35 0 84 3 152 34l6 -97c-58 -22 -105 -25 -146 -25c-93 0 -205 19 -286 103c-63 65 -95 162 -95 258
c0 97 32 207 129 282c71 55 163 77 245 77c76 0 120 -15 152 -30z" />
    <glyph glyph-name="afii10054" unicode="&#x405;" horiz-adv-x="500" 
d="M420 685l-14 -92c-53 24 -98 29 -131 29c-14 0 -52 -1 -80 -17c-23 -13 -42 -35 -42 -75c0 -24 8 -39 22 -55c31 -34 71 -48 100 -62l26 -13c49 -24 93 -49 121 -93c15 -23 31 -59 31 -112c0 -62 -20 -111 -68 -151s-105 -54 -177 -54c-38 0 -90 6 -153 29l10 92
c43 -19 99 -33 145 -33c33 0 71 6 102 35c23 21 35 46 35 79c0 35 -13 59 -37 79c-20 17 -47 29 -94 53l-43 22c-29 15 -72 39 -98 76c-15 22 -28 54 -28 99c0 84 45 128 74 148c42 29 101 41 150 41c73 0 128 -17 149 -25z" />
    <glyph glyph-name="afii10055" unicode="&#x406;" horiz-adv-x="288" 
d="M94 0v700h100v-700h-100z" />
    <glyph glyph-name="afii10056" unicode="&#x407;" horiz-adv-x="288" 
d="M94 0v700h100v-700h-100zM25 852h90v-100h-90v100zM173 852h90v-100h-90v100z" />
    <glyph glyph-name="afii10057" unicode="&#x408;" horiz-adv-x="389" 
d="M21 2v86c32 -9 53 -10 63 -10c45 0 73 14 88 32c24 27 26 69 26 105v485h100v-517c0 -36 -5 -103 -55 -148c-32 -29 -83 -45 -144 -45c-40 0 -65 7 -78 12z" />
    <glyph glyph-name="afii10058" unicode="&#x409;" horiz-adv-x="940" 
d="M459 0v612h-211l-4 -172c-1 -60 -2 -95 -7 -183c-5 -81 -12 -161 -52 -213c-30 -39 -69 -54 -120 -54c-23 0 -42 4 -55 8l3 87c11 -3 24 -6 35 -6c53 0 72 31 82 64c6 21 12 54 18 164c2 36 6 138 6 163l3 230h402v-282h54c61 0 151 2 213 -44c45 -33 79 -93 79 -167
c0 -76 -32 -125 -61 -151c-56 -50 -134 -56 -205 -56h-180zM559 330v-242h69c39 0 99 0 135 30c14 12 36 39 36 90c0 46 -19 73 -35 88c-39 36 -98 34 -134 34h-71z" />
    <glyph glyph-name="afii10059" unicode="&#x40a;" horiz-adv-x="999" 
d="M518 0v330h-324v-330h-100v700h100v-282h324v282h100v-282h54c61 0 151 2 213 -44c45 -33 79 -93 79 -167c0 -76 -32 -125 -61 -151c-56 -50 -134 -56 -205 -56h-180zM618 330v-242h69c39 0 99 0 135 30c14 12 36 39 36 90c0 46 -19 73 -35 88c-39 36 -98 34 -134 34h-71
z" />
    <glyph glyph-name="afii10060" unicode="&#x40b;" horiz-adv-x="796" 
d="M219 0v612h-204v88h534v-88h-230v-208c31 17 54 26 82 35c39 13 63 19 109 19c39 0 100 -4 146 -41c53 -42 60 -98 60 -143v-274h-100v246c0 38 1 71 -32 101c-22 20 -56 31 -95 31c-37 0 -65 -9 -93 -19c-25 -9 -47 -18 -77 -36v-323h-100z" />
    <glyph glyph-name="afii10061" unicode="&#x40c;" horiz-adv-x="667" 
d="M94 0v700h100v-308l298 308h133l-328 -331l354 -369h-146l-311 343v-343h-100zM360 870h130l-114 -120h-96z" />
    <glyph glyph-name="afii10062" unicode="&#x40e;" horiz-adv-x="581" 
d="M15 700h113l182 -394h7l171 394h97l-266 -599c-15 -34 -36 -65 -60 -83c-18 -14 -47 -28 -88 -28c-28 0 -61 7 -83 14l11 87c17 -7 41 -13 60 -13c25 0 40 9 47 14c10 7 27 29 32 42l23 57zM390 893l67 -8c-3 -47 -26 -82 -52 -101c-25 -18 -70 -30 -108 -30
s-83 12 -108 30c-26 19 -49 54 -52 101l67 8c6 -28 23 -43 25 -45c20 -18 48 -20 68 -20s48 2 68 20c2 2 19 17 25 45z" />
    <glyph glyph-name="afii10145" unicode="&#x40f;" horiz-adv-x="708" 
d="M94 700h100v-612h320v612h100v-700h-211v-156h-98v156h-211v700z" />
    <glyph glyph-name="afii10017" unicode="&#x410;" horiz-adv-x="722" 
d="M12 0l298 700h105l295 -700h-109l-71 177h-342l-71 -177h-105zM498 259l-139 347l-139 -347h278z" />
    <glyph glyph-name="afii10018" unicode="&#x411;" horiz-adv-x="596" 
d="M94 0v700h402v-88h-302v-200h91c48 0 124 -3 182 -44c36 -26 79 -73 79 -161c0 -77 -31 -125 -61 -151c-56 -50 -134 -56 -205 -56h-186zM194 330v-242h75c39 0 99 0 135 30c14 12 36 39 36 90c0 46 -19 73 -35 88c-39 36 -98 34 -134 34h-77z" />
    <glyph glyph-name="afii10019" unicode="&#x412;" horiz-adv-x="602" 
d="M94 0v700h189c60 0 135 -7 188 -48c40 -31 57 -73 57 -128c0 -30 -5 -72 -35 -107c-26 -31 -71 -52 -109 -60v-2c46 -3 88 -22 115 -48c28 -27 47 -69 47 -120c0 -67 -27 -109 -54 -132c-58 -50 -156 -55 -212 -55h-186zM194 319v-237h75c43 0 109 3 144 39
c14 15 27 39 27 77c0 45 -16 79 -60 101c-36 18 -80 20 -121 20h-65zM194 618v-217h55c44 0 116 0 152 35c25 24 27 57 27 74c0 34 -9 62 -36 82c-25 19 -61 26 -93 26h-105z" />
    <glyph glyph-name="afii10020" unicode="&#x413;" horiz-adv-x="475" 
d="M94 0v700h371v-88h-271v-612h-100z" />
    <glyph glyph-name="afii10021" unicode="&#x414;" horiz-adv-x="675" 
d="M10 88h59c48 82 67 155 75 193c9 43 18 110 22 240l5 179h404v-612h80v-244h-98v156h-449v-156h-98v244zM475 612h-215l-6 -148c-3 -69 -5 -127 -22 -206c-14 -64 -32 -115 -65 -170h308v524z" />
    <glyph glyph-name="afii10022" unicode="&#x415;" 
d="M94 0v700h391v-88h-291v-205h265v-88h-265v-231h291v-88h-391z" />
    <glyph glyph-name="afii10024" unicode="&#x416;" horiz-adv-x="932" 
d="M515 700v-308h7l251 308h118l-273 -331l298 -369h-130l-264 343h-7v-343h-100v343h-7l-264 -343h-130l298 369l-273 331h118l251 -308h7v308h100z" />
    <glyph glyph-name="afii10025" unicode="&#x417;" horiz-adv-x="573" 
d="M185 401h45c40 0 89 8 117 29c25 18 41 49 41 87c0 40 -20 64 -35 76c-30 25 -70 29 -101 29c-48 0 -109 -10 -171 -38l-10 92c61 22 123 34 190 34c48 0 112 -3 166 -46c34 -27 67 -72 67 -143c0 -39 -12 -78 -36 -105c-22 -24 -61 -41 -89 -48v-4c45 -6 84 -28 107 -53
c25 -27 41 -68 41 -116c0 -78 -42 -127 -80 -155c-59 -44 -131 -50 -188 -50c-76 0 -137 15 -199 44l11 91c82 -42 155 -47 186 -47c35 0 79 3 116 29c32 22 48 52 48 91c0 41 -16 70 -39 88c-37 30 -90 33 -124 33h-63v82z" />
    <glyph glyph-name="afii10026" unicode="&#x418;" horiz-adv-x="745" 
d="M94 0v700h100v-477l-3 -87h5c24 48 38 70 63 110l280 454h112v-700h-100v477l3 87h-5c-26 -55 -42 -76 -63 -110l-280 -454h-112z" />
    <glyph glyph-name="afii10027" unicode="&#x419;" horiz-adv-x="745" 
d="M94 0v700h100v-477l-3 -87h5c24 48 38 70 63 110l280 454h112v-700h-100v477l3 87h-5c-26 -55 -42 -76 -63 -110l-280 -454h-112zM467 893l67 -8c-3 -47 -26 -82 -52 -101c-25 -18 -70 -30 -108 -30s-83 12 -108 30c-26 19 -49 54 -52 101l67 8c6 -28 23 -43 25 -45
c20 -18 48 -20 68 -20s48 2 68 20c2 2 19 17 25 45z" />
    <glyph glyph-name="afii10028" unicode="&#x41a;" horiz-adv-x="667" 
d="M94 0v700h100v-308l298 308h133l-328 -331l354 -369h-146l-311 343v-343h-100z" />
    <glyph glyph-name="afii10029" unicode="&#x41b;" horiz-adv-x="663" 
d="M157 700h412v-700h-100v612h-221l-4 -172c-1 -60 -2 -95 -7 -183c-5 -81 -12 -161 -52 -213c-30 -39 -69 -54 -120 -54c-23 0 -42 4 -55 8l3 87c11 -3 24 -6 35 -6c53 0 72 31 82 64c6 21 12 54 18 164c2 36 6 138 6 163z" />
    <glyph glyph-name="afii10030" unicode="&#x41c;" horiz-adv-x="952" 
d="M94 0v700h165l219 -582l215 582h165v-700h-100v606h-2l-231 -606h-98l-231 606h-2v-606h-100z" />
    <glyph glyph-name="afii10031" unicode="&#x41d;" horiz-adv-x="722" 
d="M94 0v700h100v-293h334v293h100v-700h-100v319h-334v-319h-100z" />
    <glyph glyph-name="afii10032" unicode="&#x41e;" horiz-adv-x="778" 
d="M389 710c112 0 193 -40 250 -106c52 -59 86 -147 86 -254c0 -109 -36 -198 -86 -255c-44 -51 -122 -105 -250 -105s-206 54 -250 105c-50 57 -86 146 -86 255c0 107 34 195 86 254c57 66 138 106 250 106zM389 622c-82 0 -139 -39 -171 -80c-36 -46 -59 -120 -59 -192
c0 -59 16 -137 59 -192c34 -44 87 -80 171 -80s137 36 171 80c43 55 59 133 59 192c0 72 -23 146 -59 192c-32 41 -89 80 -171 80z" />
    <glyph glyph-name="afii10033" unicode="&#x41f;" horiz-adv-x="709" 
d="M94 0v700h521v-700h-100v612h-321v-612h-100z" />
    <glyph glyph-name="afii10034" unicode="&#x420;" 
d="M183 612v-244h99c38 0 81 12 106 35c16 15 34 43 34 86c0 42 -16 71 -46 93c-36 26 -77 30 -108 30h-85zM83 0v700h183c53 0 134 -6 192 -51c34 -26 70 -73 70 -156c0 -63 -22 -110 -47 -139c-60 -70 -156 -74 -200 -74h-98v-280h-100z" />
    <glyph glyph-name="afii10035" unicode="&#x421;" horiz-adv-x="625" 
d="M579 680l-8 -97c-44 26 -94 39 -144 39c-62 0 -124 -19 -171 -56c-56 -44 -97 -119 -97 -216c0 -85 31 -146 66 -186c48 -56 117 -86 212 -86c34 0 82 7 137 33l6 -96c-58 -22 -105 -25 -146 -25c-93 0 -203 19 -285 103c-52 54 -96 144 -96 258c0 73 18 196 130 282
c72 55 162 77 244 77c76 0 120 -15 152 -30z" />
    <glyph glyph-name="afii10036" unicode="&#x422;" 
d="M228 0v612h-217v88h534v-88h-217v-612h-100z" />
    <glyph glyph-name="afii10037" unicode="&#x423;" horiz-adv-x="581" 
d="M15 700h113l182 -394h7l171 394h97l-266 -599c-15 -34 -36 -65 -60 -83c-18 -14 -47 -28 -88 -28c-28 0 -61 7 -83 14l11 87c17 -7 41 -13 60 -13c25 0 40 9 47 14c10 7 27 29 32 42l23 57z" />
    <glyph glyph-name="afii10038" unicode="&#x424;" horiz-adv-x="852" 
d="M476 728v-90h26c89 0 152 -30 191 -60c58 -44 106 -120 106 -218c0 -87 -38 -167 -97 -215c-25 -20 -89 -63 -200 -63h-26v-92h-100v92h-26c-111 0 -175 43 -200 63c-59 48 -97 128 -97 215c0 98 48 174 106 218c39 30 102 60 191 60h26v90h100zM476 556v-392h28
c39 0 94 6 138 51c27 27 51 71 51 145c0 80 -31 125 -58 150c-44 41 -98 46 -131 46h-28zM376 556h-28c-33 0 -87 -5 -131 -46c-27 -25 -58 -70 -58 -150c0 -74 24 -118 51 -145c44 -45 99 -51 138 -51h28v392z" />
    <glyph glyph-name="afii10039" unicode="&#x425;" horiz-adv-x="667" 
d="M8 0l257 364l-234 336h120l186 -269l185 269h114l-235 -334l258 -366h-126l-206 297l-199 -297h-120z" />
    <glyph glyph-name="afii10040" unicode="&#x426;" horiz-adv-x="703" 
d="M94 700h100v-612h309v612h100v-612h80v-244h-98v156h-491v700z" />
    <glyph glyph-name="afii10041" unicode="&#x427;" horiz-adv-x="653" 
d="M459 0v293c-76 -20 -139 -24 -178 -24c-122 0 -174 38 -197 67c-32 40 -34 92 -34 120v244h100v-210c0 -30 -1 -72 35 -103c31 -27 82 -30 114 -30c51 0 104 6 160 23v320h100v-700h-100z" />
    <glyph glyph-name="afii10042" unicode="&#x428;" horiz-adv-x="904" 
d="M94 700h100v-612h208v612h100v-612h208v612h100v-700h-716v700z" />
    <glyph glyph-name="afii10043" unicode="&#x429;" horiz-adv-x="910" 
d="M94 700h100v-612h208v612h100v-612h208v612h100v-612h80v-244h-98v156h-698v700z" />
    <glyph glyph-name="afii10044" unicode="&#x42a;" horiz-adv-x="654" 
d="M273 418h54c61 0 151 2 213 -44c45 -33 79 -93 79 -167c0 -76 -32 -125 -61 -151c-56 -50 -134 -56 -205 -56h-180v612h-178v88h278v-282zM273 330v-242h69c39 0 99 0 135 30c14 12 36 39 36 90c0 46 -19 73 -35 88c-39 36 -98 34 -134 34h-71z" />
    <glyph glyph-name="afii10045" unicode="&#x42b;" horiz-adv-x="831" 
d="M94 0v700h100v-282h54c61 0 151 2 213 -44c45 -33 79 -93 79 -167c0 -76 -32 -125 -61 -151c-56 -50 -134 -56 -205 -56h-180zM194 330v-242h69c39 0 99 0 135 30c14 12 36 39 36 90c0 46 -19 73 -35 88c-39 36 -98 34 -134 34h-71zM637 0v700h100v-700h-100z" />
    <glyph glyph-name="afii10046" unicode="&#x42c;" horiz-adv-x="575" 
d="M94 0v700h100v-282h54c61 0 151 2 213 -44c45 -33 79 -93 79 -167c0 -76 -32 -125 -61 -151c-56 -50 -134 -56 -205 -56h-180zM194 330v-242h69c39 0 99 0 135 30c14 12 36 39 36 90c0 46 -19 73 -35 88c-39 36 -98 34 -134 34h-71z" />
    <glyph glyph-name="afii10047" unicode="&#x42d;" horiz-adv-x="632" 
d="M62 583l-8 97c29 13 79 30 160 30c89 0 170 -21 239 -75c78 -62 126 -153 126 -284c0 -119 -44 -197 -87 -246c-89 -101 -202 -115 -293 -115c-42 0 -88 3 -146 25l6 97c63 -29 109 -34 143 -34c89 0 161 30 204 76c39 42 63 108 67 165h-284v88h284
c-10 69 -45 126 -90 161c-51 40 -123 54 -180 54c-38 0 -89 -8 -141 -39z" />
    <glyph glyph-name="afii10048" unicode="&#x42e;" horiz-adv-x="1030" 
d="M194 407h120c7 67 33 141 81 197c56 66 135 106 246 106s193 -41 250 -106c52 -59 86 -147 86 -254c0 -109 -36 -198 -86 -255c-44 -51 -122 -105 -250 -105c-127 0 -202 54 -246 105c-51 59 -80 145 -84 224h-117v-319h-100v700h100v-293zM641 622
c-82 0 -139 -39 -171 -80c-36 -46 -59 -120 -59 -192c0 -59 16 -137 59 -192c34 -44 87 -80 171 -80s137 36 171 80c43 55 59 133 59 192c0 72 -23 146 -59 192c-32 41 -89 80 -171 80z" />
    <glyph glyph-name="afii10049" unicode="&#x42f;" horiz-adv-x="627" 
d="M533 700v-700h-100v280h-113l-146 -280h-120l168 300c-59 19 -91 56 -96 62c-27 33 -43 80 -43 129c0 48 14 111 70 157c57 48 123 52 178 52h202zM433 362v250h-108c-30 0 -68 -4 -98 -30c-22 -19 -38 -51 -38 -93s17 -70 33 -86c37 -37 89 -41 133 -41h78z" />
    <glyph glyph-name="afii10065" unicode="&#x430;" 
d="M109 392l-6 82c65 39 141 44 176 44c64 0 117 -17 150 -50c45 -45 48 -103 48 -158v-207c0 -23 0 -78 4 -103h-88v69h-2c-42 -57 -109 -77 -167 -77c-46 0 -92 14 -122 36s-56 59 -56 116c0 35 12 98 80 136c24 14 77 34 193 34c18 0 47 -1 64 -2v28c0 20 -1 50 -30 75
s-69 27 -93 27c-36 0 -91 -7 -151 -50zM383 199v44c-18 1 -36 2 -54 2c-74 0 -118 -9 -146 -28c-30 -20 -37 -47 -37 -68c0 -30 14 -49 27 -59c19 -15 46 -22 73 -22c38 0 78 14 103 40c17 18 34 48 34 91z" />
    <glyph glyph-name="afii10066" unicode="&#x431;" horiz-adv-x="624" 
d="M528 775v-83c-34 -9 -55 -10 -80 -12c-62 -4 -47 -3 -73 -4c-44 -2 -67 -5 -79 -7c-54 -9 -86 -32 -105 -52c-46 -49 -51 -120 -53 -179l-1 -25h5c17 28 46 62 73 78c30 18 76 27 114 27c145 0 249 -108 249 -263c0 -78 -28 -141 -66 -183c-34 -38 -96 -80 -193 -80
c-82 0 -152 32 -193 80c-36 42 -76 129 -76 305c0 131 20 243 91 308c37 34 81 50 113 58s62 11 87 13c12 1 25 1 37 2c19 1 39 2 58 3c30 2 57 5 92 14zM319 442c-61 0 -99 -32 -120 -60c-27 -36 -39 -84 -39 -127s12 -91 39 -127c31 -41 76 -60 120 -60s89 19 120 60
c27 36 39 84 39 127c0 44 -12 90 -39 127c-32 44 -75 60 -120 60z" />
    <glyph glyph-name="afii10067" unicode="&#x432;" horiz-adv-x="552" 
d="M80 510h203c39 0 96 -2 138 -30c41 -27 54 -66 54 -99c0 -30 -11 -57 -26 -76c-15 -18 -36 -33 -63 -40v-3c27 -4 57 -16 75 -33c7 -6 35 -33 35 -86s-23 -88 -58 -111c-43 -29 -96 -32 -134 -32h-224v510zM174 434v-134h94c31 0 59 1 82 14c29 17 30 40 30 54
c0 16 -4 37 -30 52c-15 9 -37 14 -72 14h-104zM174 230v-154h119c20 0 58 2 82 25c10 9 21 25 21 49c0 31 -16 52 -36 64c-17 10 -42 16 -89 16h-97z" />
    <glyph glyph-name="afii10068" unicode="&#x433;" horiz-adv-x="420" 
d="M80 510h335v-80h-241v-430h-94v510z" />
    <glyph glyph-name="afii10069" unicode="&#x434;" horiz-adv-x="567" 
d="M139 510h344v-434h72v-220h-90v144h-363v-144h-90v220h52c59 81 69 163 73 348zM147 76h242v358h-168l-1 -40c-4 -146 -12 -236 -73 -318z" />
    <glyph glyph-name="afii10070" unicode="&#x435;" 
d="M510 234h-364c1 -45 18 -86 43 -113c27 -30 71 -53 128 -53c54 0 116 24 154 51v-94l-14 -5c-28 -10 -63 -28 -147 -28c-62 0 -140 11 -198 73c-31 33 -66 94 -66 192c0 108 42 170 79 203c31 28 82 58 160 58c89 0 140 -36 169 -72c38 -47 56 -120 56 -185v-27zM146 304
h264c1 36 -11 69 -29 92c-16 20 -47 46 -101 46c-48 0 -81 -23 -102 -51c-18 -25 -29 -57 -32 -87z" />
    <glyph glyph-name="afii10072" unicode="&#x436;" horiz-adv-x="756" 
d="M425 510v-224h7l168 224h114l-193 -243l222 -267h-120l-191 245h-7v-245h-94v245h-7l-191 -245h-120l222 267l-193 243h114l168 -224h7v224h94z" />
    <glyph glyph-name="afii10073" unicode="&#x437;" horiz-adv-x="482" 
d="M150 230v70h66c49 0 73 19 76 21c11 9 23 25 23 51c0 25 -11 41 -30 52c-28 17 -67 18 -81 18s-72 -1 -138 -31l-2 78c46 16 101 29 155 29c52 0 110 -10 145 -34c32 -22 53 -59 53 -105c0 -28 -10 -54 -25 -72c-17 -19 -44 -34 -69 -39v-2c28 -4 60 -16 80 -36
s33 -47 33 -84c0 -40 -15 -90 -76 -124c-42 -23 -95 -30 -139 -30c-56 0 -119 11 -181 38l10 77c49 -22 113 -39 164 -39c29 0 67 6 91 25c19 15 27 34 27 56c0 39 -20 58 -37 67c-20 11 -59 14 -84 14h-61z" />
    <glyph glyph-name="afii10074" unicode="&#x438;" horiz-adv-x="622" 
d="M174 510v-385l274 385h94v-510h-94v385l-274 -385h-94v510h94z" />
    <glyph glyph-name="afii10075" unicode="&#x439;" horiz-adv-x="622" 
d="M174 510v-385l274 385h94v-510h-94v385l-274 -385h-94v510h94zM408 758l65 -8c-2 -48 -25 -84 -50 -103c-26 -20 -68 -31 -105 -31s-79 11 -105 31c-25 19 -48 55 -50 103l65 8c4 -26 18 -41 24 -46c20 -18 45 -20 66 -20s46 2 66 20c6 5 20 20 24 46z" />
    <glyph glyph-name="afii10076" unicode="&#x43a;" horiz-adv-x="555" 
d="M80 0v510h94v-224l205 224h128l-237 -243l266 -267h-133l-229 245v-245h-94z" />
    <glyph glyph-name="afii10077" unicode="&#x43b;" horiz-adv-x="549" 
d="M119 510h350v-510h-94v434h-166l-3 -132c-3 -144 -9 -197 -26 -237c-22 -53 -57 -73 -114 -73c-17 0 -39 3 -58 8l12 75c8 -2 21 -5 29 -5c46 0 54 41 58 66c7 42 8 89 9 166z" />
    <glyph glyph-name="afii10078" unicode="&#x43c;" horiz-adv-x="743" 
d="M413 0h-83l-156 414v-414h-94v510h143l146 -365h5l145 365h144v-510h-94v414z" />
    <glyph glyph-name="afii10079" unicode="&#x43d;" horiz-adv-x="608" 
d="M174 510v-207h260v207h94v-510h-94v227h-260v-227h-94v510h94z" />
    <glyph glyph-name="afii10080" unicode="&#x43e;" horiz-adv-x="610" 
d="M305 518c97 0 159 -42 193 -80c45 -50 66 -118 66 -183s-21 -133 -66 -183c-34 -38 -96 -80 -193 -80s-159 42 -193 80c-45 50 -66 118 -66 183s21 133 66 183c34 38 96 80 193 80zM305 442c-50 0 -93 -26 -120 -60c-27 -35 -39 -82 -39 -127c0 -52 15 -96 39 -127
c41 -55 97 -60 120 -60s79 5 120 60c24 31 39 75 39 127s-15 96 -39 127c-31 41 -76 60 -120 60z" />
    <glyph glyph-name="afii10081" unicode="&#x43f;" horiz-adv-x="601" 
d="M80 510h441v-510h-94v434h-253v-434h-94v510z" />
    <glyph glyph-name="afii10082" unicode="&#x440;" horiz-adv-x="611" 
d="M80 510h90v-73h2c52 73 131 81 169 81c65 0 120 -20 162 -68c37 -43 62 -110 62 -191c0 -67 -19 -142 -59 -192c-27 -34 -77 -75 -160 -75c-39 0 -78 7 -112 25c-27 14 -45 31 -58 50h-2v-291h-94v734zM174 254c0 -44 12 -95 39 -131c22 -30 60 -55 109 -55
c45 0 76 21 96 43c28 31 47 83 47 151c0 40 -6 95 -42 136c-23 27 -56 44 -98 44c-63 0 -96 -34 -114 -60c-28 -39 -37 -83 -37 -128z" />
    <glyph glyph-name="afii10083" unicode="&#x441;" horiz-adv-x="444" 
d="M412 498l-8 -78c-32 14 -72 22 -102 22c-36 0 -76 -14 -105 -39c-36 -32 -59 -89 -59 -148c0 -44 12 -94 39 -128c27 -33 74 -59 131 -59c44 0 78 14 101 29l7 -84c-30 -13 -65 -21 -118 -21c-87 0 -151 37 -192 82c-29 31 -68 92 -68 185c0 67 22 145 88 200
c46 38 107 59 172 59c20 0 64 -2 114 -20z" />
    <glyph glyph-name="afii10084" unicode="&#x442;" horiz-adv-x="468" 
d="M10 510h448v-76h-177v-434h-94v434h-177v76z" />
    <glyph glyph-name="afii10085" unicode="&#x443;" horiz-adv-x="492" 
d="M36 -217l6 77c24 -7 38 -8 45 -8c25 0 46 9 64 27c23 23 36 62 41 79l6 22l-12 38l-179 492h103l140 -419h2l137 419h95l-191 -529c-24 -66 -43 -114 -67 -144c-39 -50 -88 -61 -131 -61c-28 0 -41 3 -54 6z" />
    <glyph glyph-name="afii10086" unicode="&#x444;" horiz-adv-x="768" 
d="M431 700v-204c11 5 47 22 91 22c63 0 134 -31 172 -112c20 -43 28 -103 28 -151c0 -49 -8 -108 -28 -151c-42 -91 -120 -112 -176 -112c-33 0 -61 8 -87 22v-238h-94v238c-26 -14 -54 -22 -87 -22c-56 0 -134 21 -176 112c-20 43 -28 102 -28 151c0 48 8 108 28 151
c38 81 109 112 172 112c44 0 80 -17 91 -22v204h94zM431 427v-343c8 -4 34 -17 67 -17c34 0 73 14 98 62c19 36 26 89 26 126c0 38 -7 89 -26 126c-18 36 -48 62 -101 62c-22 0 -46 -7 -64 -16zM337 84v343c-18 9 -42 16 -65 16c-52 0 -81 -26 -100 -62
c-19 -37 -26 -88 -26 -126c0 -37 7 -90 26 -126c25 -48 64 -62 98 -62c33 0 59 13 67 17z" />
    <glyph glyph-name="afii10087" unicode="&#x445;" horiz-adv-x="500" 
d="M10 0l184 267l-166 243h117l111 -182l113 182h105l-164 -243l180 -267h-116l-126 200l-126 -200h-112z" />
    <glyph glyph-name="afii10088" unicode="&#x446;" horiz-adv-x="597" 
d="M414 510h94v-434h77v-220h-90v144h-415v510h94v-434h240v434z" />
    <glyph glyph-name="afii10089" unicode="&#x447;" horiz-adv-x="536" 
d="M362 0v201c-13 -3 -71 -15 -133 -15c-43 0 -97 6 -136 38c-44 36 -48 82 -48 108v178h94v-150c0 -24 1 -59 28 -80c13 -10 35 -18 84 -18c51 0 93 9 111 13v235h94v-510h-94z" />
    <glyph glyph-name="afii10090" unicode="&#x448;" horiz-adv-x="804" 
d="M80 0v510h94v-434h181v434h94v-434h181v434h94v-510h-644z" />
    <glyph glyph-name="afii10091" unicode="&#x449;" horiz-adv-x="813" 
d="M80 0v510h94v-434h181v434h94v-434h181v434h94v-434h77v-220h-90v144h-631z" />
    <glyph glyph-name="afii10092" unicode="&#x44a;" horiz-adv-x="577" 
d="M235 315h105c39 0 104 -3 152 -39c28 -21 57 -59 57 -121c0 -48 -20 -88 -48 -113c-43 -38 -101 -42 -142 -42h-218v434h-146v76h240v-195zM235 239v-163h122c24 0 57 2 79 26c16 17 19 39 19 55c0 19 -4 42 -24 59c-25 22 -67 23 -89 23h-107z" />
    <glyph glyph-name="afii10093" unicode="&#x44b;" horiz-adv-x="742" 
d="M80 510h94v-195h105c39 0 104 -3 152 -39c28 -21 57 -59 57 -121c0 -48 -20 -88 -48 -113c-43 -38 -101 -42 -142 -42h-218v510zM174 239v-163h122c24 0 57 2 79 26c16 17 19 39 19 55c0 19 -4 42 -24 59c-25 22 -67 23 -89 23h-107zM568 0v510h94v-510h-94z" />
    <glyph glyph-name="afii10094" unicode="&#x44c;" horiz-adv-x="516" 
d="M80 510h94v-195h105c39 0 104 -3 152 -39c28 -21 57 -59 57 -121c0 -48 -20 -88 -48 -113c-43 -38 -101 -42 -142 -42h-218v510zM174 239v-163h122c24 0 57 2 79 26c16 17 19 39 19 55c0 19 -4 42 -24 59c-25 22 -67 23 -89 23h-107z" />
    <glyph glyph-name="afii10095" unicode="&#x44d;" horiz-adv-x="487" 
d="M57 422l-8 76c51 16 98 20 130 20c89 0 146 -30 180 -60c48 -42 82 -113 82 -199c0 -67 -20 -141 -64 -190c-39 -43 -103 -77 -204 -77c-29 0 -74 3 -128 21l7 83c54 -26 99 -28 121 -28c74 0 113 29 132 52c22 26 36 67 36 108h-205v74h201c-2 37 -16 69 -35 91
c-38 43 -91 49 -129 49c-67 0 -107 -17 -116 -20z" />
    <glyph glyph-name="afii10096" unicode="&#x44e;" horiz-adv-x="822" 
d="M174 303h91c10 76 48 126 82 156c50 44 107 59 170 59c98 0 158 -41 193 -80c45 -50 66 -118 66 -183s-21 -133 -66 -183c-35 -38 -95 -80 -193 -80c-103 0 -164 46 -196 84c-33 39 -54 95 -59 151h-88v-227h-94v510h94v-207zM517 442c-50 0 -93 -26 -120 -60
c-27 -35 -39 -82 -39 -127c0 -52 15 -96 39 -127c41 -55 97 -60 120 -60s79 5 120 60c24 31 39 75 39 127s-15 96 -39 127c-31 41 -76 60 -120 60z" />
    <glyph glyph-name="afii10097" unicode="&#x44f;" horiz-adv-x="526" 
d="M446 510v-510h-94v201h-93l-103 -201h-111l120 218c-44 9 -69 34 -79 46c-15 18 -31 49 -31 95c0 48 24 86 52 110c28 23 72 41 117 41h222zM352 439h-105c-24 0 -47 -3 -69 -25c-20 -20 -23 -43 -23 -59c0 -21 7 -42 23 -58c23 -24 53 -26 69 -26h105v168z" />
    <glyph glyph-name="afii10071" unicode="&#x451;" 
d="M510 234h-364c1 -45 18 -86 43 -113c27 -30 71 -53 128 -53c54 0 116 24 154 51v-94l-14 -5c-28 -10 -63 -28 -147 -28c-62 0 -140 11 -198 73c-31 33 -66 94 -66 192c0 108 42 170 79 203c31 28 82 58 160 58c89 0 140 -36 169 -72c38 -47 56 -120 56 -185v-27zM146 304
h264c1 36 -11 69 -29 92c-16 20 -47 46 -101 46c-48 0 -81 -23 -102 -51c-18 -25 -29 -57 -32 -87zM149 620v100h94v-100h-94zM313 620v100h94v-100h-94z" />
    <glyph glyph-name="afii10099" unicode="&#x452;" horiz-adv-x="604" 
d="M174 655h203v-54h-203v-164h2c15 22 37 43 67 59c29 15 59 22 97 22c41 0 102 -7 144 -56c41 -48 47 -112 47 -159v-68c0 -87 -4 -147 -17 -195c-12 -44 -34 -92 -65 -129c-29 -35 -67 -65 -103 -84l-54 51c35 19 68 47 90 76c23 31 37 70 44 102c6 27 11 72 11 177v31
c0 87 -16 124 -32 144c-14 17 -41 34 -83 34s-77 -19 -100 -44c-45 -50 -48 -126 -48 -162v-236h-94v601h-75v54h75v107h94v-107z" />
    <glyph glyph-name="afii10100" unicode="&#x453;" horiz-adv-x="420" 
d="M80 510h335v-80h-241v-430h-94v510zM193 610l78 130h120l-118 -130h-80z" />
    <glyph glyph-name="afii10101" unicode="&#x454;" horiz-adv-x="489" 
d="M439 498l-8 -76c-44 17 -89 21 -116 21c-39 0 -91 -5 -129 -50c-19 -22 -33 -54 -35 -91h198v-74h-202c0 -5 1 -64 34 -105c25 -32 71 -56 134 -56c58 0 100 18 121 29l7 -83c-54 -18 -99 -21 -128 -21c-66 0 -151 14 -210 84c-39 46 -60 112 -60 183
c0 101 44 164 84 199c35 30 91 60 176 60c41 0 88 -6 134 -20z" />
    <glyph glyph-name="afii10102" unicode="&#x455;" horiz-adv-x="406" 
d="M48 20l5 83c44 -26 88 -36 119 -36c35 0 60 12 75 26c14 14 19 30 19 46c0 22 -10 34 -25 46c-19 15 -49 31 -68 40l-20 9c-34 15 -73 42 -91 69c-14 22 -17 45 -17 62c0 54 23 89 45 109c29 27 75 44 135 44c37 0 78 -7 117 -20l-8 -80c-14 8 -27 13 -43 17
c-17 4 -35 7 -55 7s-46 -3 -62 -12s-29 -25 -29 -48c0 -49 50 -67 92 -86l15 -7c32 -15 70 -33 92 -65c13 -20 22 -47 22 -79c0 -49 -20 -85 -52 -112c-36 -30 -79 -41 -133 -41c-57 0 -100 13 -133 28z" />
    <glyph glyph-name="afii10103" unicode="&#x456;" horiz-adv-x="254" 
d="M80 0v510h94v-510h-94zM180 720v-106h-106v106h106z" />
    <glyph glyph-name="afii10104" unicode="&#x457;" horiz-adv-x="254" 
d="M80 0v510h94v-510h-94zM22 620v100h80v-100h-80zM152 620v100h80v-100h-80z" />
    <glyph glyph-name="afii10105" unicode="&#x458;" horiz-adv-x="254" 
d="M-28 -218l3 81c11 -2 20 -3 28 -3h10c21 1 37 8 49 27c17 27 18 68 18 81v542h94v-528c0 -51 -2 -114 -34 -156c-33 -43 -81 -48 -124 -48c-16 0 -29 1 -44 4zM180 720v-106h-106v106h106z" />
    <glyph glyph-name="afii10106" unicode="&#x459;" horiz-adv-x="800" 
d="M463 315h100c39 0 104 -3 152 -39c28 -21 57 -59 57 -121c0 -48 -20 -88 -48 -113c-43 -38 -101 -42 -142 -42h-213v434h-160l-3 -132c-3 -144 -9 -197 -26 -237c-22 -53 -57 -73 -114 -73c-17 0 -39 3 -58 8l12 75c8 -2 21 -5 29 -5c46 0 54 41 58 66c8 50 7 99 9 166
l5 208h342v-195zM463 239v-163h117c24 0 57 2 79 26c16 17 19 39 19 55c0 19 -4 42 -24 59c-25 22 -67 23 -89 23h-102z" />
    <glyph glyph-name="afii10107" unicode="&#x45a;" horiz-adv-x="854" 
d="M517 315h100c39 0 104 -3 152 -39c28 -21 57 -59 57 -121c0 -48 -20 -88 -48 -113c-43 -38 -101 -42 -142 -42h-213v239h-249v-239h-94v510h94v-195h249v195h94v-195zM517 239v-163h117c24 0 57 2 79 26c16 17 19 39 19 55c0 19 -4 42 -24 59c-25 22 -67 23 -89 23h-102z
" />
    <glyph glyph-name="afii10108" unicode="&#x45b;" horiz-adv-x="604" 
d="M531 303v-303h-94v264c0 87 -16 124 -32 144c-14 17 -41 34 -83 34s-77 -19 -100 -44c-45 -50 -48 -126 -48 -162v-236h-94v601h-75v54h75v107h94v-107h203v-54h-203v-164h2c15 22 37 43 67 59c29 15 59 22 97 22c41 0 102 -7 144 -56c41 -48 47 -112 47 -159z" />
    <glyph glyph-name="afii10109" unicode="&#x45c;" horiz-adv-x="555" 
d="M80 0v510h94v-224l205 224h128l-237 -243l266 -267h-133l-229 245v-245h-94zM233 610l78 130h120l-118 -130h-80z" />
    <glyph glyph-name="afii10110" unicode="&#x45e;" horiz-adv-x="492" 
d="M36 -217l6 77c24 -7 38 -8 45 -8c25 0 46 9 64 27c23 23 36 62 41 79l6 22l-12 38l-179 492h103l140 -419h2l137 419h95l-191 -529c-24 -66 -43 -114 -67 -144c-39 -50 -88 -61 -131 -61c-28 0 -41 3 -54 6zM336 758l65 -8c-2 -48 -25 -84 -50 -103
c-26 -20 -68 -31 -105 -31s-79 11 -105 31c-25 19 -48 55 -50 103l65 8c4 -26 18 -41 24 -46c20 -18 45 -20 66 -20s46 2 66 20c6 5 20 20 24 46z" />
    <glyph glyph-name="afii10193" unicode="&#x45f;" horiz-adv-x="598" 
d="M424 510h94v-510h-174v-144h-90v144h-174v510h94v-434h250v434z" />
    <glyph glyph-name="afii10146" unicode="&#x462;" horiz-adv-x="654" 
d="M-5 638h178v90h100v-90h200v-88h-200v-132h54c61 0 151 2 213 -44c45 -33 79 -93 79 -167c0 -76 -32 -125 -61 -151c-18 -16 -39 -28 -61 -36c-45 -17 -92 -20 -144 -20h-180v550h-178v88zM273 330v-242h69c39 0 99 0 135 30c15 12 26 30 31 49c4 13 5 27 5 41
c0 18 -3 36 -10 52c-6 14 -14 26 -25 36c-39 36 -98 34 -134 34h-71z" />
    <glyph glyph-name="afii10194" unicode="&#x463;" horiz-adv-x="577" 
d="M-5 510h146v190h94v-190h170v-80h-170v-115h105c39 0 104 -3 152 -39c28 -21 57 -59 57 -121c0 -48 -20 -88 -48 -113c-17 -15 -38 -25 -59 -32c-26 -8 -53 -10 -83 -10h-218v434h-146v76zM235 239v-163h122c24 0 57 2 79 26c7 7 12 16 15 26c3 9 4 19 4 29
c0 12 -2 25 -7 36c-4 9 -10 17 -17 23c-25 22 -67 23 -89 23h-107z" />
    <glyph glyph-name="afii10147" unicode="&#x472;" horiz-adv-x="778" 
d="M389 710c112 0 193 -40 250 -106c52 -59 86 -147 86 -254c0 -109 -36 -198 -86 -255c-44 -51 -122 -105 -250 -105s-206 54 -250 105c-50 57 -86 146 -86 255c0 107 34 195 86 254c57 66 138 106 250 106zM164 407h450c-6 45 -25 98 -54 135c-32 41 -89 80 -171 80
s-139 -39 -171 -80c-29 -37 -48 -90 -54 -135zM618 319h-458c5 -57 26 -119 58 -161c34 -44 87 -80 171 -80s137 36 171 80c32 42 53 104 58 161z" />
    <glyph glyph-name="afii10195" unicode="&#x473;" horiz-adv-x="610" 
d="M305 518c97 0 159 -42 193 -80c45 -50 66 -118 66 -183s-21 -133 -66 -183c-34 -38 -96 -80 -193 -80s-159 42 -193 80c-45 50 -66 118 -66 183s21 133 66 183c34 38 96 80 193 80zM150 300h310c-4 23 -14 55 -35 82c-31 41 -76 60 -120 60c-50 0 -94 -26 -120 -60
c-21 -27 -31 -59 -35 -82zM463 230h-316c3 -36 17 -74 38 -102c31 -41 76 -60 120 -60s89 19 120 60c21 28 35 66 38 102z" />
    <glyph glyph-name="afii10148" unicode="&#x474;" horiz-adv-x="730" 
d="M6 700h112l219 -612h2l180 510c19 54 55 112 149 112c22 0 38 -3 56 -10l-3 -87c-13 6 -25 8 -39 8c-23 0 -61 -6 -82 -64l-206 -557h-125z" />
    <glyph glyph-name="afii10196" unicode="&#x475;" horiz-adv-x="552" 
d="M11 510h103l138 -416h2l106 325c11 35 35 99 123 99c19 0 39 -3 58 -8l-12 -76c-11 4 -21 6 -29 6c-47 0 -58 -34 -66 -57l-132 -383h-108z" />
    <glyph glyph-name="afii10050" unicode="&#x490;" horiz-adv-x="464" 
d="M83 700h277v140h94v-228h-271v-612h-100v700z" />
    <glyph glyph-name="afii10098" unicode="&#x491;" horiz-adv-x="420" 
d="M80 510h245v120h90v-200h-241v-430h-94v510z" />
    <glyph glyph-name="uni0492" unicode="&#x492;" horiz-adv-x="475" 
d="M94 0v343h-68v64h68v293h371v-88h-271v-205h180v-64h-180v-343h-100z" />
    <glyph glyph-name="uni0493" unicode="&#x493;" horiz-adv-x="420" 
d="M80 510h335v-80h-241v-150h153v-54h-153v-226h-94v226h-75v54h75v230z" />
    <glyph glyph-name="uni0494" unicode="&#x494;" horiz-adv-x="654" 
d="M94 0v700h371v-88h-271v-208c10 7 20 13 30 18c15 8 30 14 46 19c37 12 66 17 99 17c35 0 71 -4 104 -17c25 -10 48 -25 66 -44c47 -49 55 -116 55 -172c0 -46 -7 -105 -34 -150c-35 -58 -94 -85 -176 -85c-29 0 -56 4 -85 13l7 82c24 -10 50 -14 75 -14c17 0 35 3 50 11
c15 7 27 18 36 32c17 27 23 75 23 108c0 17 -1 79 -32 117c-11 13 -25 23 -40 29c-20 8 -43 10 -65 10c-16 0 -32 -1 -47 -4c-16 -3 -32 -8 -47 -14c-25 -10 -46 -23 -65 -37v-323h-100z" />
    <glyph glyph-name="uni0495" unicode="&#x495;" horiz-adv-x="500" 
d="M80 510h335v-80h-241v-133h39c48 0 115 -7 166 -48c60 -49 71 -119 71 -184c0 -32 -3 -64 -12 -94c-11 -36 -32 -71 -61 -96c-48 -43 -106 -55 -171 -55v76c7 0 13 0 20 1c30 3 64 13 89 44c14 17 23 38 28 59s7 43 7 65c0 25 -2 50 -10 74c-6 17 -14 32 -26 45
c-13 13 -29 23 -46 29c-18 6 -37 8 -57 8h-37v-221h-94v510z" />
    <glyph glyph-name="uni0496" unicode="&#x496;" horiz-adv-x="944" 
d="M515 700v-308h7l251 308h118l-273 -331l226 -281h80v-244h-98v156h-40l-264 343h-7v-343h-100v343h-7l-264 -343h-130l298 369l-273 331h118l251 -308h7v308h100z" />
    <glyph glyph-name="uni0497" unicode="&#x497;" horiz-adv-x="770" 
d="M425 510v-224h7l168 224h114l-193 -243l159 -191h78v-220h-90v144h-44l-192 245h-7v-245h-94v245h-7l-191 -245h-120l222 267l-193 243h114l168 -224h7v224h94z" />
    <glyph glyph-name="uni0498" unicode="&#x498;" horiz-adv-x="573" 
d="M185 401h45c24 0 46 2 68 8c17 4 35 10 49 21c13 9 23 22 30 36c8 16 11 33 11 51c0 14 -3 29 -9 42s-15 25 -26 34c-15 12 -33 20 -51 24c-16 4 -33 5 -50 5c-48 0 -109 -10 -171 -38l-10 92c61 22 123 34 190 34c48 0 112 -3 166 -46c23 -18 42 -42 53 -69
c10 -23 14 -49 14 -74c0 -39 -12 -78 -36 -105c-12 -13 -27 -23 -43 -31c-15 -7 -30 -13 -46 -17v-4c45 -6 84 -28 107 -53c13 -14 23 -32 30 -50c8 -21 11 -43 11 -66c0 -78 -42 -127 -80 -155c-19 -14 -39 -25 -61 -33s-45 -13 -70 -15v-148h-98v148
c-59 4 -111 20 -158 42l11 91c82 -42 155 -47 186 -47c35 0 79 3 116 29c32 22 48 52 48 91c0 41 -16 70 -39 88c-37 30 -90 33 -124 33h-63v82z" />
    <glyph glyph-name="uni0499" unicode="&#x499;" horiz-adv-x="482" 
d="M150 230v70h66c16 0 30 2 45 6c11 3 22 8 31 15c8 6 14 15 18 24c4 8 5 18 5 27c0 11 -3 22 -8 31s-13 16 -22 21c-11 6 -22 10 -34 13c-15 4 -31 5 -47 5c-14 0 -72 -1 -138 -31l-2 78c46 16 101 29 155 29c52 0 110 -10 145 -34c16 -11 29 -25 38 -42
c10 -19 15 -41 15 -63c0 -28 -10 -54 -25 -72c-9 -10 -20 -19 -32 -25s-24 -11 -37 -14v-2c28 -4 60 -16 80 -36c12 -11 21 -25 26 -40c5 -14 7 -29 7 -44c0 -51 -23 -94 -76 -124c-15 -8 -30 -14 -46 -19c-14 -4 -29 -7 -44 -8v-139h-90v139c-50 4 -97 16 -140 35l10 77
c49 -22 113 -39 164 -39c29 0 67 6 91 25c19 15 27 34 27 56c0 39 -20 58 -37 67c-20 11 -59 14 -84 14h-61z" />
    <glyph glyph-name="uni049A" unicode="&#x49a;" horiz-adv-x="668" 
d="M94 0v700h100v-308l298 308h133l-328 -331l271 -281h80v-244h-98v156h-44l-312 343v-343h-100z" />
    <glyph glyph-name="uni049B" unicode="&#x49b;" horiz-adv-x="550" 
d="M80 0v510h94v-224l205 224h128l-237 -243l192 -191h76v-220h-90v144h-44l-230 245v-245h-94z" />
    <glyph glyph-name="uni049C" unicode="&#x49c;" horiz-adv-x="744" 
d="M94 0v700h100v-289h88v129h70v-129l234 289h122l-277 -331l297 -369h-130l-246 323v-143h-70v143h-88v-323h-100z" />
    <glyph glyph-name="uni049D" unicode="&#x49d;" horiz-adv-x="600" 
d="M80 510h94v-206h56v86h60v-86l167 206h110l-207 -243l230 -267h-120l-180 228v-88h-60v88h-56v-228h-94v510z" />
    <glyph glyph-name="uni04A0" unicode="&#x4a0;" horiz-adv-x="746" 
d="M-5 700h278v-308l298 308h133l-328 -331l354 -369h-146l-311 343v-343h-100v612h-178v88z" />
    <glyph glyph-name="uni04A1" unicode="&#x4a1;" horiz-adv-x="616" 
d="M-5 510h240v-224l205 224h128l-237 -243l266 -267h-133l-229 245v-245h-94v434h-146v76z" />
    <glyph glyph-name="uni04A2" unicode="&#x4a2;" horiz-adv-x="728" 
d="M94 0v700h100v-293h334v293h100v-612h80v-244h-98v156h-82v319h-334v-319h-100z" />
    <glyph glyph-name="uni04A3" unicode="&#x4a3;" horiz-adv-x="612" 
d="M174 510v-207h260v207h94v-434h72v-220h-90v144h-76v227h-260v-227h-94v510h94z" />
    <glyph glyph-name="uni04A4" unicode="&#x4a4;" horiz-adv-x="900" 
d="M94 700h100v-293h324v293h372v-88h-272v-612h-100v319h-324v-319h-100v700z" />
    <glyph glyph-name="uni04A5" unicode="&#x4a5;" horiz-adv-x="774" 
d="M174 510v-207h260v207h335v-80h-241v-430h-94v227h-260v-227h-94v510h94z" />
    <glyph glyph-name="uni04AA" unicode="&#x4aa;" horiz-adv-x="625" 
d="M579 680l-8 -97c-44 26 -94 39 -144 39c-62 0 -124 -19 -171 -56c-56 -44 -97 -119 -97 -216c0 -85 31 -146 66 -186c48 -56 117 -86 212 -86c30 0 60 5 94 16c15 5 29 10 43 17l6 -96c-28 -10 -60 -19 -95 -23v-148h-98v148c-99 4 -185 46 -238 101
c-53 54 -96 144 -96 258c0 74 18 197 130 283c73 56 161 76 244 76c76 0 120 -15 152 -30z" />
    <glyph glyph-name="uni04AB" unicode="&#x4ab;" horiz-adv-x="444" 
d="M412 498l-8 -78c-32 14 -72 22 -102 22c-36 0 -76 -14 -105 -39c-36 -32 -59 -89 -59 -148c0 -44 12 -94 39 -128c27 -33 74 -59 131 -59c23 0 47 4 72 14c10 4 20 9 29 15l7 -84c-22 -11 -44 -17 -65 -18v-139h-90v139c-74 10 -125 46 -155 79c-38 41 -68 104 -68 185
c0 67 22 145 88 200c46 38 107 59 172 59c20 0 64 -2 114 -20z" />
    <glyph glyph-name="uni04AE" unicode="&#x4ae;" horiz-adv-x="667" 
d="M284 0v293l-273 407h117l208 -314l203 314h117l-272 -407v-293h-100z" />
    <glyph glyph-name="uni04AF" unicode="&#x4af;" horiz-adv-x="492" 
d="M110 510l140 -407h2l137 407h95l-191 -510v-224h-94v224l-192 510h103z" />
    <glyph glyph-name="uni04B0" unicode="&#x4b0;" horiz-adv-x="667" 
d="M284 0v229h-180v64h180l-273 407h117l208 -314l203 314h117l-272 -407h180v-64h-180v-229h-100z" />
    <glyph glyph-name="uni04B1" unicode="&#x4b1;" horiz-adv-x="492" 
d="M110 510l140 -407h2l137 407h95l-191 -510h140v-54h-140v-170h-94v170h-140v54h140l-192 510h103z" />
    <glyph glyph-name="uni04B2" unicode="&#x4b2;" horiz-adv-x="698" 
d="M8 0l257 364l-234 336h120l186 -269l185 269h114l-235 -334l197 -278h80v-244h-98v156h-46l-207 297l-199 -297h-120z" />
    <glyph glyph-name="uni04B3" unicode="&#x4b3;" horiz-adv-x="528" 
d="M10 0l184 267l-166 243h117l111 -182l113 182h105l-164 -243l128 -191h78v-220h-90v144h-52l-126 200l-126 -200h-112z" />
    <glyph glyph-name="uni04B6" unicode="&#x4b6;" horiz-adv-x="659" 
d="M50 700h100v-210c0 -30 -1 -72 35 -103c15 -13 33 -20 52 -24c20 -5 41 -6 62 -6c26 0 52 1 78 5c28 4 55 10 82 18v320h100v-612h80v-244h-98v156h-82v293c-76 -20 -139 -24 -178 -24c-122 0 -174 38 -197 67c-32 40 -34 92 -34 120v244z" />
    <glyph glyph-name="uni04B7" unicode="&#x4b7;" horiz-adv-x="540" 
d="M45 510h94v-150c0 -14 0 -26 3 -39c4 -15 12 -31 25 -41s30 -14 47 -16c12 -2 25 -2 37 -2c17 0 35 1 52 3c20 2 39 5 59 10v235h94v-434h72v-220h-90v144h-76v201c-20 -4 -40 -7 -60 -10c-24 -3 -49 -5 -73 -5c-43 0 -97 6 -136 38c-44 36 -48 82 -48 108v178z" />
    <glyph glyph-name="uni04B8" unicode="&#x4b8;" horiz-adv-x="653" 
d="M50 700h100v-210c0 -30 -1 -73 35 -103c15 -13 33 -20 52 -24c13 -3 26 -5 39 -5v122h70v-122c36 3 74 9 113 22v320h100v-700h-100v293c-21 -6 -43 -10 -65 -14c-16 -3 -32 -5 -48 -6v-123h-70v123c-64 -2 -148 14 -190 63c-35 40 -36 92 -36 120v244z" />
    <glyph glyph-name="uni04B9" unicode="&#x4b9;" horiz-adv-x="536" 
d="M362 0v201c-26 -7 -53 -11 -80 -13v-88h-60v88c-20 -1 -40 2 -59 6c-25 5 -50 14 -70 30s-35 38 -42 62c-4 15 -6 30 -6 46v178h94v-150c0 -14 0 -26 3 -39c4 -15 12 -31 25 -41c9 -7 19 -11 30 -14c8 -2 16 -3 25 -3v97h60v-97c26 1 53 5 80 12v235h94v-510h-94z" />
    <glyph glyph-name="uni04BA" unicode="&#x4ba;" horiz-adv-x="671" 
d="M94 0v700h100v-296c31 17 54 26 82 35c39 13 63 19 109 19c39 0 100 -4 146 -41c53 -42 60 -98 60 -143v-274h-100v246c0 40 -1 73 -32 101c-22 20 -56 31 -95 31c-37 0 -65 -9 -93 -19c-25 -9 -47 -18 -77 -36v-323h-100z" />
    <glyph glyph-name="uni04BB" unicode="&#x4bb;" horiz-adv-x="604" 
d="M80 0v762h94v-325h2c15 22 37 43 67 59c29 15 59 22 97 22c41 0 102 -7 144 -56c41 -48 47 -112 47 -159v-303h-94v264c0 87 -16 124 -32 144c-14 17 -41 34 -83 34s-77 -19 -100 -44c-45 -50 -48 -126 -48 -162v-236h-94z" />
    <glyph glyph-name="uni04C3" unicode="&#x4c3;" horiz-adv-x="660" 
d="M94 0v700h100v-308l297 308h133l-305 -309c58 2 151 -12 208 -51c83 -56 97 -146 97 -227c0 -48 -6 -161 -91 -240c-65 -60 -151 -74 -213 -73v88c11 0 54 2 89 16c23 9 45 25 61 44c31 37 48 95 48 165c0 48 -7 106 -52 146c-44 39 -106 44 -153 44h-119v-303h-100z" />
    <glyph glyph-name="uni04C4" unicode="&#x4c4;" horiz-adv-x="550" 
d="M80 0v510h94v-224l205 224h128l-210 -213c23 0 45 -4 66 -10c27 -8 54 -20 76 -38s40 -41 51 -67c16 -36 20 -77 20 -117c0 -32 -3 -64 -12 -94c-11 -36 -32 -71 -61 -96c-23 -21 -51 -36 -81 -44c-21 -6 -42 -9 -64 -10c-9 -1 -17 -1 -26 -1v76c18 0 43 3 65 12
c17 7 32 19 44 33c31 38 35 91 35 124c0 37 -5 87 -36 119c-32 33 -83 37 -113 37h-87v-221h-94z" />
    <glyph glyph-name="uni04C7" unicode="&#x4c7;" horiz-adv-x="722" 
d="M94 0v700h100v-293h334v293h100v-690c0 -57 -5 -120 -55 -165c-33 -29 -83 -45 -144 -45c-40 0 -65 7 -78 12v86c31 -9 52 -10 66 -10c18 0 37 3 54 10c12 5 23 12 31 22c11 13 18 29 22 45c3 15 4 29 4 45v309h-334v-319h-100z" />
    <glyph glyph-name="uni04C8" unicode="&#x4c8;" horiz-adv-x="608" 
d="M174 510v-207h260v207h94v-520c0 -36 -2 -101 -34 -142c-33 -43 -81 -48 -124 -48c-16 0 -29 1 -44 4l3 81c4 -1 10 -1 15 -2s11 -1 16 -1c13 0 26 2 37 8c8 5 14 11 19 19c6 9 9 19 12 29c4 17 6 34 6 52v237h-260v-227h-94v510h94z" />
    <glyph glyph-name="uni04D0" unicode="&#x4d0;" horiz-adv-x="722" 
d="M12 0l298 700h105l295 -700h-109l-71 177h-342l-71 -177h-105zM498 259l-139 347l-139 -347h278zM461 893l67 -8c-3 -47 -26 -82 -52 -101c-25 -18 -70 -30 -108 -30s-83 12 -108 30c-26 19 -49 54 -52 101l67 8c6 -28 23 -43 25 -45c20 -18 48 -20 68 -20s48 2 68 20
c2 2 19 17 25 45z" />
    <glyph glyph-name="uni04D1" unicode="&#x4d1;" 
d="M109 392l-6 82c65 39 141 44 176 44c64 0 117 -17 150 -50c45 -45 48 -103 48 -158v-207c0 -23 0 -78 4 -103h-88v69h-2c-42 -57 -109 -77 -167 -77c-46 0 -92 14 -122 36s-56 59 -56 116c0 35 12 98 80 136c24 14 77 34 193 34c18 0 47 -1 64 -2v28c0 20 -1 50 -30 75
s-69 27 -93 27c-36 0 -91 -7 -151 -50zM383 199v44c-18 1 -36 2 -54 2c-74 0 -118 -9 -146 -28c-30 -20 -37 -47 -37 -68c0 -30 14 -49 27 -59c19 -15 46 -22 73 -22c38 0 78 14 103 40c17 18 34 48 34 91zM368 758l65 -8c-2 -48 -25 -84 -50 -103c-26 -20 -68 -31 -105 -31
s-79 11 -105 31c-25 19 -48 55 -50 103l65 8c4 -26 18 -41 24 -46c20 -18 45 -20 66 -20s46 2 66 20c6 5 20 20 24 46z" />
    <glyph glyph-name="uni04D2" unicode="&#x4d2;" horiz-adv-x="722" 
d="M12 0l298 700h105l295 -700h-109l-71 177h-342l-71 -177h-105zM498 259l-139 347l-139 -347h278zM199 852h106v-100h-106v100zM415 852h106v-100h-106v100z" />
    <glyph glyph-name="uni04D3" unicode="&#x4d3;" 
d="M109 392l-6 82c65 39 141 44 176 44c64 0 117 -17 150 -50c45 -45 48 -103 48 -158v-207c0 -23 0 -78 4 -103h-88v69h-2c-42 -57 -109 -77 -167 -77c-46 0 -92 14 -122 36s-56 59 -56 116c0 35 12 98 80 136c24 14 77 34 193 34c18 0 47 -1 64 -2v28c0 20 -1 50 -30 75
s-69 27 -93 27c-36 0 -91 -7 -151 -50zM383 199v44c-18 1 -36 2 -54 2c-74 0 -118 -9 -146 -28c-30 -20 -37 -47 -37 -68c0 -30 14 -49 27 -59c19 -15 46 -22 73 -22c38 0 78 14 103 40c17 18 34 48 34 91zM149 620v100h94v-100h-94zM313 620v100h94v-100h-94z" />
    <glyph glyph-name="uni04D4" unicode="&#x4d4;" horiz-adv-x="944" 
d="M2 0l422 700h439v-88h-277l13 -206h246v-88h-241l14 -230h255v-88h-347l-11 176h-297l-105 -176h-111zM510 258l-22 370h-2l-220 -370h244z" />
    <glyph glyph-name="uni04D5" unicode="&#x4d5;" horiz-adv-x="889" 
d="M107 392l-5 78c44 27 103 48 169 48c68 0 141 -25 176 -88c36 63 105 88 177 88c173 0 224 -137 224 -284h-361c0 -92 70 -167 167 -167c50 0 105 24 141 52v-93c-44 -20 -96 -34 -146 -34c-87 0 -187 28 -220 117h-2c-21 -79 -107 -117 -189 -117
c-95 0 -197 58 -197 161c0 139 158 161 246 161c54 0 87 -6 106 -5c0 98 -64 134 -144 134c-49 0 -103 -23 -142 -51zM141 150c0 -56 50 -83 100 -83c90 0 152 82 152 175c-15 0 -45 3 -90 3c-53 0 -162 -11 -162 -95zM487 303h261c0 66 -48 140 -125 140
c-82 0 -136 -62 -136 -140z" />
    <glyph glyph-name="uni04D6" unicode="&#x4d6;" 
d="M94 0v700h391v-88h-291v-205h265v-88h-265v-231h291v-88h-391zM378 893l67 -8c-3 -47 -26 -82 -52 -101c-25 -18 -70 -30 -108 -30s-83 12 -108 30c-26 19 -49 54 -52 101l67 8c6 -28 23 -43 25 -45c20 -18 48 -20 68 -20s48 2 68 20c2 2 19 17 25 45z" />
    <glyph glyph-name="uni04D7" unicode="&#x4d7;" 
d="M510 234h-364c1 -45 18 -86 43 -113c27 -30 71 -53 128 -53c54 0 116 24 154 51v-94l-14 -5c-28 -10 -63 -28 -147 -28c-62 0 -140 11 -198 73c-31 33 -66 94 -66 192c0 108 42 170 79 203c31 28 82 58 160 58c89 0 140 -36 169 -72c38 -47 56 -120 56 -185v-27zM146 304
h264c1 36 -11 69 -29 92c-16 20 -47 46 -101 46c-48 0 -81 -23 -102 -51c-18 -25 -29 -57 -32 -87zM368 758l65 -8c-2 -48 -25 -84 -50 -103c-26 -20 -68 -31 -105 -31s-79 11 -105 31c-25 19 -48 55 -50 103l65 8c4 -26 18 -41 24 -46c20 -18 45 -20 66 -20s46 2 66 20
c6 5 20 20 24 46z" />
    <glyph glyph-name="uni04D8" unicode="&#x4d8;" horiz-adv-x="666" 
d="M53 375h454c0 11 0 103 -54 170c-35 43 -92 77 -164 77c-70 0 -138 -32 -188 -70v113l17 7c41 17 85 38 179 38c77 0 167 -15 237 -100c66 -80 79 -185 79 -263c0 -86 -15 -197 -94 -278c-47 -48 -110 -79 -191 -79s-153 26 -206 99c-44 60 -69 149 -69 253v33zM507 287
h-344c0 -48 14 -103 40 -141c21 -31 62 -68 131 -68c44 0 94 17 132 76c24 37 38 88 41 133z" />
    <glyph glyph-name="afii10846" unicode="&#x4d9;" 
d="M46 276h364c-1 45 -18 86 -43 113c-27 30 -71 53 -128 53c-54 0 -116 -24 -154 -51v94l14 5c28 10 63 28 147 28c62 0 140 -11 198 -73c31 -33 66 -94 66 -192c0 -108 -42 -170 -79 -203c-31 -28 -82 -58 -160 -58c-89 0 -140 36 -169 72c-38 47 -56 120 -56 185v27z
M410 206h-264c-1 -36 11 -69 29 -92c16 -20 47 -46 101 -46c48 0 81 23 102 51c18 25 29 57 32 87z" />
    <glyph glyph-name="uni04DA" unicode="&#x4da;" horiz-adv-x="666" 
d="M53 375h454c0 11 0 103 -54 170c-35 43 -92 77 -164 77c-70 0 -138 -32 -188 -70v113l17 7c41 17 85 38 179 38c77 0 167 -15 237 -100c66 -80 79 -185 79 -263c0 -86 -15 -197 -94 -278c-47 -48 -110 -79 -191 -79s-153 26 -206 99c-44 60 -69 149 -69 253v33zM507 287
h-344c0 -48 14 -103 40 -141c21 -31 62 -68 131 -68c44 0 94 17 132 76c24 37 38 88 41 133zM171 852h106v-100h-106v100zM387 852h106v-100h-106v100z" />
    <glyph glyph-name="uni04DB" unicode="&#x4db;" 
d="M46 276h364c-1 45 -18 86 -43 113c-27 30 -71 53 -128 53c-54 0 -116 -24 -154 -51v94l14 5c28 10 63 28 147 28c62 0 140 -11 198 -73c31 -33 66 -94 66 -192c0 -108 -42 -170 -79 -203c-31 -28 -82 -58 -160 -58c-89 0 -140 36 -169 72c-38 47 -56 120 -56 185v27z
M410 206h-264c-1 -36 11 -69 29 -92c16 -20 47 -46 101 -46c48 0 81 23 102 51c18 25 29 57 32 87zM149 620v100h94v-100h-94zM313 620v100h94v-100h-94z" />
    <glyph glyph-name="uni04DC" unicode="&#x4dc;" horiz-adv-x="932" 
d="M515 700v-308h7l251 308h118l-273 -331l298 -369h-130l-264 343h-7v-343h-100v343h-7l-264 -343h-130l298 369l-273 331h118l251 -308h7v308h100zM304 852h106v-100h-106v100zM520 852h106v-100h-106v100z" />
    <glyph glyph-name="uni04DD" unicode="&#x4dd;" horiz-adv-x="756" 
d="M425 510v-224h7l168 224h114l-193 -243l222 -267h-120l-191 245h-7v-245h-94v245h-7l-191 -245h-120l222 267l-193 243h114l168 -224h7v224h94zM249 620v100h94v-100h-94zM413 620v100h94v-100h-94z" />
    <glyph glyph-name="uni04DE" unicode="&#x4de;" horiz-adv-x="573" 
d="M185 401h45c40 0 89 8 117 29c25 18 41 49 41 87c0 40 -20 64 -35 76c-30 25 -70 29 -101 29c-48 0 -109 -10 -171 -38l-10 92c61 22 123 34 190 34c48 0 112 -3 166 -46c34 -27 67 -72 67 -143c0 -39 -12 -78 -36 -105c-22 -24 -61 -41 -89 -48v-4c45 -6 84 -28 107 -53
c25 -27 41 -68 41 -116c0 -78 -42 -127 -80 -155c-59 -44 -131 -50 -188 -50c-76 0 -137 15 -199 44l11 91c82 -42 155 -47 186 -47c35 0 79 3 116 29c32 22 48 52 48 91c0 41 -16 70 -39 88c-37 30 -90 33 -124 33h-63v82zM124 852h106v-100h-106v100zM340 852h106v-100
h-106v100z" />
    <glyph glyph-name="uni04DF" unicode="&#x4df;" horiz-adv-x="482" 
d="M150 230v70h66c49 0 73 19 76 21c11 9 23 25 23 51c0 25 -11 41 -30 52c-28 17 -67 18 -81 18s-72 -1 -138 -31l-2 78c46 16 101 29 155 29c52 0 110 -10 145 -34c32 -22 53 -59 53 -105c0 -28 -10 -54 -25 -72c-17 -19 -44 -34 -69 -39v-2c28 -4 60 -16 80 -36
s33 -47 33 -84c0 -40 -15 -90 -76 -124c-42 -23 -95 -30 -139 -30c-56 0 -119 11 -181 38l10 77c49 -22 113 -39 164 -39c29 0 67 6 91 25c19 15 27 34 27 56c0 39 -20 58 -37 67c-20 11 -59 14 -84 14h-61zM112 620v100h94v-100h-94zM276 620v100h94v-100h-94z" />
    <glyph glyph-name="uni04E2" unicode="&#x4e2;" horiz-adv-x="745" 
d="M94 0v700h100v-477l-3 -87h5c24 48 38 70 63 110l280 454h112v-700h-100v477l3 87h-5c-26 -55 -42 -76 -63 -110l-280 -454h-112zM212 840h320v-70h-320v70z" />
    <glyph glyph-name="uni04E3" unicode="&#x4e3;" horiz-adv-x="622" 
d="M174 510v-385l274 385h94v-510h-94v385l-274 -385h-94v510h94zM163 652v70h296v-70h-296z" />
    <glyph glyph-name="uni04E4" unicode="&#x4e4;" horiz-adv-x="745" 
d="M94 0v700h100v-477l-3 -87h5c24 48 38 70 63 110l280 454h112v-700h-100v477l3 87h-5c-26 -55 -42 -76 -63 -110l-280 -454h-112zM210 852h106v-100h-106v100zM426 852h106v-100h-106v100z" />
    <glyph glyph-name="uni04E5" unicode="&#x4e5;" horiz-adv-x="622" 
d="M174 510v-385l274 385h94v-510h-94v385l-274 -385h-94v510h94zM182 620v100h94v-100h-94zM346 620v100h94v-100h-94z" />
    <glyph glyph-name="uni04E6" unicode="&#x4e6;" horiz-adv-x="778" 
d="M389 710c112 0 193 -40 250 -106c52 -59 86 -147 86 -254c0 -109 -36 -198 -86 -255c-44 -51 -122 -105 -250 -105s-206 54 -250 105c-50 57 -86 146 -86 255c0 107 34 195 86 254c57 66 138 106 250 106zM389 622c-82 0 -139 -39 -171 -80c-36 -46 -59 -120 -59 -192
c0 -59 16 -137 59 -192c34 -44 87 -80 171 -80s137 36 171 80c43 55 59 133 59 192c0 72 -23 146 -59 192c-32 41 -89 80 -171 80zM227 852h106v-100h-106v100zM443 852h106v-100h-106v100z" />
    <glyph glyph-name="uni04E7" unicode="&#x4e7;" horiz-adv-x="610" 
d="M305 518c97 0 159 -42 193 -80c45 -50 66 -118 66 -183s-21 -133 -66 -183c-34 -38 -96 -80 -193 -80s-159 42 -193 80c-45 50 -66 118 -66 183s21 133 66 183c34 38 96 80 193 80zM305 442c-50 0 -93 -26 -120 -60c-27 -35 -39 -82 -39 -127c0 -52 15 -96 39 -127
c41 -55 97 -60 120 -60s79 5 120 60c24 31 39 75 39 127s-15 96 -39 127c-31 41 -76 60 -120 60zM176 620v100h94v-100h-94zM340 620v100h94v-100h-94z" />
    <glyph glyph-name="uni04E8" unicode="&#x4e8;" horiz-adv-x="778" 
d="M389 710c112 0 193 -40 250 -106c52 -59 86 -147 86 -254c0 -109 -36 -198 -86 -255c-44 -51 -122 -105 -250 -105s-206 54 -250 105c-50 57 -86 146 -86 255c0 107 34 195 86 254c57 66 138 106 250 106zM164 407h450c-6 45 -25 98 -54 135c-32 41 -89 80 -171 80
s-139 -39 -171 -80c-29 -37 -48 -90 -54 -135zM618 319h-458c5 -57 26 -119 58 -161c34 -44 87 -80 171 -80s137 36 171 80c32 42 53 104 58 161z" />
    <glyph glyph-name="uni04E9" unicode="&#x4e9;" horiz-adv-x="610" 
d="M305 518c97 0 159 -42 193 -80c45 -50 66 -118 66 -183s-21 -133 -66 -183c-34 -38 -96 -80 -193 -80s-159 42 -193 80c-45 50 -66 118 -66 183s21 133 66 183c34 38 96 80 193 80zM150 300h310c-4 23 -14 55 -35 82c-31 41 -76 60 -120 60c-50 0 -94 -26 -120 -60
c-21 -27 -31 -59 -35 -82zM463 230h-316c3 -36 17 -74 38 -102c31 -41 76 -60 120 -60s89 19 120 60c21 28 35 66 38 102z" />
    <glyph glyph-name="uni04EA" unicode="&#x4ea;" horiz-adv-x="778" 
d="M389 710c112 0 193 -40 250 -106c52 -59 86 -147 86 -254c0 -109 -36 -198 -86 -255c-44 -51 -122 -105 -250 -105s-206 54 -250 105c-50 57 -86 146 -86 255c0 107 34 195 86 254c57 66 138 106 250 106zM164 407h450c-6 45 -25 98 -54 135c-32 41 -89 80 -171 80
s-139 -39 -171 -80c-29 -37 -48 -90 -54 -135zM618 319h-458c5 -57 26 -119 58 -161c34 -44 87 -80 171 -80s137 36 171 80c32 42 53 104 58 161zM227 852h106v-100h-106v100zM443 852h106v-100h-106v100z" />
    <glyph glyph-name="uni04EB" unicode="&#x4eb;" horiz-adv-x="610" 
d="M305 518c97 0 159 -42 193 -80c45 -50 66 -118 66 -183s-21 -133 -66 -183c-34 -38 -96 -80 -193 -80s-159 42 -193 80c-45 50 -66 118 -66 183s21 133 66 183c34 38 96 80 193 80zM150 300h310c-4 23 -14 55 -35 82c-31 41 -76 60 -120 60c-50 0 -94 -26 -120 -60
c-21 -27 -31 -59 -35 -82zM463 230h-316c3 -36 17 -74 38 -102c31 -41 76 -60 120 -60s89 19 120 60c21 28 35 66 38 102zM176 620v100h94v-100h-94zM340 620v100h94v-100h-94z" />
    <glyph glyph-name="uni04EE" unicode="&#x4ee;" horiz-adv-x="581" 
d="M15 700h113l182 -394h7l171 394h97l-266 -599c-15 -34 -36 -65 -60 -83c-18 -14 -47 -28 -88 -28c-28 0 -61 7 -83 14l11 87c17 -7 41 -13 60 -13c25 0 40 9 47 14c10 7 27 29 32 42l23 57zM134 840h320v-70h-320v70z" />
    <glyph glyph-name="uni04EF" unicode="&#x4ef;" horiz-adv-x="492" 
d="M36 -217l6 77c24 -7 38 -8 45 -8c25 0 46 9 64 27c23 23 36 62 41 79l6 22l-12 38l-179 492h103l140 -419h2l137 419h95l-191 -529c-24 -66 -43 -114 -67 -144c-39 -50 -88 -61 -131 -61c-28 0 -41 3 -54 6zM98 652v70h296v-70h-296z" />
    <glyph glyph-name="uni04F0" unicode="&#x4f0;" horiz-adv-x="581" 
d="M15 700h113l182 -394h7l171 394h97l-266 -599c-15 -34 -36 -65 -60 -83c-18 -14 -47 -28 -88 -28c-28 0 -61 7 -83 14l11 87c17 -7 41 -13 60 -13c25 0 40 9 47 14c10 7 27 29 32 42l23 57zM128 852h106v-100h-106v100zM344 852h106v-100h-106v100z" />
    <glyph glyph-name="uni04F1" unicode="&#x4f1;" horiz-adv-x="492" 
d="M36 -217l6 77c24 -7 38 -8 45 -8c25 0 46 9 64 27c23 23 36 62 41 79l6 22l-12 38l-179 492h103l140 -419h2l137 419h95l-191 -529c-24 -66 -43 -114 -67 -144c-39 -50 -88 -61 -131 -61c-28 0 -41 3 -54 6zM117 620v100h94v-100h-94zM281 620v100h94v-100h-94z" />
    <glyph glyph-name="uni04F2" unicode="&#x4f2;" horiz-adv-x="581" 
d="M15 700h113l182 -394h7l171 394h97l-266 -599c-15 -34 -36 -65 -60 -83c-18 -14 -47 -28 -88 -28c-28 0 -61 7 -83 14l11 87c17 -7 41 -13 60 -13c25 0 40 9 47 14c10 7 27 29 32 42l23 57zM276 870h120l-130 -120h-76zM434 870h120l-130 -120h-76z" />
    <glyph glyph-name="uni04F3" unicode="&#x4f3;" horiz-adv-x="492" 
d="M36 -217l6 77c24 -7 38 -8 45 -8c25 0 46 9 64 27c23 23 36 62 41 79l6 22l-12 38l-179 492h103l140 -419h2l137 419h95l-191 -529c-24 -66 -43 -114 -67 -144c-39 -50 -88 -61 -131 -61c-28 0 -41 3 -54 6zM123 610l88 130h110l-128 -130h-70zM304 610l88 130h110
l-128 -130h-70z" />
    <glyph glyph-name="uni04F4" unicode="&#x4f4;" horiz-adv-x="653" 
d="M459 0v293c-76 -20 -139 -24 -178 -24c-122 0 -174 38 -197 67c-32 40 -34 92 -34 120v244h100v-210c0 -30 -1 -72 35 -103c31 -27 82 -30 114 -30c51 0 104 6 160 23v320h100v-700h-100zM144 852h106v-100h-106v100zM360 852h106v-100h-106v100z" />
    <glyph glyph-name="uni04F5" unicode="&#x4f5;" horiz-adv-x="536" 
d="M362 0v201c-13 -3 -71 -15 -133 -15c-43 0 -97 6 -136 38c-44 36 -48 82 -48 108v178h94v-150c0 -24 1 -59 28 -80c13 -10 35 -18 84 -18c51 0 93 9 111 13v235h94v-510h-94zM120 620v100h94v-100h-94zM284 620v100h94v-100h-94z" />
    <glyph glyph-name="uni04F8" unicode="&#x4f8;" horiz-adv-x="831" 
d="M94 0v700h100v-282h54c61 0 151 2 213 -44c45 -33 79 -93 79 -167c0 -76 -32 -125 -61 -151c-56 -50 -134 -56 -205 -56h-180zM194 330v-242h69c39 0 99 0 135 30c14 12 36 39 36 90c0 46 -19 73 -35 88c-39 36 -98 34 -134 34h-71zM637 0v700h100v-700h-100zM253 852
h106v-100h-106v100zM469 852h106v-100h-106v100z" />
    <glyph glyph-name="uni04F9" unicode="&#x4f9;" horiz-adv-x="742" 
d="M80 510h94v-195h105c39 0 104 -3 152 -39c28 -21 57 -59 57 -121c0 -48 -20 -88 -48 -113c-43 -38 -101 -42 -142 -42h-218v510zM174 239v-163h122c24 0 57 2 79 26c16 17 19 39 19 55c0 19 -4 42 -24 59c-25 22 -67 23 -89 23h-107zM568 0v510h94v-510h-94zM242 620v100
h94v-100h-94zM406 620v100h94v-100h-94z" />
    <glyph glyph-name="uni1E9E" unicode="&#x1e9e;" horiz-adv-x="674" 
d="M94 0v481c0 57 7 122 65 173c59 51 147 56 178 56c64 0 156 -12 237 -85l-149 -203c46 -2 96 -18 128 -43c53 -40 65 -94 65 -151c0 -62 -12 -120 -71 -173c-37 -33 -96 -65 -184 -65c-38 0 -69 7 -97 16l9 88c36 -14 67 -16 84 -16c48 0 88 16 113 41
c20 19 40 53 40 104c0 37 -9 75 -51 101c-18 11 -53 26 -131 26h-30v49l138 192c-19 15 -36 22 -62 27c-13 2 -25 4 -38 4c-44 0 -87 -12 -111 -36c-29 -29 -33 -69 -33 -104v-482h-100z" />
    <glyph glyph-name="uni2010" unicode="&#x2010;" horiz-adv-x="420" 
d="M80 334h260v-100h-260v100z" />
    <glyph glyph-name="uni2011" unicode="&#x2011;" horiz-adv-x="420" 
d="M80 334h260v-100h-260v100z" />
    <glyph glyph-name="figuredash" unicode="&#x2012;" horiz-adv-x="650" 
d="M70 320v70h510v-70h-510z" />
    <glyph glyph-name="endash" unicode="&#x2013;" horiz-adv-x="650" 
d="M70 234v70h510v-70h-510z" />
    <glyph glyph-name="emdash" unicode="&#x2014;" horiz-adv-x="920" 
d="M70 234v70h780v-70h-780z" />
    <glyph glyph-name="afii00208" unicode="&#x2015;" horiz-adv-x="920" 
d="M70 234v70h780v-70h-780z" />
    <glyph glyph-name="quoteleft" unicode="&#x2018;" horiz-adv-x="278" 
d="M226 700l-62 -246h-112l86 246h88z" />
    <glyph glyph-name="quoteright" unicode="&#x2019;" horiz-adv-x="278" 
d="M52 454l62 246h112l-88 -246h-86z" />
    <glyph glyph-name="quotesinglbase" unicode="&#x201a;" horiz-adv-x="278" 
d="M52 -133l63 245h111l-85 -245h-89z" />
    <glyph glyph-name="quotedblleft" unicode="&#x201c;" 
d="M270 700l-62 -246h-112l86 246h88zM460 700l-64 -246h-110l84 246h90z" />
    <glyph glyph-name="quotedblright" unicode="&#x201d;" 
d="M96 454l63 246h111l-85 -246h-89zM286 454l63 246h111l-85 -246h-89z" />
    <glyph glyph-name="quotedblbase" unicode="&#x201e;" 
d="M96 -133l63 245h111l-85 -245h-89zM286 -133l63 245h111l-85 -245h-89z" />
    <glyph glyph-name="dagger" unicode="&#x2020;" 
d="M234 0v453h-167v70h167v175h88v-175h167v-70h-167v-453h-88z" />
    <glyph glyph-name="daggerdbl" unicode="&#x2021;" 
d="M489 162h-167v-162h-88v162h-167v70h167v234h-167v70h167v162h88v-162h167v-70h-167v-234h167v-70z" />
    <glyph glyph-name="bullet" unicode="&#x2022;" horiz-adv-x="500" 
d="M76 349c0 97 77 174 174 174c98 0 175 -77 175 -174c0 -98 -77 -175 -175 -175c-97 0 -174 77 -174 175z" />
    <glyph glyph-name="ellipsis" unicode="&#x2026;" horiz-adv-x="1000" 
d="M111 0v112h112v-112h-112zM444 0v112h112v-112h-112zM777 0v112h112v-112h-112z" />
    <glyph glyph-name="perthousand" unicode="&#x2030;" horiz-adv-x="1000" 
d="M153 310c-115 0 -150 99 -150 200c0 107 28 200 150 200c121 0 150 -94 150 -200c0 -101 -35 -200 -150 -200zM153 380c60 0 62 89 62 130c0 45 4 130 -62 130c-62 0 -62 -88 -62 -130c0 -41 2 -130 62 -130zM78 -22l433 742h72l-433 -742h-72zM509 -12
c-115 0 -150 99 -150 200c0 107 28 200 150 200c121 0 150 -94 150 -200c0 -101 -35 -200 -150 -200zM509 58c60 0 62 89 62 130c0 45 4 130 -62 130c-62 0 -62 -88 -62 -130c0 -41 2 -130 62 -130zM847 -12c-115 0 -150 99 -150 200c0 107 28 200 150 200
c121 0 150 -94 150 -200c0 -101 -35 -200 -150 -200zM847 58c60 0 62 89 62 130c0 45 4 130 -62 130c-62 0 -62 -88 -62 -130c0 -41 2 -130 62 -130z" />
    <glyph glyph-name="guilsinglleft" unicode="&#x2039;" horiz-adv-x="354" 
d="M194 67l-143 202l143 202h88l-130 -202l130 -202h-88z" />
    <glyph glyph-name="guilsinglright" unicode="&#x203a;" horiz-adv-x="354" 
d="M160 471l143 -202l-143 -202h-88l130 202l-130 202h88z" />
    <glyph glyph-name="fraction" unicode="&#x2044;" horiz-adv-x="167" 
d="M-169 -22l433 742h72l-433 -742h-72z" />
    <glyph glyph-name="Euro" unicode="&#x20ac;" 
d="M-14 395l14 58h53c24 102 85 158 112 180c57 46 144 77 234 77c75 0 122 -17 157 -36l-20 -89c-49 31 -104 37 -137 37c-60 0 -116 -19 -160 -56c-50 -42 -70 -94 -76 -113h343l-14 -58h-342c-2 -15 -3 -30 -3 -45c0 -11 1 -22 2 -33h325l-14 -58h-300
c4 -17 15 -53 50 -95c55 -66 119 -86 199 -86c22 0 71 4 130 33l6 -96c-34 -13 -76 -25 -146 -25c-92 0 -191 20 -267 103c-46 51 -71 115 -82 166h-64l14 58h42c-1 11 -1 23 -1 34c0 15 1 29 3 44h-58z" />
    <glyph glyph-name="uni20B4" unicode="&#x20b4;" 
d="M108 685c64 20 124 25 169 25c175 0 204 -86 204 -149c0 -22 -6 -44 -15 -63c-8 -17 -18 -31 -32 -45h82v-58h-143l-93 -78h236v-58h-293c-33 -31 -42 -69 -42 -97c0 -59 62 -84 117 -84c51 0 117 15 165 33l10 -92c-70 -23 -131 -29 -173 -29c-160 0 -225 77 -225 161
c0 52 22 86 42 108h-77v58h120l93 78h-213v58h278c51 39 57 73 57 91c0 15 -3 30 -11 42c-22 33 -69 36 -101 36c-18 0 -37 -1 -55 -4c-11 -2 -46 -8 -86 -25z" />
    <glyph glyph-name="uni20B6" unicode="&#x20b6;" 
d="M202 612v-244h88c38 0 82 12 106 35c16 15 34 42 34 86c0 37 -11 71 -45 95c-29 20 -71 28 -109 28h-74zM102 0v162h-80v68h80v70h-80v68h80v332h172c51 0 131 -5 188 -49c22 -17 41 -40 52 -66s16 -54 16 -82c0 -61 -25 -116 -62 -149c-60 -53 -161 -54 -179 -54h-87
v-70h140v-68h-140v-162h-100z" />
    <glyph glyph-name="uni20B7" unicode="&#x20b7;" 
d="M202 612v-244h88c38 0 82 12 106 35c16 15 34 42 34 86c0 37 -11 71 -45 95c-29 20 -71 28 -109 28h-74zM102 0v162h-80v68h80v70h-80v68h80v332h172c51 0 131 -5 188 -49c22 -17 41 -40 52 -66s16 -54 16 -82c0 -61 -25 -116 -62 -149c-60 -53 -161 -54 -179 -54h-87
v-70h140v-68h-140v-162h-100z" />
    <glyph glyph-name="uni20B8" unicode="&#x20b8;" 
d="M40 562h476v-68h-188v-494h-100v494h-188v68zM40 700h476v-68h-476v68z" />
    <glyph glyph-name="uni20B9" unicode="&#x20b9;" 
d="M202 612v-244h88c38 0 82 12 106 35c16 15 34 42 34 86c0 37 -11 71 -45 95c-29 20 -71 28 -109 28h-74zM102 0v162h-80v68h80v70h-80v68h80v332h172c51 0 131 -5 188 -49c22 -17 41 -40 52 -66s16 -54 16 -82c0 -61 -25 -116 -62 -149c-60 -53 -161 -54 -179 -54h-87
v-70h140v-68h-140v-162h-100z" />
    <glyph glyph-name="uni20BA" unicode="&#x20ba;" 
d="M202 612v-244h88c38 0 82 12 106 35c16 15 34 42 34 86c0 37 -11 71 -45 95c-29 20 -71 28 -109 28h-74zM102 0v162h-80v68h80v70h-80v68h80v332h172c51 0 131 -5 188 -49c22 -17 41 -40 52 -66s16 -54 16 -82c0 -61 -25 -116 -62 -149c-60 -53 -161 -54 -179 -54h-87
v-70h140v-68h-140v-162h-100z" />
    <glyph glyph-name="uni20BB" unicode="&#x20bb;" 
d="M202 612v-244h88c38 0 82 12 106 35c16 15 34 42 34 86c0 37 -11 71 -45 95c-29 20 -71 28 -109 28h-74zM102 0v162h-80v68h80v70h-80v68h80v332h172c51 0 131 -5 188 -49c22 -17 41 -40 52 -66s16 -54 16 -82c0 -61 -25 -116 -62 -149c-60 -53 -161 -54 -179 -54h-87
v-70h140v-68h-140v-162h-100z" />
    <glyph glyph-name="uni20BC" unicode="&#x20bc;" 
d="M202 612v-244h88c38 0 82 12 106 35c16 15 34 42 34 86c0 37 -11 71 -45 95c-29 20 -71 28 -109 28h-74zM102 0v162h-80v68h80v70h-80v68h80v332h172c51 0 131 -5 188 -49c22 -17 41 -40 52 -66s16 -54 16 -82c0 -61 -25 -116 -62 -149c-60 -53 -161 -54 -179 -54h-87
v-70h140v-68h-140v-162h-100z" />
    <glyph glyph-name="uni20BD" unicode="&#x20bd;" 
d="M202 612v-244h88c38 0 82 12 106 35c16 15 34 42 34 86c0 37 -11 71 -45 95c-29 20 -71 28 -109 28h-74zM102 0v162h-80v68h80v70h-80v68h80v332h172c51 0 131 -5 188 -49c22 -17 41 -40 52 -66s16 -54 16 -82c0 -61 -25 -116 -62 -149c-60 -53 -161 -54 -179 -54h-87
v-70h140v-68h-140v-162h-100z" />
    <glyph glyph-name="uni20BE" unicode="&#x20be;" 
d="M202 612v-244h88c38 0 82 12 106 35c16 15 34 42 34 86c0 37 -11 71 -45 95c-29 20 -71 28 -109 28h-74zM102 0v162h-80v68h80v70h-80v68h80v332h172c51 0 131 -5 188 -49c22 -17 41 -40 52 -66s16 -54 16 -82c0 -61 -25 -116 -62 -149c-60 -53 -161 -54 -179 -54h-87
v-70h140v-68h-140v-162h-100z" />
    <glyph glyph-name="uni20BF" unicode="&#x20bf;" 
d="M202 612v-244h88c38 0 82 12 106 35c16 15 34 42 34 86c0 37 -11 71 -45 95c-29 20 -71 28 -109 28h-74zM102 0v162h-80v68h80v70h-80v68h80v332h172c51 0 131 -5 188 -49c22 -17 41 -40 52 -66s16 -54 16 -82c0 -61 -25 -116 -62 -149c-60 -53 -161 -54 -179 -54h-87
v-70h140v-68h-140v-162h-100z" />
    <glyph glyph-name="uni20C0" unicode="&#x20c0;" 
d="M202 612v-244h88c38 0 82 12 106 35c16 15 34 42 34 86c0 37 -11 71 -45 95c-29 20 -71 28 -109 28h-74zM102 0v162h-80v68h80v70h-80v68h80v332h172c51 0 131 -5 188 -49c22 -17 41 -40 52 -66s16 -54 16 -82c0 -61 -25 -116 -62 -149c-60 -53 -161 -54 -179 -54h-87
v-70h140v-68h-140v-162h-100z" />
    <glyph glyph-name="uni20C1" unicode="&#x20c1;" 
d="M202 612v-244h88c38 0 82 12 106 35c16 15 34 42 34 86c0 37 -11 71 -45 95c-29 20 -71 28 -109 28h-74zM102 0v162h-80v68h80v70h-80v68h80v332h172c51 0 131 -5 188 -49c22 -17 41 -40 52 -66s16 -54 16 -82c0 -61 -25 -116 -62 -149c-60 -53 -161 -54 -179 -54h-87
v-70h140v-68h-140v-162h-100z" />
    <glyph glyph-name="uni20C2" unicode="&#x20c2;" 
d="M202 612v-244h88c38 0 82 12 106 35c16 15 34 42 34 86c0 37 -11 71 -45 95c-29 20 -71 28 -109 28h-74zM102 0v162h-80v68h80v70h-80v68h80v332h172c51 0 131 -5 188 -49c22 -17 41 -40 52 -66s16 -54 16 -82c0 -61 -25 -116 -62 -149c-60 -53 -161 -54 -179 -54h-87
v-70h140v-68h-140v-162h-100z" />
    <glyph glyph-name="uni20C3" unicode="&#x20c3;" 
d="M202 612v-244h88c38 0 82 12 106 35c16 15 34 42 34 86c0 37 -11 71 -45 95c-29 20 -71 28 -109 28h-74zM102 0v162h-80v68h80v70h-80v68h80v332h172c51 0 131 -5 188 -49c22 -17 41 -40 52 -66s16 -54 16 -82c0 -61 -25 -116 -62 -149c-60 -53 -161 -54 -179 -54h-87
v-70h140v-68h-140v-162h-100z" />
    <glyph glyph-name="uni20C4" unicode="&#x20c4;" 
d="M202 612v-244h88c38 0 82 12 106 35c16 15 34 42 34 86c0 37 -11 71 -45 95c-29 20 -71 28 -109 28h-74zM102 0v162h-80v68h80v70h-80v68h80v332h172c51 0 131 -5 188 -49c22 -17 41 -40 52 -66s16 -54 16 -82c0 -61 -25 -116 -62 -149c-60 -53 -161 -54 -179 -54h-87
v-70h140v-68h-140v-162h-100z" />
    <glyph glyph-name="uni20C5" unicode="&#x20c5;" 
d="M202 612v-244h88c38 0 82 12 106 35c16 15 34 42 34 86c0 37 -11 71 -45 95c-29 20 -71 28 -109 28h-74zM102 0v162h-80v68h80v70h-80v68h80v332h172c51 0 131 -5 188 -49c22 -17 41 -40 52 -66s16 -54 16 -82c0 -61 -25 -116 -62 -149c-60 -53 -161 -54 -179 -54h-87
v-70h140v-68h-140v-162h-100z" />
    <glyph glyph-name="uni20C6" unicode="&#x20c6;" 
d="M202 612v-244h88c38 0 82 12 106 35c16 15 34 42 34 86c0 37 -11 71 -45 95c-29 20 -71 28 -109 28h-74zM102 0v162h-80v68h80v70h-80v68h80v332h172c51 0 131 -5 188 -49c22 -17 41 -40 52 -66s16 -54 16 -82c0 -61 -25 -116 -62 -149c-60 -53 -161 -54 -179 -54h-87
v-70h140v-68h-140v-162h-100z" />
    <glyph glyph-name="uni20C7" unicode="&#x20c7;" 
d="M202 612v-244h88c38 0 82 12 106 35c16 15 34 42 34 86c0 37 -11 71 -45 95c-29 20 -71 28 -109 28h-74zM102 0v162h-80v68h80v70h-80v68h80v332h172c51 0 131 -5 188 -49c22 -17 41 -40 52 -66s16 -54 16 -82c0 -61 -25 -116 -62 -149c-60 -53 -161 -54 -179 -54h-87
v-70h140v-68h-140v-162h-100z" />
    <glyph glyph-name="uni20C8" unicode="&#x20c8;" 
d="M202 612v-244h88c38 0 82 12 106 35c16 15 34 42 34 86c0 37 -11 71 -45 95c-29 20 -71 28 -109 28h-74zM102 0v162h-80v68h80v70h-80v68h80v332h172c51 0 131 -5 188 -49c22 -17 41 -40 52 -66s16 -54 16 -82c0 -61 -25 -116 -62 -149c-60 -53 -161 -54 -179 -54h-87
v-70h140v-68h-140v-162h-100z" />
    <glyph glyph-name="uni20C9" unicode="&#x20c9;" 
d="M202 612v-244h88c38 0 82 12 106 35c16 15 34 42 34 86c0 37 -11 71 -45 95c-29 20 -71 28 -109 28h-74zM102 0v162h-80v68h80v70h-80v68h80v332h172c51 0 131 -5 188 -49c22 -17 41 -40 52 -66s16 -54 16 -82c0 -61 -25 -116 -62 -149c-60 -53 -161 -54 -179 -54h-87
v-70h140v-68h-140v-162h-100z" />
    <glyph glyph-name="uni20CA" unicode="&#x20ca;" 
d="M202 612v-244h88c38 0 82 12 106 35c16 15 34 42 34 86c0 37 -11 71 -45 95c-29 20 -71 28 -109 28h-74zM102 0v162h-80v68h80v70h-80v68h80v332h172c51 0 131 -5 188 -49c22 -17 41 -40 52 -66s16 -54 16 -82c0 -61 -25 -116 -62 -149c-60 -53 -161 -54 -179 -54h-87
v-70h140v-68h-140v-162h-100z" />
    <glyph glyph-name="uni20CB" unicode="&#x20cb;" 
d="M202 612v-244h88c38 0 82 12 106 35c16 15 34 42 34 86c0 37 -11 71 -45 95c-29 20 -71 28 -109 28h-74zM102 0v162h-80v68h80v70h-80v68h80v332h172c51 0 131 -5 188 -49c22 -17 41 -40 52 -66s16 -54 16 -82c0 -61 -25 -116 -62 -149c-60 -53 -161 -54 -179 -54h-87
v-70h140v-68h-140v-162h-100z" />
    <glyph glyph-name="uni20CC" unicode="&#x20cc;" 
d="M202 612v-244h88c38 0 82 12 106 35c16 15 34 42 34 86c0 37 -11 71 -45 95c-29 20 -71 28 -109 28h-74zM102 0v162h-80v68h80v70h-80v68h80v332h172c51 0 131 -5 188 -49c22 -17 41 -40 52 -66s16 -54 16 -82c0 -61 -25 -116 -62 -149c-60 -53 -161 -54 -179 -54h-87
v-70h140v-68h-140v-162h-100z" />
    <glyph glyph-name="uni20CD" unicode="&#x20cd;" 
d="M202 612v-244h88c38 0 82 12 106 35c16 15 34 42 34 86c0 37 -11 71 -45 95c-29 20 -71 28 -109 28h-74zM102 0v162h-80v68h80v70h-80v68h80v332h172c51 0 131 -5 188 -49c22 -17 41 -40 52 -66s16 -54 16 -82c0 -61 -25 -116 -62 -149c-60 -53 -161 -54 -179 -54h-87
v-70h140v-68h-140v-162h-100z" />
    <glyph glyph-name="uni20CE" unicode="&#x20ce;" 
d="M202 612v-244h88c38 0 82 12 106 35c16 15 34 42 34 86c0 37 -11 71 -45 95c-29 20 -71 28 -109 28h-74zM102 0v162h-80v68h80v70h-80v68h80v332h172c51 0 131 -5 188 -49c22 -17 41 -40 52 -66s16 -54 16 -82c0 -61 -25 -116 -62 -149c-60 -53 -161 -54 -179 -54h-87
v-70h140v-68h-140v-162h-100z" />
    <glyph glyph-name="uni20CF" unicode="&#x20cf;" 
d="M202 612v-244h88c38 0 82 12 106 35c16 15 34 42 34 86c0 37 -11 71 -45 95c-29 20 -71 28 -109 28h-74zM102 0v162h-80v68h80v70h-80v68h80v332h172c51 0 131 -5 188 -49c22 -17 41 -40 52 -66s16 -54 16 -82c0 -61 -25 -116 -62 -149c-60 -53 -161 -54 -179 -54h-87
v-70h140v-68h-140v-162h-100z" />
    <glyph glyph-name="afii61352" unicode="&#x2116;" horiz-adv-x="1000" 
d="M88 0v700h129l292 -564h2v564h95v-700h-121l-300 576h-2v-576h-95zM673 457c0 49 14 86 34 111s52 45 101 45s81 -19 102 -45c28 -33 34 -73 34 -111c0 -39 -6 -77 -34 -111c-26 -32 -60 -46 -102 -46c-43 0 -75 14 -101 46c-27 34 -34 72 -34 111zM745 457
c0 -24 0 -54 13 -79s32 -32 50 -32c24 0 42 14 51 32c11 21 13 60 13 79c0 21 -1 55 -13 78s-29 32 -51 32s-39 -10 -50 -32c-13 -24 -13 -51 -13 -78zM683 135v60h255v-60h-255z" />
    <glyph glyph-name="uni2117" unicode="&#x2117;" horiz-adv-x="879" 
d="M80 350c0 199 161 360 360 360s359 -161 359 -360c0 -195 -161 -360 -359 -360c-199 0 -360 164 -360 360zM145 350c0 -163 133 -294 295 -294c163 0 294 131 294 294s-132 295 -294 295c-161 0 -295 -132 -295 -295zM340 548h141c21 0 58 -3 88 -26
c17 -13 40 -39 40 -87c0 -40 -15 -73 -37 -93c-23 -20 -59 -30 -91 -30h-69v-160h-72v396zM412 489v-118h46c16 0 39 2 56 15c9 7 20 20 20 43c0 22 -9 38 -20 47c-16 13 -34 13 -50 13h-52z" />
    <glyph glyph-name="trademark" unicode="&#x2122;" horiz-adv-x="990" 
d="M182 283v347h-128v70h332v-70h-128v-347h-76zM484 283v417h118l109 -282l107 282h118v-417h-76v319h-2l-117 -319h-62l-117 319h-2v-319h-76z" />
    <glyph glyph-name="Omega" unicode="&#x2126;" horiz-adv-x="761" 
d="M424 0v164c56 8 97 38 121 66c29 34 51 86 51 164c0 60 -13 116 -56 163c-40 44 -93 65 -159 65c-69 0 -116 -23 -147 -51c-59 -52 -68 -121 -68 -177c0 -42 4 -110 50 -164c24 -28 65 -58 122 -66v-164h-272l-12 147l79 5l6 -72h116v44c-54 13 -95 41 -125 75
c-25 28 -70 91 -70 199c0 88 25 171 99 237c69 62 140 75 222 75c86 0 156 -16 222 -75c55 -49 99 -125 99 -237c0 -82 -29 -151 -71 -199c-41 -47 -86 -66 -125 -75v-44h117l5 72l80 -5l-13 -147h-271z" />
    <glyph glyph-name="partialdiff" unicode="&#x2202;" horiz-adv-x="611" 
d="M146 255c0 -43 12 -92 35 -125c25 -37 70 -66 127 -66c55 0 95 28 119 61c24 34 38 86 38 130c0 54 -18 103 -45 136c-33 40 -76 55 -114 55c-30 0 -73 -9 -109 -49c-23 -25 -51 -71 -51 -142zM113 709l72 53c49 -19 122 -53 184 -102c65 -52 108 -113 138 -169
c40 -75 58 -149 58 -228c0 -77 -23 -141 -66 -191c-59 -68 -133 -84 -193 -84c-103 0 -163 48 -199 92c-28 35 -61 90 -61 175c0 64 17 138 78 197c54 52 120 70 178 70c60 0 94 -23 108 -33c-25 44 -62 88 -149 145c-51 33 -85 49 -148 75z" />
    <glyph glyph-name="Delta" unicode="&#x2206;" horiz-adv-x="712" 
d="M12 0l293 700h105l290 -700h-688zM559 82l-205 524l-204 -524h409z" />
    <glyph glyph-name="product" unicode="&#x220f;" horiz-adv-x="724" 
d="M46 -210v88h54v734h-54v88h632v-88h-57v-734h57v-88h-211v88h54v734h-321v-734h54v-88h-208z" />
    <glyph glyph-name="summation" unicode="&#x2211;" horiz-adv-x="573" 
d="M45 -210v90l253 388l-253 342v90h465v-88h-350l254 -343l-253 -391h367v-88h-483z" />
    <glyph glyph-name="minus" unicode="&#x2212;" horiz-adv-x="600" 
d="M47 209v88h506v-88h-506z" />
    <glyph glyph-name="uni2215" unicode="&#x2215;" horiz-adv-x="450" 
d="M-35 -22l433 742h72l-433 -742h-72z" />
    <glyph glyph-name="uni2219" unicode="&#x2219;" horiz-adv-x="278" 
d="M83 247v112h112v-112h-112z" />
    <glyph glyph-name="radical" unicode="&#x221a;" horiz-adv-x="645" 
d="M20 500h158l124 -435l115 764h170v-60h-101l-141 -869h-95l-158 533h-72v67z" />
    <glyph glyph-name="infinity" unicode="&#x221e;" horiz-adv-x="700" 
d="M352 317c-12 -18 -32 -43 -55 -64c-29 -26 -66 -50 -120 -50c-45 0 -83 18 -108 42c-27 27 -44 66 -44 113c0 54 20 93 52 119c31 25 66 34 97 34c57 0 96 -26 122 -50c15 -14 34 -34 52 -64c13 22 33 49 56 68c29 25 73 46 120 46c44 0 88 -16 118 -54
c20 -25 33 -61 33 -101c0 -42 -14 -78 -36 -103c-27 -31 -70 -50 -116 -50c-54 0 -95 25 -124 54c-18 17 -34 39 -47 60zM380 357c35 -48 69 -100 133 -100c23 0 50 8 70 31c19 21 24 44 24 69c0 36 -10 57 -29 74c-22 20 -47 26 -66 26c-62 0 -96 -50 -132 -100zM320 357
c-11 15 -30 39 -43 54c-21 23 -46 46 -90 46c-26 0 -47 -10 -63 -24c-23 -21 -31 -48 -31 -79c0 -34 12 -55 24 -68c16 -17 43 -29 71 -29c39 0 67 20 89 44c17 18 36 46 43 56z" />
    <glyph glyph-name="integral" unicode="&#x222b;" 
d="M523 702l-14 -80l-8 2c-6 1 -21 4 -37 4s-35 -1 -52 -14c-21 -17 -34 -52 -42 -96l-104 -542c-14 -71 -28 -117 -52 -147c-36 -44 -87 -51 -127 -51c-29 0 -45 3 -54 5l16 81c12 -3 24 -4 30 -4c17 0 43 2 61 28c12 18 22 56 26 78l105 557c8 45 24 106 60 143
c31 33 73 44 119 44c14 0 42 -3 55 -5z" />
    <glyph glyph-name="approxequal" unicode="&#x2248;" horiz-adv-x="600" 
d="M495 266l36 -70c-20 -42 -58 -85 -125 -85c-27 0 -53 6 -111 31l-25 11c-31 14 -54 26 -77 26c-42 0 -73 -46 -88 -73l-36 70c20 42 58 85 125 85c27 0 53 -6 111 -31l25 -11c31 -14 54 -26 77 -26c42 0 73 46 88 73zM495 454l36 -70c-20 -42 -58 -85 -125 -85
c-27 0 -53 6 -111 31l-25 11c-31 14 -54 26 -77 26c-42 0 -73 -46 -88 -73l-36 70c20 42 58 85 125 85c27 0 53 -6 111 -31l25 -11c31 -14 54 -26 77 -26c42 0 73 46 88 73z" />
    <glyph glyph-name="notequal" unicode="&#x2260;" horiz-adv-x="600" 
d="M47 314v88h304l60 104h72l-60 -104h130v-88h-182l-70 -122h252v-88h-304l-60 -104h-72l60 104h-130v88h182l70 122h-252z" />
    <glyph glyph-name="lessequal" unicode="&#x2264;" horiz-adv-x="600" 
d="M554 507v-88l-344 -121l344 -121v-88l-508 179v61zM46 0v88h508v-88h-508z" />
    <glyph glyph-name="greaterequal" unicode="&#x2265;" horiz-adv-x="600" 
d="M46 507l508 -178v-61l-508 -179v88l344 121l-344 121v88zM554 0h-508v88h508v-88z" />
    <glyph glyph-name="dotmath" unicode="&#x22c5;" horiz-adv-x="278" 
d="M83 247v112h112v-112h-112z" />
    <glyph glyph-name="lozenge" unicode="&#x25ca;" horiz-adv-x="702" 
d="M90 350l261 360l261 -360l-261 -360zM508 350l-157 215l-157 -215l157 -217z" />
    <glyph glyph-name="uniF400" unicode="&#xf400;" horiz-adv-x="1" 
d="M-337 610l78 130h120l-118 -130h-80z" />
    <glyph glyph-name="uniF401" unicode="&#xf401;" horiz-adv-x="1" 
d="M-329 870h130l-114 -120h-96z" />
    <glyph glyph-name="uniF406" unicode="&#xf406;" horiz-adv-x="536" 
d="M100 870h70c8 -23 29 -56 98 -56s90 33 98 56h70c-23 -87 -93 -126 -168 -126s-145 39 -168 126z" />
    <glyph glyph-name="uniF407" unicode="&#xf407;" horiz-adv-x="295" 
d="M103 9h60l-6 -42c31 0 52 -15 62 -25c17 -17 26 -42 26 -70c0 -26 -14 -54 -33 -71c-22 -20 -56 -27 -85 -27c-20 0 -49 7 -77 27l27 48c16 -13 33 -18 47 -18c17 0 28 6 36 13c8 8 12 17 12 28c0 13 -4 27 -12 34c-10 10 -27 12 -39 12c-10 0 -21 0 -31 -2z" />
    <glyph glyph-name="uniF408" unicode="&#xf408;" horiz-adv-x="518" 
d="M204 870h110l104 -120h-90l-69 70l-69 -70h-90z" />
    <glyph glyph-name="uniF409" unicode="&#xf409;" horiz-adv-x="254" 
d="M52 -248l40 198h110l-70 -198h-80z" />
    <glyph glyph-name="uniF40A" unicode="&#xf40a;" horiz-adv-x="180" 
d="M-8 500l40 200h110l-74 -200h-76z" />
    <glyph glyph-name="uniF40B" unicode="&#xf40b;" horiz-adv-x="212" 
d="M162 854v-102h-112v102h112z" />
    <glyph glyph-name="uniF40C" unicode="&#xf40c;" horiz-adv-x="402" 
d="M100 827c0 55 46 101 101 101s101 -46 101 -101s-46 -101 -101 -101s-101 46 -101 101zM146 827c0 -32 23 -55 55 -55s55 23 55 55s-23 55 -55 55s-55 -23 -55 -55z" />
    <glyph glyph-name="uniF40D" unicode="&#xf40d;" horiz-adv-x="540" 
d="M146 748h-46c2 26 11 53 24 73c22 33 52 39 72 39c18 0 37 -6 53 -13l29 -12c25 -10 46 -21 70 -21c17 0 28 5 36 18c4 7 8 18 10 28h46c-3 -20 -10 -49 -19 -66c-17 -32 -47 -46 -76 -46c-19 0 -39 7 -54 13l-29 12c-25 10 -46 21 -70 21c-15 0 -26 -5 -34 -15
c-6 -8 -10 -21 -12 -31z" />
    <glyph glyph-name="uniF40E" unicode="&#xf40e;" horiz-adv-x="270" 
d="M156 0h69c-38 -28 -55 -43 -73 -71c-11 -17 -19 -34 -19 -60c0 -19 3 -31 16 -42c10 -9 21 -13 35 -13c21 0 45 5 68 20l18 -43c-33 -23 -66 -32 -104 -32c-28 0 -58 3 -83 24c-27 21 -33 47 -33 76c0 33 8 52 27 77c23 29 50 50 79 64z" />
    <glyph glyph-name="uniF43E" unicode="&#xf43e;" 
d="M228 0v612h-217v88h534v-88h-217v-612h-23l-5 -33c31 0 52 -15 62 -25c17 -17 26 -42 26 -70c0 -26 -14 -54 -33 -71c-22 -20 -56 -27 -85 -27c-20 0 -49 7 -77 27l27 48c16 -13 33 -18 47 -18c17 0 28 6 36 13c8 8 12 17 12 28c0 13 -4 27 -12 34c-10 10 -27 12 -39 12
c-10 0 -21 0 -31 -2l12 84h-17z" />
    <glyph glyph-name="uniF43F" unicode="&#xf43f;" horiz-adv-x="375" 
d="M118 628l94 30v-148h141v-76h-141v-275c0 -19 3 -45 22 -66c11 -12 30 -25 61 -25c20 0 41 6 60 18v-80c-30 -10 -60 -15 -97 -14l-3 -23c25 -1 46 -11 59 -24c14 -14 24 -36 24 -67c0 -25 -13 -51 -31 -68c-10 -9 -35 -25 -81 -25c-30 0 -53 11 -73 25l25 46
c13 -10 29 -17 45 -17c14 0 26 4 34 12c5 5 12 14 12 27s-4 25 -12 32c-10 10 -25 12 -37 12c-10 0 -19 0 -29 -2l11 84c-56 18 -84 67 -84 136v294h-111v76h111v118z" />
    <glyph glyph-name="uniF47E" unicode="&#xf47e;" horiz-adv-x="722" 
d="M632 700v-410c0 -115 -35 -184 -73 -225c-22 -24 -82 -75 -198 -75s-176 51 -198 75c-38 41 -73 110 -73 225v410h100v-397c0 -51 4 -116 37 -163c38 -54 90 -62 134 -62s96 8 134 62c33 47 37 112 37 163v397h100zM416 854v-102h-112v102h112z" />
    <glyph glyph-name="uniF47F" unicode="&#xf47f;" horiz-adv-x="604" 
d="M524 510v-510h-94v73h-2c-15 -22 -37 -43 -67 -59c-29 -15 -59 -22 -97 -22c-41 0 -102 7 -144 56c-41 48 -47 112 -47 159v303h94v-264c0 -47 2 -108 32 -144c10 -12 36 -34 83 -34c42 0 77 19 100 44c45 50 48 126 48 162v236h94zM355 720v-106h-106v106h106z" />
    <glyph glyph-name="uniF4C6" unicode="&#xf4c6;" horiz-adv-x="653" 
d="M50 700h100v-210c0 -30 -1 -72 35 -103c31 -27 82 -30 114 -30c51 0 104 6 160 23v320h100v-690c0 -57 -5 -120 -55 -165c-33 -29 -83 -45 -144 -45c-22 0 -43 3 -61 7c-6 1 -11 3 -17 5v86c31 -9 52 -10 66 -10c18 0 37 3 54 10c12 5 23 12 31 22c11 13 18 29 22 45
c3 15 4 29 4 45v283c-76 -20 -139 -24 -178 -24c-122 0 -174 38 -197 67c-32 40 -34 92 -34 120v244z" />
    <glyph glyph-name="uniF4C7" unicode="&#xf4c7;" horiz-adv-x="536" 
d="M45 510h94v-150c0 -24 1 -59 28 -80c13 -10 35 -18 84 -18c51 0 93 9 111 13v235h94v-520c0 -36 -2 -101 -34 -142c-33 -43 -81 -48 -124 -48c-11 0 -21 0 -32 2c-4 1 -8 1 -12 2l3 81c13 -2 22 -3 31 -3c27 0 44 8 56 27c17 27 18 68 18 81v211c-20 -4 -40 -7 -60 -10
c-24 -3 -49 -5 -73 -5c-43 0 -97 6 -136 38c-44 36 -48 82 -48 108v178z" />
    <glyph glyph-name="uniF4C8" unicode="&#xf4c8;" horiz-adv-x="625" 
d="M579 680l-8 -97c-44 26 -94 39 -144 39c-62 0 -124 -19 -171 -56c-56 -44 -97 -119 -97 -216c0 -85 31 -146 66 -186c48 -56 117 -86 212 -86c34 0 82 7 137 33l6 -96c-60 -22 -111 -25 -143 -25l-3 -23c31 0 52 -15 62 -25c17 -17 26 -42 26 -70c0 -26 -14 -54 -33 -71
c-22 -20 -56 -27 -85 -27c-20 0 -49 7 -77 27l27 48c16 -13 33 -18 47 -18c17 0 28 6 36 13c8 8 12 17 12 28c0 13 -4 27 -12 34c-10 10 -27 12 -39 12c-10 0 -21 0 -31 -2l11 77c-95 6 -177 47 -229 100c-52 54 -96 144 -96 258c0 73 18 196 130 282c72 55 162 77 244 77
c76 0 120 -15 152 -30z" />
    <glyph glyph-name="uniF4C9" unicode="&#xf4c9;" horiz-adv-x="444" 
d="M412 498l-8 -78c-32 14 -72 22 -102 22c-36 0 -76 -14 -105 -39c-36 -32 -59 -89 -59 -148c0 -44 12 -94 39 -128c27 -33 74 -59 131 -59c44 0 78 14 101 29l7 -84c-31 -14 -59 -19 -100 -21l-3 -23c25 -1 46 -11 59 -24c14 -14 24 -36 24 -67c0 -25 -13 -51 -31 -68
c-10 -9 -35 -25 -81 -25c-30 0 -53 11 -73 25l25 46c13 -10 29 -17 45 -17c14 0 26 4 34 12c5 5 12 14 12 27s-4 25 -12 32c-10 10 -25 12 -37 12c-10 0 -19 0 -29 -2l10 75c-72 10 -122 46 -153 79c-38 41 -68 104 -68 185c0 67 22 145 88 200c46 38 107 59 172 59
c20 0 64 -2 114 -20z" />
    <glyph glyph-name="uniF4CC" unicode="&#xf4cc;" horiz-adv-x="581" 
d="M15 700h113l182 -394h7l171 394h97l-266 -599c-15 -34 -36 -65 -60 -83c-18 -14 -47 -28 -88 -28c-28 0 -61 7 -83 14l11 87c17 -7 41 -13 60 -13c25 0 40 9 47 14c10 7 27 29 32 42l23 57zM320 870h130l-114 -120h-96z" />
    <glyph glyph-name="uniF4CD" unicode="&#xf4cd;" horiz-adv-x="492" 
d="M36 -217l6 77c24 -7 38 -8 45 -8c25 0 46 9 64 27c23 23 36 62 41 79l6 22l-12 38l-179 492h103l140 -419h2l137 419h95l-191 -529c-24 -66 -43 -114 -67 -144c-39 -50 -88 -61 -131 -61c-28 0 -41 3 -54 6zM193 610l78 130h120l-118 -130h-80z" />
    <glyph glyph-name="dollar.fitted" unicode="&#xf5f5;" horiz-adv-x="453" 
d="M196 435v180c-18 -3 -39 -12 -52 -25c-15 -15 -24 -40 -24 -67c0 -44 34 -67 76 -88zM254 290v-206c18 4 42 15 61 42c14 21 19 45 19 67c0 26 -10 45 -25 61c-10 11 -28 26 -55 36zM196 -106v94h-12c-80 0 -131 20 -152 29l12 96c53 -32 100 -37 138 -37h14v243l-35 17
c-25 12 -76 40 -105 71c-19 20 -42 55 -42 113c0 51 20 98 56 133c25 24 66 51 126 54v99h58v-96c77 -1 122 -17 143 -25l-14 -92c-19 11 -57 29 -119 29h-10v-217l58 -32c29 -16 66 -37 91 -68c22 -27 37 -65 37 -110c0 -67 -28 -113 -55 -142c-42 -44 -87 -58 -131 -61
v-98h-58z" />
    <glyph glyph-name="Euro.fitted" unicode="&#xf5f6;" horiz-adv-x="613" 
d="M14 395l14 58h53c24 102 85 158 112 180c57 46 144 77 234 77c75 0 122 -17 157 -36l-20 -89c-49 31 -104 37 -137 37c-60 0 -116 -19 -160 -56c-50 -42 -70 -94 -76 -113h343l-14 -58h-342c-2 -15 -3 -30 -3 -45c0 -11 1 -22 2 -33h325l-14 -58h-300
c4 -17 15 -53 50 -95c55 -66 119 -86 199 -86c22 0 71 4 130 33l6 -96c-34 -13 -76 -25 -146 -25c-92 0 -191 20 -267 103c-46 51 -71 115 -82 166h-64l14 58h42c-1 11 -1 23 -1 34c0 15 1 29 3 44h-58z" />
    <glyph glyph-name="cent.fitted" unicode="&#xf5f7;" horiz-adv-x="404" 
d="M384 502l-8 -78c-32 14 -72 22 -102 22c-36 0 -76 -13 -105 -40c-36 -33 -59 -90 -59 -151c0 -44 12 -96 39 -131s73 -60 131 -60c44 0 78 14 101 29l7 -84c-31 -13 -63 -20 -98 -21v-94h-58v97c-73 10 -123 46 -154 80c-38 42 -68 106 -68 188c0 68 22 147 88 203
c29 25 75 50 134 58v98h58v-97c30 -2 61 -7 94 -19z" />
    <glyph glyph-name="sterling.fitted" unicode="&#xf5f8;" horiz-adv-x="504" 
d="M21 0v88h91v260h-79v58h79v58c0 55 9 147 92 206c36 26 87 42 150 42c66 0 106 -14 118 -19l-8 -93c-40 17 -67 24 -100 24c-19 0 -58 -2 -89 -22c-59 -39 -63 -110 -63 -145v-51h161v-58h-161v-260h247v-88h-438z" />
    <glyph glyph-name="yen.fitted" unicode="&#xf5f9;" horiz-adv-x="578" 
d="M240 0v162h-141v58h141v72l-8 16h-133v58h101l-183 332h111l164 -313l158 313h111l-181 -332h101v-58h-133l-8 -16v-72h141v-58h-141v-162h-100z" />
    <glyph glyph-name="florin.fitted" unicode="&#xf5fa;" horiz-adv-x="504" 
d="M450 414l-14 -70h-126l-69 -368c-13 -71 -28 -120 -52 -149c-36 -44 -87 -51 -127 -51c-29 0 -45 3 -54 5l16 81c12 -3 24 -4 30 -4c17 0 43 2 61 28c12 18 22 58 26 80l71 378h-112l13 70h112l21 109c9 45 24 106 60 143c31 33 73 44 119 44c14 0 42 -3 55 -5l18 -3
l-14 -80l-8 2c-6 1 -21 4 -37 4s-35 -1 -52 -14c-25 -19 -35 -61 -42 -96l-21 -104h126z" />
    <glyph glyph-name="uni20B4.fitted" unicode="&#xf5fb;" 
d="M108 685c64 20 124 25 169 25c175 0 204 -86 204 -149c0 -22 -6 -44 -15 -63c-8 -17 -18 -31 -32 -45h82v-58h-143l-93 -78h236v-58h-293c-33 -31 -42 -69 -42 -97c0 -59 62 -84 117 -84c51 0 117 15 165 33l10 -92c-70 -23 -131 -29 -173 -29c-160 0 -225 77 -225 161
c0 52 22 86 42 108h-77v58h120l93 78h-213v58h278c51 39 57 73 57 91c0 15 -3 30 -11 42c-22 33 -69 36 -101 36c-18 0 -37 -1 -55 -4c-11 -2 -46 -8 -86 -25z" />
    <glyph glyph-name="uni20B6.fitted" unicode="&#xf5fc;" 
d="M202 612v-244h88c38 0 82 12 106 35c16 15 34 42 34 86c0 37 -11 71 -45 95c-29 20 -71 28 -109 28h-74zM102 0v162h-80v68h80v70h-80v68h80v332h172c51 0 131 -5 188 -49c22 -17 41 -40 52 -66s16 -54 16 -82c0 -61 -25 -116 -62 -149c-60 -53 -161 -54 -179 -54h-87
v-70h140v-68h-140v-162h-100z" />
    <glyph glyph-name="uni20B8.fitted" unicode="&#xf5fd;" horiz-adv-x="516" 
d="M20 562h476v-68h-188v-494h-100v494h-188v68zM20 700h476v-68h-476v68z" />
    <glyph glyph-name="currency.fitted" unicode="&#xf5fe;" horiz-adv-x="568" 
d="M30 146l56 57c-21 25 -50 70 -50 146c0 81 32 127 50 148l-56 54l51 52l55 -55c55 41 114 49 148 49c65 0 115 -23 150 -49l54 55l50 -52l-54 -54c15 -19 48 -65 48 -148c0 -43 -10 -98 -48 -146l54 -57l-50 -51l-54 57c-21 -18 -66 -51 -150 -51c-82 0 -127 33 -148 51
l-55 -57zM124 349c0 -92 72 -166 160 -166c92 0 160 77 160 166c0 88 -68 166 -160 166c-89 0 -160 -76 -160 -166z" />
    <glyph glyph-name="numbersign.fitted" unicode="&#xf5ff;" horiz-adv-x="539" 
d="M86 0l29 208h-95v76h106l18 130h-96v76h107l29 208h76l-29 -208h118l29 208h76l-29 -208h95v-76h-106l-18 -130h95v-76h-106l-29 -208h-76l29 208h-118l-29 -208h-76zM320 284l18 130h-118l-18 -130h118z" />
    <glyph glyph-name="uniF639" unicode="&#xf639;" horiz-adv-x="538" 
d="M269 710c56 0 137 -21 187 -115c34 -65 50 -158 50 -245c0 -85 -15 -182 -50 -246c-56 -105 -151 -114 -187 -114s-131 9 -187 114c-35 64 -50 161 -50 246c0 87 16 180 50 245c50 94 131 115 187 115zM269 628c-28 0 -67 -12 -95 -70c-25 -52 -36 -141 -36 -208
s11 -156 36 -208c28 -58 67 -70 95 -70s67 12 95 70c25 52 36 141 36 208s-11 156 -36 208c-28 58 -67 70 -95 70z" />
    <glyph glyph-name="uniF63A" unicode="&#xf63a;" horiz-adv-x="505" 
d="M36 0v107l131 118c56 50 86 84 126 135c28 36 69 88 69 152c0 41 -18 67 -33 82c-30 30 -67 34 -101 34c-70 0 -130 -29 -160 -45l-10 86c69 32 136 41 183 41c55 0 102 -9 145 -38c71 -48 82 -116 82 -159c0 -87 -48 -142 -82 -184c-35 -44 -42 -58 -118 -132
c-15 -15 -48 -48 -92 -86l-33 -29h335v-82h-442z" />
    <glyph glyph-name="uniF63B" unicode="&#xf63b;" horiz-adv-x="502" 
d="M129 323v82h56c45 0 98 11 128 31c29 19 45 45 45 83c0 39 -16 64 -36 80c-33 26 -78 29 -101 29c-60 0 -114 -18 -155 -38l-6 89c82 28 142 31 175 31c67 0 123 -17 160 -45c33 -25 69 -73 69 -140c0 -52 -20 -87 -42 -109c-24 -25 -63 -46 -108 -54v-2
c43 -8 87 -30 112 -55c24 -25 44 -63 44 -119c0 -55 -16 -105 -67 -144c-65 -49 -161 -52 -196 -52c-47 0 -106 6 -172 27l6 92c48 -23 102 -37 153 -37c37 0 94 9 126 33c21 15 44 43 44 88c0 55 -29 88 -56 104c-30 18 -75 26 -118 26h-61z" />
    <glyph glyph-name="uniF63C" unicode="&#xf63c;" horiz-adv-x="544" 
d="M333 241v377h-2l-222 -377h224zM333 0v159h-325v83l282 458h143v-459h88v-82h-88v-159h-100z" />
    <glyph glyph-name="uniF63D" unicode="&#xf63d;" horiz-adv-x="482" 
d="M437 700v-82h-290l-6 -186c35 7 51 10 75 10c68 0 123 -16 170 -58c31 -28 71 -78 71 -158c0 -71 -27 -128 -68 -166c-49 -45 -121 -70 -203 -70c-44 0 -101 8 -146 23l3 94c59 -31 108 -35 140 -35c39 0 89 8 128 45c27 26 40 57 40 94c0 57 -27 94 -52 114
c-32 25 -77 35 -123 35c-37 0 -83 -6 -129 -26l6 366h384z" />
    <glyph glyph-name="uniF63E" unicode="&#xf63e;" horiz-adv-x="521" 
d="M458 688l-14 -89c-38 19 -84 29 -124 29c-68 0 -110 -34 -133 -60c-40 -47 -63 -126 -62 -193h3c18 21 63 64 152 64c65 0 117 -24 150 -57c28 -28 60 -79 60 -161c0 -83 -31 -135 -61 -166c-30 -30 -82 -65 -163 -65c-69 0 -150 23 -197 118c-31 63 -38 155 -38 216
c0 107 17 190 59 262c32 55 90 124 233 124c46 0 97 -9 135 -22zM384 219c0 33 -12 68 -27 90c-28 41 -65 48 -90 48c-46 0 -75 -19 -91 -35c-21 -21 -39 -55 -39 -103c0 -37 12 -75 31 -100c17 -23 46 -47 92 -47c51 0 81 26 98 51c18 28 26 66 26 96z" />
    <glyph glyph-name="uniF63F" unicode="&#xf63f;" horiz-adv-x="474" 
d="M461 700v-82l-258 -618h-110l266 618h-340v82h442z" />
    <glyph glyph-name="uniF640" unicode="&#xf640;" horiz-adv-x="542" 
d="M179 368v2c-30 11 -71 33 -96 65c-22 27 -35 67 -35 109c0 41 20 96 83 133c39 23 89 33 137 33c65 0 119 -14 163 -48c34 -27 59 -62 59 -113c0 -45 -15 -84 -41 -113c-22 -25 -60 -49 -85 -62c35 -12 74 -35 99 -61c34 -36 48 -81 48 -123c0 -67 -25 -114 -65 -146
c-31 -25 -85 -54 -172 -54c-83 0 -138 27 -174 55c-47 37 -69 84 -69 140c0 55 25 103 60 134c25 22 63 40 88 49zM262 416l30 -13c68 47 92 83 92 130c0 33 -9 55 -38 74c-22 15 -49 21 -80 21c-36 0 -65 -12 -86 -29c-27 -22 -32 -49 -32 -69c0 -28 15 -49 34 -65
c17 -15 54 -38 80 -49zM253 331l-31 -20c-38 -24 -85 -52 -85 -120c0 -41 18 -68 40 -86c27 -22 68 -33 101 -33c36 0 69 11 91 31c15 14 36 41 36 88c0 76 -54 96 -116 124z" />
    <glyph glyph-name="uniF641" unicode="&#xf641;" horiz-adv-x="520" 
d="M62 12l14 88c46 -24 94 -28 119 -28c84 0 127 42 150 76c32 47 50 113 50 177h-3c-56 -60 -119 -65 -150 -65c-81 0 -131 34 -157 63c-30 33 -55 86 -55 154c0 67 21 130 68 175c49 46 107 58 156 58c54 0 140 -12 191 -108c17 -32 44 -99 44 -226
c0 -72 -9 -166 -46 -241c-56 -114 -153 -145 -241 -145c-40 0 -99 8 -140 22zM136 481c0 -33 7 -63 28 -92c15 -21 41 -47 92 -47c34 0 70 14 94 42c15 17 33 47 33 96c0 39 -12 77 -36 106c-23 27 -52 42 -87 42c-43 0 -71 -19 -88 -39c-23 -26 -36 -64 -36 -108z" />
    <glyph glyph-name="uniF643" unicode="&#xf643;" 
d="M278 518c56 0 137 -15 187 -84c34 -48 50 -116 50 -180c0 -62 -16 -133 -50 -180c-57 -77 -151 -84 -187 -84s-131 7 -187 84c-35 47 -50 118 -50 180c0 64 16 132 50 180c50 69 131 84 187 84zM278 436c-28 0 -67 -9 -95 -47c-25 -33 -36 -93 -36 -137
c0 -42 11 -101 36 -134c28 -38 67 -46 95 -46s67 8 95 46c25 33 36 92 36 134c0 44 -11 104 -36 137c-28 38 -67 47 -95 47z" />
    <glyph glyph-name="uniF644" unicode="&#xf644;" 
d="M269 0v395l-107 -93l-53 68l171 140h89v-510h-100z" />
    <glyph glyph-name="uniF645" unicode="&#xf645;" 
d="M50 0v100l166 99c111 67 160 101 160 165c0 59 -58 72 -114 72c-66 0 -123 -17 -180 -44l-10 85c69 32 138 41 207 41c176 0 203 -94 203 -141c0 -106 -72 -157 -222 -243l-90 -52h322v-82h-442z" />
    <glyph glyph-name="uniF646" unicode="&#xf646;" 
d="M135 131v82h56c45 0 98 11 128 31c29 19 45 45 45 83c0 39 -16 64 -36 80c-33 26 -78 29 -101 29c-60 0 -114 -18 -155 -38l-6 89c82 28 142 31 175 31c67 0 123 -17 160 -45c33 -25 69 -73 69 -140c0 -52 -20 -87 -42 -109c-24 -25 -63 -46 -108 -54v-2
c43 -8 87 -30 112 -55c24 -25 44 -63 44 -119c0 -55 -16 -105 -67 -144c-65 -49 -161 -52 -196 -52c-47 0 -106 6 -172 27l6 92c48 -23 102 -37 153 -37c37 0 94 9 126 33c21 15 44 43 44 88c0 55 -29 88 -56 104c-30 18 -75 26 -118 26h-61z" />
    <glyph glyph-name="uniF647" unicode="&#xf647;" 
d="M344 82v346h-2l-222 -346h224zM344 -190v190h-325v83l282 427h143v-428h88v-82h-88v-190h-100z" />
    <glyph glyph-name="uniF648" unicode="&#xf648;" 
d="M478 510v-82h-290l-6 -186c35 7 51 10 75 10c68 0 123 -16 170 -58c31 -28 71 -78 71 -158c0 -71 -27 -128 -68 -166c-49 -45 -121 -70 -203 -70c-44 0 -101 8 -146 23l3 94c59 -31 108 -35 140 -35c39 0 89 8 128 45c27 26 40 57 40 94c0 57 -27 94 -52 114
c-32 25 -77 35 -123 35c-37 0 -83 -6 -129 -26l6 366h384z" />
    <glyph glyph-name="uniF649" unicode="&#xf649;" 
d="M479 688l-14 -89c-38 19 -84 29 -124 29c-68 0 -110 -34 -133 -60c-40 -47 -63 -126 -62 -193h3c18 21 63 64 152 64c65 0 117 -24 150 -57c28 -28 60 -79 60 -161c0 -83 -31 -135 -61 -166c-30 -30 -82 -65 -163 -65c-69 0 -150 23 -197 118c-31 63 -38 155 -38 216
c0 107 17 190 59 262c32 55 90 124 233 124c46 0 97 -9 135 -22zM405 219c0 33 -12 68 -27 90c-28 41 -65 48 -90 48c-46 0 -75 -19 -91 -35c-21 -21 -39 -55 -39 -103c0 -37 12 -75 31 -100c17 -23 46 -47 92 -47c51 0 81 26 98 51c18 28 26 66 26 96z" />
    <glyph glyph-name="uniF64A" unicode="&#xf64a;" 
d="M491 510v-82l-258 -618h-110l266 618h-340v82h442z" />
    <glyph glyph-name="uniF64B" unicode="&#xf64b;" 
d="M186 368v2c-30 11 -71 33 -96 65c-22 27 -35 67 -35 109c0 41 20 96 83 133c39 23 89 33 137 33c65 0 119 -14 163 -48c34 -27 59 -62 59 -113c0 -45 -15 -84 -41 -113c-22 -25 -60 -49 -85 -62c35 -12 74 -35 99 -61c34 -36 48 -81 48 -123c0 -67 -25 -114 -65 -146
c-31 -25 -85 -54 -172 -54c-83 0 -138 27 -174 55c-47 37 -69 84 -69 140c0 55 25 103 60 134c25 22 63 40 88 49zM269 416l30 -13c68 47 92 83 92 130c0 33 -9 55 -38 74c-22 15 -49 21 -80 21c-36 0 -65 -12 -86 -29c-27 -22 -32 -49 -32 -69c0 -28 15 -49 34 -65
c17 -15 54 -38 80 -49zM260 331l-31 -20c-38 -24 -85 -52 -85 -120c0 -41 18 -68 40 -86c27 -22 68 -33 101 -33c36 0 69 11 91 31c15 14 36 41 36 88c0 76 -54 96 -116 124z" />
    <glyph glyph-name="uniF64C" unicode="&#xf64c;" 
d="M72 -180l14 88c46 -24 94 -28 119 -28c84 0 127 42 150 76c32 47 50 113 50 177h-3c-56 -60 -119 -65 -150 -65c-81 0 -131 34 -157 63c-30 33 -55 86 -55 154c0 67 21 130 68 175c49 46 107 58 156 58c54 0 140 -12 191 -108c17 -32 44 -99 44 -226
c0 -72 -9 -166 -46 -241c-56 -114 -153 -145 -241 -145c-40 0 -99 8 -140 22zM146 289c0 -33 7 -63 28 -92c15 -21 41 -47 92 -47c34 0 70 14 94 42c15 17 33 47 33 96c0 39 -12 77 -36 106c-23 27 -52 42 -87 42c-43 0 -71 -19 -88 -39c-23 -26 -36 -64 -36 -108z" />
    <glyph glyph-name="uniF6BA" unicode="&#xf6ba;" horiz-adv-x="420" 
d="M80 420h260v-100h-260v100z" />
    <glyph glyph-name="uniF6BB" unicode="&#xf6bb;" horiz-adv-x="650" 
d="M70 320v70h510v-70h-510z" />
    <glyph glyph-name="uniF6BC" unicode="&#xf6bc;" horiz-adv-x="920" 
d="M70 320v70h780v-70h-780z" />
    <glyph glyph-name="uniF6C3" unicode="&#xf6c3;" horiz-adv-x="244" 
d="M52 -220l40 170h100l-70 -170h-70z" />
    <glyph glyph-name="uniF6C9" unicode="&#xf6c9;" horiz-adv-x="410" 
d="M180 870h130l-114 -120h-96z" />
    <glyph glyph-name="uniF6CA" unicode="&#xf6ca;" horiz-adv-x="518" 
d="M314 750h-110l-104 120h90l69 -70l69 70h90z" />
    <glyph glyph-name="uniF6CB" unicode="&#xf6cb;" horiz-adv-x="522" 
d="M100 852h106v-100h-106v100zM316 852h106v-100h-106v100z" />
    </font>
</defs>
</svg>
