<?xml version="1.0" standalone="no"?>
<!DOCTYPE svg PUBLIC "-//W3C//DTD SVG 1.1//EN" "http://www.w3.org/Graphics/SVG/1.1/DTD/svg11.dtd" >
<svg>
<metadata>
Created by FontForge 20120731 at Thu Sep 19 23:40:59 2019
 By www
Copyright (c) 2014 by Vyacheslav Kirilenko, Gayane Bagdasaryan. All rights reserved.
</metadata>
<defs>
<font id="Gerbera-Black" horiz-adv-x="600" >
  <font-face 
    font-family="Gerbera Black"
    font-weight="900"
    font-stretch="normal"
    units-per-em="1000"
    panose-1="2 0 10 0 0 0 0 0 0 0"
    ascent="767"
    descent="-233"
    x-height="524"
    cap-height="718"
    bbox="-168 -288 1367 1049"
    underline-thickness="50"
    underline-position="-50"
    unicode-range="U+0020-FB02"
  />
<missing-glyph horiz-adv-x="577" 
 />
    <glyph glyph-name=".notdef" horiz-adv-x="577" 
 />
    <glyph glyph-name=".null" horiz-adv-x="0" 
 />
    <glyph glyph-name="nonmarkingreturn" horiz-adv-x="333" 
 />
    <glyph glyph-name="space" unicode=" " horiz-adv-x="270" 
 />
    <glyph glyph-name="exclam" unicode="!" horiz-adv-x="396" 
d="M260 211h-124l-29 507h182zM108 75q0 38 26.5 64.5t63.5 26.5q38 0 64.5 -27t26.5 -64t-26.5 -63.5t-64.5 -26.5t-64 26.5t-26 63.5z" />
    <glyph glyph-name="quotedbl" unicode="&#x22;" horiz-adv-x="436" 
d="M63 441l-19 277h156l-19 -277h-118zM255 441l-19 277h156l-19 -277h-118z" />
    <glyph glyph-name="numbersign" unicode="#" horiz-adv-x="650" 
d="M593 577v-124h-107l-14 -79h93v-124h-115l-28 -162h-116l28 162h-82l-28 -162h-116l28 162h-79v124h101l14 79h-87v124h108l25 141h117l-25 -141h82l25 141h116l-25 -141h85zM288 453l-14 -79h82l14 79h-82z" />
    <glyph glyph-name="dollar" unicode="$" horiz-adv-x="511" 
d="M379 385q103 -86 103 -190q0 -76 -42.5 -130t-113.5 -71v-105h-132v103q-58 13 -104 45.5t-62 70.5l45 140q26 -43 78 -71t106 -28q28 0 50 10.5t22 34.5q0 19 -10 31.5t-39 36.5q-16 13 -42.5 34.5t-42.5 35t-36.5 31.5t-36.5 34q-70 75 -70 151q0 69 39 114.5t103 62.5
v104h132v-104q86 -22 129 -86l-29 -143q-30 35 -75 54t-89 19q-57 0 -57 -28q0 -2 1 -5t2.5 -5.5t3.5 -5t5.5 -6l6 -6t7.5 -6.5l7.5 -6t8 -6.5t8.5 -6.5q71 -56 124 -103z" />
    <glyph glyph-name="percent" unicode="%" horiz-adv-x="952" 
d="M333 0h-124l412 718h123zM417 539q0 -78 -54.5 -133.5t-136.5 -55.5t-136.5 55.5t-54.5 133.5t54.5 133.5t136.5 55.5t136.5 -55.5t54.5 -133.5zM288 539q0 24 -17 40t-45 16t-45 -16t-17 -40t17 -40t45 -16t45 16t17 40zM917 179q0 -78 -54.5 -133.5t-136.5 -55.5
t-136.5 55.5t-54.5 133.5t54.5 133.5t136.5 55.5t136.5 -55.5t54.5 -133.5zM788 179q0 24 -17 40t-45 16t-45 -16t-17 -40t17 -40t45 -16t45 16t17 40z" />
    <glyph glyph-name="ampersand" unicode="&#x26;" horiz-adv-x="652" 
d="M517 168l141 -168h-162l-54 65q-83 -80 -195 -80q-96 0 -153 58.5t-57 144.5q0 114 128 202q-75 80 -75 158q0 76 54.5 130.5t139.5 54.5q89 0 142 -51.5t53 -132.5q0 -48 -34 -96.5t-92 -88.5l72 -86q30 53 63 142l68 -151q-20 -62 -39 -101zM285 579q-22 0 -36 -12.5
t-14 -32.5q0 -25 26 -58l7 -10l5 2q61 42 61 69q0 42 -49 42zM263 147q41 0 83 29l-97 114l-28 -23q-28 -27 -28 -61q0 -25 18 -42t52 -17z" />
    <glyph glyph-name="quotesingle" unicode="'" horiz-adv-x="244" 
d="M63 441l-19 277h156l-19 -277h-118z" />
    <glyph glyph-name="parenleft" unicode="(" horiz-adv-x="400" 
d="M236 723l127 -12q-148 -186 -148 -435q0 -245 148 -434l-127 -11q-159 181 -159 445q0 272 159 447z" />
    <glyph glyph-name="parenright" unicode=")" horiz-adv-x="400" 
d="M37 711l127 12q159 -175 159 -447q0 -264 -159 -445l-127 11q148 189 148 434q0 249 -148 435z" />
    <glyph glyph-name="asterisk" unicode="*" horiz-adv-x="505" 
d="M171 278l-97 71l83 113l-135 44l37 113l133 -42v141h121v-141l133 43l37 -114l-134 -44l82 -114l-97 -70l-82 113z" />
    <glyph glyph-name="plus" unicode="+" horiz-adv-x="553" 
d="M44 361h174v169h117v-169h173v-125h-173v-169h-117v169h-174v125z" />
    <glyph glyph-name="comma" unicode="," horiz-adv-x="322" 
d="M61 -140l64 139q-24 7 -41 29t-17 55q0 38 28 65.5t69 27.5q39 0 65 -29t26 -68q0 -53 -37 -112l-65 -107h-92z" />
    <glyph glyph-name="hyphen" unicode="-" horiz-adv-x="472" 
d="M67 339h338v-121h-338v121z" />
    <glyph glyph-name="period" unicode="." horiz-adv-x="321" 
d="M65 80q0 40 27.5 68t67.5 28t68 -28t28 -68t-28 -67.5t-68 -27.5t-67.5 27.5t-27.5 67.5z" />
    <glyph glyph-name="slash" unicode="/" horiz-adv-x="499" 
d="M499 718l-362 -882h-137l362 882h137z" />
    <glyph glyph-name="zero" unicode="0" horiz-adv-x="613" 
d="M306 733q119 0 187 -100t68 -277q0 -173 -64.5 -272t-187.5 -99q-128 0 -192.5 101.5t-64.5 274.5q0 174 66 273t188 99zM406 359q0 210 -99 210t-99 -210t99 -210t99 210z" />
    <glyph glyph-name="one" unicode="1" horiz-adv-x="439" 
d="M52 415v161l177 142h114v-718h-152v512z" />
    <glyph glyph-name="two" unicode="2" horiz-adv-x="549" 
d="M243 569q-89 0 -146 -95l-63 108q17 65 77 108t144 43q108 0 169 -62.5t61 -157.5q0 -72 -31 -127t-108 -141l-72 -81h225v-164h-460v127l205 223q36 39 50 56t25 40t11 47q0 32 -24 54t-63 22z" />
    <glyph glyph-name="three" unicode="3" horiz-adv-x="551" 
d="M246 149q48 0 77.5 23t29.5 62q0 35 -26.5 55.5t-71.5 20.5q-57 0 -87 -22l-25 112l123 154h-198v164h401v-117l-122 -150q65 -16 113.5 -68t48.5 -151q0 -105 -73 -176t-190 -71q-83 0 -140 34t-75 80l36 132q66 -82 179 -82z" />
    <glyph glyph-name="four" unicode="4" horiz-adv-x="537" 
d="M17 318l274 400h144v-365h80v-164h-80v-189h-151v189h-267v129zM180 343h109v159z" />
    <glyph glyph-name="five" unicode="5" horiz-adv-x="561" 
d="M358 229q0 37 -27 57t-64 20q-66 0 -99 -33l-98 30l36 415h364v-164h-241l-9 -87q19 5 60 5q101 0 167.5 -67.5t66.5 -171.5q0 -111 -73.5 -179.5t-178.5 -68.5q-88 0 -145.5 35.5t-69.5 78.5l36 132q65 -82 171 -82q44 0 74 21.5t30 58.5z" />
    <glyph glyph-name="six" unicode="6" horiz-adv-x="582" 
d="M451 718l-154 -241q4 1 15 1q87 0 158 -68t71 -171q0 -105 -74.5 -179.5t-175.5 -74.5q-107 0 -178.5 71t-71.5 180q0 90 75 211l167 271h168zM386 235q0 39 -27.5 62.5t-67.5 23.5t-67.5 -23.5t-27.5 -62.5t27.5 -62.5t67.5 -23.5t67.5 23.5t27.5 62.5z" />
    <glyph glyph-name="seven" unicode="7" horiz-adv-x="526" 
d="M71 0l232 554h-261v164h442v-114l-254 -604h-159z" />
    <glyph glyph-name="eight" unicode="8" horiz-adv-x="590" 
d="M453 374q36 -24 60.5 -67.5t24.5 -96.5q0 -96 -70 -160.5t-173 -64.5t-173 64.5t-70 160.5q0 53 24.5 96.5t60.5 67.5q-28 22 -48 61t-20 81q0 92 64 154.5t162 62.5t162 -62.5t64 -154.5q0 -42 -20 -81t-48 -61zM295 569q-33 0 -52.5 -18.5t-19.5 -43.5t19.5 -43.5
t52.5 -18.5t52.5 18.5t19.5 43.5t-19.5 43.5t-52.5 18.5zM295 149q40 0 64 21t24 53q0 31 -24.5 52.5t-63.5 21.5t-63.5 -21.5t-24.5 -52.5q0 -32 24 -53t64 -21z" />
    <glyph glyph-name="nine" unicode="9" horiz-adv-x="582" 
d="M131 0l154 241q-4 -1 -15 -1q-87 0 -158 68t-71 171q0 105 74.5 179.5t175.5 74.5q107 0 178.5 -71t71.5 -180q0 -90 -75 -211l-167 -271h-168zM196 483q0 -39 27.5 -62.5t67.5 -23.5t67.5 23.5t27.5 62.5t-27.5 62.5t-67.5 23.5t-67.5 -23.5t-27.5 -62.5z" />
    <glyph glyph-name="colon" unicode=":" horiz-adv-x="321" 
d="M65 80q0 40 27.5 68t67.5 28t68 -28t28 -68t-28 -67.5t-68 -27.5t-67.5 27.5t-27.5 67.5zM65 461q0 40 27.5 68t67.5 28t68 -28t28 -68t-28 -67.5t-68 -27.5t-67.5 27.5t-27.5 67.5z" />
    <glyph glyph-name="semicolon" unicode=";" horiz-adv-x="322" 
d="M61 -140l64 139q-24 7 -41 29t-17 55q0 38 28 65.5t69 27.5q39 0 65 -29t26 -68q0 -53 -37 -112l-65 -107h-92zM64 461q0 40 27.5 68t67.5 28t68 -28t28 -68t-28 -67.5t-68 -27.5t-67.5 27.5t-27.5 67.5z" />
    <glyph glyph-name="less" unicode="&#x3c;" horiz-adv-x="553" 
d="M44 352l464 192v-137l-267 -109l267 -109v-137l-464 192v108z" />
    <glyph glyph-name="equal" unicode="=" horiz-adv-x="553" 
d="M508 339h-464v126h464v-126zM508 132h-464v125h464v-125z" />
    <glyph glyph-name="greater" unicode="&#x3e;" horiz-adv-x="553" 
d="M509 243l-464 -192v137l267 109l-267 109v137l464 -192v-108z" />
    <glyph glyph-name="question" unicode="?" horiz-adv-x="484" 
d="M253 339q25 0 56 14t52 36l25 -116q-23 -32 -62 -52t-85 -20q-68 0 -112.5 38.5t-44.5 98.5q0 46 26.5 83.5t98.5 84.5q41 27 54.5 41t13.5 25q0 28 -41 28q-46 0 -84 -21.5t-60 -48.5l-32 112q24 39 72 65t110 26q79 0 128 -42.5t49 -112.5q0 -51 -31.5 -90.5
t-97.5 -77.5q-37 -22 -50 -32.5t-13 -21.5q0 -17 28 -17zM146 75q0 38 26.5 64.5t63.5 26.5q38 0 64.5 -27t26.5 -64t-26.5 -63.5t-64.5 -26.5t-64 26.5t-26 63.5z" />
    <glyph glyph-name="at" unicode="@" horiz-adv-x="965" 
d="M558 164v31q-4 10 -24 19t-47 9q-79 0 -79 -47q0 -45 79 -45q22 0 43.5 9.5t27.5 23.5zM673 308v-109q0 -27 13 -44t36 -17q26 0 43.5 22.5t24.5 51t7 58.5q0 129 -93 217t-218 88q-131 0 -224.5 -97.5t-93.5 -232.5q0 -139 88.5 -233.5t231.5 -94.5q107 0 182 61l20 -97
q-73 -73 -202 -73q-180 0 -300.5 126t-120.5 312q0 182 120.5 310.5t296.5 128.5q110 0 204.5 -53t152 -148.5t57.5 -211.5q0 -108 -43.5 -177t-135.5 -69q-68 0 -123 55q-16 -23 -53.5 -39t-81.5 -16q-76 0 -123 38t-47 106q0 65 51 104t123 39q40 0 63.5 -9t29.5 -20v6
q0 38 -25.5 54t-61.5 16q-41 0 -78 -15t-54 -37l-27 97q22 36 70.5 55.5t99.5 19.5q84 0 137.5 -45.5t53.5 -126.5z" />
    <glyph glyph-name="A" unicode="A" horiz-adv-x="723" 
d="M434 718l286 -718h-158l-54 138h-289l-55 -138h-161l287 718h144zM364 502l-85 -207h166z" />
    <glyph glyph-name="B" unicode="B" horiz-adv-x="585" 
d="M82 718h188q105 0 170.5 -51t65.5 -146q0 -89 -60 -136q97 -50 97 -175q0 -97 -69.5 -153.5t-174.5 -56.5h-217v718zM322 290h-88v-140h89q29 0 49 20t20 50q0 29 -19.5 49.5t-50.5 20.5zM286 568h-52v-138h54q28 0 47 19.5t19 49.5t-18.5 49.5t-49.5 19.5z" />
    <glyph glyph-name="C" unicode="C" horiz-adv-x="706" 
d="M420 149q70 0 125 28t85 69l48 -137q-33 -56 -104.5 -90t-166.5 -34q-150 0 -262.5 106.5t-112.5 267.5t112.5 267.5t262.5 106.5q91 0 162.5 -35t103.5 -88l-47 -134q-31 39 -85.5 66t-120.5 27q-102 0 -167 -57.5t-65 -152.5t65 -152.5t167 -57.5z" />
    <glyph glyph-name="D" unicode="D" horiz-adv-x="734" 
d="M546 359q0 83 -55.5 139t-141.5 56h-115v-390h115q85 0 141 54t56 141zM82 718h227q175 0 284 -95.5t109 -263.5q0 -166 -110 -262.5t-283 -96.5h-227v718z" />
    <glyph glyph-name="E" unicode="E" horiz-adv-x="545" 
d="M82 0v718h403v-164h-251v-103h221v-164h-221v-123h251v-164h-403z" />
    <glyph glyph-name="F" unicode="F" horiz-adv-x="498" 
d="M82 0v718h366v-164h-214v-103h194v-164h-194v-287h-152z" />
    <glyph glyph-name="G" unicode="G" horiz-adv-x="757" 
d="M420 569q-105 0 -168.5 -57.5t-63.5 -153.5q0 -97 64.5 -153t172.5 -56q82 0 133 43v51h-138v157h285v-259q-98 -156 -298 -156q-150 0 -262.5 106.5t-112.5 266.5q0 161 112.5 268t262.5 107q91 0 162.5 -35t103.5 -88l-47 -134q-31 39 -85.5 66t-120.5 27z" />
    <glyph glyph-name="H" unicode="H" horiz-adv-x="771" 
d="M82 0v718h152v-267h303v267h152v-718h-152v287h-303v-287h-152z" />
    <glyph glyph-name="I" unicode="I" horiz-adv-x="316" 
d="M82 0v718h152v-718h-152z" />
    <glyph glyph-name="J" unicode="J" horiz-adv-x="440" 
d="M363 718v-530q0 -97 -51 -150t-149 -53q-39 0 -81.5 18t-61.5 48l15 149q49 -51 110 -51q66 0 66 72v497h152z" />
    <glyph glyph-name="K" unicode="K" horiz-adv-x="682" 
d="M82 0v718h152v-252l219 252h195l-296 -341l332 -377h-205l-245 282v-282h-152z" />
    <glyph glyph-name="L" unicode="L" horiz-adv-x="489" 
d="M82 0v718h152v-554h235v-164h-387z" />
    <glyph glyph-name="M" unicode="M" horiz-adv-x="964" 
d="M485 242l172 476h158l97 -718h-154l-56 415l-147 -415h-138l-147 415l-56 -415h-162l97 718h158z" />
    <glyph glyph-name="N" unicode="N" horiz-adv-x="770" 
d="M82 0v718h147l307 -445v445h152v-718h-149l-305 442v-442h-152z" />
    <glyph glyph-name="O" unicode="O" horiz-adv-x="816" 
d="M408 733q155 0 265.5 -106t110.5 -268t-110.5 -268t-265.5 -106t-265.5 106t-110.5 268t110.5 268t265.5 106zM408 149q94 0 157 59t63 151t-63 151t-157 59t-157 -59t-63 -151t63 -151t157 -59z" />
    <glyph glyph-name="P" unicode="P" horiz-adv-x="552" 
d="M82 718h209q103 0 171 -63t68 -164q0 -99 -66.5 -162.5t-171.5 -63.5h-58v-265h-152v718zM309 559h-75v-135h75q31 0 50.5 18t19.5 49t-19 49.5t-51 18.5z" />
    <glyph glyph-name="Q" unicode="Q" horiz-adv-x="816" 
d="M409 733q156 0 266 -106t110 -268q0 -135 -83.5 -235.5t-210.5 -128.5q4 -28 24 -41t46 -13q52 0 100 45l11 -131q-47 -61 -140 -61q-181 0 -181 195q-136 20 -227.5 123.5t-91.5 247.5q0 158 111 265.5t266 107.5zM408 149q94 0 157 59t63 151t-63 151t-157 59t-157 -59
t-63 -151t63 -151t157 -59z" />
    <glyph glyph-name="R" unicode="R" horiz-adv-x="576" 
d="M82 0v718h222q87 0 151 -55.5t64 -158.5q0 -66 -32 -119t-90 -76l160 -309h-167l-150 292h-6v-292h-152zM306 559h-72v-121h72q27 0 44.5 17t17.5 45q0 26 -17 42.5t-45 16.5z" />
    <glyph glyph-name="S" unicode="S" horiz-adv-x="511" 
d="M379 382q48 -40 75.5 -84t27.5 -103q0 -94 -63 -152t-163 -58q-76 0 -142 37.5t-86 85.5l45 140q27 -42 79 -70.5t105 -28.5q28 0 50 10.5t22 34.5q0 16 -10.5 29t-38.5 36q-17 14 -53.5 43t-60.5 49.5t-44 41.5q-70 75 -70 155q0 87 60.5 136t147.5 49q68 0 118.5 -27.5
t76.5 -66.5l-29 -143q-33 34 -79 53.5t-88 19.5q-54 0 -54 -28q0 -3 0.5 -6t2.5 -6.5t4 -6t5.5 -6l6 -6t7 -6.5t7.5 -6.5t8.5 -7t8.5 -6.5q87 -69 124 -102z" />
    <glyph glyph-name="T" unicode="T" horiz-adv-x="581" 
d="M12 556v162h557v-162h-203v-556h-151v556h-203z" />
    <glyph glyph-name="U" unicode="U" horiz-adv-x="732" 
d="M503 289v429h152v-434q0 -132 -79 -215.5t-211 -83.5q-129 0 -208.5 82t-79.5 216v435h152v-430q0 -64 37.5 -101.5t100.5 -37.5q62 0 99 38.5t37 101.5z" />
    <glyph glyph-name="V" unicode="V" horiz-adv-x="684" 
d="M269 0l-266 718h161l177 -475l176 475h164l-266 -718h-146z" />
    <glyph glyph-name="W" unicode="W" horiz-adv-x="1023" 
d="M576 718l123 -426l143 426h169l-238 -718h-134l-126 442l-128 -442h-135l-238 718h163l144 -426l123 426h134z" />
    <glyph glyph-name="X" unicode="X" horiz-adv-x="672" 
d="M338 228l-141 -228h-185l237 370l-223 348h181l128 -206l126 206h183l-222 -349l238 -369h-182z" />
    <glyph glyph-name="Y" unicode="Y" horiz-adv-x="615" 
d="M233 301l-230 417h167l136 -243l137 243h169l-228 -417v-301h-151v301z" />
    <glyph glyph-name="Z" unicode="Z" horiz-adv-x="528" 
d="M42 554v164h419v-130l-234 -424h236v-164h-424v126l235 428h-232z" />
    <glyph glyph-name="bracketleft" unicode="[" horiz-adv-x="403" 
d="M328 -164h-232v882h232v-145h-101v-592h101v-145z" />
    <glyph glyph-name="backslash" unicode="\" horiz-adv-x="499" 
d="M362 -164l-362 882h137l362 -882h-137z" />
    <glyph glyph-name="bracketright" unicode="]" horiz-adv-x="403" 
d="M307 -164h-232v145h101v592h-101v145h232v-882z" />
    <glyph glyph-name="asciicircum" unicode="^" horiz-adv-x="564" 
d="M175 324h-138l185 363h121l184 -363h-135l-109 218z" />
    <glyph glyph-name="underscore" unicode="_" horiz-adv-x="510" 
d="M-2 -173v121h514v-121h-514z" />
    <glyph glyph-name="grave" unicode="`" horiz-adv-x="352" 
d="M57 757h164l73 -167h-112z" />
    <glyph glyph-name="a" unicode="a" horiz-adv-x="574" 
d="M358 153v37q-6 11 -29 20.5t-53 9.5q-43 0 -65.5 -14t-22.5 -38q0 -25 23 -38.5t64 -13.5q30 0 52.5 10.5t30.5 26.5zM100 332l-34 118q24 40 84.5 64.5t122.5 24.5q105 0 168.5 -56t63.5 -156v-327h-142v45q-18 -28 -57.5 -44t-82.5 -16q-78 0 -131 48t-53 125
q0 80 60 126.5t143 46.5q35 0 62.5 -6.5t39 -13.5t14.5 -13v14q0 39 -28.5 59t-73.5 20q-47 0 -90.5 -17t-65.5 -42z" />
    <glyph glyph-name="b" unicode="b" horiz-adv-x="671" 
d="M220 728v-258q14 30 55 49.5t96 19.5q107 0 184.5 -78t77.5 -199t-77.5 -199t-184.5 -78q-59 0 -100.5 19.5t-55.5 49.5v-54h-142v728h147zM220 323v-122q11 -26 46.5 -43t79.5 -17q61 0 99.5 34t38.5 87t-38.5 87t-99.5 34q-44 0 -79.5 -17t-46.5 -43z" />
    <glyph glyph-name="c" unicode="c" horiz-adv-x="554" 
d="M326 141q88 0 144 66l46 -128q-28 -42 -82.5 -68t-120.5 -26q-113 0 -193.5 78.5t-80.5 198.5t80.5 198.5t193.5 78.5q65 0 118.5 -27t80.5 -68l-43 -125q-21 27 -58 45.5t-85 18.5q-62 0 -100 -33.5t-38 -87.5t38 -87.5t100 -33.5z" />
    <glyph glyph-name="d" unicode="d" horiz-adv-x="671" 
d="M452 470v258h147v-728h-142v54q-14 -30 -55.5 -49.5t-100.5 -19.5q-107 0 -184.5 78t-77.5 199t77.5 199t184.5 78q55 0 96 -19.5t55 -49.5zM452 201v122q-11 26 -46.5 43t-79.5 17q-61 0 -99.5 -34t-38.5 -87t38.5 -87t99.5 -34q44 0 79.5 17t46.5 43z" />
    <glyph glyph-name="e" unicode="e" horiz-adv-x="613" 
d="M574 261q0 -34 -3 -52h-381q10 -40 47 -60.5t91 -20.5q50 0 94 17t66 48l47 -113q-29 -44 -84.5 -69.5t-126.5 -25.5q-123 0 -204 75.5t-81 200.5q0 116 75.5 197t198.5 81q114 0 187.5 -82.5t73.5 -195.5zM193 319h233q-7 37 -38 56.5t-75 19.5q-45 0 -78 -19.5
t-42 -56.5z" />
    <glyph glyph-name="f" unicode="f" horiz-adv-x="458" 
d="M442 681l-30 -117q-32 31 -83 31q-27 0 -46.5 -15t-19.5 -44v-12h157v-154h-157v-370h-147v370h-89v154h89v32q0 87 48 137t133 50q102 0 145 -62z" />
    <glyph glyph-name="g" unicode="g" horiz-adv-x="671" 
d="M452 72q-14 -29 -54.5 -48.5t-95.5 -19.5q-108 0 -185.5 75t-77.5 192q0 116 78 192t185 76q59 0 100 -19.5t55 -49.5v54h142v-510q0 -108 -73 -175.5t-195 -67.5q-80 0 -145.5 30t-85.5 66l44 132q26 -30 72 -52.5t103 -22.5q54 0 93.5 25t39.5 86v37zM452 209v116
q-11 25 -46.5 41.5t-80.5 16.5q-61 0 -99 -32.5t-38 -82.5q0 -51 38 -84t99 -33q45 0 80.5 16.5t46.5 41.5z" />
    <glyph glyph-name="h" unicode="h" horiz-adv-x="636" 
d="M220 313v-313h-147v728h147v-255q11 30 45.5 48t87.5 18q88 0 153.5 -59t65.5 -171v-309h-147v277q0 50 -28.5 78t-72.5 28q-38 0 -68.5 -20t-35.5 -50z" />
    <glyph glyph-name="i" unicode="i" horiz-adv-x="298" 
d="M76 0v524h147v-524h-147zM54 677q0 40 27.5 68t67.5 28t68 -28t28 -68t-28 -67.5t-68 -27.5t-67.5 27.5t-27.5 67.5z" />
    <glyph glyph-name="j" unicode="j" horiz-adv-x="302" 
d="M80 -17v541h147v-574q0 -178 -148 -178q-73 0 -114 36l15 142q29 -22 58 -22q23 0 32.5 12.5t9.5 42.5zM58 677q0 40 27.5 68t67.5 28t68 -28t28 -68t-28 -67.5t-68 -27.5t-67.5 27.5t-27.5 67.5z" />
    <glyph glyph-name="k" unicode="k" horiz-adv-x="598" 
d="M73 0v728h147v-389l172 185h193l-230 -247l253 -277h-195l-193 211v-211h-147z" />
    <glyph glyph-name="l" unicode="l" horiz-adv-x="292" 
d="M73 0v728h147v-728h-147z" />
    <glyph glyph-name="m" unicode="m" horiz-adv-x="942" 
d="M346 539q95 0 158 -71q54 71 171 71q80 0 141.5 -56t61.5 -154v-329h-147v290q0 43 -25 68t-64 25q-33 0 -59.5 -19t-33.5 -47v-317h-147v290q0 43 -24.5 68t-63.5 25q-34 0 -61 -18.5t-33 -46.5v-318h-147v524h142v-51q10 29 45.5 47.5t85.5 18.5z" />
    <glyph glyph-name="n" unicode="n" horiz-adv-x="636" 
d="M353 539q88 0 153.5 -59t65.5 -171v-309h-147v277q0 50 -28.5 78t-72.5 28q-38 0 -68.5 -20t-35.5 -50v-313h-147v524h142v-51q11 30 47 48t91 18z" />
    <glyph glyph-name="o" unicode="o" horiz-adv-x="643" 
d="M322 539q115 0 199 -79.5t84 -197.5t-84 -197.5t-199 -79.5t-199 79.5t-84 197.5t84 197.5t199 79.5zM322 141q56 0 95 34t39 87t-39 87t-95 34t-95 -34t-39 -87t39 -87t95 -34z" />
    <glyph glyph-name="p" unicode="p" horiz-adv-x="671" 
d="M220 54v-267h-147v737h142v-54q14 30 55.5 49.5t100.5 19.5q107 0 184.5 -78t77.5 -199t-77.5 -199t-184.5 -78q-55 0 -96 19.5t-55 49.5zM220 323v-122q11 -26 46.5 -43t79.5 -17q61 0 99.5 34t38.5 87t-38.5 87t-99.5 34q-44 0 -79.5 -17t-46.5 -43z" />
    <glyph glyph-name="q" unicode="q" horiz-adv-x="671" 
d="M452 -213v267q-14 -30 -55 -49.5t-96 -19.5q-107 0 -184.5 78t-77.5 199t77.5 199t184.5 78q59 0 100.5 -19.5t55.5 -49.5v54h142v-737h-147zM452 201v122q-11 26 -46.5 43t-79.5 17q-61 0 -99.5 -34t-38.5 -87t38.5 -87t99.5 -34q44 0 79.5 17t46.5 43z" />
    <glyph glyph-name="r" unicode="r" horiz-adv-x="428" 
d="M414 498l-21 -136q-29 21 -68 21q-85 0 -105 -78v-305h-147v524h142v-69q12 38 42.5 61t72.5 23q28 0 51 -12t33 -29z" />
    <glyph glyph-name="s" unicode="s" horiz-adv-x="452" 
d="M223 194l-37 19q-135 67 -135 170q0 66 50.5 111t126.5 45q113 0 164 -73l-29 -125q-56 51 -127 51q-36 0 -36 -18q0 -15 32 -30l44 -22q70 -35 103 -73.5t33 -96.5q0 -72 -53 -119.5t-138 -47.5q-63 0 -113.5 28t-68.5 64l41 125q55 -72 139 -72q47 0 47 27q0 11 -9 18
t-34 19z" />
    <glyph glyph-name="t" unicode="t" horiz-adv-x="468" 
d="M389 178l31 -135q-47 -58 -136 -58q-86 0 -130.5 48.5t-44.5 131.5v205h-89v42l200 244h36v-132h157v-154h-157v-171q0 -58 56 -58q41 0 77 37z" />
    <glyph glyph-name="u" unicode="u" horiz-adv-x="632" 
d="M281 -15q-88 0 -152.5 59t-64.5 171v309h147v-277q0 -50 27.5 -78t71.5 -28q38 0 68 20t35 50v313h147v-524h-142v51q-11 -30 -46.5 -48t-90.5 -18z" />
    <glyph glyph-name="v" unicode="v" horiz-adv-x="586" 
d="M357 0h-128l-217 524h156l123 -307l123 307h160z" />
    <glyph glyph-name="w" unicode="w" horiz-adv-x="886" 
d="M505 524l94 -290l111 290h165l-210 -524h-128l-94 290l-94 -290h-128l-210 524h162l111 -290l94 290h127z" />
    <glyph glyph-name="x" unicode="x" horiz-adv-x="578" 
d="M289 152l-106 -152h-177l192 276l-170 248h172l87 -127l87 127h178l-173 -248l192 -276h-173z" />
    <glyph glyph-name="y" unicode="y" horiz-adv-x="604" 
d="M221 42l-205 482h158l125 -294l125 294h162l-314 -737h-160z" />
    <glyph glyph-name="z" unicode="z" horiz-adv-x="476" 
d="M52 370v154h367v-124l-178 -246h189v-154h-384v120l181 250h-175z" />
    <glyph glyph-name="braceleft" unicode="{" horiz-adv-x="426" 
d="M72 223v108h10q33 0 56 19t23 55q0 11 -1 16l-19 126q-2 18 -2 27q0 67 46.5 108t124.5 41q26 0 49 -4v-126q-5 1 -16 1q-33 0 -53.5 -16.5t-20.5 -45.5q0 -9 1 -14l20 -125q2 -18 2 -25q0 -62 -57 -91q57 -29 57 -91q0 -7 -2 -25l-20 -125q-1 -5 -1 -14
q0 -29 20.5 -45.5t53.5 -16.5q11 0 16 1v-126q-23 -4 -49 -4q-78 0 -124.5 41t-46.5 108q0 9 2 27l19 126q1 5 1 16q0 36 -23 55t-56 19h-10z" />
    <glyph glyph-name="bar" unicode="|" horiz-adv-x="300" 
d="M216 718v-882h-132v882h132z" />
    <glyph glyph-name="braceright" unicode="}" horiz-adv-x="426" 
d="M354 331v-108h-10q-33 0 -56 -19t-23 -55q0 -11 1 -16l19 -126q2 -18 2 -27q0 -67 -46.5 -108t-124.5 -41q-26 0 -49 4v126q5 -1 16 -1q33 0 53.5 16.5t20.5 45.5q0 9 -1 14l-20 125q-2 18 -2 25q0 62 57 91q-57 29 -57 91q0 7 2 25l20 125q1 5 1 14q0 29 -20.5 45.5
t-53.5 16.5q-11 0 -16 -1v126q23 4 49 4q78 0 124.5 -41t46.5 -108q0 -9 -2 -27l-19 -126q-1 -5 -1 -16q0 -36 23 -55t56 -19h10z" />
    <glyph glyph-name="asciitilde" unicode="~" horiz-adv-x="535" 
d="M174 198h-112q-18 39 -18 78q0 55 34.5 88.5t91.5 33.5q33 0 68.5 -16t64.5 -32t45 -16q25 0 25 23q0 14 -12 41h112q17 -40 17 -78q0 -56 -33 -89t-89 -33q-44 0 -103 32.5t-77 32.5q-26 0 -26 -25q0 -16 12 -40z" />
    <glyph glyph-name="uni00A0" unicode="&#xa0;" horiz-adv-x="270" 
 />
    <glyph glyph-name="exclamdown" unicode="&#xa1;" horiz-adv-x="396" 
d="M136 311h124l29 -507h-182zM288 449q0 -38 -26.5 -64.5t-63.5 -26.5q-38 0 -64.5 27t-26.5 64t26.5 63.5t64.5 26.5t64 -26.5t26 -63.5z" />
    <glyph glyph-name="cent" unicode="&#xa2;" horiz-adv-x="555" 
d="M378 627v-96q91 -21 135 -87l-44 -127q-34 49 -91 60v-229q50 9 92 63l47 -132q-44 -67 -139 -87v-109h-96v104q-103 12 -173 88t-70 187t70 187t173 88v90h96zM190 262q0 -44 24.5 -76t67.5 -40v231q-43 -7 -67.5 -39t-24.5 -76z" />
    <glyph glyph-name="sterling" unicode="&#xa3;" horiz-adv-x="566" 
d="M61 273v145h59q-17 53 -17 99q0 101 60.5 158.5t158.5 57.5q71 0 122 -33.5t68 -82.5l-60 -117q-48 69 -122 69q-35 0 -54 -18t-19 -46q0 -31 21 -87h136v-145h-95v-6q0 -59 -35 -103h232v-164h-456v120q41 18 73 59.5t32 84.5q0 2 -0.5 5t-0.5 4h-103z" />
    <glyph glyph-name="currency" unicode="&#xa4;" horiz-adv-x="641" 
d="M423 570l76 76l98 -97l-77 -78q24 -45 24 -102t-24 -101l77 -77l-98 -98l-77 77q-46 -23 -101 -23q-56 0 -102 23l-77 -77l-98 98l77 77q-24 44 -24 101t24 102l-77 78l98 97l77 -76q48 24 102 24q52 0 102 -24zM321 444q-33 0 -55.5 -21.5t-22.5 -53.5q0 -31 22.5 -52
t55.5 -21q32 0 54.5 21t22.5 52q0 32 -22.5 53.5t-54.5 21.5z" />
    <glyph glyph-name="yen" unicode="&#xa5;" horiz-adv-x="553" 
d="M14 718h148l113 -256l112 256h151l-103 -237h53v-114h-103l-18 -37h121v-113h-135v-217h-151v217h-132v113h115l-15 37h-100v114h49z" />
    <glyph glyph-name="brokenbar" unicode="&#xa6;" horiz-adv-x="300" 
d="M216 199v-363h-132v363h132zM216 718v-363h-132v363h132z" />
    <glyph glyph-name="section" unicode="&#xa7;" horiz-adv-x="588" 
d="M341 193q36 19 36 54q0 17 -16.5 33t-53.5 41l-61 42q-36 -17 -36 -51q0 -31 69 -78zM531 268q0 -51 -26.5 -90t-63.5 -59q58 -58 58 -127q0 -83 -56.5 -131.5t-151.5 -48.5q-69 0 -119 27t-78 65l29 138q62 -68 170 -68q53 0 53 26q0 6 -6 13.5t-21 17.5t-24.5 15.5
t-31.5 17.5q-52 29 -81 47q-125 79 -125 173q0 53 26 94t62 57q-26 19 -41 53.5t-15 69.5q0 79 56.5 126.5t149.5 47.5q65 0 120 -26.5t77 -61.5l-27 -140q-33 33 -84 49t-91 16q-47 0 -47 -20q0 -6 6 -13.5t21 -17.5t24.5 -15.5t31.5 -17.5q52 -29 81 -47q57 -36 90.5 -76
t33.5 -94z" />
    <glyph glyph-name="dieresis" unicode="&#xa8;" horiz-adv-x="493" 
d="M61 671q0 33 24 56.5t57 23.5q34 0 57.5 -23t23.5 -57t-23.5 -57t-57.5 -23q-33 0 -57 23.5t-24 56.5zM270 671q0 34 23.5 57t57.5 23q33 0 56.5 -23t23.5 -57t-23.5 -57t-56.5 -23q-34 0 -57.5 23t-23.5 57z" />
    <glyph glyph-name="copyright" unicode="&#xa9;" horiz-adv-x="812" 
d="M406 733q156 0 265 -108.5t109 -265.5q0 -156 -109 -265t-265 -109q-155 0 -264.5 109t-109.5 265t109 265t265 109zM406 65q125 0 212 86t87 208q0 123 -87 208.5t-212 85.5q-124 0 -211.5 -85.5t-87.5 -208.5q0 -122 87.5 -208t211.5 -86zM428 250q42 0 75 15t49 37
l30 -85q-17 -33 -60 -52.5t-102 -19.5q-90 0 -158.5 62t-68.5 153t68.5 153t158.5 62q54 0 97.5 -19t61.5 -50l-31 -85q-16 21 -49 35t-71 14q-60 0 -97.5 -30t-37.5 -80q0 -49 37.5 -79.5t97.5 -30.5z" />
    <glyph glyph-name="ordfeminine" unicode="&#xaa;" horiz-adv-x="408" 
d="M195 650q70 0 113.5 -36.5t43.5 -101.5v-212h-100v29q-24 -39 -91 -39q-56 0 -90 31t-34 83t41 82t97 30q41 0 72 -17q0 25 -18.5 38t-44.5 13q-66 0 -106 -40l-25 80q20 28 59.5 44t82.5 16zM248 402v22q-11 18 -50 18q-27 0 -41.5 -8.5t-14.5 -21.5q0 -32 55 -32
q39 0 51 22z" />
    <glyph glyph-name="guillemotleft" unicode="&#xab;" horiz-adv-x="566" 
d="M404 271l115 -194h-129l-141 194l141 187h129zM182 271l115 -194h-129l-141 194l141 187h129z" />
    <glyph glyph-name="logicalnot" unicode="&#xac;" horiz-adv-x="542" 
d="M380 152v186h-336v126h453v-312h-117z" />
    <glyph glyph-name="uni00AD" unicode="&#xad;" horiz-adv-x="472" 
d="M67 339h338v-121h-338v121z" />
    <glyph glyph-name="registered" unicode="&#xae;" horiz-adv-x="812" 
d="M406 733q156 0 265 -108.5t109 -265.5q0 -156 -109 -265t-265 -109q-155 0 -264.5 109t-109.5 265t109 265t265 109zM406 65q125 0 212 86t87 208q0 123 -87 208.5t-212 85.5q-124 0 -211.5 -85.5t-87.5 -208.5q0 -122 87.5 -208t211.5 -86zM287 154v412h134
q52 0 90.5 -33t38.5 -93q0 -34 -17 -63.5t-45 -43.5l87 -179h-105l-79 164h-7v-164h-97zM423 463h-39v-55h39q14 0 22.5 8t8.5 20t-8.5 19.5t-22.5 7.5z" />
    <glyph glyph-name="macron" unicode="&#xaf;" horiz-adv-x="465" 
d="M64 715h336v-108h-336v108z" />
    <glyph glyph-name="degree" unicode="&#xb0;" horiz-adv-x="437" 
d="M218 728q73 0 124.5 -51.5t51.5 -124.5t-51.5 -124.5t-124.5 -51.5t-124.5 51.5t-51.5 124.5t51.5 124.5t124.5 51.5zM218 495q27 0 44.5 16.5t17.5 40.5t-17.5 40.5t-44.5 16.5t-44.5 -16.5t-17.5 -40.5t17.5 -40.5t44.5 -16.5z" />
    <glyph glyph-name="plusminus" unicode="&#xb1;" horiz-adv-x="553" 
d="M508 0h-464v126h464v-126zM44 467h174v155h117v-155h173v-126h-173v-156h-117v156h-174v126z" />
    <glyph glyph-name="twosuperior" unicode="&#xb2;" horiz-adv-x="354" 
d="M154 603q-49 0 -81 -57l-42 68q11 34 44.5 62.5t89.5 28.5q61 0 95 -37t34 -87q0 -37 -16 -64t-52 -67l-43 -48h123v-102h-273v81l121 124q40 41 40 64q0 14 -10.5 24t-29.5 10z" />
    <glyph glyph-name="threesuperior" unicode="&#xb3;" horiz-adv-x="348" 
d="M156 392q26 0 42 10t16 27q0 16 -13.5 25t-36.5 9q-34 0 -56 -13l-15 66l77 77h-121v102h243v-77l-68 -69q91 -28 91 -120q0 -59 -45.5 -99t-116.5 -40q-47 0 -79.5 19t-45.5 42q2 7 22 83q40 -42 106 -42z" />
    <glyph glyph-name="acute" unicode="&#xb4;" horiz-adv-x="352" 
d="M130 757h164l-125 -167h-112z" />
    <glyph glyph-name="mu" unicode="&#xb5;" horiz-adv-x="641" 
d="M290 -15q-35 0 -70 11v-209h-147v737h147v-277q0 -50 27.5 -78t71.5 -28q38 0 68 20t35 50v313h147v-524h-142v51q-11 -30 -46.5 -48t-90.5 -18z" />
    <glyph glyph-name="paragraph" unicode="&#xb6;" horiz-adv-x="703" 
d="M257 718h388v-128h-75v-743h-115v743h-95v-743h-114v460q-85 0 -140 58t-55 148q0 89 58 147t148 58z" />
    <glyph glyph-name="periodcentered" unicode="&#xb7;" horiz-adv-x="321" 
d="M65 280q0 40 27.5 68t67.5 28t68 -28t28 -68t-28 -67.5t-68 -27.5t-67.5 27.5t-27.5 67.5z" />
    <glyph glyph-name="cedilla" unicode="&#xb8;" horiz-adv-x="254" 
d="M174 -119q0 23 -32 23q-22 0 -39 -7l-18 40l25 87h74l-18 -63q45 2 73.5 -20.5t28.5 -61.5q0 -46 -34 -72.5t-86 -26.5q-34 0 -66 14t-47 34l13 63q46 -32 92 -32q34 0 34 22z" />
    <glyph glyph-name="onesuperior" unicode="&#xb9;" horiz-adv-x="280" 
d="M39 511v102l106 82h72v-395h-98v259z" />
    <glyph glyph-name="ordmasculine" unicode="&#xba;" horiz-adv-x="454" 
d="M227 650q80 0 135.5 -51t55.5 -129t-55 -129t-136 -51t-136 51t-55 129t55.5 129t135.5 51zM227 398q37 0 61 20t24 52t-24.5 52t-60.5 20t-60.5 -20t-24.5 -52t24.5 -52t60.5 -20z" />
    <glyph glyph-name="guillemotright" unicode="&#xbb;" horiz-adv-x="566" 
d="M269 77l115 194l-115 187h129l141 -187l-141 -194h-129zM47 77l115 194l-115 187h129l141 -187l-141 -194h-129z" />
    <glyph glyph-name="onequarter" unicode="&#xbc;" horiz-adv-x="737" 
d="M655 718l-429 -718h-119l429 718h119zM39 511v102l106 82h72v-395h-98v259zM668 195h47v-95h-47v-100h-95v100h-151v76l162 219h84v-200zM573 190v83l-60 -83h60z" />
    <glyph glyph-name="onehalf" unicode="&#xbd;" horiz-adv-x="804" 
d="M655 718l-429 -718h-119l429 718h119zM39 511v102l106 82h72v-395h-98v259zM604 303q-49 0 -81 -57l-42 68q11 34 44.5 62.5t89.5 28.5q61 0 95 -37t34 -87q0 -37 -16 -64t-52 -67l-43 -48h123v-102h-273v81l121 124q40 41 40 64q0 14 -10.5 24t-29.5 10z" />
    <glyph glyph-name="threequarters" unicode="&#xbe;" horiz-adv-x="788" 
d="M706 718l-429 -718h-119l429 718h119zM719 195h47v-95h-47v-100h-95v100h-151v76l162 219h84v-200zM624 190v83l-60 -83h60zM156 392q26 0 42 10t16 27q0 16 -13.5 25t-36.5 9q-34 0 -56 -13l-15 66l77 77h-121v102h243v-77l-68 -69q91 -28 91 -120q0 -59 -45.5 -99
t-116.5 -40q-47 0 -79.5 19t-45.5 42q2 7 22 83q40 -42 106 -42z" />
    <glyph glyph-name="questiondown" unicode="&#xbf;" horiz-adv-x="484" 
d="M230 183q-26 0 -56.5 -13.5t-50.5 -36.5l-26 120q22 31 61.5 49.5t86.5 18.5q68 0 112.5 -38.5t44.5 -98.5q0 -45 -26 -80.5t-99 -82.5q-68 -45 -68 -70q0 -29 41 -29q87 0 144 69l33 -116q-24 -37 -72.5 -61.5t-110.5 -24.5q-79 0 -128 42.5t-49 112.5q0 55 29.5 91
t99.5 77q37 21 50.5 32.5t13.5 22.5q0 16 -30 16zM338 449q0 -38 -26.5 -64.5t-63.5 -26.5q-38 0 -64.5 27t-26.5 64t26.5 63.5t64.5 26.5t64 -26.5t26 -63.5z" />
    <glyph glyph-name="Agrave" unicode="&#xc0;" horiz-adv-x="723" 
d="M434 718l286 -718h-158l-54 138h-289l-55 -138h-161l287 718h144zM364 502l-85 -207h166zM181 929h162l73 -157h-109z" />
    <glyph glyph-name="Aacute" unicode="&#xc1;" horiz-adv-x="723" 
d="M434 718l286 -718h-158l-54 138h-289l-55 -138h-161l287 718h144zM364 502l-85 -207h166zM372 929h162l-125 -157h-110z" />
    <glyph glyph-name="Acircumflex" unicode="&#xc2;" horiz-adv-x="723" 
d="M434 718l286 -718h-158l-54 138h-289l-55 -138h-161l287 718h144zM364 502l-85 -207h166zM279 929h164l91 -157h-106l-67 72l-67 -72h-105z" />
    <glyph glyph-name="Atilde" unicode="&#xc3;" horiz-adv-x="723" 
d="M434 718l286 -718h-158l-54 138h-289l-55 -138h-161l287 718h144zM364 502l-85 -207h166zM288 769h-89q-15 30 -15 61q0 44 28 70.5t74 26.5q35 0 83 -25.5t61 -25.5q20 0 20 18q0 14 -9 33h89q14 -31 14 -62q0 -44 -26.5 -70t-71.5 -26q-36 0 -84 25.5t-62 25.5
q-21 0 -21 -20q0 -13 9 -31z" />
    <glyph glyph-name="Adieresis" unicode="&#xc4;" horiz-adv-x="723" 
d="M434 718l286 -718h-158l-54 138h-289l-55 -138h-161l287 718h144zM364 502l-85 -207h166zM177 848q0 32 22 54.5t54 22.5t54.5 -22.5t22.5 -54.5t-22.5 -54t-54.5 -22q-31 0 -53.5 22t-22.5 54zM397 848q0 32 22.5 54.5t54.5 22.5t54 -22.5t22 -54.5t-22 -54t-54 -22
t-54.5 22t-22.5 54z" />
    <glyph glyph-name="Aring" unicode="&#xc5;" horiz-adv-x="723" 
d="M434 718l286 -718h-158l-54 138h-289l-55 -138h-161l287 718h144zM364 502l-85 -207h166zM250 852q0 47 33.5 80t80.5 33t80.5 -33t33.5 -80t-33.5 -80t-80.5 -33t-80.5 33t-33.5 80zM399 852q0 14 -10 23t-25 9t-25 -9t-10 -23t10 -23t25 -9t25 9t10 23z" />
    <glyph glyph-name="AE" unicode="&#xc6;" horiz-adv-x="948" 
d="M485 0v137h-244l-85 -137h-174l446 718h460v-164h-251v-103h221v-164h-221v-123h251v-164h-403zM485 531l-146 -235h146v235z" />
    <glyph glyph-name="Ccedilla" unicode="&#xc7;" horiz-adv-x="706" 
d="M436 -119q0 23 -32 23q-22 0 -39 -7l-18 40l14 51q-137 16 -233 119.5t-96 251.5q0 161 112.5 267.5t262.5 106.5q91 0 162.5 -35t103.5 -88l-47 -134q-31 39 -85.5 66t-120.5 27q-102 0 -167 -57.5t-65 -152.5t65 -152.5t167 -57.5q70 0 125 28t85 69l48 -137
q-31 -52 -94 -85t-149 -38l-7 -25q45 2 73.5 -20.5t28.5 -61.5q0 -46 -34 -72.5t-86 -26.5q-34 0 -66 14t-47 34l13 63q46 -32 92 -32q34 0 34 22z" />
    <glyph glyph-name="Egrave" unicode="&#xc8;" horiz-adv-x="545" 
d="M82 0v718h403v-164h-251v-103h221v-164h-221v-123h251v-164h-403zM134 929h162l73 -157h-109z" />
    <glyph glyph-name="Eacute" unicode="&#xc9;" horiz-adv-x="545" 
d="M82 0v718h403v-164h-251v-103h221v-164h-221v-123h251v-164h-403zM278 929h162l-125 -157h-110z" />
    <glyph glyph-name="Ecircumflex" unicode="&#xca;" horiz-adv-x="545" 
d="M82 0v718h403v-164h-251v-103h221v-164h-221v-123h251v-164h-403zM198 929h164l91 -157h-106l-67 72l-67 -72h-105z" />
    <glyph glyph-name="Edieresis" unicode="&#xcb;" horiz-adv-x="545" 
d="M82 0v718h403v-164h-251v-103h221v-164h-221v-123h251v-164h-403zM94 848q0 32 22 54.5t54 22.5t54.5 -22.5t22.5 -54.5t-22.5 -54t-54.5 -22t-54 22t-22 54zM314 848q0 32 22.5 54.5t54.5 22.5t54 -22.5t22 -54.5t-22.5 -54t-53.5 -22q-32 0 -54.5 22t-22.5 54z" />
    <glyph glyph-name="Igrave" unicode="&#xcc;" horiz-adv-x="316" 
d="M82 0v718h152v-718h-152zM-17 929h162l73 -157h-109z" />
    <glyph glyph-name="Iacute" unicode="&#xcd;" horiz-adv-x="316" 
d="M82 0v718h152v-718h-152zM175 929h162l-125 -157h-110z" />
    <glyph glyph-name="Icircumflex" unicode="&#xce;" horiz-adv-x="316" 
d="M82 0v718h152v-718h-152zM77 929h164l91 -157h-106l-67 72l-67 -72h-105z" />
    <glyph glyph-name="Idieresis" unicode="&#xcf;" horiz-adv-x="316" 
d="M82 0v718h152v-718h-152zM-30 848q0 32 22 54.5t54 22.5t54.5 -22.5t22.5 -54.5t-22.5 -54t-54.5 -22t-54 22t-22 54zM190 848q0 32 22.5 54.5t54.5 22.5t54 -22.5t22 -54.5t-22.5 -54t-53.5 -22q-32 0 -54.5 22t-22.5 54z" />
    <glyph glyph-name="Eth" unicode="&#xd0;" horiz-adv-x="762" 
d="M110 718h227q175 0 284 -95.5t109 -263.5q0 -166 -110 -262.5t-283 -96.5h-227v287h-106v164h106v267zM574 359q0 83 -55.5 139t-141.5 56h-115v-103h144v-164h-144v-123h115q85 0 141 54t56 141z" />
    <glyph glyph-name="Ntilde" unicode="&#xd1;" horiz-adv-x="770" 
d="M82 0v718h147l307 -445v445h152v-718h-149l-305 442v-442h-152zM313 769h-89q-15 30 -15 61q0 44 28 70.5t74 26.5q35 0 83 -25.5t61 -25.5q20 0 20 18q0 14 -9 33h89q14 -31 14 -62q0 -44 -26.5 -70t-71.5 -26q-35 0 -83 25.5t-63 25.5q-21 0 -21 -20q0 -13 9 -31z" />
    <glyph glyph-name="Ograve" unicode="&#xd2;" horiz-adv-x="816" 
d="M408 733q155 0 265.5 -106t110.5 -268t-110.5 -268t-265.5 -106t-265.5 106t-110.5 268t110.5 268t265.5 106zM408 149q94 0 157 59t63 151t-63 151t-157 59t-157 -59t-63 -151t63 -151t157 -59zM245 929h162l73 -157h-109z" />
    <glyph glyph-name="Oacute" unicode="&#xd3;" horiz-adv-x="816" 
d="M408 733q155 0 265.5 -106t110.5 -268t-110.5 -268t-265.5 -106t-265.5 106t-110.5 268t110.5 268t265.5 106zM408 149q94 0 157 59t63 151t-63 151t-157 59t-157 -59t-63 -151t63 -151t157 -59zM409 929h162l-125 -157h-110z" />
    <glyph glyph-name="Ocircumflex" unicode="&#xd4;" horiz-adv-x="816" 
d="M408 733q155 0 265.5 -106t110.5 -268t-110.5 -268t-265.5 -106t-265.5 106t-110.5 268t110.5 268t265.5 106zM408 149q94 0 157 59t63 151t-63 151t-157 59t-157 -59t-63 -151t63 -151t157 -59zM327 929h164l91 -157h-106l-67 72l-67 -72h-105z" />
    <glyph glyph-name="Otilde" unicode="&#xd5;" horiz-adv-x="816" 
d="M408 733q155 0 265.5 -106t110.5 -268t-110.5 -268t-265.5 -106t-265.5 106t-110.5 268t110.5 268t265.5 106zM408 149q94 0 157 59t63 151t-63 151t-157 59t-157 -59t-63 -151t63 -151t157 -59zM332 769h-89q-15 30 -15 61q0 44 28 70.5t74 26.5q35 0 83 -25.5t61 -25.5
q20 0 20 18q0 14 -9 33h89q14 -31 14 -62q0 -44 -26.5 -70t-71.5 -26q-36 0 -84 25.5t-62 25.5q-21 0 -21 -20q0 -13 9 -31z" />
    <glyph glyph-name="Odieresis" unicode="&#xd6;" horiz-adv-x="816" 
d="M408 733q155 0 265.5 -106t110.5 -268t-110.5 -268t-265.5 -106t-265.5 106t-110.5 268t110.5 268t265.5 106zM408 149q94 0 157 59t63 151t-63 151t-157 59t-157 -59t-63 -151t63 -151t157 -59zM221 848q0 32 22 54.5t54 22.5t54.5 -22.5t22.5 -54.5t-22.5 -54
t-54.5 -22q-31 0 -53.5 22t-22.5 54zM441 848q0 32 22.5 54.5t54.5 22.5t54 -22.5t22 -54.5t-22 -54t-54 -22t-54.5 22t-22.5 54z" />
    <glyph glyph-name="multiply" unicode="&#xd7;" horiz-adv-x="556" 
d="M44 156l150 150l-149 148l80 82l148 -150l151 150l86 -86l-149 -150l150 -149l-83 -81l-149 150l-148 -150z" />
    <glyph glyph-name="Oslash" unicode="&#xd8;" horiz-adv-x="826" 
d="M819 733l-114 -135q84 -102 84 -239q0 -162 -110.5 -268t-265.5 -106q-102 0 -187 48l-41 -48h-179l114 135q-83 101 -83 239q0 162 110.5 268t265.5 106q101 0 186 -48l41 48h179zM413 149q96 0 158 57.5t62 152.5q0 66 -33 116l-266 -314q36 -12 79 -12zM193 359
q0 -67 32 -116l266 314q-36 12 -78 12q-96 0 -158 -57.5t-62 -152.5z" />
    <glyph glyph-name="Ugrave" unicode="&#xd9;" horiz-adv-x="732" 
d="M503 289v429h152v-434q0 -132 -79 -215.5t-211 -83.5q-129 0 -208.5 82t-79.5 216v435h152v-430q0 -64 37.5 -101.5t100.5 -37.5q62 0 99 38.5t37 101.5zM208 929h162l73 -157h-109z" />
    <glyph glyph-name="Uacute" unicode="&#xda;" horiz-adv-x="732" 
d="M503 289v429h152v-434q0 -132 -79 -215.5t-211 -83.5q-129 0 -208.5 82t-79.5 216v435h152v-430q0 -64 37.5 -101.5t100.5 -37.5q62 0 99 38.5t37 101.5zM361 929h162l-125 -157h-110z" />
    <glyph glyph-name="Ucircumflex" unicode="&#xdb;" horiz-adv-x="732" 
d="M503 289v429h152v-434q0 -132 -79 -215.5t-211 -83.5q-129 0 -208.5 82t-79.5 216v435h152v-430q0 -64 37.5 -101.5t100.5 -37.5q62 0 99 38.5t37 101.5zM285 929h164l91 -157h-106l-67 72l-67 -72h-105z" />
    <glyph glyph-name="Udieresis" unicode="&#xdc;" horiz-adv-x="732" 
d="M503 289v429h152v-434q0 -132 -79 -215.5t-211 -83.5q-129 0 -208.5 82t-79.5 216v435h152v-430q0 -64 37.5 -101.5t100.5 -37.5q62 0 99 38.5t37 101.5zM179 848q0 32 22 54.5t54 22.5t54.5 -22.5t22.5 -54.5t-22.5 -54t-54.5 -22q-31 0 -53.5 22t-22.5 54zM399 848
q0 32 22.5 54.5t54.5 22.5t54 -22.5t22 -54.5t-22 -54t-54 -22t-54.5 22t-22.5 54z" />
    <glyph glyph-name="Yacute" unicode="&#xdd;" horiz-adv-x="615" 
d="M233 301l-230 417h167l136 -243l137 243h169l-228 -417v-301h-151v301zM317 929h162l-125 -157h-110z" />
    <glyph glyph-name="Thorn" unicode="&#xde;" horiz-adv-x="552" 
d="M82 718h152v-132h57q103 0 171 -63t68 -164q0 -99 -66.5 -162.5t-171.5 -63.5h-58v-133h-152v718zM309 427h-75v-135h75q31 0 50.5 18t19.5 49t-19 49.5t-51 18.5z" />
    <glyph glyph-name="germandbls" unicode="&#xdf;" horiz-adv-x="641" 
d="M385 524q0 29 -22 50t-58 21q-38 0 -61.5 -25t-23.5 -65v-505h-147v513q0 105 64.5 167.5t165.5 62.5q98 0 164.5 -61.5t66.5 -149.5q0 -78 -46 -121q51 -23 84 -75t33 -113q0 -97 -65 -165t-159 -68q-82 0 -120 41l29 128q28 -21 71 -21t69 24t26 60q0 43 -32 68.5
t-82 25.5h-51v137h8q86 0 86 71z" />
    <glyph glyph-name="agrave" unicode="&#xe0;" horiz-adv-x="574" 
d="M358 153v37q-6 11 -29 20.5t-53 9.5q-43 0 -65.5 -14t-22.5 -38q0 -25 23 -38.5t64 -13.5q30 0 52.5 10.5t30.5 26.5zM100 332l-34 118q24 40 84.5 64.5t122.5 24.5q105 0 168.5 -56t63.5 -156v-327h-142v45q-18 -28 -57.5 -44t-82.5 -16q-78 0 -131 48t-53 125
q0 80 60 126.5t143 46.5q35 0 62.5 -6.5t39 -13.5t14.5 -13v14q0 39 -28.5 59t-73.5 20q-47 0 -90.5 -17t-65.5 -42zM129 757h164l73 -167h-112z" />
    <glyph glyph-name="aacute" unicode="&#xe1;" horiz-adv-x="574" 
d="M358 153v37q-6 11 -29 20.5t-53 9.5q-43 0 -65.5 -14t-22.5 -38q0 -25 23 -38.5t64 -13.5q30 0 52.5 10.5t30.5 26.5zM100 332l-34 118q24 40 84.5 64.5t122.5 24.5q105 0 168.5 -56t63.5 -156v-327h-142v45q-18 -28 -57.5 -44t-82.5 -16q-78 0 -131 48t-53 125
q0 80 60 126.5t143 46.5q35 0 62.5 -6.5t39 -13.5t14.5 -13v14q0 39 -28.5 59t-73.5 20q-47 0 -90.5 -17t-65.5 -42zM277 757h164l-125 -167h-112z" />
    <glyph glyph-name="acircumflex" unicode="&#xe2;" horiz-adv-x="574" 
d="M358 153v37q-6 11 -29 20.5t-53 9.5q-43 0 -65.5 -14t-22.5 -38q0 -25 23 -38.5t64 -13.5q30 0 52.5 10.5t30.5 26.5zM100 332l-34 118q24 40 84.5 64.5t122.5 24.5q105 0 168.5 -56t63.5 -156v-327h-142v45q-18 -28 -57.5 -44t-82.5 -16q-78 0 -131 48t-53 125
q0 80 60 126.5t143 46.5q35 0 62.5 -6.5t39 -13.5t14.5 -13v14q0 39 -28.5 59t-73.5 20q-47 0 -90.5 -17t-65.5 -42zM200 757h173l90 -167h-110l-67 82l-67 -82h-110z" />
    <glyph glyph-name="atilde" unicode="&#xe3;" horiz-adv-x="574" 
d="M358 153v37q-6 11 -29 20.5t-53 9.5q-43 0 -65.5 -14t-22.5 -38q0 -25 23 -38.5t64 -13.5q30 0 52.5 10.5t30.5 26.5zM100 332l-34 118q24 40 84.5 64.5t122.5 24.5q105 0 168.5 -56t63.5 -156v-327h-142v45q-18 -28 -57.5 -44t-82.5 -16q-78 0 -131 48t-53 125
q0 80 60 126.5t143 46.5q35 0 62.5 -6.5t39 -13.5t14.5 -13v14q0 39 -28.5 59t-73.5 20q-47 0 -90.5 -17t-65.5 -42zM211 592h-89q-15 30 -15 61q0 44 28 70.5t74 26.5q35 0 83 -25.5t61 -25.5q20 0 20 18q0 13 -9 33h89q14 -31 14 -62q0 -44 -26.5 -70t-71.5 -26
q-35 0 -83 25.5t-63 25.5q-21 0 -21 -20q0 -13 9 -31z" />
    <glyph glyph-name="adieresis" unicode="&#xe4;" horiz-adv-x="574" 
d="M358 153v37q-6 11 -29 20.5t-53 9.5q-43 0 -65.5 -14t-22.5 -38q0 -25 23 -38.5t64 -13.5q30 0 52.5 10.5t30.5 26.5zM100 332l-34 118q24 40 84.5 64.5t122.5 24.5q105 0 168.5 -56t63.5 -156v-327h-142v45q-18 -28 -57.5 -44t-82.5 -16q-78 0 -131 48t-53 125
q0 80 60 126.5t143 46.5q35 0 62.5 -6.5t39 -13.5t14.5 -13v14q0 39 -28.5 59t-73.5 20q-47 0 -90.5 -17t-65.5 -42zM100 671q0 33 24 56.5t57 23.5q34 0 57.5 -23t23.5 -57t-23.5 -57t-57.5 -23q-33 0 -57 23.5t-24 56.5zM309 671q0 34 23.5 57t57.5 23q33 0 56.5 -23
t23.5 -57t-23.5 -57t-56.5 -23q-34 0 -57.5 23t-23.5 57z" />
    <glyph glyph-name="aring" unicode="&#xe5;" horiz-adv-x="574" 
d="M358 153v37q-6 11 -29 20.5t-53 9.5q-43 0 -65.5 -14t-22.5 -38q0 -25 23 -38.5t64 -13.5q30 0 52.5 10.5t30.5 26.5zM100 332l-34 118q24 40 84.5 64.5t122.5 24.5q105 0 168.5 -56t63.5 -156v-327h-142v45q-18 -28 -57.5 -44t-82.5 -16q-78 0 -131 48t-53 125
q0 80 60 126.5t143 46.5q35 0 62.5 -6.5t39 -13.5t14.5 -13v14q0 39 -28.5 59t-73.5 20q-47 0 -90.5 -17t-65.5 -42zM173 689q0 47 33.5 80.5t81.5 33.5t81.5 -33.5t33.5 -80.5t-33.5 -80.5t-81.5 -33.5t-81.5 33.5t-33.5 80.5zM323 689q0 14 -10 23t-25 9t-25 -9t-10 -23
t10 -23t25 -9t25 9t10 23z" />
    <glyph glyph-name="ae" unicode="&#xe6;" horiz-adv-x="925" 
d="M98 330l-34 118q24 41 84 66t122 25q112 0 177 -62q75 62 178 62q114 0 187.5 -82.5t73.5 -195.5q0 -34 -3 -52h-381q10 -40 47 -60.5t91 -20.5q49 0 93 17.5t66 48.5l49 -117q-29 -44 -84.5 -68t-127.5 -24q-134 0 -215 86q-63 -86 -196 -86q-80 0 -133 48t-53 125
q0 80 60 126.5t143 46.5q35 0 62.5 -6.5t39 -13.5t14.5 -13v13q0 42 -30 62.5t-72 20.5q-48 0 -91.5 -18.5t-66.5 -45.5zM358 153v37q-6 11 -29 20.5t-53 9.5q-43 0 -65.5 -14t-22.5 -38q0 -25 23 -38.5t64 -13.5q30 0 52.5 10.5t30.5 26.5zM505 319h233q-7 37 -38 56
t-75 19q-45 0 -78 -19t-42 -56z" />
    <glyph glyph-name="ccedilla" unicode="&#xe7;" horiz-adv-x="554" 
d="M333 -119q0 23 -32 23q-22 0 -39 -7l-18 40l15 53q-95 19 -157.5 93t-62.5 179q0 120 80.5 198.5t193.5 78.5q65 0 118.5 -27t80.5 -68l-43 -125q-21 27 -58 45.5t-85 18.5q-62 0 -100 -33.5t-38 -87.5t38 -87.5t100 -33.5q88 0 144 66l46 -128q-26 -39 -75 -64t-109 -29
l-7 -25q45 2 73.5 -20.5t28.5 -61.5q0 -46 -34 -72.5t-86 -26.5q-34 0 -66 14t-47 34l13 63q46 -32 92 -32q34 0 34 22z" />
    <glyph glyph-name="egrave" unicode="&#xe8;" horiz-adv-x="613" 
d="M574 261q0 -34 -3 -52h-381q10 -40 47 -60.5t91 -20.5q50 0 94 17t66 48l47 -113q-29 -44 -84.5 -69.5t-126.5 -25.5q-123 0 -204 75.5t-81 200.5q0 116 75.5 197t198.5 81q114 0 187.5 -82.5t73.5 -195.5zM193 319h233q-7 37 -38 56.5t-75 19.5q-45 0 -78 -19.5
t-42 -56.5zM133 757h164l73 -167h-112z" />
    <glyph glyph-name="eacute" unicode="&#xe9;" horiz-adv-x="613" 
d="M574 261q0 -34 -3 -52h-381q10 -40 47 -60.5t91 -20.5q50 0 94 17t66 48l47 -113q-29 -44 -84.5 -69.5t-126.5 -25.5q-123 0 -204 75.5t-81 200.5q0 116 75.5 197t198.5 81q114 0 187.5 -82.5t73.5 -195.5zM193 319h233q-7 37 -38 56.5t-75 19.5q-45 0 -78 -19.5
t-42 -56.5zM315 757h164l-125 -167h-112z" />
    <glyph glyph-name="ecircumflex" unicode="&#xea;" horiz-adv-x="613" 
d="M574 261q0 -34 -3 -52h-381q10 -40 47 -60.5t91 -20.5q50 0 94 17t66 48l47 -113q-29 -44 -84.5 -69.5t-126.5 -25.5q-123 0 -204 75.5t-81 200.5q0 116 75.5 197t198.5 81q114 0 187.5 -82.5t73.5 -195.5zM193 319h233q-7 37 -38 56.5t-75 19.5q-45 0 -78 -19.5
t-42 -56.5zM222 757h173l90 -167h-110l-67 82l-67 -82h-110z" />
    <glyph glyph-name="edieresis" unicode="&#xeb;" horiz-adv-x="613" 
d="M574 261q0 -34 -3 -52h-381q10 -40 47 -60.5t91 -20.5q50 0 94 17t66 48l47 -113q-29 -44 -84.5 -69.5t-126.5 -25.5q-123 0 -204 75.5t-81 200.5q0 116 75.5 197t198.5 81q114 0 187.5 -82.5t73.5 -195.5zM193 319h233q-7 37 -38 56.5t-75 19.5q-45 0 -78 -19.5
t-42 -56.5zM128 671q0 33 24 56.5t57 23.5q34 0 57.5 -23t23.5 -57t-23.5 -57t-57.5 -23q-33 0 -57 23.5t-24 56.5zM337 671q0 34 23.5 57t57.5 23q33 0 56.5 -23t23.5 -57t-23.5 -57t-56.5 -23q-34 0 -57.5 23t-23.5 57z" />
    <glyph glyph-name="igrave" unicode="&#xec;" horiz-adv-x="299" 
d="M76 0v524h147v-524h-147zM-28 757h164l73 -167h-112z" />
    <glyph glyph-name="iacute" unicode="&#xed;" horiz-adv-x="299" 
d="M76 0v524h147v-524h-147zM165 757h164l-125 -167h-112z" />
    <glyph glyph-name="icircumflex" unicode="&#xee;" horiz-adv-x="299" 
d="M76 0v524h147v-524h-147zM63 757h173l90 -167h-110l-67 82l-67 -82h-110z" />
    <glyph glyph-name="idieresis" unicode="&#xef;" horiz-adv-x="299" 
d="M76 0v524h147v-524h-147zM-36 671q0 33 24 56.5t57 23.5q34 0 57.5 -23t23.5 -57t-23.5 -57t-57.5 -23q-33 0 -57 23.5t-24 56.5zM173 671q0 34 23.5 57t57.5 23q33 0 56.5 -23t23.5 -57t-23.5 -57t-56.5 -23q-34 0 -57.5 23t-23.5 57z" />
    <glyph glyph-name="eth" unicode="&#xf0;" horiz-adv-x="636" 
d="M347 728l17 -26l102 43l42 -93l-85 -36l90 -134q85 -127 85 -226q0 -116 -78 -193.5t-198 -77.5q-116 0 -199.5 74t-83.5 187q0 120 79 187.5t216 74.5l-37 55l-124 -51l-42 94l107 44l-51 78h160zM319 141q60 0 97 32t37 81t-37 81t-97 32t-97.5 -32t-37.5 -81t37.5 -81
t97.5 -32z" />
    <glyph glyph-name="ntilde" unicode="&#xf1;" horiz-adv-x="636" 
d="M353 539q88 0 153.5 -59t65.5 -171v-309h-147v277q0 50 -28.5 78t-72.5 28q-38 0 -68.5 -20t-35.5 -50v-313h-147v524h142v-51q11 30 47 48t91 18zM248 592h-89q-15 30 -15 61q0 44 28 70.5t74 26.5q35 0 83 -25.5t61 -25.5q20 0 20 18q0 13 -9 33h89q14 -31 14 -62
q0 -44 -26.5 -70t-71.5 -26q-36 0 -84 25.5t-62 25.5q-21 0 -21 -20q0 -13 9 -31z" />
    <glyph glyph-name="ograve" unicode="&#xf2;" horiz-adv-x="643" 
d="M322 539q115 0 199 -79.5t84 -197.5t-84 -197.5t-199 -79.5t-199 79.5t-84 197.5t84 197.5t199 79.5zM322 141q56 0 95 34t39 87t-39 87t-95 34t-95 -34t-39 -87t39 -87t95 -34zM152 757h164l73 -167h-112z" />
    <glyph glyph-name="oacute" unicode="&#xf3;" horiz-adv-x="643" 
d="M322 539q115 0 199 -79.5t84 -197.5t-84 -197.5t-199 -79.5t-199 79.5t-84 197.5t84 197.5t199 79.5zM322 141q56 0 95 34t39 87t-39 87t-95 34t-95 -34t-39 -87t39 -87t95 -34zM328 757h164l-125 -167h-112z" />
    <glyph glyph-name="ocircumflex" unicode="&#xf4;" horiz-adv-x="643" 
d="M322 539q115 0 199 -79.5t84 -197.5t-84 -197.5t-199 -79.5t-199 79.5t-84 197.5t84 197.5t199 79.5zM322 141q56 0 95 34t39 87t-39 87t-95 34t-95 -34t-39 -87t39 -87t95 -34zM235 757h173l90 -167h-110l-67 82l-67 -82h-110z" />
    <glyph glyph-name="otilde" unicode="&#xf5;" horiz-adv-x="643" 
d="M322 539q115 0 199 -79.5t84 -197.5t-84 -197.5t-199 -79.5t-199 79.5t-84 197.5t84 197.5t199 79.5zM322 141q56 0 95 34t39 87t-39 87t-95 34t-95 -34t-39 -87t39 -87t95 -34zM245 592h-89q-15 30 -15 61q0 44 28 70.5t74 26.5q35 0 83 -25.5t61 -25.5q20 0 20 18
q0 13 -9 33h89q14 -31 14 -62q0 -44 -26.5 -70t-71.5 -26q-35 0 -83 25.5t-63 25.5q-21 0 -21 -20q0 -13 9 -31z" />
    <glyph glyph-name="odieresis" unicode="&#xf6;" horiz-adv-x="643" 
d="M322 539q115 0 199 -79.5t84 -197.5t-84 -197.5t-199 -79.5t-199 79.5t-84 197.5t84 197.5t199 79.5zM322 141q56 0 95 34t39 87t-39 87t-95 34t-95 -34t-39 -87t39 -87t95 -34zM137 671q0 33 24 56.5t57 23.5q34 0 57.5 -23t23.5 -57t-23.5 -57t-57.5 -23
q-33 0 -57 23.5t-24 56.5zM346 671q0 34 23.5 57t57.5 23q33 0 56.5 -23t23.5 -57t-23.5 -57t-56.5 -23q-34 0 -57.5 23t-23.5 57z" />
    <glyph glyph-name="divide" unicode="&#xf7;" horiz-adv-x="539" 
d="M44 236v125h450v-125h-450zM180 496q0 36 25.5 62t62.5 26q36 0 62 -26t26 -62q0 -37 -26 -62.5t-62 -25.5q-37 0 -62.5 25.5t-25.5 62.5zM180 101q0 36 25.5 62t62.5 26q36 0 62 -26t26 -62q0 -37 -26 -62.5t-62 -25.5q-37 0 -62.5 25.5t-25.5 62.5z" />
    <glyph glyph-name="oslash" unicode="&#xf8;" horiz-adv-x="652" 
d="M327 539q66 0 126 -29l24 29h167l-92 -109q58 -74 58 -168q0 -118 -84 -197.5t-199 -79.5q-66 0 -127 29l-25 -29h-167l93 109q-57 73 -57 168q0 118 84 197.5t199 79.5zM327 135q59 0 100.5 35.5t41.5 91.5q0 29 -13 55l-153 -181q8 -1 24 -1zM185 262q0 -30 12 -54
l152 179q-14 2 -22 2q-59 0 -100.5 -35.5t-41.5 -91.5z" />
    <glyph glyph-name="ugrave" unicode="&#xf9;" horiz-adv-x="632" 
d="M281 -15q-88 0 -152.5 59t-64.5 171v309h147v-277q0 -50 27.5 -78t71.5 -28q38 0 68 20t35 50v313h147v-524h-142v51q-11 -30 -46.5 -48t-90.5 -18zM148 757h164l73 -167h-112z" />
    <glyph glyph-name="uacute" unicode="&#xfa;" horiz-adv-x="632" 
d="M281 -15q-88 0 -152.5 59t-64.5 171v309h147v-277q0 -50 27.5 -78t71.5 -28q38 0 68 20t35 50v313h147v-524h-142v51q-11 -30 -46.5 -48t-90.5 -18zM312 757h164l-125 -167h-112z" />
    <glyph glyph-name="ucircumflex" unicode="&#xfb;" horiz-adv-x="632" 
d="M281 -15q-88 0 -152.5 59t-64.5 171v309h147v-277q0 -50 27.5 -78t71.5 -28q38 0 68 20t35 50v313h147v-524h-142v51q-11 -30 -46.5 -48t-90.5 -18zM227 757h173l90 -167h-110l-67 82l-67 -82h-110z" />
    <glyph glyph-name="udieresis" unicode="&#xfc;" horiz-adv-x="632" 
d="M281 -15q-88 0 -152.5 59t-64.5 171v309h147v-277q0 -50 27.5 -78t71.5 -28q38 0 68 20t35 50v313h147v-524h-142v51q-11 -30 -46.5 -48t-90.5 -18zM129 671q0 33 24 56.5t57 23.5q34 0 57.5 -23t23.5 -57t-23.5 -57t-57.5 -23q-33 0 -57 23.5t-24 56.5zM338 671
q0 34 23.5 57t57.5 23q33 0 56.5 -23t23.5 -57t-23.5 -57t-56.5 -23q-34 0 -57.5 23t-23.5 57z" />
    <glyph glyph-name="yacute" unicode="&#xfd;" horiz-adv-x="604" 
d="M221 42l-205 482h158l125 -294l125 294h162l-314 -737h-160zM298 757h164l-125 -167h-112z" />
    <glyph glyph-name="thorn" unicode="&#xfe;" horiz-adv-x="671" 
d="M633 262q0 -121 -77.5 -199t-184.5 -78q-55 0 -96 19.5t-55 49.5v-267h-147v941h147v-258q14 30 55 49.5t96 19.5q107 0 184.5 -78t77.5 -199zM484 262q0 53 -38.5 87t-99.5 34q-44 0 -79.5 -17t-46.5 -43v-122q11 -26 46.5 -43t79.5 -17q61 0 99.5 34t38.5 87z" />
    <glyph glyph-name="ydieresis" unicode="&#xff;" horiz-adv-x="604" 
d="M221 42l-205 482h158l125 -294l125 294h162l-314 -737h-160zM116 671q0 33 24 56.5t57 23.5q34 0 57.5 -23t23.5 -57t-23.5 -57t-57.5 -23q-33 0 -57 23.5t-24 56.5zM325 671q0 34 23.5 57t57.5 23q33 0 56.5 -23t23.5 -57t-23.5 -57t-56.5 -23q-34 0 -57.5 23t-23.5 57z
" />
    <glyph glyph-name="Amacron" unicode="&#x100;" horiz-adv-x="723" 
d="M434 718l286 -718h-158l-54 138h-289l-55 -138h-161l287 718h144zM364 502l-85 -207h166zM193 889h336v-105h-336v105z" />
    <glyph glyph-name="amacron" unicode="&#x101;" horiz-adv-x="574" 
d="M358 153v37q-6 11 -29 20.5t-53 9.5q-43 0 -65.5 -14t-22.5 -38q0 -25 23 -38.5t64 -13.5q30 0 52.5 10.5t30.5 26.5zM100 332l-34 118q24 40 84.5 64.5t122.5 24.5q105 0 168.5 -56t63.5 -156v-327h-142v45q-18 -28 -57.5 -44t-82.5 -16q-78 0 -131 48t-53 125
q0 80 60 126.5t143 46.5q35 0 62.5 -6.5t39 -13.5t14.5 -13v14q0 39 -28.5 59t-73.5 20q-47 0 -90.5 -17t-65.5 -42zM119 715h336v-108h-336v108z" />
    <glyph glyph-name="Abreve" unicode="&#x102;" horiz-adv-x="723" 
d="M434 718l286 -718h-158l-54 138h-289l-55 -138h-161l287 718h144zM364 502l-85 -207h166zM408 926h106q1 -64 -44 -110t-109 -46t-109 46t-44 110h107q-2 -17 12 -30t34 -13q21 0 35 13t12 30z" />
    <glyph glyph-name="abreve" unicode="&#x103;" horiz-adv-x="574" 
d="M358 153v37q-6 11 -29 20.5t-53 9.5q-43 0 -65.5 -14t-22.5 -38q0 -25 23 -38.5t64 -13.5q30 0 52.5 10.5t30.5 26.5zM100 332l-34 118q24 40 84.5 64.5t122.5 24.5q105 0 168.5 -56t63.5 -156v-327h-142v45q-18 -28 -57.5 -44t-82.5 -16q-78 0 -131 48t-53 125
q0 80 60 126.5t143 46.5q35 0 62.5 -6.5t39 -13.5t14.5 -13v14q0 39 -28.5 59t-73.5 20q-47 0 -90.5 -17t-65.5 -42zM335 750h106q1 -64 -44 -110.5t-109 -46.5t-109 46.5t-44 110.5h107q-1 -18 12.5 -31t33.5 -13q21 0 35 13t12 31z" />
    <glyph glyph-name="Aogonek" unicode="&#x104;" horiz-adv-x="723" 
d="M639 0h-77l-54 138h-289l-55 -138h-161l287 718h144l286 -718q-40 -35 -40 -69q0 -14 10.5 -23.5t24.5 -9.5q22 0 32 10l15 -103q-25 -31 -75 -31q-56 0 -89.5 31.5t-33.5 79.5q0 40 24.5 69.5t50.5 45.5zM364 502l-85 -207h166z" />
    <glyph glyph-name="aogonek" unicode="&#x105;" horiz-adv-x="574" 
d="M424 0h-61v45q-18 -28 -57.5 -44t-82.5 -16q-78 0 -131 48t-53 125q0 80 60 126.5t143 46.5q35 0 62.5 -6.5t39 -13.5t14.5 -13v14q0 39 -28.5 59t-73.5 20q-47 0 -90.5 -17t-65.5 -42l-34 118q24 40 84.5 64.5t122.5 24.5q105 0 168.5 -56t63.5 -156v-327
q-40 -35 -40 -69q0 -14 10.5 -23.5t24.5 -9.5q22 0 32 10l15 -103q-25 -31 -75 -31q-56 0 -89.5 31.5t-33.5 79.5q0 40 24.5 69.5t50.5 45.5zM358 153v37q-6 11 -29 20.5t-53 9.5q-43 0 -65.5 -14t-22.5 -38q0 -25 23 -38.5t64 -13.5q30 0 52.5 10.5t30.5 26.5z" />
    <glyph glyph-name="Cacute" unicode="&#x106;" horiz-adv-x="706" 
d="M420 149q70 0 125 28t85 69l48 -137q-33 -56 -104.5 -90t-166.5 -34q-150 0 -262.5 106.5t-112.5 267.5t112.5 267.5t262.5 106.5q91 0 162.5 -35t103.5 -88l-47 -134q-31 39 -85.5 66t-120.5 27q-102 0 -167 -57.5t-65 -152.5t65 -152.5t167 -57.5zM401 929h162
l-125 -157h-110z" />
    <glyph glyph-name="cacute" unicode="&#x107;" horiz-adv-x="554" 
d="M326 141q88 0 144 66l46 -128q-28 -42 -82.5 -68t-120.5 -26q-113 0 -193.5 78.5t-80.5 198.5t80.5 198.5t193.5 78.5q65 0 118.5 -27t80.5 -68l-43 -125q-21 27 -58 45.5t-85 18.5q-62 0 -100 -33.5t-38 -87.5t38 -87.5t100 -33.5zM312 757h164l-125 -167h-112z" />
    <glyph glyph-name="Ccircumflex" unicode="&#x108;" horiz-adv-x="706" 
d="M420 149q70 0 125 28t85 69l48 -137q-33 -56 -104.5 -90t-166.5 -34q-150 0 -262.5 106.5t-112.5 267.5t112.5 267.5t262.5 106.5q91 0 162.5 -35t103.5 -88l-47 -134q-31 39 -85.5 66t-120.5 27q-102 0 -167 -57.5t-65 -152.5t65 -152.5t167 -57.5zM309 929h164l91 -157
h-106l-67 72l-67 -72h-105z" />
    <glyph glyph-name="ccircumflex" unicode="&#x109;" horiz-adv-x="554" 
d="M326 141q88 0 144 66l46 -128q-28 -42 -82.5 -68t-120.5 -26q-113 0 -193.5 78.5t-80.5 198.5t80.5 198.5t193.5 78.5q65 0 118.5 -27t80.5 -68l-43 -125q-21 27 -58 45.5t-85 18.5q-62 0 -100 -33.5t-38 -87.5t38 -87.5t100 -33.5zM211 757h173l90 -167h-110l-67 82
l-67 -82h-110z" />
    <glyph glyph-name="Cdotaccent" unicode="&#x10a;" horiz-adv-x="706" 
d="M420 149q70 0 125 28t85 69l48 -137q-33 -56 -104.5 -90t-166.5 -34q-150 0 -262.5 106.5t-112.5 267.5t112.5 267.5t262.5 106.5q91 0 162.5 -35t103.5 -88l-47 -134q-31 39 -85.5 66t-120.5 27q-102 0 -167 -57.5t-65 -152.5t65 -152.5t167 -57.5zM310 847
q0 35 24 59.5t58 24.5q35 0 59.5 -24.5t24.5 -59.5q0 -34 -24.5 -58t-59.5 -24q-34 0 -58 24t-24 58z" />
    <glyph glyph-name="cdotaccent" unicode="&#x10b;" horiz-adv-x="554" 
d="M326 141q88 0 144 66l46 -128q-28 -42 -82.5 -68t-120.5 -26q-113 0 -193.5 78.5t-80.5 198.5t80.5 198.5t193.5 78.5q65 0 118.5 -27t80.5 -68l-43 -125q-21 27 -58 45.5t-85 18.5q-62 0 -100 -33.5t-38 -87.5t38 -87.5t100 -33.5zM215 677q0 40 27.5 68t67.5 28t68 -28
t28 -68t-28 -67.5t-68 -27.5t-67.5 27.5t-27.5 67.5z" />
    <glyph glyph-name="Ccaron" unicode="&#x10c;" horiz-adv-x="706" 
d="M420 149q70 0 125 28t85 69l48 -137q-33 -56 -104.5 -90t-166.5 -34q-150 0 -262.5 106.5t-112.5 267.5t112.5 267.5t262.5 106.5q91 0 162.5 -35t103.5 -88l-47 -134q-31 39 -85.5 66t-120.5 27q-102 0 -167 -57.5t-65 -152.5t65 -152.5t167 -57.5zM471 772h-164
l-91 157h106l67 -72l67 72h105z" />
    <glyph glyph-name="ccaron" unicode="&#x10d;" horiz-adv-x="554" 
d="M326 141q88 0 144 66l46 -128q-28 -42 -82.5 -68t-120.5 -26q-113 0 -193.5 78.5t-80.5 198.5t80.5 198.5t193.5 78.5q65 0 118.5 -27t80.5 -68l-43 -125q-21 27 -58 45.5t-85 18.5q-62 0 -100 -33.5t-38 -87.5t38 -87.5t100 -33.5zM383 590h-173l-90 167h110l67 -82
l67 82h110z" />
    <glyph glyph-name="Dcaron" unicode="&#x10e;" horiz-adv-x="734" 
d="M546 359q0 83 -55.5 139t-141.5 56h-115v-390h115q85 0 141 54t56 141zM82 718h227q175 0 284 -95.5t109 -263.5q0 -166 -110 -262.5t-283 -96.5h-227v718zM426 772h-164l-91 157h106l67 -72l67 72h105z" />
    <glyph glyph-name="dcaron" unicode="&#x10f;" horiz-adv-x="820" 
d="M452 470v258h147v-728h-142v54q-14 -30 -55.5 -49.5t-100.5 -19.5q-107 0 -184.5 78t-77.5 199t77.5 199t184.5 78q55 0 96 -19.5t55 -49.5zM452 201v122q-11 26 -46.5 43t-79.5 17q-61 0 -99.5 -34t-38.5 -87t38.5 -87t99.5 -34q44 0 79.5 17t46.5 43zM816 568l-50 -75
h-80l50 100q-21 6 -35.5 23t-14.5 44q0 30 24 51.5t59 21.5q34 0 56.5 -22.5t22.5 -54.5q0 -41 -32 -88z" />
    <glyph glyph-name="Dcroat" unicode="&#x110;" horiz-adv-x="762" 
d="M110 718h227q175 0 284 -95.5t109 -263.5q0 -166 -110 -262.5t-283 -96.5h-227v287h-106v164h106v267zM574 359q0 83 -55.5 139t-141.5 56h-115v-103h144v-164h-144v-123h115q85 0 141 54t56 141z" />
    <glyph glyph-name="dcroat" unicode="&#x111;" horiz-adv-x="674" 
d="M452 449v109h-150v101h150v69h147v-69h75v-101h-75v-558h-142v52q-14 -29 -55.5 -48t-100.5 -19q-107 0 -184.5 74t-77.5 191t77.5 192t184.5 75q55 0 96 -19.5t55 -48.5zM452 197v108q-11 24 -46.5 40t-79.5 16q-61 0 -99.5 -31t-38.5 -80t38.5 -79t99.5 -30
q44 0 79.5 16t46.5 40z" />
    <glyph glyph-name="Emacron" unicode="&#x112;" horiz-adv-x="545" 
d="M82 0v718h403v-164h-251v-103h221v-164h-221v-123h251v-164h-403zM112 889h336v-105h-336v105z" />
    <glyph glyph-name="emacron" unicode="&#x113;" horiz-adv-x="613" 
d="M574 261q0 -34 -3 -52h-381q10 -40 47 -60.5t91 -20.5q50 0 94 17t66 48l47 -113q-29 -44 -84.5 -69.5t-126.5 -25.5q-123 0 -204 75.5t-81 200.5q0 116 75.5 197t198.5 81q114 0 187.5 -82.5t73.5 -195.5zM193 319h233q-7 37 -38 56.5t-75 19.5q-45 0 -78 -19.5
t-42 -56.5zM149 715h336v-108h-336v108z" />
    <glyph glyph-name="Ebreve" unicode="&#x114;" horiz-adv-x="545" 
d="M82 0v718h403v-164h-251v-103h221v-164h-221v-123h251v-164h-403zM326 926h106q1 -64 -44 -110t-109 -46t-109 46t-44 110h107q-2 -17 12 -30t34 -13q21 0 35 13t12 30z" />
    <glyph glyph-name="ebreve" unicode="&#x115;" horiz-adv-x="613" 
d="M574 261q0 -34 -3 -52h-381q10 -40 47 -60.5t91 -20.5q50 0 94 17t66 48l47 -113q-29 -44 -84.5 -69.5t-126.5 -25.5q-123 0 -204 75.5t-81 200.5q0 116 75.5 197t198.5 81q114 0 187.5 -82.5t73.5 -195.5zM193 319h233q-7 37 -38 56.5t-75 19.5q-45 0 -78 -19.5
t-42 -56.5zM358 750h106q1 -64 -44 -110.5t-109 -46.5t-109 46.5t-44 110.5h107q-1 -18 12.5 -31t33.5 -13q21 0 35 13t12 31z" />
    <glyph glyph-name="Edotaccent" unicode="&#x116;" horiz-adv-x="545" 
d="M82 0v718h403v-164h-251v-103h221v-164h-221v-123h251v-164h-403zM197 847q0 35 24 59.5t58 24.5q35 0 59.5 -24.5t24.5 -59.5q0 -34 -24.5 -58t-59.5 -24q-34 0 -58 24t-24 58z" />
    <glyph glyph-name="edotaccent" unicode="&#x117;" horiz-adv-x="613" 
d="M574 261q0 -34 -3 -52h-381q10 -40 47 -60.5t91 -20.5q50 0 94 17t66 48l47 -113q-29 -44 -84.5 -69.5t-126.5 -25.5q-123 0 -204 75.5t-81 200.5q0 116 75.5 197t198.5 81q114 0 187.5 -82.5t73.5 -195.5zM193 319h233q-7 37 -38 56.5t-75 19.5q-45 0 -78 -19.5
t-42 -56.5zM222 677q0 40 27.5 68t67.5 28t68 -28t28 -68t-28 -67.5t-68 -27.5t-67.5 27.5t-27.5 67.5z" />
    <glyph glyph-name="Eogonek" unicode="&#x118;" horiz-adv-x="537" 
d="M82 0v718h403v-164h-251v-103h221v-164h-221v-123h251v-164q-40 -35 -40 -69q0 -14 10.5 -23.5t24.5 -9.5q22 0 32 10l15 -103q-25 -31 -75 -31q-56 0 -89.5 31.5t-33.5 79.5q0 40 24.5 69.5t50.5 45.5h-322z" />
    <glyph glyph-name="eogonek" unicode="&#x119;" horiz-adv-x="613" 
d="M574 261q0 -34 -3 -52h-381q10 -40 47 -60.5t91 -20.5q50 0 94 17t66 48l47 -113q-41 -39 -41 -69q0 -16 10.5 -25t26.5 -9q20 0 30 10l15 -103q-25 -31 -75 -31q-56 0 -89.5 31.5t-33.5 79.5q0 14 3 26q-30 -5 -57 -5q-123 0 -204 75.5t-81 200.5q0 116 75.5 197
t198.5 81q114 0 187.5 -82.5t73.5 -195.5zM193 319h233q-7 37 -38 56.5t-75 19.5q-45 0 -78 -19.5t-42 -56.5z" />
    <glyph glyph-name="Ecaron" unicode="&#x11a;" horiz-adv-x="545" 
d="M82 0v718h403v-164h-251v-103h221v-164h-221v-123h251v-164h-403zM362 772h-164l-91 157h106l67 -72l67 72h105z" />
    <glyph glyph-name="ecaron" unicode="&#x11b;" horiz-adv-x="613" 
d="M574 261q0 -34 -3 -52h-381q10 -40 47 -60.5t91 -20.5q50 0 94 17t66 48l47 -113q-29 -44 -84.5 -69.5t-126.5 -25.5q-123 0 -204 75.5t-81 200.5q0 116 75.5 197t198.5 81q114 0 187.5 -82.5t73.5 -195.5zM193 319h233q-7 37 -38 56.5t-75 19.5q-45 0 -78 -19.5
t-42 -56.5zM394 590h-173l-90 167h110l67 -82l67 82h110z" />
    <glyph glyph-name="Gcircumflex" unicode="&#x11c;" horiz-adv-x="757" 
d="M420 569q-105 0 -168.5 -57.5t-63.5 -153.5q0 -97 64.5 -153t172.5 -56q82 0 133 43v51h-138v157h285v-259q-98 -156 -298 -156q-150 0 -262.5 106.5t-112.5 266.5q0 161 112.5 268t262.5 107q91 0 162.5 -35t103.5 -88l-47 -134q-31 39 -85.5 66t-120.5 27zM315 929h164
l91 -157h-106l-67 72l-67 -72h-105z" />
    <glyph glyph-name="gcircumflex" unicode="&#x11d;" horiz-adv-x="661" 
d="M442 72q-14 -29 -54.5 -48.5t-95.5 -19.5q-108 0 -185.5 75t-77.5 192q0 116 78 192t185 76q59 0 100 -19.5t55 -49.5v54h142v-510q0 -108 -73 -175.5t-195 -67.5q-80 0 -145.5 30t-85.5 66l44 132q26 -30 72 -52.5t103 -22.5q54 0 93.5 25t39.5 86v37zM442 209v116
q-11 25 -46.5 41.5t-80.5 16.5q-61 0 -99 -32.5t-38 -82.5q0 -51 38 -84t99 -33q45 0 80.5 16.5t46.5 41.5zM244 757h173l90 -167h-110l-67 82l-67 -82h-110z" />
    <glyph glyph-name="Gbreve" unicode="&#x11e;" horiz-adv-x="757" 
d="M420 569q-105 0 -168.5 -57.5t-63.5 -153.5q0 -97 64.5 -153t172.5 -56q82 0 133 43v51h-138v157h285v-259q-98 -156 -298 -156q-150 0 -262.5 106.5t-112.5 266.5q0 161 112.5 268t262.5 107q91 0 162.5 -35t103.5 -88l-47 -134q-31 39 -85.5 66t-120.5 27zM441 926h106
q1 -64 -44 -110t-109 -46t-109 46t-44 110h107q-2 -17 12 -30t34 -13q21 0 35 13t12 30z" />
    <glyph glyph-name="gbreve" unicode="&#x11f;" horiz-adv-x="661" 
d="M442 72q-14 -29 -54.5 -48.5t-95.5 -19.5q-108 0 -185.5 75t-77.5 192q0 116 78 192t185 76q59 0 100 -19.5t55 -49.5v54h142v-510q0 -108 -73 -175.5t-195 -67.5q-80 0 -145.5 30t-85.5 66l44 132q26 -30 72 -52.5t103 -22.5q54 0 93.5 25t39.5 86v37zM442 209v116
q-11 25 -46.5 41.5t-80.5 16.5q-61 0 -99 -32.5t-38 -82.5q0 -51 38 -84t99 -33q45 0 80.5 16.5t46.5 41.5zM377 750h106q1 -64 -44 -110.5t-109 -46.5t-109 46.5t-44 110.5h107q-1 -18 12.5 -31t33.5 -13q21 0 35 13t12 31z" />
    <glyph glyph-name="Gdotaccent" unicode="&#x120;" horiz-adv-x="757" 
d="M420 569q-105 0 -168.5 -57.5t-63.5 -153.5q0 -97 64.5 -153t172.5 -56q82 0 133 43v51h-138v157h285v-259q-98 -156 -298 -156q-150 0 -262.5 106.5t-112.5 266.5q0 161 112.5 268t262.5 107q91 0 162.5 -35t103.5 -88l-47 -134q-31 39 -85.5 66t-120.5 27zM310 847
q0 35 24 59.5t58 24.5q35 0 59.5 -24.5t24.5 -59.5q0 -34 -24.5 -58t-59.5 -24q-34 0 -58 24t-24 58z" />
    <glyph glyph-name="gdotaccent" unicode="&#x121;" horiz-adv-x="661" 
d="M442 72q-14 -29 -54.5 -48.5t-95.5 -19.5q-108 0 -185.5 75t-77.5 192q0 116 78 192t185 76q59 0 100 -19.5t55 -49.5v54h142v-510q0 -108 -73 -175.5t-195 -67.5q-80 0 -145.5 30t-85.5 66l44 132q26 -30 72 -52.5t103 -22.5q54 0 93.5 25t39.5 86v37zM442 209v116
q-11 25 -46.5 41.5t-80.5 16.5q-61 0 -99 -32.5t-38 -82.5q0 -51 38 -84t99 -33q45 0 80.5 16.5t46.5 41.5zM235 677q0 40 27.5 68t67.5 28t68 -28t28 -68t-28 -67.5t-68 -27.5t-67.5 27.5t-27.5 67.5z" />
    <glyph glyph-name="uni0122" unicode="&#x122;" horiz-adv-x="757" 
d="M420 569q-105 0 -168.5 -57.5t-63.5 -153.5q0 -97 64.5 -153t172.5 -56q82 0 133 43v51h-138v157h285v-259q-98 -156 -298 -156q-150 0 -262.5 106.5t-112.5 266.5q0 161 112.5 268t262.5 107q91 0 162.5 -35t103.5 -88l-47 -134q-31 39 -85.5 66t-120.5 27zM452 -213
l-50 -75h-80l50 100q-21 6 -35.5 23t-14.5 44q0 30 24 51.5t59 21.5q34 0 56.5 -22.5t22.5 -54.5q0 -41 -32 -88z" />
    <glyph glyph-name="uni0123" unicode="&#x123;" horiz-adv-x="661" 
d="M442 72q-14 -29 -54.5 -48.5t-95.5 -19.5q-108 0 -185.5 75t-77.5 192q0 116 78 192t185 76q59 0 100 -19.5t55 -49.5v54h142v-510q0 -108 -73 -175.5t-195 -67.5q-80 0 -145.5 30t-85.5 66l44 132q26 -30 72 -52.5t103 -22.5q54 0 93.5 25t39.5 86v37zM442 209v116
q-11 25 -46.5 41.5t-80.5 16.5q-61 0 -99 -32.5t-38 -82.5q0 -51 38 -84t99 -33q45 0 80.5 16.5t46.5 41.5zM272 741l50 75h80l-50 -100q21 -6 35.5 -23t14.5 -44q0 -30 -24 -51.5t-59 -21.5q-34 0 -56.5 22.5t-22.5 54.5q0 41 32 88z" />
    <glyph glyph-name="Hcircumflex" unicode="&#x124;" horiz-adv-x="771" 
d="M82 0v718h152v-267h303v267h152v-718h-152v287h-303v-287h-152zM304 929h164l91 -157h-106l-67 72l-67 -72h-105z" />
    <glyph glyph-name="hcircumflex" unicode="&#x125;" horiz-adv-x="636" 
d="M220 313v-313h-147v728h147v-255q11 30 45.5 48t87.5 18q88 0 153.5 -59t65.5 -171v-309h-147v277q0 50 -28.5 78t-72.5 28q-38 0 -68.5 -20t-35.5 -50zM236 949h173l90 -167h-110l-67 82l-67 -82h-110z" />
    <glyph glyph-name="Hbar" unicode="&#x126;" horiz-adv-x="832" 
d="M7 518v103h106v97h152v-97h303v97h152v-97h105v-103h-105v-518h-152v287h-303v-287h-152v518h-106zM265 451h303v67h-303v-67z" />
    <glyph glyph-name="hbar" unicode="&#x127;" horiz-adv-x="638" 
d="M574 0h-147v238q0 50 -28.5 78t-72.5 28q-38 0 -68.5 -20t-35.5 -50v-274h-147v552h-75v117h75v59h147v-59h150v-117h-150v-118q11 30 45.5 48t87.5 18q88 0 153.5 -59t65.5 -171v-270z" />
    <glyph glyph-name="Itilde" unicode="&#x128;" horiz-adv-x="316" 
d="M82 0v718h152v-718h-152zM82 769h-89q-15 30 -15 61q0 44 28 70.5t74 26.5q35 0 83 -25.5t61 -25.5q20 0 20 18q0 14 -9 33h89q14 -31 14 -62q0 -44 -26.5 -70t-71.5 -26q-36 0 -84 25.5t-62 25.5q-21 0 -21 -20q0 -13 9 -31z" />
    <glyph glyph-name="itilde" unicode="&#x129;" horiz-adv-x="299" 
d="M76 0v524h147v-524h-147zM73 592h-89q-15 30 -15 61q0 44 28 70.5t74 26.5q35 0 83 -25.5t61 -25.5q20 0 20 18q0 13 -9 33h89q14 -31 14 -62q0 -44 -26.5 -70t-71.5 -26q-35 0 -83 25.5t-63 25.5q-21 0 -21 -20q0 -13 9 -31z" />
    <glyph glyph-name="Imacron" unicode="&#x12a;" horiz-adv-x="316" 
d="M82 0v718h152v-718h-152zM-10 889h336v-105h-336v105z" />
    <glyph glyph-name="imacron" unicode="&#x12b;" horiz-adv-x="299" 
d="M76 0v524h147v-524h-147zM-19 715h336v-108h-336v108z" />
    <glyph glyph-name="Ibreve" unicode="&#x12c;" horiz-adv-x="316" 
d="M82 0v718h152v-718h-152zM205 926h106q1 -64 -44 -110t-109 -46t-109 46t-44 110h107q-2 -17 12 -30t34 -13q21 0 35 13t12 30z" />
    <glyph glyph-name="ibreve" unicode="&#x12d;" horiz-adv-x="299" 
d="M76 0v524h147v-524h-147zM196 750h106q1 -64 -44 -110.5t-109 -46.5t-109 46.5t-44 110.5h107q-1 -18 12.5 -31t33.5 -13q21 0 35 13t12 31z" />
    <glyph glyph-name="Iogonek" unicode="&#x12e;" horiz-adv-x="316" 
d="M82 0v718h152v-718q-40 -35 -40 -69q0 -14 10.5 -23.5t24.5 -9.5q22 0 32 10l15 -103q-25 -31 -75 -31q-56 0 -89.5 31.5t-33.5 79.5q0 40 24.5 69.5t50.5 45.5h-71z" />
    <glyph glyph-name="iogonek" unicode="&#x12f;" horiz-adv-x="298" 
d="M76 0v524h147v-524q-40 -35 -40 -69q0 -14 10.5 -23.5t24.5 -9.5q22 0 32 10l15 -103q-25 -31 -75 -31q-56 0 -89.5 31.5t-33.5 79.5q0 40 24.5 69.5t50.5 45.5h-66zM54 677q0 40 27.5 68t67.5 28t68 -28t28 -68t-28 -67.5t-68 -27.5t-67.5 27.5t-27.5 67.5z" />
    <glyph glyph-name="Idotaccent" unicode="&#x130;" horiz-adv-x="316" 
d="M82 0v718h152v-718h-152zM75 847q0 35 24 59.5t58 24.5q35 0 59.5 -24.5t24.5 -59.5q0 -34 -24.5 -58t-59.5 -24q-34 0 -58 24t-24 58z" />
    <glyph glyph-name="dotlessi" unicode="&#x131;" horiz-adv-x="299" 
d="M76 0v524h147v-524h-147z" />
    <glyph glyph-name="IJ" unicode="&#x132;" horiz-adv-x="565" 
d="M82 272v446h152v-446h-152zM488 718v-501q0 -112 -59.5 -172t-176.5 -60q-50 0 -97 17t-73 52l13 156q62 -61 152 -61t90 87v482h151z" />
    <glyph glyph-name="ij" unicode="&#x133;" horiz-adv-x="593" 
d="M75 0v524h147v-524h-147zM53 677q0 40 27.5 68t67.5 28t68 -28t28 -68t-28 -67.5t-68 -27.5t-67.5 27.5t-27.5 67.5zM371 -17v541h147v-574q0 -178 -148 -178q-74 0 -114 36l15 142q29 -22 58 -22q23 0 32.5 12.5t9.5 42.5zM349 677q0 40 27.5 68t67.5 28t68 -28t28 -68
t-28 -67.5t-68 -27.5t-67.5 27.5t-27.5 67.5z" />
    <glyph glyph-name="Jcircumflex" unicode="&#x134;" horiz-adv-x="441" 
d="M363 718v-530q0 -97 -51 -150t-149 -53q-39 0 -81.5 18t-61.5 48l15 149q49 -51 110 -51q66 0 66 72v497h152zM207 929h164l91 -157h-106l-67 72l-67 -72h-105z" />
    <glyph glyph-name="jcircumflex" unicode="&#x135;" horiz-adv-x="302" 
d="M80 -17v541h147v-574q0 -178 -148 -178q-73 0 -114 36l15 142q29 -22 58 -22q23 0 32.5 12.5t9.5 42.5zM68 757h173l90 -167h-110l-67 82l-67 -82h-110z" />
    <glyph glyph-name="uni0136" unicode="&#x136;" horiz-adv-x="682" 
d="M82 0v718h152v-252l219 252h195l-296 -341l332 -377h-205l-245 282v-282h-152zM407 -213l-50 -75h-80l50 100q-21 6 -35.5 23t-14.5 44q0 30 24 51.5t59 21.5q34 0 56.5 -22.5t22.5 -54.5q0 -41 -32 -88z" />
    <glyph glyph-name="uni0137" unicode="&#x137;" horiz-adv-x="598" 
d="M73 0v728h147v-389l172 185h193l-230 -247l253 -277h-195l-193 211v-211h-147zM364 -213l-50 -75h-80l50 100q-21 6 -35.5 23t-14.5 44q0 30 24 51.5t59 21.5q34 0 56.5 -22.5t22.5 -54.5q0 -41 -32 -88z" />
    <glyph glyph-name="kgreenlandic" unicode="&#x138;" horiz-adv-x="598" 
d="M73 0v524h147v-187l173 187h194l-232 -249l253 -275h-195l-193 209v-209h-147z" />
    <glyph glyph-name="Lacute" unicode="&#x139;" horiz-adv-x="489" 
d="M82 0v718h152v-554h235v-164h-387zM174 929h162l-125 -157h-110z" />
    <glyph glyph-name="lacute" unicode="&#x13a;" horiz-adv-x="292" 
d="M73 0v728h147v-728h-147zM158 929h162l-125 -157h-110z" />
    <glyph glyph-name="uni013B" unicode="&#x13b;" horiz-adv-x="489" 
d="M82 0v718h152v-554h235v-164h-387zM327 -213l-50 -75h-80l50 100q-21 6 -35.5 23t-14.5 44q0 30 24 51.5t59 21.5q34 0 56.5 -22.5t22.5 -54.5q0 -41 -32 -88z" />
    <glyph glyph-name="uni013C" unicode="&#x13c;" horiz-adv-x="292" 
d="M73 0v728h147v-728h-147zM197 -213l-50 -75h-80l50 100q-21 6 -35.5 23t-14.5 44q0 30 24 51.5t59 21.5q34 0 56.5 -22.5t22.5 -54.5q0 -41 -32 -88z" />
    <glyph glyph-name="Lcaron" unicode="&#x13d;" horiz-adv-x="508" 
d="M82 0v718h152v-554h235v-164h-387zM450 568l-50 -75h-80l50 100q-21 6 -35.5 23t-14.5 44q0 30 24 51.5t59 21.5q34 0 56.5 -22.5t22.5 -54.5q0 -41 -32 -88z" />
    <glyph glyph-name="lcaron" unicode="&#x13e;" horiz-adv-x="441" 
d="M73 0v728h147v-728h-147zM437 568l-50 -75h-80l50 100q-21 6 -35.5 23t-14.5 44q0 30 24 51.5t59 21.5q34 0 56.5 -22.5t22.5 -54.5q0 -41 -32 -88z" />
    <glyph glyph-name="Ldot" unicode="&#x13f;" horiz-adv-x="513" 
d="M82 0v718h152v-554h235v-164h-387zM305 389q0 35 24 59.5t58 24.5q35 0 59.5 -24.5t24.5 -59.5q0 -34 -24.5 -58t-59.5 -24q-34 0 -58 24t-24 58z" />
    <glyph glyph-name="ldot" unicode="&#x140;" horiz-adv-x="470" 
d="M73 0v728h147v-728h-147zM275 379q0 40 27.5 68t67.5 28t68 -28t28 -68t-28 -67.5t-68 -27.5t-67.5 27.5t-27.5 67.5z" />
    <glyph glyph-name="Lslash" unicode="&#x141;" horiz-adv-x="525" 
d="M118 0v219l-114 -63v153l114 63v346h152v-262l170 95v-153l-170 -95v-139h235v-164h-387z" />
    <glyph glyph-name="lslash" unicode="&#x142;" horiz-adv-x="371" 
d="M112 0v271l-91 -50v153l91 50v304h147v-222l91 51v-154l-91 -51v-352h-147z" />
    <glyph glyph-name="Nacute" unicode="&#x143;" horiz-adv-x="770" 
d="M82 0v718h147l307 -445v445h152v-718h-149l-305 442v-442h-152zM387 929h162l-125 -157h-110z" />
    <glyph glyph-name="nacute" unicode="&#x144;" horiz-adv-x="636" 
d="M353 539q88 0 153.5 -59t65.5 -171v-309h-147v277q0 50 -28.5 78t-72.5 28q-38 0 -68.5 -20t-35.5 -50v-313h-147v524h142v-51q11 30 47 48t91 18zM326 757h164l-125 -167h-112z" />
    <glyph glyph-name="uni0145" unicode="&#x145;" horiz-adv-x="770" 
d="M82 0v718h147l307 -445v445h152v-718h-149l-305 442v-442h-152zM435 -213l-50 -75h-80l50 100q-21 6 -35.5 23t-14.5 44q0 30 24 51.5t59 21.5q34 0 56.5 -22.5t22.5 -54.5q0 -41 -32 -88z" />
    <glyph glyph-name="uni0146" unicode="&#x146;" horiz-adv-x="636" 
d="M353 539q88 0 153.5 -59t65.5 -171v-309h-147v277q0 50 -28.5 78t-72.5 28q-38 0 -68.5 -20t-35.5 -50v-313h-147v524h142v-51q11 30 47 48t91 18zM371 -213l-50 -75h-80l50 100q-21 6 -35.5 23t-14.5 44q0 30 24 51.5t59 21.5q34 0 56.5 -22.5t22.5 -54.5q0 -41 -32 -88
z" />
    <glyph glyph-name="Ncaron" unicode="&#x147;" horiz-adv-x="770" 
d="M82 0v718h147l307 -445v445h152v-718h-149l-305 442v-442h-152zM467 772h-164l-91 157h106l67 -72l67 72h105z" />
    <glyph glyph-name="ncaron" unicode="&#x148;" horiz-adv-x="636" 
d="M353 539q88 0 153.5 -59t65.5 -171v-309h-147v277q0 50 -28.5 78t-72.5 28q-38 0 -68.5 -20t-35.5 -50v-313h-147v524h142v-51q11 30 47 48t91 18zM409 590h-173l-90 167h110l67 -82l67 82h110z" />
    <glyph glyph-name="napostrophe" unicode="&#x149;" horiz-adv-x="636" 
d="M353 539q88 0 153.5 -59t65.5 -171v-309h-147v277q0 50 -28.5 78t-72.5 28q-38 0 -68.5 -20t-35.5 -50v-313h-147v524h142v-51q11 30 47 48t91 18zM189 637l-50 -75h-80l50 100q-21 6 -35.5 23t-14.5 44q0 30 24 51.5t59 21.5q34 0 56.5 -22.5t22.5 -54.5q0 -41 -32 -88z
" />
    <glyph glyph-name="Eng" unicode="&#x14a;" horiz-adv-x="770" 
d="M82 0v718h147l307 -445v445h152v-743q0 -97 -51 -150t-149 -53q-39 0 -81.5 18t-61.5 48l15 149q49 -51 110 -51q28 0 46.5 16.5t19.5 51.5l-302 438v-442h-152z" />
    <glyph glyph-name="eng" unicode="&#x14b;" horiz-adv-x="636" 
d="M425 -17v294q0 50 -28.5 78t-72.5 28q-38 0 -68.5 -20t-35.5 -50v-313h-147v524h142v-51q11 30 47 48t91 18q88 0 153.5 -59t65.5 -171v-359q0 -178 -148 -178q-73 0 -114 36l15 142q29 -22 58 -22q23 0 32.5 12.5t9.5 42.5z" />
    <glyph glyph-name="Omacron" unicode="&#x14c;" horiz-adv-x="816" 
d="M408 733q155 0 265.5 -106t110.5 -268t-110.5 -268t-265.5 -106t-265.5 106t-110.5 268t110.5 268t265.5 106zM408 149q94 0 157 59t63 151t-63 151t-157 59t-157 -59t-63 -151t63 -151t157 -59zM241 889h336v-105h-336v105z" />
    <glyph glyph-name="omacron" unicode="&#x14d;" horiz-adv-x="643" 
d="M322 539q115 0 199 -79.5t84 -197.5t-84 -197.5t-199 -79.5t-199 79.5t-84 197.5t84 197.5t199 79.5zM322 141q56 0 95 34t39 87t-39 87t-95 34t-95 -34t-39 -87t39 -87t95 -34zM153 715h336v-108h-336v108z" />
    <glyph glyph-name="Obreve" unicode="&#x14e;" horiz-adv-x="816" 
d="M408 733q155 0 265.5 -106t110.5 -268t-110.5 -268t-265.5 -106t-265.5 106t-110.5 268t110.5 268t265.5 106zM408 149q94 0 157 59t63 151t-63 151t-157 59t-157 -59t-63 -151t63 -151t157 -59zM455 926h106q1 -64 -44 -110t-109 -46t-109 46t-44 110h107q-2 -17 12 -30
t34 -13q21 0 35 13t12 30z" />
    <glyph glyph-name="obreve" unicode="&#x14f;" horiz-adv-x="643" 
d="M322 539q115 0 199 -79.5t84 -197.5t-84 -197.5t-199 -79.5t-199 79.5t-84 197.5t84 197.5t199 79.5zM322 141q56 0 95 34t39 87t-39 87t-95 34t-95 -34t-39 -87t39 -87t95 -34zM368 750h106q1 -64 -44 -110.5t-109 -46.5t-109 46.5t-44 110.5h107q-1 -18 12.5 -31
t33.5 -13q21 0 35 13t12 31z" />
    <glyph glyph-name="Ohungarumlaut" unicode="&#x150;" horiz-adv-x="816" 
d="M408 733q155 0 265.5 -106t110.5 -268t-110.5 -268t-265.5 -106t-265.5 106t-110.5 268t110.5 268t265.5 106zM408 149q94 0 157 59t63 151t-63 151t-157 59t-157 -59t-63 -151t63 -151t157 -59zM311 923h152l-125 -151h-100zM517 923h152l-126 -151h-99z" />
    <glyph glyph-name="ohungarumlaut" unicode="&#x151;" horiz-adv-x="641" 
d="M322 539q115 0 199 -79.5t84 -197.5t-84 -197.5t-199 -79.5t-199 79.5t-84 197.5t84 197.5t199 79.5zM322 141q56 0 95 34t39 87t-39 87t-95 34t-95 -34t-39 -87t39 -87t95 -34zM237 757h152l-125 -167h-100zM439 757h152l-126 -167h-99z" />
    <glyph glyph-name="OE" unicode="&#x152;" horiz-adv-x="1091" 
d="M629 0v54q-99 -69 -221 -69q-155 0 -265.5 106t-110.5 268t110.5 268t265.5 106q122 0 221 -69v54h402v-164h-251v-103h221v-164h-221v-123h251v-164h-402zM408 149q94 0 157 59t63 151t-63 151t-157 59t-157 -59t-63 -151t63 -151t157 -59z" />
    <glyph glyph-name="oe" unicode="&#x153;" horiz-adv-x="1025" 
d="M725 539q114 0 187.5 -82.5t73.5 -195.5q0 -34 -3 -52h-381q10 -40 47 -60.5t91 -20.5q49 0 93 17.5t66 48.5l49 -117q-29 -44 -84.5 -68t-127.5 -24q-132 0 -212 82q-84 -82 -202 -82q-115 0 -199 79.5t-84 197.5t84 197.5t199 79.5q119 0 202 -83q78 83 201 83z
M322 141q56 0 95 34t39 87t-39 87t-95 34t-95 -34t-39 -87t39 -87t95 -34zM605 319h233q-7 37 -38 56t-75 19q-45 0 -78 -19t-42 -56z" />
    <glyph glyph-name="Racute" unicode="&#x154;" horiz-adv-x="576" 
d="M82 0v718h222q87 0 151 -55.5t64 -158.5q0 -66 -32 -119t-90 -76l160 -309h-167l-150 292h-6v-292h-152zM306 559h-72v-121h72q27 0 44.5 17t17.5 45q0 26 -17 42.5t-45 16.5zM275 929h162l-125 -157h-110z" />
    <glyph glyph-name="racute" unicode="&#x155;" horiz-adv-x="428" 
d="M414 498l-21 -136q-29 21 -68 21q-85 0 -105 -78v-305h-147v524h142v-69q12 38 42.5 61t72.5 23q28 0 51 -12t33 -29zM242 757h164l-125 -167h-112z" />
    <glyph glyph-name="uni0156" unicode="&#x156;" horiz-adv-x="576" 
d="M82 0v718h222q87 0 151 -55.5t64 -158.5q0 -66 -32 -119t-90 -76l160 -309h-167l-150 292h-6v-292h-152zM306 559h-72v-121h72q27 0 44.5 17t17.5 45q0 26 -17 42.5t-45 16.5zM360 -213l-50 -75h-80l50 100q-21 6 -35.5 23t-14.5 44q0 30 24 51.5t59 21.5
q34 0 56.5 -22.5t22.5 -54.5q0 -41 -32 -88z" />
    <glyph glyph-name="uni0157" unicode="&#x157;" horiz-adv-x="428" 
d="M414 498l-21 -136q-29 21 -68 21q-85 0 -105 -78v-305h-147v524h142v-69q12 38 42.5 61t72.5 23q28 0 51 -12t33 -29zM195 -213l-50 -75h-80l50 100q-21 6 -35.5 23t-14.5 44q0 30 24 51.5t59 21.5q34 0 56.5 -22.5t22.5 -54.5q0 -41 -32 -88z" />
    <glyph glyph-name="Rcaron" unicode="&#x158;" horiz-adv-x="576" 
d="M82 0v718h222q87 0 151 -55.5t64 -158.5q0 -66 -32 -119t-90 -76l160 -309h-167l-150 292h-6v-292h-152zM306 559h-72v-121h72q27 0 44.5 17t17.5 45q0 26 -17 42.5t-45 16.5zM368 772h-164l-91 157h106l67 -72l67 72h105z" />
    <glyph glyph-name="rcaron" unicode="&#x159;" horiz-adv-x="428" 
d="M414 498l-21 -136q-29 21 -68 21q-85 0 -105 -78v-305h-147v524h142v-69q12 38 42.5 61t72.5 23q28 0 51 -12t33 -29zM323 590h-173l-90 167h110l67 -82l67 82h110z" />
    <glyph glyph-name="Sacute" unicode="&#x15a;" horiz-adv-x="511" 
d="M379 382q48 -40 75.5 -84t27.5 -103q0 -94 -63 -152t-163 -58q-76 0 -142 37.5t-86 85.5l45 140q27 -42 79 -70.5t105 -28.5q28 0 50 10.5t22 34.5q0 16 -10.5 29t-38.5 36q-17 14 -53.5 43t-60.5 49.5t-44 41.5q-70 75 -70 155q0 87 60.5 136t147.5 49q68 0 118.5 -27.5
t76.5 -66.5l-29 -143q-33 34 -79 53.5t-88 19.5q-54 0 -54 -28q0 -3 0.5 -6t2.5 -6.5t4 -6t5.5 -6l6 -6t7 -6.5t7.5 -6.5t8.5 -7t8.5 -6.5q87 -69 124 -102zM249 929h162l-125 -157h-110z" />
    <glyph glyph-name="sacute" unicode="&#x15b;" horiz-adv-x="452" 
d="M223 194l-37 19q-135 67 -135 170q0 66 50.5 111t126.5 45q113 0 164 -73l-29 -125q-56 51 -127 51q-36 0 -36 -18q0 -15 32 -30l44 -22q70 -35 103 -73.5t33 -96.5q0 -72 -53 -119.5t-138 -47.5q-63 0 -113.5 28t-68.5 64l41 125q55 -72 139 -72q47 0 47 27q0 11 -9 18
t-34 19zM226 757h164l-125 -167h-112z" />
    <glyph glyph-name="Scircumflex" unicode="&#x15c;" horiz-adv-x="511" 
d="M379 382q48 -40 75.5 -84t27.5 -103q0 -94 -63 -152t-163 -58q-76 0 -142 37.5t-86 85.5l45 140q27 -42 79 -70.5t105 -28.5q28 0 50 10.5t22 34.5q0 16 -10.5 29t-38.5 36q-17 14 -53.5 43t-60.5 49.5t-44 41.5q-70 75 -70 155q0 87 60.5 136t147.5 49q68 0 118.5 -27.5
t76.5 -66.5l-29 -143q-33 34 -79 53.5t-88 19.5q-54 0 -54 -28q0 -3 0.5 -6t2.5 -6.5t4 -6t5.5 -6l6 -6t7 -6.5t7.5 -6.5t8.5 -7t8.5 -6.5q87 -69 124 -102zM177 929h164l91 -157h-106l-67 72l-67 -72h-105z" />
    <glyph glyph-name="scircumflex" unicode="&#x15d;" horiz-adv-x="452" 
d="M223 194l-37 19q-135 67 -135 170q0 66 50.5 111t126.5 45q113 0 164 -73l-29 -125q-56 51 -127 51q-36 0 -36 -18q0 -15 32 -30l44 -22q70 -35 103 -73.5t33 -96.5q0 -72 -53 -119.5t-138 -47.5q-63 0 -113.5 28t-68.5 64l41 125q55 -72 139 -72q47 0 47 27q0 11 -9 18
t-34 19zM141 757h173l90 -167h-110l-67 82l-67 -82h-110z" />
    <glyph glyph-name="Scedilla" unicode="&#x15e;" horiz-adv-x="511" 
d="M273 -119q0 23 -32 23q-22 0 -39 -7l-18 40l15 54q-60 12 -107.5 45t-63.5 72l45 140q27 -42 79 -70.5t105 -28.5q28 0 50 10.5t22 34.5q0 16 -10.5 29t-38.5 36q-17 14 -53.5 43t-60.5 49.5t-44 41.5q-70 75 -70 155q0 87 60.5 136t147.5 49q68 0 118.5 -27.5
t76.5 -66.5l-29 -143q-33 34 -79 53.5t-88 19.5q-54 0 -54 -28q0 -3 0.5 -6t2.5 -6.5t4 -6t5.5 -6l6 -6t7 -6.5t7.5 -6.5t8.5 -7t8.5 -6.5q87 -69 124 -102q48 -40 75.5 -84t27.5 -103q0 -91 -58.5 -147.5t-151.5 -61.5l-7 -25q45 2 73.5 -20.5t28.5 -61.5q0 -46 -34 -72.5
t-86 -26.5q-34 0 -66 14t-47 34l13 63q46 -32 92 -32q34 0 34 22z" />
    <glyph glyph-name="scedilla" unicode="&#x15f;" horiz-adv-x="452" 
d="M248 -119q0 23 -32 23q-22 0 -39 -7l-18 40l15 53q-48 9 -84.5 33.5t-50.5 53.5l41 125q55 -72 139 -72q47 0 47 27q0 11 -9 18t-34 19l-37 19q-135 67 -135 170q0 66 50.5 111t126.5 45q113 0 164 -73l-29 -125q-56 51 -127 51q-36 0 -36 -18q0 -15 32 -30l44 -22
q70 -35 103 -73.5t33 -96.5q0 -66 -45.5 -112.5t-119.5 -53.5l-7 -25q45 2 73.5 -20.5t28.5 -61.5q0 -46 -34 -72.5t-86 -26.5q-34 0 -66 14t-47 34l13 63q46 -32 92 -32q34 0 34 22z" />
    <glyph glyph-name="Scaron" unicode="&#x160;" horiz-adv-x="511" 
d="M379 382q48 -40 75.5 -84t27.5 -103q0 -94 -63 -152t-163 -58q-76 0 -142 37.5t-86 85.5l45 140q27 -42 79 -70.5t105 -28.5q28 0 50 10.5t22 34.5q0 16 -10.5 29t-38.5 36q-17 14 -53.5 43t-60.5 49.5t-44 41.5q-70 75 -70 155q0 87 60.5 136t147.5 49q68 0 118.5 -27.5
t76.5 -66.5l-29 -143q-33 34 -79 53.5t-88 19.5q-54 0 -54 -28q0 -3 0.5 -6t2.5 -6.5t4 -6t5.5 -6l6 -6t7 -6.5t7.5 -6.5t8.5 -7t8.5 -6.5q87 -69 124 -102zM341 772h-164l-91 157h106l67 -72l67 72h105z" />
    <glyph glyph-name="scaron" unicode="&#x161;" horiz-adv-x="452" 
d="M223 194l-37 19q-135 67 -135 170q0 66 50.5 111t126.5 45q113 0 164 -73l-29 -125q-56 51 -127 51q-36 0 -36 -18q0 -15 32 -30l44 -22q70 -35 103 -73.5t33 -96.5q0 -72 -53 -119.5t-138 -47.5q-63 0 -113.5 28t-68.5 64l41 125q55 -72 139 -72q47 0 47 27q0 11 -9 18
t-34 19zM309 590h-173l-90 167h110l67 -82l67 82h110z" />
    <glyph glyph-name="uni0162" unicode="&#x162;" horiz-adv-x="581" 
d="M324 -119q0 23 -32 23q-22 0 -39 -7l-18 40l18 63h-38v556h-203v162h557v-162h-203v-556h-39l-11 -39q45 2 73.5 -20.5t28.5 -61.5q0 -46 -34 -72.5t-86 -26.5q-34 0 -66 14t-47 34l13 63q46 -32 92 -32q34 0 34 22z" />
    <glyph glyph-name="uni0163" unicode="&#x163;" horiz-adv-x="468" 
d="M308 -119q0 23 -32 23q-22 0 -39 -7l-18 40l15 53q-62 13 -93.5 59t-31.5 116v205h-89v42l200 244h36v-132h157v-154h-157v-171q0 -58 56 -58q41 0 77 37l31 -135q-40 -48 -113 -57l-7 -25q45 2 73.5 -20.5t28.5 -61.5q0 -46 -34 -72.5t-86 -26.5q-34 0 -66 14t-47 34
l13 63q46 -32 92 -32q34 0 34 22z" />
    <glyph glyph-name="Tcaron" unicode="&#x164;" horiz-adv-x="581" 
d="M12 556v162h557v-162h-203v-556h-151v556h-203zM373 772h-164l-91 157h106l67 -72l67 72h105z" />
    <glyph glyph-name="tcaron" unicode="&#x165;" horiz-adv-x="621" 
d="M389 178l31 -135q-47 -58 -136 -58q-86 0 -130.5 48.5t-44.5 131.5v205h-89v42l200 244h36v-132h157v-154h-157v-171q0 -58 56 -58q41 0 77 37zM592 530l-50 -75h-80l50 100q-21 6 -35.5 23t-14.5 44q0 30 24 51.5t59 21.5q34 0 56.5 -22.5t22.5 -54.5q0 -41 -32 -88z
" />
    <glyph glyph-name="Tbar" unicode="&#x166;" horiz-adv-x="581" 
d="M12 556v162h557v-162h-203v-105h116v-164h-116v-287h-151v287h-116v164h116v105h-203z" />
    <glyph glyph-name="tbar" unicode="&#x167;" horiz-adv-x="468" 
d="M389 178l31 -135q-47 -58 -136 -58q-86 0 -130.5 48.5t-44.5 131.5v52h-89v112h89v41h-89v42l200 244h36v-132h157v-154h-157v-41h157v-112h-157v-18q0 -58 56 -58q41 0 77 37z" />
    <glyph glyph-name="Utilde" unicode="&#x168;" horiz-adv-x="732" 
d="M503 289v429h152v-434q0 -132 -79 -215.5t-211 -83.5q-129 0 -208.5 82t-79.5 216v435h152v-430q0 -64 37.5 -101.5t100.5 -37.5q62 0 99 38.5t37 101.5zM290 769h-89q-15 30 -15 61q0 44 28 70.5t74 26.5q35 0 83 -25.5t61 -25.5q20 0 20 18q0 14 -9 33h89
q14 -31 14 -62q0 -44 -26.5 -70t-71.5 -26q-36 0 -84 25.5t-62 25.5q-21 0 -21 -20q0 -13 9 -31z" />
    <glyph glyph-name="utilde" unicode="&#x169;" horiz-adv-x="632" 
d="M281 -15q-88 0 -152.5 59t-64.5 171v309h147v-277q0 -50 27.5 -78t71.5 -28q38 0 68 20t35 50v313h147v-524h-142v51q-11 -30 -46.5 -48t-90.5 -18zM237 592h-89q-15 30 -15 61q0 44 28 70.5t74 26.5q35 0 83 -25.5t61 -25.5q20 0 20 18q0 13 -9 33h89q14 -31 14 -62
q0 -44 -26.5 -70t-71.5 -26q-35 0 -83 25.5t-63 25.5q-21 0 -21 -20q0 -13 9 -31z" />
    <glyph glyph-name="Umacron" unicode="&#x16a;" horiz-adv-x="732" 
d="M503 289v429h152v-434q0 -132 -79 -215.5t-211 -83.5q-129 0 -208.5 82t-79.5 216v435h152v-430q0 -64 37.5 -101.5t100.5 -37.5q62 0 99 38.5t37 101.5zM198 889h336v-105h-336v105z" />
    <glyph glyph-name="umacron" unicode="&#x16b;" horiz-adv-x="632" 
d="M281 -15q-88 0 -152.5 59t-64.5 171v309h147v-277q0 -50 27.5 -78t71.5 -28q38 0 68 20t35 50v313h147v-524h-142v51q-11 -30 -46.5 -48t-90.5 -18zM146 715h336v-108h-336v108z" />
    <glyph glyph-name="Ubreve" unicode="&#x16c;" horiz-adv-x="732" 
d="M503 289v429h152v-434q0 -132 -79 -215.5t-211 -83.5q-129 0 -208.5 82t-79.5 216v435h152v-430q0 -64 37.5 -101.5t100.5 -37.5q62 0 99 38.5t37 101.5zM413 926h106q1 -64 -44 -110t-109 -46t-109 46t-44 110h107q-2 -17 12 -30t34 -13q21 0 35 13t12 30z" />
    <glyph glyph-name="ubreve" unicode="&#x16d;" horiz-adv-x="632" 
d="M281 -15q-88 0 -152.5 59t-64.5 171v309h147v-277q0 -50 27.5 -78t71.5 -28q38 0 68 20t35 50v313h147v-524h-142v51q-11 -30 -46.5 -48t-90.5 -18zM359 750h106q1 -64 -44 -110.5t-109 -46.5t-109 46.5t-44 110.5h107q-1 -18 12.5 -31t33.5 -13q21 0 35 13t12 31z" />
    <glyph glyph-name="Uring" unicode="&#x16e;" horiz-adv-x="732" 
d="M503 289v429h152v-434q0 -132 -79 -215.5t-211 -83.5q-129 0 -208.5 82t-79.5 216v435h152v-430q0 -64 37.5 -101.5t100.5 -37.5q62 0 99 38.5t37 101.5zM252 852q0 47 33.5 80t80.5 33t80.5 -33t33.5 -80t-33.5 -80t-80.5 -33t-80.5 33t-33.5 80zM401 852q0 14 -10 23
t-25 9t-25 -9t-10 -23t10 -23t25 -9t25 9t10 23z" />
    <glyph glyph-name="uring" unicode="&#x16f;" horiz-adv-x="632" 
d="M281 -15q-88 0 -152.5 59t-64.5 171v309h147v-277q0 -50 27.5 -78t71.5 -28q38 0 68 20t35 50v313h147v-524h-142v51q-11 -30 -46.5 -48t-90.5 -18zM197 689q0 47 33.5 80.5t81.5 33.5t81.5 -33.5t33.5 -80.5t-33.5 -80.5t-81.5 -33.5t-81.5 33.5t-33.5 80.5zM347 689
q0 14 -10 23t-25 9t-25 -9t-10 -23t10 -23t25 -9t25 9t10 23z" />
    <glyph glyph-name="Uhungarumlaut" unicode="&#x170;" horiz-adv-x="732" 
d="M503 289v429h152v-434q0 -132 -79 -215.5t-211 -83.5q-129 0 -208.5 82t-79.5 216v435h152v-430q0 -64 37.5 -101.5t100.5 -37.5q62 0 99 38.5t37 101.5zM265 923h152l-125 -151h-100zM471 923h152l-126 -151h-99z" />
    <glyph glyph-name="uhungarumlaut" unicode="&#x171;" horiz-adv-x="632" 
d="M281 -15q-88 0 -152.5 59t-64.5 171v309h147v-277q0 -50 27.5 -78t71.5 -28q38 0 68 20t35 50v313h147v-524h-142v51q-11 -30 -46.5 -48t-90.5 -18zM219 757h152l-125 -167h-100zM421 757h152l-126 -167h-99z" />
    <glyph glyph-name="Uogonek" unicode="&#x172;" horiz-adv-x="732" 
d="M503 289v429h152v-434q0 -106 -52.5 -182.5t-143.5 -103.5q-38 -34 -38 -67q0 -14 10.5 -23.5t24.5 -9.5q22 0 32 10l15 -103q-25 -31 -75 -31q-56 0 -89.5 31.5t-33.5 79.5q0 57 54 100q-127 2 -204.5 84t-77.5 214v435h152v-430q0 -64 38 -101.5t101 -37.5
q62 0 98.5 38.5t36.5 101.5z" />
    <glyph glyph-name="uogonek" unicode="&#x173;" horiz-adv-x="632" 
d="M479 0h-61v51q-11 -30 -46.5 -48t-90.5 -18q-88 0 -152.5 59t-64.5 171v309h147v-277q0 -50 27.5 -78t71.5 -28q38 0 68 20t35 50v313h147v-524q-40 -35 -40 -69q0 -14 10.5 -23.5t24.5 -9.5q22 0 32 10l15 -103q-25 -31 -75 -31q-56 0 -89.5 31.5t-33.5 79.5
q0 40 24.5 69.5t50.5 45.5z" />
    <glyph glyph-name="Wcircumflex" unicode="&#x174;" horiz-adv-x="1023" 
d="M576 718l123 -426l143 426h169l-238 -718h-134l-126 442l-128 -442h-135l-238 718h163l144 -426l123 426h134zM430 929h164l91 -157h-106l-67 72l-67 -72h-105z" />
    <glyph glyph-name="wcircumflex" unicode="&#x175;" horiz-adv-x="886" 
d="M505 524l94 -290l111 290h165l-210 -524h-128l-94 290l-94 -290h-128l-210 524h162l111 -290l94 290h127zM357 757h173l90 -167h-110l-67 82l-67 -82h-110z" />
    <glyph glyph-name="Ycircumflex" unicode="&#x176;" horiz-adv-x="615" 
d="M233 301l-230 417h167l136 -243l137 243h169l-228 -417v-301h-151v301zM226 929h164l91 -157h-106l-67 72l-67 -72h-105z" />
    <glyph glyph-name="ycircumflex" unicode="&#x177;" horiz-adv-x="604" 
d="M221 42l-205 482h158l125 -294l125 294h162l-314 -737h-160zM212 757h173l90 -167h-110l-67 82l-67 -82h-110z" />
    <glyph glyph-name="Ydieresis" unicode="&#x178;" horiz-adv-x="615" 
d="M233 301l-230 417h167l136 -243l137 243h169l-228 -417v-301h-151v301zM121 848q0 32 22 54.5t54 22.5t54.5 -22.5t22.5 -54.5t-22.5 -54t-54.5 -22q-31 0 -53.5 22t-22.5 54zM341 848q0 32 22.5 54.5t54.5 22.5t54 -22.5t22 -54.5t-22 -54t-54 -22t-54.5 22t-22.5 54z
" />
    <glyph glyph-name="Zacute" unicode="&#x179;" horiz-adv-x="528" 
d="M42 554v164h419v-130l-234 -424h236v-164h-424v126l235 428h-232zM245 929h162l-125 -157h-110z" />
    <glyph glyph-name="zacute" unicode="&#x17a;" horiz-adv-x="476" 
d="M52 370v154h367v-124l-178 -246h189v-154h-384v120l181 250h-175zM232 757h164l-125 -167h-112z" />
    <glyph glyph-name="Zdotaccent" unicode="&#x17b;" horiz-adv-x="528" 
d="M42 554v164h419v-130l-234 -424h236v-164h-424v126l235 428h-232zM169 847q0 35 24 59.5t58 24.5q35 0 59.5 -24.5t24.5 -59.5q0 -34 -24.5 -58t-59.5 -24q-34 0 -58 24t-24 58z" />
    <glyph glyph-name="zdotaccent" unicode="&#x17c;" horiz-adv-x="476" 
d="M52 370v154h367v-124l-178 -246h189v-154h-384v120l181 250h-175zM141 677q0 40 27.5 68t67.5 28t68 -28t28 -68t-28 -67.5t-68 -27.5t-67.5 27.5t-27.5 67.5z" />
    <glyph glyph-name="Zcaron" unicode="&#x17d;" horiz-adv-x="528" 
d="M42 554v164h419v-130l-234 -424h236v-164h-424v126l235 428h-232zM335 772h-164l-91 157h106l67 -72l67 72h105z" />
    <glyph glyph-name="zcaron" unicode="&#x17e;" horiz-adv-x="476" 
d="M52 370v154h367v-124l-178 -246h189v-154h-384v120l181 250h-175zM323 590h-173l-90 167h110l67 -82l67 82h110z" />
    <glyph glyph-name="longs" unicode="&#x17f;" horiz-adv-x="382" 
d="M442 681l-29 -117q-38 31 -88 31q-24 0 -43.5 -15t-19.5 -47v-533h-146v380h-84v144h84v39q0 86 46 133t133 47q104 0 147 -62z" />
    <glyph glyph-name="uni018F" unicode="&#x18f;" horiz-adv-x="796" 
d="M40 447h556q-23 59 -78.5 90.5t-132.5 31.5q-155 0 -228 -93l-48 135q33 52 108.5 87t173.5 35t181.5 -43t137.5 -130.5t54 -202.5q0 -156 -105.5 -264t-257.5 -108q-167 0 -268 107.5t-101 272.5q0 42 8 82zM401 149q77 0 132.5 33t63.5 101h-400q9 -63 66 -98.5
t138 -35.5z" />
    <glyph glyph-name="florin" unicode="&#x192;" horiz-adv-x="521" 
d="M144 440l24 133q14 79 63.5 124.5t124.5 45.5q104 0 152 -64l-32 -125q-47 41 -100 41q-54 0 -65 -57l-19 -98h165v-144h-190l-91 -509h-147l89 509h-93v144h119z" />
    <glyph glyph-name="uni01B5" unicode="&#x1b5;" horiz-adv-x="526" 
d="M50 554v164h419v-130l-84 -151h74v-155h-159l-65 -118h236v-164h-424v126l85 156h-71v155h156l65 117h-232z" />
    <glyph glyph-name="uni01B6" unicode="&#x1b6;" horiz-adv-x="476" 
d="M52 380v144h367v-114l-60 -86h50v-115h-130l-46 -65h197v-144h-384v110l70 99h-53v115h133l39 56h-183z" />
    <glyph glyph-name="Aringacute" unicode="&#x1fa;" horiz-adv-x="723" 
d="M247 750q0 47 33.5 80t80.5 33t80.5 -33t33.5 -80q0 -40 -26 -71l271 -679h-158l-54 138h-289l-55 -138h-161l271 677q-27 32 -27 73zM377 1049h162l-125 -157h-110zM364 502l-85 -207h166zM396 750q0 14 -10 23t-25 9t-25 -9t-10 -23t10 -23t25 -9t25 9t10 23z" />
    <glyph glyph-name="aringacute" unicode="&#x1fb;" horiz-adv-x="574" 
d="M358 153v37q-6 11 -29 20.5t-53 9.5q-43 0 -65.5 -14t-22.5 -38q0 -25 23 -38.5t64 -13.5q30 0 52.5 10.5t30.5 26.5zM100 332l-34 118q24 40 84.5 64.5t122.5 24.5q105 0 168.5 -56t63.5 -156v-327h-142v45q-18 -28 -57.5 -44t-82.5 -16q-78 0 -131 48t-53 125
q0 80 60 126.5t143 46.5q35 0 62.5 -6.5t39 -13.5t14.5 -13v14q0 39 -28.5 59t-73.5 20q-47 0 -90.5 -17t-65.5 -42zM174 689q0 47 33.5 80.5t81.5 33.5t81.5 -33.5t33.5 -80.5t-33.5 -80.5t-81.5 -33.5t-81.5 33.5t-33.5 80.5zM324 689q0 14 -10 23t-25 9t-25 -9t-10 -23
t10 -23t25 -9t25 9t10 23zM307 1010h164l-125 -167h-112z" />
    <glyph glyph-name="AEacute" unicode="&#x1fc;" horiz-adv-x="940" 
d="M485 0v137h-244l-85 -137h-174l446 718h460v-164h-251v-103h221v-164h-221v-123h251v-164h-403zM485 531l-146 -235h146v235zM618 929h162l-125 -157h-110z" />
    <glyph glyph-name="aeacute" unicode="&#x1fd;" horiz-adv-x="925" 
d="M98 330l-34 118q24 41 84 66t122 25q112 0 177 -62q75 62 178 62q114 0 187.5 -82.5t73.5 -195.5q0 -34 -3 -52h-381q10 -40 47 -60.5t91 -20.5q49 0 93 17.5t66 48.5l49 -117q-29 -44 -84.5 -68t-127.5 -24q-134 0 -215 86q-63 -86 -196 -86q-80 0 -133 48t-53 125
q0 80 60 126.5t143 46.5q35 0 62.5 -6.5t39 -13.5t14.5 -13v13q0 42 -30 62.5t-72 20.5q-48 0 -91.5 -18.5t-66.5 -45.5zM358 153v37q-6 11 -29 20.5t-53 9.5q-43 0 -65.5 -14t-22.5 -38q0 -25 23 -38.5t64 -13.5q30 0 52.5 10.5t30.5 26.5zM505 319h233q-7 37 -38 56
t-75 19q-45 0 -78 -19t-42 -56zM447 757h164l-125 -167h-112z" />
    <glyph glyph-name="Oslashacute" unicode="&#x1fe;" horiz-adv-x="826" 
d="M819 733l-114 -135q84 -102 84 -239q0 -162 -110.5 -268t-265.5 -106q-102 0 -187 48l-41 -48h-179l114 135q-83 101 -83 239q0 162 110.5 268t265.5 106q101 0 186 -48l41 48h179zM413 149q96 0 158 57.5t62 152.5q0 66 -33 116l-266 -314q36 -12 79 -12zM193 359
q0 -67 32 -116l266 314q-36 12 -78 12q-96 0 -158 -57.5t-62 -152.5zM414 929h162l-125 -157h-110z" />
    <glyph glyph-name="oslashacute" unicode="&#x1ff;" horiz-adv-x="652" 
d="M327 539q66 0 126 -29l24 29h167l-92 -109q58 -74 58 -168q0 -118 -84 -197.5t-199 -79.5q-66 0 -127 29l-25 -29h-167l93 109q-57 73 -57 168q0 118 84 197.5t199 79.5zM327 135q59 0 100.5 35.5t41.5 91.5q0 29 -13 55l-153 -181q8 -1 24 -1zM185 262q0 -30 12 -54
l152 179q-14 2 -22 2q-59 0 -100.5 -35.5t-41.5 -91.5zM333 757h164l-125 -167h-112z" />
    <glyph glyph-name="uni0218" unicode="&#x218;" horiz-adv-x="511" 
d="M379 382q48 -40 75.5 -84t27.5 -103q0 -94 -63 -152t-163 -58q-76 0 -142 37.5t-86 85.5l45 140q27 -42 79 -70.5t105 -28.5q28 0 50 10.5t22 34.5q0 16 -10.5 29t-38.5 36q-17 14 -53.5 43t-60.5 49.5t-44 41.5q-70 75 -70 155q0 87 60.5 136t147.5 49q68 0 118.5 -27.5
t76.5 -66.5l-29 -143q-33 34 -79 53.5t-88 19.5q-54 0 -54 -28q0 -3 0.5 -6t2.5 -6.5t4 -6t5.5 -6l6 -6t7 -6.5t7.5 -6.5t8.5 -7t8.5 -6.5q87 -69 124 -102zM305 -213l-50 -75h-80l50 100q-21 6 -35.5 23t-14.5 44q0 30 24 51.5t59 21.5q34 0 56.5 -22.5t22.5 -54.5
q0 -41 -32 -88z" />
    <glyph glyph-name="uni0219" unicode="&#x219;" horiz-adv-x="452" 
d="M223 194l-37 19q-135 67 -135 170q0 66 50.5 111t126.5 45q113 0 164 -73l-29 -125q-56 51 -127 51q-36 0 -36 -18q0 -15 32 -30l44 -22q70 -35 103 -73.5t33 -96.5q0 -72 -53 -119.5t-138 -47.5q-63 0 -113.5 28t-68.5 64l41 125q55 -72 139 -72q47 0 47 27q0 11 -9 18
t-34 19zM276 -213l-50 -75h-80l50 100q-21 6 -35.5 23t-14.5 44q0 30 24 51.5t59 21.5q34 0 56.5 -22.5t22.5 -54.5q0 -41 -32 -88z" />
    <glyph glyph-name="uni021A" unicode="&#x21a;" horiz-adv-x="579" 
d="M12 556v162h557v-162h-203v-556h-151v556h-203zM339 -213l-50 -75h-80l50 100q-21 6 -35.5 23t-14.5 44q0 30 24 51.5t59 21.5q34 0 56.5 -22.5t22.5 -54.5q0 -41 -32 -88z" />
    <glyph glyph-name="uni021B" unicode="&#x21b;" horiz-adv-x="468" 
d="M389 178l31 -135q-47 -58 -136 -58q-86 0 -130.5 48.5t-44.5 131.5v205h-89v42l200 244h36v-132h157v-154h-157v-171q0 -58 56 -58q41 0 77 37zM299 -213l-50 -75h-80l50 100q-21 6 -35.5 23t-14.5 44q0 30 24 51.5t59 21.5q34 0 56.5 -22.5t22.5 -54.5q0 -41 -32 -88z
" />
    <glyph glyph-name="schwa" unicode="&#x259;" horiz-adv-x="613" 
d="M39 263q0 34 3 52h381q-10 40 -47 60.5t-91 20.5q-50 0 -94 -17t-66 -48l-47 113q29 44 84.5 69.5t126.5 25.5q123 0 204 -75.5t81 -200.5q0 -116 -75.5 -197t-198.5 -81q-114 0 -187.5 82.5t-73.5 195.5zM420 205h-233q7 -37 38 -56.5t75 -19.5q45 0 78 19.5t42 56.5z
" />
    <glyph glyph-name="circumflex" unicode="&#x2c6;" horiz-adv-x="460" 
d="M144 757h173l90 -167h-110l-67 82l-67 -82h-110z" />
    <glyph glyph-name="caron" unicode="&#x2c7;" horiz-adv-x="460" 
d="M316 590h-173l-90 167h110l67 -82l67 82h110z" />
    <glyph glyph-name="uni02C9" unicode="&#x2c9;" horiz-adv-x="465" 
d="M64 715h336v-108h-336v108z" />
    <glyph glyph-name="breve" unicode="&#x2d8;" horiz-adv-x="434" 
d="M264 750h106q1 -64 -44 -110.5t-109 -46.5t-109 46.5t-44 110.5h107q-1 -18 12.5 -31t33.5 -13q21 0 35 13t12 31z" />
    <glyph glyph-name="dotaccent" unicode="&#x2d9;" horiz-adv-x="308" 
d="M59 677q0 40 27.5 68t67.5 28t68 -28t28 -68t-28 -67.5t-68 -27.5t-67.5 27.5t-27.5 67.5z" />
    <glyph glyph-name="ring" unicode="&#x2da;" horiz-adv-x="358" 
d="M64 689q0 47 33.5 80.5t81.5 33.5t81.5 -33.5t33.5 -80.5t-33.5 -80.5t-81.5 -33.5t-81.5 33.5t-33.5 80.5zM214 689q0 14 -10 23t-25 9t-25 -9t-10 -23t10 -23t25 -9t25 9t10 23z" />
    <glyph glyph-name="ogonek" unicode="&#x2db;" horiz-adv-x="340" 
d="M148 0h81q-40 -40 -40 -69q0 -14 10.5 -23.5t24.5 -9.5q22 0 32 10l15 -103q-25 -31 -75 -31q-56 0 -89.5 31.5t-33.5 79.5q0 40 24.5 69.5t50.5 45.5z" />
    <glyph glyph-name="tilde" unicode="&#x2dc;" horiz-adv-x="500" 
d="M174 592h-89q-15 30 -15 61q0 44 28 70.5t74 26.5q35 0 83 -25.5t61 -25.5q20 0 20 18q0 13 -9 33h89q14 -31 14 -62q0 -44 -26.5 -70t-71.5 -26q-36 0 -84 25.5t-62 25.5q-21 0 -21 -20q0 -13 9 -31z" />
    <glyph glyph-name="hungarumlaut" unicode="&#x2dd;" horiz-adv-x="567" 
d="M143 757h152l-125 -167h-100zM345 757h152l-126 -167h-99z" />
    <glyph glyph-name="uni0394" unicode="&#x394;" horiz-adv-x="660" 
d="M393 718l264 -718h-654l264 718h126zM206 147h251l-125 349z" />
    <glyph glyph-name="uni03A9" unicode="&#x3a9;" horiz-adv-x="832" 
d="M416 733q155 0 260.5 -107.5t105.5 -261.5q0 -50 -16.5 -105.5t-42.5 -94.5h66v-164h-308v120q145 76 145 237q0 88 -59 150t-151 62q-93 0 -152 -61.5t-59 -150.5q0 -161 146 -237v-120h-308v164h66q-26 39 -42.5 94.5t-16.5 105.5q0 154 105.5 261.5t260.5 107.5z" />
    <glyph glyph-name="uni03BC" unicode="&#x3bc;" horiz-adv-x="641" 
d="M290 -15q-35 0 -70 11v-209h-147v737h147v-277q0 -50 27.5 -78t71.5 -28q38 0 68 20t35 50v313h147v-524h-142v51q-11 -30 -46.5 -48t-90.5 -18z" />
    <glyph glyph-name="pi" unicode="&#x3c0;" horiz-adv-x="643" 
d="M251 385v-385h-131v385h-84v139h571v-139h-84v-385h-131v385h-141z" />
    <glyph glyph-name="uni0401" unicode="&#x401;" horiz-adv-x="545" 
d="M82 0v718h403v-164h-251v-103h221v-164h-221v-123h251v-164h-403zM93 848q0 32 22 54.5t54 22.5t54.5 -22.5t22.5 -54.5t-22.5 -54t-54.5 -22q-31 0 -53.5 22t-22.5 54zM313 848q0 32 22.5 54.5t54.5 22.5t54 -22.5t22 -54.5t-22 -54t-54 -22t-54.5 22t-22.5 54z" />
    <glyph glyph-name="uni0402" unicode="&#x402;" horiz-adv-x="673" 
d="M344 23l28 137q22 -14 54 -14q34 0 52 18.5t18 50.5q0 36 -29 57t-78 21q-39 0 -79 -9v-284h-152v556h-146v162h503v-162h-205v-113q40 9 96 9q99 0 172 -64t73 -170q0 -100 -61.5 -165t-150.5 -65q-23 0 -52 9.5t-43 25.5z" />
    <glyph glyph-name="uni0403" unicode="&#x403;" horiz-adv-x="479" 
d="M63 0v718h366v-164h-214v-554h-152zM240 929h162l-125 -157h-110z" />
    <glyph glyph-name="uni0404" unicode="&#x404;" horiz-adv-x="706" 
d="M476 451v-164h-281q19 -69 80 -103.5t150 -34.5q63 0 122 29t82 70l49 -139q-38 -60 -109 -92t-162 -32q-157 0 -266 104.5t-109 268.5q0 165 109 270t266 105q91 0 163 -35t103 -89l-47 -136q-28 41 -85 68.5t-121 27.5q-78 0 -135.5 -30t-81.5 -88h273z" />
    <glyph glyph-name="uni0405" unicode="&#x405;" horiz-adv-x="511" 
d="M379 382q48 -40 75.5 -84t27.5 -103q0 -94 -63 -152t-163 -58q-76 0 -142 37.5t-86 85.5l45 140q27 -42 79 -70.5t105 -28.5q28 0 50 10.5t22 34.5q0 16 -10.5 29t-38.5 36q-17 14 -53.5 43t-60.5 49.5t-44 41.5q-70 75 -70 155q0 87 60.5 136t147.5 49q68 0 118.5 -27.5
t76.5 -66.5l-29 -143q-33 34 -79 53.5t-88 19.5q-54 0 -54 -28q0 -3 0.5 -6t2.5 -6.5t4 -6t5.5 -6l6 -6t7 -6.5t7.5 -6.5t8.5 -7t8.5 -6.5q87 -69 124 -102z" />
    <glyph glyph-name="uni0406" unicode="&#x406;" horiz-adv-x="316" 
d="M82 0v718h152v-718h-152z" />
    <glyph glyph-name="uni0407" unicode="&#x407;" horiz-adv-x="316" 
d="M82 0v718h152v-718h-152zM-28 848q0 32 22 54.5t54 22.5t54.5 -22.5t22.5 -54.5t-22.5 -54t-54.5 -22t-54 22t-22 54zM192 848q0 32 22.5 54.5t54.5 22.5t54 -22.5t22 -54.5t-22.5 -54t-53.5 -22q-32 0 -54.5 22t-22.5 54z" />
    <glyph glyph-name="uni0408" unicode="&#x408;" horiz-adv-x="440" 
d="M363 718v-530q0 -97 -51 -150t-149 -53q-39 0 -81.5 18t-61.5 48l15 149q49 -51 110 -51q66 0 66 72v497h152z" />
    <glyph glyph-name="uni0409" unicode="&#x409;" horiz-adv-x="904" 
d="M643 0h-201v554h-126l-2 -73q-4 -145 -27 -250t-74 -170t-126 -65q-38 0 -62 13l-29 133q67 5 103 45t54 148.5t18 312.5v70h423v-265h50q105 0 171.5 -63.5t66.5 -162.5q0 -101 -68 -164t-171 -63zM594 161h69q31 0 49.5 18.5t18.5 47.5q0 30 -19 47.5t-49 17.5h-69
v-131z" />
    <glyph glyph-name="uni040A" unicode="&#x40a;" horiz-adv-x="899" 
d="M638 0h-201v297h-203v-297h-152v718h152v-257h203v257h152v-265h50q105 0 171.5 -63.5t66.5 -162.5q0 -101 -68 -164t-171 -63zM589 161h69q31 0 49.5 18.5t18.5 47.5q0 30 -19 47.5t-49 17.5h-69v-131z" />
    <glyph glyph-name="uni040B" unicode="&#x40b;" horiz-adv-x="675" 
d="M628 0h-152v200q0 48 -22.5 68t-70.5 20q-35 0 -73 -9v-279h-152v556h-146v162h503v-162h-205v-113q33 9 94 9q99 0 161.5 -52t62.5 -156v-244z" />
    <glyph glyph-name="uni040C" unicode="&#x40c;" horiz-adv-x="682" 
d="M82 0v718h152v-252l219 252h195l-296 -341l332 -377h-205l-245 282v-282h-152zM350 929h162l-125 -157h-110z" />
    <glyph glyph-name="uni040E" unicode="&#x40e;" horiz-adv-x="612" 
d="M236 233l-216 485h161l131 -296l118 296h164l-287 -718h-164zM305 750q-74 0 -126.5 45.5t-52.5 115.5l116 16q2 -29 18.5 -46t44.5 -17t44.5 17t18.5 46l116 -16q0 -70 -52.5 -115.5t-126.5 -45.5z" />
    <glyph glyph-name="uni040F" unicode="&#x40f;" horiz-adv-x="761" 
d="M82 0v718h152v-554h294v554h151v-718h-225v-154h-146v154h-226z" />
    <glyph glyph-name="uni0410" unicode="&#x410;" horiz-adv-x="723" 
d="M434 718l286 -718h-158l-54 138h-289l-55 -138h-161l287 718h144zM364 502l-85 -207h166z" />
    <glyph glyph-name="uni0411" unicode="&#x411;" horiz-adv-x="571" 
d="M295 0h-213v718h391v-164h-239v-101h63q105 0 171 -63t66 -163q0 -101 -68 -164t-171 -63zM234 161h81q31 0 49.5 18.5t18.5 47.5q0 30 -19 47.5t-49 17.5h-81v-131z" />
    <glyph glyph-name="uni0412" unicode="&#x412;" horiz-adv-x="585" 
d="M82 718h188q105 0 170.5 -51t65.5 -146q0 -89 -60 -136q97 -50 97 -175q0 -97 -69.5 -153.5t-174.5 -56.5h-217v718zM322 290h-88v-140h89q29 0 49 20t20 50q0 29 -19.5 49.5t-50.5 20.5zM286 568h-52v-138h54q28 0 47 19.5t19 49.5t-18.5 49.5t-49.5 19.5z" />
    <glyph glyph-name="uni0413" unicode="&#x413;" horiz-adv-x="498" 
d="M82 0v718h366v-164h-214v-554h-152z" />
    <glyph glyph-name="uni0414" unicode="&#x414;" horiz-adv-x="775" 
d="M645 718v-554h88v-318h-143v154h-422v-154h-143v318h62q124 213 124 496v58h434zM253 164h240v390h-140q-23 -238 -100 -390z" />
    <glyph glyph-name="uni0415" unicode="&#x415;" horiz-adv-x="545" 
d="M82 0v718h403v-164h-251v-103h221v-164h-221v-123h251v-164h-403z" />
    <glyph glyph-name="uni0416" unicode="&#x416;" horiz-adv-x="1000" 
d="M576 718v-256l216 256h191l-288 -339l303 -379h-204l-218 278v-278h-152v278l-218 -278h-204l303 379l-288 339h191l216 -256v256h152z" />
    <glyph glyph-name="uni0417" unicode="&#x417;" horiz-adv-x="554" 
d="M256 149q48 0 76.5 21t28.5 54q0 29 -20.5 46t-52.5 17h-90v164h63q31 0 52 15t21 44q0 27 -20.5 43t-54.5 16q-98 0 -173 -76l-34 130q24 42 84.5 76t132.5 34q93 0 155 -54t62 -152q0 -44 -19.5 -82.5t-47.5 -59.5q93 -53 93 -175q0 -102 -72.5 -163.5t-183.5 -61.5
q-86 0 -144 35.5t-82 81.5l36 132q67 -85 190 -85z" />
    <glyph glyph-name="uni0418" unicode="&#x418;" horiz-adv-x="777" 
d="M695 718v-718h-152v441l-312 -441h-149v718h152v-444l314 444h147z" />
    <glyph glyph-name="uni0419" unicode="&#x419;" horiz-adv-x="777" 
d="M695 718v-718h-152v441l-312 -441h-149v718h152v-444l314 444h147zM387 750q-74 0 -126.5 45.5t-52.5 115.5l116 16q2 -29 18.5 -46t44.5 -17t44.5 17t18.5 46l116 -16q0 -70 -52.5 -115.5t-126.5 -45.5z" />
    <glyph glyph-name="uni041A" unicode="&#x41a;" horiz-adv-x="682" 
d="M82 0v718h152v-252l219 252h195l-296 -341l332 -377h-205l-245 282v-282h-152z" />
    <glyph glyph-name="uni041B" unicode="&#x41b;" horiz-adv-x="724" 
d="M171 718h471v-718h-152v554h-174l-2 -74q-6 -222 -61 -353t-166 -131q-38 0 -62 13l-29 133q67 5 103 45t54 148.5t18 312.5v70z" />
    <glyph glyph-name="uni041C" unicode="&#x41c;" horiz-adv-x="952" 
d="M485 242l172 476h158l97 -718h-154l-56 415l-147 -415h-138l-147 415l-56 -415h-162l97 718h158z" />
    <glyph glyph-name="uni041D" unicode="&#x41d;" horiz-adv-x="771" 
d="M82 0v718h152v-267h303v267h152v-718h-152v287h-303v-287h-152z" />
    <glyph glyph-name="uni041E" unicode="&#x41e;" horiz-adv-x="816" 
d="M408 733q155 0 265.5 -106t110.5 -268t-110.5 -268t-265.5 -106t-265.5 106t-110.5 268t110.5 268t265.5 106zM408 149q94 0 157 59t63 151t-63 151t-157 59t-157 -59t-63 -151t63 -151t157 -59z" />
    <glyph glyph-name="uni041F" unicode="&#x41f;" horiz-adv-x="755" 
d="M82 0v718h591v-718h-152v554h-287v-554h-152z" />
    <glyph glyph-name="uni0420" unicode="&#x420;" horiz-adv-x="552" 
d="M82 718h209q103 0 171 -63t68 -164q0 -99 -66.5 -162.5t-171.5 -63.5h-58v-265h-152v718zM309 559h-75v-135h75q31 0 50.5 18t19.5 49t-19 49.5t-51 18.5z" />
    <glyph glyph-name="uni0421" unicode="&#x421;" horiz-adv-x="706" 
d="M420 149q70 0 125 28t85 69l48 -137q-33 -56 -104.5 -90t-166.5 -34q-150 0 -262.5 106.5t-112.5 267.5t112.5 267.5t262.5 106.5q91 0 162.5 -35t103.5 -88l-47 -134q-31 39 -85.5 66t-120.5 27q-102 0 -167 -57.5t-65 -152.5t65 -152.5t167 -57.5z" />
    <glyph glyph-name="uni0422" unicode="&#x422;" horiz-adv-x="581" 
d="M12 556v162h557v-162h-203v-556h-151v556h-203z" />
    <glyph glyph-name="uni0423" unicode="&#x423;" horiz-adv-x="612" 
d="M236 233l-216 485h161l131 -296l118 296h164l-287 -718h-164z" />
    <glyph glyph-name="uni0424" unicode="&#x424;" horiz-adv-x="822" 
d="M336 -9v78q-135 6 -219.5 89.5t-84.5 207.5t84.5 206.5t219.5 87.5v71h151v-71q134 -5 218.5 -87.5t84.5 -206.5t-84.5 -207.5t-218.5 -89.5v-78h-151zM638 363q0 65 -41 101.5t-110 37.5v-273q68 1 109.5 36.5t41.5 97.5zM185 363q0 -63 41.5 -98t109.5 -36v273
q-69 -1 -110 -37.5t-41 -101.5z" />
    <glyph glyph-name="uni0425" unicode="&#x425;" horiz-adv-x="672" 
d="M338 228l-141 -228h-185l237 370l-223 348h181l128 -206l126 206h183l-222 -349l238 -369h-182z" />
    <glyph glyph-name="uni0426" unicode="&#x426;" horiz-adv-x="814" 
d="M82 0v718h152v-554h298v554h152v-554h88v-318h-143v154h-547z" />
    <glyph glyph-name="uni0427" unicode="&#x427;" horiz-adv-x="594" 
d="M47 718h152v-203q0 -46 22 -65.5t68 -19.5q39 0 71 8v280h152v-718h-152v275q-36 -9 -93 -9q-97 0 -158.5 51t-61.5 154v247z" />
    <glyph glyph-name="uni0428" unicode="&#x428;" horiz-adv-x="960" 
d="M82 0v718h152v-554h171v554h151v-554h171v554h151v-718h-796z" />
    <glyph glyph-name="uni0429" unicode="&#x429;" horiz-adv-x="1008" 
d="M82 0v718h152v-554h171v554h151v-554h171v554h151v-554h88v-318h-143v154h-741z" />
    <glyph glyph-name="uni042A" unicode="&#x42a;" horiz-adv-x="642" 
d="M381 0h-209v554h-151v164h303v-265h61q105 0 170 -62.5t65 -163.5t-68 -164t-171 -63zM324 159h75q32 0 51 18.5t19 49.5t-20 49t-52 18h-73v-135z" />
    <glyph glyph-name="uni042B" unicode="&#x42b;" horiz-adv-x="836" 
d="M291 0h-209v718h152v-265h61q105 0 170 -62.5t65 -163.5t-68 -164t-171 -63zM234 159h75q32 0 51 18.5t19 49.5t-20 49t-52 18h-73v-135zM602 0v718h152v-718h-152z" />
    <glyph glyph-name="uni042C" unicode="&#x42c;" horiz-adv-x="552" 
d="M291 0h-209v718h152v-265h61q105 0 170 -62.5t65 -163.5t-68 -164t-171 -63zM234 159h75q32 0 51 18.5t19 49.5t-20 49t-52 18h-73v-135z" />
    <glyph glyph-name="uni042D" unicode="&#x42d;" horiz-adv-x="708" 
d="M232 287v164h273q-24 58 -81.5 88t-135.5 30q-64 0 -121 -27.5t-85 -68.5l-47 136q31 54 103 89t163 35q157 0 266 -105t109 -270q0 -164 -109 -268.5t-266 -104.5q-91 0 -162 32t-109 92l49 139q23 -41 82 -70t122 -29q89 0 150 34.5t80 103.5h-281z" />
    <glyph glyph-name="uni042E" unicode="&#x42e;" horiz-adv-x="1105" 
d="M697 733q155 0 265.5 -106t110.5 -268t-110.5 -268t-265.5 -106q-137 0 -241.5 84t-128.5 218h-93v-287h-152v718h152v-267h97q31 126 133 204t233 78zM697 149q94 0 157 59t63 151t-63 151t-157 59t-157 -59t-63 -151t63 -151t157 -59z" />
    <glyph glyph-name="uni042F" unicode="&#x42f;" horiz-adv-x="581" 
d="M499 718v-718h-151v292h-15l-147 -292h-167l159 308q-54 23 -86 73.5t-32 116.5q0 110 61.5 165t151.5 55h226zM348 559h-75q-29 0 -45.5 -16t-16.5 -43q0 -29 17 -45.5t45 -16.5h75v121z" />
    <glyph glyph-name="uni0430" unicode="&#x430;" horiz-adv-x="574" 
d="M358 153v37q-6 11 -29 20.5t-53 9.5q-43 0 -65.5 -14t-22.5 -38q0 -25 23 -38.5t64 -13.5q30 0 52.5 10.5t30.5 26.5zM100 332l-34 118q24 40 84.5 64.5t122.5 24.5q105 0 168.5 -56t63.5 -156v-327h-142v45q-18 -28 -57.5 -44t-82.5 -16q-78 0 -131 48t-53 125
q0 80 60 126.5t143 46.5q35 0 62.5 -6.5t39 -13.5t14.5 -13v14q0 39 -28.5 59t-73.5 20q-47 0 -90.5 -17t-65.5 -42z" />
    <glyph glyph-name="uni0431" unicode="&#x431;" horiz-adv-x="639" 
d="M510 736l48 -113q-24 -33 -84.5 -53.5t-109.5 -24.5q-51 -7 -85 -20t-49 -30.5t-20 -33t-6 -36.5q17 17 59 35t92 18q109 0 177.5 -63.5t68.5 -169.5q0 -109 -76.5 -184.5t-190.5 -75.5q-132 0 -207 86.5t-75 246.5q0 70 11.5 124.5t40 105.5t84.5 84.5t139 47.5
q122 21 183 56zM332 141q53 0 87.5 26t34.5 70q0 42 -34.5 69t-83.5 27q-43 0 -81.5 -19t-54.5 -53q2 -60 38.5 -90t93.5 -30z" />
    <glyph glyph-name="uni0432" unicode="&#x432;" horiz-adv-x="538" 
d="M73 524h202q86 0 141.5 -38.5t55.5 -115.5q0 -45 -35 -85q65 -48 65 -121q0 -78 -58 -121t-142 -43h-229v524zM212 131h107q17 0 28.5 11t11.5 28q0 15 -11 27t-30 12h-106v-78zM212 317h76q21 0 32.5 11t11.5 27q0 15 -11.5 26.5t-33.5 11.5h-75v-76z" />
    <glyph glyph-name="uni0433" unicode="&#x433;" horiz-adv-x="448" 
d="M73 524h347v-154h-200v-370h-147v524z" />
    <glyph glyph-name="uni0434" unicode="&#x434;" horiz-adv-x="644" 
d="M20 152h53q78 121 78 331v41h395v-372h68v-291h-143v139h-306v-139h-145v291zM224 152h175v220h-118q-16 -147 -57 -220z" />
    <glyph glyph-name="uni0435" unicode="&#x435;" horiz-adv-x="613" 
d="M574 261q0 -34 -3 -52h-381q10 -40 47 -60.5t91 -20.5q50 0 94 17t66 48l47 -113q-29 -44 -84.5 -69.5t-126.5 -25.5q-123 0 -204 75.5t-81 200.5q0 116 75.5 197t198.5 81q114 0 187.5 -82.5t73.5 -195.5zM193 319h233q-7 37 -38 56.5t-75 19.5q-45 0 -78 -19.5
t-42 -56.5z" />
    <glyph glyph-name="uni0436" unicode="&#x436;" horiz-adv-x="822" 
d="M485 524v-189l144 189h173l-192 -245l205 -279h-180l-150 212v-212h-147v212l-151 -212h-179l206 280l-193 244h172l145 -189v189h147z" />
    <glyph glyph-name="uni0437" unicode="&#x437;" horiz-adv-x="508" 
d="M244 130q65 0 65 34q0 15 -13.5 24t-37.5 9h-76v129h54q56 0 56 31q0 16 -16 25t-43 9q-83 0 -138 -52l-33 118q23 34 73 58t108 24q94 0 146.5 -42.5t52.5 -118.5q0 -61 -52 -101q71 -37 71 -119q0 -80 -63 -126.5t-159 -46.5q-59 0 -115 25t-86 70l41 121
q49 -71 165 -71z" />
    <glyph glyph-name="uni0438" unicode="&#x438;" horiz-adv-x="648" 
d="M73 524h143v-288l214 288h146v-524h-144v287l-213 -287h-146v524z" />
    <glyph glyph-name="uni0439" unicode="&#x439;" horiz-adv-x="648" 
d="M73 524h143v-288l214 288h146v-524h-144v287l-213 -287h-146v524zM323 571q-74 0 -126.5 46.5t-52.5 116.5l116 16q2 -29 18.5 -47t44.5 -18t44.5 18t18.5 47l116 -16q0 -70 -52.5 -116.5t-126.5 -46.5z" />
    <glyph glyph-name="uni043A" unicode="&#x43a;" horiz-adv-x="598" 
d="M73 0v524h147v-187l173 187h194l-232 -249l253 -275h-195l-193 209v-209h-147z" />
    <glyph glyph-name="uni043B" unicode="&#x43b;" horiz-adv-x="624" 
d="M36 5l-25 133q29 1 44 4.5t33.5 21t27.5 52t16 97.5t9 157l1 54h410v-524h-146v370h-130l-2 -42q-8 -174 -52.5 -253t-127.5 -79q-38 0 -58 9z" />
    <glyph glyph-name="uni043C" unicode="&#x43c;" horiz-adv-x="804" 
d="M397 207l142 317h134l84 -524h-143l-41 252l-115 -252h-109l-117 252l-40 -252h-145l84 524h124z" />
    <glyph glyph-name="uni043D" unicode="&#x43d;" horiz-adv-x="644" 
d="M73 524h147v-178h205v178h147v-524h-147v192h-205v-192h-147v524z" />
    <glyph glyph-name="uni043E" unicode="&#x43e;" horiz-adv-x="643" 
d="M322 539q115 0 199 -79.5t84 -197.5t-84 -197.5t-199 -79.5t-199 79.5t-84 197.5t84 197.5t199 79.5zM322 141q56 0 95 34t39 87t-39 87t-95 34t-95 -34t-39 -87t39 -87t95 -34z" />
    <glyph glyph-name="uni043F" unicode="&#x43f;" horiz-adv-x="640" 
d="M73 524h495v-524h-147v370h-201v-370h-147v524z" />
    <glyph glyph-name="uni0440" unicode="&#x440;" horiz-adv-x="671" 
d="M220 54v-267h-147v737h142v-54q14 30 55.5 49.5t100.5 19.5q107 0 184.5 -78t77.5 -199t-77.5 -199t-184.5 -78q-55 0 -96 19.5t-55 49.5zM220 323v-122q11 -26 46.5 -43t79.5 -17q61 0 99.5 34t38.5 87t-38.5 87t-99.5 34q-44 0 -79.5 -17t-46.5 -43z" />
    <glyph glyph-name="uni0441" unicode="&#x441;" horiz-adv-x="554" 
d="M326 141q88 0 144 66l46 -128q-28 -42 -82.5 -68t-120.5 -26q-113 0 -193.5 78.5t-80.5 198.5t80.5 198.5t193.5 78.5q65 0 118.5 -27t80.5 -68l-43 -125q-21 27 -58 45.5t-85 18.5q-62 0 -100 -33.5t-38 -87.5t38 -87.5t100 -33.5z" />
    <glyph glyph-name="uni0442" unicode="&#x442;" horiz-adv-x="509" 
d="M482 524v-152h-154v-372h-147v372h-154v152h455z" />
    <glyph glyph-name="uni0443" unicode="&#x443;" horiz-adv-x="604" 
d="M221 42l-205 482h158l125 -294l125 294h162l-314 -737h-160z" />
    <glyph glyph-name="uni0444" unicode="&#x444;" horiz-adv-x="762" 
d="M455 -9v-204h-147v204q-118 6 -193.5 78.5t-75.5 192.5q0 121 74 194t195 78v194h147v-194q121 -5 195 -78t74 -194q0 -120 -75.5 -192.5t-193.5 -78.5zM188 261q0 -54 31.5 -85t88.5 -31v235q-56 0 -88 -33.5t-32 -85.5zM575 261q0 52 -32 85.5t-88 33.5v-235
q57 0 88.5 31t31.5 85z" />
    <glyph glyph-name="uni0445" unicode="&#x445;" horiz-adv-x="578" 
d="M289 152l-106 -152h-177l192 276l-170 248h172l87 -127l87 127h178l-173 -248l192 -276h-173z" />
    <glyph glyph-name="uni0446" unicode="&#x446;" horiz-adv-x="662" 
d="M632 -139h-143v139h-416v524h147v-370h197v370h147v-370h68v-293z" />
    <glyph glyph-name="uni0447" unicode="&#x447;" horiz-adv-x="559" 
d="M49 359v165h147v-116q0 -85 82 -85q36 0 62 14v187h147v-524h-147v184q-42 -17 -99 -17q-81 0 -136.5 49.5t-55.5 142.5z" />
    <glyph glyph-name="uni0448" unicode="&#x448;" horiz-adv-x="851" 
d="M779 0h-706v524h147v-370h132v370h147v-370h133v370h147v-524z" />
    <glyph glyph-name="uni0449" unicode="&#x449;" horiz-adv-x="877" 
d="M779 154h68v-293h-143v139h-631v524h147v-370h132v370h147v-370h133v370h147v-370z" />
    <glyph glyph-name="uni044A" unicode="&#x44a;" horiz-adv-x="605" 
d="M369 0h-209v370h-130v154h277v-138h63q91 0 146.5 -51.5t55.5 -142.5q0 -90 -56.5 -141t-146.5 -51zM307 142h65q26 0 41.5 15t15.5 37q0 23 -16 36.5t-41 13.5h-65v-102z" />
    <glyph glyph-name="uni044B" unicode="&#x44b;" horiz-adv-x="788" 
d="M569 0v524h147v-524h-147zM287 0h-214v524h147v-138h68q91 0 146.5 -51.5t55.5 -142.5q0 -90 -56.5 -141t-146.5 -51zM220 142h70q26 0 41.5 15t15.5 37q0 23 -16 36.5t-41 13.5h-70v-102z" />
    <glyph glyph-name="uni044C" unicode="&#x44c;" horiz-adv-x="517" 
d="M282 0h-209v524h147v-138h63q90 0 145.5 -51.5t55.5 -142.5t-56 -141.5t-146 -50.5zM220 142h65q26 0 41.5 15t15.5 37q0 23 -16 36.5t-41 13.5h-65v-102z" />
    <glyph glyph-name="uni044D" unicode="&#x44d;" horiz-adv-x="569" 
d="M39 82l45 126q16 -32 57.5 -52.5t92.5 -20.5q113 0 138 62h-174v130h175q-12 29 -49 45.5t-87 16.5q-53 0 -93.5 -20t-58.5 -49l-42 122q27 42 82 69.5t126 27.5q118 0 199 -78.5t81 -199.5t-80.5 -198.5t-199.5 -77.5q-147 0 -212 97z" />
    <glyph glyph-name="uni044E" unicode="&#x44e;" horiz-adv-x="873" 
d="M552 539q115 0 199 -79.5t84 -197.5t-84 -197.5t-199 -79.5q-97 0 -174.5 59t-100.5 149h-57v-193h-147v524h147v-177h62q27 85 102 138.5t168 53.5zM552 141q56 0 95 34t39 87t-39 87t-95 34t-95 -34t-39 -87t39 -87t95 -34z" />
    <glyph glyph-name="uni044F" unicode="&#x44f;" horiz-adv-x="536" 
d="M254 524h210v-524h-147v152h-19l-102 -152h-168l116 172q-91 52 -91 164q0 87 56.5 137.5t144.5 50.5zM317 381h-67q-25 0 -39 -14t-14 -34t15 -32.5t38 -12.5h67v93z" />
    <glyph glyph-name="uni0451" unicode="&#x451;" horiz-adv-x="613" 
d="M574 261q0 -34 -3 -52h-381q10 -40 47 -60.5t91 -20.5q50 0 94 17t66 48l47 -113q-29 -44 -84.5 -69.5t-126.5 -25.5q-123 0 -204 75.5t-81 200.5q0 116 75.5 197t198.5 81q114 0 187.5 -82.5t73.5 -195.5zM193 319h233q-7 37 -38 56.5t-75 19.5q-45 0 -78 -19.5
t-42 -56.5zM128 671q0 33 24 56.5t57 23.5q34 0 57.5 -23t23.5 -57t-23.5 -57t-57.5 -23q-33 0 -57 23.5t-24 56.5zM337 671q0 34 23.5 57t57.5 23q33 0 56.5 -23t23.5 -57t-23.5 -57t-56.5 -23q-34 0 -57.5 23t-23.5 57z" />
    <glyph glyph-name="uni0452" unicode="&#x452;" horiz-adv-x="638" 
d="M427 -17v255q0 50 -28.5 78t-72.5 28q-38 0 -68.5 -20t-35.5 -50v-274h-147v552h-75v117h75v59h147v-59h150v-117h-150v-118q11 30 45.5 48t87.5 18q88 0 153.5 -59t65.5 -171v-320q0 -178 -148 -178q-74 0 -114 36l15 142q29 -22 58 -22q23 0 32.5 12.5t9.5 42.5z" />
    <glyph glyph-name="uni0453" unicode="&#x453;" horiz-adv-x="448" 
d="M73 524h347v-154h-200v-370h-147v524zM227 757h164l-125 -167h-112z" />
    <glyph glyph-name="uni0454" unicode="&#x454;" horiz-adv-x="569" 
d="M486 208l45 -126q-65 -97 -212 -97q-119 0 -199.5 77.5t-80.5 198.5t81 199.5t199 78.5q71 0 126 -27.5t82 -69.5l-42 -122q-18 29 -58.5 49t-93.5 20q-50 0 -87 -16.5t-49 -45.5h175v-130h-174q25 -62 138 -62q51 0 92.5 20.5t57.5 52.5z" />
    <glyph glyph-name="uni0455" unicode="&#x455;" horiz-adv-x="452" 
d="M223 194l-37 19q-135 67 -135 170q0 66 50.5 111t126.5 45q113 0 164 -73l-29 -125q-56 51 -127 51q-36 0 -36 -18q0 -15 32 -30l44 -22q70 -35 103 -73.5t33 -96.5q0 -72 -53 -119.5t-138 -47.5q-63 0 -113.5 28t-68.5 64l41 125q55 -72 139 -72q47 0 47 27q0 11 -9 18
t-34 19z" />
    <glyph glyph-name="uni0456" unicode="&#x456;" horiz-adv-x="298" 
d="M76 0v524h147v-524h-147zM54 677q0 40 27.5 68t67.5 28t68 -28t28 -68t-28 -67.5t-68 -27.5t-67.5 27.5t-27.5 67.5z" />
    <glyph glyph-name="uni0457" unicode="&#x457;" horiz-adv-x="299" 
d="M76 0v524h147v-524h-147zM-36 669q0 33 24 56.5t57 23.5q34 0 57.5 -23t23.5 -57t-23.5 -57t-57.5 -23q-33 0 -57 23.5t-24 56.5zM173 669q0 34 23.5 57t57.5 23q33 0 56.5 -23t23.5 -57t-23.5 -57t-56.5 -23q-34 0 -57.5 23t-23.5 57z" />
    <glyph glyph-name="uni0458" unicode="&#x458;" horiz-adv-x="302" 
d="M80 -17v541h147v-574q0 -178 -148 -178q-73 0 -114 36l15 142q29 -22 58 -22q23 0 32.5 12.5t9.5 42.5zM58 677q0 40 27.5 68t67.5 28t68 -28t28 -68t-28 -67.5t-68 -27.5t-67.5 27.5t-27.5 67.5z" />
    <glyph glyph-name="uni0459" unicode="&#x459;" horiz-adv-x="813" 
d="M516 142h65q26 0 41.5 15t15.5 37q0 23 -16 36.5t-41 13.5h-65v-102zM142 524h374v-138h63q90 0 145.5 -51.5t55.5 -142.5t-56 -141.5t-146 -50.5h-209v370h-93l-2 -42q-8 -174 -52.5 -253t-127.5 -79q-38 0 -58 9l-25 133q29 1 44 4.5t33.5 21t27.5 52t16 97.5t9 157z
" />
    <glyph glyph-name="uni045A" unicode="&#x45a;" horiz-adv-x="842" 
d="M607 0h-209v192h-178v-192h-147v524h147v-178h178v178h147v-138h63q90 0 145.5 -51.5t55.5 -142.5t-56 -141.5t-146 -50.5zM545 142h65q26 0 41.5 15t15.5 37q0 23 -16 36.5t-41 13.5h-65v-102z" />
    <glyph glyph-name="uni045B" unicode="&#x45b;" horiz-adv-x="636" 
d="M572 0h-147v238q0 50 -28.5 78t-72.5 28q-38 0 -68.5 -20t-35.5 -50v-274h-147v552h-75v117h75v59h147v-59h150v-117h-150v-118q11 30 45.5 48t87.5 18q88 0 153.5 -59t65.5 -171v-270z" />
    <glyph glyph-name="uni045C" unicode="&#x45c;" horiz-adv-x="598" 
d="M73 0v524h147v-187l173 187h194l-232 -249l253 -275h-195l-193 209v-209h-147zM294 757h164l-125 -167h-112z" />
    <glyph glyph-name="uni045E" unicode="&#x45e;" horiz-adv-x="604" 
d="M221 42l-205 482h158l125 -294l125 294h162l-314 -737h-160zM296 571q-74 0 -126.5 46.5t-52.5 116.5l116 16q2 -29 18.5 -47t44.5 -18t44.5 18t18.5 47l116 -16q0 -70 -52.5 -116.5t-126.5 -46.5z" />
    <glyph glyph-name="uni045F" unicode="&#x45f;" horiz-adv-x="637" 
d="M564 0h-174v-147h-143v147h-174v524h147v-370h197v370h147v-524z" />
    <glyph glyph-name="uni0490" unicode="&#x490;" horiz-adv-x="480" 
d="M64 0v718h223v154h143v-318h-214v-554h-152z" />
    <glyph glyph-name="uni0491" unicode="&#x491;" horiz-adv-x="448" 
d="M73 524h205v139h142v-293h-200v-370h-147v524z" />
    <glyph glyph-name="uni0492" unicode="&#x492;" horiz-adv-x="511" 
d="M95 0v277h-103v164h103v277h366v-164h-214v-113h162v-164h-162v-277h-152z" />
    <glyph glyph-name="uni0493" unicode="&#x493;" horiz-adv-x="481" 
d="M106 524h347v-154h-200v-63h165v-133h-165v-174h-147v174h-79v133h79v217z" />
    <glyph glyph-name="uni049A" unicode="&#x49a;" horiz-adv-x="699" 
d="M82 0v718h152v-252l219 252h195l-296 -341l188 -213h134v-318h-143v154h-52l-245 282v-282h-152z" />
    <glyph glyph-name="uni049B" unicode="&#x49b;" horiz-adv-x="612" 
d="M577 524l-223 -249l111 -121h124v-293h-142v139h-32l-195 209v-209h-147v524h147v-187l172 187h185z" />
    <glyph glyph-name="uni04A2" unicode="&#x4a2;" horiz-adv-x="819" 
d="M82 0v718h152v-267h303v267h152v-554h88v-318h-143v154h-97v287h-303v-287h-152z" />
    <glyph glyph-name="uni04A3" unicode="&#x4a3;" horiz-adv-x="670" 
d="M572 154h68v-293h-143v139h-72v192h-205v-192h-147v524h147v-178h205v178h147v-370z" />
    <glyph glyph-name="uni04AE" unicode="&#x4ae;" horiz-adv-x="615" 
d="M233 301l-230 417h167l136 -243l137 243h169l-228 -417v-301h-151v301z" />
    <glyph glyph-name="uni04AF" unicode="&#x4af;" horiz-adv-x="586" 
d="M367 22v-235h-147v232l-209 505h157l123 -306l122 306h162z" />
    <glyph glyph-name="uni04B0" unicode="&#x4b0;" horiz-adv-x="615" 
d="M101 164v164h117l-215 390h167l136 -243l137 243h169l-213 -390h118v-164h-133v-164h-151v164h-132z" />
    <glyph glyph-name="uni04B1" unicode="&#x4b1;" horiz-adv-x="586" 
d="M220 -213v213h-122v133h75l-162 391h157l123 -306l122 306h162l-163 -391h77v-133h-122v-213h-147z" />
    <glyph glyph-name="uni04BA" unicode="&#x4ba;" horiz-adv-x="594" 
d="M547 0h-152v203q0 46 -22 65.5t-68 19.5q-39 0 -71 -8v-280h-152v718h152v-275q36 9 93 9q97 0 158.5 -51t61.5 -154v-247z" />
    <glyph glyph-name="uni04BB" unicode="&#x4bb;" horiz-adv-x="636" 
d="M220 313v-313h-147v728h147v-255q11 30 45.5 48t87.5 18q88 0 153.5 -59t65.5 -171v-309h-147v277q0 50 -28.5 78t-72.5 28q-38 0 -68.5 -20t-35.5 -50z" />
    <glyph glyph-name="uni04D8" unicode="&#x4d8;" horiz-adv-x="796" 
d="M40 447h556q-23 59 -78.5 90.5t-132.5 31.5q-155 0 -228 -93l-48 135q33 52 108.5 87t173.5 35t181.5 -43t137.5 -130.5t54 -202.5q0 -156 -105.5 -264t-257.5 -108q-167 0 -268 107.5t-101 272.5q0 42 8 82zM401 149q77 0 132.5 33t63.5 101h-400q9 -63 66 -98.5
t138 -35.5z" />
    <glyph glyph-name="uni04D9" unicode="&#x4d9;" horiz-adv-x="612" 
d="M39 263q0 34 3 52h381q-10 40 -47 60.5t-91 20.5q-49 0 -93.5 -17t-66.5 -47l-45 113q68 94 210 94q123 0 203.5 -75.5t80.5 -200.5q0 -116 -75.5 -197t-198.5 -81q-114 0 -187.5 82.5t-73.5 195.5zM420 205h-233q7 -37 38 -56t75 -19q45 0 78 19t42 56z" />
    <glyph glyph-name="uni04E8" unicode="&#x4e8;" horiz-adv-x="816" 
d="M408 733q156 0 266 -105t110 -269t-110 -269t-266 -105t-266 105t-110 269t110 269t266 105zM408 149q78 0 134 35t76 99h-420q19 -64 75 -99t135 -35zM408 569q-75 0 -129.5 -31.5t-76.5 -90.5h411q-21 59 -76 90.5t-129 31.5z" />
    <glyph glyph-name="uni04E9" unicode="&#x4e9;" horiz-adv-x="643" 
d="M322 539q115 0 199 -79.5t84 -197.5t-84 -197.5t-199 -79.5t-199 79.5t-84 197.5t84 197.5t199 79.5zM322 131q98 0 125 74h-251q27 -74 126 -74zM322 394q-95 0 -123 -69h245q-28 69 -122 69z" />
    <glyph glyph-name="uni1E02" unicode="&#x1e02;" horiz-adv-x="585" 
d="M82 718h188q105 0 170.5 -51t65.5 -146q0 -89 -60 -136q97 -50 97 -175q0 -97 -69.5 -153.5t-174.5 -56.5h-217v718zM322 290h-88v-140h89q29 0 49 20t20 50q0 29 -19.5 49.5t-50.5 20.5zM286 568h-52v-138h54q28 0 47 19.5t19 49.5t-18.5 49.5t-49.5 19.5zM192 847
q0 35 24 59.5t58 24.5q35 0 59.5 -24.5t24.5 -59.5q0 -34 -24.5 -58t-59.5 -24q-34 0 -58 24t-24 58z" />
    <glyph glyph-name="uni1E03" unicode="&#x1e03;" horiz-adv-x="671" 
d="M220 728v-258q14 30 55 49.5t96 19.5q107 0 184.5 -78t77.5 -199t-77.5 -199t-184.5 -78q-59 0 -100.5 19.5t-55.5 49.5v-54h-142v728h147zM220 323v-122q11 -26 46.5 -43t79.5 -17q61 0 99.5 34t38.5 87t-38.5 87t-99.5 34q-44 0 -79.5 -17t-46.5 -43zM252 835
q0 40 27.5 68t67.5 28t68 -28t28 -68t-28 -67.5t-68 -27.5t-67.5 27.5t-27.5 67.5z" />
    <glyph glyph-name="uni1E0A" unicode="&#x1e0a;" horiz-adv-x="734" 
d="M546 359q0 83 -55.5 139t-141.5 56h-115v-390h115q85 0 141 54t56 141zM82 718h227q175 0 284 -95.5t109 -263.5q0 -166 -110 -262.5t-283 -96.5h-227v718zM242 847q0 35 24 59.5t58 24.5q35 0 59.5 -24.5t24.5 -59.5q0 -34 -24.5 -58t-59.5 -24q-34 0 -58 24t-24 58z
" />
    <glyph glyph-name="uni1E0B" unicode="&#x1e0b;" horiz-adv-x="671" 
d="M452 470v258h147v-728h-142v54q-14 -30 -55.5 -49.5t-100.5 -19.5q-107 0 -184.5 78t-77.5 199t77.5 199t184.5 78q55 0 96 -19.5t55 -49.5zM452 201v122q-11 26 -46.5 43t-79.5 17q-61 0 -99.5 -34t-38.5 -87t38.5 -87t99.5 -34q44 0 79.5 17t46.5 43zM216 835
q0 40 27.5 68t67.5 28t68 -28t28 -68t-28 -67.5t-68 -27.5t-67.5 27.5t-27.5 67.5z" />
    <glyph glyph-name="uni1E1E" unicode="&#x1e1e;" horiz-adv-x="498" 
d="M82 0v718h366v-164h-214v-103h194v-164h-194v-287h-152zM182 847q0 35 24 59.5t58 24.5q35 0 59.5 -24.5t24.5 -59.5q0 -34 -24.5 -58t-59.5 -24q-34 0 -58 24t-24 58z" />
    <glyph glyph-name="uni1E1F" unicode="&#x1e1f;" horiz-adv-x="458" 
d="M442 681l-30 -117q-32 31 -83 31q-27 0 -46.5 -15t-19.5 -44v-12h157v-154h-157v-370h-147v370h-89v154h89v32q0 87 48 137t133 50q102 0 145 -62zM172 874q0 40 27.5 68t67.5 28t68 -28t28 -68t-28 -67.5t-68 -27.5t-67.5 27.5t-27.5 67.5z" />
    <glyph glyph-name="uni1E40" unicode="&#x1e40;" horiz-adv-x="1024" 
d="M515 242l172 476h158l97 -718h-154l-56 415l-147 -415h-138l-147 415l-56 -415h-162l97 718h158zM429 847q0 35 24 59.5t58 24.5q35 0 59.5 -24.5t24.5 -59.5q0 -34 -24.5 -58t-59.5 -24q-34 0 -58 24t-24 58z" />
    <glyph glyph-name="uni1E41" unicode="&#x1e41;" horiz-adv-x="942" 
d="M346 539q95 0 158 -71q54 71 171 71q80 0 141.5 -56t61.5 -154v-329h-147v290q0 43 -25 68t-64 25q-33 0 -59.5 -19t-33.5 -47v-317h-147v290q0 43 -24.5 68t-63.5 25q-34 0 -61 -18.5t-33 -46.5v-318h-147v524h142v-51q10 29 45.5 47.5t85.5 18.5zM371 677q0 40 27.5 68
t67.5 28t68 -28t28 -68t-28 -67.5t-68 -27.5t-67.5 27.5t-27.5 67.5z" />
    <glyph glyph-name="uni1E56" unicode="&#x1e56;" horiz-adv-x="552" 
d="M82 718h209q103 0 171 -63t68 -164q0 -99 -66.5 -162.5t-171.5 -63.5h-58v-265h-152v718zM309 559h-75v-135h75q31 0 50.5 18t19.5 49t-19 49.5t-51 18.5zM190 847q0 35 24 59.5t58 24.5q35 0 59.5 -24.5t24.5 -59.5q0 -34 -24.5 -58t-59.5 -24q-34 0 -58 24t-24 58z" />
    <glyph glyph-name="uni1E57" unicode="&#x1e57;" horiz-adv-x="671" 
d="M220 54v-267h-147v737h142v-54q14 30 55.5 49.5t100.5 19.5q107 0 184.5 -78t77.5 -199t-77.5 -199t-184.5 -78q-55 0 -96 19.5t-55 49.5zM220 323v-122q11 -26 46.5 -43t79.5 -17q61 0 99.5 34t38.5 87t-38.5 87t-99.5 34q-44 0 -79.5 -17t-46.5 -43zM261 677
q0 40 27.5 68t67.5 28t68 -28t28 -68t-28 -67.5t-68 -27.5t-67.5 27.5t-27.5 67.5z" />
    <glyph glyph-name="uni1E60" unicode="&#x1e60;" horiz-adv-x="511" 
d="M379 382q48 -40 75.5 -84t27.5 -103q0 -94 -63 -152t-163 -58q-76 0 -142 37.5t-86 85.5l45 140q27 -42 79 -70.5t105 -28.5q28 0 50 10.5t22 34.5q0 16 -10.5 29t-38.5 36q-17 14 -53.5 43t-60.5 49.5t-44 41.5q-70 75 -70 155q0 87 60.5 136t147.5 49q68 0 118.5 -27.5
t76.5 -66.5l-29 -143q-33 34 -79 53.5t-88 19.5q-54 0 -54 -28q0 -3 0.5 -6t2.5 -6.5t4 -6t5.5 -6l6 -6t7 -6.5t7.5 -6.5t8.5 -7t8.5 -6.5q87 -69 124 -102zM175 847q0 35 24 59.5t58 24.5q35 0 59.5 -24.5t24.5 -59.5q0 -34 -24.5 -58t-59.5 -24q-34 0 -58 24t-24 58z" />
    <glyph glyph-name="uni1E61" unicode="&#x1e61;" horiz-adv-x="452" 
d="M223 194l-37 19q-135 67 -135 170q0 66 50.5 111t126.5 45q113 0 164 -73l-29 -125q-56 51 -127 51q-36 0 -36 -18q0 -15 32 -30l44 -22q70 -35 103 -73.5t33 -96.5q0 -72 -53 -119.5t-138 -47.5q-63 0 -113.5 28t-68.5 64l41 125q55 -72 139 -72q47 0 47 27q0 11 -9 18
t-34 19zM127 677q0 40 27.5 68t67.5 28t68 -28t28 -68t-28 -67.5t-68 -27.5t-67.5 27.5t-27.5 67.5z" />
    <glyph glyph-name="uni1E6A" unicode="&#x1e6a;" horiz-adv-x="581" 
d="M12 556v162h557v-162h-203v-556h-151v556h-203zM206 847q0 35 24 59.5t58 24.5q35 0 59.5 -24.5t24.5 -59.5q0 -34 -24.5 -58t-59.5 -24q-34 0 -58 24t-24 58z" />
    <glyph glyph-name="uni1E6B" unicode="&#x1e6b;" horiz-adv-x="468" 
d="M389 178l31 -135q-47 -58 -136 -58q-86 0 -130.5 48.5t-44.5 131.5v205h-89v42l200 244h36v-132h157v-154h-157v-171q0 -58 56 -58q41 0 77 37zM190 800q0 40 27.5 68t67.5 28t68 -28t28 -68t-28 -67.5t-68 -27.5t-67.5 27.5t-27.5 67.5z" />
    <glyph glyph-name="Wgrave" unicode="&#x1e80;" horiz-adv-x="1023" 
d="M576 718l123 -426l143 426h169l-238 -718h-134l-126 442l-128 -442h-135l-238 718h163l144 -426l123 426h134zM334 929h162l73 -157h-109z" />
    <glyph glyph-name="wgrave" unicode="&#x1e81;" horiz-adv-x="886" 
d="M505 524l94 -290l111 290h165l-210 -524h-128l-94 290l-94 -290h-128l-210 524h162l111 -290l94 290h127zM253 757h164l73 -167h-112z" />
    <glyph glyph-name="Wacute" unicode="&#x1e82;" horiz-adv-x="1023" 
d="M576 718l123 -426l143 426h169l-238 -718h-134l-126 442l-128 -442h-135l-238 718h163l144 -426l123 426h134zM535 929h162l-125 -157h-110z" />
    <glyph glyph-name="wacute" unicode="&#x1e83;" horiz-adv-x="886" 
d="M505 524l94 -290l111 290h165l-210 -524h-128l-94 290l-94 -290h-128l-210 524h162l111 -290l94 290h127zM463 757h164l-125 -167h-112z" />
    <glyph glyph-name="Wdieresis" unicode="&#x1e84;" horiz-adv-x="1023" 
d="M576 718l123 -426l143 426h169l-238 -718h-134l-126 442l-128 -442h-135l-238 718h163l144 -426l123 426h134zM325 848q0 32 22 54.5t54 22.5t54.5 -22.5t22.5 -54.5t-22.5 -54t-54.5 -22q-31 0 -53.5 22t-22.5 54zM545 848q0 32 22.5 54.5t54.5 22.5t54 -22.5t22 -54.5
t-22 -54t-54 -22t-54.5 22t-22.5 54z" />
    <glyph glyph-name="wdieresis" unicode="&#x1e85;" horiz-adv-x="886" 
d="M505 524l94 -290l111 290h165l-210 -524h-128l-94 290l-94 -290h-128l-210 524h162l111 -290l94 290h127zM257 671q0 33 24 56.5t57 23.5q34 0 57.5 -23t23.5 -57t-23.5 -57t-57.5 -23q-33 0 -57 23.5t-24 56.5zM466 671q0 34 23.5 57t57.5 23q33 0 56.5 -23t23.5 -57
t-23.5 -57t-56.5 -23q-34 0 -57.5 23t-23.5 57z" />
    <glyph glyph-name="Ygrave" unicode="&#x1ef2;" horiz-adv-x="615" 
d="M233 301l-230 417h167l136 -243l137 243h169l-228 -417v-301h-151v301zM133 929h162l73 -157h-109z" />
    <glyph glyph-name="ygrave" unicode="&#x1ef3;" horiz-adv-x="604" 
d="M221 42l-205 482h158l125 -294l125 294h162l-314 -737h-160zM126 757h164l73 -167h-112z" />
    <glyph glyph-name="endash" unicode="&#x2013;" horiz-adv-x="598" 
d="M42 218v121h514v-121h-514z" />
    <glyph glyph-name="emdash" unicode="&#x2014;" horiz-adv-x="916" 
d="M42 218v121h832v-121h-832z" />
    <glyph glyph-name="quoteleft" unicode="&#x2018;" horiz-adv-x="314" 
d="M253 718l-61 -133q22 -7 38.5 -27.5t16.5 -52.5q0 -36 -27 -62.5t-66 -26.5q-37 0 -62 27.5t-25 65.5q0 49 36 107l62 102h88z" />
    <glyph glyph-name="quoteright" unicode="&#x2019;" horiz-adv-x="314" 
d="M61 431l61 133q-22 7 -38.5 27.5t-16.5 52.5q0 36 27 62.5t66 26.5q37 0 62 -27.5t25 -65.5q0 -49 -36 -107l-62 -102h-88z" />
    <glyph glyph-name="quotesinglbase" unicode="&#x201a;" horiz-adv-x="314" 
d="M61 -134l61 133q-22 7 -38.5 27.5t-16.5 52.5q0 36 27 62.5t66 26.5q37 0 62 -27.5t25 -65.5q0 -49 -36 -107l-62 -102h-88z" />
    <glyph glyph-name="quotedblleft" unicode="&#x201c;" horiz-adv-x="547" 
d="M253 718l-61 -133q22 -7 38.5 -27.5t16.5 -52.5q0 -36 -27 -62.5t-66 -26.5q-37 0 -62 27.5t-25 65.5q0 49 36 107l62 102h88zM486 718l-61 -133q22 -7 38.5 -27.5t16.5 -52.5q0 -36 -27 -62.5t-66 -26.5q-37 0 -62 27.5t-25 65.5q0 49 36 107l62 102h88z" />
    <glyph glyph-name="quotedblright" unicode="&#x201d;" horiz-adv-x="547" 
d="M61 431l61 133q-22 7 -38.5 27.5t-16.5 52.5q0 36 27 62.5t66 26.5q37 0 62 -27.5t25 -65.5q0 -49 -36 -107l-62 -102h-88zM294 431l61 133q-22 7 -38.5 27.5t-16.5 52.5q0 36 27 62.5t66 26.5q37 0 62 -27.5t25 -65.5q0 -49 -36 -107l-62 -102h-88z" />
    <glyph glyph-name="quotedblbase" unicode="&#x201e;" horiz-adv-x="547" 
d="M61 -134l61 133q-22 7 -38.5 27.5t-16.5 52.5q0 36 27 62.5t66 26.5q37 0 62 -27.5t25 -65.5q0 -49 -36 -107l-62 -102h-88zM294 -134l61 133q-22 7 -38.5 27.5t-16.5 52.5q0 36 27 62.5t66 26.5q37 0 62 -27.5t25 -65.5q0 -49 -36 -107l-62 -102h-88z" />
    <glyph glyph-name="dagger" unicode="&#x2020;" horiz-adv-x="586" 
d="M224 718h138v-190h162v-145h-162v-547h-138v547h-162v145h162v190z" />
    <glyph glyph-name="daggerdbl" unicode="&#x2021;" horiz-adv-x="586" 
d="M224 718h138v-190h162v-145h-162v-213h162v-145h-162v-189h-138v189h-162v145h162v213h-162v145h162v190z" />
    <glyph glyph-name="bullet" unicode="&#x2022;" horiz-adv-x="405" 
d="M203 425q60 0 102 -42t42 -102t-42 -103t-102 -43t-103 43t-43 103t43 102t103 42z" />
    <glyph glyph-name="ellipsis" unicode="&#x2026;" horiz-adv-x="883" 
d="M65 80q0 40 27.5 68t67.5 28t68 -28t28 -68t-28 -67.5t-68 -27.5t-67.5 27.5t-27.5 67.5zM346 80q0 40 27.5 68t67.5 28t68 -28t28 -68t-28 -67.5t-68 -27.5t-67.5 27.5t-27.5 67.5zM627 80q0 40 27.5 68t67.5 28t68 -28t28 -68t-28 -67.5t-68 -27.5t-67.5 27.5
t-27.5 67.5z" />
    <glyph glyph-name="perthousand" unicode="&#x2030;" horiz-adv-x="1375" 
d="M333 0h-124l412 718h123zM417 539q0 -78 -54.5 -133.5t-136.5 -55.5t-136.5 55.5t-54.5 133.5t54.5 133.5t136.5 55.5t136.5 -55.5t54.5 -133.5zM288 539q0 24 -17 40t-45 16t-45 -16t-17 -40t17 -40t45 -16t45 16t17 40zM917 179q0 -78 -54.5 -133.5t-136.5 -55.5
t-136.5 55.5t-54.5 133.5t54.5 133.5t136.5 55.5t136.5 -55.5t54.5 -133.5zM788 179q0 24 -17 40t-45 16t-45 -16t-17 -40t17 -40t45 -16t45 16t17 40zM1340 179q0 -78 -54.5 -133.5t-136.5 -55.5t-136.5 55.5t-54.5 133.5t54.5 133.5t136.5 55.5t136.5 -55.5t54.5 -133.5z
M1211 179q0 24 -17 40t-45 16t-45 -16t-17 -40t17 -40t45 -16t45 16t17 40z" />
    <glyph glyph-name="guilsinglleft" unicode="&#x2039;" horiz-adv-x="344" 
d="M182 271l115 -194h-129l-141 194l141 187h129z" />
    <glyph glyph-name="guilsinglright" unicode="&#x203a;" horiz-adv-x="344" 
d="M47 77l115 194l-115 187h129l141 -187l-141 -194h-129z" />
    <glyph glyph-name="uni2042" unicode="&#x2042;" horiz-adv-x="834" 
d="M353 373l-76 55l66 87l-107 37l30 90l104 -34v110h96v-110l104 36l29 -92l-107 -37l66 -87l-77 -55l-64 88zM143 -13l-76 55l65 87l-106 37l29 90l105 -34v110h95v-110l105 36l28 -92l-106 -37l65 -87l-76 -55l-64 88zM563 -13l-76 55l65 87l-106 37l29 90l104 -34v110
h96v-110l104 36l29 -92l-107 -37l66 -87l-76 -55l-65 88z" />
    <glyph glyph-name="fraction" unicode="&#x2044;" horiz-adv-x="212" 
d="M380 718l-429 -718h-119l429 718h119z" />
    <glyph glyph-name="uni2051" unicode="&#x2051;" horiz-adv-x="414" 
d="M143 373l-76 55l65 87l-106 37l29 90l105 -34v110h95v-110l105 36l28 -92l-106 -37l65 -87l-76 -55l-64 88zM143 -13l-76 55l65 87l-106 37l29 90l105 -34v110h95v-110l105 36l28 -92l-106 -37l65 -87l-76 -55l-64 88z" />
    <glyph glyph-name="n.superior" unicode="&#x207f;" horiz-adv-x="443" 
d="M249 650q58 0 101.5 -38.5t43.5 -110.5v-201h-104v180q0 29 -17 45.5t-45 16.5q-26 0 -44.5 -11.5t-22.5 -29.5v-201h-104v340h100v-29q8 17 33.5 28t58.5 11z" />
    <glyph glyph-name="Euro" unicode="&#x20ac;" horiz-adv-x="628" 
d="M47 475h68q14 68 43.5 120t68 81t79 43t83.5 14q74 0 126.5 -31t78.5 -85l-51 -120q-52 72 -143 72q-41 0 -76 -21t-49 -73h246l-50 -114h-212q0 -26 1 -37h194l-50 -113h-114q28 -62 114 -62q92 0 144 76l52 -118q-23 -56 -80.5 -89t-136.5 -33q-37 0 -74.5 12.5
t-74.5 38t-67 71t-46 104.5h-119l51 113h52q-1 11 -1 37h-108z" />
    <glyph glyph-name="uni20B4" unicode="&#x20b4;" horiz-adv-x="552" 
d="M35 392v103h257q30 21 30 40q0 34 -64 34q-30 0 -70 -13t-66 -41l-30 130q25 36 73 62t106 26q82 0 139 -49t57 -136q0 -29 -10 -53h49v-103h-129l-37 -37h166v-103h-269q-26 -26 -26 -53q0 -25 21 -37.5t55 -12.5q96 0 156 76l47 -131q-26 -49 -81.5 -79t-132.5 -30
q-91 0 -150.5 56.5t-59.5 139.5q0 43 17 71h-48v103h119l36 37h-155z" />
    <glyph glyph-name="uni20B8" unicode="&#x20b8;" horiz-adv-x="556" 
d="M50 405v162h456v-162h-152v-405h-152v405h-152zM50 604v114h456v-114h-456z" />
    <glyph glyph-name="uni20BD" unicode="&#x20bd;" horiz-adv-x="565" 
d="M27 265v161h71v292h201q103 0 171 -63t68 -164q0 -99 -66.5 -162.5t-171.5 -63.5h-50v-37h184v-113h-184v-115h-152v115h-71v113h71v37h-71zM319 557h-69v-131h69q30 0 49 17.5t19 47.5q0 29 -18.5 47.5t-49.5 18.5z" />
    <glyph glyph-name="uni2113" unicode="&#x2113;" horiz-adv-x="412" 
d="M250 116q49 0 85 38l23 -111q-14 -24 -48 -41t-73 -17q-168 0 -168 176v403q0 84 43 131.5t115 47.5q69 0 112.5 -49t43.5 -127q0 -81 -59.5 -181.5t-137.5 -164.5v-45q0 -60 64 -60zM186 560v-174q32 35 55.5 84t23.5 92q0 24 -10.5 38t-27.5 14q-41 0 -41 -54z" />
    <glyph glyph-name="uni2116" unicode="&#x2116;" horiz-adv-x="1216" 
d="M1112 190h-338v128h338v-128zM82 0v718h147l307 -445v445h152v-718h-149l-305 442v-442h-152zM943 728q78 0 129 -52t51 -126t-51 -126t-129 -52q-77 0 -128 52t-51 126t51 126t128 52zM943 497q27 0 43 15t16 38t-16 38t-43 15q-26 0 -42 -15t-16 -38t16 -38t42 -15z
" />
    <glyph glyph-name="uni2117" unicode="&#x2117;" horiz-adv-x="812" 
d="M406 733q156 0 265 -108.5t109 -265.5q0 -156 -109 -265t-265 -109q-155 0 -264.5 109t-109.5 265t109 265t265 109zM406 65q125 0 212 86t87 208q0 123 -87 208.5t-212 85.5q-124 0 -211.5 -85.5t-87.5 -208.5q0 -122 87.5 -208t211.5 -86zM293 566h120q63 0 104 -36.5
t41 -95.5q0 -57 -40.5 -94t-104.5 -37h-23v-149h-97v412zM427 464h-37v-59h37q16 0 25 8t9 21t-9.5 21.5t-24.5 8.5z" />
    <glyph glyph-name="trademark" unicode="&#x2122;" horiz-adv-x="810" 
d="M14 623v95h281v-95h-98v-253h-83v253h-100zM546 509l88 209h85l48 -348h-85l-27 176l-68 -176h-75l-65 178l-29 -178h-89l49 348h81z" />
    <glyph glyph-name="Omega" unicode="&#x2126;" horiz-adv-x="832" 
d="M416 733q155 0 260.5 -107.5t105.5 -261.5q0 -50 -16.5 -105.5t-42.5 -94.5h66v-164h-308v120q145 76 145 237q0 88 -59 150t-151 62q-93 0 -152 -61.5t-59 -150.5q0 -161 146 -237v-120h-308v164h66q-26 39 -42.5 94.5t-16.5 105.5q0 154 105.5 261.5t260.5 107.5z" />
    <glyph glyph-name="estimated" unicode="&#x212e;" horiz-adv-x="796" 
d="M756 271h-556q23 -59 78.5 -90.5t132.5 -31.5q155 0 228 93l48 -135q-33 -52 -108.5 -87t-173.5 -35t-181.5 43t-137.5 130.5t-54 202.5q0 156 105.5 264t257.5 108q167 0 268 -107.5t101 -272.5q0 -42 -8 -82zM395 569q-77 0 -132.5 -33t-63.5 -101h400q-9 63 -66 98.5
t-138 35.5z" />
    <glyph glyph-name="onethird" unicode="&#x2153;" horiz-adv-x="818" 
d="M655 718l-429 -718h-119l429 718h119zM39 517v102l106 82h72v-395h-98v259zM626 92q26 0 42 10t16 27q0 16 -13.5 25t-36.5 9q-34 0 -56 -13l-15 66l77 77h-121v102h243v-77l-68 -69q91 -28 91 -120q0 -59 -45.5 -99t-116.5 -40q-47 0 -79.5 19t-45.5 42q2 7 22 83
q40 -42 106 -42z" />
    <glyph glyph-name="twothirds" unicode="&#x2154;" horiz-adv-x="888" 
d="M725 718l-429 -718h-119l429 718h119zM154 609q-49 0 -81 -57l-42 68q11 34 44.5 62.5t89.5 28.5q61 0 95 -37t34 -87q0 -37 -16 -64t-52 -67l-43 -48h123v-102h-273v81l121 124q40 41 40 64q0 14 -10.5 24t-29.5 10zM696 92q26 0 42 10t16 27q0 16 -13.5 25t-36.5 9
q-34 0 -56 -13l-15 66l77 77h-121v102h243v-77l-68 -69q91 -28 91 -120q0 -59 -45.5 -99t-116.5 -40q-47 0 -79.5 19t-45.5 42q2 7 22 83q40 -42 106 -42z" />
    <glyph glyph-name="oneeighth" unicode="&#x215b;" horiz-adv-x="810" 
d="M655 718l-429 -718h-119l429 718h119zM39 517v102l106 82h72v-395h-98v259zM623 -10q-61 0 -102.5 37t-41.5 92q0 29 14.5 53t34.5 35q-16 11 -28 32t-12 45q0 51 38.5 86t96.5 35t96.5 -35t38.5 -86q0 -24 -12 -45t-28 -32q20 -11 34.5 -35t14.5 -53q0 -55 -41.5 -92
t-102.5 -37zM623 90q20 0 33 10t13 26t-13 26t-33 10t-33 -10t-13 -26t13 -26t33 -10zM659 277q0 11 -10 20t-26 9t-26 -9t-10 -20t10 -20t26 -9t26 9t10 20z" />
    <glyph glyph-name="threeeighths" unicode="&#x215c;" horiz-adv-x="861" 
d="M706 718l-429 -718h-119l429 718h119zM673 -10q-61 0 -102.5 37t-41.5 92q0 29 14.5 53t34.5 35q-16 11 -28 32t-12 45q0 51 38.5 86t96.5 35t96.5 -35t38.5 -86q0 -24 -12 -45t-28 -32q20 -11 34.5 -35t14.5 -53q0 -55 -41.5 -92t-102.5 -37zM673 90q20 0 33 10t13 26
t-13 26t-33 10t-33 -10t-13 -26t13 -26t33 -10zM709 277q0 11 -10 20t-26 9t-26 -9t-10 -20t10 -20t26 -9t26 9t10 20zM156 398q26 0 42 10t16 27q0 16 -13.5 25t-36.5 9q-34 0 -56 -13l-15 66l77 77h-121v102h243v-77l-68 -69q91 -28 91 -120q0 -59 -45.5 -99t-116.5 -40
q-47 0 -79.5 19t-45.5 42q2 7 22 83q40 -42 106 -42z" />
    <glyph glyph-name="fiveeighths" unicode="&#x215d;" horiz-adv-x="866" 
d="M711 718l-429 -718h-119l429 718h119zM215 435q0 17 -14 26.5t-34 9.5q-35 0 -52 -17l-61 20l25 227h213v-102h-140l-3 -32q6 1 28 1q60 0 99 -37t39 -95q0 -65 -43 -102.5t-105 -37.5q-49 0 -82 19.5t-45 42.5q3 12 6.5 25t8.5 28.5t7 24.5q30 -38 97 -38q25 0 40.5 10
t15.5 27zM678 -10q-61 0 -102.5 37t-41.5 92q0 29 14.5 53t34.5 35q-16 11 -28 32t-12 45q0 51 38.5 86t96.5 35t96.5 -35t38.5 -86q0 -24 -12 -45t-28 -32q20 -11 34.5 -35t14.5 -53q0 -55 -41.5 -92t-102.5 -37zM678 90q20 0 33 10t13 26t-13 26t-33 10t-33 -10t-13 -26
t13 -26t33 -10zM714 277q0 11 -10 20t-26 9t-26 -9t-10 -20t10 -20t26 -9t26 9t10 20z" />
    <glyph glyph-name="seveneighths" unicode="&#x215e;" horiz-adv-x="787" 
d="M632 718l-429 -718h-119l429 718h119zM599 -10q-61 0 -102.5 37t-41.5 92q0 29 14.5 53t34.5 35q-16 11 -28 32t-12 45q0 51 38.5 86t96.5 35t96.5 -35t38.5 -86q0 -24 -12 -45t-28 -32q20 -11 34.5 -35t14.5 -53q0 -55 -41.5 -92t-102.5 -37zM599 90q20 0 33 10t13 26
t-13 26t-33 10t-33 -10t-13 -26t13 -26t33 -10zM635 277q0 11 -10 20t-26 9t-26 -9t-10 -20t10 -20t26 -9t26 9t10 20zM49 306l134 293h-150v102h265v-70l-147 -325h-102z" />
    <glyph glyph-name="arrowleft" unicode="&#x2190;" horiz-adv-x="721" 
d="M32 278l302 257v-190h334v-133h-334v-190z" />
    <glyph glyph-name="arrowup" unicode="&#x2191;" horiz-adv-x="580" 
d="M291 656l256 -301h-190v-334h-133v334h-190z" />
    <glyph glyph-name="arrowright" unicode="&#x2192;" horiz-adv-x="721" 
d="M387 535l302 -257l-302 -256v190h-334v133h334v190z" />
    <glyph glyph-name="arrowdown" unicode="&#x2193;" horiz-adv-x="580" 
d="M547 316l-256 -301l-257 301h190v334h133v-334h190z" />
    <glyph glyph-name="uni2196" unicode="&#x2196;" horiz-adv-x="596" 
d="M83 188l-31 394l393 -32l-134 -133l237 -237l-93 -95l-239 237z" />
    <glyph glyph-name="uni2197" unicode="&#x2197;" horiz-adv-x="596" 
d="M544 582l-31 -394l-133 134l-239 -237l-93 95l237 237l-134 133z" />
    <glyph glyph-name="uni2198" unicode="&#x2198;" horiz-adv-x="596" 
d="M52 89l31 394l133 -134l239 237l93 -95l-237 -237l134 -133z" />
    <glyph glyph-name="uni2199" unicode="&#x2199;" horiz-adv-x="596" 
d="M513 483l31 -394l-393 32l134 133l-237 237l93 95l239 -237z" />
    <glyph glyph-name="partialdiff" unicode="&#x2202;" horiz-adv-x="594" 
d="M255 733q129 0 208.5 -111t79.5 -298q0 -155 -72.5 -247t-185.5 -92q-102 0 -174 73t-72 175t67.5 169t169.5 67q77 0 119 -47q-5 82 -45 118.5t-102 36.5q-69 0 -107 -32l-35 129q41 59 149 59zM288 141q44 0 74 29.5t32 84.5q-12 28 -41.5 43t-64.5 15q-42 0 -70 -24
t-28 -63t28 -62t70 -23z" />
    <glyph glyph-name="Delta" unicode="&#x2206;" horiz-adv-x="660" 
d="M393 718l264 -718h-654l264 718h126zM206 147h251l-125 349z" />
    <glyph glyph-name="product" unicode="&#x220f;" horiz-adv-x="669" 
d="M82 718h505v-718h-136v569h-233v-569h-136v718z" />
    <glyph glyph-name="summation" unicode="&#x2211;" horiz-adv-x="565" 
d="M223 149h299v-149h-509v110l228 261l-218 239v108h483v-149h-267l184 -198z" />
    <glyph glyph-name="minus" unicode="&#x2212;" horiz-adv-x="553" 
d="M508 236h-464v125h464v-125z" />
    <glyph glyph-name="uni2215" unicode="&#x2215;" horiz-adv-x="552" 
d="M550 718l-429 -718h-119l429 718h119z" />
    <glyph glyph-name="uni2219" unicode="&#x2219;" horiz-adv-x="322" 
d="M66 344q0 40 27.5 68t67.5 28t68 -28t28 -68t-28 -67.5t-68 -27.5t-67.5 27.5t-27.5 67.5z" />
    <glyph glyph-name="radical" unicode="&#x221a;" horiz-adv-x="681" 
d="M514 815h155l-263 -815h-128l-145 381h-117v143h212l103 -284z" />
    <glyph glyph-name="infinity" unicode="&#x221e;" horiz-adv-x="778" 
d="M550 134q-97 0 -162 84q-69 -84 -161 -84q-76 0 -129.5 53t-53.5 135t53.5 134.5t129.5 52.5q93 0 161 -84q70 84 162 84q76 0 129.5 -52.5t53.5 -134.5t-53.5 -135t-129.5 -53zM227 256q48 0 93 66q-44 65 -93 65q-27 0 -46.5 -19t-19.5 -46q0 -28 19.5 -47t46.5 -19z
M550 387q-49 0 -93 -65q45 -66 93 -66q27 0 46.5 19t19.5 47q0 27 -19.5 46t-46.5 19z" />
    <glyph glyph-name="integral" unicode="&#x222b;" horiz-adv-x="464" 
d="M152 559q0 103 65.5 152t193.5 27v-148q-58 11 -85 -6.5t-27 -50.5v-524q0 -103 -65 -152t-193 -26v147q57 -11 84 6.5t27 50.5v524z" />
    <glyph glyph-name="approxequal" unicode="&#x2248;" horiz-adv-x="535" 
d="M174 316h-112q-18 39 -18 78q0 55 34.5 88.5t91.5 33.5q33 0 68.5 -16t64.5 -32t45 -16q25 0 25 23q0 14 -12 41h112q17 -40 17 -78q0 -56 -33 -89t-89 -33q-44 0 -103 32.5t-77 32.5q-26 0 -26 -25q0 -16 12 -40zM174 80h-112q-18 39 -18 78q0 55 34.5 88.5t91.5 33.5
q33 0 68.5 -16t64.5 -32t45 -16q25 0 25 23q0 14 -12 41h112q17 -40 17 -78q0 -56 -33 -89t-89 -33q-44 0 -103 32.5t-77 32.5q-26 0 -26 -25q0 -16 12 -40z" />
    <glyph glyph-name="notequal" unicode="&#x2260;" horiz-adv-x="553" 
d="M508 132h-258l-55 -100h-129l55 100h-77v125h145l46 82h-191v126h261l54 99h128l-55 -99h76v-126h-144l-46 -82h190v-125z" />
    <glyph glyph-name="equivalence" unicode="&#x2261;" horiz-adv-x="553" 
d="M44 236v125h464v-125h-464zM44 48v124h464v-124h-464zM44 425v126h464v-126h-464z" />
    <glyph glyph-name="lessequal" unicode="&#x2264;" horiz-adv-x="553" 
d="M508 0h-464v126h464v-126zM44 455l464 166v-136l-247 -84l247 -84v-136l-464 166v108z" />
    <glyph glyph-name="greaterequal" unicode="&#x2265;" horiz-adv-x="553" 
d="M508 0h-464v126h464v-126zM44 621l464 -166v-108l-464 -166v136l247 84l-247 84v136z" />
    <glyph glyph-name="uni2460" unicode="&#x2460;" horiz-adv-x="812" 
d="M406 733q156 0 265 -108.5t109 -265.5q0 -156 -109 -265t-265 -109q-155 0 -264.5 109t-109.5 265t109 265t265 109zM406 65q125 0 212 86t87 208q0 123 -87 208.5t-212 85.5q-124 0 -211.5 -85.5t-87.5 -208.5q0 -122 87.5 -208t211.5 -86zM294 378v102l106 82h72v-395
h-98v259z" />
    <glyph glyph-name="uni2461" unicode="&#x2461;" horiz-adv-x="812" 
d="M406 733q156 0 265 -108.5t109 -265.5q0 -156 -109 -265t-265 -109q-155 0 -264.5 109t-109.5 265t109 265t265 109zM406 65q125 0 212 86t87 208q0 123 -87 208.5t-212 85.5q-124 0 -211.5 -85.5t-87.5 -208.5q0 -122 87.5 -208t211.5 -86zM386 470q-49 0 -81 -57
l-42 68q11 34 44.5 62.5t89.5 28.5q61 0 95 -37t34 -87q0 -37 -16 -64t-52 -67l-43 -48h123v-102h-273v81l121 124q40 41 40 64q0 14 -10.5 24t-29.5 10z" />
    <glyph glyph-name="uni2462" unicode="&#x2462;" horiz-adv-x="812" 
d="M406 733q156 0 265 -108.5t109 -265.5q0 -156 -109 -265t-265 -109q-155 0 -264.5 109t-109.5 265t109 265t265 109zM406 65q125 0 212 86t87 208q0 123 -87 208.5t-212 85.5q-124 0 -211.5 -85.5t-87.5 -208.5q0 -122 87.5 -208t211.5 -86zM392 259q26 0 42 10t16 27
q0 16 -13.5 25t-36.5 9q-34 0 -56 -13l-15 66l77 77h-121v102h243v-77l-68 -69q91 -28 91 -120q0 -59 -45.5 -99t-116.5 -40q-47 0 -79.5 19t-45.5 42q2 7 22 83q40 -42 106 -42z" />
    <glyph glyph-name="uni2463" unicode="&#x2463;" horiz-adv-x="812" 
d="M406 733q156 0 265 -108.5t109 -265.5q0 -156 -109 -265t-265 -109q-155 0 -264.5 109t-109.5 265t109 265t265 109zM406 65q125 0 212 86t87 208q0 123 -87 208.5t-212 85.5q-124 0 -211.5 -85.5t-87.5 -208.5q0 -122 87.5 -208t211.5 -86zM496 362h47v-95h-47v-100h-95
v100h-151v76l162 219h84v-200zM401 357v83l-60 -83h60z" />
    <glyph glyph-name="uni2464" unicode="&#x2464;" horiz-adv-x="812" 
d="M406 733q156 0 265 -108.5t109 -265.5q0 -156 -109 -265t-265 -109q-155 0 -264.5 109t-109.5 265t109 265t265 109zM406 65q125 0 212 86t87 208q0 123 -87 208.5t-212 85.5q-124 0 -211.5 -85.5t-87.5 -208.5q0 -122 87.5 -208t211.5 -86zM442 296q0 17 -14 26.5
t-34 9.5q-35 0 -52 -17l-61 20l25 227h213v-102h-140l-3 -32q6 1 28 1q60 0 99 -37t39 -95q0 -65 -43 -102.5t-105 -37.5q-49 0 -82 19.5t-45 42.5q3 12 6.5 25t8.5 28.5t7 24.5q30 -38 97 -38q25 0 40.5 9.5t15.5 27.5z" />
    <glyph glyph-name="uni2465" unicode="&#x2465;" horiz-adv-x="812" 
d="M406 733q156 0 265 -108.5t109 -265.5q0 -156 -109 -265t-265 -109q-155 0 -264.5 109t-109.5 265t109 265t265 109zM406 65q125 0 212 86t87 208q0 123 -87 208.5t-212 85.5q-124 0 -211.5 -85.5t-87.5 -208.5q0 -122 87.5 -208t211.5 -86zM407 436q46 -2 88.5 -40.5
t42.5 -94.5q0 -59 -45.5 -101.5t-104.5 -42.5q-63 0 -105 41t-42 102q0 44 46 116l96 146h106zM390 258q20 0 33.5 12.5t13.5 29.5q0 18 -14 30.5t-35 12.5q-19 0 -33 -12t-14 -31q0 -18 14 -30t35 -12z" />
    <glyph glyph-name="uni2466" unicode="&#x2466;" horiz-adv-x="812" 
d="M406 733q156 0 265 -108.5t109 -265.5q0 -156 -109 -265t-265 -109q-155 0 -264.5 109t-109.5 265t109 265t265 109zM406 65q125 0 212 86t87 208q0 123 -87 208.5t-212 85.5q-124 0 -211.5 -85.5t-87.5 -208.5q0 -122 87.5 -208t211.5 -86zM289 167l134 293h-150v102
h265v-70l-147 -325h-102z" />
    <glyph glyph-name="uni2467" unicode="&#x2467;" horiz-adv-x="812" 
d="M406 733q156 0 265 -108.5t109 -265.5q0 -156 -109 -265t-265 -109q-155 0 -264.5 109t-109.5 265t109 265t265 109zM406 65q125 0 212 86t87 208q0 123 -87 208.5t-212 85.5q-124 0 -211.5 -85.5t-87.5 -208.5q0 -122 87.5 -208t211.5 -86zM412 157q-61 0 -102.5 37
t-41.5 92q0 29 14.5 53t34.5 35q-16 11 -28 32t-12 45q0 51 38.5 86t96.5 35t96.5 -35t38.5 -86q0 -24 -12 -45t-28 -32q20 -11 34.5 -35t14.5 -53q0 -55 -41.5 -92t-102.5 -37zM412 257q20 0 33 10t13 26t-13 26t-33 10t-33 -10t-13 -26t13 -26t33 -10zM448 444
q0 11 -10 20t-26 9t-26 -9t-10 -20t10 -20t26 -9t26 9t10 20z" />
    <glyph glyph-name="uni2468" unicode="&#x2468;" horiz-adv-x="812" 
d="M406 733q156 0 265 -108.5t109 -265.5q0 -156 -109 -265t-265 -109q-155 0 -264.5 109t-109.5 265t109 265t265 109zM406 65q125 0 212 86t87 208q0 123 -87 208.5t-212 85.5q-124 0 -211.5 -85.5t-87.5 -208.5q0 -122 87.5 -208t211.5 -86zM404 293q-46 2 -88.5 40.5
t-42.5 94.5q0 59 45.5 101.5t104.5 42.5q63 0 105 -41t42 -102q0 -44 -46 -116l-96 -146h-106zM421 471q-20 0 -33.5 -12.5t-13.5 -29.5q0 -18 14 -30.5t35 -12.5q19 0 33 12t14 31q0 18 -14 30t-35 12z" />
    <glyph glyph-name="lozenge" unicode="&#x25ca;" horiz-adv-x="581" 
d="M358 718l196 -359l-196 -359h-134l-196 359l196 359h134zM291 164l106 195l-106 195l-106 -195z" />
    <glyph glyph-name="circle" unicode="&#x25cb;" horiz-adv-x="812" 
d="M406 733q156 0 265 -108.5t109 -265.5q0 -156 -109 -265t-265 -109q-155 0 -264.5 109t-109.5 265t109 265t265 109zM406 65q125 0 212 86t87 208q0 123 -87 208.5t-212 85.5q-124 0 -211.5 -85.5t-87.5 -208.5q0 -122 87.5 -208t211.5 -86z" />
    <glyph glyph-name="H18533" unicode="&#x25cf;" horiz-adv-x="812" 
d="M406 733q156 0 265 -108.5t109 -265.5q0 -156 -109 -265t-265 -109q-155 0 -264.5 109t-109.5 265t109 265t265 109z" />
    <glyph glyph-name="a19" unicode="&#x2713;" horiz-adv-x="961" 
d="M854 736l100 -102l-588 -634h-100l-259 293l104 99l207 -234z" />
    <glyph glyph-name="a21" unicode="&#x2715;" horiz-adv-x="829" 
d="M518 359l273 -274l-103 -103l-274 274l-274 -274l-103 103l274 274l-274 275l103 102l274 -273l274 273l103 -102z" />
    <glyph glyph-name="uni2776" unicode="&#x2776;" horiz-adv-x="812" 
d="M406 733q156 0 265 -108.5t109 -265.5q0 -156 -109 -265t-265 -109q-155 0 -264.5 109t-109.5 265t109 265t265 109zM293 480v-102l80 48v-259h98v395h-72z" />
    <glyph glyph-name="uni2777" unicode="&#x2777;" horiz-adv-x="812" 
d="M406 733q156 0 265 -108.5t109 -265.5q0 -156 -109 -265t-265 -109q-155 0 -264.5 109t-109.5 265t109 265t265 109zM385 470q19 0 29.5 -10t10.5 -24q0 -23 -40 -64l-121 -124v-81h273v102h-123l43 48q25 27 36.5 42.5t21.5 39t10 49.5q0 50 -34 87t-95 37
q-56 0 -89.5 -28.5t-44.5 -62.5l42 -68q32 57 81 57z" />
    <glyph glyph-name="uni2778" unicode="&#x2778;" horiz-adv-x="812" 
d="M406 733q156 0 265 -108.5t109 -265.5q0 -156 -109 -265t-265 -109q-155 0 -264.5 109t-109.5 265t109 265t265 109zM391 259q-66 0 -106 42q-20 -76 -22 -83q13 -23 45.5 -42t79.5 -19q71 0 116.5 40t45.5 99q0 92 -91 120l68 69v77h-243v-102h121l-77 -77l15 -66
q22 13 56 13q23 0 36.5 -9t13.5 -25q0 -17 -16 -27t-42 -10z" />
    <glyph glyph-name="uni2779" unicode="&#x2779;" horiz-adv-x="812" 
d="M406 733q156 0 265 -108.5t109 -265.5q0 -156 -109 -265t-265 -109q-155 0 -264.5 109t-109.5 265t109 265t265 109zM542 362h-47v200h-84l-162 -219v-76h151v-100h95v100h47v95zM400 440v-83h-60z" />
    <glyph glyph-name="uni277A" unicode="&#x277a;" horiz-adv-x="812" 
d="M406 733q156 0 265 -108.5t109 -265.5q0 -156 -109 -265t-265 -109q-155 0 -264.5 109t-109.5 265t109 265t265 109zM441 296q0 -18 -15.5 -27.5t-40.5 -9.5q-67 0 -97 38q-1 -2 -9.5 -32t-12.5 -46q12 -23 45 -42.5t82 -19.5q62 0 105 37.5t43 102.5q0 58 -39 95t-99 37
q-22 0 -28 -1l3 32h140v102h-213l-25 -227l61 -20q17 17 52 17q20 0 34 -9.5t14 -26.5z" />
    <glyph glyph-name="uni277B" unicode="&#x277b;" horiz-adv-x="812" 
d="M406 733q156 0 265 -108.5t109 -265.5q0 -156 -109 -265t-265 -109q-155 0 -264.5 109t-109.5 265t109 265t265 109zM406 436l82 126h-106l-96 -146q-46 -72 -46 -116q0 -61 42 -102t105 -41q59 0 104.5 42.5t45.5 101.5q0 56 -42.5 94.5t-88.5 40.5zM389 258
q-21 0 -35 12t-14 30q0 19 14 31t33 12q21 0 35 -12.5t14 -30.5q0 -17 -13.5 -29.5t-33.5 -12.5z" />
    <glyph glyph-name="uni277C" unicode="&#x277c;" horiz-adv-x="812" 
d="M406 733q156 0 265 -108.5t109 -265.5q0 -156 -109 -265t-265 -109q-155 0 -264.5 109t-109.5 265t109 265t265 109zM422 460l-134 -293h102l147 325v70h-265v-102h150z" />
    <glyph glyph-name="uni277D" unicode="&#x277d;" horiz-adv-x="812" 
d="M406 733q156 0 265 -108.5t109 -265.5q0 -156 -109 -265t-265 -109q-155 0 -264.5 109t-109.5 265t109 265t265 109zM411 157q61 0 102.5 37t41.5 92q0 29 -14.5 53t-34.5 35q16 11 28 32t12 45q0 51 -38.5 86t-96.5 35t-96.5 -35t-38.5 -86q0 -24 12 -45t28 -32
q-20 -11 -34.5 -35t-14.5 -53q0 -55 41.5 -92t102.5 -37zM411 257q-20 0 -33 10t-13 26t13 26t33 10t33 -10t13 -26t-13 -26t-33 -10zM447 444q0 -11 -10 -20t-26 -9t-26 9t-10 20t10 20t26 9t26 -9t10 -20z" />
    <glyph glyph-name="uni277E" unicode="&#x277e;" horiz-adv-x="812" 
d="M406 733q156 0 265 -108.5t109 -265.5q0 -156 -109 -265t-265 -109q-155 0 -264.5 109t-109.5 265t109 265t265 109zM403 293l-82 -126h106l96 146q46 72 46 116q0 61 -42 102t-105 41q-59 0 -104.5 -42.5t-45.5 -101.5q0 -56 42.5 -94.5t88.5 -40.5zM420 471
q21 0 35 -12t14 -30q0 -19 -14 -31t-33 -12q-21 0 -35 12.5t-14 30.5q0 17 13.5 29.5t33.5 12.5z" />
    <glyph glyph-name="uni27E6" unicode="&#x27e6;" horiz-adv-x="635" 
d="M560 -164h-464v882h464v-145h-101v-592h101v-145zM227 -19h101v592h-101v-592z" />
    <glyph glyph-name="uni27E7" unicode="&#x27e7;" horiz-adv-x="635" 
d="M539 -164h-464v145h101v592h-101v145h464v-882zM307 -19h101v592h-101v-592z" />
    <glyph glyph-name="uni2E28" unicode="&#x2e28;" horiz-adv-x="641" 
d="M236 723l127 -12q-148 -186 -148 -435q0 -245 148 -434l-127 -11q-159 181 -159 445q0 272 159 447zM477 723l127 -12q-148 -186 -148 -435q0 -245 148 -434l-127 -11q-159 181 -159 445q0 272 159 447z" />
    <glyph glyph-name="uni2E29" unicode="&#x2e29;" horiz-adv-x="641" 
d="M37 711l127 12q159 -175 159 -447q0 -264 -159 -445l-127 11q148 189 148 434q0 249 -148 435zM278 711l127 12q159 -175 159 -447q0 -264 -159 -445l-127 11q148 189 148 434q0 249 -148 435z" />
    <glyph glyph-name="anglebracketleft" unicode="&#x3008;" horiz-adv-x="415" 
d="M376 718l-164 -442l164 -440h-132l-183 440l183 442h132z" />
    <glyph glyph-name="anglebracketright" unicode="&#x3009;" horiz-adv-x="415" 
d="M203 276l-164 442h132l183 -442l-183 -440h-132z" />
    <glyph glyph-name="Germandbls" unicode="&#xf485;" horiz-adv-x="980" 
d="M379 382q48 -40 75.5 -84t27.5 -103q0 -94 -63 -152t-163 -58q-76 0 -142 37.5t-86 85.5l45 140q27 -42 79 -70.5t105 -28.5q28 0 50 10.5t22 34.5q0 16 -10.5 29t-38.5 36q-17 14 -53.5 43t-60.5 49.5t-44 41.5q-70 75 -70 155q0 87 60.5 136t147.5 49q68 0 118.5 -27.5
t76.5 -66.5l-29 -143q-33 34 -79 53.5t-88 19.5q-54 0 -54 -28q0 -3 0.5 -6t2.5 -6.5t4 -6t5.5 -6l6 -6t7 -6.5t7.5 -6.5t8.5 -7t8.5 -6.5q87 -69 124 -102zM848 382q48 -40 75.5 -84t27.5 -103q0 -94 -63 -152t-163 -58q-76 0 -142 37.5t-86 85.5l45 140q27 -42 79 -70.5
t105 -28.5q28 0 50 10.5t22 34.5q0 16 -10.5 29t-38.5 36q-17 14 -53.5 43t-60.5 49.5t-44 41.5q-70 75 -70 155q0 87 60.5 136t147.5 49q68 0 118.5 -27.5t76.5 -66.5l-29 -143q-33 34 -79 53.5t-88 19.5q-54 0 -54 -28q0 -3 0.5 -6t2.5 -6.5t4 -6t5.5 -6l6 -6t7 -6.5
t7.5 -6.5t8.5 -7t8.5 -6.5q87 -69 124 -102z" />
    <glyph glyph-name="commaaccent" unicode="&#xf6c3;" horiz-adv-x="220" 
d="M156 -213l-50 -75h-80l50 100q-21 6 -35.5 23t-14.5 44q0 30 24 51.5t59 21.5q34 0 56.5 -22.5t22.5 -54.5q0 -41 -32 -88z" />
    <glyph glyph-name="fi" unicode="&#xfb01;" horiz-adv-x="709" 
d="M487 524h147v-524h-147v524zM420 524v-154h-157v-370h-147v370h-89v154h89v32q0 87 48 137t132 50q71 0 116 -36l-17 -130q-30 18 -66 18q-27 0 -46.5 -15t-19.5 -44v-12h157zM465 677q0 40 27.5 68t67.5 28t68 -28t28 -68t-28 -67.5t-68 -27.5t-67.5 27.5t-27.5 67.5z
" />
    <glyph glyph-name="fl" unicode="&#xfb02;" horiz-adv-x="706" 
d="M487 0v728h147v-728h-147zM420 524v-154h-157v-370h-147v370h-89v154h89v32q0 87 48 137t132 50q71 0 116 -36l-17 -130q-30 18 -66 18q-27 0 -46.5 -15t-19.5 -44v-12h157z" />
    <glyph glyph-name="percent.tnum" horiz-adv-x="601" 
d="M542 591v-124l-483 -343v124zM325 576q0 -63 -43.5 -107.5t-109.5 -44.5t-109.5 44.5t-43.5 107.5t43.5 107.5t109.5 44.5t109.5 -44.5t43.5 -107.5zM222 576q0 19 -14 32.5t-36 13.5t-36 -13.5t-14 -32.5t14 -32.5t36 -13.5t36 13.5t14 32.5zM582 142
q0 -63 -43.5 -107.5t-109.5 -44.5t-109.5 44.5t-43.5 107.5t43.5 107.5t109.5 44.5t109.5 -44.5t43.5 -107.5zM479 142q0 19 -14 32.5t-36 13.5t-36 -13.5t-14 -32.5t14 -32.5t36 -13.5t36 13.5t14 32.5z" />
    <glyph glyph-name="plus.tnum" 
d="M67 361h174v169h117v-169h173v-125h-173v-169h-117v169h-174v125z" />
    <glyph glyph-name="comma.tnum" 
d="M197 -143l67 146q-25 7 -43 30t-18 58q0 39 29.5 68t71.5 29t69 -30t27 -71q0 -55 -39 -118l-68 -112h-96z" />
    <glyph glyph-name="period.tnum" 
d="M198 85q0 43 29.5 72.5t72.5 29.5q42 0 72 -29.5t30 -72.5q0 -42 -30 -71.5t-72 -29.5q-43 0 -72.5 29.5t-29.5 71.5z" />
    <glyph glyph-name="slash.case" horiz-adv-x="499" 
d="M499 796l-362 -882h-137l362 882h137z" />
    <glyph glyph-name="less.tnum" 
d="M67 352l464 192v-137l-267 -109l267 -109v-137l-464 192v108z" />
    <glyph glyph-name="equal.tnum" 
d="M531 339h-464v126h464v-126zM531 132h-464v125h464v-125z" />
    <glyph glyph-name="greater.tnum" 
d="M69 544l464 -192v-108l-464 -192v137l267 109l-267 109v137z" />
    <glyph glyph-name="at.case" horiz-adv-x="954" 
d="M552 275v31q-4 10 -24 19t-47 9q-79 0 -79 -47q0 -45 79 -45q22 0 43.5 9.5t27.5 23.5zM667 419v-109q0 -27 13 -44t36 -17q38 0 56.5 41.5t18.5 90.5q0 129 -93 217t-218 88q-131 0 -224.5 -97.5t-93.5 -232.5q0 -139 88.5 -233.5t231.5 -94.5q107 0 182 61l20 -97
q-73 -73 -202 -73q-180 0 -300.5 126t-120.5 312q0 182 120.5 310.5t296.5 128.5q110 0 204.5 -53t152 -148.5t57.5 -211.5q0 -108 -43.5 -177t-135.5 -69q-68 0 -123 55q-16 -23 -53.5 -39t-81.5 -16q-76 0 -123 38t-47 106q0 65 51 104t123 39q40 0 63.5 -9t29.5 -20v6
q0 38 -25.5 54t-61.5 16q-41 0 -78 -15t-54 -37l-27 97q22 36 70.5 55.5t99.5 19.5q84 0 137.5 -45.5t53.5 -126.5z" />
    <glyph glyph-name="Q.ss02" horiz-adv-x="818" 
d="M408 733q155 0 265.5 -106t110.5 -268q0 -151 -99 -256l124 -159h-179l-60 76q-78 -35 -162 -35q-155 0 -265.5 106t-110.5 268t110.5 268t265.5 106zM408 149q30 0 57 6l-121 156h181l61 -80q42 54 42 128q0 92 -63 151t-157 59t-157 -59t-63 -151t63 -151t157 -59z" />
    <glyph glyph-name="backslash.case" horiz-adv-x="499" 
d="M362 -86l-362 882h137l362 -882h-137z" />
    <glyph glyph-name="asciitilde.tnum" 
d="M206 198h-112q-18 39 -18 78q0 55 34.5 88.5t91.5 33.5q33 0 68.5 -16t64.5 -32t45 -16q25 0 25 23q0 14 -12 41h112q17 -40 17 -78q0 -56 -33 -89t-89 -33q-44 0 -103 32.5t-77 32.5q-26 0 -26 -25q0 -16 12 -40z" />
    <glyph glyph-name="plusminus.tnum" 
d="M531 0h-464v126h464v-126zM67 467h174v155h117v-155h173v-126h-173v-156h-117v156h-174v126z" />
    <glyph glyph-name="multiply.tnum" 
d="M66 156l150 150l-149 148l80 82l148 -150l151 150l86 -86l-149 -150l150 -149l-83 -81l-149 150l-148 -150z" />
    <glyph glyph-name="divide.tnum" 
d="M75 236v125h450v-125h-450zM211 496q0 36 25.5 62t62.5 26q36 0 62 -26t26 -62q0 -37 -26 -62.5t-62 -25.5q-37 0 -62.5 25.5t-25.5 62.5zM211 101q0 36 25.5 62t62.5 26q36 0 62 -26t26 -62q0 -37 -26 -62.5t-62 -25.5q-37 0 -62.5 25.5t-25.5 62.5z" />
    <glyph glyph-name="florin.tnum" 
d="M175 440l24 133q14 79 63.5 124.5t124.5 45.5q104 0 152 -64l-32 -125q-47 41 -100 41q-54 0 -65 -57l-19 -98h165v-144h-190l-91 -509h-147l89 509h-93v144h119z" />
    <glyph glyph-name="minus.tnum" 
d="M531 236h-464v125h464v-125z" />
    <glyph glyph-name="approxequal.tnum" 
d="M207 316h-112q-18 39 -18 78q0 55 34.5 88.5t91.5 33.5q43 0 102 -32t76 -32q25 0 25 23q0 14 -12 41h112q17 -40 17 -78q0 -56 -33 -89t-89 -33q-44 0 -103 32.5t-77 32.5q-26 0 -26 -25q0 -16 12 -40zM207 80h-112q-18 39 -18 78q0 55 34.5 88.5t91.5 33.5
q43 0 102 -32t76 -32q25 0 25 23q0 14 -12 41h112q17 -40 17 -78q0 -56 -33 -89t-89 -33q-44 0 -103 32.5t-77 32.5q-26 0 -26 -25q0 -16 12 -40z" />
    <glyph glyph-name="notequal.tnum" 
d="M531 132h-258l-55 -100h-129l55 100h-77v125h145l46 82h-191v126h261l54 99h128l-55 -99h76v-126h-144l-46 -82h190v-125z" />
    <glyph glyph-name="lessequal.tnum" 
d="M531 0h-464v126h464v-126zM67 455l464 166v-136l-247 -84l247 -84v-136l-464 166v108z" />
    <glyph glyph-name="greaterequal.tnum" 
d="M533 0h-464v126h464v-126zM69 621l464 -166v-108l-464 -166v136l247 84l-247 84v136z" />
    <glyph glyph-name="zero.tnum_onum" 
d="M300 539q115 0 199 -79.5t84 -197.5t-84 -197.5t-199 -79.5t-199 79.5t-84 197.5t84 197.5t199 79.5zM300 141q56 0 95 34t39 87t-39 87t-95 34t-95 -34t-39 -87t39 -87t95 -34z" />
    <glyph glyph-name="one.tnum_onum" 
d="M111 231v151l180 142h109v-360h157v-164h-463v164h159v162z" />
    <glyph glyph-name="two.tnum_onum" 
d="M382 144h153v-144h-471v108l196 108q110 60 110 109q0 29 -25.5 43.5t-64.5 14.5q-46 0 -84.5 -22t-62.5 -57l-61 102q21 52 76.5 92.5t144.5 40.5q104 0 164 -57.5t60 -141.5q0 -103 -98 -171z" />
    <glyph glyph-name="three.tnum_onum" 
d="M278 -72q48 0 82 27t34 67q0 39 -29 64.5t-77 25.5q-63 0 -93 -24l-23 108l146 184h-221v144h404v-118l-125 -158q30 -7 57 -22t52.5 -41t40.5 -68t15 -94q0 -105 -74.5 -178t-191.5 -73q-83 0 -140.5 34.5t-73.5 78.5l35 125q63 -82 182 -82z" />
    <glyph glyph-name="four.tnum_onum" 
d="M48 109l286 415h130v-380h82v-144h-82v-213h-147v213h-269v109zM201 136h120v174z" />
    <glyph glyph-name="five.tnum_onum" 
d="M276 -72q42 0 75.5 24.5t33.5 67.5q0 40 -29 65t-70 25q-66 0 -100 -35l-94 26l36 423h360v-144h-236l-9 -119q19 6 56 6q99 0 166 -70t67 -173q0 -111 -73.5 -181.5t-178.5 -70.5q-84 0 -142 34.5t-74 78.5l35 125q61 -82 177 -82z" />
    <glyph glyph-name="six.tnum_onum" 
d="M457 718l-151 -240h9q88 0 162 -69.5t74 -169.5q0 -105 -74.5 -179.5t-174.5 -74.5q-106 0 -178.5 70.5t-72.5 180.5q0 90 75 211l168 271h163zM404 235q0 42 -30.5 68.5t-73.5 26.5q-42 0 -72.5 -26.5t-30.5 -68.5q0 -41 30.5 -67.5t72.5 -26.5q43 0 73.5 26t30.5 68z
" />
    <glyph glyph-name="seven.tnum_onum" 
d="M106 -213l239 593h-266v144h442v-96l-262 -641h-153z" />
    <glyph glyph-name="eight.tnum_onum" 
d="M458 374q36 -24 60.5 -66t24.5 -95q0 -96 -70 -162t-173 -66t-173.5 66t-70.5 162q0 52 24.5 94.5t59.5 66.5q-27 23 -46.5 60t-19.5 79q0 92 64 156t162 64t162 -64t64 -156q0 -42 -20 -79.5t-48 -59.5zM300 579q-37 0 -59 -21t-22 -48t22 -47.5t59 -20.5
q36 0 57.5 20.5t21.5 47.5t-21.5 48t-57.5 21zM300 141q42 0 69 23t27 57q0 33 -27.5 56.5t-68.5 23.5q-42 0 -70.5 -23.5t-28.5 -56.5q0 -34 28 -57t71 -23z" />
    <glyph glyph-name="nine.tnum_onum" 
d="M133 -213l163 259h-9q-88 0 -162 69.5t-74 169.5q0 105 74.5 179.5t174.5 74.5q106 0 178.5 -70.5t72.5 -180.5q0 -90 -75 -211l-180 -290h-163zM198 289q0 -42 30.5 -68.5t73.5 -26.5q42 0 72.5 26.5t30.5 68.5q0 41 -30.5 67.5t-72.5 26.5q-43 0 -73.5 -26t-30.5 -68z
" />
    <glyph glyph-name="zero.tnum" 
d="M300 733q119 0 187 -100t68 -277q0 -173 -64.5 -272t-187.5 -99q-128 0 -192.5 101.5t-64.5 274.5q0 174 66 273t188 99zM400 359q0 210 -99 210t-99 -210t99 -210t99 210z" />
    <glyph glyph-name="one.tnum" 
d="M109 415v161l177 142h114v-554h157v-164h-463v164h154v348z" />
    <glyph glyph-name="two.tnum" 
d="M271 569q-89 0 -146 -95l-63 108q17 65 77 108t144 43q108 0 169 -62.5t61 -157.5q0 -72 -31 -127t-108 -141l-72 -81h225v-164h-460v127l205 223q36 39 50 56t25 40t11 47q0 32 -24 54t-63 22z" />
    <glyph glyph-name="three.tnum" 
d="M275 149q48 0 77.5 23t29.5 62q0 35 -26.5 55.5t-71.5 20.5q-57 0 -87 -22l-25 112l123 154h-198v164h401v-117l-122 -150q65 -16 113.5 -68t48.5 -151q0 -105 -73 -176t-190 -71q-83 0 -140 34t-75 80l36 132q66 -82 179 -82z" />
    <glyph glyph-name="four.tnum" 
d="M48 318l274 400h144v-365h80v-164h-80v-189h-151v189h-267v129zM211 343h109v159z" />
    <glyph glyph-name="five.tnum" 
d="M380 229q0 37 -27 57t-64 20q-66 0 -99 -33l-98 30l36 415h364v-164h-241l-9 -87q19 5 60 5q101 0 167.5 -67.5t66.5 -171.5q0 -111 -73.5 -179.5t-178.5 -68.5q-88 0 -145.5 35.5t-69.5 78.5l36 132q65 -82 171 -82q44 0 74 21.5t30 58.5z" />
    <glyph glyph-name="six.tnum" 
d="M461 718l-154 -241q4 1 15 1q87 0 158 -68t71 -171q0 -105 -74.5 -179.5t-175.5 -74.5q-107 0 -178.5 71t-71.5 180q0 90 75 211l167 271h168zM396 235q0 39 -27.5 62.5t-67.5 23.5t-67.5 -23.5t-27.5 -62.5t27.5 -62.5t67.5 -23.5t67.5 23.5t27.5 62.5z" />
    <glyph glyph-name="seven.tnum" 
d="M108 0l232 554h-261v164h442v-114l-254 -604h-159z" />
    <glyph glyph-name="eight.tnum" 
d="M457 374q36 -24 60.5 -67.5t24.5 -96.5q0 -96 -70 -160.5t-173 -64.5t-173 64.5t-70 160.5q0 53 24.5 96.5t60.5 67.5q-28 22 -48 61t-20 81q0 92 64 154.5t162 62.5t162 -62.5t64 -154.5q0 -42 -20 -81t-48 -61zM299 569q-33 0 -52.5 -18.5t-19.5 -43.5t19.5 -43.5
t52.5 -18.5t52.5 18.5t19.5 43.5t-19.5 43.5t-52.5 18.5zM299 149q40 0 64 21t24 53q0 31 -24.5 52.5t-63.5 21.5t-63.5 -21.5t-24.5 -52.5q0 -32 24 -53t64 -21z" />
    <glyph glyph-name="nine.tnum" 
d="M139 0l154 241q-4 -1 -15 -1q-87 0 -158 68t-71 171q0 105 74.5 179.5t175.5 74.5q107 0 178.5 -71t71.5 -180q0 -90 -75 -211l-167 -271h-168zM204 483q0 -39 27.5 -62.5t67.5 -23.5t67.5 23.5t27.5 62.5t-27.5 62.5t-67.5 23.5t-67.5 -23.5t-27.5 -62.5z" />
    <glyph glyph-name="dollar.tnum" 
d="M425 385q103 -86 103 -190q0 -76 -42.5 -130t-113.5 -71v-105h-132v103q-58 13 -104 45.5t-62 70.5l45 140q26 -43 78 -71t106 -28q28 0 50 10.5t22 34.5q0 19 -10 31.5t-39 36.5q-16 13 -42.5 34.5t-42.5 35t-36.5 31.5t-36.5 34q-70 75 -70 151q0 69 39 114.5t103 62.5
v104h132v-104q86 -22 129 -86l-29 -143q-30 35 -75 54t-89 19q-57 0 -57 -28q0 -2 1 -5t2.5 -5.5t3.5 -5t5.5 -6l6 -6t7.5 -6.5l7.5 -6t8 -6.5t8.5 -6.5q72 -56 124 -103z" />
    <glyph glyph-name="Euro.tnum" 
d="M40 475h68q14 68 43.5 120t68 81t79 43t83.5 14q74 0 126.5 -31t78.5 -85l-51 -120q-52 72 -143 72q-41 0 -76 -21t-49 -73h246l-50 -114h-212q0 -26 1 -37h194l-50 -113h-114q28 -62 114 -62q92 0 144 76l52 -118q-23 -56 -80.5 -89t-136.5 -33q-37 0 -74.5 12.5
t-74.5 38t-67 71t-46 104.5h-119l51 113h52q-1 11 -1 37h-108z" />
    <glyph glyph-name="sterling.tnum" 
d="M67 273v145h59q-17 53 -17 99q0 101 60.5 158.5t158.5 57.5q71 0 122 -33.5t68 -82.5l-60 -117q-48 69 -122 69q-35 0 -54 -18t-19 -46q0 -31 21 -87h136v-145h-95v-6q0 -59 -35 -103h232v-164h-456v120q41 18 73 59.5t32 84.5q0 2 -0.5 5t-0.5 4h-103z" />
    <glyph glyph-name="yen.tnum" 
d="M38 718h148l113 -256l112 256h151l-103 -237h53v-114h-103l-18 -37h121v-113h-135v-217h-151v217h-132v113h115l-15 37h-100v114h49z" />
    <glyph glyph-name="uni20BD.tnum" 
d="M44 265v161h71v292h201q103 0 171 -63t68 -164q0 -99 -66.5 -162.5t-171.5 -63.5h-50v-37h184v-113h-184v-115h-152v115h-71v113h71v37h-71zM336 557h-69v-131h69q30 0 49 17.5t19 47.5q0 29 -18.5 47.5t-49.5 18.5z" />
    <glyph glyph-name="uni20B4.tnum" 
d="M59 392v103h257q30 21 30 40q0 34 -64 34q-30 0 -70 -13t-66 -41l-30 130q25 36 73 62t106 26q82 0 139 -49t57 -136q0 -29 -10 -53h49v-103h-129l-37 -37h166v-103h-269q-26 -26 -26 -53q0 -25 21 -37.5t55 -12.5q96 0 156 76l47 -131q-26 -49 -81.5 -79t-132.5 -30
q-91 0 -150.5 56.5t-59.5 139.5q0 43 17 71h-48v103h119l36 37h-155z" />
    <glyph glyph-name="uni20B8.tnum" 
d="M72 405v162h456v-162h-152v-405h-152v405h-152zM72 604v114h456v-114h-456z" />
    <glyph glyph-name="cent.tnum" 
d="M400 627v-96q91 -21 135 -87l-44 -127q-34 49 -91 60v-229q50 9 92 63l47 -132q-44 -67 -139 -87v-109h-96v104q-103 12 -173 88t-70 187t70 187t173 88v90h96zM212 262q0 -44 24.5 -76t67.5 -40v231q-43 -7 -67.5 -39t-24.5 -76z" />
    <glyph glyph-name="circumflex.cap" horiz-adv-x="460" 
d="M148 929h164l91 -157h-106l-67 72l-67 -72h-105z" />
    <glyph glyph-name="dieresis.cap" horiz-adv-x="493" 
d="M60 848q0 32 22 54.5t54 22.5t54.5 -22.5t22.5 -54.5t-22.5 -54t-54.5 -22t-54 22t-22 54zM280 848q0 32 22.5 54.5t54.5 22.5t54 -22.5t22 -54.5t-22.5 -54t-53.5 -22q-32 0 -54.5 22t-22.5 54z" />
    <glyph glyph-name="acute.cap" horiz-adv-x="362" 
d="M136 929h162l-125 -157h-110z" />
    <glyph glyph-name="grave.cap" horiz-adv-x="362" 
d="M63 929h162l73 -157h-109z" />
    <glyph glyph-name="ring.cap" horiz-adv-x="358" 
d="M65 852q0 47 33.5 80t80.5 33t80.5 -33t33.5 -80t-33.5 -80t-80.5 -33t-80.5 33t-33.5 80zM214 852q0 14 -10 23t-25 9t-25 -9t-10 -23t10 -23t25 -9t25 9t10 23z" />
    <glyph glyph-name="caron.cap" horiz-adv-x="460" 
d="M312 772h-164l-91 157h106l67 -72l67 72h105z" />
    <glyph glyph-name="dotaccent.cap" horiz-adv-x="292" 
d="M63 847q0 35 24 59.5t58 24.5q35 0 59.5 -24.5t24.5 -59.5q0 -34 -24.5 -58t-59.5 -24q-34 0 -58 24t-24 58z" />
    <glyph glyph-name="breve.cap" horiz-adv-x="434" 
d="M264 926h106q1 -64 -44 -110t-109 -46t-109 46t-44 110h107q-2 -17 12 -30t34 -13q21 0 35 13t12 30z" />
    <glyph glyph-name="hungarumlaut.cap" horiz-adv-x="567" 
d="M141 923h152l-125 -151h-100zM347 923h152l-126 -151h-99z" />
    <glyph glyph-name="tilde.cap" horiz-adv-x="490" 
d="M169 769h-89q-15 30 -15 61q0 44 28 70.5t74 26.5q35 0 83 -25.5t61 -25.5q20 0 20 18q0 14 -9 33h89q14 -31 14 -62q0 -44 -26.5 -70t-71.5 -26q-35 0 -83 25.5t-63 25.5q-21 0 -21 -20q0 -13 9 -31z" />
    <glyph glyph-name="macron.cap" horiz-adv-x="369" 
d="M16 889h336v-105h-336v105z" />
    <glyph glyph-name="hyphen.case" horiz-adv-x="472" 
d="M67 429h338v-121h-338v121z" />
    <glyph glyph-name="endash.case" horiz-adv-x="598" 
d="M42 308v121h514v-121h-514z" />
    <glyph glyph-name="emdash.case" horiz-adv-x="916" 
d="M42 308v121h832v-121h-832z" />
    <glyph glyph-name="emdash.ss02.case" horiz-adv-x="1409" 
d="M1367 308h-1325v121h1325v-121z" />
    <glyph glyph-name="bracketleft.case" horiz-adv-x="403" 
d="M328 -86h-232v882h232v-145h-101v-592h101v-145z" />
    <glyph glyph-name="bracketright.case" horiz-adv-x="403" 
d="M307 -86h-232v145h101v592h-101v145h232v-882z" />
    <glyph glyph-name="braceleft.case" horiz-adv-x="426" 
d="M72 301v108h10q33 0 56 19t23 55q0 11 -1 16l-19 126q-2 18 -2 27q0 67 46.5 108t124.5 41q26 0 49 -4v-126q-5 1 -16 1q-33 0 -53.5 -16.5t-20.5 -45.5q0 -9 1 -14l20 -125q2 -18 2 -25q0 -62 -57 -91q57 -29 57 -91q0 -7 -2 -25l-20 -125q-1 -5 -1 -14
q0 -29 20.5 -45.5t53.5 -16.5q11 0 16 1v-126q-23 -4 -49 -4q-78 0 -124.5 41t-46.5 108q0 9 2 27l19 126q1 5 1 16q0 36 -23 55t-56 19h-10z" />
    <glyph glyph-name="braceright.case" horiz-adv-x="426" 
d="M354 409v-108h-10q-33 0 -56 -19t-23 -55q0 -11 1 -16l19 -126q2 -18 2 -27q0 -67 -46.5 -108t-124.5 -41q-26 0 -49 4v126q5 -1 16 -1q33 0 53.5 16.5t20.5 45.5q0 9 -1 14l-20 125q-2 18 -2 25q0 62 57 91q-57 29 -57 91q0 7 2 25l20 125q1 5 1 14q0 29 -20.5 45.5
t-53.5 16.5q-11 0 -16 -1v126q23 4 49 4q78 0 124.5 -41t46.5 -108q0 -9 -2 -27l-19 -126q-1 -5 -1 -16q0 -36 23 -55t56 -19h10z" />
    <glyph glyph-name="parenleft.case" horiz-adv-x="400" 
d="M236 801l127 -12q-148 -186 -148 -435q0 -245 148 -434l-127 -11q-159 181 -159 445q0 272 159 447z" />
    <glyph glyph-name="parenright.case" horiz-adv-x="400" 
d="M37 789l127 12q159 -175 159 -447q0 -264 -159 -445l-127 11q148 189 148 434q0 249 -148 435z" />
    <glyph glyph-name="guillemotright.case" horiz-adv-x="566" 
d="M269 169l115 194l-115 187h129l141 -187l-141 -194h-129zM47 169l115 194l-115 187h129l141 -187l-141 -194h-129z" />
    <glyph glyph-name="guillemotleft.case" horiz-adv-x="566" 
d="M404 363l115 -194h-129l-141 194l141 187h129zM182 363l115 -194h-129l-141 194l141 187h129z" />
    <glyph glyph-name="guilsinglright.case" horiz-adv-x="344" 
d="M47 169l115 194l-115 187h129l141 -187l-141 -194h-129z" />
    <glyph glyph-name="guilsinglleft.case" horiz-adv-x="344" 
d="M182 363l115 -194h-129l-141 194l141 187h129z" />
    <glyph glyph-name="exclamdown.case" horiz-adv-x="396" 
d="M136 504h124l29 -504h-182zM107 642q0 37 27 64t64 27t64 -27t27 -64t-27 -64t-64 -27t-64 27t-27 64z" />
    <glyph glyph-name="questiondown.case" horiz-adv-x="484" 
d="M231 379q-25 0 -56 -14t-52 -36l-25 116q23 32 62 52t85 20q68 0 112.5 -38.5t44.5 -98.5q0 -46 -26.5 -83.5t-98.5 -84.5q-41 -27 -54.5 -41t-13.5 -25q0 -28 41 -28q46 0 84 21.5t60 48.5l32 -112q-24 -39 -72 -65t-110 -26q-79 0 -128 42.5t-49 112.5q0 51 31.5 90.5
t97.5 77.5q37 22 50 32.5t13 21.5q0 17 -28 17zM338 643q0 -38 -26.5 -64.5t-63.5 -26.5q-38 0 -64.5 27t-26.5 64t26.5 63.5t64.5 26.5t64 -26.5t26 -63.5z" />
    <glyph glyph-name="a.ss03" horiz-adv-x="671" 
d="M39 262q0 121 77.5 199t184.5 78q59 0 100.5 -19.5t55.5 -49.5v54h142v-524h-142v54q-14 -30 -55.5 -49.5t-100.5 -19.5q-107 0 -184.5 78t-77.5 199zM188 262q0 -53 38.5 -87t99.5 -34q44 0 79.5 17t46.5 43v122q-11 26 -46.5 43t-79.5 17q-61 0 -99.5 -34t-38.5 -87z
" />
    <glyph glyph-name="aacute.ss03" horiz-adv-x="671" 
d="M39 262q0 121 77.5 199t184.5 78q59 0 100.5 -19.5t55.5 -49.5v54h142v-524h-142v54q-14 -30 -55.5 -49.5t-100.5 -19.5q-107 0 -184.5 78t-77.5 199zM188 262q0 -53 38.5 -87t99.5 -34q44 0 79.5 17t46.5 43v122q-11 26 -46.5 43t-79.5 17q-61 0 -99.5 -34t-38.5 -87z
M342 757h164l-125 -167h-112z" />
    <glyph glyph-name="agrave.ss03" horiz-adv-x="671" 
d="M39 262q0 121 77.5 199t184.5 78q59 0 100.5 -19.5t55.5 -49.5v54h142v-524h-142v54q-14 -30 -55.5 -49.5t-100.5 -19.5q-107 0 -184.5 78t-77.5 199zM188 262q0 -53 38.5 -87t99.5 -34q44 0 79.5 17t46.5 43v122q-11 26 -46.5 43t-79.5 17q-61 0 -99.5 -34t-38.5 -87z
M177 757h164l73 -167h-112z" />
    <glyph glyph-name="acircumflex.ss03" horiz-adv-x="671" 
d="M39 262q0 121 77.5 199t184.5 78q59 0 100.5 -19.5t55.5 -49.5v54h142v-524h-142v54q-14 -30 -55.5 -49.5t-100.5 -19.5q-107 0 -184.5 78t-77.5 199zM188 262q0 -53 38.5 -87t99.5 -34q44 0 79.5 17t46.5 43v122q-11 26 -46.5 43t-79.5 17q-61 0 -99.5 -34t-38.5 -87z
M254 757h173l90 -167h-110l-67 82l-67 -82h-110z" />
    <glyph glyph-name="adieresis.ss03" horiz-adv-x="671" 
d="M39 262q0 121 77.5 199t184.5 78q59 0 100.5 -19.5t55.5 -49.5v54h142v-524h-142v54q-14 -30 -55.5 -49.5t-100.5 -19.5q-107 0 -184.5 78t-77.5 199zM188 262q0 -53 38.5 -87t99.5 -34q44 0 79.5 17t46.5 43v122q-11 26 -46.5 43t-79.5 17q-61 0 -99.5 -34t-38.5 -87z
M155 671q0 33 24 56.5t57 23.5q34 0 57.5 -23t23.5 -57t-23.5 -57t-57.5 -23q-33 0 -57 23.5t-24 56.5zM364 671q0 34 23.5 57t57.5 23q33 0 56.5 -23t23.5 -57t-23.5 -57t-56.5 -23q-34 0 -57.5 23t-23.5 57z" />
    <glyph glyph-name="atilde.ss03" horiz-adv-x="671" 
d="M39 262q0 121 77.5 199t184.5 78q59 0 100.5 -19.5t55.5 -49.5v54h142v-524h-142v54q-14 -30 -55.5 -49.5t-100.5 -19.5q-107 0 -184.5 78t-77.5 199zM188 262q0 -53 38.5 -87t99.5 -34q44 0 79.5 17t46.5 43v122q-11 26 -46.5 43t-79.5 17q-61 0 -99.5 -34t-38.5 -87z
M266 592h-89q-15 30 -15 61q0 44 28 70.5t74 26.5q35 0 83 -25.5t61 -25.5q20 0 20 18q0 13 -9 33h89q14 -31 14 -62q0 -44 -26.5 -70t-71.5 -26q-36 0 -84 25.5t-62 25.5q-21 0 -21 -20q0 -13 9 -31z" />
    <glyph glyph-name="aring.ss03" horiz-adv-x="671" 
d="M39 262q0 121 77.5 199t184.5 78q59 0 100.5 -19.5t55.5 -49.5v54h142v-524h-142v54q-14 -30 -55.5 -49.5t-100.5 -19.5q-107 0 -184.5 78t-77.5 199zM188 262q0 -53 38.5 -87t99.5 -34q44 0 79.5 17t46.5 43v122q-11 26 -46.5 43t-79.5 17q-61 0 -99.5 -34t-38.5 -87z
M227 689q0 47 33.5 80.5t81.5 33.5t81.5 -33.5t33.5 -80.5t-33.5 -80.5t-81.5 -33.5t-81.5 33.5t-33.5 80.5zM377 689q0 14 -10 23t-25 9t-25 -9t-10 -23t10 -23t25 -9t25 9t10 23z" />
    <glyph glyph-name="amacron.ss03" horiz-adv-x="671" 
d="M39 262q0 121 77.5 199t184.5 78q59 0 100.5 -19.5t55.5 -49.5v54h142v-524h-142v54q-14 -30 -55.5 -49.5t-100.5 -19.5q-107 0 -184.5 78t-77.5 199zM188 262q0 -53 38.5 -87t99.5 -34q44 0 79.5 17t46.5 43v122q-11 26 -46.5 43t-79.5 17q-61 0 -99.5 -34t-38.5 -87z
M171 715h336v-108h-336v108z" />
    <glyph glyph-name="abreve.ss03" horiz-adv-x="671" 
d="M39 262q0 121 77.5 199t184.5 78q59 0 100.5 -19.5t55.5 -49.5v54h142v-524h-142v54q-14 -30 -55.5 -49.5t-100.5 -19.5q-107 0 -184.5 78t-77.5 199zM188 262q0 -53 38.5 -87t99.5 -34q44 0 79.5 17t46.5 43v122q-11 26 -46.5 43t-79.5 17q-61 0 -99.5 -34t-38.5 -87z
M387 750h106q1 -64 -44 -110.5t-109 -46.5t-109 46.5t-44 110.5h107q-1 -18 12.5 -31t33.5 -13q21 0 35 13t12 31z" />
    <glyph glyph-name="aogonek.ss03" horiz-adv-x="671" 
d="M518 0h-61v54q-14 -30 -55.5 -49.5t-100.5 -19.5q-107 0 -184.5 78t-77.5 199t77.5 199t184.5 78q59 0 100.5 -19.5t55.5 -49.5v54h142v-524q-40 -35 -40 -69q0 -14 10.5 -23.5t24.5 -9.5q22 0 32 10l15 -103q-25 -31 -75 -31q-56 0 -89.5 31.5t-33.5 79.5
q0 40 24.5 69.5t50.5 45.5zM188 262q0 -53 38.5 -87t99.5 -34q44 0 79.5 17t46.5 43v122q-11 26 -46.5 43t-79.5 17q-61 0 -99.5 -34t-38.5 -87z" />
    <glyph glyph-name="zero.ss07" horiz-adv-x="612" 
d="M306 733q117 0 185.5 -100t68.5 -277q0 -172 -65.5 -271.5t-185.5 -99.5q-125 0 -191 102t-66 274t67 272t187 100zM199 356v-19l173 202q-25 40 -66 40q-47 0 -77 -53.5t-30 -169.5zM308 140q46 0 76 55.5t30 161.5q0 16 -1 24l-173 -205q25 -36 68 -36z" />
    <glyph glyph-name="emdash.ss02" horiz-adv-x="1409" 
d="M1367 218h-1325v121h1325v-121z" />
    <glyph glyph-name="uni0430.ss03" horiz-adv-x="671" 
d="M39 262q0 121 77.5 199t184.5 78q59 0 100.5 -19.5t55.5 -49.5v54h142v-524h-142v54q-14 -30 -55.5 -49.5t-100.5 -19.5q-107 0 -184.5 78t-77.5 199zM188 262q0 -53 38.5 -87t99.5 -34q44 0 79.5 17t46.5 43v122q-11 26 -46.5 43t-79.5 17q-61 0 -99.5 -34t-38.5 -87z
" />
    <glyph glyph-name="Tcommaaccent" horiz-adv-x="581" 
d="M12 556v162h557v-162h-203v-556h-151v556h-203zM339 -213l-50 -75h-80l50 100q-21 6 -35.5 23t-14.5 44q0 30 24 51.5t59 21.5q34 0 56.5 -22.5t22.5 -54.5q0 -41 -32 -88z" />
    <glyph glyph-name="tcommaaccent" horiz-adv-x="468" 
d="M389 178l31 -135q-47 -58 -136 -58q-86 0 -130.5 48.5t-44.5 131.5v205h-89v42l200 244h36v-132h157v-154h-157v-171q0 -58 56 -58q41 0 77 37zM299 -213l-50 -75h-80l50 100q-21 6 -35.5 23t-14.5 44q0 30 24 51.5t59 21.5q34 0 56.5 -22.5t22.5 -54.5q0 -41 -32 -88z
" />
    <glyph glyph-name="anglebracketleft.case" horiz-adv-x="415" 
d="M376 796l-164 -442l164 -440h-132l-183 440l183 442h132z" />
    <glyph glyph-name="anglebracketright.case" horiz-adv-x="415" 
d="M203 354l-164 442h132l183 -442l-183 -440h-132z" />
    <glyph glyph-name="doublebar.case" horiz-adv-x="522" 
d="M438 796v-882h-132v882h132zM216 796v-882h-132v882h132z" />
    <glyph glyph-name="doublebar" horiz-adv-x="525" 
d="M441 718v-882h-132v882h132zM216 718v-882h-132v882h132z" />
    <glyph glyph-name="bar.case" horiz-adv-x="300" 
d="M216 786v-882h-132v882h132z" />
    <glyph glyph-name="brokenbar.case" horiz-adv-x="300" 
d="M216 277v-363h-132v363h132zM216 796v-363h-132v363h132z" />
    <glyph glyph-name="bullet.case" horiz-adv-x="405" 
d="M203 517q60 0 102 -42t42 -102t-42 -103t-102 -43t-103 43t-43 103t43 102t103 42z" />
    <glyph glyph-name="periodcentered.case" horiz-adv-x="322" 
d="M66 375q0 40 27.5 68t67.5 28t68 -28t28 -68t-28 -67.5t-68 -27.5t-67.5 27.5t-27.5 67.5z" />
    <glyph glyph-name="zero.tnum.ss07" 
d="M300 733q117 0 185.5 -100t68.5 -277q0 -172 -65.5 -271.5t-185.5 -99.5q-125 0 -191 102t-66 274t67 272t187 100zM193 356v-19l173 202q-25 40 -66 40q-47 0 -77 -53.5t-30 -169.5zM302 140q46 0 76 55.5t30 161.5q0 16 -1 24l-173 -205q25 -36 68 -36z" />
    <glyph glyph-name="zero.onum.ss07" horiz-adv-x="630" 
d="M605 261q0 -117 -84 -196.5t-199 -79.5q-116 0 -199.5 79.5t-83.5 196.5q0 118 83.5 198t199.5 80q115 0 199 -80t84 -198zM462 262q0 16 -5 33l-192 -150q23 -10 57 -10q58 0 99 36t41 91zM182 261q0 -18 4 -31l191 149q-23 10 -55 10q-59 0 -99.5 -36t-40.5 -92z" />
    <glyph glyph-name="parenleft.numr" horiz-adv-x="263" 
d="M145 740l88 -8q-90 -101 -90 -237q0 -134 90 -235l-88 -8q-92 102 -92 243q0 146 92 245z" />
    <glyph glyph-name="parenright.numr" horiz-adv-x="263" 
d="M30 732l88 8q92 -99 92 -245q0 -141 -92 -243l-88 8q90 101 90 235q0 136 -90 237z" />
    <glyph glyph-name="plus.numr" horiz-adv-x="347" 
d="M33 535h103v95h75v-95h103v-79h-103v-96h-75v96h-103v79z" />
    <glyph glyph-name="equal.numr" horiz-adv-x="347" 
d="M314 513h-281v79h281v-79zM314 401h-281v79h281v-79z" />
    <glyph glyph-name="minus.numr" horiz-adv-x="347" 
d="M314 456h-281v79h281v-79z" />
    <glyph glyph-name="parenleft.dnom" horiz-adv-x="263" 
d="M145 440l88 -8q-90 -101 -90 -237q0 -134 90 -235l-88 -8q-92 102 -92 243q0 146 92 245z" />
    <glyph glyph-name="parenright.dnom" horiz-adv-x="263" 
d="M30 432l88 8q92 -99 92 -245q0 -141 -92 -243l-88 8q90 101 90 235q0 136 -90 237z" />
    <glyph glyph-name="plus.dnom" horiz-adv-x="347" 
d="M33 235h103v95h75v-95h103v-79h-103v-96h-75v96h-103v79z" />
    <glyph glyph-name="equal.dnom" horiz-adv-x="347" 
d="M314 213h-281v79h281v-79zM314 101h-281v79h281v-79z" />
    <glyph glyph-name="minus.dnom" horiz-adv-x="347" 
d="M314 156h-281v79h281v-79z" />
    <glyph glyph-name="a.superior" horiz-adv-x="408" 
d="M195 650q70 0 113.5 -36.5t43.5 -101.5v-212h-100v29q-24 -39 -91 -39q-56 0 -90 31t-34 83t41 82t97 30q41 0 72 -17q0 25 -18.5 38t-44.5 13q-66 0 -106 -40l-25 80q20 28 59.5 44t82.5 16zM248 402v22q-11 18 -50 18q-27 0 -41.5 -8.5t-14.5 -21.5q0 -32 55 -32
q39 0 51 22z" />
    <glyph glyph-name="b.superior" horiz-adv-x="467" 
d="M432 470q-1 -81 -50 -130.5t-121 -49.5q-35 0 -63.5 12t-40.5 32v-34h-100v466h104v-161q24 45 100 45q72 0 121 -49.5t50 -130.5zM328 470q0 31 -24.5 51.5t-62.5 20.5q-28 0 -50.5 -10t-29.5 -25v-74q7 -15 29.5 -25t50.5 -10q38 0 62.5 20.5t24.5 51.5z" />
    <glyph glyph-name="c.superior" horiz-adv-x="392" 
d="M324 441l34 -90q-20 -28 -57 -44.5t-83 -16.5q-76 0 -130 51t-54 129q0 79 54 129.5t130 50.5q45 0 81.5 -17.5t54.5 -45.5l-31 -88q-31 44 -96 44q-39 0 -62.5 -20t-23.5 -53q0 -32 24 -52t63 -20q58 0 96 43z" />
    <glyph glyph-name="d.superior" horiz-adv-x="467" 
d="M35 470q1 81 50 130.5t121 49.5q76 0 100 -45v161h104v-466h-100v34q-12 -20 -40.5 -32t-63.5 -12q-72 0 -121 49.5t-50 130.5zM139 470q0 -31 24.5 -51.5t62.5 -20.5q28 0 50.5 10t29.5 25v74q-7 15 -29.5 25t-50.5 10q-38 0 -62.5 -20.5t-24.5 -51.5z" />
    <glyph glyph-name="e.superior" horiz-adv-x="429" 
d="M395 470q0 -16 -3 -35h-249q15 -48 89 -48q69 0 106 41l34 -75q-45 -63 -145 -63q-83 0 -138 49.5t-55 130.5q0 75 51.5 127.5t133.5 52.5q77 0 126.5 -53t49.5 -127zM145 510h144q-13 43 -70 43q-61 0 -74 -43z" />
    <glyph glyph-name="f.superior" horiz-adv-x="327" 
d="M307 738l-23 -76q-24 15 -55 15q-39 0 -39 -37h105v-107h-105v-233h-104v233h-57v107h57v19q0 56 31 87t90 31q68 0 100 -39z" />
    <glyph glyph-name="g.superior" horiz-adv-x="469" 
d="M37 476q1 78 50 126t121 48q35 0 63.5 -12t40.5 -32v34h100v-329q0 -70 -50 -114t-131 -44q-55 0 -99 20t-58 45l34 88q44 -48 115 -48q34 0 59.5 15t25.5 51v22q-24 -44 -100 -44q-72 0 -121 48t-50 126zM141 474q0 -29 24 -48.5t62 -19.5q28 0 51 10t30 24v68
q-7 14 -30 24t-51 10q-38 0 -62 -19.5t-24 -48.5z" />
    <glyph glyph-name="h.superior" horiz-adv-x="443" 
d="M251 650q57 0 100 -38.5t43 -110.5v-201h-104v180q0 29 -17 45.5t-45 16.5q-26 0 -44.5 -11.5t-22.5 -29.5v-201h-104v466h104v-155q8 17 33 28t57 11z" />
    <glyph glyph-name="i.superior" horiz-adv-x="223" 
d="M60 300v340h104v-340h-104zM45 729q0 28 19 47.5t47 19.5t47.5 -19.5t19.5 -47.5t-19.5 -47t-47.5 -19t-47 19t-19 47z" />
    <glyph glyph-name="j.superior" horiz-adv-x="226" 
d="M48 729q0 28 19 47.5t47 19.5t47.5 -19.5t19.5 -47.5t-19.5 -47t-47.5 -19t-47 19t-19 47zM63 294v346h104v-368q0 -118 -102 -118q-53 0 -80 24l11 101q14 -16 41 -16q26 0 26 31z" />
    <glyph glyph-name="k.superior" horiz-adv-x="432" 
d="M57 300v466h104v-241l109 115h138l-153 -160l165 -180h-137l-122 132v-132h-104z" />
    <glyph glyph-name="l.superior" horiz-adv-x="218" 
d="M57 300v466h104v-466h-104z" />
    <glyph glyph-name="m.superior" horiz-adv-x="648" 
d="M244 650q66 0 103 -42q37 42 113 42q55 0 96 -36t41 -102v-212h-104v187q0 26 -15 40.5t-39 14.5q-23 0 -39.5 -11.5t-20.5 -28.5v-202h-104v187q0 26 -15 40.5t-40 14.5q-22 0 -39 -11.5t-20 -28.5v-202h-104v340h100v-31q8 18 33.5 29.5t53.5 11.5z" />
    <glyph glyph-name="o.superior" horiz-adv-x="452" 
d="M226 650q80 0 135.5 -51t55.5 -129t-55 -129t-136 -51t-136 51t-55 129t55.5 129t135.5 51zM226 398q37 0 61 20t24 52t-24.5 52t-60.5 20t-60.5 -20t-24.5 -52t24.5 -52t60.5 -20z" />
    <glyph glyph-name="p.superior" horiz-adv-x="467" 
d="M432 470q-1 -81 -50 -130.5t-121 -49.5q-76 0 -100 45v-171h-104v476h100v-34q12 20 40.5 32t63.5 12q72 0 121 -49.5t50 -130.5zM328 470q0 31 -24.5 51.5t-62.5 20.5q-28 0 -50.5 -10t-29.5 -25v-74q7 -15 29.5 -25t50.5 -10q38 0 62.5 20.5t24.5 51.5z" />
    <glyph glyph-name="q.superior" horiz-adv-x="467" 
d="M35 470q1 81 50 130.5t121 49.5q35 0 63.5 -12t40.5 -32v34h100v-476h-104v171q-24 -45 -100 -45q-72 0 -121 49.5t-50 130.5zM139 470q0 -31 24.5 -51.5t62.5 -20.5q28 0 50.5 10t29.5 25v74q-7 15 -29.5 25t-50.5 10q-38 0 -62.5 -20.5t-24.5 -51.5z" />
    <glyph glyph-name="r.superior" horiz-adv-x="309" 
d="M232 650q37 0 54 -27l-14 -93q-15 12 -44 12q-54 0 -67 -49v-193h-104v340h100v-33l1 -5q17 48 74 48z" />
    <glyph glyph-name="s.superior" horiz-adv-x="324" 
d="M197 511q91 -39 91 -111q0 -48 -35.5 -79t-93.5 -31q-43 0 -77.5 18t-47.5 42l30 87q36 -47 93 -47q28 0 28 13q0 8 -27 19l-24 12q-91 48 -91 114q0 45 34 73.5t86 28.5q76 0 113 -49l-21 -86q-39 34 -87 34q-19 0 -19 -8t18 -16q10 -4 30 -14z" />
    <glyph glyph-name="t.superior" horiz-adv-x="335" 
d="M270 424l23 -96q-32 -38 -94 -38q-59 0 -89 32t-30 87v124h-55v32l129 161h32v-86h103v-107h-105v-99q0 -36 34 -36q26 0 52 26z" />
    <glyph glyph-name="u.superior" horiz-adv-x="441" 
d="M193 290q-58 0 -101 38.5t-43 110.5v201h104v-180q0 -29 17 -45.5t44 -16.5q26 0 44 11.5t22 29.5v201h104v-340h-100v29q-8 -17 -33 -28t-58 -11z" />
    <glyph glyph-name="v.superior" horiz-adv-x="417" 
d="M253 300h-88l-148 340h111l79 -185l79 185h114z" />
    <glyph glyph-name="w.superior" horiz-adv-x="617" 
d="M351 640l61 -172l71 172h117l-142 -340h-90l-59 171l-60 -171h-90l-142 340h116l70 -172l60 172h88z" />
    <glyph glyph-name="x.superior" horiz-adv-x="423" 
d="M212 396l-72 -96h-126l135 179l-120 161h123l59 -79l59 79h127l-122 -161l135 -179h-123z" />
    <glyph glyph-name="y.superior" horiz-adv-x="430" 
d="M158 328l-138 312h112l80 -175l80 175h117l-212 -478h-114z" />
    <glyph glyph-name="z.superior" horiz-adv-x="339" 
d="M43 533v107h250v-84l-115 -149h122v-107h-261v79l120 154h-116z" />
    <glyph glyph-name="A.superior" horiz-adv-x="510" 
d="M258 617l-50 -120h97zM306 760l192 -460h-113l-34 82h-189l-35 -82h-115l193 460h101z" />
    <glyph glyph-name="B.superior" horiz-adv-x="406" 
d="M65 760h117q71 0 117 -33t46 -94q0 -56 -46 -88q69 -33 69 -111q0 -60 -48.5 -97t-117.5 -37h-137v460zM221 479h-48v-73h50q17 0 28 10t11 26q0 15 -11.5 26t-29.5 11zM198 653h-25v-77h25q17 0 28 11.5t11 28.5q0 15 -11 26t-28 11z" />
    <glyph glyph-name="C.superior" horiz-adv-x="494" 
d="M293 407q46 0 83 16.5t55 41.5l34 -95q-19 -36 -67.5 -58t-113.5 -22q-101 0 -177.5 69t-76.5 171t76.5 171t177.5 69q61 0 109 -21.5t68 -55.5l-34 -95q-17 23 -54.5 39t-79.5 16q-68 0 -109.5 -33.5t-41.5 -89.5q0 -55 41.5 -89t109.5 -34z" />
    <glyph glyph-name="D.superior" horiz-adv-x="511" 
d="M371 530q0 48 -35.5 80t-90.5 32h-72v-224h72q53 0 89.5 31t36.5 81zM65 760h153q117 0 190 -61.5t73 -168.5q0 -106 -73.5 -168t-189.5 -62h-153v460z" />
    <glyph glyph-name="E.superior" horiz-adv-x="380" 
d="M65 300v460h265v-118h-157v-48h138v-118h-138v-58h157v-118h-265z" />
    <glyph glyph-name="F.superior" horiz-adv-x="351" 
d="M65 300v460h242v-118h-134v-48h121v-118h-121v-176h-108z" />
    <glyph glyph-name="G.superior" horiz-adv-x="528" 
d="M293 653q-68 0 -109.5 -34.5t-41.5 -90.5t42.5 -89t112.5 -33q47 0 84 23v23h-87v111h191v-170q-67 -103 -201 -103q-101 0 -177.5 68.5t-76.5 170.5t76.5 171.5t177.5 69.5q61 0 109 -21.5t68 -55.5l-34 -95q-17 23 -54.5 39t-79.5 16z" />
    <glyph glyph-name="H.superior" horiz-adv-x="540" 
d="M65 300v460h108v-166h194v166h108v-460h-108v177h-194v-177h-108z" />
    <glyph glyph-name="I.superior" horiz-adv-x="238" 
d="M65 300v460h108v-460h-108z" />
    <glyph glyph-name="J.superior" horiz-adv-x="319" 
d="M259 760v-330q0 -66 -35 -103t-102 -37q-27 0 -56.5 12.5t-42.5 33.5l11 106q33 -35 74 -35q43 0 43 47v306h108z" />
    <glyph glyph-name="K.superior" horiz-adv-x="483" 
d="M65 300v460h108v-151l138 151h137l-193 -214l223 -246h-149l-156 171v-171h-108z" />
    <glyph glyph-name="L.superior" horiz-adv-x="342" 
d="M65 300v460h108v-342h146v-118h-254z" />
    <glyph glyph-name="M.superior" horiz-adv-x="666" 
d="M333 476l118 284h107l64 -460h-107l-34 248l-99 -248h-92l-97 249l-36 -249h-113l66 460h106z" />
    <glyph glyph-name="N.superior" horiz-adv-x="538" 
d="M65 300v460h104l196 -263v263h108v-460h-105l-195 259v-259h-108z" />
    <glyph glyph-name="O.superior" horiz-adv-x="570" 
d="M285 770q107 0 181 -68.5t74 -171.5t-74 -171.5t-181 -68.5t-181 68.5t-74 171.5t74 171.5t181 68.5zM285 407q62 0 102.5 33.5t40.5 89.5t-40.5 89.5t-102.5 33.5t-102.5 -33.5t-40.5 -89.5t40.5 -89.5t102.5 -33.5z" />
    <glyph glyph-name="P.superior" horiz-adv-x="384" 
d="M65 760h134q70 0 116 -40.5t46 -106.5q0 -64 -45 -105.5t-117 -41.5h-26v-166h-108v460zM214 646h-41v-66h41q18 0 28.5 9.5t10.5 23.5t-10.5 23.5t-28.5 9.5z" />
    <glyph glyph-name="Q.superior" horiz-adv-x="568" 
d="M285 770q107 0 181 -68.5t74 -171.5q0 -88 -55.5 -152t-141.5 -82q6 -33 49 -33q36 0 64 26l9 -91q-28 -38 -97 -38q-125 0 -125 133q-92 14 -152.5 79.5t-60.5 157.5q0 103 74 171.5t181 68.5zM285 407q62 0 102.5 33.5t40.5 89.5t-40.5 89.5t-102.5 33.5t-102.5 -33.5
t-40.5 -89.5t40.5 -89.5t102.5 -33.5z" />
    <glyph glyph-name="R.superior" horiz-adv-x="407" 
d="M65 300v460h149q59 0 102 -36.5t43 -103.5q0 -39 -19 -71.5t-51 -48.5l97 -200h-117l-88 184h-8v-184h-108zM217 646h-44v-62h44q16 0 25 8.5t9 22.5t-9 22.5t-25 8.5z" />
    <glyph glyph-name="S.superior" horiz-adv-x="364" 
d="M267 549q32 -27 51 -54.5t19 -66.5q0 -62 -43.5 -100.5t-110.5 -38.5q-52 0 -96.5 23.5t-58.5 55.5l32 98q18 -26 52 -43t74 -17q41 0 41 21q0 13 -26 31q-70 48 -110 88q-47 47 -47 101q0 59 41.5 91t101.5 32q43 0 78 -18t52 -42l-18 -99q-22 20 -55.5 31t-61.5 11
q-27 0 -27 -13q0 -9 25 -28q61 -42 87 -63z" />
    <glyph glyph-name="T.superior" horiz-adv-x="409" 
d="M17 642v118h374v-118h-133v-342h-108v342h-133z" />
    <glyph glyph-name="U.superior" horiz-adv-x="509" 
d="M341 487v273h108v-279q0 -84 -53.5 -137.5t-141.5 -53.5q-87 0 -140.5 52.5t-53.5 138.5v279h108v-274q0 -35 24.5 -57t62.5 -22q39 0 62.5 22.5t23.5 57.5z" />
    <glyph glyph-name="V.superior" horiz-adv-x="484" 
d="M192 300l-180 460h114l114 -281l115 281h117l-178 -460h-102z" />
    <glyph glyph-name="W.superior" horiz-adv-x="707" 
d="M398 760l80 -260l92 260h117l-160 -460h-90l-82 264l-85 -264h-92l-159 460h115l90 -261l83 261h91z" />
    <glyph glyph-name="X.superior" horiz-adv-x="491" 
d="M247 440l-101 -140h-128l163 236l-155 224h127l91 -127l91 127h130l-156 -224l165 -236h-128z" />
    <glyph glyph-name="Y.superior" horiz-adv-x="441" 
d="M168 492l-156 268h119l90 -145l88 145h120l-153 -268v-192h-108v192z" />
    <glyph glyph-name="Z.superior" horiz-adv-x="370" 
d="M39 642v118h289v-91l-150 -251h152v-118h-292v85l153 257h-152z" />
    <glyph glyph-name="exclam.smcp" horiz-adv-x="364" 
d="M244 211h-124l-24 383h172zM91 75q0 37 27 64t64 27t64 -27t27 -64t-27 -63.5t-64 -26.5t-64 26.5t-27 63.5z" />
    <glyph glyph-name="quotedbl.smcp" horiz-adv-x="425" 
d="M60 350l-16 244h146l-17 -244h-113zM251 350l-16 244h146l-17 -244h-113z" />
    <glyph glyph-name="numbersign.smcp" horiz-adv-x="574" 
d="M520 485v-114h-91l-11 -61h76v-115h-96l-23 -125h-107l22 125h-63l-22 -125h-106l21 125h-61v115h81l11 61h-68v114h89l19 109h109l-21 -109h64l19 109h107l-19 -109h70zM258 371l-10 -61h63l11 61h-64z" />
    <glyph glyph-name="dollar.smcp" horiz-adv-x="467" 
d="M412 533l-27 -133q-28 25 -69.5 40.5t-73.5 15.5q-35 0 -35 -16q0 -13 39 -42q55 -41 98 -77q28 -24 44 -40.5t31 -47.5t15 -66q0 -64 -35 -109.5t-95 -62.5v-87h-125v84q-50 10 -88.5 36.5t-52.5 58.5l43 129q21 -32 65.5 -55t91.5 -23q48 0 48 26q0 16 -39 45
q-100 75 -129 104q-60 60 -60 134q0 59 33.5 98t87.5 55v85h125v-84q68 -16 108 -68z" />
    <glyph glyph-name="quotesingle.smcp" horiz-adv-x="234" 
d="M60 350l-16 244h146l-17 -244h-113z" />
    <glyph glyph-name="slash.smcp" horiz-adv-x="433" 
d="M433 627l-307 -724h-126l306 724h127z" />
    <glyph glyph-name="question.smcp" horiz-adv-x="435" 
d="M123 75q0 37 26.5 64t64.5 27q37 0 64 -27t27 -64t-27 -63.5t-64 -26.5t-64 26.5t-27 63.5zM90 438l-30 100q59 71 158 71q67 0 109 -32.5t42 -86.5q0 -41 -22.5 -67t-81.5 -56q-4 -2 -13.5 -6.5t-14 -7t-10.5 -6t-8.5 -7t-2.5 -7.5q0 -10 19 -10q42 0 91 37l24 -98
q-55 -61 -139 -61q-57 0 -94.5 30t-37.5 79q0 40 22 71.5t82 61.5q34 16 42.5 22t8.5 12q0 12 -25 12q-36 0 -71 -17.5t-48 -33.5z" />
    <glyph glyph-name="A.smcp" horiz-adv-x="648" 
d="M392 594l246 -594h-151l-43 105h-237l-44 -105h-153l247 594h135zM325 390l-57 -137h115z" />
    <glyph glyph-name="B.smcp" horiz-adv-x="526" 
d="M77 594h182q85 0 139 -42t54 -121q0 -73 -50 -113q37 -18 59 -55.5t22 -89.5q0 -78 -59 -125.5t-139 -47.5h-208v594zM292 234h-69v-94h69q17 0 30 13.5t13 33.5q0 18 -12.5 32.5t-30.5 14.5zM264 455h-41v-96h42q20 0 33.5 13t13.5 34q0 22 -13 35.5t-35 13.5z" />
    <glyph glyph-name="C.smcp" horiz-adv-x="622" 
d="M543 211l46 -129q-28 -45 -88 -71t-141 -26q-129 0 -227.5 89.5t-98.5 222.5t98.5 222.5t227.5 89.5q77 0 137.5 -27t88.5 -70l-46 -125q-26 27 -70.5 48t-97.5 21q-82 0 -135 -45t-53 -114t53 -114t135 -45q56 0 101.5 21.5t69.5 51.5z" />
    <glyph glyph-name="D.smcp" horiz-adv-x="642" 
d="M459 296q0 61 -42.5 103t-106.5 42h-87v-288h87q63 0 106 40t43 103zM77 594h194q151 0 244.5 -79t93.5 -219q0 -136 -95 -216t-243 -80h-194v594z" />
    <glyph glyph-name="E.smcp" horiz-adv-x="481" 
d="M77 0v594h347v-148h-201v-67h174v-148h-174v-83h201v-148h-347z" />
    <glyph glyph-name="F.smcp" horiz-adv-x="444" 
d="M77 0v594h314v-148h-168v-67h151v-148h-151v-231h-146z" />
    <glyph glyph-name="G.smcp" horiz-adv-x="669" 
d="M361 609q78 0 138 -26.5t88 -69.5l-46 -125q-25 27 -70 47.5t-97 20.5q-85 0 -137.5 -45t-52.5 -116t53 -114t141 -43q64 0 101 27v40h-104v141h244v-227q-26 -40 -53 -66t-81 -47t-125 -21q-129 0 -227.5 89.5t-98.5 221.5q0 133 99 223t228 90z" />
    <glyph glyph-name="H.smcp" horiz-adv-x="680" 
d="M77 0v594h146v-212h233v212h146v-594h-146v227h-233v-227h-146z" />
    <glyph glyph-name="I.smcp" horiz-adv-x="301" 
d="M77 0v594h146v-594h-146z" />
    <glyph glyph-name="J.smcp" horiz-adv-x="403" 
d="M332 594v-437q0 -82 -46.5 -127t-134.5 -45q-32 0 -69 13t-55 40l14 140q42 -40 94 -40q51 0 51 47v409h146z" />
    <glyph glyph-name="K.smcp" horiz-adv-x="612" 
d="M77 0v594h146v-187l166 187h186l-244 -279l275 -315h-195l-188 218v-218h-146z" />
    <glyph glyph-name="L.smcp" horiz-adv-x="436" 
d="M77 0v594h146v-441h186v-153h-332z" />
    <glyph glyph-name="M.smcp" horiz-adv-x="841" 
d="M423 214l143 380h143l83 -594h-143l-45 313l-118 -313h-122l-118 313l-45 -313h-148l84 594h143z" />
    <glyph glyph-name="N.smcp" horiz-adv-x="678" 
d="M77 0v594h138l239 -327v327h146v-594h-140l-237 324v-324h-146z" />
    <glyph glyph-name="O.smcp" horiz-adv-x="717" 
d="M359 609q135 0 230 -87.5t95 -224.5t-95 -224.5t-231 -87.5q-134 0 -229 87.5t-95 224.5t95 224.5t230 87.5zM359 456q-75 0 -125 -44t-50 -115q0 -70 50 -114.5t125 -44.5t125 44.5t50 114.5q0 71 -50 115t-125 44z" />
    <glyph glyph-name="P.smcp" horiz-adv-x="496" 
d="M77 594h196q85 0 141.5 -53t56.5 -138q0 -84 -55.5 -137t-141.5 -53h-51v-213h-146v594zM270 456h-47v-105h47q23 0 37 14t14 38q0 23 -14.5 38t-36.5 15z" />
    <glyph glyph-name="Q.smcp" horiz-adv-x="717" 
d="M582 -4l11 -128q-41 -51 -127 -51q-160 0 -160 172q-117 17 -194.5 101.5t-77.5 206.5q0 137 95 224.5t230 87.5t230 -87.5t95 -224.5q0 -115 -69 -196.5t-177 -106.5q4 -18 18.5 -28t32.5 -10q32 0 50 8.5t43 31.5zM359 456q-75 0 -125 -44t-50 -115q0 -70 50 -114.5
t125 -44.5t125 44.5t50 114.5q0 71 -50 115t-125 44z" />
    <glyph glyph-name="R.smcp" horiz-adv-x="522" 
d="M77 0v594h208q73 0 128.5 -46.5t55.5 -132.5q0 -55 -23 -98.5t-57 -61.5l116 -255h-157l-103 229h-22v-229h-146zM269 456h-46v-105h46q22 0 36 14t14 40q0 21 -14.5 36t-35.5 15z" />
    <glyph glyph-name="S.smcp" horiz-adv-x="467" 
d="M412 533l-27 -133q-28 25 -69.5 40.5t-73.5 15.5q-35 0 -35 -16q0 -13 39 -42q55 -41 98 -77q28 -24 44 -40.5t31 -47.5t15 -66q0 -82 -55.5 -132t-142.5 -50q-67 0 -123.5 30t-74.5 72l43 129q21 -32 65.5 -55t91.5 -23q48 0 48 26q0 16 -39 45q-100 75 -129 104
q-60 60 -60 134q0 76 54 119t130 43q114 0 170 -76z" />
    <glyph glyph-name="T.smcp" horiz-adv-x="512" 
d="M18 442v152h476v-152h-165v-442h-146v442h-165z" />
    <glyph glyph-name="U.smcp" horiz-adv-x="639" 
d="M422 594h146v-362q0 -111 -69 -179t-180 -68t-178.5 67.5t-67.5 179.5v362h146v-362q0 -43 28 -68.5t73 -25.5q46 0 74 25.5t28 68.5v362z" />
    <glyph glyph-name="V.smcp" horiz-adv-x="612" 
d="M237 0l-227 594h154l141 -366l140 366h158l-228 -594h-138z" />
    <glyph glyph-name="W.smcp" horiz-adv-x="883" 
d="M499 594l97 -325l110 325h160l-202 -594h-123l-99 329l-100 -329h-123l-202 594h155l112 -325l99 325h116z" />
    <glyph glyph-name="X.smcp" horiz-adv-x="602" 
d="M303 170l-109 -170h-176l200 305l-188 289h173l97 -152l96 152h174l-186 -290l200 -304h-174z" />
    <glyph glyph-name="Y.smcp" horiz-adv-x="561" 
d="M207 249l-196 345h161l108 -177l108 177h162l-196 -345v-249h-147v249z" />
    <glyph glyph-name="Z.smcp" horiz-adv-x="468" 
d="M43 441v153h374v-120l-194 -321h197v-153h-380v110l193 331h-190z" />
    <glyph glyph-name="Q.ss02.smcp" horiz-adv-x="717" 
d="M359 609q135 0 230 -87.5t95 -224.5q0 -127 -85 -215l106 -132h-155l-51 63q-67 -28 -141 -28q-134 0 -229 87.5t-95 224.5t95 224.5t230 87.5zM359 456q-75 0 -125 -44t-50 -115q0 -70 50 -114.5t125 -44.5q19 0 37 3l-100 125h156l51 -64q31 42 31 95q0 71 -50 115
t-125 44z" />
    <glyph glyph-name="backslash.smcp" horiz-adv-x="433" 
d="M307 -97l-307 724h127l306 -724h-126z" />
    <glyph glyph-name="sterling.smcp" horiz-adv-x="506" 
d="M61 220v132h49q-13 39 -13 77q0 84 53 132t138 48q61 0 105 -27.5t58 -68.5l-52 -112q-37 55 -93 55q-27 0 -42 -14.5t-15 -36.5q0 -23 11 -53h107v-132h-69v-2q0 -41 -23 -70h180v-148h-395v111q38 16 64.5 44.5t26.5 63.5v1h-90z" />
    <glyph glyph-name="yen.smcp" horiz-adv-x="499" 
d="M50 269h113l-17 39h-96v92h53l-86 194h139l93 -196l90 196h143l-87 -194h53v-92h-94l-17 -39h111v-92h-124v-177h-147v177h-127v92z" />
    <glyph glyph-name="Agrave.smcp" horiz-adv-x="648" 
d="M392 594l246 -594h-151l-43 105h-237l-44 -105h-153l247 594h135zM325 390l-57 -137h115zM134 800h162l73 -157h-109z" />
    <glyph glyph-name="Aacute.smcp" horiz-adv-x="648" 
d="M392 594l246 -594h-151l-43 105h-237l-44 -105h-153l247 594h135zM325 390l-57 -137h115zM344 800h162l-125 -157h-110z" />
    <glyph glyph-name="Acircumflex.smcp" horiz-adv-x="648" 
d="M392 594l246 -594h-151l-43 105h-237l-44 -105h-153l247 594h135zM325 390l-57 -137h115zM243 800h164l91 -157h-106l-67 72l-67 -72h-105z" />
    <glyph glyph-name="Atilde.smcp" horiz-adv-x="648" 
d="M392 594l246 -594h-151l-43 105h-237l-44 -105h-153l247 594h135zM325 390l-57 -137h115zM249 640h-89q-15 30 -15 61q0 44 28 70.5t74 26.5q35 0 83 -25.5t61 -25.5q20 0 20 18q0 14 -9 33h89q14 -31 14 -62q0 -44 -26.5 -70t-71.5 -26q-35 0 -83 25.5t-63 25.5
q-21 0 -21 -20q0 -13 9 -31z" />
    <glyph glyph-name="Adieresis.smcp" horiz-adv-x="648" 
d="M392 594l246 -594h-151l-43 105h-237l-44 -105h-153l247 594h135zM325 390l-57 -137h115zM156 719q0 30 22 51.5t52 21.5q31 0 52.5 -21.5t21.5 -51.5q0 -32 -21 -53t-53 -21q-31 0 -52.5 21t-21.5 53zM346 719q0 30 21.5 51.5t53.5 21.5q30 0 51.5 -21.5t21.5 -51.5
q0 -32 -21.5 -53t-51.5 -21q-32 0 -53.5 21t-21.5 53z" />
    <glyph glyph-name="Aring.smcp" horiz-adv-x="648" 
d="M392 594l246 -594h-151l-43 105h-237l-44 -105h-153l247 594h135zM325 390l-57 -137h115zM211 739q0 47 33.5 80t80.5 33t80.5 -33t33.5 -80t-33.5 -80t-80.5 -33t-80.5 33t-33.5 80zM360 739q0 14 -10 23t-25 9t-25 -9t-10 -23t10 -23t25 -9t25 9t10 23z" />
    <glyph glyph-name="AE.smcp" horiz-adv-x="830" 
d="M773 0h-347v105h-198l-68 -105h-168l382 594h399v-148h-201v-67h174v-148h-174v-83h201v-148zM426 418l-104 -165h104v165z" />
    <glyph glyph-name="Ccedilla.smcp" horiz-adv-x="622" 
d="M380 -119q0 23 -32 23q-22 0 -39 -7l-18 40l15 53q-113 19 -192.5 104t-79.5 203q0 133 98.5 222.5t227.5 89.5q77 0 137.5 -27t88.5 -70l-46 -125q-26 27 -70.5 48t-97.5 21q-82 0 -135 -45t-53 -114t53 -114t135 -45q56 0 101.5 21.5t69.5 51.5l46 -129
q-26 -42 -80.5 -67.5t-129.5 -28.5l-7 -25q45 2 73.5 -20.5t28.5 -61.5q0 -46 -34 -72.5t-86 -26.5q-34 0 -66 14t-47 34l13 63q46 -32 92 -32q34 0 34 22z" />
    <glyph glyph-name="Egrave.smcp" horiz-adv-x="481" 
d="M77 0v594h347v-148h-201v-67h174v-148h-174v-83h201v-148h-347zM100 800h162l73 -157h-109z" />
    <glyph glyph-name="Eacute.smcp" horiz-adv-x="481" 
d="M77 0v594h347v-148h-201v-67h174v-148h-174v-83h201v-148h-347zM239 800h162l-125 -157h-110z" />
    <glyph glyph-name="Ecircumflex.smcp" horiz-adv-x="481" 
d="M77 0v594h347v-148h-201v-67h174v-148h-174v-83h201v-148h-347zM169 800h164l91 -157h-106l-67 72l-67 -72h-105z" />
    <glyph glyph-name="Edieresis.smcp" horiz-adv-x="481" 
d="M77 0v594h347v-148h-201v-67h174v-148h-174v-83h201v-148h-347zM79 719q0 30 22 51.5t52 21.5q31 0 52.5 -21.5t21.5 -51.5q0 -32 -21 -53t-53 -21q-31 0 -52.5 21t-21.5 53zM269 719q0 30 21.5 51.5t53.5 21.5q30 0 51.5 -21.5t21.5 -51.5q0 -32 -21.5 -53t-51.5 -21
q-32 0 -53.5 21t-21.5 53z" />
    <glyph glyph-name="Igrave.smcp" horiz-adv-x="302" 
d="M77 0v594h146v-594h-146zM-24 800h162l73 -157h-109z" />
    <glyph glyph-name="Iacute.smcp" horiz-adv-x="302" 
d="M77 0v594h146v-594h-146zM172 800h162l-125 -157h-110z" />
    <glyph glyph-name="Icircumflex.smcp" horiz-adv-x="302" 
d="M77 0v594h146v-594h-146zM70 800h164l91 -157h-106l-67 72l-67 -72h-105z" />
    <glyph glyph-name="Idieresis.smcp" horiz-adv-x="302" 
d="M77 0v594h146v-594h-146zM-18 719q0 30 22 51.5t52 21.5q31 0 52.5 -21.5t21.5 -51.5q0 -32 -21 -53t-53 -21q-31 0 -52.5 21t-21.5 53zM172 719q0 30 21.5 51.5t53.5 21.5q30 0 51.5 -21.5t21.5 -51.5q0 -32 -21.5 -53t-51.5 -21q-32 0 -53.5 21t-21.5 53z" />
    <glyph glyph-name="Eth.smcp" horiz-adv-x="672" 
d="M13 231v148h94v215h194q151 0 244.5 -79t93.5 -219q0 -136 -95 -216t-243 -80h-194v231h-94zM489 296q0 61 -42.5 103t-106.5 42h-87v-62h114v-148h-114v-78h87q63 0 106 40t43 103z" />
    <glyph glyph-name="Ntilde.smcp" horiz-adv-x="678" 
d="M77 0v594h138l239 -327v327h146v-594h-140l-237 324v-324h-146zM263 640h-89q-15 30 -15 61q0 44 28 70.5t74 26.5q35 0 83 -25.5t61 -25.5q20 0 20 18q0 14 -9 33h89q14 -31 14 -62q0 -44 -26.5 -70t-71.5 -26q-35 0 -83 25.5t-63 25.5q-21 0 -21 -20q0 -13 9 -31z" />
    <glyph glyph-name="Ograve.smcp" horiz-adv-x="717" 
d="M359 609q135 0 230 -87.5t95 -224.5t-95 -224.5t-231 -87.5q-134 0 -229 87.5t-95 224.5t95 224.5t230 87.5zM359 456q-75 0 -125 -44t-50 -115q0 -70 50 -114.5t125 -44.5t125 44.5t50 114.5q0 71 -50 115t-125 44zM180 800h162l73 -157h-109z" />
    <glyph glyph-name="Oacute.smcp" horiz-adv-x="717" 
d="M359 609q135 0 230 -87.5t95 -224.5t-95 -224.5t-231 -87.5q-134 0 -229 87.5t-95 224.5t95 224.5t230 87.5zM359 456q-75 0 -125 -44t-50 -115q0 -70 50 -114.5t125 -44.5t125 44.5t50 114.5q0 71 -50 115t-125 44zM376 800h162l-125 -157h-110z" />
    <glyph glyph-name="Ocircumflex.smcp" horiz-adv-x="717" 
d="M359 609q135 0 230 -87.5t95 -224.5t-95 -224.5t-231 -87.5q-134 0 -229 87.5t-95 224.5t95 224.5t230 87.5zM359 456q-75 0 -125 -44t-50 -115q0 -70 50 -114.5t125 -44.5t125 44.5t50 114.5q0 71 -50 115t-125 44zM277 800h164l91 -157h-106l-67 72l-67 -72h-105z" />
    <glyph glyph-name="Otilde.smcp" horiz-adv-x="717" 
d="M359 609q135 0 230 -87.5t95 -224.5t-95 -224.5t-231 -87.5q-134 0 -229 87.5t-95 224.5t95 224.5t230 87.5zM359 456q-75 0 -125 -44t-50 -115q0 -70 50 -114.5t125 -44.5t125 44.5t50 114.5q0 71 -50 115t-125 44zM282 640h-89q-15 30 -15 61q0 44 28 70.5t74 26.5
q35 0 83 -25.5t61 -25.5q20 0 20 18q0 14 -9 33h89q14 -31 14 -62q0 -44 -26.5 -70t-71.5 -26q-36 0 -84 25.5t-62 25.5q-21 0 -21 -20q0 -13 9 -31z" />
    </font>
</defs>
</svg>
