<?xml version="1.0" encoding="utf-8"?>
<!-- Generator: Adobe Illustrator 22.1.0, SVG Export Plug-In . SVG Version: 6.00 Build 0)  -->
<svg version="1.1" id="Layer_1" xmlns="http://www.w3.org/2000/svg" xmlns:xlink="http://www.w3.org/1999/xlink" x="0px" y="0px"
	 viewBox="0 0 837 231" style="enable-background:new 0 0 837 231;" xml:space="preserve">
<style type="text/css">
	.st0{fill:#FFFFFF;}
</style>
<path class="st0" d="M769.1,170.7c-12.1,0-21.8-3.6-29-10.7c-7.2-7.1-10.8-16.8-10.8-28.9V75.7H746v54.8c0,7.6,2,13.6,6.1,18.1
	c4.1,4.4,9.8,6.7,17.1,6.7c7.3,0,13-2.2,17.1-6.7s6.2-10.5,6.2-18.1V75.7h16.4v55.4c0,12.3-3.6,22-10.6,29.1
	C791.2,167.2,781.5,170.7,769.1,170.7z"/>
<path class="st0" d="M81.6,73.5c13.3,0,24.3,4.7,33,14.2c8.9,9.6,13.3,21.1,13.3,34.4c0,13.5-4.4,25-13.3,34.6
	c-8.8,9.4-19.8,14-33.2,14c-13.5,0-24.5-5.3-32.9-15.7v51.7H32v-131h16.6v14C57.3,78.9,68.3,73.5,81.6,73.5z M111.4,121.9
	c0-9.3-2.9-17.2-8.8-23.5c-5.9-6.5-13.5-9.7-23-9.7s-17.1,3.2-23,9.7c-5.8,6.5-8.6,14.3-8.6,23.5c0,9.5,2.9,17.4,8.6,23.9
	c5.9,6.5,13.5,9.7,23,9.7s17.1-3.2,23-9.7C108.5,139.4,111.4,131.5,111.4,121.9z"/>
<path class="st0" d="M191,170.7c-14.2,0-25.9-4.7-35.1-14c-9.1-9.5-13.7-21-13.7-34.8c0-13.7,4.5-25.2,13.7-34.4
	C165,78,176.7,73.3,191,73.3c14.1,0,25.7,4.7,34.8,14.2c9.2,9.6,13.8,21.1,13.8,34.4c0,13.6-4.6,25.2-13.8,34.8
	C216.5,166,204.9,170.7,191,170.7z M223,121.9c0-9.1-3.1-16.9-9.3-23.4c-6.2-6.6-13.8-9.9-22.7-9.9c-8.9,0-16.4,3.3-22.7,9.9
	c-6.2,6.5-9.3,14.2-9.3,23.4c0,9.2,3.1,17.1,9.3,23.7c6.2,6.6,13.8,9.9,22.7,9.9c8.9,0,16.4-3.3,22.7-9.9
	C219.9,139,223,131.1,223,121.9z"/>
<path class="st0" d="M332.7,89.2V37.5h16.6v131h-16.6v-13c-8.1,10.1-18.8,15.2-32.2,15.2c-13.5,0-24.7-4.7-33.6-14
	c-8.8-9.5-13.2-21-13.2-34.8c0-13.6,4.4-25,13.2-34.3c8.8-9.4,19.8-14.2,33.2-14.2C313.4,73.5,324.2,78.7,332.7,89.2z M333.9,121.9
	c0-9.3-2.9-17.2-8.8-23.5c-5.8-6.5-13.4-9.7-22.8-9.7s-17.1,3.2-23,9.7c-5.8,6.5-8.6,14.3-8.6,23.5c0,9.5,2.9,17.4,8.6,23.9
	c5.9,6.5,13.5,9.7,23,9.7s17.1-3.2,22.8-9.7C330.9,139.4,333.9,131.5,333.9,121.9z"/>
<path class="st0" d="M461,120.4c0,1.1-0.2,4-0.5,8.5h-73.9c1.5,8.2,5,14.6,10.4,19.4c5.4,4.7,12.8,7.1,22.1,7.1
	c5.5,0,11.3-1,17.1-2.9c5.9-1.9,11-4.4,15.2-7.5l7.1,12.6c-4.8,3.7-10.8,6.8-18,9.3c-7.2,2.5-14.4,3.7-21.8,3.7
	c-8.4,0-15.9-1.4-22.4-4.1s-11.7-6.5-15.5-11.3c-3.8-4.7-6.7-9.9-8.7-15.6c-2-5.6-2.9-11.6-2.9-17.8c0-13.8,4.3-25.4,13-34.6
	c8.8-9.1,20.1-13.7,33.9-13.7c13.2,0,23.9,4.2,32.2,12.6C456.8,94.5,461,105.9,461,120.4z M386.6,114.5h57.3
	c-0.5-8-3.3-14.3-8.4-19.1s-11.6-7.2-19.3-7.2c-7.5,0-14,2.5-19.4,7.4C391.4,100.4,388,106.7,386.6,114.5z"/>
<path class="st0" d="M497.2,37.5v131h-16.6v-131H497.2z"/>
<path class="st0" d="M561.5,170.7c-12.1,0-21.8-3.6-29-10.7c-7.2-7.1-10.8-16.8-10.8-28.9V75.7h16.6v54.8c0,7.6,2,13.6,6.1,18.1
	c4.1,4.4,9.8,6.7,17,6.7c7.3,0,13-2.2,17.1-6.7s6.2-10.5,6.2-18.1V75.7h16.4v55.4c0,12.3-3.5,22-10.6,29.1
	C583.6,167.2,573.9,170.7,561.5,170.7z"/>
<path class="st0" d="M619.3,160c0-3,1.1-5.5,3.2-7.6s4.8-3.1,7.9-3.1s5.7,1,7.9,3.1s3.2,4.6,3.2,7.6c0,3.2-1.1,5.9-3.2,8
	c-2.1,2.1-4.8,3.2-7.9,3.2s-5.7-1.1-7.9-3.2C620.4,165.9,619.3,163.2,619.3,160z"/>
<path class="st0" d="M679.9,168.4h-16.6V75.7H679v13.7c5.4-10.7,14.3-16.1,26.7-16.1c3.3,0,7,0.5,10.9,1.4L715,90.8
	c-3.3-1-6.6-1.6-9.7-1.6c-7.6,0-13.7,2.6-18.4,7.8c-4.7,5.2-7,12.6-7,22.3V168.4z"/>
</svg>
