<svg width="182" height="63" viewBox="0 0 182 63" fill="none" xmlns="http://www.w3.org/2000/svg">
<g opacity="0.99">
<path d="M80.2402 39.5703H86.9832V26.8619C87.2632 27.1771 87.6009 27.5103 88.0155 27.8693L101.136 39.5677H109.381L93.5614 25.1494L108.983 11.116H100.648L87.9578 22.5948C87.568 22.9487 87.2495 23.2742 86.9859 23.5764V11.1186H80.243V39.5703H80.2402Z" fill="white"/>
<path d="M114.378 12.8651C112.811 14.0662 112.02 15.7581 112.025 17.8632V33.0797C112.02 35.2107 112.931 36.9077 114.722 38.0752H114.724C116.297 39.0826 118.442 39.5708 121.143 39.5733H136.782V34.0974H122.557C121.237 34.0974 120.27 33.8907 119.661 33.511C119.054 33.1313 118.766 32.607 118.76 31.8347V28.0299H135.76V22.6134H118.76V18.757C118.766 18.0027 119.048 17.4913 119.647 17.1193C120.245 16.75 121.201 16.5459 122.505 16.5459H136.782V11.0699H120.674C118.049 11.0725 115.941 11.6615 114.378 12.8651Z" fill="white"/>
<path d="M149.536 11.3177H142.791V39.5757H149.536V11.3177Z" fill="white"/>
<path d="M179.373 24.1266C177.646 23.0444 175.408 22.5148 172.687 22.5148H166.647C165.085 22.5174 163.995 22.3289 163.421 22.0086C162.779 21.6237 162.515 21.1484 162.474 20.4665C162.455 20.0377 162.444 19.6503 162.444 19.3042C162.444 18.816 162.466 18.4105 162.51 18.0979C162.557 17.788 162.631 17.5736 162.702 17.4702C162.881 17.2119 163.317 16.9743 163.995 16.8193C164.671 16.6618 165.568 16.5817 166.645 16.5817H178.824L181.407 11.1264H164.64C161.961 11.1264 159.877 11.55 158.386 12.4257L158.375 12.4308L158.386 12.4231C156.253 13.6681 155.149 15.4116 155.155 17.5684V21.7709C155.155 22.7576 155.41 23.6539 155.921 24.4392C156.429 25.2244 157.192 25.8986 158.191 26.4617C159.915 27.4406 162.109 27.9211 164.753 27.9211H170.793C172.166 27.9211 173.173 28.107 173.813 28.4454C174.132 28.6133 174.359 28.8174 174.508 29.055C174.659 29.2926 174.736 29.5716 174.736 29.9074C174.736 30.1579 174.736 30.3956 174.736 30.6177C174.736 31.3384 174.733 31.9144 174.708 32.3457C174.686 32.7668 174.629 33.0509 174.571 33.149C174.381 33.4306 173.956 33.6889 173.286 33.8594C172.613 34.035 171.713 34.128 170.62 34.128H158.853L155.624 39.5833H172.317C175.208 39.5833 177.547 39.0435 179.318 37.9431C181.097 36.8427 182.006 35.1896 182 33.0845V28.8303C182.003 26.8078 181.111 25.2115 179.373 24.1266Z" fill="white"/>
<g opacity="0.75">
<path d="M83.8591 48.0306L83.853 45.1018L82.3054 47.5425H82.024L80.4764 45.119V48.0306H79.8892V44.0107H80.3908L82.177 46.8361L83.9387 44.0107H84.4403L84.4464 48.0306H83.8591Z" fill="white"/>
<path d="M88.9295 47.0257H86.654L86.183 48.0306H85.5529L87.492 44.0107H88.0976L90.0429 48.0306H89.4006L88.9295 47.0257ZM88.7154 46.5662L87.7918 44.5964L86.8681 46.5662H88.7154Z" fill="white"/>
<path d="M92.8189 44.0107C93.3735 44.0107 93.8098 44.1351 94.1279 44.3839C94.446 44.6328 94.6051 44.9755 94.6051 45.4119C94.6051 45.8484 94.446 46.191 94.1279 46.4399C93.8098 46.6887 93.3735 46.8132 92.8189 46.8132H91.7606V48.0306H91.1489V44.0107H92.8189ZM92.8005 46.3135C93.1879 46.3135 93.4836 46.237 93.6875 46.0838C93.8914 45.9269 93.9933 45.7029 93.9933 45.4119C93.9933 45.1209 93.8914 44.8989 93.6875 44.7457C93.4836 44.5888 93.1879 44.5103 92.8005 44.5103H91.7606V46.3135H92.8005Z" fill="white"/>
<path d="M97.3155 46.2619H96.4225V48.0306H95.823V44.0107H96.4225V45.7565H97.3278L98.6735 44.0107H99.3281L97.7988 45.9575L99.4015 48.0306H98.7041L97.3155 46.2619Z" fill="white"/>
<path d="M103.503 47.531V48.0306H100.396V44.0107H103.417V44.5103H101.007V45.745H103.154V46.2331H101.007V47.531H103.503Z" fill="white"/>
<path d="M107.773 44.5103H106.305V48.0306H105.705V44.5103H104.243V44.0107H107.773V44.5103Z" fill="white"/>
<path d="M108.883 44.0107H109.489V47.1118L112.021 44.0107H112.584V48.0306H111.985V44.9353L109.446 48.0306H108.883V44.0107Z" fill="white"/>
<path d="M117.969 44.0107V48.0306H117.357V46.2389H114.898V48.0306H114.286V44.0107H114.898V45.7393H117.357V44.0107H117.969Z" fill="white"/>
<path d="M122.473 44.5103H120.271L120.277 48.0306H119.671V44.0107H122.479L122.473 44.5103Z" fill="white"/>
<path d="M124.964 48.0766C124.532 48.0766 124.142 47.9885 123.796 47.8124C123.449 47.6325 123.176 47.3855 122.976 47.0716C122.78 46.7577 122.682 46.4073 122.682 46.0207C122.682 45.634 122.78 45.2837 122.976 44.9697C123.176 44.6558 123.449 44.4107 123.796 44.2346C124.142 44.0547 124.532 43.9647 124.964 43.9647C125.392 43.9647 125.78 44.0547 126.126 44.2346C126.473 44.4107 126.744 44.6558 126.94 44.9697C127.136 45.2798 127.233 45.6301 127.233 46.0207C127.233 46.4112 127.136 46.7634 126.94 47.0773C126.744 47.3875 126.473 47.6325 126.126 47.8124C125.78 47.9885 125.392 48.0766 124.964 48.0766ZM124.964 47.5655C125.278 47.5655 125.559 47.4985 125.808 47.3645C126.061 47.2305 126.259 47.0467 126.401 46.8132C126.548 46.5758 126.622 46.3116 126.622 46.0207C126.622 45.7297 126.548 45.4674 126.401 45.2339C126.259 44.9965 126.061 44.8108 125.808 44.6768C125.559 44.5428 125.278 44.4758 124.964 44.4758C124.65 44.4758 124.364 44.5428 124.108 44.6768C123.855 44.8108 123.655 44.9965 123.508 45.2339C123.365 45.4674 123.294 45.7297 123.294 46.0207C123.294 46.3116 123.365 46.5758 123.508 46.8132C123.655 47.0467 123.855 47.2305 124.108 47.3645C124.364 47.4985 124.65 47.5655 124.964 47.5655Z" fill="white"/>
<path d="M131.256 45.946C131.546 46.0111 131.764 46.1279 131.911 46.2963C132.062 46.4609 132.137 46.6734 132.137 46.9338C132.137 47.2822 132.001 47.5521 131.727 47.7435C131.458 47.9349 131.065 48.0306 130.547 48.0306H128.589V44.0107H130.431C130.9 44.0107 131.265 44.1006 131.526 44.2806C131.791 44.4567 131.923 44.7113 131.923 45.0444C131.923 45.2626 131.864 45.4483 131.746 45.6014C131.632 45.7546 131.468 45.8694 131.256 45.946ZM129.195 45.7795H130.388C130.685 45.7795 130.912 45.7239 131.067 45.6129C131.226 45.5019 131.305 45.3392 131.305 45.1248C131.305 44.9104 131.226 44.7477 131.067 44.6366C130.908 44.5218 130.681 44.4644 130.388 44.4644H129.195V45.7795ZM130.535 47.577C131.191 47.577 131.519 47.3473 131.519 46.8878C131.519 46.6581 131.436 46.4897 131.269 46.3825C131.105 46.2714 130.861 46.2159 130.535 46.2159H129.195V47.577H130.535Z" fill="white"/>
<path d="M135.404 45.4119C135.914 45.4119 136.303 45.5191 136.573 45.7335C136.846 45.9479 136.982 46.2638 136.982 46.6811C136.982 47.1214 136.836 47.4564 136.542 47.6861C136.252 47.9158 135.836 48.0306 135.294 48.0306H133.526V44.0107H134.132V45.4119H135.404ZM135.27 47.577C135.624 47.577 135.896 47.5023 136.083 47.353C136.275 47.1999 136.371 46.9797 136.371 46.6926C136.371 46.1413 136.004 45.8656 135.27 45.8656H134.132V47.577H135.27ZM137.661 44.0107H138.267V48.0306H137.661V44.0107Z" fill="white"/>
<path d="M143.076 47.531V48.0306H139.969V44.0107H142.99V44.5103H140.58V45.745H142.727V46.2331H140.58V47.531H143.076Z" fill="white"/>
<path d="M148.083 44.0107C148.638 44.0107 149.074 44.1351 149.392 44.3839C149.711 44.6328 149.87 44.9755 149.87 45.4119C149.87 45.8484 149.711 46.191 149.392 46.4399C149.074 46.6887 148.638 46.8132 148.083 46.8132H147.025V48.0306H146.413V44.0107H148.083ZM148.065 46.3135C148.452 46.3135 148.748 46.237 148.952 46.0838C149.156 45.9269 149.258 45.7029 149.258 45.4119C149.258 45.1209 149.156 44.8989 148.952 44.7457C148.748 44.5888 148.452 44.5103 148.065 44.5103H147.025V46.3135H148.065Z" fill="white"/>
<path d="M154.195 47.531V48.0306H151.088V44.0107H154.109V44.5103H151.699V45.745H153.846V46.2331H151.699V47.531H154.195Z" fill="white"/>
<path d="M160.887 44.0107V48.0306H155.523V44.0107H156.128V47.531H157.908V44.0107H158.508V47.531H160.288V44.0107H160.887Z" fill="white"/>
<path d="M165.694 47.531V48.0306H162.586V44.0107H165.608V44.5103H163.198V45.745H165.345V46.2331H163.198V47.531H165.694Z" fill="white"/>
<path d="M170.704 44.0107V48.0306H170.092V46.2389H167.633V48.0306H167.021V44.0107H167.633V45.7393H170.092V44.0107H170.704Z" fill="white"/>
<path d="M172.406 44.0107H173.012V47.1118L175.544 44.0107H176.107V48.0306H175.508V44.9353L172.969 48.0306H172.406V44.0107Z" fill="white"/>
<path d="M180.947 44.0107V48.0306H180.348V46.8591H179.167C179.094 46.8591 179.039 46.8572 179.002 46.8534L178.146 48.0306H177.497L178.445 46.7557C178.139 46.66 177.905 46.5011 177.742 46.2791C177.579 46.0532 177.497 45.7795 177.497 45.4579C177.497 45.0023 177.652 44.6481 177.962 44.3954C178.276 44.1389 178.698 44.0107 179.228 44.0107H180.947ZM178.115 45.4521C178.115 45.7507 178.207 45.9805 178.39 46.1413C178.578 46.2982 178.853 46.3767 179.216 46.3767H180.348V44.5103H179.253C178.886 44.5103 178.604 44.5907 178.409 44.7515C178.213 44.9123 178.115 45.1458 178.115 45.4521Z" fill="white"/>
</g>
</g>
<path d="M12.7904 47.8066L8.13867 47.4022L15.2829 31.1139C15.904 31.4411 20.5848 33.3144 20.5848 33.3144L15.2829 42.79L21.1903 33.3144C23.4156 32.2902 28.8134 29.9518 29.7928 29.566C30.9328 29.1165 32.3548 29.9589 32.3548 29.9589C32.3548 29.9589 37.2969 32.7542 37.6789 33.0484C38.1815 33.4374 41.7507 39.0581 38.1917 40.4628C35.2579 41.6196 33.8932 37.065 33.8932 37.065L31.9584 35.9142L20.7237 40.2451L12.7904 47.8066Z" fill="white"/>
<path d="M33.1168 59.9429C32.4753 59.0279 32.7082 57.7623 33.6358 57.1295L34.0566 56.8413C34.9842 56.2085 36.2672 56.4403 36.9087 57.3532L37.9772 58.8768C38.6187 59.7918 38.3858 61.0574 37.4583 61.6902L37.0374 61.9764C36.1099 62.6092 34.8248 62.3774 34.1853 61.4645L33.1168 59.9429Z" fill="white"/>
<path d="M37.7259 56.7466C37.0885 55.8296 37.3275 54.566 38.2571 53.9372L38.68 53.6531C39.6096 53.0243 40.8926 53.2601 41.5301 54.1791L42.9112 56.1662C43.5486 57.0832 43.3095 58.3488 42.3779 58.9776L41.9571 59.2617C41.0275 59.8905 39.7444 59.6547 39.107 58.7377L37.7259 56.7466Z" fill="white"/>
<path d="M42.7784 54.1932C42.1593 53.2621 42.4249 52.0025 43.3688 51.3939L43.7958 51.1178C44.7397 50.5092 46.0166 50.7712 46.6336 51.7022L47.8267 53.4959C48.4437 54.427 48.1781 55.6865 47.2363 56.2952L46.8093 56.5713C45.8654 57.1799 44.5885 56.9179 43.9695 55.9888L42.7784 54.1932Z" fill="white"/>
<path d="M47.8145 51.8756C47.2036 50.9405 47.4794 49.6829 48.4274 49.0823L48.8564 48.8082C49.8044 48.2057 51.0792 48.4777 51.6921 49.4128L52.2193 50.221C52.8301 51.1561 52.5543 52.4137 51.6063 53.0162L51.1773 53.2883C50.2293 53.8909 48.9545 53.6188 48.3416 52.6837L47.8145 51.8756Z" fill="white"/>
<path d="M32.0544 60.0376C31.4149 59.0582 31.7623 57.1477 33.2373 56.1642C34.2303 55.5032 35.2579 55.3802 36.2447 55.5435C36.2222 54.5298 36.7575 53.4778 37.7484 52.8188C38.9395 52.0247 40.4207 52.0408 41.4156 52.7603C41.577 51.9562 41.9162 51.0453 42.7048 50.5193C43.8612 49.7494 45.4813 49.6769 46.4374 50.5374C46.6111 49.7535 46.9604 48.8969 47.7307 48.3851C49.0484 47.5064 50.8913 47.3451 52.0129 48.6047L57.3412 47.726L50.9315 31.5619L46.0133 33.9066L50.0657 43.9744L45.4078 33.9066L39.3133 30.4467C39.3133 30.4467 37.3152 29.3342 35.6277 30.8296C36.6737 31.3858 37.3582 31.6982 38.4961 32.599C39.6668 34.0279 40.6679 36.5974 40.6679 38.0706C40.6679 39.9973 39.5197 41.4584 37.3806 41.5289C34.3835 41.6277 33.1842 37.6293 33.1842 37.6293L31.8603 36.9138C31.8603 36.9138 21.8882 40.6664 21.6717 40.7913L21.6656 40.7933L21.6615 40.7953C21.5062 40.886 21.3591 40.9949 21.2263 41.1238L14.0042 48.1775C13.0541 49.1045 13.1073 50.6765 14.1226 51.6902C15.138 52.7019 16.7316 52.7704 17.6816 51.8433L24.3338 45.4044C24.5217 45.221 24.8098 45.2089 24.9753 45.3742C25.1387 45.5394 25.1203 45.8236 24.9324 46.005L18.8012 51.9502C18.0392 52.8913 18.1474 54.3242 19.0954 55.2674C20.0148 56.1823 21.4061 56.3234 22.3663 55.6543L28.1318 50.0638C28.3197 49.8804 28.6078 49.8683 28.7713 50.0336C28.9367 50.1988 28.9163 50.483 28.7304 50.6644L24.2909 55.0215C23.3408 55.9506 23.394 57.5225 24.4094 58.5342C25.3185 59.4391 26.6894 59.5862 27.6476 58.9433L32.0258 54.697C32.2138 54.5157 32.5018 54.5016 32.6673 54.6668C32.8308 54.8321 32.8124 55.1162 32.6244 55.2976L30.1421 57.7664C29.1921 58.6934 29.2452 60.2654 30.2606 61.2771C31.1003 62.1154 32.3384 62.3049 33.2782 61.8192L32.0544 60.0376Z" fill="white"/>
<path d="M0.000488281 13.4934V18.2493C0.000488281 19.7129 0.707027 21.0813 1.9069 21.8733C3.75723 23.0946 6.60541 24.9088 8.83811 26.039C10.8906 27.078 13.7282 28.1995 15.7347 28.9531C19.493 30.3646 24.3117 27.1415 28.3134 26.6466C28.8368 26.5819 29.3622 26.6597 29.8623 26.8307L30.9689 27.2091C31.8506 27.5105 33.4449 26.8532 34.3266 26.5517L34.6971 26.425C35.6609 26.0955 36.7073 26.127 37.6506 26.5141C40.6774 27.7559 46.7595 30.2407 50.0663 28.8511C52.2862 27.9183 55.6001 26.4871 58.0052 25.2787C59.8928 24.3302 62.3315 22.9608 64.0602 21.9701C65.4016 21.2013 66.2204 19.7452 66.2204 18.1691V13.4934C66.2204 10.3507 63.6065 8.80463 61.4904 8.80463H4.60601C0.921592 8.80463 0.000488281 12.015 0.000488281 13.4934Z" fill="white"/>
<path d="M19.5684 8.76709C18.8877 8.76709 19.1903 9.52743 19.8711 9.52743H25.6864C26.393 9.52743 26.7476 8.76709 26.041 8.76709C25.3536 8.76709 24.7963 8.19548 24.7963 7.49035V5.59901C24.7963 4.6866 25.5431 4.33177 26.041 4.33177H39.982C41.0774 4.33177 41.3513 5.09212 41.3513 5.47229V7.61802C41.3513 8.25264 40.8497 8.76709 40.231 8.76709C39.5613 8.76709 39.8576 9.52743 40.5273 9.52743H46.1041C46.9852 9.52743 47.3357 8.76709 46.4547 8.76709C45.9047 8.76709 45.4589 8.3098 45.4589 7.7457V5.47229C45.4589 1.82265 42.0981 0.149902 40.231 0.149902H25.7921C22.0081 0.149902 20.5642 3.57143 20.5642 5.34556V7.74569C20.5642 8.3098 20.1183 8.76709 19.5684 8.76709Z" fill="white"/>
<path d="M0.946488 23.3526L1.90852 48.0479C3.76887 49.0202 4.884 47.7349 4.884 47.7349L11.7644 30.2305C11.7644 30.2305 5.08045 27.3662 0.946488 23.3526Z" fill="white"/>
<path d="M64.8014 23.3526L63.5187 48.0479C61.6583 49.0202 60.5432 47.7349 60.5432 47.7349L53.9835 30.2305C53.9835 30.2305 60.6674 27.3662 64.8014 23.3526Z" fill="white"/>
<path opacity="0.1" d="M34.7074 23.2907L34.3367 23.4154C34.2253 23.4529 34.1025 23.496 33.9713 23.5421C33.0631 23.8608 31.7481 24.3224 30.9774 24.0629L29.8703 23.6903C29.37 23.5218 28.8443 23.4452 28.3207 23.5089C26.8623 23.6865 25.2953 24.2207 23.7108 24.7609C20.9455 25.7036 18.1264 26.6647 15.736 25.7808C13.7285 25.0385 10.8896 23.9338 8.83615 22.9104C8.00923 22.4983 6.85644 21.9939 5.63847 21.4609C3.56635 20.5541 1.30556 19.5648 0.139661 18.8072C0.0923356 18.7764 0.0457777 18.7448 0 18.7123C0.0677901 20.0702 0.762524 21.3221 1.90185 22.0625C3.75305 23.2654 6.60258 25.0525 8.83634 26.1657C10.8898 27.1891 13.7287 28.2938 15.7362 29.0361C18.1266 29.92 20.9457 28.9589 23.711 28.0162C25.2955 27.476 26.8624 26.9418 28.3209 26.7642C28.8445 26.7005 29.3701 26.7771 29.8705 26.9456L30.9776 27.3183C31.7483 27.5777 33.0633 27.1162 33.9715 26.7974C34.1027 26.7513 34.2255 26.7082 34.3369 26.6707L34.7076 26.546C35.6718 26.2214 36.7188 26.2524 37.6625 26.6337C40.6907 27.8569 46.7757 30.3045 50.0841 28.9357C52.305 28.0168 55.6205 26.6071 58.0267 25.4168C59.9152 24.4826 62.3551 23.1337 64.0846 22.1578C65.288 21.4787 66.071 20.2553 66.2199 18.8905C66.2129 18.8945 66.2058 18.8985 66.1988 18.9025C65.2624 19.4309 63.4979 20.0686 61.7768 20.6906C60.3191 21.2175 58.8925 21.7331 58.0265 22.1615C55.6203 23.3518 52.3048 24.7615 50.0839 25.6804C46.7755 27.0491 40.6905 24.6016 37.6623 23.3783C36.7186 22.9971 35.6716 22.9661 34.7074 23.2907Z" fill="#515151"/>
</svg>
