<svg fill="#cfcfcf" xmlns="http://www.w3.org/2000/svg" viewBox="0 0 419.396 419.396">
    <path d="M400.15,56.112H19.246C8.615,56.112,0,64.729,0,75.358v268.68c0,10.63,8.615,19.246,19.246,19.246H400.15 c10.631,0,19.246-8.616,19.246-19.246V75.358C419.396,64.729,410.781,56.112,400.15,56.112z M387.641,331.529H31.756V197.682 h355.885L387.641,331.529L387.641,331.529z M387.641,132.081H31.756V87.867h355.885L387.641,132.081L387.641,132.081z"/>
    <path d="M273.663,307.048c9.609,0,18.252-4.138,24.241-10.729c5.991,6.591,14.634,10.729,24.242,10.729 c18.087,0,32.75-14.662,32.75-32.75c0-18.086-14.663-32.75-32.75-32.75c-9.608,0-18.251,4.139-24.242,10.729 c-5.989-6.59-14.632-10.729-24.241-10.729c-18.087,0-32.75,14.664-32.75,32.75C240.913,292.386,255.576,307.048,273.663,307.048z"/>
</svg>