<?xml version="1.0" standalone="no"?>
<!DOCTYPE svg PUBLIC "-//W3C//DTD SVG 20010904//EN"
 "http://www.w3.org/TR/2001/REC-SVG-20010904/DTD/svg10.dtd">
<svg version="1.0" xmlns="http://www.w3.org/2000/svg"
 width="700.000000pt" height="700.000000pt" viewBox="0 0 700.000000 700.000000"
 preserveAspectRatio="xMidYMid meet">
<metadata>
Created by potrace 1.11, written by Peter Selinger 2001-2013
</metadata>
<g transform="translate(0.000000,700.000000) scale(0.100000,-0.100000)"
fill="#000000" stroke="none">
<path d="M3278 6996 c-1 -2 -39 -6 -83 -10 -270 -21 -566 -84 -845 -181 -802
-279 -1489 -856 -1903 -1598 -200 -356 -347 -777 -401 -1142 -2 -16 -8 -50
-12 -75 -7 -50 -9 -66 -21 -190 -15 -160 -8 -605 11 -707 2 -10 7 -43 10 -73
7 -62 12 -94 26 -165 6 -27 12 -59 14 -70 30 -154 106 -405 178 -585 50 -126
166 -365 213 -439 14 -23 25 -43 25 -46 0 -14 210 -314 286 -410 113 -141 387
-414 529 -528 388 -311 821 -531 1291 -657 117 -32 132 -35 189 -46 17 -3 48
-9 70 -14 38 -8 76 -14 161 -26 22 -3 53 -7 69 -9 189 -28 653 -27 845 1 445
65 774 165 1141 349 210 106 443 254 596 380 7 6 18 15 25 20 99 74 367 335
469 455 229 269 427 591 569 925 113 265 215 652 245 930 4 33 9 71 11 85 9
48 11 525 4 605 -16 162 -21 210 -25 225 -2 8 -7 35 -10 60 -8 57 -39 205 -60
290 -16 63 -20 79 -45 165 -6 22 -28 85 -47 140 -135 381 -324 719 -581 1042
-91 114 -360 392 -440 455 -26 21 -58 48 -72 60 -126 115 -465 331 -692 441
-293 142 -662 258 -963 303 -27 4 -57 9 -65 10 -8 2 -44 6 -80 10 -36 4 -78 8
-95 11 -35 5 -532 13 -537 9z m462 -160 c138 -10 285 -31 440 -61 188 -36 498
-135 675 -215 188 -84 474 -246 570 -322 6 -4 53 -40 105 -79 318 -239 594
-544 821 -909 155 -248 310 -606 374 -860 32 -130 65 -275 70 -314 3 -27 8
-52 10 -55 1 -3 6 -35 10 -71 4 -36 9 -78 11 -95 21 -171 21 -603 0 -710 -2
-11 -7 -49 -11 -85 -4 -36 -9 -74 -11 -85 -3 -11 -7 -36 -10 -55 -3 -19 -7
-42 -9 -50 -2 -8 -7 -28 -10 -45 -2 -16 -7 -41 -10 -55 -3 -14 -8 -35 -11 -47
-2 -12 -20 -78 -39 -145 -86 -302 -218 -596 -389 -868 -43 -69 -177 -258 -211
-299 -271 -325 -510 -536 -850 -753 -110 -70 -338 -189 -465 -242 -205 -85
-497 -173 -670 -201 -19 -3 -57 -10 -85 -15 -45 -8 -107 -17 -190 -26 -524
-56 -1077 18 -1580 213 -111 43 -389 178 -472 230 -34 21 -90 56 -125 77 -94
59 -281 200 -378 285 -136 120 -348 340 -398 412 -9 13 -19 26 -22 29 -31 25
-186 251 -262 380 -363 620 -518 1334 -443 2055 6 60 17 150 21 170 3 11 7 36
10 55 3 19 12 69 21 110 10 41 18 77 18 80 23 110 85 311 142 455 230 584 616
1088 1115 1458 113 84 223 157 288 193 19 10 42 24 50 31 29 22 296 152 400
193 221 89 464 158 682 194 24 4 127 19 217 32 19 2 80 7 135 10 56 3 102 7
103 8 4 4 287 -2 363 -8z"/>
<path d="M1945 3500 l0 -2410 1591 0 1592 0 3 23 c7 39 3 896 -4 903 -4 4
-483 7 -1065 7 l-1059 0 -1 1911 c0 1051 -1 1926 -1 1944 l-1 32 -528 0 -527
0 0 -2410z"/>
</g>
</svg>
