<?xml version="1.0" encoding="iso-8859-1"?>
<!-- Generator: Adobe Illustrator 19.0.0, SVG Export Plug-In . SVG Version: 6.00 Build 0)  -->
<svg version="1.1" id="Capa_1" xmlns="http://www.w3.org/2000/svg" xmlns:xlink="http://www.w3.org/1999/xlink" x="0px" y="0px"
	 viewBox="0 0 512 512" style="enable-background:new 0 0 512 512;" xml:space="preserve">
<g>
	<g>
		<path d="M502.027,62.272h-79.584c-6.599-35.013-37.417-61.251-73.933-61.251c-36.511,0-67.325,26.239-73.923,61.251H9.973
			C4.466,62.272,0,66.738,0,72.245v336.86c0,0.002,0,0.003,0,0.005v0.019c0,0.059,0.008,0.115,0.009,0.173
			c0.005,0.268,0.014,0.536,0.041,0.803c0.014,0.145,0.041,0.284,0.061,0.427c0.025,0.18,0.047,0.36,0.082,0.538
			c0.032,0.162,0.076,0.318,0.116,0.478c0.039,0.157,0.074,0.313,0.121,0.469c0.048,0.158,0.106,0.309,0.161,0.463
			s0.106,0.308,0.168,0.459c0.06,0.145,0.13,0.282,0.195,0.423c0.073,0.155,0.142,0.31,0.222,0.461
			c0.073,0.136,0.155,0.265,0.233,0.397c0.088,0.148,0.172,0.296,0.267,0.44c0.097,0.145,0.203,0.281,0.308,0.421
			c0.09,0.121,0.175,0.244,0.271,0.362c0.169,0.206,0.35,0.402,0.535,0.593c0.041,0.043,0.077,0.089,0.119,0.132
			c0.002,0.002,0.004,0.004,0.007,0.006c0.232,0.233,0.478,0.455,0.732,0.665c0.109,0.09,0.224,0.167,0.336,0.251
			c0.148,0.112,0.293,0.227,0.448,0.33c0.144,0.097,0.293,0.18,0.441,0.267c0.132,0.079,0.26,0.163,0.396,0.235
			c0.151,0.081,0.306,0.149,0.461,0.221c0.142,0.067,0.28,0.138,0.425,0.198c0.149,0.062,0.3,0.112,0.452,0.166
			c0.157,0.056,0.311,0.117,0.472,0.166c0.15,0.046,0.302,0.079,0.454,0.117c0.165,0.042,0.326,0.088,0.494,0.121
			c0.175,0.035,0.351,0.055,0.527,0.081c0.147,0.021,0.291,0.049,0.44,0.064c0.328,0.032,0.656,0.05,0.985,0.05h174.548v71.931
			h-51.534c-5.507,0-9.973,4.466-9.973,9.973c0,5.507,4.466,9.973,9.973,9.973h61.508h123.009h61.508
			c5.507,0,9.973-4.466,9.973-9.973c0-5.507-4.466-9.973-9.973-9.973h-51.534v-71.931h174.548c5.507,0,9.973-4.466,9.973-9.973
			V72.245C512,66.738,507.534,62.272,502.027,62.272z M293.312,72.852c1.774-29.094,26.019-51.884,55.198-51.884
			c29.185,0,53.434,22.791,55.206,51.886c0.07,1.145,0.104,2.265,0.104,3.424c0,11.777-3.654,23.014-10.572,32.522
			c-0.185,0.231-0.359,0.474-0.524,0.724l-44.215,67.099l-32.084-48.699c-0.001-0.001-0.002-0.003-0.003-0.004l-12.119-18.396
			c-0.164-0.249-0.338-0.49-0.522-0.721c-6.919-9.508-10.574-20.746-10.574-32.525C293.208,75.119,293.242,73.999,293.312,72.852z
			 M477.92,143.47L348.683,272.493L219.185,143.47h83.598l37.398,56.766c1.845,2.8,4.974,4.486,8.328,4.486c0.001,0,0.001,0,0.001,0
			c3.353,0,6.483-1.685,8.328-4.485l37.406-56.767H477.92z M19.946,217.72l83.984,83.784l-83.984,83.622V217.72z M194.492,399.156
			H34.123l83.927-83.566l83.767,83.566H194.492z M307.533,491.034H204.467v-71.931h103.066V491.034z M405.106,399.156h-87.6h-67.463
			l25.374-25.328c3.899-3.891,3.905-10.206,0.013-14.104c-3.891-3.897-10.205-3.904-14.104-0.013l-35.392,35.328l-99.597-99.359
			c-0.325-0.463-0.684-0.91-1.097-1.324c-0.431-0.433-0.897-0.811-1.381-1.148L19.946,189.546V143.47h33.266
			c5.507,0,9.973-4.466,9.973-9.973c0-5.507-4.466-9.973-9.973-9.973H19.946V82.218h253.548c1.085,13.975,6,27.221,14.38,38.62
			l1.769,2.685h-94.581c-0.024,0-0.048,0-0.072,0h-67.645c-5.507,0-9.973,4.466-9.973,9.973c0,5.507,4.466,9.973,9.973,9.973h63.58
			l143.643,143.114l-26.335,26.291c-3.898,3.892-3.903,10.207-0.012,14.105c1.948,1.951,4.504,2.927,7.058,2.927
			c2.55,0,5.099-0.972,7.046-2.915l26.372-26.329l77.615,77.33L405.106,399.156z M492.054,399.156h-58.71l14.156-14.126
			c0.001-0.001,0.003-0.002,0.004-0.004c0.001-0.002,0.002-0.002,0.003-0.003l44.547-44.454V399.156z M492.054,312.39
			l-51.621,51.513l-77.618-77.333l129.239-129.026V312.39z M492.054,123.523h-84.666l1.769-2.685
			c8.38-11.398,13.294-24.644,14.38-38.62h68.517V123.523z"/>
	</g>
</g>
<g>
	<g>
		<path d="M348.559,45.232c-17.141,0-31.084,13.943-31.084,31.084c0,17.141,13.944,31.085,31.084,31.085
			c17.141,0,31.085-13.944,31.085-31.085C379.644,59.175,365.699,45.232,348.559,45.232z M348.559,87.456
			c-6.141,0-11.138-4.998-11.138-11.139s4.997-11.138,11.138-11.138c6.141,0,11.139,4.997,11.139,11.138
			S354.7,87.456,348.559,87.456z"/>
	</g>
</g>
<g>
	<g>
		<path d="M291.704,333.644h-0.277c-5.507,0-9.973,4.466-9.973,9.973s4.465,9.973,9.973,9.973h0.277
			c5.507,0,9.973-4.466,9.973-9.973S297.212,333.644,291.704,333.644z"/>
	</g>
</g>
<g>
	<g>
		<path d="M89.78,123.522h-0.277c-5.507,0-9.973,4.466-9.973,9.973c0,5.507,4.466,9.973,9.973,9.973h0.277
			c5.507,0,9.973-4.466,9.973-9.973C99.753,127.988,95.287,123.522,89.78,123.522z"/>
	</g>
</g>
<g>
</g>
<g>
</g>
<g>
</g>
<g>
</g>
<g>
</g>
<g>
</g>
<g>
</g>
<g>
</g>
<g>
</g>
<g>
</g>
<g>
</g>
<g>
</g>
<g>
</g>
<g>
</g>
<g>
</g>
</svg>
