<svg fill="#dc025e" viewBox="0 -68 495.49282 495" xmlns="http://www.w3.org/2000/svg"><path d="m459.785156 266.015625c-1.273437-2.914063-4.160156-4.792969-7.34375-4.769531h-39.199218l-33.304688-77.074219c-1.257812-2.953125-4.136719-4.882813-7.34375-4.925781h-39.402344l-33.304687-77.074219c-1.257813-2.949219-4.132813-4.878906-7.335938-4.925781h-89.589843c-3.207032.042968-6.085938 1.972656-7.34375 4.925781l-33.308594 77.074219h-39.402344c-3.207031.042968-6.085938 1.972656-7.339844 4.925781l-33.304687 77.074219h-39.199219c-3.183594-.023438-6.070312 1.855468-7.34375 4.769531l-35.058594 80.992187c-1.070312 2.480469-.828125 5.332032.648438 7.59375 1.480468 2.261719 3.992187 3.628907 6.691406 3.644532h159.703125c.0625 0 .128906-.011719.191406-.011719.066407 0 .132813.011719.195313.011719h319.410156c2.695312-.015625 5.203125-1.382813 6.679688-3.636719 1.476562-2.257813 1.722656-5.101563.664062-7.578125zm-131.988281 63.882813-23.214844-53.652344h46.429688zm-159.898437.449218-23.410157-54.101562h46.820313zm227.570312-70.101562h-135.34375l28.132812-65h79.078126zm-147.71875-11.898438-23.410156-54.101562h46.820312zm-39.539062-135.101562h79.078124l28.136719 65h-135.347656zm-80.046876 82h79.078126l28.136718 65h-135.347656zm-107.984374 147 28.132812-65h79.082031l28.132813 65zm160.09375 0 28.132812-65h79.078125l28.132813 65zm159.699218 0 28.132813-65h79.078125l28.132812 65zm0 0"/><path d="m247.75 59.246094c4.417969 0 8-3.582032 8-8v-43c0-4.417969-3.582031-8-8-8s-8 3.582031-8 8v43c0 4.417968 3.582031 8 8 8zm0 0"/><path d="m409.351562 115.328125c2.121094.003906 4.15625-.839844 5.65625-2.34375l29.976563-29.976563c2.058594-2.011718 2.875-4.976562 2.140625-7.761718-.734375-2.78125-2.910156-4.957032-5.695312-5.691406-2.78125-.734376-5.746094.082031-7.761719 2.140624l-29.972657 29.976563c-2.289062 2.289063-2.972656 5.730469-1.734374 8.71875 1.238281 2.988281 4.152343 4.9375 7.390624 4.9375zm0 0"/><path d="m79.492188 112.984375c3.132812 3.066406 8.148437 3.039063 11.25-.0625 3.097656-3.097656 3.128906-8.117187.0625-11.25l-29.976563-29.976563c-2.011719-2.058593-4.976563-2.875-7.761719-2.140624-2.78125.734374-4.957031 2.910156-5.691406 5.691406-.734375 2.785156.082031 5.75 2.140625 7.761718zm0 0"/><path d="m146.90625 71.082031c1.152344 2.625 3.621094 4.433594 6.472656 4.738281 2.847656.304688 5.644532-.9375 7.328125-3.257812 1.683594-2.320312 1.996094-5.367188.816407-7.980469l-17.222657-38.734375c-1.152343-2.625-3.621093-4.433594-6.472656-4.738281-2.847656-.308594-5.644531.9375-7.328125 3.257813-1.683594 2.320312-1.996094 5.363281-.816406 7.980468zm0 0"/><path d="m330.835938 72c1.972656.789062 4.175781.761719 6.125-.074219 1.953124-.835937 3.492187-2.410156 4.277343-4.382812l15.746094-39.359375c1.640625-4.105469-.355469-8.757813-4.457031-10.398438-4.105469-1.644531-8.757813.351563-10.402344 4.457032l-15.742188 39.359374c-1.640624 4.101563.351563 8.757813 4.453126 10.398438zm0 0"/></svg>