<svg fill="#cccccc" xmlns="http://www.w3.org/2000/svg" viewBox="0 0 372.3 372.3">
    <path d="M242,56.8c-4.8,0.3-75.8,4.7-130.8,19.6c-0.6,0.2-1.1,0.3-1.7,0.5c-3.1,0.7-6.6,1.8-10.5,3.1 c-45.9,14.5-73.4,35.3-78.8,37.7c-31.4,13.3,15.7,105,40.1,95.6c0.6-0.2,1.1-0.4,1.7-0.7c1-0.4,3.6-1.4,7.6-2.9 c16.3-6,20.1-6,29-1.7c10.4,5,30.2,16.4,39.6,38.7c9.4,22.3,30.2,71.3,33.1,78c1.7,4,5.2,5.1,10.5,4.2c0.1,0,0.1,0,0.3,0 c13.2-0.6,21.3,32.5,21.3,32.5l10.1-4.3c0,0-17.6-30.5-6.9-37.8c11.4-5.7,22.5-12.8,20.4-17.4c-2.8-6.2-22.4-48.9-33.3-78.5 c-3.7-10.1-9.6-18.9-15.4-26.2l5.1-2.2l-5.3-12.5l-9.1,3.9c-6.6-7.2-11.3-11.9-9.7-14c0.1-0.1,0.3-0.2,0.4-0.3 c0.1-0.1,0.1-0.2,0.2-0.3c27.6-18.6,92.9-68.5,99.3-73.4l0.1,0.3l58.7-4.8l-32.1-75.8L242,56.8z"/>
</svg>
