<?xml version="1.0" encoding="utf-8"?>
<!-- Generator: Adobe Illustrator 23.0.3, SVG Export Plug-In . SVG Version: 6.00 Build 0)  -->
<svg version="1.1" id="Слой_1" xmlns="http://www.w3.org/2000/svg" xmlns:xlink="http://www.w3.org/1999/xlink" x="0px" y="0px"
	 viewBox="0 0 125 245.8" style="enable-background:new 0 0 125 245.8;" xml:space="preserve">
<style type="text/css">
	.st0{fill:#CCCCCC;}
</style>
<path class="st0" d="M74.4,3.8c0,0-7.7-3.8-14.6,0.9c0,0-6.2,1.8-5.1,13.6c0,0,0.7,1.9,1.4,2.8c0,0-0.4,4.3,2.3,7.4
	c0,0,0.8,5.4,3.9,4.8l1.2-0.3c0,0,0.7,2.2,0.3,3.6c0,0-6.3,3.8-7.4,5.3c0,0-8.1,1.8-9.5,3c-2.5,2.3-6.4,3.2-5.6,12.3
	c0,0-1.7,3.7,0.5,9c0,0-5.2,8.5-5,19.2c0,0-6.1,3.4-7.7,14.9l-5.1,16.4c0,0-2.3,1.4-2.3,4.4c0,0-7.3,5.7-7.4,7
	c-0.1,1.4-0.4,0.5-0.4,0.5s-4.5,3-3.2,4.7c0,0,2.2,0.8,4.7-2.5c0,0,1.2,6.5-3.4,11.7c0,0-1.4,2.2,1,1.7c0,0,2.5-2.6,3.3-4.1
	c0,0-0.5,5.2-1.2,5.9c0,0-0.3,2.7,1.9,1.1l2.4-7.1c0,0,0.5,1.9-0.2,6.1c0,0,1,2.1,2-0.6l1.1-5.5c0,0,0.6,5.3,1.4,5.4
	c0,0,1.5,0.7,1.2-2.4l0.1-5.1c0,0,0.2-1.5,1-3.2c0,0,2.1-4.4,2.2-8.5c0,0,11.4-15.5,12-17.6c0,0,4.7-4.4,5.8-10.6c0,0,1.3-4.8,1-7
	c0,0,2.8-4.7,3-7.2c0,0,0.5,4.2-0.6,7.2c0,0-2.8,3.3-1.7,10.8c0,0-1.6,5.2-1.8,7c-1.3,9-0.6,30.4,2,36.4c0,0,3.9,14.5,9.6,21.2
	c0,0,0.1,11.7,3.1,16.7c0,0-2.5,14.8,3.6,26.7c0,0,4.7,7.1,3.9,17.4c0,0-4.4,5.6-5.2,7.4l-1.3,1.6c0,0-2.5,0.3-3.3,2.6
	c0,0-2,3.9-0.4,5.4l1.3,0.6c0,0,2.2,1.7,4.2-0.6c0,0,4.4,0.1,5.2-3.2c0,0,2.9-5.6,6.1-5.2c0,0,4-0.8,3.3-4.6c0,0-0.4-7.1-1.5-9
	v-19.1c0,0,3.1-10.5-3.8-21.2c0,0,0.2-23.3-1.7-29.1c0,0,1.3-11.1,0.6-14.1c0,0,7.9,17.5,9.6,19.7c0,0,0.6,5,1.7,6.3
	c0,0-0.2,8.8,3.4,11.5l2.6,3.6l0.2,12.3c0,0-0.6,4.3,2.9,9.7c0,0,3.3,4.3,5.3,16.7c0.1,0.5-0.4,8.1,3,9.2l5.7,7.4
	c0,0-0.4,4.4,3.5,4.4c0,0,2.6,2.4,4,1.3c0,0,3.1-2.5,2.2-7.7c0,0-0.3-3.4-4-6.9l-6.3-8.2c0,0-0.1-3.7-1.3-5.7c0,0-0.2-3.4,0.5-6
	c0,0,4.6-23.4-4.8-36.5c0,0-1.7-6.4-0.7-12.7c0,0-0.3-19.9-4.5-26.3c0,0-0.8-4-0.7-6.2c0,0,1-10-1.9-13.3c0,0-2-4.1-0.9-7
	c0,0,0.5-5.7-0.5-8.2c0,0-0.6-3.2,0.5-5c0,0,0.5-1.3,0.5-2.7c0,0,3.2-3.3,3.4-4.5c0,0,0.4,5.3,1.8,7.2c0,0,0.4,3.1-0.1,4.1
	c0,0-2.1,8.6,0.6,15.7c0,0,2,5.8,2.4,6.9c0,0,0,3.8,2.3,6.5c0,0,0.4,6.8,1.5,7.7c0,0-0.3,5.5,1.5,8c0,0,0,5.9-1,7.8
	c0,0-0.7,2.6,1.6,1.2c0,0,1.1-3,1.3-4.5c0,0,0.5-1,0.7,0.5c0,0-0.3,5.4-0.7,6.2c0,0,0.4,2,2,0.8c0,0,1.1-4.1,1-6.2
	c0,0,0.7-1.4,1,1.6c0,0-0.4,5.6,1.3,6.1c0,0,1.1,0.4,1-1.9l-0.3-7c0,0,0.8-0.3,0.9,1.8c0,0,0.9,5.9,1.9,6.1c0,0,2.5,0.6-0.2-10.3
	l-0.5-3.9c0,0,2.6,2.9,5.3,2.2c0,0,1.8-0.2-1.7-3c0,0-1.6-1.2-2.2-3.2c0,0-2.9-3.3-4.7-4.8c0,0-1.6-12.1-0.6-16.4
	c0,0,0.6-14.1-3.1-19.7c0,0-0.5-3.6,0.6-6.7c0,0,1.3-12.5-1.3-16.5c0,0,1.8-14-0.7-18c0,0-3.1-13.2-12.3-11.6c0,0-1-2.3-6.5-1.2
	c0,0-2.7-5.9-7.5-6.6c0,0-2.1-9-1.2-11C79.1,22.3,83.4,8.6,74.4,3.8z"/>
</svg>
