<svg fill="#cfcfcf" xmlns="http://www.w3.org/2000/svg" viewBox="0 0 510.028 510.028">
    <path d="M340.075,369.228v12.8c0,46.933-38.4,85.333-85.333,85.333s-85.333-38.4-85.333-85.333v-14.933 c-14.933-4.267-29.867-8.533-42.667-14.933v29.867c0,70.4,57.6,128,128,128s128-57.6,128-128v-27.733C369.942,360.694,355.009,364.961,340.075,369.228z"/>
    <path d="M468.075,268.961c-2.133-8.533-10.667-14.933-21.333-14.933h-384c-12.8,0-21.333,8.533-21.333,21.33c0,8.533,4.267,14.933,10.667,19.2c4.267,2.133,113.067,66.133,202.667,66.133s198.4-64,202.667-66.1C465.942,288.161,470.209,279.628,468.075,268.961z"/>
    <path d="M352.875,49.228c-21.333-32-59.733-51.2-98.133-49.067c-38.4-2.133-76.8,17.067-98.133,51.2c-19.2,32-21.333,72.533-6.4,108.8c12.8,23.467,40.533,44.8,40.533,74.667h128c0-29.867,27.733-51.2,40.533-76.8 C374.209,123.894,372.075,83.361,352.875,49.228z"/>
</svg>
