<svg width="95" height="95" xmlns="http://www.w3.org/2000/svg" viewBox="0 0 95 95">
    <style>
        .st0{fill:url(#SVGID_1_);}
        .st1{fill:url(#SVGID_2_);}
        .st2{fill:#DC025E;}
    </style>
    <linearGradient id="SVGID_1_" gradientUnits="userSpaceOnUse" x1="3.3263" y1="38.5895" x2="75.4105" y2="38.5895" gradientTransform="matrix(1.1875 0 0 -1.1875 0.75 93.375)">
        <stop offset="0" style="stop-color:#FFFFFF;stop-opacity:0"/>
        <stop offset="1" style="stop-color:#E20A65"/>
    </linearGradient>
    <path class="st0" d="M47.5,90.3c-23.6,0-42.8-19.1-42.8-42.8S23.9,4.8,47.5,4.8S90.3,24,90.3,47.5C90.3,71.1,71.1,90.3,47.5,90.3z M47.5,6.5c-22.6,0-41,18.4-41,41s18.4,41,41,41s41-18.4,41-41S70.1,6.5,47.5,6.5z"/>
    <linearGradient id="SVGID_2_" gradientUnits="userSpaceOnUse" x1="1.0526" y1="38.6316" x2="77.6842" y2="38.6316" gradientTransform="matrix(1.1875 0 0 -1.1875 0.75 93.375)">
        <stop offset="0" style="stop-color:#F6E2EE"/>
        <stop offset="1" style="stop-color:#FFFFFF;stop-opacity:0"/>
    </linearGradient>
    <path class="st1" d="M47.5,93C22.4,93,2,72.6,2,47.5S22.4,2,47.5,2S93,22.4,93,47.5S72.6,93,47.5,93z M47.5,3.9 c-24,0-43.6,19.6-43.6,43.6s19.6,43.6,43.6,43.6s43.6-19.6,43.6-43.6S71.5,3.9,47.5,3.9z"/>
    <path class="st2" d="M75.3,26.5c-0.3-0.2-0.6-0.2-0.9-0.1L61,31.8l-27.3-5.5c-0.2,0-0.4,0-0.6,0.1L19.4,32c-0.4,0.1-0.6,0.5-0.6,0.8 v37.4c0,0.3,0.2,0.6,0.4,0.8c0.2,0.1,0.4,0.1,0.5,0.1c0.1,0,0.3,0,0.4-0.1l13.4-5.4L60.9,71c0.2,0,0.4,0,0.6-0.1l13.7-5.5 c0.4-0.1,0.6-0.5,0.6-0.8V27.3C75.8,27,75.6,26.7,75.3,26.5z M57.1,57.9l-6-7.6c-2.2-2.7-1.8-6.4,0.8-8.8c1.4-1.3,3.3-2,5.2-2 c1.9,0,3.8,0.7,5.2,2c2.6,2.4,2.9,6.1,0.8,8.8L57.1,57.9z M35.4,64.1l2.2-2.1l11.7-10.8c0,0,0,0.1,0.1,0.1L54,57l-9.6,8.9L35.4,64.1 z M66.4,45.6c-0.2-2-1.1-4-2.7-5.4c-0.3-0.3-0.6-0.5-0.9-0.7l10.9-10v29.1l-8.6-7.9C66.1,49.1,66.6,47.4,66.4,45.6z M61.5,33.6 l8.9-3.6l-9.2,8.5c-2.8-1.2-6.1-1.1-8.8,0.3L47,34l2.7-2.5l11.1,2.2C61.1,33.7,61.3,33.7,61.5,33.6z M33.6,28.2L47.5,31l-4.6,4.2 c-0.4,0.4-0.4,0.9,0,1.3c0.2,0.2,0.4,0.3,0.7,0.3c0.3,0,0.5-0.1,0.7-0.3l1.4-1.2l5.1,4.7c-0.1,0.1-0.2,0.2-0.3,0.2 c-1.6,1.5-2.5,3.4-2.7,5.4c-0.1,1.4,0.1,2.7,0.7,4L37.2,59.9L28,51.4l11.8-10.8c0.4-0.4,0.4-0.9,0-1.3c-0.4-0.4-1-0.4-1.4,0 l-5.6,5.1l-12-11v-0.1L33.6,28.2z M20.8,55.5v-8.4l6-5.5l4.6,4.2L20.8,55.5z M20.8,44.6V36l4.6,4.3L20.8,44.6z M20.8,58.1l5.8-5.3 l1.9,1.7l-7.7,7.1V58.1z M20.8,64.1l9.1-8.3l5.9,5.5l-2.9,2.7l-12.1,4.9V64.1z M61,69.2l-14.4-2.9l8.5-7.8l1.1,1.5 c0.2,0.2,0.5,0.4,0.8,0.4c0.3,0,0.6-0.1,0.8-0.4l0.9-1.2l8.5,7.8L61,69.2z M69.3,65.9L60,57.3l4.1-5.1l9.8,9V64L69.3,65.9z"/>
    <path class="st2" d="M57.1,42c-2.5,0-4.6,1.9-4.6,4.2s2.1,4.2,4.6,4.2c2.5,0,4.6-1.9,4.6-4.2C61.7,43.9,59.6,42,57.1,42z M57.1,48.7 c-1.5,0-2.6-1.1-2.6-2.4s1.2-2.4,2.6-2.4s2.6,1.1,2.6,2.4S58.5,48.7,57.1,48.7z"/>
    <path class="st2" d="M40.3,38.3c0.2,0.5,1,0.7,1.5,0.4c0.5-0.3,0.6-1,0.1-1.4C41.6,37,41,37,40.6,37.3C40.3,37.5,40.1,38,40.3,38.3 C40.3,38.4,40.3,38.3,40.3,38.3z"/>
</svg>
