<svg width="95" height="95" xmlns="http://www.w3.org/2000/svg" viewBox="0 0 95 95">
    <style>
        .st0{fill:url(#SVGID_1_);}
        .st1{fill:url(#SVGID_2_);}
        .st2{fill:#DC025E;}
    </style>
    <linearGradient id="SVGID_1_" gradientUnits="userSpaceOnUse" x1="3.0105" y1="61.0947" x2="75.0947" y2="61.0947" gradientTransform="matrix(1.1875 0 0 1.1875 1.125 -25)">
        <stop offset="0" style="stop-color:#FFFFFF;stop-opacity:0"/>
        <stop offset="1" style="stop-color:#E20A65"/>
    </linearGradient>
    <path class="st0" d="M47.5,90.3c-23.6,0-42.8-19.1-42.8-42.8S23.9,4.8,47.5,4.8S90.3,24,90.3,47.5C90.3,71.1,71.1,90.3,47.5,90.3z M47.5,6.5c-22.6,0-41,18.4-41,41s18.4,41,41,41s41-18.4,41-41S70.1,6.5,47.5,6.5z"/>
    <linearGradient id="SVGID_2_" gradientUnits="userSpaceOnUse" x1="0.7368" y1="61.0526" x2="77.3684" y2="61.0526" gradientTransform="matrix(1.1875 0 0 1.1875 1.125 -25)">
        <stop offset="0" style="stop-color:#F6E2EE"/>
        <stop offset="1" style="stop-color:#FFFFFF;stop-opacity:0"/>
    </linearGradient>
    <path class="st1" d="M47.5,93C22.4,93,2,72.6,2,47.5S22.4,2,47.5,2S93,22.4,93,47.5S72.6,93,47.5,93z M47.5,3.9 c-24,0-43.6,19.6-43.6,43.6s19.6,43.6,43.6,43.6s43.6-19.6,43.6-43.6S71.5,3.9,47.5,3.9z"/>
    <path class="st2" d="M66.4,53.1c-0.6,0-1.1,0.5-1.1,1.1v9.9c0,1.9-1.5,3.3-3.2,3.3H31.8c-1.8,0-3.2-1.5-3.2-3.3V35.2 c0-1.9,1.5-3.3,3.2-3.3h9.6c0.6,0,1.1-0.5,1.1-1.1c0-0.6-0.5-1.1-1.1-1.1h-9.6c-3,0-5.4,2.5-5.4,5.5v28.9c0,3,2.4,5.5,5.4,5.5h30.3 c3,0,5.4-2.5,5.4-5.5v-10C67.5,53.6,67.1,53.1,66.4,53.1z"/>
    <path class="st2" d="M67.1,26.8c-1.9-2-4.9-2-6.8,0L40.9,46.5c-0.2,0.2-0.2,0.3-0.2,0.4l-2.6,9.4c-0.1,0.4,0,0.8,0.2,1.1 s0.7,0.4,1.1,0.3l9.2-2.6c0.2-0.1,0.3-0.2,0.5-0.3l19.3-19.7c1.9-2,1.9-5.1,0-7L67.1,26.8z M43.3,47.3l15.8-16.2l5.1,5.2L48.4,52.5 L43.3,47.3z M42.3,49.3l4,4.2l-5.6,1.6L42.3,49.3z M66.8,33.6l-1.2,1.2l-5.1-5.2l1.2-1.2c1.1-1.1,2.8-1.1,3.8,0l1.2,1.3 C67.9,30.7,67.9,32.5,66.8,33.6z"/>
</svg>
