<svg width="95" height="95" xmlns="http://www.w3.org/2000/svg" viewBox="0 0 95 95">
    <style>
        .st0{fill:url(#SVGID_1_);}
        .st1{fill:url(#SVGID_2_);}
        .st2{fill:#DC025E;}
    </style>
    <linearGradient id="SVGID_1_" gradientUnits="userSpaceOnUse" x1="2.6947" y1="35.2211" x2="74.779" y2="35.2211" gradientTransform="matrix(1.1875 0 0 -1.1875 1.5 89.375)">
        <stop offset="0" style="stop-color:#FFFFFF;stop-opacity:0"/>
        <stop offset="1" style="stop-color:#E20A65"/>
    </linearGradient>
    <path class="st0" d="M47.5,90.3c-23.6,0-42.8-19.1-42.8-42.8S23.9,4.8,47.5,4.8S90.3,24,90.3,47.5C90.3,71.1,71.1,90.3,47.5,90.3z
	 M47.5,6.5c-22.6,0-41,18.4-41,41s18.4,41,41,41s41-18.4,41-41S70.1,6.5,47.5,6.5z"/>
    <linearGradient id="SVGID_2_" gradientUnits="userSpaceOnUse" x1="0.4211" y1="35.2632" x2="77.0526" y2="35.2632" gradientTransform="matrix(1.1875 0 0 -1.1875 1.5 89.375)">
        <stop offset="0" style="stop-color:#F6E2EE"/>
        <stop offset="1" style="stop-color:#FFFFFF;stop-opacity:0"/>
    </linearGradient>
    <path class="st1" d="M47.5,93C22.4,93,2,72.6,2,47.5S22.4,2,47.5,2S93,22.4,93,47.5S72.6,93,47.5,93z M47.5,3.9 c-24,0-43.6,19.6-43.6,43.6s19.6,43.6,43.6,43.6s43.6-19.6,43.6-43.6S71.5,3.9,47.5,3.9z"/>
    <path class="st2" d="M33.9,29.9h-1.9c0.3-1.9,1.5-2,2-2.1c0.5,0,1-0.5,1-1v-2.9c0-0.3-0.1-0.5-0.3-0.7c-0.2-0.2-0.5-0.3-0.8-0.3 c-3.3,0.2-7.3,1.7-7.3,8.1v5c0,0.9,0.8,1.5,1.7,1.5H34c0.9,0,1.7-0.7,1.7-1.5v-4.6C35.6,30.7,34.8,29.9,33.9,29.9z M33.4,35.6h-4.8 V31c0-4.4,2.2-5.7,4.2-6V26c-1.4,0.4-3,1.5-3,4.8c0,0.6,0.5,1,1.1,1h2.5C33.4,31.8,33.4,35.6,33.4,35.6z"/>
    <path class="st2" d="M44.6,29.9h-1.9c0.3-1.9,1.5-2,2-2.1c0.5,0,1-0.5,1-1v-2.9c0-0.3-0.1-0.5-0.3-0.7c-0.2-0.2-0.5-0.3-0.8-0.3 c-3.3,0.2-7.3,1.7-7.3,8.1v5c0,0.9,0.8,1.5,1.7,1.5h5.7c0.9,0,1.7-0.7,1.7-1.5v-4.6C46.3,30.7,45.5,29.9,44.6,29.9z M44.2,35.6h-4.8 V31c0-4.4,2.2-5.7,4.2-6V26c-1.4,0.4-3,1.5-3,4.8c0,0.6,0.5,1,1.1,1h2.5L44.2,35.6L44.2,35.6z"/>
    <path class="st2" d="M50.8,30.8c-0.2-0.2-0.5-0.3-0.8-0.3c-0.3,0-0.6,0.1-0.8,0.3C49,31,49,31.2,49,31.5c0,0.3,0.1,0.5,0.3,0.7 c0.2,0.2,0.5,0.3,0.8,0.3c0.3,0,0.6-0.1,0.8-0.3c0.2-0.2,0.3-0.4,0.3-0.7S51,30.9,50.8,30.8z"/>
    <path class="st2" d="M55.9,30.6h-1.3c-0.6,0-1.1,0.4-1.1,1s0.5,1,1.1,1h1.3c9.1,0,16.5,6.8,16.5,15.2c0,7.1-5.5,13.3-13.1,14.9 c-0.5,0.1-0.8,0.5-0.8,1V69L52,63.1c-0.2-0.2-0.5-0.3-0.8-0.3H39.4c-9.1,0-16.5-6.8-16.5-15.2c0-2.6,0.7-5.1,2.1-7.4 c0.3-0.5,0.1-1.1-0.4-1.3c-0.5-0.3-1.2-0.1-1.5,0.4c-1.6,2.5-2.4,5.4-2.4,8.2c0,9.4,8.3,17.1,18.6,17.1h11.4l7.9,7.3 c0.2,0.2,0.5,0.3,0.8,0.3c0.1,0,0.3,0,0.4-0.1c0.4-0.2,0.7-0.5,0.7-0.9v-7.1c3.8-0.9,7.2-2.9,9.7-5.7c2.7-3.1,4.2-6.9,4.2-10.8 C74.5,38.2,66.2,30.6,55.9,30.6z"/>
    <path class="st2" d="M60.6,40.1H34.9c-0.6,0-1.1,0.4-1.1,1c0,0.6,0.5,1,1.1,1h25.8c0.6,0,1.1-0.4,1.1-1 C61.8,40.5,61.2,40.1,60.6,40.1z"/>
    <path class="st2" d="M60.6,45.2H34.9c-0.6,0-1.1,0.4-1.1,1c0,0.6,0.5,1,1.1,1h25.8c0.6,0,1.1-0.4,1.1-1 C61.8,45.6,61.2,45.2,60.6,45.2z"/>
    <path class="st2" d="M60.6,50.3H34.9c-0.6,0-1.1,0.4-1.1,1c0,0.6,0.5,1,1.1,1h25.8c0.6,0,1.1-0.4,1.1-1 C61.7,50.8,61.2,50.3,60.6,50.3z"/>
    <path class="st2" d="M60.6,55.5H46.9c-0.6,0-1.1,0.4-1.1,1c0,0.6,0.5,1,1.1,1h13.7c0.6,0,1.1-0.4,1.1-1 C61.7,55.9,61.2,55.5,60.6,55.5z"/>
    <path class="st2" d="M41,55.5L41,55.5c-0.6,0-1.1,0.4-1.1,1c0,0.6,0.5,1,1.1,1l0,0c0.6,0,1.1-0.4,1.1-1C42.1,55.9,41.6,55.5,41,55.5 z"/>
</svg>
