<svg viewBox="0 -60 512 512" xmlns="http://www.w3.org/2000/svg">
    <path d="m298.378906 97.738281c14.929688 0 27.078125-12.144531 27.078125-27.078125s-12.148437-27.078125-27.078125-27.078125c-14.933594 0-27.078125 12.144531-27.078125 27.078125s12.144531 27.078125 27.078125 27.078125zm0-34.160156c3.902344 0 7.078125 3.179687 7.078125 7.082031s-3.175781 7.078125-7.078125 7.078125-7.078125-3.175781-7.078125-7.078125 3.175781-7.082031 7.078125-7.082031zm0 0"/>
    <path d="m90.394531 74.300781c20.484375 0 37.152344-16.664062 37.152344-37.148437 0-20.488282-16.667969-37.152344-37.152344-37.152344s-37.152343 16.664062-37.152343 37.152344c0 20.484375 16.667968 37.148437 37.152343 37.148437zm0-54.300781c9.457031 0 17.152344 7.691406 17.152344 17.148438 0 9.457031-7.695313 17.152343-17.152344 17.152343s-17.152343-7.695312-17.152343-17.152343c0-9.457032 7.695312-17.148438 17.152343-17.148438zm0 0"/>
    <path d="m181.679688 53.199219c4.601562 0 8.691406-3.257813 9.742187-7.730469.933594-3.992188-.75-8.324219-4.183594-10.589844-3.574219-2.363281-8.410156-2.183594-11.769531.488282-3.222656 2.5625-4.5625 6.96875-3.296875 10.886718 1.3125 4.082032 5.210937 6.945313 9.507813 6.945313zm0 0"/>
    <path d="m470.875 130.742188h-15.421875c.058594-1.050782.097656-2.101563.097656-3.152344 0-31.023438-25.242187-56.261719-56.269531-56.261719-31.023438 0-56.261719 25.238281-56.261719 56.261719 0 9.902344 2.5625 19.421875 7.347657 27.8125l-36.222657 13.570312c-4.8125-9.347656-12.863281-16.707031-22.875-20.546875-6.71875-2.585937-14.007812-3.484375-21.074219-2.597656-7.007812.871094-14.054687-3.015625-17.539062-9.683594-10.265625-19.683593-28.433594-34.304687-49.847656-40.117187-9.09375-2.464844-18.628906-3.308594-28.011719-2.464844-16.417969 1.46875-32.214844 8.003906-45.074219 19.097656-4.082031 3.515625-9.558594 4.863282-15.027344 3.703125-.085937-.015625-.171874-.035156-.261718-.050781-.078125-.015625-.15625-.035156-.238282-.050781-24.050781-4.820313-48.191406 9.023437-56.152343 32.214843-4.367188 12.707032-3.453125 26.285157 2.574219 38.230469.917968 1.820313 1.949218 3.558594 3.0625 5.230469h-22.554688c-22.675781 0-41.125 18.449219-41.125 41.125v19.875c0 5.523438 4.476562 10 10 10h16.046875c2.976563 33.171875 20.597656 62.1875 46.34375 80.503906v26.917969c0 12.449219 10.128906 22.578125 22.578125 22.578125h26.179688c12.453124 0 22.582031-10.128906 22.582031-22.578125v-6.421875h71.191406v6.421875c0 12.449219 10.128906 22.578125 22.578125 22.578125h26.183594c12.449218 0 22.578125-10.128906 22.578125-22.578125v-6.421875h72.699219v6.421875c0 12.449219 10.128906 22.578125 22.578124 22.578125h26.179688c12.453125 0 22.582031-10.128906 22.582031-22.578125v-28.015625c27.445313-20.226562 45.292969-52.769531 45.292969-89.402344v-51h26.40625c5.523438 0 10-4.480468 10-10v-20.074218c0-22.675782-18.449219-41.125-41.125-41.125zm-71.59375-39.414063c19.996094 0 36.269531 16.265625 36.269531 36.261719 0 .851562-.03125 1.703125-.089843 2.554687-.015626.183594 0 .40625-.046876.585938-.15625.640625.078126.273437-.320312.417969-.359375.128906-.890625.066406-1.269531.097656-1.789063.136718-3.570313.304687-5.351563.496094-3.394531.367187-6.773437.84375-10.136718 1.417968-6.617188 1.128906-13.152344 2.664063-19.585938 4.5625-3.796875 1.117188-7.5625 2.382813-11.265625 3.769532l-18.019531 6.75c-4.1875-6.027344-6.445313-13.175782-6.445313-20.652344 0-19.996094 16.265625-36.261719 36.261719-36.261719zm-320.808594 86.371094c-3.578125-7.089844-4.113281-15.15625-1.515625-22.722657 4.707031-13.714843 18.960938-21.917968 33.1875-19.125.195313.042969.390625.082032.582031.117188.152344.03125.300782.050781.449219.082031-2.636719 5.035157-4.785156 10.414063-6.332031 16.121094-1.449219 5.332031 1.699219 10.824219 7.03125 12.269531.875.238282 1.757812.355469 2.625.355469 4.402344 0 8.4375-2.933594 9.644531-7.386719 6.203125-22.847656 24.914063-39.019531 46.753907-43.140625 8.910156-1.664062 17.972656-1.203125 26.726562 1.078125 16.019531 4.363282 29.613281 15.3125 37.304688 30.050782 7.332031 14.039062 22.507812 22.1875 37.75 20.273437 3.863281-.484375 7.703124-.007813 11.421874 1.425781 4.605469 1.765625 8.445313 4.929688 11.078126 8.980469l-17.015626 6.375c-16.800781 6.292969-34.410156 9.484375-52.34375 9.484375h-131.417968c-6.941406-2.554688-12.5625-7.566406-15.929688-14.238281zm45.257813 192.660156c0 1.421875-1.15625 2.578125-2.582031 2.578125h-26.179688c-1.421875 0-2.578125-1.15625-2.578125-2.578125v-15.578125c9.949219 4.320312 20.566406 7.167969 31.339844 8.417969zm142.53125 0c0 1.421875-1.15625 2.578125-2.578125 2.578125h-26.183594c-1.421875 0-2.578125-1.15625-2.578125-2.578125v-6.421875h31.339844zm144.039062-16.242187v16.242187c0 1.421875-1.15625 2.578125-2.582031 2.578125h-26.179688c-1.421874 0-2.578124-1.15625-2.578124-2.578125v-7.347656c7.246093-.929688 14.402343-2.613281 21.320312-4.960938 3.398438-1.152343 6.746094-2.453125 10.019531-3.933593zm81.699219-172.179688h-47.597656c-19.074219 0-35.792969 3.210938-55.890625 10.734375l-3.671875 1.375-9.816406 3.671875c-1.789063.667969-3.257813 1.800781-4.355469 3.195312-1.679688 2.148438-2.460938 4.933594-2.023438 7.714844.105469.65625.277344 1.3125.515625 1.960938 1.9375 5.171875 7.699219 7.796875 12.871094 5.859375l13.492188-5.046875c16.777343-6.28125 34.371093-9.464844 52.289062-9.464844h7.78125v51c0 42.933594-29.890625 79.015625-69.953125 88.539062-6.890625 1.628907-13.964844 2.460938-21.046875 2.460938h-228c-8.609375 0-17.214844-1.226562-25.480469-3.636719-34.722656-10.144531-60.921875-40.46875-64.972656-77.363281h181.050781c20.316406 0 40.269532-3.613281 59.300782-10.734375l6.628906-2.480469 17.714844-6.628906c3.878906-1.453125 6.324218-5.054688 6.488281-8.949219.058593-1.296875-.140625-2.628906-.625-3.921875-.171875-.449218-.378907-.875-.601563-1.285156-2.199218-4.035156-6.910156-6.078125-11.382812-4.859375-.296875.082031-.59375.175781-.886719.285156l-14.976563 5.605469-9.371093 3.503906c-6.863281 2.570313-13.863281 4.613282-20.964844 6.136719-10.265625 2.207031-20.738281 3.328125-31.328125 3.328125h-207.1875v-9.875c0-11.648438 9.476562-21.125 21.125-21.125h184.695312c20.34375 0 40.316407-3.617188 59.363282-10.753906l109.316406-40.957032c12.878906-4.824218 26.429688-7.878906 40.140625-8.984374 4.058594-.328126 8.128906-.5 12.203125-.5h24.03125c11.648438 0 21.125 9.476562 21.125 21.125zm0 0"/>
    <path d="m457.101562 57.398438c4.824219 0 9.078126-3.613282 9.867188-8.371094.679688-4.070313-1.335938-8.273438-4.917969-10.308594-3.484375-1.980469-7.902343-1.667969-11.074219.777344-3.328124 2.566406-4.707031 7.140625-3.339843 11.113281 1.378906 4 5.214843 6.789063 9.464843 6.789063zm0 0"/>
    <path d="m348.757812 212.074219c-3.664062-2.277344-8.449218-1.890625-11.742187.867187-3.15625 2.636719-4.320313 7.136719-2.941406 10.992188 1.410156 3.925781 5.226562 6.636718 9.40625 6.636718 4.707031 0 8.886719-3.4375 9.808593-8.050781.808594-4.042969-1.035156-8.273437-4.53125-10.445312zm0 0"/>
</svg>