<svg viewBox="0 0 64 64" xmlns="http://www.w3.org/2000/svg">
    <path d="m48.344 28.2c.927-4.5 1.886-9.164 1.653-12.275-.262-3.5-3.91-12.89-4.065-13.288a1 1 0 0 0 -.932-.637h-26a1 1 0 0 0 -.932.637c-.155.4-3.8 9.789-4.065 13.288-.233 3.111.726 7.77 1.653 12.275a69.34 69.34 0 0 1 1.344 7.869 37.755 37.755 0 0 1 -.5 6.123 41.178 41.178 0 0 0 -.5 5.843c.116 3.326 1.941 12.756 2.019 13.155a1 1 0 0 0 .981.81h7a1 1 0 0 0 .981-.81c.078-.4 1.9-9.829 2.019-13.155a44.308 44.308 0 0 0 -.507-6.093 43.474 43.474 0 0 1 -.494-5.9c.145-3.52 1.9-12.533 2.654-16.245a1 1 0 0 1 .979-.8h.736a1 1 0 0 1 .979.8c.753 3.711 2.509 12.724 2.653 16.244a43.474 43.474 0 0 1 -.494 5.9 44.308 44.308 0 0 0 -.506 6.094c.116 3.326 1.941 12.756 2.019 13.155a1 1 0 0 0 .981.81h7a1 1 0 0 0 .981-.81c.078-.4 1.9-9.829 2.019-13.155a41.178 41.178 0 0 0 -.506-5.843 37.755 37.755 0 0 1 -.5-6.123 69.34 69.34 0 0 1 1.35-7.869zm-1.959-.4a70.261 70.261 0 0 0 -1.385 8.131 38.66 38.66 0 0 0 .509 6.517 41.009 41.009 0 0 1 .491 5.517c-.091 2.625-1.377 9.645-1.828 12.035h-5.344c-.451-2.39-1.737-9.41-1.828-12.035a44.177 44.177 0 0 1 .491-5.777 44.319 44.319 0 0 0 .509-6.229c-.15-3.664-1.933-12.8-2.691-16.557a3.006 3.006 0 0 0 -2.94-2.4h-.736a3 3 0 0 0 -2.939 2.4c-.76 3.757-2.543 12.898-2.694 16.557a44.319 44.319 0 0 0 .508 6.229 44.177 44.177 0 0 1 .492 5.777c-.091 2.625-1.377 9.645-1.828 12.035h-5.344c-.451-2.39-1.737-9.41-1.828-12.035a41.009 41.009 0 0 1 .489-5.517 38.66 38.66 0 0 0 .511-6.517 70.261 70.261 0 0 0 -1.385-8.131c-.858-4.167-1.83-8.889-1.618-11.721.203-2.72 2.863-9.898 3.691-12.079h24.624c.828 2.181 3.488 9.359 3.688 12.075.215 2.832-.757 7.554-1.615 11.725z"/>
    <path d="m21 6h2v2h-2z"/>
    <path d="m25 6h2v2h-2z"/>
    <path d="m29 6h2v2h-2z"/>
    <path d="m33 6h2v2h-2z"/>
    <path d="m37 6h2v2h-2z"/>
    <path d="m41 6h2v2h-2z"/>
</svg>