<svg viewBox="0 0 512 512" xmlns="http://www.w3.org/2000/svg">
    <path d="m109.835938 444.679688c-1.746094-3.757813-6.210938-5.386719-9.964844-3.640626-3.753906 1.75-5.386719 6.210938-3.640625 9.964844.761719 1.628906 1.507812 3.1875 2.234375 4.664063 1.304687 2.652343 3.96875 4.191406 6.734375 4.191406 1.113281 0 2.242187-.25 3.308593-.773437 3.714844-1.832032 5.246094-6.328126 3.414063-10.042969-.679687-1.382813-1.378906-2.839844-2.085937-4.363281zm0 0"/><path d="m97.882812 412.984375c-.449218-1.527344-.890624-3.082031-1.320312-4.660156-1.089844-4-5.214844-6.351563-9.207031-5.265625-3.996094 1.089844-6.355469 5.210937-5.265625 9.207031.457031 1.683594.925781 3.339844 1.40625 4.964844.964844 3.265625 3.953125 5.378906 7.191406 5.378906.703125 0 1.417969-.101563 2.125-.308594 3.976562-1.171875 6.242188-5.34375 5.070312-9.316406zm0 0"/><path d="m83.554688 383.40625c4.113281-.476562 7.0625-4.199219 6.585937-8.3125-.183594-1.585938-.351563-3.1875-.5-4.804688-.382813-4.125-4.039063-7.171874-8.160156-6.773437-4.125.382813-7.160157 4.035156-6.777344 8.160156.160156 1.730469.339844 3.445313.535156 5.144531.445313 3.820313 3.6875 6.640626 7.441407 6.640626.289062-.003907.582031-.019532.875-.054688zm0 0"/><path d="m139.070312 159.628906c.144532-1.734375.265626-3.453125.367188-5.160156.242188-4.132812-2.910156-7.6875-7.046875-7.929688-4.136719-.234374-7.683594 2.90625-7.929687 7.042969-.09375 1.59375-.207032 3.199219-.339844 4.816407-.339844 4.128906 2.730468 7.75 6.859375 8.089843.210937.019531.417969.023438.625.023438 3.863281.003906 7.144531-2.964844 7.464843-6.882813zm0 0"/><path d="m123.226562 115.027344c.199219 1.578125.378907 3.179687.542969 4.796875.390625 3.863281 3.652344 6.746093 7.453125 6.746093.253906 0 .507813-.011718.765625-.039062 4.121094-.417969 7.125-4.097656 6.707031-8.21875-.175781-1.738281-.371093-3.449219-.582031-5.144531-.511719-4.109375-4.285156-7.019531-8.371093-6.511719-4.109376.511719-7.027344 4.261719-6.515626 8.371094zm0 0"/><path d="m122.949219 205.644531c.632812.167969 1.273437.246094 1.898437.246094 3.332032 0 6.371094-2.230469 7.253906-5.601563.4375-1.679687.855469-3.347656 1.25-5.003906.964844-4.027344-1.519531-8.074218-5.546874-9.039062-4.039063-.972656-8.078126 1.519531-9.042969 5.546875-.371094 1.5625-.761719 3.125-1.175781 4.699219-1.046876 4.007812 1.355468 8.105468 5.363281 9.152343zm0 0"/><path d="m111.992188 34.472656c-2.289063-3.449218-6.929688-4.390625-10.382813-2.105468-3.449219 2.28125-4.398437 6.933593-2.121094 10.390624.007813.011719.882813 1.34375 2.277344 3.835938 1.375 2.453125 3.925781 3.835938 6.550781 3.835938 1.242188 0 2.5-.3125 3.660156-.960938 3.613282-2.023438 4.902344-6.59375 2.875-10.207031-1.671874-2.992188-2.742187-4.617188-2.859374-4.789063zm0 0"/><path d="m116.335938 82c.964843 3.261719 3.953124 5.371094 7.1875 5.371094.707031 0 1.425781-.101563 2.136718-.3125 3.972656-1.179688 6.234375-5.355469 5.058594-9.324219-.503906-1.695313-1.015625-3.347656-1.53125-4.949219-1.273438-3.945312-5.503906-6.105468-9.441406-4.835937-3.945313 1.273437-6.109375 5.5-4.835938 9.441406.480469 1.496094.957032 3.03125 1.425782 4.609375zm0 0"/><path d="m424.496094 403.0625c-3.996094-1.085938-8.117188 1.269531-9.207032 5.265625-.433593 1.578125-.871093 3.132813-1.324218 4.660156-1.171875 3.972657 1.101562 8.144531 5.070312 9.316407.710938.207031 1.425782.308593 2.128906.308593 3.238282 0 6.226563-2.117187 7.1875-5.378906.480469-1.625.949219-3.28125 1.410157-4.964844 1.089843-3.996093-1.269531-8.117187-5.265625-9.207031zm0 0"/><path d="m411.976562 441.046875c-3.757812-1.746094-8.214843-.117187-9.960937 3.640625-.710937 1.523438-1.410156 2.976562-2.089844 4.359375-1.832031 3.71875-.300781 8.214844 3.414063 10.042969 1.066406.523437 2.195312.773437 3.308594.773437 2.769531 0 5.429687-1.539062 6.734374-4.1875.730469-1.480469 1.476563-3.035156 2.234376-4.664062 1.746093-3.757813.117187-8.21875-3.640626-9.964844zm0 0"/><path d="m430.371094 363.519531c-4.117188-.390625-7.777344 2.648438-8.160156 6.773438-.148438 1.617187-.316407 3.21875-.5 4.804687-.476563 4.113282 2.472656 7.835938 6.585937 8.3125.292969.035156.585937.050782.875.050782 3.753906 0 6.996094-2.816407 7.441406-6.636719.195313-1.699219.375-3.414063.535157-5.148438.382812-4.121093-2.652344-7.773437-6.777344-8.15625zm0 0"/><path d="m399.875 49.46875c1.160156.648438 2.417969.960938 3.660156.960938 2.625 0 5.175782-1.382813 6.550782-3.835938 1.363281-2.433594 2.226562-3.757812 2.277343-3.835938 2.285157-3.449218 1.34375-8.097656-2.105469-10.390624-3.449218-2.289063-8.105468-1.347657-10.398437 2.105468-.113281.171875-1.183594 1.796875-2.859375 4.789063-2.027344 3.613281-.738281 8.183593 2.875 10.207031zm0 0"/><path d="m379.753906 200.285156c.878906 3.375 3.921875 5.605469 7.25 5.605469.628906 0 1.265625-.078125 1.902344-.246094 4.007812-1.046875 6.40625-5.144531 5.359375-9.152343-.410156-1.574219-.804687-3.140626-1.175781-4.699219-.964844-4.027344-5.003906-6.519531-9.039063-5.546875-4.03125.960937-6.515625 5.007812-5.550781 9.039062.398438 1.65625.8125 3.324219 1.253906 5zm0 0"/><path d="m379.867188 126.53125c.253906.027344.511718.039062.761718.039062 3.804688 0 7.0625-2.882812 7.453125-6.746093.164063-1.617188.347657-3.21875.542969-4.796875.515625-4.109375-2.402344-7.855469-6.511719-8.371094-4.105469-.507812-7.859375 2.402344-8.375 6.515625-.210937 1.691406-.402343 3.402344-.578125 5.140625-.417968 4.121094 2.585938 7.800781 6.707032 8.21875zm0 0"/><path d="m372.417969 154.46875c.101562 1.707031.222656 3.425781.363281 5.160156.324219 3.917969 3.605469 6.886719 7.46875 6.886719.203125 0 .414062-.007813.621094-.027344 4.128906-.339843 7.199218-3.960937 6.859375-8.089843-.132813-1.617188-.246094-3.222657-.339844-4.816407-.246094-4.132812-3.777344-7.285156-7.929687-7.042969-4.136719.242188-7.289063 3.796876-7.042969 7.929688zm0 0"/><path d="m396.945312 77.394531c1.269532-3.941406-.894531-8.171875-4.835937-9.445312-3.9375-1.269531-8.167969.894531-9.441406 4.835937-.519531 1.605469-1.03125 3.253906-1.53125 4.949219-1.179688 3.972656 1.085937 8.148437 5.058593 9.324219.710938.210937 1.429688.3125 2.132813.3125 3.238281 0 6.222656-2.109375 7.191406-5.371094.464844-1.578125.941407-3.113281 1.425781-4.605469zm0 0"/><path d="m264.160156 200.449219c0 5.113281-3.695312 9.269531-8.234375 9.269531-4.539062 0-8.230469-4.15625-8.230469-9.269531 0-4.140625-3.355468-7.5-7.5-7.5-4.144531 0-7.5 3.359375-7.5 7.5 0 13.382812 10.421876 24.269531 23.230469 24.269531 12.8125 0 23.234375-10.886719 23.234375-24.269531 0-4.140625-3.359375-7.5-7.5-7.5-4.144531 0-7.5 3.359375-7.5 7.5zm0 0"/><path d="m224.492188 430.769531c-4.109376-.578125-7.894532 2.289063-8.464844 6.394531-.230469 1.644532-.464844 3.273438-.703125 4.882813-.605469 4.097656 2.222656 7.914063 6.320312 8.519531.371094.058594.742188.082032 1.109375.082032 3.652344 0 6.855469-2.675782 7.410156-6.398438.242188-1.652344.484376-3.324219.71875-5.015625.574219-4.101563-2.289062-7.894531-6.390624-8.464844zm0 0"/><path d="m218.074219 470.25c-4.050781-.855469-8.035157 1.71875-8.902344 5.769531-.351563 1.652344-.703125 3.257813-1.050781 4.820313-.902344 4.042968 1.640625 8.050781 5.683594 8.953125.550781.121093 1.101562.183593 1.644531.183593 3.433593 0 6.53125-2.375 7.3125-5.867187.355469-1.605469.71875-3.257813 1.082031-4.957031.863281-4.050782-1.71875-8.035156-5.769531-8.902344zm0 0"/><path d="m290.210938 450.566406c4.097656-.605468 6.925781-4.421875 6.316406-8.519531-.238282-1.609375-.472656-3.238281-.703125-4.886719-.570313-4.101562-4.359375-6.96875-8.464844-6.390625-4.101563.570313-6.964844 4.359375-6.390625 8.464844.234375 1.6875.476562 3.359375.722656 5.011719.550782 3.726562 3.753906 6.402344 7.40625 6.402344.367188 0 .738282-.027344 1.113282-.082032zm0 0"/><path d="m302.679688 476.019531c-.863282-4.050781-4.851563-6.628906-8.902344-5.769531-4.050782.867188-6.632813 4.851562-5.765625 8.902344.359375 1.695312.722656 3.347656 1.082031 4.953125.777344 3.492187 3.875 5.867187 7.3125 5.867187.542969 0 1.089844-.058594 1.640625-.183594 4.042969-.902343 6.589844-4.910156 5.6875-8.953124-.347656-1.558594-.699219-3.164063-1.054687-4.816407zm0 0"/><path d="m503.585938 286.011719c-7.640626-17.859375-13.183594-19.472657-15.027344-27.855469-10.464844-47.445312-21.230469-58.714844-32.355469-99.210938-1.097656-3.992187-5.214844-6.34375-9.21875-5.242187-3.992187 1.097656-6.34375 5.222656-5.246094 9.21875 9.367188 34.082031 15.480469 40.871094 24.679688 70.324219-63.621094 10.988281-128.535157 17.027344-193.097657 17.9375-4.140624.058594-7.449218 3.460937-7.394531 7.605468.058594 4.105469 3.40625 7.394532 7.5 7.394532h.105469c65.894531-.929688 132.15625-7.125 197.066406-18.421875 1.253906 4.726562 2.367188 9.351562 3.3125 13.625 2.332032 10.582031 6.367188 12.28125 12.214844 23-82.375 26.390625-169.648438 80.789062-230.199219 133.074219-60.640625-52.359376-147.894531-106.703126-230.199219-133.074219 1.871094-3.429688 3.984376-6.738281 6.332032-9.890625 5.617187-7.539063 5.753906-13.746094 9.195312-26.734375 64.910156 11.296875 131.171875 17.492187 197.066406 18.421875h.105469c4.09375 0 7.441407-3.289063 7.496094-7.394532.058594-4.144531-3.25-7.546874-7.394531-7.605468-64.558594-.910156-129.472656-6.953125-193.09375-17.9375 9.640625-30.867188 17.214844-40.015625 26.785156-78.308594 2.914062-11.664062 2.089844-24.277344-2.320312-35.515625-4.183594-10.671875-5.246094-22.804687-2.992188-34.171875 1.753906-8.867188.433594-17.855469-3.71875-25.316406-7.140625-12.824219-9.3125-27.929688-6.113281-42.53125.304687-1.390625 1.351562-2.402344 2.492187-2.402344h392.722656c1.136719 0 2.183594 1.011719 2.488282 2.398438 3.195312 14.605468 1.023437 29.710937-6.117188 42.535156-4.152344 7.460937-5.46875 16.449218-3.714844 25.3125 3.875 19.5625-2.875 33.171875-4.496093 38.5-1.207031 3.964844 1.027343 8.152344 4.988281 9.359375 3.964844 1.207031 8.15625-1.027344 9.359375-4.988281 1.339844-4.394532 9.679687-21.46875 4.863281-45.785157-1.066406-5.378906-.316406-10.742187 2.105469-15.101562 8.921875-16.023438 11.644531-34.859375 7.664063-53.039063-1.824219-8.355468-8.875-14.191406-17.140626-14.191406h-392.722656c-8.265625 0-15.316406 5.835938-17.144531 14.191406-3.980469 18.179688-1.257813 37.015625 7.660156 53.039063 2.425781 4.355469 3.175781 9.722656 2.109375 15.101562-2.84375 14.351563-1.550781 29.066407 3.742188 42.566407 3.28125 8.363281 3.894531 17.738281 1.730468 26.402343-10.019531 40.101563-17.339843 45.652344-29.042968 85.828125-6.042969 21.15625-4.734375 23.203125-8.757813 28.632813-22.085937 29.835937-25.851562 70.582031-10.804687 103.914062 1.859375 4.117188 2.109375 9.023438.710937 13.8125-11.371093 38.871094.6875 81.960938 32.128907 107.777344 2.839843 2.332031 4.917968 5.5625 6.003906 9.339844 1.929687 6.707031 8.007812 11.394531 14.777344 11.394531h386.492187c6.394531 0 12.019531-3.980469 14.328125-10.132812l.265625-.699219c1.320313-3.523438 5.019531-8.871094 7.757813-11.21875 29.964843-25.699219 41.960937-67.488281 30.5625-106.457031-1.402344-4.789063-1.148438-9.695313.710937-13.816407 12.246094-27.132812 11.605469-58.382812.789063-83.664062zm-441.265626 210.449219c-1.929687-6.714844-5.703124-12.519532-10.902343-16.789063-26.117188-21.445313-37.070313-58.402344-27.25-91.96875 2.402343-8.222656 1.894531-16.816406-1.4375-24.199219-9.308594-20.617187-10.113281-44.289062-3.03125-65.289062 115.265625 36.488281 212.316406 118.292968 228.726562 132.617187v66.167969h-185.734375c-.046875-.011719-.261718-.152344-.371094-.539062zm425.367188-108.757813c9.75 33.324219-.429688 68.988281-25.933594 90.859375-4.648437 3.988281-9.820312 11.4375-12.027344 17.324219l-.265624.703125c-.109376.292968-.273438.398437-.289063.410156h-185.746094v-66.167969c16.414063-14.324219 113.460938-96.132812 228.730469-132.621093 7.082031 21.003906 6.273438 44.671874-3.03125 65.292968-3.335938 7.382813-3.84375 15.976563-1.4375 24.199219zm0 0"/>
</svg>