<svg viewBox="0 0 512 512" xmlns="http://www.w3.org/2000/svg">
    <path d="m159.984375 224c17.648437 0 32-14.351562 32-32s-14.351563-32-32-32-32 14.351562-32 32 14.351563 32 32 32zm0-48c8.824219 0 16 7.175781 16 16s-7.175781 16-16 16-16-7.175781-16-16 7.183594-16 16-16zm0 0"/>
    <path d="m344.03125 303.992188c26.472656 0 48-21.527344 48-48 0-26.472657-21.527344-48-48-48s-48 21.527343-48 48c0 26.472656 21.527344 48 48 48zm0-80c17.648438 0 32 14.351562 32 32 0 17.648437-14.351562 32-32 32s-32-14.351563-32-32c0-17.648438 14.351562-32 32-32zm0 0"/>
    <path d="m255.96875 119.992188c0 13.230468 10.765625 24 24 24 13.230469 0 24-10.769532 24-24 0-13.230469-10.769531-24-24-24-13.234375 0-24 10.769531-24 24zm24-8c4.414062 0 8 3.59375 8 8s-3.585938 8-8 8c-4.417969 0-8-3.59375-8-8s3.582031-8 8-8zm0 0"/>
    <path d="m216.0625 311.992188c13.234375 0 24-10.769532 24-24 0-13.230469-10.765625-24.007813-24-24.007813-13.230469 0-24 10.777344-24 24.007813 0 13.230468 10.769531 24 24 24zm0-32.007813c4.417969 0 8 3.589844 8 8.007813 0 4.414062-3.582031 8-8 8-4.414062 0-8-3.585938-8-8 0-4.417969 3.585938-8.007813 8-8.007813zm0 0"/>
    <path d="m488 368h-49.160156c5.769531-12.542969 8.96875-26.167969 9.03125-39.96875 0-.007812 0-.007812 0-.015625s0-.007813 0-.015625v-60.609375c.832031-20.789063-5.054688-41.636719-17.488282-59.398437 21.585938-30.839844 23.527344-71 4.59375-103.984376-18.503906-32.265624-54.71875-51.304687-91.816406-48.03125-15.777344-34.207031-49.398437-55.976562-87.289062-55.976562-37.886719 0-71.503906 21.777344-87.277344 55.984375-37.152344-3.25-73.304688 15.769531-91.839844 48.03125-18.914062 32.984375-16.953125 73.136719 4.597656 103.976563-12.367187 17.695312-18.246093 38.457031-17.480468 59.167968v60.839844.015625.015625c.066406 13.792969 3.25 27.394531 9 39.9375h-16.855469c-.113281 0-.199219.054688-.3125.0625-13.085937.167969-23.6875 10.839844-23.6875 23.96875 0 2.824219.578125 5.488281 1.480469 8h-9.496094c-13.230469 0-24 10.769531-24 24s10.769531 24 24 24h89.535156c-.894531 2.511719-1.480468 5.183594-1.480468 8.015625 0 2.824219.578124 5.488281 1.480468 8h-17.398437c-.03125 0-.046875-.015625-.082031-.015625-13.230469 0-24 10.769531-24 24s10.769531 24 24 24h295.90625c13.230468 0 24-10.769531 24-24 0-2.816406-.578126-5.480469-1.472657-7.984375h41.488281c13.230469 0 24-10.769531 24-24s-10.769531-24-24-24c-.03125 0-.046874.015625-.082031.015625h-9.40625c.902344-2.519531 1.488281-5.199219 1.488281-8.03125 0-2.824219-.578124-5.488281-1.480468-8h41.503906c13.230469 0 24-10.769531 24-24s-10.769531-24-24-24zm-397.375-.097656c-6.976562-12.175782-10.695312-25.980469-10.753906-39.933594v-10.976562c19.265625 29.199218 53.519531 46.144531 88.722656 43 15.765625 34.222656 49.382812 56.007812 87.277344 56.007812 37.890625 0 71.503906-21.785156 87.296875-56.007812 2.785156.246093 5.585937.367187 8.375.367187 32.449219 0 62.625-16.6875 80.328125-43.703125v11.3125c-.054688 13.941406-3.773438 27.75-10.75 39.910156-16.679688 29.058594-48.800782 44.472656-81.753906 39.433594-3.679688-.570312-7.320313 1.503906-8.679688 5.015625-12.136719 31.320313-41.503906 51.550781-74.824219 51.550781-33.328125 0-62.6875-20.230468-74.808593-51.542968-1.351563-3.511719-5.039063-5.59375-8.679688-5.023438-33.015625 5.121094-65.078125-10.382812-81.75-39.410156zm6.960938-154.925782c2.316406-2.914062 2.316406-7.046874 0-9.96875-20.890626-26.230468-23.617188-61.96875-6.960938-91.03125 14.296875-24.898437 40.976562-40.351562 69.632812-40.351562 4.054688 0 8.132813.3125 12.132813.925781 3.714844.554688 7.328125-1.511719 8.679687-5.015625 12.113282-31.3125 41.480469-51.535156 74.800782-51.535156 33.320312 0 62.6875 20.222656 74.824218 51.519531 1.359376 3.503907 4.929688 5.578125 8.679688 5.015625 3.992188-.613281 8.074219-.925781 12.128906-.925781 28.648438 0 55.320313 15.460937 69.609375 40.359375 16.6875 29.0625 13.949219 64.800781-6.960937 91.023438-2.320313 2.917968-2.320313 7.054687 0 9.976562 11.808594 14.800781 17.816406 32.625 17.824218 50.566406-.015624.160156-.097656.296875-.097656.457032v2.167968c-.421875 12.992188-3.933594 25.96875-10.75 37.832032-14.296875 24.894531-40.953125 40.367187-69.578125 40.359374-4.070312 0-8.167969-.3125-12.167969-.925781-3.679687-.5625-7.320312 1.503907-8.679687 5.015625-12.144531 31.328125-41.511719 51.558594-74.832031 51.558594-33.328125 0-62.6875-20.230469-74.808594-51.542969-1.199219-3.121093-4.191406-5.121093-7.453125-5.121093-.410156 0-.824219.03125-1.226563.097656-4.015624.613281-8.109374.933594-12.175781.933594-28.632812 0-55.296875-15.464844-69.582031-40.34375-6.863281-11.984376-10.394531-25.113282-10.753906-38.230469v-1.792969c0-.136719-.070313-.238281-.078125-.375 0-17.96875 5.992187-35.824219 17.792969-50.648438zm390.414062 187.023438h-64.015625c-4.425781 0-8 3.574219-8 8s3.574219 8 8 8c4.414063 0 8 3.585938 8 8s-3.585937 8-8 8c-4.425781 0-8 3.574219-8 8v.015625.015625c0 4.425781 3.574219 8 8 8h32c.015625 0 .023437-.007812.039063-.007812 4.402343.023437 7.960937 3.59375 7.960937 7.992187 0 4.417969-3.585937 8-8 8h-63.855469c-.058594 0-.105468-.015625-.160156-.015625-4.425781 0-8 3.574219-8 8v.015625c0 4.425781 3.574219 8 8 8h.078125c4.378906.046875 7.921875 3.59375 7.921875 7.984375 0 4.414062-3.585938 8-8 8h-295.90625c-4.414062 0-8-3.585938-8-8 0-4.398438 3.5625-7.96875 7.960938-7.992188.015624 0 .023437.007813.039062.007813h40c4.425781 0 8-3.574219 8-8 0-4.421875-3.574219-8-8-8-4.414062 0-8-3.582031-8-8 0-4.414063 3.585938-8 8-8 4.425781 0 8-3.574219 8-8v-.015625c0-4.425781-3.574219-8-8-8h-112.0625c-4.414062 0-8-3.585938-8-8s3.585938-8 8-8h32.015625c4.425781 0 8-3.574219 8-8s-3.574219-8-8-8c-4.414063 0-8-3.585938-8-8s3.585937-8 8-8c.054687 0 .105469-.03125.160156-.03125h25.832031c19.832032 27.839844 52.480469 43.039062 86.585938 39.910156 15.773438 34.226563 49.382812 56 87.277344 56 37.890625 0 71.503906-21.78125 87.289062-56 34.160156 3.089844 66.710938-12.070312 86.535156-39.878906h58.304688c4.414062 0 8 3.585938 8 8s-3.585938 8-8 8zm0 0"/>
    <path d="m272.238281 336h-.078125c-4.417968 0-7.953125 3.574219-7.953125 8s3.617188 8 8.039063 8c4.417968 0 8-3.574219 8-8s-3.589844-8-8.007813-8zm0 0"/>
    <path d="m128.105469 287.9375c4.414062 0 8-3.578125 8-8 0-4.425781-3.585938-8-8-8h-.089844c-4.414063 0-7.953125 3.574219-7.953125 8 0 4.421875 3.617188 8 8.042969 8zm0 0"/>
    <path d="m248.222656 207.886719c4.417969 0 8-3.582031 8-8 0-4.414063-3.582031-8-8-8h-.085937c-4.417969 0-7.953125 3.585937-7.953125 8 0 4.417969 3.625 8 8.039062 8zm0 0"/>
    <path d="m256.222656 55.816406c4.417969 0 8-3.585937 8-8 0-4.417968-3.582031-8-8-8h-.085937c-4.417969 0-7.953125 3.582032-7.953125 8 0 4.414063 3.625 8 8.039062 8zm0 0"/>
    <path d="m184.167969 111.839844c4.417969 0 8-3.582032 8-8 0-4.414063-3.582031-8-8-8h-.089844c-4.414063 0-7.949219 3.585937-7.949219 8 0 4.417968 3.613282 8 8.039063 8zm0 0"/>
    <path d="m376.351562 151.863281c4.417969 0 8-3.582031 8-8 0-4.414062-3.582031-8-8-8h-.085937c-4.417969 0-7.953125 3.585938-7.953125 8 0 4.417969 3.617188 8 8.039062 8zm0 0"/>
</svg>