<svg viewBox="-44 0 512 512.0015" xmlns="http://www.w3.org/2000/svg">
    <path d="m109.945312 123.871094c.777344 2.398437 1.609376 4.777344 2.503907 7.132812.105469.285156.777343 1.949219 1.054687 2.660156.292969.652344.757813 1.695313.835938 1.867188.164062.347656.339844.683594.507812 1.03125l-5.914062-15.9375c.328125 1.082031.664062 2.167969 1.011718 3.246094zm0 0"/>
    <path d="m415.207031 426.097656-71.601562-57.660156c-.042969-.035156-.082031-.066406-.125-.101562-22.53125-17.351563-42.871094-34.078126-61.242188-50.136719 21.09375-24.554688 37.421875-46.621094 48.8125-66.007813 2.441407-3.371094 20.042969-28.476562 29.199219-64.058594 19.449219-75.574218-19.792969-151.625-92.855469-178.351562-35.644531-13.042969-74.910156-13.042969-110.554687 0-46.328125 16.949219-84.101563 57.539062-94.847656 106.34375-5.234376 23.769531-3.960938 48.519531 2.085937 72.007812 9.15625 35.582032 26.757813 60.6875 29.199219 64.058594 12.125 20.636719 29.105468 43.082032 48.816406 66.042969-19.019531 16.597656-39.449219 33.3125-61.246094 50.101563-.042968.035156-.082031.066406-.125.101562l-71.601562 57.660156c-7.441406 5.992188-10.667969 15.484375-8.414063 24.769532 2.253907 9.285156 9.464844 16.242187 18.828125 18.160156l14.117188 2.894531c3.417968.699219 6.15625 3.210937 7.148437 6.550781l4.773438 16.0625c2.34375 7.886719 8.445312 14.023438 16.320312 16.410156 2.335938.707032 4.730469 1.058594 7.101563 1.054688 5.613281 0 11.121094-1.941406 15.570312-5.632812 25.058594-20.808594 74.414063-62.796876 123.390625-110.226563 1.410157-1.367187 2.800781-2.722656 4.195313-4.078125 27.445312 26.753906 55.554687 52.277344 80.816406 74.386719l.910156.796875c3.117188 2.722656 7.847656 2.410156 10.570313-.707032 2.722656-3.113281 2.40625-7.84375-.707031-10.566406l-.910157-.796875c-31.003906-27.136719-57.445312-51.59375-80.03125-73.597656 18.476563-18.363281 35.015625-35.742187 49.570313-52.089844 19.261718 16.8125 39.90625 33.722657 61.90625 50.667969l71.539062 57.609375c2.917969 2.351563 4.132813 5.929687 3.25 9.570313-.882812 3.640624-3.601562 6.265624-7.273437 7.015624l-14.117188 2.894532c-8.84375 1.808594-15.933593 8.308594-18.503906 16.960937l-4.773437 16.058594c-.921876 3.097656-3.21875 5.410156-6.308594 6.34375-3.085938.9375-6.273438.292969-8.753906-1.765625-6.285157-5.21875-12.78125-10.675781-19.300782-16.214844-3.15625-2.675781-7.882812-2.292968-10.558594.859375-2.675781 3.15625-2.292968 7.882813.859376 10.558594 6.566406 5.574219 13.101562 11.066406 19.429687 16.320313 4.449219 3.691406 9.957031 5.632812 15.570313 5.632812 2.371093 0 4.765624-.347656 7.101562-1.054688 7.875-2.386718 13.972656-8.523437 16.320312-16.414062l4.773438-16.058594c.992188-3.34375 3.730469-5.855468 7.148438-6.554687l14.117187-2.890625c9.359375-1.917969 16.574219-8.875 18.828125-18.160156 2.246094-9.285157-.976562-18.777344-8.417969-24.769532zm-308.207031-365.5c10.953125-12.238281 28.59375-27.09375 54.984375-36.746094 32.328125-11.828124 67.933594-11.828124 100.261719 0 26.355468 9.640626 44.035156 24.589844 55.015625 36.878907.125 7.429687-1.191407 32.777343-20.824219 73.082031-5.621094-7.089844-11.671875-13.441406-17.996094-18.878906-10.789062-9.269532-22.546875-16.179688-34.953125-20.535156-25.230469-8.863282-53.542969-6.441407-77.675781 6.644531-14.140625 7.671875-26.839844 18.640625-37.980469 32.730469-17.476562-35.875-21.3125-62.15625-20.832031-73.175782zm-.992188 183.691406c-.136718-.230468-.289062-.460937-.449218-.675781-.179688-.246093-18.257813-24.933593-27.097656-59.6875-9.878907-38.859375-4.8125-74.230469 15.054687-105.410156 2.398437 15.132813 8.507813 37.789063 23.484375 67.105469 16.488281 32.277344 40.480469 66.335937 71.3125 101.226562 4.367188 4.941406 8.875 9.898438 13.519531 14.878906-14.875 15.386719-31.058593 30.929688-48.515625 46.585938-23.578125-27.511719-38.226562-48.511719-47.308594-64.023438zm-31.015624 250.554688c-2.476563 2.058594-5.667969 2.703125-8.753907 1.765625-3.085937-.933594-5.386719-3.246094-6.304687-6.34375l-4.777344-16.058594c-2.570312-8.652343-9.660156-15.152343-18.5-16.960937l-14.117188-2.894532c-3.671874-.75-6.390624-3.375-7.273437-7.015624-.886719-3.644532.332031-7.21875 3.25-9.570313l71.539063-57.609375c70.035156-53.953125 126.28125-107.289062 167.175781-158.53125 2.582031-3.234375 2.050781-7.949219-1.183594-10.527344-3.234375-2.582031-7.945313-2.050781-10.523437 1.179688-10.136719 12.699218-21.242188 25.535156-33.292969 38.488281-38.183594-41.074219-61.957031-75.601563-76.726563-102.265625 10.851563-15.152344 23.382813-26.660156 37.453125-34.289062 20.417969-11.074219 44.320313-13.144532 65.566407-5.683594 10.640624 3.738281 20.785156 9.714844 30.15625 17.769531 2.242187 1.925781 21.59375 19.523437 20.207031 22.042969-6.136719 11.140625-13.582031 23.222656-22.628907 36.210937-2.363281 3.394531-1.53125 8.0625 1.863282 10.425781 3.394531 2.367188 8.066406 1.53125 10.429687-1.863281 36.933594-53.019531 48.714844-92.097656 52.273438-114.578125 19.855469 31.175782 24.921875 66.535156 15.039062 105.386719-8.835937 34.753906-26.914062 59.445313-27.09375 59.683594-.160156.21875-.3125.449219-.449219.683593-16.632812 28.398438-73.640624 109.660157-243.328124 250.554688zm0 0"/>
</svg>