<svg fill="#999999" xmlns="http://www.w3.org/2000/svg" viewBox="0 0 512 512">
    <path d="M362,0H150c-18.748,0-34,15.252-34,34v72c0,18.748,15.252,34,34,34h6v6c0,17.801,13.75,32.451,31.188,33.885 c2.154,9.615,7.018,20.293,12.773,32.93c11.259,24.722,25.272,55.489,25.272,93.185c0,17.697-7.647,34.253-16.502,53.423 C198.077,382.491,186,408.637,186,442c0,38.598,31.402,70,70,70c38.598,0,70-31.402,70-70c0-37.63-12.578-63.869-23.675-87.02 c-8.349-17.416-15.559-32.457-15.559-48.98c0-37.696,14.013-68.463,25.272-93.185c5.755-12.637,10.619-23.315,12.773-32.93 C342.25,178.451,356,163.801,356,146v-6h6c18.748,0,34-15.252,34-34V34C396,15.252,380.748,0,362,0z M336,146 c0,7.72-6.28,14-14,14h-21c-5.523,0-10,4.477-10,10s4.477,10,10,10h3.054c-2.198,6.908-6.018,15.308-10.216,24.525 C282.413,229.61,266.767,263.964,266.767,306c0,21.07,8.512,38.827,17.523,57.626C294.963,385.892,306,408.916,306,442 c0,27.57-22.43,50-50,50s-50-22.43-50-50c0-28.968,10.619-51.958,20.888-74.19c9.434-20.425,18.345-39.717,18.345-61.81 c0-42.036-15.646-76.39-27.071-101.475c-4.198-9.217-8.018-17.617-10.216-24.525H211c5.523,0,10-4.477,10-10s-4.477-10-10-10h-21 c-7.72,0-14-6.28-14-14v-6h160V146z M376,106c0,7.72-6.28,14-14,14H150c-7.72,0-14-6.28-14-14V34c0-7.72,6.28-14,14-14h212 c7.72,0,14,6.28,14,14V106z"/>
    <path d="M346,40H166c-5.523,0-10,4.477-10,10s4.477,10,10,10h180c5.523,0,10-4.477,10-10S351.523,40,346,40z"/>
    <path d="M346,80H166c-5.523,0-10,4.477-10,10s4.477,10,10,10h180c5.523,0,10-4.477,10-10S351.523,80,346,80z"/>
    <path d="M256,412c-16.542,0-30,13.458-30,30s13.458,30,30,30s30-13.458,30-30S272.542,412,256,412z M256,452 c-5.514,0-10-4.486-10-10c0-5.514,4.486-10,10-10c5.514,0,10,4.486,10,10C266,447.514,261.514,452,256,452z"/>
    <path d="M256,160c-5.52,0-10,4.48-10,10s4.48,10,10,10s10-4.48,10-10S261.52,160,256,160z"/>
</svg>
