<svg fill="#999999" height="448pt" viewBox="-88 0 448 448.00339" width="448pt" xmlns="http://www.w3.org/2000/svg"><path d="m216 0h-160c-4.417969 0-8 3.582031-8 8v8.640625c-27.527344 3.972656-47.9648438 27.546875-48 55.359375v248c.0625.769531.238281 1.527344.523438 2.246094 5.285156 70.917968 64.367187 125.757812 135.476562 125.757812 71.113281 0 130.195312-54.839844 135.480469-125.757812.285156-.71875.460937-1.476563.519531-2.246094v-248c-.03125-27.8125-20.472656-51.386719-48-55.359375v-8.640625c0-4.417969-3.578125-8-8-8zm-152 24v-8h16v16h16v-16h16v16h16v-16h16v16h16v-16h16v16h16v-16h16v80h-16v-16h-16v16h-16v-16h-16v16h-16v-16h-16v16h-16v-16h-16v16h-16zm-48 146.726562c28.875 10.832032 48.003906 38.433594 48.003906 69.273438s-19.128906 58.441406-48.003906 69.273438zm240 138.546876c-28.871094-10.832032-48-38.433594-48-69.273438s19.128906-58.441406 48-69.273438zm0-155.328126c-37.832031 11.367188-63.804688 46.109376-64 85.613282-.199219 39.503906 25.425781 74.503906 63.144531 86.25-6.988281 60.511718-58.226562 106.175781-119.144531 106.175781-60.914062 0-112.152344-45.664063-119.140625-106.175781 37.71875-11.746094 63.34375-46.746094 63.144531-86.25-.195312-39.503906-26.167968-74.246094-64.003906-85.613282v-9.945312h240zm0-81.945312v56h-240v-56c.023438-19 13.386719-35.375 32-39.199219v71.199219c0 4.417969 3.582031 8 8 8h160c4.421875 0 8-3.582031 8-8v-71.199219c18.613281 3.824219 31.980469 20.199219 32 39.199219zm0 0"/><path d="m80 48h16v16h-16zm0 0"/><path d="m112 48h16v16h-16zm0 0"/><path d="m144 48h16v16h-16zm0 0"/><path d="m176 48h16v16h-16zm0 0"/><path d="m136 328c22.082031-.027344 39.976562-17.917969 40-40-.023438-8.574219-2.832031-16.910156-8-23.753906v-16.246094c0-17.671875-14.324219-32-32-32-17.671875 0-32 14.328125-32 32v16.246094c-5.164062 6.84375-7.972656 15.179687-8 23.753906.027344 22.082031 17.921875 39.972656 40 40zm-16-80c0-8.835938 7.164062-16 16-16 8.839844 0 16 7.164062 16 16v3.390625c-10.1875-4.519531-21.8125-4.519531-32 0zm16 16c13.257812 0 24 10.746094 24 24s-10.742188 24-24 24c-13.253906 0-24-10.746094-24-24s10.746094-24 24-24zm0 0"/><path d="m136 352c-13.253906 0-24 10.746094-24 24s10.746094 24 24 24c13.257812 0 24-10.746094 24-24s-10.742188-24-24-24zm0 32c-4.417969 0-8-3.582031-8-8s3.582031-8 8-8c4.421875 0 8 3.582031 8 8s-3.578125 8-8 8zm0 0"/></svg>