<svg fill="#999999" height="512pt" viewBox="-19 0 512 512" width="512pt" xmlns="http://www.w3.org/2000/svg"><path d="m435.164062 0h-284.359374c-22.074219 0-40.027344 17.957031-40.027344 40.027344v91.800781c0 21.019531 17.101562 38.121094 38.121094 38.121094 21.023437 0 38.125-17.101563 38.125-38.121094v-33.46875c0-7.46875 6.078124-13.546875 13.546874-13.546875s13.546876 6.078125 13.546876 13.546875v4.324219c0 21.019531 17.101562 38.125 38.125 38.125 15.191406 0 28.917968-9.003906 34.976562-22.941406 1.648438-3.796876-.089844-8.210938-3.886719-9.859376-3.796875-1.652343-8.210937.089844-9.859375 3.886719-3.679687 8.457031-12.011718 13.921875-21.230468 13.921875-12.753907 0-23.132813-10.378906-23.132813-23.132812v-4.320313c0-15.738281-12.800781-28.539062-28.539063-28.539062-15.734374 0-28.539062 12.800781-28.539062 28.539062v33.464844c0 12.757813-10.375 23.132813-23.128906 23.132813-12.757813 0-23.132813-10.375-23.132813-23.132813v-91.800781c0-13.804688 11.230469-25.035156 25.035157-25.035156h99.535156c13.804687 0 25.035156 11.230468 25.035156 25.035156v40.046875c0 4.140625 3.355469 7.496093 7.496094 7.496093s7.496094-3.355468 7.496094-7.496093v-3.417969h144.796874c21.136719 0 38.328126-17.191406 38.328126-38.328125s-17.195313-38.328125-38.328126-38.328125zm0 61.667969h-144.800781v-21.640625c0-9.46875-3.3125-18.175782-8.828125-25.035156h153.628906c12.867188 0 23.335938 10.46875 23.335938 23.335937 0 12.871094-10.46875 23.339844-23.335938 23.339844zm0 0"/><path d="m407.980469 270.539062h-6.109375v-54.578124c0-14.621094-11.894532-26.519532-26.515625-26.519532h-317.363281c-14.621094 0-26.519532 11.898438-26.519532 26.519532v54.578124h-6.105468c-13.988282 0-25.367188 11.378907-25.367188 25.367188v93.984375c0 5.839844.417969 11.710937 1.238281 17.449219.585938 4.097656 4.394531 6.945312 8.480469 6.359375 4.097656-.589844 6.945312-4.386719 6.359375-8.484375-.71875-5.035156-1.085937-10.191406-1.085937-15.320313v-93.988281c0-5.722656 4.65625-10.375 10.375-10.375h382.617187c5.71875 0 10.375 4.652344 10.375 10.375v93.988281c0 59.0625-48.054687 107.117188-107.117187 107.117188h-189.132813c-20.605469 0-40.613281-5.863281-57.859375-16.953125-16.804688-10.8125-30.234375-26.027344-38.832031-44.007813-1.785157-3.734375-6.261719-5.3125-9.996094-3.527343-3.734375 1.785156-5.3125 6.261718-3.527344 9.996093 9.800781 20.492188 25.101563 37.832031 44.246094 50.144531 19.667969 12.648438 42.480469 19.335938 65.96875 19.335938h189.128906c67.332031 0 122.109375-54.777344 122.109375-122.109375v-93.984375c0-13.988281-11.378906-25.367188-25.367187-25.367188zm-21.097657-.117187h-340.417968v-11.703125h340.417968zm0-26.695313h-340.417968v-12.597656h340.417968zm0-27.589843h-340.417968v-.175781c0-6.355469 5.171875-11.527344 11.527344-11.527344h317.363281c6.355469 0 11.527343 5.171875 11.527343 11.527344zm0 0"/><path d="m294.011719 371.167969c0-21.300781-17.328125-38.632813-38.628907-38.632813-.269531 0-.539062.003906-.804687.007813-3.5-17.730469-19.164063-31.144531-37.90625-31.144531-18.738281 0-34.40625 13.414062-37.902344 31.144531-.269531-.003907-.539062-.007813-.804687-.007813-21.300782 0-38.632813 17.332032-38.632813 38.632813 0 13.382812 6.953125 25.636719 17.941407 32.621093-1.84375 4.558594-2.796876 9.449219-2.796876 14.453126 0 21.304687 17.328126 38.632812 38.632813 38.632812 8.597656 0 16.863281-2.863281 23.5625-8.027344 6.703125 5.164063 14.96875 8.027344 23.566406 8.027344 21.300781 0 38.632813-17.328125 38.632813-38.632812 0-5.007813-.957032-9.894532-2.800782-14.453126 10.988282-6.980468 17.941407-19.234374 17.941407-32.621093zm-30.703125 22.273437c-2.199219.785156-3.910156 2.546875-4.621094 4.773438-.714844 2.222656-.351562 4.648437.980469 6.566406 2.753906 3.96875 4.210937 8.621094 4.210937 13.464844 0 13.035156-10.605468 23.640625-23.640625 23.640625-6.867187 0-13.390625-2.992188-17.890625-8.203125-1.425781-1.648438-3.496094-2.597656-5.671875-2.597656-2.179687 0-4.25.949218-5.671875 2.597656-4.503906 5.210937-11.027344 8.203125-17.894531 8.203125-13.035156 0-23.640625-10.605469-23.640625-23.640625 0-4.839844 1.457031-9.496094 4.210938-13.464844 1.332031-1.917969 1.695312-4.347656.980468-6.570312-.714844-2.222657-2.421875-3.984376-4.621094-4.769532-9.398437-3.34375-15.714843-12.296875-15.714843-22.273437 0-13.035157 10.605469-23.640625 23.640625-23.640625 1.945312 0 3.886718.238281 5.773437.710937 2.277344.570313 4.695313.039063 6.527344-1.433593 1.828125-1.476563 2.863281-3.722657 2.789063-6.070313l-.011719-.265625c-.003907-.144531-.011719-.289062-.011719-.4375 0-13.039062 10.605469-23.640625 23.640625-23.640625s23.640625 10.601563 23.640625 23.640625c0 .140625-.003906.277344-.007812.417969l-.011719.308593c-.066407 2.34375.96875 4.585938 2.800781 6.054688 1.828125 1.46875 4.234375 1.996094 6.515625 1.425781 1.882813-.472656 3.824219-.710937 5.773437-.710937 13.03125 0 23.636719 10.605468 23.636719 23.640625.003907 9.976562-6.3125 18.929687-15.710937 22.273437zm0 0"/><path d="m216.675781 342.117188c-21.523437 0-39.03125 17.507812-39.03125 39.027343s17.507813 39.027344 39.03125 39.027344c21.519531 0 39.027344-17.507813 39.027344-39.027344 0-21.523437-17.511719-39.027343-39.027344-39.027343zm0 63.0625c-13.253906 0-24.039062-10.78125-24.039062-24.035157 0-13.253906 10.785156-24.039062 24.039062-24.039062 13.253907 0 24.035157 10.785156 24.035157 24.039062 0 13.253907-10.78125 24.035157-24.035157 24.035157zm0 0"/></svg>