<svg fill="#999999" height="512" viewBox="0 0 512 512" width="512" xmlns="http://www.w3.org/2000/svg" data-name="Layer 1"><path d="m375.16 13h-238.32a8.273 8.273 0 0 0 -7.97 8.947l24.152 276.141a228.293 228.293 0 0 0 12.355 56.653l22.414 60.359c.015.04.209.086.209.125v75.446c0 4.418 3.269 8.333 7.688 8.333h120.443c4.418 0 7.869-3.915 7.869-8.333v-75.055c0-.171.234-.332.3-.51l22.322-60.431a228.033 228.033 0 0 0 12.339-56.545l24.161-276.1a8.378 8.378 0 0 0 -2.068-6.269 8.156 8.156 0 0 0 -5.894-2.761zm-8.73 16-4.574 53h-211.712l-4.574-53zm-131.43 454v-16h42v16zm58 0v-24.339a7.84 7.84 0 0 0 -8.141-7.661h-57.718a7.84 7.84 0 0 0 -8.141 7.661v24.339h-15v-63h104v63zm50.039-186.075a209.86 209.86 0 0 1 -11.427 52.226l-20.328 54.849h-110.568l-20.3-54.858a209.951 209.951 0 0 1 -11.458-52.3l-17.415-198.842h208.914z"/><path d="m301 139a8 8 0 0 0 -8-8h-80a8 8 0 0 0 -8 8v207a8 8 0 0 0 8 8h80a8 8 0 0 0 8-8zm-16 199h-64v-191h64z"/></svg>