<svg width="31" height="30" xmlns="http://www.w3.org/2000/svg" viewBox="0 0 100 100">
    <style>
        .st0{fill:#dc025e;}
        .st1{fill:#F2F3F3;}
        .st2{fill:#42393C;}
        .st3{fill:#806149;}
        .st4{fill:#432B3D;}
        .st5{fill:#EDD2A8;}
        .st6{fill:#FFFFFF;}
        .st7{fill:#C1515C;}
        .st8{fill:#C6C6C6;}
        .st9{fill:#EBD3A8;}
        .st10{fill:none;}
        .st11{fill:#C5C0C2;}
        .st12{fill:#4B4B4B;}
        .st13{fill:#C25058;}
        .st14{fill:#707071;}
        .st15{fill:#9D9E9E;}
        .st16{fill:#B9B9B9;}
        .st17{fill:#B7536C;}
        .st18{fill:#757576;}
        .st19{fill:#707070;}
        .st20{fill:#CBCBCB;}
        .st21{fill:#BAB9B8;}
        .st22{fill:#B0AFAF;}
        .st23{fill:#A1A3A2;}
        .st24{fill:#E2E2E2;}
        .st25{fill:#D8D9D9;}
        .st26{fill:#969796;}
        .st27{fill:#7A7A79;}
        .st28{fill:#D3D2D2;}
        .st29{fill:#C1C2BF;}
        .st30{fill:#DEDEDD;}
        .st31{fill:#F50057;}
    </style>
    <path class="st0" d="M21.2,44.6c0,14.2,11.5,25.6,25.6,25.6s25.6-11.5,25.6-25.6C72.5,30.5,61,19,46.8,19S21.2,30.5,21.2,44.6z"/>
    <polygon class="st1" points="77.5,61.4 77.7,61.3 78.4,62.1 79.5,63.5 80.4,64.7 81,65.7 81.4,66.4 82.3,67.7 83,69 83.6,70.4 84.1,71.6 84.4,72.7 84.5,73.9 84.5,74.6 83.7,75.4 82.4,75.9 80.2,75.9 77.1,75.4 74.4,74.4 73,73.6 71.1,72  69.3,69.8 67.5,67.2 66.3,65.9 65.2,65.2 63.4,64.5 62,64.3 59.4,64.2 56.7,64.5 54.2,65 52.3,65.5 53.5,65.8 55.2,65.4  58.1,65 60.2,64.9 62.1,65.1 63.6,65.3 64.7,65.8 65.7,66.6 67,67.8 68.7,70.2 70.3,72 71.4,73.4 73.5,74.9 75.5,75.8  78.3,76.6 80.3,76.6 81.6,76.6 82.9,76.3 83.7,75.8 84.3,74.9 84.5,74.8 84.9,73.5 84.9,72.5 84.4,70.7 83.4,68.3 82.3,66.3  80.5,63.6 78.5,61 78.4,60.8"/>
    <path class="st2" d="M81.1,76.1c-0.4,0-0.7,0-1.1-0.1c-6.8-0.6-9.2-4-11.2-7c-1.6-2.3-3-4.2-6.1-4.6c-7.2-0.8-12,2.1-12.1,2.1 l-0.1-0.2c0,0,5-2.9,12.3-2.1c3.3,0.4,4.7,2.5,6.3,4.7c2,2.9,4.3,6.2,11,6.8c2.4,0.2,3.9-0.2,4.5-1.4c2-3.7-6.2-13.6-6.3-13.7 l0.2-0.2c0.3,0.4,8.4,10.1,6.4,14C84.1,75.6,82.9,76.1,81.1,76.1z"/>
    <path class="st2" d="M80.7,76.8c-0.4,0-0.7,0-1.1-0.1c-6.8-0.6-9.2-4-11.2-7c-1.6-2.3-3-4.2-6.1-4.6c-7.2-0.8-12,2.1-12.1,2.1 L50,67.1c0,0,5-2.9,12.3-2.1c3.3,0.4,4.7,2.5,6.3,4.7c2,2.9,4.3,6.2,11,6.8c2.4,0.2,3.9-0.2,4.5-1.4c2-3.7-6.3-13.6-6.4-13.7 l0.2-0.2c0.3,0.4,8.4,10.1,6.4,14C83.8,76.3,82.6,76.8,80.7,76.8z"/>
    <path class="st25" d="M69.6,46.6C69.6,46.6,69.6,46.6,69.6,46.6C69.6,46.6,69.6,46.6,69.6,46.6C69.7,46.6,69.7,46.6,69.6,46.6     C69.6,46.6,69.6,46.6,69.6,46.6z"/>
    <path class="st5" d="M73.5,48.8c0.1,0.1,0.2,0,0.2,0C73.6,48.8,73.5,48.8,73.5,48.8C73.4,48.8,73.4,48.8,73.5,48.8z"/>
    <path class="st5" d="M74,48c-0.4-0.3-1.2-0.2-1.8,0c0,0,0,0-0.1,0c-0.1,0-0.1,0.1-0.2,0.1c0,0,0,0-0.1,0.1c0,0-0.1,0.1-0.1,0.1     c-0.6,0.6-0.9,0.9-1,1.1c0.6,0.8,1.5-1,2.2-1c0.2,0,0.5,0.1,0.6,0.4l0.2,0.2C74.2,48.5,74.2,48.2,74,48z"/>
    <path class="st5" d="M73.1,48.7C73.1,48.7,73.2,48.7,73.1,48.7C73.1,48.7,73.1,48.7,73.1,48.7C73.1,48.7,73.1,48.7,73.1,48.7z"/>
    <path class="st5" d="M69.6,45.8c0,0-0.2,0.1-0.2,0.2c0.6,1.1,1.9-0.8,3.5-0.4C72.8,45.1,71.5,44.7,69.6,45.8z"/>
    <path class="st5" d="M70,46.9c0,0-0.2,0.1-0.2,0.2c0.5,1.1,2.1-1.1,3.4-0.8C73.2,45.8,71.8,45.4,70,46.9z"/>
    <path class="st5" d="M71.8,47c-0.3,0.3-1.4,1.3-1.5,1.5c0.3,0.3,0.5,0.3,0.9,0c0.7-0.7,1.8-1.6,2.7-1.1l0,0c0,0,0,0,0,0     C74,46.3,72.6,46.4,71.8,47z"/>
    <path class="st2" d="M71.5,44.7C71.5,44.7,71.4,44.7,71.5,44.7C71.4,44.7,71.4,44.7,71.5,44.7c-0.2,0.1-0.3,0.1-0.3,0.1     c-0.1,0-0.2,0.1-0.3,0.1c0,0,0,0,0,0c0,0-0.1,0-0.1,0c-0.1,0-0.2,0.1-0.2,0.1c0,0,0,0-0.1,0c0,0-0.1,0-0.1,0     c-0.2,0.1-0.4,0.2-0.5,0.2c-0.3,0.1-0.6,0.4-0.7,0.5c0,0,0,0,0,0.1c0,0,0,0.1,0,0.1c0,0,0,0,0,0.1c0,0,0,0,0,0.1c0,0,0,0,0,0.1     c0,0,0,0,0,0c0,0,0,0,0,0.1c0.1,0.1,0.2,0.2,0.3,0.2c0,0,0,0,0,0c0,0,0.1,0,0.1,0c0,0,0,0,0.1,0c0,0,0.1,0,0.1,0c0,0,0.1,0,0.1,0     c0,0,0,0-0.2,0.2c0,0,0,0,0,0c0,0,0,0,0,0c0,0,0,0.1-0.1,0.1c0,0,0,0.1,0,0.1c0,0.1,0,0.1,0,0.1c0,0,0,0.1,0.1,0.1     c0.1,0.1,0.1,0.2,0.3,0.3c0,0,0.1,0,0.1,0.1c0,0,0.1,0,0.1,0c0,0,0,0,0,0c0,0,0,0,0.1,0c0,0,0.1,0,0.1,0c0,0,0.1,0,0.1,0     c0,0,0.1,0,0.1,0c0,0,0.1,0,0.1,0c0,0,0.1,0,0.1-0.1c0,0,0,0,0,0c0,0,0,0.1-0.3,0.3c0,0-0.1,0.1-0.1,0.1c0,0,0,0-0.1,0.1     c0,0-0.1,0.1-0.1,0.1c0,0,0,0-0.1,0.1v0c0,0,0,0-0.1,0.1c0,0,0,0,0,0.1c-0.1,0.1-0.1,0.2-0.1,0.2c0,0.1,0,0.2,0.1,0.3     c0,0,0.1,0.1,0.1,0.1c0.1,0.1,0.2,0.1,0.4,0.1c0,0,0,0,0,0c0.1,0,0.2,0,0.2,0s0,0-0.1,0.2c0,0,0,0,0,0c0,0,0,0,0,0c0,0,0,0,0,0     c0,0.1,0,0.1,0,0.2c0,0,0,0,0,0c0,0,0,0.1,0,0.1c0,0,0,0,0,0c0,0,0,0.1,0.1,0.1c0.1,0.1,0.3,0.2,0.5,0.2c0,0,0,0,0.1,0     c0,0,0,0,0,0c0,0,0,0,0,0c0,0,0,0,0,0c0,0,0.1,0,0.1,0c0.2-0.1,0.5-0.3,0.8-0.6c0,0,0,0,0,0c0,0,0,0,0.1-0.1     c0.1-0.1,0.1-0.1,0.2-0.2c0.1-0.1,0.1-0.1,0.2-0.2c0.2-0.2,0.4-0.2,0.5-0.2c0,0,0,0,0,0c0.1,0,0.2,0,0.2,0.1     c0.1,0,0.2,0.1,0.3,0.1c-0.2-0.3-0.4-0.3-0.6-0.4c-0.7,0-1.6,1.7-2.2,1c0.1-0.2,0.4-0.5,1-1.1c0,0,0.1-0.1,0.1-0.1     c0,0,0,0,0.1-0.1c0.1,0,0.1-0.1,0.2-0.1c0,0,0,0,0.1,0c0.6-0.3,1.5-0.4,1.8,0c0.2,0.2,0.2,0.5-0.1,1.1l0,0l0.3,0.3     c0.3-0.4,0.6-1,0.1-1.6c0.2-0.5,0-1.1-0.5-1.3c0-0.3-0.1-0.5-0.4-0.7c0-0.5-0.4-0.8-0.9-0.9C72.1,44.7,71.8,44.7,71.5,44.7z      M73.9,47.5C73.9,47.5,73.9,47.5,73.9,47.5L73.9,47.5c-0.9-0.5-2,0.3-2.7,1.1c-0.4,0.3-0.7,0.3-0.9,0c0.1-0.3,1.2-1.3,1.5-1.5     C72.6,46.4,74,46.3,73.9,47.5z M73.3,46.3c-1.4-0.3-2.9,1.9-3.4,0.8c0,0,0.1-0.2,0.2-0.2C71.8,45.4,73.2,45.8,73.3,46.3z      M72.9,45.6c-1.6-0.4-3,1.6-3.5,0.4c0,0,0.2-0.1,0.2-0.2C71.5,44.7,72.8,45.1,72.9,45.6z"/>
    <path class="st14" d="M33.1,42.8c0,0-2-1.5-2.5-3c-0.5-1.5-2.2-5-1-7.6s1.6-2.6,3.7-3.8c1.8-3.1,5.2-10.3,16.5-4.1      c1.6,0.4,4,0.8,5.6,8c0.3,1.8,0.8,2.5-1.4,5.6c-2.2,3.1-1.8,1.9-1.8,1.9L33.1,42.8z"/>
    <path class="st14" d="M31.2,39.5c1.3,4.1-0.9,7.2-1,9.2c-0.2,2.5,1.4,4.8,1.5,4.2c0,0,0-0.5,0.2-1.8c0.5,1.3,1.2,1.8,1.3,1.8       c0,0,0.4-1.6,3.7-1.4c1.6,0.1,2.8,1,4.3,1.1c3.2,0.3,4.4-1.3,4.5-2.7c0.2-2.5-4.2-3.9-4-8.4c0-0.4-0.1-0.9-0.5-1.2"/>
    <path class="st2" d="M31.1,39.5c1.3,6-3.3,8.2-0.3,13c0.1,0.1,0.2,0.3,0.3,0.4c0.4,0.5,0.7,0.2,0.7-0.1c0-0.4,0.1-1.1,0.2-1.7       l-0.5,0c0.3,0.8,0.8,1.9,1.8,2c0.5-1.4,2.5-1.6,3.9-1.3c1.3,0.2,5.2,2.1,7.5,0c0.8-0.7,1.3-2,0.8-3.2c-1-2.1-3.9-3.3-3.8-7.3       c0-0.5-0.2-0.9-0.5-1.2L41,40.5c0.3,0.2,0.4,0.6,0.4,0.9c-0.1,4.2,2.8,5.4,3.8,7.4c1.1,2.4-2.1,4.3-5.1,3.3       c-3.9-1.7-6.7-1-7.2,0.6l0.3-0.2c0,0-0.6-0.2-1.1-1.6l-0.4-0.9c-0.1,1.2-0.3,2.3-0.2,2.8l0,0c0-0.1,0.1-0.1,0.1-0.1       c0.1,0,0.1,0,0.1,0c-0.1-0.1-0.3-0.3-0.3-0.4C28.6,47.6,33.4,45.5,31.1,39.5L31.1,39.5z"/>
    <path class="st2" d="M39,27.6c0,0,2.2-3.5,6.7-4.9c0.3-0.1,0.8-0.1,1.2-0.1l0,0.2c0,0-0.1,0.1-0.4,0.2c-0.8,0.3-2.2,0.5-4.6,2.1      C40.9,25.7,39.2,27.4,39,27.6z"/>
    <path class="st2" d="M43.8,26.9c1.1-1.4,2.9-2.5,4.9-3l0.3,0.2C47.8,24.6,45.7,25.2,43.8,26.9z"/>
    <path class="st2" d="M33.9,44.1c0.3,3-0.9,4,0.4,7.7l-0.1,0.1c0,0-0.3,0.2-0.5,0.1C32.5,49.4,33.9,46.4,33.9,44.1z"/>
    <path class="st5" d="M73.8,49.2c1.3-1.9-1.2-1.7-2-0.9c-0.6,0.6-0.9,0.9-1,1.1c0.6,0.8,1.5-1,2.2-1c0.2,0,0.5,0.1,0.6,0.4        c-0.4,0-0.5-0.4-1,0c-0.8,0.7-1,0.9-1.3,1C71,50,70.2,49.7,70.8,49c-0.4,0.1-1-0.3-0.7-0.8c0.2-0.3,0.5-0.5,0.7-0.7        c-0.2,0.1-0.4,0.2-0.6,0.1c-0.3,0-0.5-0.3-0.6-0.5c0-0.2,0.2-0.4,0.4-0.5c-0.6,0-0.8-0.4-0.8-0.6c0-0.4,1.4-0.9,2-1.1        c0-0.2,0.2-0.8,0.3-1.4c0.3-1.4-0.3-2.2-1.1-2.3c0,0-0.1,0-0.1,0c-0.3-0.3,1,2.2-0.9,3.5c-1.3,0.8-1.1,1.2-1.7,2.8        c-0.6,1.7-1.6,1.5-2.5,2.4c0.6,0.9,0.7,1.3,1,1.5c0.5,0.5,1.7-0.4,2.7-0.8C70.9,50.4,72.2,51.5,73.8,49.2z"/>
    <path class="st2" d="M66,51.9c0.6,0.2,1.5-0.4,2.9-0.9c2-0.2,3.1,0.9,5-1.4c0.1-0.2,1-1,0.4-1.9c0.2-0.5,0-1.1-0.5-1.3        c0-0.3-0.1-0.5-0.4-0.7c0-0.8-1-1-1.9-0.9c0,0,0,0,0,0c0.1-0.3,0.3-1,0.3-1.3c0.6-2.6-1.8-3.1-1.8-2.4c0,0.4,0.7,2.3-0.8,3.3        c-1.4,0.9-1.4,1.5-1.9,3.1c-0.6,1.6-1.5,1.4-2.6,2.5C64.8,50.3,65.5,51.5,66,51.9z M72.9,45.6c-1.6-0.4-3,1.6-3.5,0.4        c0,0,0.2-0.1,0.2-0.2C71.5,44.7,72.8,45.1,72.9,45.6z M73.3,46.3c-1.4-0.3-2.9,1.9-3.4,0.8c0,0,0.1-0.2,0.2-0.2        C71.8,45.4,73.2,45.8,73.3,46.3z M73.9,47.5C73.9,47.5,73.9,47.5,73.9,47.5L73.9,47.5c-0.9-0.5-2,0.3-2.7,1.1        c-0.4,0.3-0.7,0.3-0.9,0c0.1-0.3,1.2-1.3,1.5-1.5C72.6,46.4,74,46.3,73.9,47.5z M68.9,50.6c-1.1,0.4-2.2,1.3-2.7,0.8        c-0.3-0.2-0.4-0.6-1-1.5c1-0.9,1.9-0.8,2.5-2.4c0.6-1.6,0.4-2,1.7-2.8c1.9-1.3,0.6-3.8,0.9-3.5c0,0,0.1,0,0.1,0        c0.8,0,1.5,0.9,1.1,2.3c-0.1,0.6-0.3,1.2-0.3,1.4c-0.6,0.2-1.9,0.7-2,1.1c0,0.2,0.2,0.7,0.8,0.6c-0.2,0.1-0.4,0.3-0.4,0.5        c0,0.2,0.3,0.5,0.6,0.5c0.2,0,0.4,0,0.6-0.1c-0.2,0.2-0.5,0.5-0.7,0.7c-0.3,0.5,0.3,0.8,0.7,0.8c-0.5,0.7,0.3,1,0.6,0.8        c0.4-0.1,0.5-0.3,1.3-1c0.6-0.4,0.7,0,1,0c-0.2-0.3-0.4-0.3-0.6-0.4c-0.7,0-1.6,1.7-2.2,1c0.1-0.2,0.4-0.5,1-1.1        c0.8-0.8,3.3-1,2,0.9C72.2,51.5,70.9,50.4,68.9,50.6z"/>
    <path class="st5" d="M73.8,49.2c1.5-1.7-1.2-1.7-2-0.9c-0.6,0.6-0.9,0.9-1,1.1c0.6,0.8,1.5-1,2.2-1c0.2,0,0.5,0.1,0.6,0.4        c-0.4,0-0.5-0.4-1,0c-0.8,0.7-1,0.9-1.3,1C71,50,70.2,49.7,70.8,49c-0.4,0.1-1-0.3-0.7-0.8c0.2-0.3,0.5-0.5,0.7-0.7        c-0.2,0.1-0.4,0.2-0.6,0.1c-0.3,0-0.5-0.3-0.6-0.5c0-0.2,0.2-0.4,0.4-0.5c-0.6,0-0.8-0.4-0.8-0.6c0-0.4,1.4-0.9,2-1.1        c-0.5,0.4,0.6,1.7,0.7,3c0,0.4-1.3,1-1.1,1.3c0.1,0.3,0,0.4,0.2,0.5c0.4,0.2,1.3-0.7,2-1.1C73.3,48.5,73.3,49.7,73.8,49.2z"/>
    <path class="st5" d="M69.6,45.8c0,0-0.2,0.1-0.2,0.2c0.6,1.1,1.9-0.8,3.5-0.4C72.8,45.1,71.5,44.7,69.6,45.8z"/>
    <path class="st5" d="M70,46.9c0,0-0.2,0.1-0.2,0.2c0.5,1.1,2.1-1.1,3.4-0.8C73.2,45.8,71.8,45.4,70,46.9z"/>
    <path class="st5" d="M71.8,47c-0.3,0.3-1.4,1.3-1.5,1.5c0.3,0.3,0.5,0.3,0.9,0c0.7-0.7,1.8-1.6,2.7-1.1l0,0c0,0,0,0,0,0        C74,46.3,72.6,46.4,71.8,47z"/>
    <path class="st2" d="M69.8,47.9c-0.9-0.3-1.7,0.7-1.8,1.1L68,49c0,0,0,0,0.1-0.1C69.2,47.7,69.6,48.1,69.8,47.9z"/>
    <path class="st6" d="M67.6,51.4c-0.6-0.6-1.4-2-1.8-2.1l0,0c0,0,0,0,0,0c0,0-0.3,0.1-1.1,0.8c0.8,0.5,1.2,1,2,2.3         C66.8,52.2,67.4,51.6,67.6,51.4z"/>
    <path class="st6" d="M48.4,50.8c-0.1,1.9,7.8,8.5,9.6,9.8c3.1,2.2,4.6-3,8.4-7.8c-0.9-1.6-1.1-1.9-1.9-2.5         c-3.1,2.7-4.8,4.8-6.3,7.2l0.1-0.6c0.1-0.3,0-0.3,0.3-0.8c-1.1-1.3-1.9-2.4-3-3.6c-2.9-3-5.5-3.6-5.8-3.5         c-0.4,0-1.1,0.5-1.4,1.6C48.4,50.6,48.4,50.7,48.4,50.8z"/>
    <path class="st2" d="M47.8,50.5c-0.4,2.6,10,11.1,11.1,11.1c3.5,0.1,2.8-2.6,9.4-10.3c-1.3-1.3-1.5-2.2-2.5-2.6         c-0.5-0.2-5.3,4.4-7,7c-2.5-3.2-5-6.4-8.7-7.3C48.9,48.2,48.1,49.3,47.8,50.5z M66.7,52.4c-0.8-1.4-1.2-1.9-2-2.3         c0.8-0.7,1.1-0.8,1.1-0.8c0,0,0,0,0,0l0,0c0.4,0.1,1.2,1.5,1.8,2.1C67.4,51.6,66.8,52.2,66.7,52.4z M48.4,50.6         c0.2-1.1,0.9-1.6,1.4-1.6c0.3-0.1,2.9,0.5,5.8,3.5c1.1,1.1,2,2.2,3,3.6c-0.3,0.5-0.2,0.4-0.3,0.8l-0.1,0.6         c1.5-2.4,3.2-4.5,6.3-7.2c0.8,0.6,1,0.9,1.9,2.5c-3.7,4.7-5.3,10-8.4,7.8c-1.9-1.4-9.7-7.9-9.6-9.8         C48.4,50.7,48.4,50.6,48.4,50.6z"/>
    <path class="st6" d="M39.7,49.9c0,0,0.5,0.5,1.1,1.1c0.4,0.4,0.9,0.9,1.3,1.4c0.8,0.8,2.5,2.5,3.1,3.4         c0.2-1.4,0.8-2.4,1.7-2.4c-1.2-0.7-2.6-1.6-4.3-2.7c-0.4-0.3-1.5-1-2-1.3C40.2,49.1,39.8,49.5,39.7,49.9z"/>
    <path class="st6" d="M47.4,48.1c0,0.1,0.1,0.5,0.2,0.6c0,0,0,0,0,0l0,0c0.2,1,0.8,2.4,1.5,4.7c0.5-0.9,1.2-0.8,1.8,0         c-0.5-1.7-1.5-3.1-2.4-4.5C48.4,48.9,48,48.1,47.4,48.1z"/>
    <path class="st6" d="M54.7,68.5c-0.3-0.9-1-2.6-0.6-6.7c0.2-1,0.4-2.5,0.7-4.4c0.5-2.7-1.3-3.8-2.8-6.2         c-1.6-2.9-2.1-2.4-3.3-2.3c1.3,1.9,2.8,5.1,2.7,6c-0.1-0.7-1.2-2.5-2.3-1C49.1,54,49,54.1,49,54.2c1.9,9.2,0.3,6.7,3.4,17.3         c1.1,3.7,1.7,6.4,0.2,9.9c2.2-0.7,3.3-0.4,5.2-0.4c0.2,0,0.3,0,0.5-0.1C59,77.1,55.7,70.8,54.7,68.5z"/>
    <path class="st31" d="M48.7,53.9C48.8,53.8,48.8,53.8,48.7,53.9c0.1-0.1-0.2-0.7-0.6-2.2c-0.4,0.4-1.1,0.8-2,0.7         C47.4,53.2,48.3,53.8,48.7,53.9z"/>
    <path class="st8" d="M47.5,64.9c-0.1-0.1-0.3-0.2-0.4-0.2c-1-0.1-0.9,0.7-0.4,0.8c0.6-0.1,0.9,0,1-0.2         C47.7,65.2,47.6,65,47.5,64.9z"/>
    <path class="st8" d="M44.6,64.3c0.3,0.3,0.3,0.2,1,0.2c0.5-0.1,0.5-0.9-0.4-0.8C44.7,63.9,44.5,64.1,44.6,64.3z"/>
    <path class="st6" d="M46,54.6c-0.2,0.4-0.6,1.9-0.6,2c-0.6-0.7-2.6-3.1-3.5-4c-0.5-0.5-0.9-0.9-1.3-1.4         c-0.2-0.2-0.8-0.8-0.8-0.8c-1.2,0.6-1,1.1-1,2.5c0.5,6.8,7.1,10.5,5.8,16.1c-0.2,0.8-0.5,1-0.7,1.3c0-0.1-0.6,0.6-0.6,0.6         C43,71.3,39.1,73,38,77.9c0.9,1.6,3.1-0.1,6.3,2.4c1.7,1.3,2,1.7,3.4,1.5c2.8-3.5,4.3-7.8,3.2-14c-0.2-1.4-0.7-3.4-0.8-4.3         c0,0-0.5-4.9-1.3-9.3c0,0,0,0,0,0c0,0-1.8-1-2.5-0.1"/>
    <path class="st5" d="M45,46.7L45,46.7c-1.5-2.1-0.7-2.3-2-1.8c-1.2,0.4-2.9-0.1-2.8,0.9c0.4,0.5,2.2,2.2,1.3,3.7         c1.3,0.8,3.5,2.3,4,2.5c1.2,0.3,1.7,0.2,2.6-0.6c-0.1-0.3-0.5-1.5-0.7-2.2C46.9,49.1,45.7,47.9,45,46.7z"/>
    <path class="st10" d="M47.3,48C47.3,48,47.3,48,47.3,48C47.3,48,47.3,48,47.3,48z"/>
    <path class="st10" d="M48.4,48.9c0.9,1.4,1.9,2.8,2.4,4.5c-0.7-0.8-1.3-0.9-1.8,0c-0.7-2.4-1.3-3.8-1.5-4.7l0,0c0,0,0,0,0,0          c0-0.1-0.1-0.5-0.2-0.6C48,48.1,48.4,48.9,48.4,48.9z"/>
    <path class="st10" d="M47.3,47.9C47.3,47.9,47.3,47.9,47.3,47.9L47.3,47.9C47.3,48,47.3,47.9,47.3,47.9z"/>
    <path class="st10" d="M42.7,50.7c1.7,1.1,3.1,2,4.3,2.7c-0.5,0-1.5,0.7-1.6,2.6c0,0,0,0,0,0c0,0,0,0.1,0,0.1          c-0.7-0.9-2.5-2.9-3.3-3.7c-0.5-0.5-0.9-0.9-1.3-1.4c-0.6-0.6-1.1-1.1-1.1-1.1c0-0.3,0.5-0.7,1-0.5          C41.2,49.7,42.3,50.4,42.7,50.7z"/>
    <path class="st10" d="M46.1,52.4c0.9,0.1,1.7-0.3,2-0.7c0.5,1.4,0.7,2.1,0.7,2.1c0,0,0,0-0.1,0.1          C48.3,53.7,46.8,52.8,46.1,52.4z"/>
    <path class="st10" d="M47.4,49.1c0.2,0.7,0.6,1.9,0.7,2.2c-0.9,0.8-1.4,0.9-2.6,0.6l0,0c-0.6-0.4-3.8-2.4-4-2.5          c0.9-1.4-0.9-3.2-1.3-3.7c0-1,1.7-0.5,2.8-0.9c1.3-0.5,0.6-0.2,2,1.8h0C45.8,48,46.9,49,47.4,49.1L47.4,49.1z"/>
    <path class="st10" d="M42.8,72.2L42.8,72.2L43,72c1,0.8,2.1,1.5,4,1.4l0,0.1l0.1,0c0.1,0-1.1,2.5-1.1,2.5          c-1.6,3-3.9,1.4-4.7,0.4c0,0,0-0.1,0-0.1C40.4,75.5,42,74.5,42.8,72.2z"/>
    <path class="st10" d="M42.7,73.2L42.7,73.2c0.1-0.2,0.2-0.4,0.3-0.8c1.3,1,2.7,1.3,3.7,1.3c-0.1,0.2-0.2,0.5-0.4,0.8          C45,74.4,44,74.2,42.7,73.2z"/>
    <path class="st10" d="M41.3,75.9c0.1-0.7,0.7-1.4,1.3-2.5c1,0.9,2.3,1.3,3.7,1.3c-1.1,2.3-1.9,3.9-4.3,2.1          C41.7,76.5,41.2,76.1,41.3,75.9z"/>
    <path class="st2" d="M55.5,68.6c-0.1-0.3-0.2-0.5-0.3-0.8c-0.2-0.7-0.4-1.3-0.4-2.1c-0.1-0.4-0.1-0.9-0.1-1.4          c-0.1-3.2,0.8-5.9,0.9-7.4c0.1-2.7-2.1-4.2-3.2-6.2c-1.5-2.8-2.2-2.5-3.9-2.4l-0.1,0c-0.3-0.3-0.9-0.6-1.1-0.4          c-0.1,0.1-0.1,0.5,0.1,0.7c-3.3-2.5-1.9-5.3-4.4-4.2c-1.1,0.5-3.1,0-3,1.6v0c0.6,0.8,1.8,2.4,1.2,3.3          c-1.1-0.7-1.8,0.5-1.5,0.8c-1.2,0.7-1.2,1.4-1.1,2.9c0.5,7.7,8.5,11.8,5.1,16.7c-1.8,2.5-4.8,3.2-6.1,8.4          c1.4,2.4,3.1,0.1,6.6,2.7c1.1,0.8,2.5,2.1,3.9,1.6c0.4-0.3,1.5-1.7,1.9-2.4c0.2-0.4,0.5-0.9,0.7-1.4c1.1-2.5,1.4-5.3,1.2-8          c1.5,5.2,2.1,7.4-0.1,11.8c2.6-0.4-0.1-0.7,6.3-0.7c0.6,0,0.8-0.1,1.1-0.4C59.5,76.5,56.9,71.8,55.5,68.6z M48.4,48.9          c0.9,1.4,1.9,2.9,2.4,4.5c-0.7-0.8-1.3-0.9-1.8,0c-0.7-2.4-1.3-3.8-1.5-4.7l0,0c0,0,0,0,0,0c0-0.1-0.1-0.5-0.2-0.6          C48,48.1,48.4,48.9,48.4,48.9z M48.8,53.8C48.8,53.8,48.8,53.8,48.8,53.8c-0.5,0-1.5-0.6-2.7-1.4c1,0.1,1.7-0.3,2-0.7          C48.6,53.1,48.8,53.8,48.8,53.8z M47.3,48C47.3,48,47.3,48,47.3,48C47.3,48,47.3,48,47.3,48z M47.3,48          C47.3,48,47.3,47.9,47.3,48C47.3,47.9,47.3,47.9,47.3,48z M40.1,45.8c0-1,1.7-0.5,2.8-0.9c1.3-0.5,0.6-0.3,2,1.8h0          c0.7,1.2,2,2.4,2.4,2.5c0.2,0.7,0.6,1.9,0.7,2.2c-0.9,0.8-1.4,0.9-2.6,0.6c-0.4-0.2-2.7-1.7-4-2.5          C42.3,48,40.5,46.3,40.1,45.8z M40.7,49.3c0.5,0.4,1.6,1.1,2,1.3c1.7,1.1,3.1,2,4.3,2.7c-1,0-1.5,1-1.7,2.4          c-0.7-0.9-2.4-2.6-3.1-3.4c-0.5-0.5-0.9-0.9-1.3-1.4c-0.6-0.6-1.1-1.1-1.1-1.1C39.8,49.5,40.2,49.1,40.7,49.3z M47.7,81.7          c-1.4,0.2-1.7-0.2-3.4-1.5c-3.2-2.4-5.4-0.8-6.3-2.4c1.1-4.9,4.6-5.7,6.2-8.4c0,0.1-0.2,0.7-0.2,0.8          c0.2-0.2,0.5-0.5,0.7-1.3c1.3-5.5-5.3-9.2-5.8-16.1c0-1.4-0.2-1.9,1-2.5c0.1,0.1,0.6,0.6,0.8,0.8c0.4,0.4,0.9,0.9,1.3,1.4          c0.9,0.9,2.9,3.3,3.5,4c0-0.1,0.3-1.5,0.6-2c0,0,0.1-0.2,0.3-0.4c0.7-0.9,2.5,0.1,2.5,0.1c0,0,0,0,0,0          c0.8,4.4,1.3,9.3,1.3,9.3c0.2,0.9,0.6,2.9,0.8,4.3C52,73.9,50.5,78.3,47.7,81.7z M58.3,80.8c-0.2,0.1-0.3,0.1-0.5,0.1          c-1.9,0-3-0.3-5.2,0.4c1.5-3.5,0.8-6.2-0.2-9.9c-3.1-10.6-1.5-8.1-3.4-17.3c0.5-1.1,1.3-0.8,1.3-0.8c0.8,0.3,1,1,1.2,1.5          c0.1-0.9-1.4-4.1-2.7-6c1.2-0.1,1.7-0.6,3.3,2.3c1.5,2.4,3.3,3.5,2.8,6.2c-0.4,1.9-0.8,4.4-0.8,4.8          c-0.3,3.6,0.4,5.4,0.7,6.3C55.7,70.8,59,77.1,58.3,80.8z"/>
    <path class="st4" d="M41.2,76.4c0,0,0.1,0.1,0.1,0.2c0.9,1.1,2.6,1.9,3.7,0.9c0.7-0.6,1.3-1.9,1.6-2.6          c0.3-0.8,0.5-1.3,0.5-1.3l0.1-0.1l-0.2,0c-1.9,0.1-3-0.7-4-1.4l-0.1,0l-0.1,0.2C42,74.5,40.4,75.5,41.2,76.4z M46.3,74.5          c-1.4-0.1-2.3-0.3-3.6-1.3l0,0c0.1-0.3,0.2-0.5,0.3-0.8c1.3,1,2.6,1.4,3.7,1.3C46.6,73.9,46.5,74.1,46.3,74.5z M41.9,76.8          c-0.1-0.1-0.2-0.3-0.4-0.5c-0.6-0.7,0.4-1.5,1-2.9c1,0.9,2.3,1.3,3.7,1.3C45.1,77.1,44.3,78.6,41.9,76.8z"/>
    <path class="st5" d="M42.7,72.5c0.3,0,0.8-0.7,0.6-1.6c0.3-0.5,0.3-0.4,0.5-0.8c0.1-0.4-0.1-0.5-0.1-0.8c0,0,0,0,0,0         c-0.1-0.5-1.2-1-1.6-1.2c-2.2-1-2-0.7-3.6-0.1c-0.1,0.3,0,0-0.5,1.4l-0.6,1.3C42.3,75,41.1,72.6,42.7,72.5z"/>
    <path class="st2" d="M36.7,70.9c0.8,0.7,1.3,1.1,1.9,1.6c3.3,2.6,3.4,0.6,4,0.6c1.1-0.1,1.3-1.4,1.2-2c0.4-0.5,0.5-1,0.3-1.6         c-0.1-0.4-0.1-0.9-2-1.8c-2.3-1-2.3-0.6-3.9,0l0,0.1C38,67.9,37.6,68.9,36.7,70.9z M37.2,70.7l0.6-1.3         c0.6-1.4,0.5-1.1,0.5-1.4c1.7-0.6,1.4-0.9,3.6,0.1c0.4,0.2,1.5,0.7,1.6,1.2c0,0,0,0,0,0c0,0.3,0.2,0.4,0.1,0.8         c-0.1,0.4-0.1,0.3-0.5,0.8c0.2,0.9-0.2,1.6-0.6,1.6C41.1,72.6,42.3,75,37.2,70.7z"/>
    <path class="st6" d="M35.2,69.6c0.1-0.1,0.2-0.1,0.2-0.1c0.6-0.3,1.4-1.7,1.4-2.7c-1.5-1.1-3.4-3.5-6.2-6.1l-0.3-0.5         c0.5,0.4,1.4,1.1,1.8,1.5c-0.2-1.1-0.9-1.9-1.3-2.9c0.2,0.3,1.4,1.9,1.7,2.7c0.1-0.1,0.2-0.2,0.2-0.2         c1.9-1.6,4.7-2.5,7.2-2.8c1.9-0.1,2-4.1,0.7-6.3c-1.5-2.7-4.1-0.8-8.7,3.5c-4.1,3.9-5.5,6.5-5.3,7         C29.8,66.5,31.7,67.6,35.2,69.6z"/>
    <path class="st6" d="M36.8,70.6c1.2,0,1.5-2.1,1.4-3.2c-0.4,0-0.8-0.1-1.2-0.4c0.1,1-0.6,2.3-1.5,2.8         C35.9,70,36.4,70.3,36.8,70.6z"/>
    <path class="st2" d="M36.8,71.1c0.4,0,2.2-0.6,1.8-4.1c-1.5,0.2-2.3-1.5-6.1-4.9c0.1-0.1,0.2-0.2,0.4-0.4         c2-1.6,4.7-2.4,6.9-2.6c2.3-0.1,2.6-4.4,1.1-7.1c-2.6-4.5-9.6,3.7-12.4,6.9c-1.6,2.2-2.1,2.6-2.2,3.5l0,0.4         C28.9,66.9,35.9,70.9,36.8,71.1z M35.5,69.8c1-0.6,1.6-1.8,1.5-2.8c0.4,0.3,0.8,0.4,1.2,0.4c0.2,1.1-0.2,3.2-1.4,3.2         C36.4,70.3,35.9,70,35.5,69.8z M26.8,62.9c-0.2-0.5,1.2-3.1,5.3-7c4.6-4.3,7.1-6.2,8.7-3.5c1.3,2.2,1.2,6.2-0.7,6.3         c-2.4,0.2-5.3,1.2-7.2,2.8c0,0-0.1,0.1-0.2,0.2c-0.2-0.8-1.4-2.4-1.7-2.7c0.4,1,1.1,1.7,1.3,2.9c-0.4-0.4-1.3-1.1-1.8-1.5         l0.3,0.5c2.8,2.6,4.7,5,6.2,6.1c0,1-0.8,2.3-1.4,2.7c0,0-0.1,0.1-0.2,0.1C31.7,67.6,29.8,66.5,26.8,62.9z"/>
    <path class="st5" d="M39.9,32.8c0.3-0.2,3.2-0.5,5.6-3.2c-3.7,2.6-8,2.2-9.1,5.2c-0.2,0.5-0.3,1-0.3,1.5        c-0.1,2,0.3,2.4,1.4,3.6l0,0c0,0,0,0,0,0c-0.3,0.2-2-1.1-2.8-2.3c-0.3-0.2-0.5-0.4-0.9-0.4c-1.8,0.2-1.7,3.3,0.9,4.4        c0.2,0.1,0.6-0.3,0.8-0.6c0,0,0,0.2-0.1,0.4c2.9,3.5,5.7,6.2,10,5.6c7.1-1.6,6.6-9.3,6.8-10.3c0.1-0.8,0.2-1.5,0.3-2.2        c0.6-4.1-0.5-4.9-1.2-5.9c-0.3,1.5-0.5,2.1-1.5,3.4c-0.9,1-1.1,1-2.5,1.8c1.1-1.5,1.5-2,1.9-3.2c-0.8,1-1.8,1.7-2.9,2.2        c-1.1,0.4-1.1,0.4-1.9,0.5C42.4,33.5,40.4,33.2,39.9,32.8z"/>
    <path class="st6" d="M47.1,38.8c0.3,0.3,2.7,1.5,3.9-1.8c-1.2-0.9-1.7-1.2-2.5-0.7C47.7,36.9,46.5,37.4,47.1,38.8z"/>
    <path class="st14" d="M48.7,36.5c0.5,0,0.9,0.6,0.9,1.2c0,0.6-0.5,1-1,1c-0.5,0-0.9-0.6-0.9-1.2          C47.7,36.9,48.2,36.5,48.7,36.5z"/>
    <path class="st12" d="M48.6,37.4c-0.4,0-0.7,0-1,0.2c0,0,0-0.1,0-0.1c0-0.7,0.6-1.2,1.2-1.1c0.6,0.1,1.1,0.6,1,1.3           c0,0.1,0,0.1,0,0.2C49.4,37.6,49,37.5,48.6,37.4z"/>
    <path class="st2" d="M47.4,37.5c-0.1,0.7,0.4,1.4,1.1,1.4c0.7,0.1,1.2-0.5,1.3-1.2c0.1-0.7-0.4-1.4-1.1-1.4           C48.1,36.2,47.5,36.8,47.4,37.5z M47.7,37.5c0-0.6,0.5-1,1-1c0.5,0,0.9,0.6,0.9,1.2c0,0.6-0.5,1-1,1           C48,38.6,47.6,38.1,47.7,37.5z"/>
    <path class="st2" d="M48.1,37.6c0,0.3,0.2,0.6,0.5,0.6c0.3,0,0.5-0.2,0.6-0.5c0-0.3-0.2-0.6-0.5-0.6          C48.4,37,48.1,37.3,48.1,37.6z"/>
    <path class="st6" d="M48.6,37.3c0,0.3,0.2,0.5,0.4,0.5c0.2,0,0.4-0.2,0.5-0.4c0-0.3-0.2-0.5-0.4-0.5          C48.8,36.9,48.6,37.1,48.6,37.3z"/>
    <path class="st6" d="M47.8,38.2c0.1,0.2,0.3,0.4,0.4,0.3c0.1-0.1,0.1-0.3,0-0.5c-0.1-0.2-0.3-0.4-0.4-0.3          C47.7,37.7,47.7,38,47.8,38.2z"/>
    <path class="st2" d="M47.1,37.7c-0.1,0.1-0.2,0.2-0.2,0.2c-0.2-0.9,2.8-3.7,4-0.9l0,0.1c-0.1,2.3-2.3,2.6-3.1,2.1l0,0         c1.1,0.2,2.6-0.3,2.7-1.9c0,0,0-0.1-0.1-0.2C50.1,36.3,48.9,35.8,47.1,37.7z"/>
    <path class="st2" d="M46.8,41.2c-0.4,0.4-1.2,0.4-1.5,0.3l0.1-0.1c0.7-0.1,1.3-0.6,1.3-0.8c-1.2-2.2-1-3.4-0.6-4.3l0.1-0.1         c-0.2,0.9-0.5,2,0.9,4.2C47.1,40.5,47.1,40.9,46.8,41.2z"/>
    <path class="st2" d="M44.4,39.9l0,0.1c-0.8,0.3-0.1,1.2,0.2,1.4l0,0C43.7,41.3,43.4,39.9,44.4,39.9z"/>
    <path class="st2" d="M38.1,35c1.5-1.7,4-0.7,5,1.8C40.7,34.1,39.4,34.2,38.1,35z"/>
    <path class="st2" d="M47.1,35.6c1.8-1.9,3.6-2,4.3-0.2C50.4,34.4,49.7,34.2,47.1,35.6z"/>
    <path class="st2" d="M42.5,37.9c-0.4-0.1-0.8-0.2-1.2-0.3c-0.4-0.1-0.8-0.2-1.1-0.2c-0.4,0-0.8-0.1-1.2-0.1         c-0.4,0-0.8,0-1.3,0.1c0.3-0.4,0.7-0.6,1.1-0.8c0.4-0.1,0.9-0.2,1.4-0.1c0.5,0.1,0.9,0.2,1.3,0.5         C42,37.1,42.3,37.5,42.5,37.9z"/>
    <path class="st2" d="M41.8,38c-0.3,0-0.5,0-0.8,0c-0.3,0-0.5,0-0.8,0c0.2-0.2,0.5-0.3,0.8-0.3C41.3,37.8,41.6,37.8,41.8,38z"/>
    <path class="st2" d="M31.6,41.8C31.6,41.8,31.6,41.8,31.6,41.8c0,0,0-0.1,0-0.1c0-0.2,0-0.2-0.1-0.4c-0.1-0.2-0.2-0.4,0-0.5        c-0.3-0.6-0.5-1.1-1-2c-1.2-2.8-1.2-5.8-0.1-7.6c0.6-1,1.4-1.5,2.3-2c2.2-1.2,2.4-5.3,6.9-6.6c4.7-1.3,9.6,1.4,9.8,2.4        c2.1-0.4,3.3,1.1,4.3,3.2c0.5,1,0.9,2.2,1.2,3.4c1.2,4.9-0.1,4-2.3,7.4c0-0.1,0-0.8,0-0.9c0.4-0.3,1.8-1.9,2-4.5        c0,0-0.6,2.5-2,3.9c0-0.4,0.1-0.6,0.1-0.9c0.5-0.5,2-3.9,0.7-6.2c-0.1,0.8,0.8,1.8-0.5,5.1c0.4-2.8,0.5-5.6-1.8-7.3        c-0.1,1.5-1.5,4.1-2.7,4.8c0.6-0.9,1-1.6,1.1-2.7c0.7-1.2,1-2.4,0.7-3.9c-0.3,0.9,0.7,5.1-5.9,6.7c-1,0.1-1.8,0.2-3.5,0        c3.1-0.7,6-3.1,7.2-7.3c-0.5,0.4-0.9,2.3-2.6,3.6c-3.1,2.3-6.6,2.2-8.5,4c-0.4,0.4-0.8,0.9-1,1.4c-0.4,1-0.5,2.8,0,3.9        c-1.8-1.8-2.5-4.1-2.2-6.2c0-0.3,0.1-0.9,0.1-0.9c-0.8,1.4-0.4,4.1,0.5,5.7c-2.2-1.1-3.5,2.6-0.6,4.7c0.8,0.5,1,0.3,1.3,0        c1.4,1.8,2,2.4,2.8,3.2c5.3,5.4,13.4,2.2,14.5-4.9c0.6-1.1,1.8-2.2,2.6-3.4c1.2-1.8,1-3.1,0.4-5.5c-0.8-3.1-2.7-7.2-5.7-6.9        c-3.3-2.9-9.4-4-13.2-0.8c-2,1.7-2.6,3.9-3.6,4.8c-0.7,0.5-2.1,0.9-3,2.4c-0.6,1-0.8,2.1-0.9,3.1        C28.6,37.9,30.9,41.2,31.6,41.8z M52.5,34.5c-0.1,0.7-0.2,1.5-0.3,2.2c-0.2,1,0.3,8.6-6.8,10.3c-4.3,0.6-7.1-2.1-10-5.6        c0.1-0.2,0.1-0.4,0.1-0.4c-0.2,0.3-0.5,0.7-0.8,0.6c-2.6-1.1-2.7-4.2-0.9-4.4c0.4,0,0.7,0.1,0.9,0.4c0.8,1.2,2.5,2.4,2.8,2.3        c0,0,0,0,0,0l0,0c-1.2-1.2-1.5-1.6-1.4-3.6c0-0.5,0.1-1,0.3-1.5c1.2-3,5.4-2.6,9.1-5.2c-2.4,2.7-5.3,3-5.6,3.2        c0.6,0.3,2.6,0.7,4.5,0.5c0.8-0.1,0.8-0.1,1.9-0.5c1.1-0.5,2.1-1.2,2.9-2.2c-0.4,1.2-0.8,1.7-1.9,3.2c1.4-0.8,1.6-0.8,2.5-1.8        c1-1.3,1.2-1.9,1.5-3.4C52,29.6,53.1,30.4,52.5,34.5z"/>
    <path class="st2" d="M34.5,37.9c-1.4-0.6-2.1,1.2-0.6,2.5c1.3,0.7,1.5-0.1,1.5-0.1l-0.1,0c-0.4,0.8-1.9,0-2-1.3c0,0,0,0,0,0        c0.1-0.6,0.2-0.6,0.5-0.9C34.1,37.9,34.1,37.9,34.5,37.9L34.5,37.9z"/>
    <path class="st31" d="M45,45.4c1.6,0,1.5-1.1,1.4-1.4c0,0,0,0,0-0.1c0.6-1.1-0.9-1.5-1.6-1.2c-0.1-0.1-0.2-0.2-0.4-0.2         c-1.6-0.6-2,0.8-2.9,0.5c-0.3-0.1-0.3-0.1-0.4,0C42.2,44.5,42.8,45.4,45,45.4z"/>
    <path class="st6" d="M41.9,43.4c1.2,1,2.4,1.4,3.7,1.2C46.2,44.5,46,44,46,44c0.3-0.5-0.6-0.6-1.2-0.6         C43.6,42.9,42.8,43.6,41.9,43.4z"/>
    <path class="st13" d="M45.5,44.9c0,0.1,0.1,0.1,0.2,0.1c0.1,0,0.2-0.1,0.2-0.2c0-0.1-0.1-0.1-0.2-0.1         C45.6,44.7,45.5,44.8,45.5,44.9z"/>
    <path class="st2" d="M41.3,43c-0.1,0.1-0.2,0.3-0.3,0.8c0-0.2-0.1-0.5,0.2-0.9c0.1-0.2,0.2-0.3,0.4-0.4c0,0,0.2-0.1,0.2,0         C41.8,42.4,41.5,42.7,41.3,43z"/>
    <path class="st14" d="M65.3,38.3c0.5-0.3,1.1-0.4,1.6-0.5c1.5-0.3,3-0.3,4.4,0.3c0.6,0.2,1.9,0.5,1.9,0.5        c0.1,0.1,0.2,0.2,0.2,0.3c0.1,0.2,0.1,0.4,0.2,0.5c0.1,0.2,0,0.4-0.1,0.5c-0.3,0.3-0.6,0.7-0.9,1c0,0.1-0.1,0.1-0.1,0.2        c-0.2,0.6-0.4,1.1-0.7,1.5c-0.5,0.6-0.4,1.2-0.1,1.8c0,0.1,0.1,0.2,0.1,0.2c0.1,0.1,0.1,0.2,0.1,0.4c0,0.2,0,0.3,0,0.5        c-0.1,0.6,0.2,1,0.5,1.5c0.5,1.1,1.1,2.3,1.5,3.5c0.2,0.7,0.4,1.4,0.5,2.1c0.1,0.7,0.3,1.5,0.7,2.1c0.1,0.1,0.2,0.2,0.1,0.4        c0,0,0,0.1,0.1,0.1c0.5,0.8,0.9,1.6,1.4,2.4c0.5,0.8,1,1.6,1.6,2.4c0.1,0.2,0.3,0.5,0.5,0.7c-0.3,0.3-0.6,0.6-1,0.9        c-0.1,0.1-0.1,0.1-0.2,0c0,0-0.1-0.1-0.1-0.1c-0.1-0.2-0.2-0.3-0.3-0.5c-0.5-0.7-0.9-1.5-1.4-2.2c-0.5-0.8-0.9-1.5-1.4-2.3        c-0.1-0.2-0.2-0.3-0.3-0.5c-0.1-0.1-0.2-0.1-0.3-0.3c-0.1-0.2-0.3-0.4-0.4-0.6c-0.4-0.7-0.9-1.3-1.5-1.8        c-0.4-0.4-0.8-0.8-1.1-1.3c-0.3-0.5-0.7-1-1-1.5c-0.4-0.6-0.7-1.3-1-2c-0.3-0.7-0.6-1.3-0.9-2c-0.1-0.4-0.4-0.6-0.8-0.7        c-0.7-0.1-1.3-0.4-1.9-0.7c-0.1-0.1-0.2-0.1-0.3-0.2c-0.4-0.1-0.6-0.4-0.7-0.8c-0.3-0.8-0.5-1.7-0.7-2.6        c0-0.3-0.1-0.6-0.1-0.9c0-0.4,0.2-0.8,0.5-1.2C64,39.3,65,38.5,65.3,38.3z"/>
    <path class="st2" d="M77.5,61.7C77.5,61.7,77.5,61.7,77.5,61.7c-0.2,0-0.2-0.1-0.2-0.2c0,0,0,0,0,0l-0.1-0.1        c0-0.1-0.1-0.2-0.2-0.3c0,0-0.1-0.1-0.1-0.1c-0.3-0.5-0.6-1-0.9-1.5l-0.5-0.7c-0.5-0.8-1-1.6-1.4-2.3        c-0.1-0.1-0.1-0.2-0.2-0.3l-0.1-0.2c0,0,0,0-0.1-0.1c-0.1,0-0.2-0.1-0.2-0.2c-0.1-0.1-0.1-0.2-0.2-0.4        c-0.1-0.1-0.1-0.2-0.2-0.3c-0.4-0.7-0.9-1.3-1.4-1.7C71.4,53,71,52.6,70.7,52c-0.1-0.2-0.2-0.3-0.3-0.5        c-0.2-0.3-0.5-0.7-0.7-1c-0.3-0.5-0.6-1.1-0.9-1.7l-0.2-0.4c-0.3-0.6-0.6-1.3-0.9-2.1c-0.1-0.3-0.3-0.5-0.7-0.6        c-0.6-0.1-1.2-0.3-1.9-0.8L65,45c-0.1,0-0.1-0.1-0.2-0.1c-0.4-0.2-0.6-0.4-0.8-0.9l-0.1-0.2c-0.2-0.8-0.5-1.6-0.6-2.4        c0-0.3-0.1-0.6-0.1-0.9c0-0.5,0.2-0.9,0.5-1.3c0.1-0.1,1.2-0.9,1.4-1.1h0c0.5-0.3,1.1-0.4,1.7-0.5c1.7-0.3,3.2-0.2,4.5,0.3        c0.5,0.2,1.7,0.5,1.8,0.5l0.1,0l0,0.1l0.3,0.3l0.1,0.2c0,0.1,0.1,0.2,0.1,0.4c0.1,0.3,0,0.5-0.2,0.7c-0.2,0.2-0.3,0.3-0.5,0.5        c-0.2,0.2-0.3,0.3-0.5,0.5c0,0,0,0.1-0.1,0.1c-0.2,0.7-0.4,1.2-0.8,1.6c-0.4,0.5-0.4,1-0.1,1.6c0,0.1,0.1,0.1,0.1,0.2        C72,44.7,72,44.8,72,45c0,0.1,0,0.1,0,0.2c0,0.1,0,0.2,0,0.2c0,0.4,0.1,0.8,0.3,1.1c0,0.1,0.1,0.2,0.1,0.3        c0.1,0.3,0.3,0.6,0.4,0.9c0.4,0.8,0.8,1.7,1.1,2.6c0.2,0.7,0.4,1.4,0.5,2.1c0.1,0.8,0.4,1.5,0.7,2c0,0,0,0,0,0.1        c0.1,0.1,0.2,0.2,0.1,0.4c0,0,0,0,0,0l0,0c0.5,1,1,1.7,1.4,2.4c0.5,0.8,1,1.6,1.6,2.4l0.1,0.1c0.1,0.2,0.2,0.4,0.4,0.6        l0.1,0.1L78.4,61c-0.2,0.2-0.5,0.4-0.7,0.6C77.7,61.6,77.6,61.7,77.5,61.7z M77.5,61.3C77.5,61.3,77.5,61.3,77.5,61.3        c0.2-0.2,0.4-0.4,0.7-0.6l0.1-0.1c-0.1-0.1-0.2-0.3-0.3-0.5L77.9,60c-0.5-0.8-1-1.6-1.6-2.4c-0.4-0.7-0.9-1.4-1.4-2.4        c0-0.1-0.1-0.2-0.1-0.3c0,0,0-0.1-0.1-0.2c0,0,0,0,0-0.1c-0.4-0.6-0.6-1.3-0.7-2.1c-0.1-0.7-0.2-1.4-0.5-2        c-0.3-0.9-0.7-1.7-1.1-2.5c-0.1-0.3-0.3-0.6-0.4-0.9c0-0.1-0.1-0.2-0.1-0.3c-0.2-0.4-0.4-0.8-0.3-1.3c0-0.1,0-0.1,0-0.2        c0-0.1,0-0.2,0-0.3c0-0.1,0-0.2-0.1-0.3c-0.1-0.1-0.1-0.2-0.2-0.3c-0.3-0.6-0.5-1.2,0.1-1.9c0.3-0.4,0.5-0.8,0.7-1.5        c0-0.1,0.1-0.2,0.1-0.2c0.2-0.2,0.3-0.3,0.5-0.5c0.2-0.2,0.3-0.3,0.5-0.5c0.1-0.1,0.1-0.2,0.1-0.3c0-0.1-0.1-0.2-0.1-0.4        l0-0.1L73,38.7c-0.3-0.1-1.4-0.3-1.8-0.5c-1.2-0.5-2.6-0.6-4.3-0.3c-0.5,0.1-1.1,0.2-1.6,0.5l0,0c-0.2,0.1-1.2,0.9-1.3,1        c-0.3,0.3-0.4,0.7-0.4,1c0,0.3,0,0.6,0.1,0.8c0.1,0.8,0.4,1.6,0.6,2.4l0.1,0.2c0.1,0.4,0.3,0.6,0.6,0.7c0.1,0,0.2,0.1,0.3,0.1        l0.1,0c0.7,0.4,1.2,0.6,1.8,0.7c0.5,0.1,0.8,0.3,1,0.8c0.3,0.8,0.6,1.4,0.9,2l0.2,0.4c0.3,0.5,0.5,1.1,0.9,1.6        c0.2,0.3,0.4,0.7,0.7,1c0.1,0.2,0.2,0.3,0.3,0.5c0.3,0.5,0.7,0.9,1.1,1.3c0.6,0.5,1.1,1.1,1.5,1.8c0,0.1,0.1,0.2,0.2,0.2        c0.1,0.1,0.2,0.3,0.2,0.4c0,0,0,0,0.1,0.1c0.1,0,0.1,0.1,0.2,0.2l0.1,0.2c0.1,0.1,0.1,0.2,0.2,0.3c0.4,0.7,0.9,1.5,1.3,2.3        l0.5,0.7c0.3,0.5,0.6,1,0.9,1.5c0,0,0.1,0.1,0.1,0.1C77.4,61,77.5,61.1,77.5,61.3z M75.2,55C75.2,55,75.2,55,75.2,55        C75.2,55,75.2,55,75.2,55z"/>
    <path class="st1" d="M70.6,42.1c0.3,0,0.5-0.1,0.8-0.2c0,0,0.1-0.1,0.1,0c0,0,0,0.1,0,0.1c-0.1,0.5-0.3,0.9-0.5,1.4        c0,0.1-0.1,0.1-0.1,0.1c-0.4,0.2-0.6,0.7-0.5,1.1c0.1,0.4,0.3,0.8,0.4,1.1c0.1,0.2,0.3,0.2,0.5,0.2c0.3,0,0.3,0,0.2,0.3        c0,0.4,0.1,0.6,0.2,0.9c0.3,0.6,0.6,1.1,0.9,1.7c0.4,0.8,0.7,1.6,1,2.4c0.1,0.5,0.2,0.9,0.3,1.4c0,0.1,0,0.2-0.1,0.2        c-0.4,0.3-0.8,0.5-1.2,0.6c-0.1,0-0.1,0-0.1,0c-0.4-0.4-0.8-0.7-1.1-1.2c-0.4-0.6-0.9-1.2-1.3-1.8c-0.8-1.3-1.5-2.8-2-4.2        c-0.1-0.4-0.4-0.6-0.8-0.7c-0.6-0.1-1.2-0.3-1.8-0.7c-0.3-0.2-0.5-0.3-0.8-0.4c-0.1,0-0.1-0.1-0.2-0.2c-0.4-1-0.7-2-0.8-3.1        c0-0.2,0-0.5,0-0.7c0-0.5,0.2-0.8,0.5-1.1c0.1-0.1,0.1-0.1,0.2-0.1c0.7-0.2,1.5-0.3,2.2-0.3c1.3-0.1,2.6,0,3.8,0.3        c0.1,0,0.1,0.1,0.2,0.2c0.3,0.8,0.3,1.7,0.1,2.5C70.6,42,70.6,42,70.6,42.1C70.5,42.1,70.6,42.1,70.6,42.1z"/>
    <path class="st2" d="M72.5,53.8c-0.1,0-0.1,0-0.2-0.1l-0.1-0.1c-0.4-0.3-0.7-0.7-1-1.1c-0.5-0.7-0.9-1.3-1.3-1.9        c-0.8-1.3-1.5-2.8-2.1-4.3c-0.1-0.3-0.4-0.5-0.7-0.6c-0.6-0.1-1.2-0.3-1.8-0.7c-0.2-0.1-0.4-0.2-0.5-0.3l-0.2-0.1        c-0.1,0-0.2-0.1-0.2-0.2c-0.4-1-0.7-2-0.9-3.2c0-0.2,0-0.5,0-0.8c0-0.6,0.3-1,0.6-1.3c0.1-0.1,0.2-0.1,0.3-0.1l0,0        c0.7-0.2,1.5-0.3,2.3-0.3c1.3-0.1,2.6,0,3.9,0.3c0.2,0,0.3,0.1,0.3,0.3c0.3,0.8,0.3,1.6,0.1,2.6c0.2,0,0.3-0.1,0.5-0.2        c0.1-0.1,0.2-0.1,0.3,0c0.1,0,0.1,0.1,0.1,0.3c-0.1,0.5-0.3,1-0.5,1.4l0,0c-0.1,0.1-0.2,0.2-0.2,0.2c-0.3,0.2-0.5,0.6-0.4,0.9        c0.1,0.4,0.2,0.7,0.4,1.1c0,0.1,0.1,0.1,0.3,0.1c0.2,0,0.3,0,0.4,0.1c0.1,0.1,0.1,0.2,0.1,0.4c0,0.3,0.1,0.5,0.2,0.8        c0.1,0.3,0.3,0.5,0.4,0.8c0.2,0.3,0.3,0.6,0.5,1c0.3,0.7,0.7,1.5,1,2.4c0.1,0.5,0.2,1,0.3,1.4c0,0.2,0,0.3-0.2,0.4        c-0.4,0.3-0.8,0.5-1.3,0.7C72.5,53.8,72.5,53.8,72.5,53.8z M67.2,39.1c-0.2,0-0.5,0-0.7,0c-0.8,0-1.5,0.1-2.2,0.3        c0,0,0,0-0.1,0c0,0-0.1,0-0.1,0c-0.3,0.4-0.5,0.7-0.5,1c0,0.3,0,0.5,0,0.7c0.1,1.1,0.5,2.1,0.8,3.1c0,0,0,0,0.1,0.1l0.2,0.1        c0.2,0.1,0.4,0.2,0.5,0.3c0.6,0.4,1.2,0.6,1.7,0.6c0.5,0.1,0.8,0.3,1,0.8c0.6,1.5,1.3,2.9,2,4.2c0.3,0.6,0.7,1.1,1.2,1.8        c0.3,0.4,0.6,0.7,1,1l0.1,0.1c0.4-0.1,0.8-0.3,1.2-0.6c0,0,0,0,0-0.1c-0.1-0.5-0.2-0.9-0.3-1.4c-0.2-0.8-0.5-1.5-1-2.4        c-0.2-0.3-0.3-0.6-0.5-0.9c-0.1-0.3-0.3-0.5-0.4-0.8c-0.1-0.3-0.3-0.6-0.2-1c0,0,0-0.1,0-0.1c0,0,0,0-0.1,0        c-0.2,0-0.5,0-0.7-0.3c-0.2-0.4-0.4-0.8-0.5-1.2c-0.1-0.5,0.2-1.1,0.6-1.3c0,0,0,0,0,0l0,0c0.2-0.4,0.3-0.7,0.4-1.1        c-0.2,0.1-0.4,0.2-0.6,0.2l-0.2,0l0-0.2l0.2,0l-0.2,0l0,0l0-0.1c0,0,0-0.1,0-0.1c0.2-0.9,0.2-1.7-0.1-2.4c0,0,0,0,0,0        C69.3,39.2,68.3,39.1,67.2,39.1z"/>
    <path class="st1" d="M74,55.7c0.4-0.1,0.7-0.3,0.9-0.6c0.1-0.1,0.1,0,0.1,0c0.2,0.3,0.4,0.7,0.6,1c0.2,0.4,0.5,0.8,0.7,1.2        c0.2,0.4,0.5,0.8,0.7,1.2c0.2,0.3,0.4,0.6,0.6,1c0.2,0.3,0.5,0.7,0.7,1c0,0.1,0,0.1,0,0.1c-0.3,0.2-0.5,0.5-0.8,0.7        c-0.1,0.1-0.1,0-0.1,0c-0.2-0.3-0.4-0.6-0.6-0.9c-0.2-0.4-0.5-0.8-0.7-1.2c-0.3-0.5-0.6-0.9-0.8-1.4        C74.9,57.2,74.5,56.4,74,55.7z"/>
    <path class="st2" d="M77.5,61.6C77.5,61.6,77.5,61.6,77.5,61.6c-0.1,0-0.2-0.1-0.2-0.1l-0.7-1.1c-0.2-0.3-0.4-0.7-0.6-1        c-0.2-0.3-0.3-0.5-0.5-0.8l-0.4-0.6c-0.2-0.3-0.4-0.7-0.6-1c-0.2-0.4-0.5-0.8-0.7-1.2l-0.1-0.2l0.2-0.1        c0.3-0.1,0.6-0.3,0.8-0.6c0.1-0.1,0.2-0.1,0.2-0.1c0.1,0,0.2,0.1,0.2,0.2l0.2,0.4c0.1,0.2,0.2,0.4,0.4,0.6        c0.2,0.4,0.5,0.8,0.7,1.2c0.2,0.4,0.5,0.8,0.7,1.2c0.2,0.3,0.4,0.6,0.6,1c0.2,0.3,0.5,0.7,0.7,1c0.1,0.2,0,0.3,0,0.4        c-0.3,0.2-0.5,0.5-0.8,0.7C77.7,61.6,77.6,61.6,77.5,61.6z M74.3,55.8c0.2,0.4,0.4,0.7,0.6,1.1c0.2,0.3,0.4,0.7,0.6,1l0.4,0.6        c0.2,0.3,0.3,0.5,0.5,0.8c0.2,0.3,0.4,0.7,0.6,1l0.6,1c0.2-0.2,0.5-0.4,0.7-0.6c-0.2-0.3-0.4-0.6-0.7-1        c-0.2-0.3-0.4-0.6-0.6-1c-0.2-0.4-0.5-0.8-0.7-1.2c-0.3-0.4-0.5-0.8-0.7-1.2c-0.1-0.2-0.2-0.4-0.4-0.6l-0.2-0.3        C74.7,55.5,74.5,55.6,74.3,55.8z"/>
    <path class="st15" d="M70.6,39.2c0.2-0.2,0.4-0.4,0.7-0.5c0.1-0.1,0.3-0.1,0.4-0.2c0.1,0,0.1,0,0.2,0c0.3,0.1,0.6,0.1,0.9,0.2        c0.1,0,0.1,0.1,0,0.1c-0.2,0.1-0.3,0.3-0.5,0.4c0.1,0,0.1,0.1,0.1,0.2c0,0.4,0.2,0.7,0.4,1c0,0.1,0.1,0,0.1,0.1        c0,0,0,0.1,0.1,0c-0.3,0.3-0.2,0.3-0.5,0.5c-0.3,0.3-0.6,0.5-0.9,0.8c-0.3,0.2-0.6,0.3-0.9,0.4c-0.1,0-0.1-0.1-0.1-0.1        c0.1-0.4,0.1-0.9,0.1-1.3c0-0.4-0.1-0.8-0.2-1.1C70.5,39.3,70.6,39.2,70.6,39.2z"/>
    <path class="st2" d="M70.6,42.2c-0.1,0-0.1,0-0.1-0.1c-0.1-0.1,0-0.2,0-0.2c0.1-0.4,0.1-0.9,0.1-1.3c0-0.4-0.1-0.8-0.2-1.1        c0-0.1,0-0.2,0-0.3l-0.1,0l0.1-0.2c0.2-0.3,0.5-0.4,0.7-0.6c0.1-0.1,0.2-0.1,0.4-0.2l0.1,0c0.1,0,0.2-0.1,0.3,0l0.4,0.1        c0.2,0,0.3,0.1,0.5,0.1c0.1,0,0.2,0.1,0.2,0.2c0,0,0,0.1-0.1,0.2c-0.1,0-0.2,0.1-0.2,0.2c0,0-0.1,0.1-0.1,0.1c0,0,0,0.1,0,0.1        c0,0.3,0.2,0.6,0.4,0.9c0,0,0.1,0,0.1,0l0.4-0.1L73,40.4c-0.1,0.2-0.2,0.2-0.3,0.3c0,0.1-0.1,0.1-0.2,0.2        c-0.2,0.2-0.4,0.4-0.7,0.6c-0.1,0.1-0.2,0.2-0.3,0.2C71.4,42,71.1,42.1,70.6,42.2C70.7,42.2,70.7,42.2,70.6,42.2z M70.7,39.2        C70.7,39.2,70.7,39.3,70.7,39.2c0,0.1-0.1,0.2,0,0.3c0.1,0.4,0.2,0.8,0.2,1.2c0,0.4,0,0.9-0.1,1.3c0.3-0.1,0.5-0.2,0.7-0.3        c0.1-0.1,0.2-0.2,0.3-0.2c0.2-0.2,0.4-0.4,0.6-0.6c0.1-0.1,0.1-0.1,0.2-0.2c0.1-0.1,0.1-0.1,0.2-0.2c0,0,0,0-0.1-0.1        c-0.2-0.3-0.4-0.7-0.4-1.1c0-0.1,0-0.1,0-0.1L72,39.1l0.2-0.1c0.1,0,0.1-0.1,0.2-0.2c0,0,0.1-0.1,0.1-0.1        c-0.1,0-0.2,0-0.3-0.1l-0.4-0.1c0,0-0.1,0-0.1,0l-0.1,0c-0.1,0.1-0.2,0.1-0.4,0.2C71.1,38.9,70.9,39,70.7,39.2z"/>
    <path class="st16" d="M71.7,45.6c0,0.6,0.3,1.1,0.6,1.6c0.6,1.3,1.3,2.5,1.6,3.9c0.1,0.4,0.2,0.8,0.2,1.2c0,0.3,0,0.3-0.2,0.4       c-0.1-0.3-0.1-0.5-0.2-0.8c-0.2-1-0.6-2-1.1-2.9c-0.4-0.7-0.7-1.4-1.1-2.1c-0.1-0.2-0.1-0.4-0.1-0.7c0-0.1,0-0.1,0-0.2       C71.5,45.8,71.6,45.7,71.7,45.6z"/>
    <path class="st2" d="M73.8,53l-0.2-1c-0.2-0.9-0.5-1.8-1-2.9c-0.1-0.3-0.3-0.5-0.4-0.8c-0.2-0.5-0.5-0.9-0.7-1.4       c-0.1-0.2-0.2-0.5-0.1-0.8l0-0.1c0,0,0-0.1,0-0.1c-0.1-0.3,0.1-0.4,0.2-0.5l0.2-0.2l0,0.3c0,0.4,0.2,0.8,0.4,1.1       c0.1,0.1,0.1,0.2,0.2,0.4c0.1,0.3,0.3,0.6,0.4,0.8c0.5,1,0.9,2,1.2,3.1c0.1,0.4,0.2,0.8,0.2,1.2c0,0.3,0,0.4-0.3,0.6L73.8,53z        M71.7,46.2C71.7,46.2,71.7,46.2,71.7,46.2L71.7,46.2c0,0.3,0,0.5,0.1,0.7c0.2,0.5,0.5,0.9,0.7,1.4c0.1,0.3,0.3,0.5,0.4,0.8       c0.5,1.1,0.9,2,1.1,3l0.1,0.6c0,0,0-0.1,0-0.2c0-0.4-0.1-0.8-0.2-1.2c-0.3-1.1-0.8-2.1-1.2-3.1c-0.1-0.3-0.3-0.6-0.4-0.8       C72.1,47.1,72,47,72,46.9C71.9,46.6,71.7,46.4,71.7,46.2z"/>
    <path class="st16" d="M72.4,41.1c-0.1,0.5-0.3,0.9-0.6,1.3c-0.2,0.3-0.4,0.6-0.6,0.9c-0.1,0.1-0.2,0.1-0.3,0.2        c0.1-0.3,0.2-0.6,0.3-0.9c0.1-0.2,0.2-0.5,0.2-0.7c0-0.1,0-0.1,0.1-0.2C71.9,41.5,72.1,41.3,72.4,41.1z"/>
    <path class="st2" d="M70.7,43.7l0.2-0.6c0.1-0.2,0.2-0.4,0.2-0.6c0.1-0.3,0.2-0.5,0.2-0.7c0-0.1,0.1-0.2,0.2-0.3        c0.2-0.1,0.3-0.2,0.5-0.4c0.1-0.1,0.2-0.2,0.3-0.2l0.3-0.3l-0.1,0.4c-0.1,0.5-0.3,0.9-0.6,1.3c-0.1,0.1-0.1,0.2-0.2,0.3        c-0.1,0.2-0.3,0.4-0.4,0.6c-0.1,0.1-0.2,0.2-0.3,0.2c0,0,0,0-0.1,0L70.7,43.7z M72.1,41.5c-0.1,0.1-0.3,0.2-0.4,0.3        c0,0,0,0-0.1,0.1c0,0.2-0.1,0.4-0.2,0.7c0,0.1-0.1,0.1-0.1,0.2c0.1-0.1,0.1-0.2,0.2-0.3c0.1-0.1,0.1-0.2,0.2-0.3        C71.9,42,72,41.8,72.1,41.5z"/>
    <path class="st0" d="M73.1,39c0.1,0.1,0.1,0.3,0.2,0.4c0,0.1-0.1,0.2-0.3,0.3c-0.1,0.1-0.2,0-0.2-0.1c0-0.1,0-0.1-0.1-0.2       c-0.1-0.3,0-0.4,0.2-0.5C73,38.9,73,38.9,73.1,39z"/>
    <path class="st18" d="M69.5,45.3c0,0.1,0,0.1,0,0.2c-0.1,1.2-0.1,2.4,0.4,3.5c0.6,1.4,1.5,2.3,2.8,2.9c0,0,0.1,0,0.1,0.1        c-0.3,0-1.6-0.7-2.3-1.6C69.5,48.9,69.2,47.2,69.5,45.3z"/>
    <path class="st2" d="M72.9,52.1c-0.5,0-1.7-0.8-2.4-1.6c-1.1-1.4-1.5-3.1-1.2-5.2l0.1-0.4l0.3,0.3c0.1,0.1,0.1,0.2,0.1,0.3        c-0.1,1.4,0,2.5,0.4,3.5c0.5,1.3,1.5,2.2,2.7,2.8l0.8,0.3L72.9,52.1C72.9,52.1,72.9,52.1,72.9,52.1z"/>
    <path class="st0" d="M70.9,45.3c0-0.1-0.1-0.2-0.1-0.3c-0.1-0.3-0.2-0.6-0.3-0.9c-0.1-0.2,0-0.3,0.1-0.4       c0.1-0.1,0.3-0.2,0.5-0.2c0.2,0,0.1,0.3,0.2,0.4c0.1,0.3,0.2,0.6,0.4,0.9c0.1,0.2,0,0.5-0.2,0.6C71.3,45.4,71.1,45.4,70.9,45.3       z"/>
    <rect x="70.6" y="39" transform="matrix(0.9948 -0.1016 0.1016 0.9948 -3.6099 7.4567)" class="st2" width="1.6" height="0.3"/>
    <path class="st21" d="M72.1,48C72.1,48,72.1,48,72.1,48c-0.1,0-0.1,0.1-0.2,0.1c0,0,0,0,0,0C72,48.1,72.1,48.1,72.1,48z"/>
    <path class="st22" d="M72.2,48C72.2,48,72.2,48,72.2,48C72.2,48,72.2,48,72.2,48C72.1,48,72.1,48,72.2,48     C72.2,48,72.2,48,72.2,48z"/>
    <path class="st5" d="M73.5,48.8c0.1,0.1,0.2,0,0.2,0C73.6,48.8,73.5,48.8,73.5,48.8C73.4,48.8,73.4,48.8,73.5,48.8z"/>
    <path class="st5" d="M74,48c-0.4-0.3-1.2-0.2-1.8,0c0,0,0,0-0.1,0c-0.1,0-0.1,0.1-0.2,0.1c0,0,0,0-0.1,0.1c0,0-0.1,0.1-0.1,0.1     c-0.6,0.6-0.9,0.9-1,1.1c0.6,0.8,1.5-1,2.2-1c0.2,0,0.5,0.1,0.6,0.4l0.2,0.2C74.2,48.5,74.2,48.2,74,48z"/>
    <path class="st5" d="M69.6,45.8c0,0-0.2,0.1-0.2,0.2c0.6,1.1,1.9-0.8,3.5-0.4C72.8,45.1,71.5,44.7,69.6,45.8z"/>
    <path class="st5" d="M70,46.9c0,0-0.2,0.1-0.2,0.2c0.5,1.1,2.1-1.1,3.4-0.8C73.2,45.8,71.8,45.4,70,46.9z"/>
    <path class="st5" d="M71.8,47c-0.3,0.3-1.4,1.3-1.5,1.5c0.3,0.3,0.5,0.3,0.9,0c0.7-0.7,1.8-1.6,2.7-1.1l0,0c0,0,0,0,0,0     C74,46.3,72.6,46.4,71.8,47z"/>
    <path class="st2" d="M71.5,44.7C71.5,44.7,71.4,44.7,71.5,44.7C71.4,44.7,71.4,44.7,71.5,44.7c-0.2,0.1-0.3,0.1-0.3,0.1     c-0.1,0-0.2,0.1-0.3,0.1c0,0,0,0,0,0c0,0-0.1,0-0.1,0c-0.1,0-0.2,0.1-0.2,0.1c0,0,0,0-0.1,0c0,0-0.1,0-0.1,0     c-0.2,0.1-0.4,0.2-0.5,0.2c-0.3,0.1-0.6,0.4-0.7,0.5c0,0,0,0,0,0.1c0,0,0,0.1,0,0.1c0,0,0,0,0,0.1c0,0,0,0,0,0.1c0,0,0,0,0,0.1     c0,0,0,0,0,0c0,0,0,0,0,0.1c0.1,0.1,0.2,0.2,0.3,0.2c0,0,0,0,0,0c0,0,0.1,0,0.1,0c0,0,0,0,0.1,0c0,0,0.1,0,0.1,0c0,0,0.1,0,0.1,0     c0,0,0,0-0.2,0.2c0,0,0,0,0,0c0,0,0,0,0,0c0,0,0,0.1-0.1,0.1c0,0,0,0.1,0,0.1c0,0.1,0,0.1,0,0.1c0,0,0,0.1,0.1,0.1     c0.1,0.1,0.1,0.2,0.3,0.3c0,0,0.1,0,0.1,0.1c0,0,0.1,0,0.1,0c0,0,0,0,0,0c0,0,0,0,0.1,0c0,0,0.1,0,0.1,0c0,0,0.1,0,0.1,0     c0,0,0.1,0,0.1,0c0,0,0.1,0,0.1,0c0,0,0.1,0,0.1-0.1c0,0,0,0,0,0c0,0,0,0.1-0.3,0.3c0,0-0.1,0.1-0.1,0.1c0,0,0,0-0.1,0.1     c0,0-0.1,0.1-0.1,0.1c0,0,0,0-0.1,0.1v0c0,0,0,0-0.1,0.1c0,0,0,0,0,0.1c-0.1,0.1-0.1,0.2-0.1,0.2c0,0.1,0,0.2,0.1,0.3     c0,0,0.1,0.1,0.1,0.1c0.1,0.1,0.2,0.1,0.4,0.1c0,0,0,0,0,0c0.1,0,0.2,0,0.2,0s0,0-0.1,0.2c0,0,0,0,0,0c0,0,0,0,0,0c0,0,0,0,0,0     c0,0.1,0,0.1,0,0.2c0,0,0,0,0,0c0,0,0,0.1,0,0.1c0,0,0,0,0,0c0,0,0,0.1,0.1,0.1c0.1,0.1,0.3,0.2,0.5,0.2c0,0,0,0,0.1,0     c0,0,0,0,0,0c0,0,0,0,0,0c0,0,0,0,0,0c0,0,0.1,0,0.1,0c0.2-0.1,0.5-0.3,0.8-0.6c0,0,0,0,0,0c0,0,0,0,0.1-0.1     c0.1-0.1,0.1-0.1,0.2-0.2c0.1-0.1,0.1-0.1,0.2-0.2c0.2-0.2,0.4-0.2,0.5-0.2c0,0,0,0,0,0c0.1,0,0.2,0,0.2,0.1     c0.1,0,0.2,0.1,0.3,0.1c-0.2-0.3-0.4-0.3-0.6-0.4c-0.7,0-1.6,1.7-2.2,1c0.1-0.2,0.4-0.5,1-1.1c0,0,0.1-0.1,0.1-0.1     c0,0,0,0,0.1-0.1c0.1,0,0.1-0.1,0.2-0.1c0,0,0,0,0.1,0c0.6-0.3,1.5-0.4,1.8,0c0.2,0.2,0.2,0.5-0.1,1.1l0,0l0.3,0.3     c0.3-0.4,0.6-1,0.1-1.6c0.2-0.5,0-1.1-0.5-1.3c0-0.3-0.1-0.5-0.4-0.7c0-0.5-0.4-0.8-0.9-0.9C72.1,44.7,71.8,44.7,71.5,44.7z      M73.9,47.5C73.9,47.5,73.9,47.5,73.9,47.5L73.9,47.5c-0.9-0.5-2,0.3-2.7,1.1c-0.4,0.3-0.7,0.3-0.9,0c0.1-0.3,1.2-1.3,1.5-1.5     C72.6,46.4,74,46.3,73.9,47.5z M73.3,46.3c-1.4-0.3-2.9,1.9-3.4,0.8c0,0,0.1-0.2,0.2-0.2C71.8,45.4,73.2,45.8,73.3,46.3z      M72.9,45.6c-1.6-0.4-3,1.6-3.5,0.4c0,0,0.2-0.1,0.2-0.2C71.5,44.7,72.8,45.1,72.9,45.6z"/>
</svg>