<svg version="1.1" id="Слой_1" xmlns="http://www.w3.org/2000/svg" xmlns:xlink="http://www.w3.org/1999/xlink" x="0px" y="0px"
	 viewBox="0 0 95 95" style="enable-background:new 0 0 95 95;" xml:space="preserve">
<style type="text/css">
	.st0{fill:url(#SVGID_1_);}
	.st1{fill:url(#SVGID_2_);}
	.st2{fill:#DC025E;}
</style>
<linearGradient id="SVGID_1_" gradientUnits="userSpaceOnUse" x1="-0.5789" y1="-28.0526" x2="71.5042" y2="-28.0526" gradientTransform="matrix(1.1875 0 0 1.1875 5.4375 80.8125)">
	<stop  offset="0" style="stop-color:#FFFFFF;stop-opacity:0"/>
	<stop  offset="1" style="stop-color:#DC025E"/>
</linearGradient>
<path class="st0" d="M47.5,90.3c-23.6,0-42.8-19.1-42.8-42.8S23.9,4.8,47.5,4.8S90.3,24,90.3,47.5C90.3,71.1,71.1,90.3,47.5,90.3z
	 M47.5,6.5c-22.6,0-41,18.4-41,41s18.4,41,41,41s41-18.4,41-41S70.1,6.5,47.5,6.5z"/>
<linearGradient id="SVGID_2_" gradientUnits="userSpaceOnUse" x1="-2.8789" y1="-28.0526" x2="73.7211" y2="-28.0526" gradientTransform="matrix(1.1875 0 0 1.1875 5.4375 80.8125)">
	<stop  offset="0" style="stop-color:#F6E2EE"/>
	<stop  offset="1" style="stop-color:#FFFFFF;stop-opacity:0"/>
</linearGradient>
<path class="st1" d="M47.5,93C22.4,93,2,72.6,2,47.5S22.4,2,47.5,2S93,22.4,93,47.5S72.6,93,47.5,93z M47.5,3.9
	c-24,0-43.6,19.6-43.6,43.6s19.6,43.6,43.6,43.6s43.6-19.6,43.6-43.6S71.5,3.9,47.5,3.9z"/>
<path class="st2" d="M72.4,24.2H21.3c-0.5,0-0.8,0.4-0.8,0.8v45.2c0,0.5,0.4,0.8,0.8,0.8h51.2c0.5,0,0.8-0.4,0.8-0.8V25.1
	C73.4,24.6,72.9,24.2,72.4,24.2z M71.6,69.5H22.2V32.1h49.4V69.5z M71.6,30.5H22.2v-4.6h49.4V30.5z"/>
<path class="st2" d="M25.6,26.6h-1.8c-0.5,0-0.8,0.4-0.8,0.8V29c0,0.5,0.4,0.8,0.8,0.8h1.8c0.5,0,0.8-0.4,0.8-0.8v-1.7
	C26.6,27,26.1,26.6,25.6,26.6z"/>
<path class="st2" d="M30,26.6h-1.8c-0.5,0-0.8,0.4-0.8,0.8V29c0,0.5,0.4,0.8,0.8,0.8H30c0.5,0,0.8-0.4,0.8-0.8v-1.7
	C31,27,30.6,26.6,30,26.6z"/>
<path class="st2" d="M34.6,26.6h-1.8c-0.5,0-0.8,0.4-0.8,0.8V29c0,0.5,0.4,0.8,0.8,0.8h1.8c0.5,0,0.8-0.4,0.8-0.8v-1.7
	C35.4,27,35,26.6,34.6,26.6z"/>
<rect x="67.2" y="27.3" class="st2" width="3.6" height="1.5"/>
<rect x="64.5" y="27.3" class="st2" width="1.8" height="1.5"/>
<path class="st2" d="M70.3,45.1C70.2,45,70.2,45,70.1,45L69,44.5V39c0-0.5-0.4-0.8-0.8-0.8H25.6c-0.5,0-0.8,0.4-0.8,0.8v6.3
	c0,0.5,0.4,0.8,0.8,0.8h37.8l1.7,3.3c0.2,0.4,0.7,0.6,1.2,0.4c0.1,0,0.2-0.1,0.2-0.1l3.8-3.3C70.7,46,70.7,45.5,70.3,45.1z
	 M56.6,44.5h-30v-4.6h30C56.6,39.9,56.6,44.5,56.6,44.5z M63.2,42.3c-0.5-0.1-0.9,0-1.2,0.4c-0.1,0.2-0.1,0.5,0,0.6l0.6,1.2h-4.3
	v-4.6h8.8v4L63.2,42.3z M66.1,47.6l-1.7-3.2l3.6,1.4L66.1,47.6z"/>
<path class="st2" d="M48.7,61.6h-3.6c-0.5,0-0.8,0.4-0.8,0.8v3.1c0,0.5,0.4,0.8,0.8,0.8h3.6c0.5,0,0.8-0.4,0.8-0.8v-3.1
	C49.5,62,49.2,61.6,48.7,61.6z M47.7,64.7H46v-1.5h1.8V64.7z"/>
<path class="st2" d="M57.5,61.6h-3.6c-0.5,0-0.8,0.4-0.8,0.8v3.1c0,0.5,0.4,0.8,0.8,0.8h3.6c0.5,0,0.8-0.4,0.8-0.8v-3.1
	C58.3,62,58,61.6,57.5,61.6z M56.6,64.7h-1.8v-1.5h1.8V64.7z"/>
<path class="st2" d="M39.8,61.6h-3.6c-0.5,0-0.8,0.4-0.8,0.8v3.1c0,0.5,0.4,0.8,0.8,0.8h3.6c0.5,0,0.8-0.4,0.8-0.8v-3.1
	C40.7,62,40.3,61.6,39.8,61.6z M39,64.7h-1.8v-1.5H39V64.7z"/>
<rect x="32.8" y="49.2" class="st2" width="14.1" height="1.5"/>
<rect x="27.4" y="49.2" class="st2" width="3.6" height="1.5"/>
<rect x="48.7" y="49.2" class="st2" width="7" height="1.5"/>
<rect x="57.5" y="49.2" class="st2" width="5.3" height="1.5"/>
</svg>
