<svg width="95" height="95" xmlns="http://www.w3.org/2000/svg" viewBox="0 0 95 95">
<style>
	.st0{fill:url(#SVGID_1_);}
	.st1{fill:url(#SVGID_2_);}
	.st2{fill:#DC025E;}
</style>
<linearGradient id="SVGID_1_" gradientUnits="userSpaceOnUse" x1="3.3263" y1="38.5895" x2="75.4105" y2="38.5895" gradientTransform="matrix(1.1875 0 0 -1.1875 0.75 93.375)">
	<stop  offset="0" style="stop-color:#FFFFFF;stop-opacity:0"/>
	<stop  offset="1" style="stop-color:#E20A65"/>
</linearGradient>
<path class="st0" d="M47.5,90.3c-23.6,0-42.8-19.1-42.8-42.8S23.9,4.8,47.5,4.8S90.3,24,90.3,47.5C90.3,71.1,71.1,90.3,47.5,90.3z M47.5,6.5c-22.6,0-41,18.4-41,41s18.4,41,41,41s41-18.4,41-41S70.1,6.5,47.5,6.5z"/>
<linearGradient id="SVGID_2_" gradientUnits="userSpaceOnUse" x1="1.0526" y1="38.6316" x2="77.6842" y2="38.6316" gradientTransform="matrix(1.1875 0 0 -1.1875 0.75 93.375)">
	<stop  offset="0" style="stop-color:#F6E2EE"/>
	<stop  offset="1" style="stop-color:#FFFFFF;stop-opacity:0"/>
</linearGradient>
<path class="st1" d="M47.5,93C22.4,93,2,72.6,2,47.5S22.4,2,47.5,2S93,22.4,93,47.5S72.6,93,47.5,93z M47.5,3.9 c-24,0-43.6,19.6-43.6,43.6s19.6,43.6,43.6,43.6s43.6-19.6,43.6-43.6S71.5,3.9,47.5,3.9z"/>
<path class="st2" d="M42.8,22.1l1,1.5c3.6-2.2,8.2-2.2,11.8,0l1-1.5C52.4,19.4,46.9,19.4,42.8,22.1z"/>
<path class="st2" d="M38.7,32.7h-1.8c0,1.6,0.4,3.3,0.9,4.9l1.7-0.7C38.9,35.5,38.7,34.1,38.7,32.7z"/>
<path class="st2" d="M53.9,42.7c-1.3,0.6-2.7,0.9-4.2,0.9v1.7c1.7,0,3.4-0.3,4.9-1L53.9,42.7z"/>
<path class="st2" d="M60.6,32.7c0,1.4-0.3,2.9-0.8,4.2l1.7,0.7c0.7-1.5,1-3.1,0.9-4.9C62.4,32.7,60.6,32.7,60.6,32.7z"/>
<path class="st2" d="M49.6,23.7c-5.1,0-9.1,4-9.1,9s4.1,9,9.1,9c5.1,0,9.1-4,9.1-9C58.7,27.7,54.7,23.7,49.6,23.7z M49.6,39.9 c-4,0-7.3-3.2-7.3-7.1s3.3-7.1,7.3-7.1s7.3,3.2,7.3,7.1C57,36.7,53.7,39.9,49.6,39.9z"/>
<path class="st2" d="M51.7,32.4L50.6,32v-2.3c0.5,0.2,0.8,0.7,0.9,1.1h1.8c-0.1-1.5-1.2-2.8-2.7-3.1v-0.6h-1.8v0.6 c-1.5,0.3-2.6,1.5-2.7,3.1c0,1,0.7,1.8,1.7,2.1l1.1,0.4v2.3c-0.5-0.2-0.8-0.7-0.9-1.1h-2c0.1,1.5,1.2,2.8,2.7,3.1v0.6h1.8v-0.6 c1.5-0.3,2.6-1.5,2.7-3.1C53.3,33.5,52.6,32.7,51.7,32.4z M48.7,31.4l-0.6-0.2c-0.2-0.1-0.4-0.2-0.4-0.4c0.1-0.6,0.4-1,0.9-1.1V31.4 z M50.6,35.6v-1.7l0.6,0.2c0.2,0.1,0.4,0.2,0.4,0.4C51.4,35.1,51,35.4,50.6,35.6z"/>
<path class="st2" d="M74,57.3l-3-3l3-3c0.4-0.4,0.4-1,0-1.2L62.1,38.4c-0.4-0.4-0.9-0.4-1.3,0L49.2,49.8L36.6,37.4 c-0.4-0.4-0.9-0.4-1.3,0L23.5,49.2c-0.4,0.4-0.4,1,0,1.2l6.7,6.6H19.5v1.8h11.8c0.1,0,0.3,0,0.4-0.1l6.2-2.7h13.5v3.6h-9.9 c-0.5,0-0.9,0.4-0.9,0.9c0,0.4,0.2,0.7,0.6,0.9l11.8,5.4c0.3,0.1,0.7,0.1,0.9-0.1l15.9-11.2l2.4,2.4L53.9,73.2h-5L31.7,67 c-0.1,0-0.2-0.1-0.3-0.1H19.5v1.8h11.7l17.2,6.2c0.1,0,0.2,0.1,0.3,0.1h5.4c0.2,0,0.5-0.1,0.6-0.2l19.1-16.2 C74.3,58.2,74.4,57.7,74,57.3L74,57.3z M37.8,54.3c-0.1,0-0.3,0-0.4,0.1l-0.2,0.1c0.9-2.3,3.6-3.4,5.9-2.6c1.1,0.5,2.1,1.3,2.5,2.4 C45.7,54.3,37.8,54.3,37.8,54.3z M47.6,54.3c-0.8-2.7-3.3-4.5-6.1-4.5c-3.2,0-5.9,2.4-6.4,5.5l-2.8,1.2l-6.9-6.9l10.6-10.4L51,54.2 L47.6,54.3L47.6,54.3z M53.2,64.9l-7.6-3.4h6.8c0.5,0,0.9-0.4,0.9-0.9v-4.1l5,4.9L53.2,64.9z M53.4,54c0.4-1.9,2.1-3.3,4-3.3 c2.3,0,4.1,1.8,4.1,4c0,1.9-1.4,3.6-3.4,4L53.4,54z M59.7,60.1c0.4-0.2,0.8-0.3,1-0.6L59.7,60.1L59.7,60.1z M69.1,53.6l-8.1,5.7 c2.5-2,3-5.7,0.9-8.2c-2.1-2.5-5.8-3-8.3-1c-0.8,0.7-1.4,1.4-1.8,2.4l-1.4-1.4l11.1-10.9l10.6,10.4L69.1,53.6z"/>
</svg>
