<svg fill="#dc025e" width="32" height="44" xmlns="http://www.w3.org/2000/svg">
    <path d="M16,6C9,6,3.4,11.7,3.4,18.6c0,2.3,0.6,4.7,1.7,7.2c0.9,2,2.2,4,3.8,6c2.7,3.4,5.3,5.6,5.4,5.7c0.5,0.4,1.1,0.6,1.7,0.6 c0.6,0,1.2-0.2,1.7-0.6c0.1-0.1,2.8-2.3,5.4-5.7c1.6-2,2.8-4,3.8-6c1.2-2.5,1.7-4.9,1.7-7.2C28.6,11.7,23,6,16,6z"/>
    <path d="M21.7,30.6c-2.6,3.2-5.1,5.4-5.2,5.4c-0.3,0.2-0.8,0.2-1.1,0c0,0-2.6-2.2-5.2-5.4C8,27.6,5.3,23.2,5.3,18.6 c0-5.9,4.8-10.8,10.8-10.8s10.8,4.8,10.8,10.8C26.8,23.2,24,27.6,21.7,30.6z"/>
    <path d="M16,10.4c4.5,0,8.1,3.6,8.1,8.1c0,4.5-3.6,8.1-8.1,8.1c-4.5,0-8.1-3.6-8.1-8.1C7.9,14.1,11.5,10.4,16,10.4z"/>
    <circle fill="#fed4e6" cx="16" cy="18.6" r="6.2"/>
</svg>
