<svg fill="#ffcce0" viewBox="0 0 368 368" xmlns="http://www.w3.org/2000/svg">
    <path d="m360 0h-352c-4.414062 0-8 3.585938-8 8v64c0 4.414062 3.585938 8 8 8h8v272h-8c-4.414062 0-8 3.585938-8 8s3.585938 8 8 8h352c4.414062 0 8-3.585938 8-8s-3.585938-8-8-8h-8v-272h8c4.414062 0 8-3.585938 8-8v-64c0-4.414062-3.585938-8-8-8zm-216 80v56c0 13.230469-10.769531 24-24 24s-24-10.769531-24-24v-56zm64 0v56c0 13.230469-10.769531 24-24 24s-24-10.769531-24-24v-56zm64 0v56c0 13.230469-10.769531 24-24 24s-24-10.769531-24-24v-56zm-192 56c0 13.230469-10.769531 24-24 24s-24-10.769531-24-24v-56h48zm-48 104h48v48h-48zm192 112h-80v-112h80zm16 0v-120c0-4.414062-3.585938-8-8-8h-96c-4.414062 0-8 3.585938-8 8v120h-96v-48h56c4.414062 0 8-3.585938 8-8v-64c0-4.414062-3.585938-8-8-8h-56v-56.207031c6.703125 5.078125 14.960938 8.207031 24 8.207031 13.128906 0 24.703125-6.449219 32-16.246094 7.296875 9.796875 18.871094 16.246094 32 16.246094s24.703125-6.449219 32-16.246094c7.296875 9.796875 18.871094 16.246094 32 16.246094s24.703125-6.449219 32-16.246094c7.296875 9.796875 18.871094 16.246094 32 16.246094s24.703125-6.449219 32-16.246094c7.296875 9.796875 18.871094 16.246094 32 16.246094 9.039062 0 17.296875-3.128906 24-8.207031v56.207031h-56c-4.414062 0-8 3.585938-8 8v64c0 4.414062 3.585938 8 8 8h56v48zm96-64h-48v-48h48zm0-152c0 13.230469-10.769531 24-24 24s-24-10.769531-24-24v-56h48zm16-72h-336v-48h336zm0 0"/>
</svg>