<svg fill="#828282" xmlns="http://www.w3.org/2000/svg" viewBox="0 0 1000 1000">
    <path d="M836.645851 329.142857q0 126.281143-84.278857 219.721143t-208.292571 107.136l0 148.571429 128 0q8.009143 0 13.147429 5.138286t5.138286 13.147429l0 36.571429q0 8.009143-5.138286 13.147429t-13.147429 5.138286l-128 0 0 128q0 8.009143-5.138286 13.147429t-13.147429 5.138286l-36.571429 0q-8.009143 0-13.147429-5.138286t-5.138286-13.147429l0-128-128 0q-8.009143 0-13.147429-5.138286t-5.138286-13.147429l0-36.571429q0-8.009143 5.138286-13.147429t13.147429-5.138286l128 0 0-148.571429q-85.705143-9.142857-155.136-58.861714t-106.294857-128-30.006857-166.857143q6.290286-76.562286 46.006857-142.281143t103.990857-107.428571 140.288-50.285714q97.152-10.861714 182.290286 30.848t134.857143 121.142857 49.718857 174.848zM251.502994 329.142857q0 105.709714 75.136 180.864t180.864 75.136 180.864-75.136 75.136-180.864-75.136-180.864-180.864-75.136-180.864 75.136-75.136 180.864z"/>
</svg>